%TF.GenerationSoftware,KiCad,Pcbnew,9.0.2*%
%TF.CreationDate,2025-07-11T15:34:56+01:00*%
%TF.ProjectId,FastStepper,46617374-5374-4657-9070-65722e6b6963,rev?*%
%TF.SameCoordinates,PX71f712cPY8e18f40*%
%TF.FileFunction,AssemblyDrawing,Top*%
%FSLAX46Y46*%
G04 Gerber Fmt 4.6, Leading zero omitted, Abs format (unit mm)*
G04 Created by KiCad (PCBNEW 9.0.2) date 2025-07-11 15:34:56*
%MOMM*%
%LPD*%
G01*
G04 APERTURE LIST*
%ADD10C,0.040000*%
%ADD11C,0.200000*%
%ADD12C,0.060000*%
%ADD13C,0.120000*%
%ADD14C,0.150000*%
%ADD15C,0.075000*%
%ADD16C,0.125000*%
%ADD17C,0.080000*%
%ADD18C,0.100000*%
%ADD19C,0.127000*%
%TA.AperFunction,Profile*%
%ADD20C,0.152400*%
%TD*%
%TA.AperFunction,Profile*%
%ADD21C,0.150000*%
%TD*%
G04 APERTURE END LIST*
D10*
X16575765Y51445886D02*
X16587670Y51433982D01*
X16587670Y51433982D02*
X16599574Y51398267D01*
X16599574Y51398267D02*
X16599574Y51374458D01*
X16599574Y51374458D02*
X16587670Y51338744D01*
X16587670Y51338744D02*
X16563860Y51314934D01*
X16563860Y51314934D02*
X16540050Y51303029D01*
X16540050Y51303029D02*
X16492431Y51291125D01*
X16492431Y51291125D02*
X16456717Y51291125D01*
X16456717Y51291125D02*
X16409098Y51303029D01*
X16409098Y51303029D02*
X16385289Y51314934D01*
X16385289Y51314934D02*
X16361479Y51338744D01*
X16361479Y51338744D02*
X16349574Y51374458D01*
X16349574Y51374458D02*
X16349574Y51398267D01*
X16349574Y51398267D02*
X16361479Y51433982D01*
X16361479Y51433982D02*
X16373384Y51445886D01*
X16599574Y51683982D02*
X16599574Y51541125D01*
X16599574Y51612553D02*
X16349574Y51612553D01*
X16349574Y51612553D02*
X16385289Y51588744D01*
X16385289Y51588744D02*
X16409098Y51564934D01*
X16409098Y51564934D02*
X16421003Y51541125D01*
X16349574Y51767315D02*
X16349574Y51933981D01*
X16349574Y51933981D02*
X16599574Y51826839D01*
X53367100Y63106668D02*
X53243291Y63020001D01*
X53367100Y62958096D02*
X53107100Y62958096D01*
X53107100Y62958096D02*
X53107100Y63057144D01*
X53107100Y63057144D02*
X53119481Y63081906D01*
X53119481Y63081906D02*
X53131862Y63094287D01*
X53131862Y63094287D02*
X53156624Y63106668D01*
X53156624Y63106668D02*
X53193767Y63106668D01*
X53193767Y63106668D02*
X53218529Y63094287D01*
X53218529Y63094287D02*
X53230910Y63081906D01*
X53230910Y63081906D02*
X53243291Y63057144D01*
X53243291Y63057144D02*
X53243291Y62958096D01*
X53131862Y63205715D02*
X53119481Y63218096D01*
X53119481Y63218096D02*
X53107100Y63242858D01*
X53107100Y63242858D02*
X53107100Y63304763D01*
X53107100Y63304763D02*
X53119481Y63329525D01*
X53119481Y63329525D02*
X53131862Y63341906D01*
X53131862Y63341906D02*
X53156624Y63354287D01*
X53156624Y63354287D02*
X53181386Y63354287D01*
X53181386Y63354287D02*
X53218529Y63341906D01*
X53218529Y63341906D02*
X53367100Y63193334D01*
X53367100Y63193334D02*
X53367100Y63354287D01*
X16702765Y56589286D02*
X16714670Y56577382D01*
X16714670Y56577382D02*
X16726574Y56541667D01*
X16726574Y56541667D02*
X16726574Y56517858D01*
X16726574Y56517858D02*
X16714670Y56482144D01*
X16714670Y56482144D02*
X16690860Y56458334D01*
X16690860Y56458334D02*
X16667050Y56446429D01*
X16667050Y56446429D02*
X16619431Y56434525D01*
X16619431Y56434525D02*
X16583717Y56434525D01*
X16583717Y56434525D02*
X16536098Y56446429D01*
X16536098Y56446429D02*
X16512289Y56458334D01*
X16512289Y56458334D02*
X16488479Y56482144D01*
X16488479Y56482144D02*
X16476574Y56517858D01*
X16476574Y56517858D02*
X16476574Y56541667D01*
X16476574Y56541667D02*
X16488479Y56577382D01*
X16488479Y56577382D02*
X16500384Y56589286D01*
X16726574Y56827382D02*
X16726574Y56684525D01*
X16726574Y56755953D02*
X16476574Y56755953D01*
X16476574Y56755953D02*
X16512289Y56732144D01*
X16512289Y56732144D02*
X16536098Y56708334D01*
X16536098Y56708334D02*
X16548003Y56684525D01*
X16559908Y57041667D02*
X16726574Y57041667D01*
X16464670Y56982143D02*
X16643241Y56922620D01*
X16643241Y56922620D02*
X16643241Y57077381D01*
X25108765Y27364686D02*
X25120670Y27352782D01*
X25120670Y27352782D02*
X25132574Y27317067D01*
X25132574Y27317067D02*
X25132574Y27293258D01*
X25132574Y27293258D02*
X25120670Y27257544D01*
X25120670Y27257544D02*
X25096860Y27233734D01*
X25096860Y27233734D02*
X25073050Y27221829D01*
X25073050Y27221829D02*
X25025431Y27209925D01*
X25025431Y27209925D02*
X24989717Y27209925D01*
X24989717Y27209925D02*
X24942098Y27221829D01*
X24942098Y27221829D02*
X24918289Y27233734D01*
X24918289Y27233734D02*
X24894479Y27257544D01*
X24894479Y27257544D02*
X24882574Y27293258D01*
X24882574Y27293258D02*
X24882574Y27317067D01*
X24882574Y27317067D02*
X24894479Y27352782D01*
X24894479Y27352782D02*
X24906384Y27364686D01*
X24882574Y27448020D02*
X24882574Y27602782D01*
X24882574Y27602782D02*
X24977812Y27519448D01*
X24977812Y27519448D02*
X24977812Y27555163D01*
X24977812Y27555163D02*
X24989717Y27578972D01*
X24989717Y27578972D02*
X25001622Y27590877D01*
X25001622Y27590877D02*
X25025431Y27602782D01*
X25025431Y27602782D02*
X25084955Y27602782D01*
X25084955Y27602782D02*
X25108765Y27590877D01*
X25108765Y27590877D02*
X25120670Y27578972D01*
X25120670Y27578972D02*
X25132574Y27555163D01*
X25132574Y27555163D02*
X25132574Y27483734D01*
X25132574Y27483734D02*
X25120670Y27459925D01*
X25120670Y27459925D02*
X25108765Y27448020D01*
X24882574Y27757543D02*
X24882574Y27781353D01*
X24882574Y27781353D02*
X24894479Y27805162D01*
X24894479Y27805162D02*
X24906384Y27817067D01*
X24906384Y27817067D02*
X24930193Y27828972D01*
X24930193Y27828972D02*
X24977812Y27840877D01*
X24977812Y27840877D02*
X25037336Y27840877D01*
X25037336Y27840877D02*
X25084955Y27828972D01*
X25084955Y27828972D02*
X25108765Y27817067D01*
X25108765Y27817067D02*
X25120670Y27805162D01*
X25120670Y27805162D02*
X25132574Y27781353D01*
X25132574Y27781353D02*
X25132574Y27757543D01*
X25132574Y27757543D02*
X25120670Y27733734D01*
X25120670Y27733734D02*
X25108765Y27721829D01*
X25108765Y27721829D02*
X25084955Y27709924D01*
X25084955Y27709924D02*
X25037336Y27698020D01*
X25037336Y27698020D02*
X24977812Y27698020D01*
X24977812Y27698020D02*
X24930193Y27709924D01*
X24930193Y27709924D02*
X24906384Y27721829D01*
X24906384Y27721829D02*
X24894479Y27733734D01*
X24894479Y27733734D02*
X24882574Y27757543D01*
X21803857Y29820200D02*
X21717190Y29944009D01*
X21655285Y29820200D02*
X21655285Y30080200D01*
X21655285Y30080200D02*
X21754333Y30080200D01*
X21754333Y30080200D02*
X21779095Y30067819D01*
X21779095Y30067819D02*
X21791476Y30055438D01*
X21791476Y30055438D02*
X21803857Y30030676D01*
X21803857Y30030676D02*
X21803857Y29993533D01*
X21803857Y29993533D02*
X21791476Y29968771D01*
X21791476Y29968771D02*
X21779095Y29956390D01*
X21779095Y29956390D02*
X21754333Y29944009D01*
X21754333Y29944009D02*
X21655285Y29944009D01*
X22051476Y29820200D02*
X21902904Y29820200D01*
X21977190Y29820200D02*
X21977190Y30080200D01*
X21977190Y30080200D02*
X21952428Y30043057D01*
X21952428Y30043057D02*
X21927666Y30018295D01*
X21927666Y30018295D02*
X21902904Y30005914D01*
X22274333Y29993533D02*
X22274333Y29820200D01*
X22212428Y30092580D02*
X22150523Y29906866D01*
X22150523Y29906866D02*
X22311476Y29906866D01*
D11*
X2033528Y73979115D02*
X3533528Y74979115D01*
X2033528Y74979115D02*
X3533528Y73979115D01*
X2033528Y75407686D02*
X2033528Y76336258D01*
X2033528Y76336258D02*
X2604957Y75836258D01*
X2604957Y75836258D02*
X2604957Y76050543D01*
X2604957Y76050543D02*
X2676385Y76193400D01*
X2676385Y76193400D02*
X2747814Y76264829D01*
X2747814Y76264829D02*
X2890671Y76336258D01*
X2890671Y76336258D02*
X3247814Y76336258D01*
X3247814Y76336258D02*
X3390671Y76264829D01*
X3390671Y76264829D02*
X3462100Y76193400D01*
X3462100Y76193400D02*
X3533528Y76050543D01*
X3533528Y76050543D02*
X3533528Y75621972D01*
X3533528Y75621972D02*
X3462100Y75479115D01*
X3462100Y75479115D02*
X3390671Y75407686D01*
D12*
X56491757Y60856168D02*
X56472709Y60837120D01*
X56472709Y60837120D02*
X56415567Y60818073D01*
X56415567Y60818073D02*
X56377471Y60818073D01*
X56377471Y60818073D02*
X56320328Y60837120D01*
X56320328Y60837120D02*
X56282233Y60875216D01*
X56282233Y60875216D02*
X56263186Y60913311D01*
X56263186Y60913311D02*
X56244138Y60989501D01*
X56244138Y60989501D02*
X56244138Y61046644D01*
X56244138Y61046644D02*
X56263186Y61122835D01*
X56263186Y61122835D02*
X56282233Y61160930D01*
X56282233Y61160930D02*
X56320328Y61199025D01*
X56320328Y61199025D02*
X56377471Y61218073D01*
X56377471Y61218073D02*
X56415567Y61218073D01*
X56415567Y61218073D02*
X56472709Y61199025D01*
X56472709Y61199025D02*
X56491757Y61179978D01*
X56644138Y61179978D02*
X56663186Y61199025D01*
X56663186Y61199025D02*
X56701281Y61218073D01*
X56701281Y61218073D02*
X56796519Y61218073D01*
X56796519Y61218073D02*
X56834614Y61199025D01*
X56834614Y61199025D02*
X56853662Y61179978D01*
X56853662Y61179978D02*
X56872709Y61141882D01*
X56872709Y61141882D02*
X56872709Y61103787D01*
X56872709Y61103787D02*
X56853662Y61046644D01*
X56853662Y61046644D02*
X56625090Y60818073D01*
X56625090Y60818073D02*
X56872709Y60818073D01*
X57215566Y61084740D02*
X57215566Y60818073D01*
X57120328Y61237120D02*
X57025090Y60951406D01*
X57025090Y60951406D02*
X57272709Y60951406D01*
D10*
X44338185Y8410235D02*
X44326281Y8398330D01*
X44326281Y8398330D02*
X44290566Y8386426D01*
X44290566Y8386426D02*
X44266757Y8386426D01*
X44266757Y8386426D02*
X44231043Y8398330D01*
X44231043Y8398330D02*
X44207233Y8422140D01*
X44207233Y8422140D02*
X44195328Y8445950D01*
X44195328Y8445950D02*
X44183424Y8493569D01*
X44183424Y8493569D02*
X44183424Y8529283D01*
X44183424Y8529283D02*
X44195328Y8576902D01*
X44195328Y8576902D02*
X44207233Y8600711D01*
X44207233Y8600711D02*
X44231043Y8624521D01*
X44231043Y8624521D02*
X44266757Y8636426D01*
X44266757Y8636426D02*
X44290566Y8636426D01*
X44290566Y8636426D02*
X44326281Y8624521D01*
X44326281Y8624521D02*
X44338185Y8612616D01*
X44421519Y8636426D02*
X44576281Y8636426D01*
X44576281Y8636426D02*
X44492947Y8541188D01*
X44492947Y8541188D02*
X44528662Y8541188D01*
X44528662Y8541188D02*
X44552471Y8529283D01*
X44552471Y8529283D02*
X44564376Y8517378D01*
X44564376Y8517378D02*
X44576281Y8493569D01*
X44576281Y8493569D02*
X44576281Y8434045D01*
X44576281Y8434045D02*
X44564376Y8410235D01*
X44564376Y8410235D02*
X44552471Y8398330D01*
X44552471Y8398330D02*
X44528662Y8386426D01*
X44528662Y8386426D02*
X44457233Y8386426D01*
X44457233Y8386426D02*
X44433424Y8398330D01*
X44433424Y8398330D02*
X44421519Y8410235D01*
X44671519Y8612616D02*
X44683423Y8624521D01*
X44683423Y8624521D02*
X44707233Y8636426D01*
X44707233Y8636426D02*
X44766757Y8636426D01*
X44766757Y8636426D02*
X44790566Y8624521D01*
X44790566Y8624521D02*
X44802471Y8612616D01*
X44802471Y8612616D02*
X44814376Y8588807D01*
X44814376Y8588807D02*
X44814376Y8564997D01*
X44814376Y8564997D02*
X44802471Y8529283D01*
X44802471Y8529283D02*
X44659614Y8386426D01*
X44659614Y8386426D02*
X44814376Y8386426D01*
X19577965Y41278286D02*
X19589870Y41266382D01*
X19589870Y41266382D02*
X19601774Y41230667D01*
X19601774Y41230667D02*
X19601774Y41206858D01*
X19601774Y41206858D02*
X19589870Y41171144D01*
X19589870Y41171144D02*
X19566060Y41147334D01*
X19566060Y41147334D02*
X19542250Y41135429D01*
X19542250Y41135429D02*
X19494631Y41123525D01*
X19494631Y41123525D02*
X19458917Y41123525D01*
X19458917Y41123525D02*
X19411298Y41135429D01*
X19411298Y41135429D02*
X19387489Y41147334D01*
X19387489Y41147334D02*
X19363679Y41171144D01*
X19363679Y41171144D02*
X19351774Y41206858D01*
X19351774Y41206858D02*
X19351774Y41230667D01*
X19351774Y41230667D02*
X19363679Y41266382D01*
X19363679Y41266382D02*
X19375584Y41278286D01*
X19375584Y41373525D02*
X19363679Y41385429D01*
X19363679Y41385429D02*
X19351774Y41409239D01*
X19351774Y41409239D02*
X19351774Y41468763D01*
X19351774Y41468763D02*
X19363679Y41492572D01*
X19363679Y41492572D02*
X19375584Y41504477D01*
X19375584Y41504477D02*
X19399393Y41516382D01*
X19399393Y41516382D02*
X19423203Y41516382D01*
X19423203Y41516382D02*
X19458917Y41504477D01*
X19458917Y41504477D02*
X19601774Y41361620D01*
X19601774Y41361620D02*
X19601774Y41516382D01*
X19601774Y41635429D02*
X19601774Y41683048D01*
X19601774Y41683048D02*
X19589870Y41706858D01*
X19589870Y41706858D02*
X19577965Y41718762D01*
X19577965Y41718762D02*
X19542250Y41742572D01*
X19542250Y41742572D02*
X19494631Y41754477D01*
X19494631Y41754477D02*
X19399393Y41754477D01*
X19399393Y41754477D02*
X19375584Y41742572D01*
X19375584Y41742572D02*
X19363679Y41730667D01*
X19363679Y41730667D02*
X19351774Y41706858D01*
X19351774Y41706858D02*
X19351774Y41659239D01*
X19351774Y41659239D02*
X19363679Y41635429D01*
X19363679Y41635429D02*
X19375584Y41623524D01*
X19375584Y41623524D02*
X19399393Y41611620D01*
X19399393Y41611620D02*
X19458917Y41611620D01*
X19458917Y41611620D02*
X19482727Y41623524D01*
X19482727Y41623524D02*
X19494631Y41635429D01*
X19494631Y41635429D02*
X19506536Y41659239D01*
X19506536Y41659239D02*
X19506536Y41706858D01*
X19506536Y41706858D02*
X19494631Y41730667D01*
X19494631Y41730667D02*
X19482727Y41742572D01*
X19482727Y41742572D02*
X19458917Y41754477D01*
X12781757Y14381800D02*
X12695090Y14505609D01*
X12633185Y14381800D02*
X12633185Y14641800D01*
X12633185Y14641800D02*
X12732233Y14641800D01*
X12732233Y14641800D02*
X12756995Y14629419D01*
X12756995Y14629419D02*
X12769376Y14617038D01*
X12769376Y14617038D02*
X12781757Y14592276D01*
X12781757Y14592276D02*
X12781757Y14555133D01*
X12781757Y14555133D02*
X12769376Y14530371D01*
X12769376Y14530371D02*
X12756995Y14517990D01*
X12756995Y14517990D02*
X12732233Y14505609D01*
X12732233Y14505609D02*
X12633185Y14505609D01*
X12880804Y14617038D02*
X12893185Y14629419D01*
X12893185Y14629419D02*
X12917947Y14641800D01*
X12917947Y14641800D02*
X12979852Y14641800D01*
X12979852Y14641800D02*
X13004614Y14629419D01*
X13004614Y14629419D02*
X13016995Y14617038D01*
X13016995Y14617038D02*
X13029376Y14592276D01*
X13029376Y14592276D02*
X13029376Y14567514D01*
X13029376Y14567514D02*
X13016995Y14530371D01*
X13016995Y14530371D02*
X12868423Y14381800D01*
X12868423Y14381800D02*
X13029376Y14381800D01*
X13128423Y14617038D02*
X13140804Y14629419D01*
X13140804Y14629419D02*
X13165566Y14641800D01*
X13165566Y14641800D02*
X13227471Y14641800D01*
X13227471Y14641800D02*
X13252233Y14629419D01*
X13252233Y14629419D02*
X13264614Y14617038D01*
X13264614Y14617038D02*
X13276995Y14592276D01*
X13276995Y14592276D02*
X13276995Y14567514D01*
X13276995Y14567514D02*
X13264614Y14530371D01*
X13264614Y14530371D02*
X13116042Y14381800D01*
X13116042Y14381800D02*
X13276995Y14381800D01*
D13*
X30401280Y56611145D02*
X30934614Y55811145D01*
X30934614Y56611145D02*
X30401280Y55811145D01*
X31582233Y56611145D02*
X31429852Y56611145D01*
X31429852Y56611145D02*
X31353661Y56573050D01*
X31353661Y56573050D02*
X31315566Y56534955D01*
X31315566Y56534955D02*
X31239376Y56420669D01*
X31239376Y56420669D02*
X31201280Y56268288D01*
X31201280Y56268288D02*
X31201280Y55963526D01*
X31201280Y55963526D02*
X31239376Y55887336D01*
X31239376Y55887336D02*
X31277471Y55849240D01*
X31277471Y55849240D02*
X31353661Y55811145D01*
X31353661Y55811145D02*
X31506042Y55811145D01*
X31506042Y55811145D02*
X31582233Y55849240D01*
X31582233Y55849240D02*
X31620328Y55887336D01*
X31620328Y55887336D02*
X31658423Y55963526D01*
X31658423Y55963526D02*
X31658423Y56154002D01*
X31658423Y56154002D02*
X31620328Y56230193D01*
X31620328Y56230193D02*
X31582233Y56268288D01*
X31582233Y56268288D02*
X31506042Y56306383D01*
X31506042Y56306383D02*
X31353661Y56306383D01*
X31353661Y56306383D02*
X31277471Y56268288D01*
X31277471Y56268288D02*
X31239376Y56230193D01*
X31239376Y56230193D02*
X31201280Y56154002D01*
D14*
X30865566Y16945181D02*
X30865566Y16230896D01*
X30865566Y16230896D02*
X30817947Y16088039D01*
X30817947Y16088039D02*
X30722709Y15992800D01*
X30722709Y15992800D02*
X30579852Y15945181D01*
X30579852Y15945181D02*
X30484614Y15945181D01*
X31770328Y16945181D02*
X31579852Y16945181D01*
X31579852Y16945181D02*
X31484614Y16897562D01*
X31484614Y16897562D02*
X31436995Y16849943D01*
X31436995Y16849943D02*
X31341757Y16707086D01*
X31341757Y16707086D02*
X31294138Y16516610D01*
X31294138Y16516610D02*
X31294138Y16135658D01*
X31294138Y16135658D02*
X31341757Y16040420D01*
X31341757Y16040420D02*
X31389376Y15992800D01*
X31389376Y15992800D02*
X31484614Y15945181D01*
X31484614Y15945181D02*
X31675090Y15945181D01*
X31675090Y15945181D02*
X31770328Y15992800D01*
X31770328Y15992800D02*
X31817947Y16040420D01*
X31817947Y16040420D02*
X31865566Y16135658D01*
X31865566Y16135658D02*
X31865566Y16373753D01*
X31865566Y16373753D02*
X31817947Y16468991D01*
X31817947Y16468991D02*
X31770328Y16516610D01*
X31770328Y16516610D02*
X31675090Y16564229D01*
X31675090Y16564229D02*
X31484614Y16564229D01*
X31484614Y16564229D02*
X31389376Y16516610D01*
X31389376Y16516610D02*
X31341757Y16468991D01*
X31341757Y16468991D02*
X31294138Y16373753D01*
D15*
X13054409Y44436306D02*
X12554409Y44436306D01*
X13006790Y44960115D02*
X13030600Y44936306D01*
X13030600Y44936306D02*
X13054409Y44864877D01*
X13054409Y44864877D02*
X13054409Y44817258D01*
X13054409Y44817258D02*
X13030600Y44745830D01*
X13030600Y44745830D02*
X12982980Y44698211D01*
X12982980Y44698211D02*
X12935361Y44674401D01*
X12935361Y44674401D02*
X12840123Y44650592D01*
X12840123Y44650592D02*
X12768695Y44650592D01*
X12768695Y44650592D02*
X12673457Y44674401D01*
X12673457Y44674401D02*
X12625838Y44698211D01*
X12625838Y44698211D02*
X12578219Y44745830D01*
X12578219Y44745830D02*
X12554409Y44817258D01*
X12554409Y44817258D02*
X12554409Y44864877D01*
X12554409Y44864877D02*
X12578219Y44936306D01*
X12578219Y44936306D02*
X12602028Y44960115D01*
X12554409Y45388687D02*
X12554409Y45293449D01*
X12554409Y45293449D02*
X12578219Y45245830D01*
X12578219Y45245830D02*
X12602028Y45222020D01*
X12602028Y45222020D02*
X12673457Y45174401D01*
X12673457Y45174401D02*
X12768695Y45150592D01*
X12768695Y45150592D02*
X12959171Y45150592D01*
X12959171Y45150592D02*
X13006790Y45174401D01*
X13006790Y45174401D02*
X13030600Y45198211D01*
X13030600Y45198211D02*
X13054409Y45245830D01*
X13054409Y45245830D02*
X13054409Y45341068D01*
X13054409Y45341068D02*
X13030600Y45388687D01*
X13030600Y45388687D02*
X13006790Y45412496D01*
X13006790Y45412496D02*
X12959171Y45436306D01*
X12959171Y45436306D02*
X12840123Y45436306D01*
X12840123Y45436306D02*
X12792504Y45412496D01*
X12792504Y45412496D02*
X12768695Y45388687D01*
X12768695Y45388687D02*
X12744885Y45341068D01*
X12744885Y45341068D02*
X12744885Y45245830D01*
X12744885Y45245830D02*
X12768695Y45198211D01*
X12768695Y45198211D02*
X12792504Y45174401D01*
X12792504Y45174401D02*
X12840123Y45150592D01*
X44066309Y19973811D02*
X43566309Y19973811D01*
X44018690Y20497620D02*
X44042500Y20473811D01*
X44042500Y20473811D02*
X44066309Y20402382D01*
X44066309Y20402382D02*
X44066309Y20354763D01*
X44066309Y20354763D02*
X44042500Y20283335D01*
X44042500Y20283335D02*
X43994880Y20235716D01*
X43994880Y20235716D02*
X43947261Y20211906D01*
X43947261Y20211906D02*
X43852023Y20188097D01*
X43852023Y20188097D02*
X43780595Y20188097D01*
X43780595Y20188097D02*
X43685357Y20211906D01*
X43685357Y20211906D02*
X43637738Y20235716D01*
X43637738Y20235716D02*
X43590119Y20283335D01*
X43590119Y20283335D02*
X43566309Y20354763D01*
X43566309Y20354763D02*
X43566309Y20402382D01*
X43566309Y20402382D02*
X43590119Y20473811D01*
X43590119Y20473811D02*
X43613928Y20497620D01*
X43613928Y20688097D02*
X43590119Y20711906D01*
X43590119Y20711906D02*
X43566309Y20759525D01*
X43566309Y20759525D02*
X43566309Y20878573D01*
X43566309Y20878573D02*
X43590119Y20926192D01*
X43590119Y20926192D02*
X43613928Y20950001D01*
X43613928Y20950001D02*
X43661547Y20973811D01*
X43661547Y20973811D02*
X43709166Y20973811D01*
X43709166Y20973811D02*
X43780595Y20950001D01*
X43780595Y20950001D02*
X44066309Y20664287D01*
X44066309Y20664287D02*
X44066309Y20973811D01*
X43613928Y21164287D02*
X43590119Y21188096D01*
X43590119Y21188096D02*
X43566309Y21235715D01*
X43566309Y21235715D02*
X43566309Y21354763D01*
X43566309Y21354763D02*
X43590119Y21402382D01*
X43590119Y21402382D02*
X43613928Y21426191D01*
X43613928Y21426191D02*
X43661547Y21450001D01*
X43661547Y21450001D02*
X43709166Y21450001D01*
X43709166Y21450001D02*
X43780595Y21426191D01*
X43780595Y21426191D02*
X44066309Y21140477D01*
X44066309Y21140477D02*
X44066309Y21450001D01*
D10*
X31193736Y27092909D02*
X31205641Y27081005D01*
X31205641Y27081005D02*
X31217545Y27045290D01*
X31217545Y27045290D02*
X31217545Y27021481D01*
X31217545Y27021481D02*
X31205641Y26985767D01*
X31205641Y26985767D02*
X31181831Y26961957D01*
X31181831Y26961957D02*
X31158021Y26950052D01*
X31158021Y26950052D02*
X31110402Y26938148D01*
X31110402Y26938148D02*
X31074688Y26938148D01*
X31074688Y26938148D02*
X31027069Y26950052D01*
X31027069Y26950052D02*
X31003260Y26961957D01*
X31003260Y26961957D02*
X30979450Y26985767D01*
X30979450Y26985767D02*
X30967545Y27021481D01*
X30967545Y27021481D02*
X30967545Y27045290D01*
X30967545Y27045290D02*
X30979450Y27081005D01*
X30979450Y27081005D02*
X30991355Y27092909D01*
X30967545Y27176243D02*
X30967545Y27331005D01*
X30967545Y27331005D02*
X31062783Y27247671D01*
X31062783Y27247671D02*
X31062783Y27283386D01*
X31062783Y27283386D02*
X31074688Y27307195D01*
X31074688Y27307195D02*
X31086593Y27319100D01*
X31086593Y27319100D02*
X31110402Y27331005D01*
X31110402Y27331005D02*
X31169926Y27331005D01*
X31169926Y27331005D02*
X31193736Y27319100D01*
X31193736Y27319100D02*
X31205641Y27307195D01*
X31205641Y27307195D02*
X31217545Y27283386D01*
X31217545Y27283386D02*
X31217545Y27211957D01*
X31217545Y27211957D02*
X31205641Y27188148D01*
X31205641Y27188148D02*
X31193736Y27176243D01*
X31217545Y27569100D02*
X31217545Y27426243D01*
X31217545Y27497671D02*
X30967545Y27497671D01*
X30967545Y27497671D02*
X31003260Y27473862D01*
X31003260Y27473862D02*
X31027069Y27450052D01*
X31027069Y27450052D02*
X31038974Y27426243D01*
X56088185Y62910235D02*
X56076281Y62898330D01*
X56076281Y62898330D02*
X56040566Y62886426D01*
X56040566Y62886426D02*
X56016757Y62886426D01*
X56016757Y62886426D02*
X55981043Y62898330D01*
X55981043Y62898330D02*
X55957233Y62922140D01*
X55957233Y62922140D02*
X55945328Y62945950D01*
X55945328Y62945950D02*
X55933424Y62993569D01*
X55933424Y62993569D02*
X55933424Y63029283D01*
X55933424Y63029283D02*
X55945328Y63076902D01*
X55945328Y63076902D02*
X55957233Y63100711D01*
X55957233Y63100711D02*
X55981043Y63124521D01*
X55981043Y63124521D02*
X56016757Y63136426D01*
X56016757Y63136426D02*
X56040566Y63136426D01*
X56040566Y63136426D02*
X56076281Y63124521D01*
X56076281Y63124521D02*
X56088185Y63112616D01*
X56326281Y62886426D02*
X56183424Y62886426D01*
X56254852Y62886426D02*
X56254852Y63136426D01*
X56254852Y63136426D02*
X56231043Y63100711D01*
X56231043Y63100711D02*
X56207233Y63076902D01*
X56207233Y63076902D02*
X56183424Y63064997D01*
X56469138Y63029283D02*
X56445328Y63041188D01*
X56445328Y63041188D02*
X56433423Y63053092D01*
X56433423Y63053092D02*
X56421519Y63076902D01*
X56421519Y63076902D02*
X56421519Y63088807D01*
X56421519Y63088807D02*
X56433423Y63112616D01*
X56433423Y63112616D02*
X56445328Y63124521D01*
X56445328Y63124521D02*
X56469138Y63136426D01*
X56469138Y63136426D02*
X56516757Y63136426D01*
X56516757Y63136426D02*
X56540566Y63124521D01*
X56540566Y63124521D02*
X56552471Y63112616D01*
X56552471Y63112616D02*
X56564376Y63088807D01*
X56564376Y63088807D02*
X56564376Y63076902D01*
X56564376Y63076902D02*
X56552471Y63053092D01*
X56552471Y63053092D02*
X56540566Y63041188D01*
X56540566Y63041188D02*
X56516757Y63029283D01*
X56516757Y63029283D02*
X56469138Y63029283D01*
X56469138Y63029283D02*
X56445328Y63017378D01*
X56445328Y63017378D02*
X56433423Y63005473D01*
X56433423Y63005473D02*
X56421519Y62981664D01*
X56421519Y62981664D02*
X56421519Y62934045D01*
X56421519Y62934045D02*
X56433423Y62910235D01*
X56433423Y62910235D02*
X56445328Y62898330D01*
X56445328Y62898330D02*
X56469138Y62886426D01*
X56469138Y62886426D02*
X56516757Y62886426D01*
X56516757Y62886426D02*
X56540566Y62898330D01*
X56540566Y62898330D02*
X56552471Y62910235D01*
X56552471Y62910235D02*
X56564376Y62934045D01*
X56564376Y62934045D02*
X56564376Y62981664D01*
X56564376Y62981664D02*
X56552471Y63005473D01*
X56552471Y63005473D02*
X56540566Y63017378D01*
X56540566Y63017378D02*
X56516757Y63029283D01*
D15*
X49886309Y61169048D02*
X50291071Y61169048D01*
X50291071Y61169048D02*
X50338690Y61192858D01*
X50338690Y61192858D02*
X50362500Y61216667D01*
X50362500Y61216667D02*
X50386309Y61264286D01*
X50386309Y61264286D02*
X50386309Y61359524D01*
X50386309Y61359524D02*
X50362500Y61407143D01*
X50362500Y61407143D02*
X50338690Y61430953D01*
X50338690Y61430953D02*
X50291071Y61454762D01*
X50291071Y61454762D02*
X49886309Y61454762D01*
X50386309Y61954763D02*
X50386309Y61669049D01*
X50386309Y61811906D02*
X49886309Y61811906D01*
X49886309Y61811906D02*
X49957738Y61764287D01*
X49957738Y61764287D02*
X50005357Y61716668D01*
X50005357Y61716668D02*
X50029166Y61669049D01*
D16*
X46792353Y71587096D02*
X46625686Y71587096D01*
X46625686Y71325191D02*
X46625686Y71825191D01*
X46625686Y71825191D02*
X46863781Y71825191D01*
X47292352Y71325191D02*
X47054257Y71325191D01*
X47054257Y71325191D02*
X47054257Y71825191D01*
X47720924Y71325191D02*
X47435210Y71325191D01*
X47578067Y71325191D02*
X47578067Y71825191D01*
X47578067Y71825191D02*
X47530448Y71753762D01*
X47530448Y71753762D02*
X47482829Y71706143D01*
X47482829Y71706143D02*
X47435210Y71682334D01*
D10*
X53338665Y60339286D02*
X53350570Y60327382D01*
X53350570Y60327382D02*
X53362474Y60291667D01*
X53362474Y60291667D02*
X53362474Y60267858D01*
X53362474Y60267858D02*
X53350570Y60232144D01*
X53350570Y60232144D02*
X53326760Y60208334D01*
X53326760Y60208334D02*
X53302950Y60196429D01*
X53302950Y60196429D02*
X53255331Y60184525D01*
X53255331Y60184525D02*
X53219617Y60184525D01*
X53219617Y60184525D02*
X53171998Y60196429D01*
X53171998Y60196429D02*
X53148189Y60208334D01*
X53148189Y60208334D02*
X53124379Y60232144D01*
X53124379Y60232144D02*
X53112474Y60267858D01*
X53112474Y60267858D02*
X53112474Y60291667D01*
X53112474Y60291667D02*
X53124379Y60327382D01*
X53124379Y60327382D02*
X53136284Y60339286D01*
X53112474Y60422620D02*
X53112474Y60577382D01*
X53112474Y60577382D02*
X53207712Y60494048D01*
X53207712Y60494048D02*
X53207712Y60529763D01*
X53207712Y60529763D02*
X53219617Y60553572D01*
X53219617Y60553572D02*
X53231522Y60565477D01*
X53231522Y60565477D02*
X53255331Y60577382D01*
X53255331Y60577382D02*
X53314855Y60577382D01*
X53314855Y60577382D02*
X53338665Y60565477D01*
X53338665Y60565477D02*
X53350570Y60553572D01*
X53350570Y60553572D02*
X53362474Y60529763D01*
X53362474Y60529763D02*
X53362474Y60458334D01*
X53362474Y60458334D02*
X53350570Y60434525D01*
X53350570Y60434525D02*
X53338665Y60422620D01*
X53112474Y60791667D02*
X53112474Y60744048D01*
X53112474Y60744048D02*
X53124379Y60720239D01*
X53124379Y60720239D02*
X53136284Y60708334D01*
X53136284Y60708334D02*
X53171998Y60684524D01*
X53171998Y60684524D02*
X53219617Y60672620D01*
X53219617Y60672620D02*
X53314855Y60672620D01*
X53314855Y60672620D02*
X53338665Y60684524D01*
X53338665Y60684524D02*
X53350570Y60696429D01*
X53350570Y60696429D02*
X53362474Y60720239D01*
X53362474Y60720239D02*
X53362474Y60767858D01*
X53362474Y60767858D02*
X53350570Y60791667D01*
X53350570Y60791667D02*
X53338665Y60803572D01*
X53338665Y60803572D02*
X53314855Y60815477D01*
X53314855Y60815477D02*
X53255331Y60815477D01*
X53255331Y60815477D02*
X53231522Y60803572D01*
X53231522Y60803572D02*
X53219617Y60791667D01*
X53219617Y60791667D02*
X53207712Y60767858D01*
X53207712Y60767858D02*
X53207712Y60720239D01*
X53207712Y60720239D02*
X53219617Y60696429D01*
X53219617Y60696429D02*
X53231522Y60684524D01*
X53231522Y60684524D02*
X53255331Y60672620D01*
X35117100Y76132858D02*
X34993291Y76046191D01*
X35117100Y75984286D02*
X34857100Y75984286D01*
X34857100Y75984286D02*
X34857100Y76083334D01*
X34857100Y76083334D02*
X34869481Y76108096D01*
X34869481Y76108096D02*
X34881862Y76120477D01*
X34881862Y76120477D02*
X34906624Y76132858D01*
X34906624Y76132858D02*
X34943767Y76132858D01*
X34943767Y76132858D02*
X34968529Y76120477D01*
X34968529Y76120477D02*
X34980910Y76108096D01*
X34980910Y76108096D02*
X34993291Y76083334D01*
X34993291Y76083334D02*
X34993291Y75984286D01*
X34881862Y76231905D02*
X34869481Y76244286D01*
X34869481Y76244286D02*
X34857100Y76269048D01*
X34857100Y76269048D02*
X34857100Y76330953D01*
X34857100Y76330953D02*
X34869481Y76355715D01*
X34869481Y76355715D02*
X34881862Y76368096D01*
X34881862Y76368096D02*
X34906624Y76380477D01*
X34906624Y76380477D02*
X34931386Y76380477D01*
X34931386Y76380477D02*
X34968529Y76368096D01*
X34968529Y76368096D02*
X35117100Y76219524D01*
X35117100Y76219524D02*
X35117100Y76380477D01*
X34857100Y76467143D02*
X34857100Y76640477D01*
X34857100Y76640477D02*
X35117100Y76529048D01*
D11*
X2189528Y65177115D02*
X3689528Y66177115D01*
X2189528Y66177115D02*
X3689528Y65177115D01*
X2689528Y67391400D02*
X3689528Y67391400D01*
X2118100Y67034258D02*
X3189528Y66677115D01*
X3189528Y66677115D02*
X3189528Y67605686D01*
D15*
X17476309Y17273811D02*
X16976309Y17273811D01*
X17428690Y17797620D02*
X17452500Y17773811D01*
X17452500Y17773811D02*
X17476309Y17702382D01*
X17476309Y17702382D02*
X17476309Y17654763D01*
X17476309Y17654763D02*
X17452500Y17583335D01*
X17452500Y17583335D02*
X17404880Y17535716D01*
X17404880Y17535716D02*
X17357261Y17511906D01*
X17357261Y17511906D02*
X17262023Y17488097D01*
X17262023Y17488097D02*
X17190595Y17488097D01*
X17190595Y17488097D02*
X17095357Y17511906D01*
X17095357Y17511906D02*
X17047738Y17535716D01*
X17047738Y17535716D02*
X17000119Y17583335D01*
X17000119Y17583335D02*
X16976309Y17654763D01*
X16976309Y17654763D02*
X16976309Y17702382D01*
X16976309Y17702382D02*
X17000119Y17773811D01*
X17000119Y17773811D02*
X17023928Y17797620D01*
X17476309Y18273811D02*
X17476309Y17988097D01*
X17476309Y18130954D02*
X16976309Y18130954D01*
X16976309Y18130954D02*
X17047738Y18083335D01*
X17047738Y18083335D02*
X17095357Y18035716D01*
X17095357Y18035716D02*
X17119166Y17988097D01*
X16976309Y18440477D02*
X16976309Y18750001D01*
X16976309Y18750001D02*
X17166785Y18583334D01*
X17166785Y18583334D02*
X17166785Y18654763D01*
X17166785Y18654763D02*
X17190595Y18702382D01*
X17190595Y18702382D02*
X17214404Y18726191D01*
X17214404Y18726191D02*
X17262023Y18750001D01*
X17262023Y18750001D02*
X17381071Y18750001D01*
X17381071Y18750001D02*
X17428690Y18726191D01*
X17428690Y18726191D02*
X17452500Y18702382D01*
X17452500Y18702382D02*
X17476309Y18654763D01*
X17476309Y18654763D02*
X17476309Y18511906D01*
X17476309Y18511906D02*
X17452500Y18464287D01*
X17452500Y18464287D02*
X17428690Y18440477D01*
D14*
X39252233Y75584434D02*
X39252233Y74791100D01*
X39252233Y74791100D02*
X39298900Y74697767D01*
X39298900Y74697767D02*
X39345566Y74651100D01*
X39345566Y74651100D02*
X39438900Y74604434D01*
X39438900Y74604434D02*
X39625566Y74604434D01*
X39625566Y74604434D02*
X39718900Y74651100D01*
X39718900Y74651100D02*
X39765566Y74697767D01*
X39765566Y74697767D02*
X39812233Y74791100D01*
X39812233Y74791100D02*
X39812233Y75584434D01*
X40232233Y75491100D02*
X40278900Y75537767D01*
X40278900Y75537767D02*
X40372233Y75584434D01*
X40372233Y75584434D02*
X40605567Y75584434D01*
X40605567Y75584434D02*
X40698900Y75537767D01*
X40698900Y75537767D02*
X40745567Y75491100D01*
X40745567Y75491100D02*
X40792233Y75397767D01*
X40792233Y75397767D02*
X40792233Y75304434D01*
X40792233Y75304434D02*
X40745567Y75164434D01*
X40745567Y75164434D02*
X40185567Y74604434D01*
X40185567Y74604434D02*
X40792233Y74604434D01*
X36886100Y54099525D02*
X36933719Y54242382D01*
X36933719Y54242382D02*
X36933719Y54480477D01*
X36933719Y54480477D02*
X36886100Y54575715D01*
X36886100Y54575715D02*
X36838480Y54623334D01*
X36838480Y54623334D02*
X36743242Y54670953D01*
X36743242Y54670953D02*
X36648004Y54670953D01*
X36648004Y54670953D02*
X36552766Y54623334D01*
X36552766Y54623334D02*
X36505147Y54575715D01*
X36505147Y54575715D02*
X36457528Y54480477D01*
X36457528Y54480477D02*
X36409909Y54290001D01*
X36409909Y54290001D02*
X36362290Y54194763D01*
X36362290Y54194763D02*
X36314671Y54147144D01*
X36314671Y54147144D02*
X36219433Y54099525D01*
X36219433Y54099525D02*
X36124195Y54099525D01*
X36124195Y54099525D02*
X36028957Y54147144D01*
X36028957Y54147144D02*
X35981338Y54194763D01*
X35981338Y54194763D02*
X35933719Y54290001D01*
X35933719Y54290001D02*
X35933719Y54528096D01*
X35933719Y54528096D02*
X35981338Y54670953D01*
X35933719Y54956668D02*
X36933719Y55290001D01*
X36933719Y55290001D02*
X35933719Y55623334D01*
X36028957Y55909049D02*
X35981338Y55956668D01*
X35981338Y55956668D02*
X35933719Y56051906D01*
X35933719Y56051906D02*
X35933719Y56290001D01*
X35933719Y56290001D02*
X35981338Y56385239D01*
X35981338Y56385239D02*
X36028957Y56432858D01*
X36028957Y56432858D02*
X36124195Y56480477D01*
X36124195Y56480477D02*
X36219433Y56480477D01*
X36219433Y56480477D02*
X36362290Y56432858D01*
X36362290Y56432858D02*
X36933719Y55861430D01*
X36933719Y55861430D02*
X36933719Y56480477D01*
X43027233Y32239434D02*
X43027233Y31446100D01*
X43027233Y31446100D02*
X43073900Y31352767D01*
X43073900Y31352767D02*
X43120566Y31306100D01*
X43120566Y31306100D02*
X43213900Y31259434D01*
X43213900Y31259434D02*
X43400566Y31259434D01*
X43400566Y31259434D02*
X43493900Y31306100D01*
X43493900Y31306100D02*
X43540566Y31352767D01*
X43540566Y31352767D02*
X43587233Y31446100D01*
X43587233Y31446100D02*
X43587233Y32239434D01*
X43960567Y32239434D02*
X44567233Y32239434D01*
X44567233Y32239434D02*
X44240567Y31866100D01*
X44240567Y31866100D02*
X44380567Y31866100D01*
X44380567Y31866100D02*
X44473900Y31819434D01*
X44473900Y31819434D02*
X44520567Y31772767D01*
X44520567Y31772767D02*
X44567233Y31679434D01*
X44567233Y31679434D02*
X44567233Y31446100D01*
X44567233Y31446100D02*
X44520567Y31352767D01*
X44520567Y31352767D02*
X44473900Y31306100D01*
X44473900Y31306100D02*
X44380567Y31259434D01*
X44380567Y31259434D02*
X44100567Y31259434D01*
X44100567Y31259434D02*
X44007233Y31306100D01*
X44007233Y31306100D02*
X43960567Y31352767D01*
D15*
X13054409Y54723306D02*
X12554409Y54723306D01*
X13006790Y55247115D02*
X13030600Y55223306D01*
X13030600Y55223306D02*
X13054409Y55151877D01*
X13054409Y55151877D02*
X13054409Y55104258D01*
X13054409Y55104258D02*
X13030600Y55032830D01*
X13030600Y55032830D02*
X12982980Y54985211D01*
X12982980Y54985211D02*
X12935361Y54961401D01*
X12935361Y54961401D02*
X12840123Y54937592D01*
X12840123Y54937592D02*
X12768695Y54937592D01*
X12768695Y54937592D02*
X12673457Y54961401D01*
X12673457Y54961401D02*
X12625838Y54985211D01*
X12625838Y54985211D02*
X12578219Y55032830D01*
X12578219Y55032830D02*
X12554409Y55104258D01*
X12554409Y55104258D02*
X12554409Y55151877D01*
X12554409Y55151877D02*
X12578219Y55223306D01*
X12578219Y55223306D02*
X12602028Y55247115D01*
X12602028Y55437592D02*
X12578219Y55461401D01*
X12578219Y55461401D02*
X12554409Y55509020D01*
X12554409Y55509020D02*
X12554409Y55628068D01*
X12554409Y55628068D02*
X12578219Y55675687D01*
X12578219Y55675687D02*
X12602028Y55699496D01*
X12602028Y55699496D02*
X12649647Y55723306D01*
X12649647Y55723306D02*
X12697266Y55723306D01*
X12697266Y55723306D02*
X12768695Y55699496D01*
X12768695Y55699496D02*
X13054409Y55413782D01*
X13054409Y55413782D02*
X13054409Y55723306D01*
D10*
X50831757Y58431800D02*
X50745090Y58555609D01*
X50683185Y58431800D02*
X50683185Y58691800D01*
X50683185Y58691800D02*
X50782233Y58691800D01*
X50782233Y58691800D02*
X50806995Y58679419D01*
X50806995Y58679419D02*
X50819376Y58667038D01*
X50819376Y58667038D02*
X50831757Y58642276D01*
X50831757Y58642276D02*
X50831757Y58605133D01*
X50831757Y58605133D02*
X50819376Y58580371D01*
X50819376Y58580371D02*
X50806995Y58567990D01*
X50806995Y58567990D02*
X50782233Y58555609D01*
X50782233Y58555609D02*
X50683185Y58555609D01*
X50930804Y58667038D02*
X50943185Y58679419D01*
X50943185Y58679419D02*
X50967947Y58691800D01*
X50967947Y58691800D02*
X51029852Y58691800D01*
X51029852Y58691800D02*
X51054614Y58679419D01*
X51054614Y58679419D02*
X51066995Y58667038D01*
X51066995Y58667038D02*
X51079376Y58642276D01*
X51079376Y58642276D02*
X51079376Y58617514D01*
X51079376Y58617514D02*
X51066995Y58580371D01*
X51066995Y58580371D02*
X50918423Y58431800D01*
X50918423Y58431800D02*
X51079376Y58431800D01*
X51314614Y58691800D02*
X51190804Y58691800D01*
X51190804Y58691800D02*
X51178423Y58567990D01*
X51178423Y58567990D02*
X51190804Y58580371D01*
X51190804Y58580371D02*
X51215566Y58592752D01*
X51215566Y58592752D02*
X51277471Y58592752D01*
X51277471Y58592752D02*
X51302233Y58580371D01*
X51302233Y58580371D02*
X51314614Y58567990D01*
X51314614Y58567990D02*
X51326995Y58543228D01*
X51326995Y58543228D02*
X51326995Y58481323D01*
X51326995Y58481323D02*
X51314614Y58456561D01*
X51314614Y58456561D02*
X51302233Y58444180D01*
X51302233Y58444180D02*
X51277471Y58431800D01*
X51277471Y58431800D02*
X51215566Y58431800D01*
X51215566Y58431800D02*
X51190804Y58444180D01*
X51190804Y58444180D02*
X51178423Y58456561D01*
D15*
X13054409Y40118306D02*
X12554409Y40118306D01*
X13006790Y40642115D02*
X13030600Y40618306D01*
X13030600Y40618306D02*
X13054409Y40546877D01*
X13054409Y40546877D02*
X13054409Y40499258D01*
X13054409Y40499258D02*
X13030600Y40427830D01*
X13030600Y40427830D02*
X12982980Y40380211D01*
X12982980Y40380211D02*
X12935361Y40356401D01*
X12935361Y40356401D02*
X12840123Y40332592D01*
X12840123Y40332592D02*
X12768695Y40332592D01*
X12768695Y40332592D02*
X12673457Y40356401D01*
X12673457Y40356401D02*
X12625838Y40380211D01*
X12625838Y40380211D02*
X12578219Y40427830D01*
X12578219Y40427830D02*
X12554409Y40499258D01*
X12554409Y40499258D02*
X12554409Y40546877D01*
X12554409Y40546877D02*
X12578219Y40618306D01*
X12578219Y40618306D02*
X12602028Y40642115D01*
X12554409Y41094496D02*
X12554409Y40856401D01*
X12554409Y40856401D02*
X12792504Y40832592D01*
X12792504Y40832592D02*
X12768695Y40856401D01*
X12768695Y40856401D02*
X12744885Y40904020D01*
X12744885Y40904020D02*
X12744885Y41023068D01*
X12744885Y41023068D02*
X12768695Y41070687D01*
X12768695Y41070687D02*
X12792504Y41094496D01*
X12792504Y41094496D02*
X12840123Y41118306D01*
X12840123Y41118306D02*
X12959171Y41118306D01*
X12959171Y41118306D02*
X13006790Y41094496D01*
X13006790Y41094496D02*
X13030600Y41070687D01*
X13030600Y41070687D02*
X13054409Y41023068D01*
X13054409Y41023068D02*
X13054409Y40904020D01*
X13054409Y40904020D02*
X13030600Y40856401D01*
X13030600Y40856401D02*
X13006790Y40832592D01*
D14*
X20665566Y79145181D02*
X20665566Y78430896D01*
X20665566Y78430896D02*
X20617947Y78288039D01*
X20617947Y78288039D02*
X20522709Y78192800D01*
X20522709Y78192800D02*
X20379852Y78145181D01*
X20379852Y78145181D02*
X20284614Y78145181D01*
X21570328Y78811848D02*
X21570328Y78145181D01*
X21332233Y79192800D02*
X21094138Y78478515D01*
X21094138Y78478515D02*
X21713185Y78478515D01*
D15*
X34452810Y26408991D02*
X34452810Y26908991D01*
X34976619Y26456610D02*
X34952810Y26432800D01*
X34952810Y26432800D02*
X34881381Y26408991D01*
X34881381Y26408991D02*
X34833762Y26408991D01*
X34833762Y26408991D02*
X34762334Y26432800D01*
X34762334Y26432800D02*
X34714715Y26480420D01*
X34714715Y26480420D02*
X34690905Y26528039D01*
X34690905Y26528039D02*
X34667096Y26623277D01*
X34667096Y26623277D02*
X34667096Y26694705D01*
X34667096Y26694705D02*
X34690905Y26789943D01*
X34690905Y26789943D02*
X34714715Y26837562D01*
X34714715Y26837562D02*
X34762334Y26885181D01*
X34762334Y26885181D02*
X34833762Y26908991D01*
X34833762Y26908991D02*
X34881381Y26908991D01*
X34881381Y26908991D02*
X34952810Y26885181D01*
X34952810Y26885181D02*
X34976619Y26861372D01*
X35452810Y26408991D02*
X35167096Y26408991D01*
X35309953Y26408991D02*
X35309953Y26908991D01*
X35309953Y26908991D02*
X35262334Y26837562D01*
X35262334Y26837562D02*
X35214715Y26789943D01*
X35214715Y26789943D02*
X35167096Y26766134D01*
X35905190Y26908991D02*
X35667095Y26908991D01*
X35667095Y26908991D02*
X35643286Y26670896D01*
X35643286Y26670896D02*
X35667095Y26694705D01*
X35667095Y26694705D02*
X35714714Y26718515D01*
X35714714Y26718515D02*
X35833762Y26718515D01*
X35833762Y26718515D02*
X35881381Y26694705D01*
X35881381Y26694705D02*
X35905190Y26670896D01*
X35905190Y26670896D02*
X35929000Y26623277D01*
X35929000Y26623277D02*
X35929000Y26504229D01*
X35929000Y26504229D02*
X35905190Y26456610D01*
X35905190Y26456610D02*
X35881381Y26432800D01*
X35881381Y26432800D02*
X35833762Y26408991D01*
X35833762Y26408991D02*
X35714714Y26408991D01*
X35714714Y26408991D02*
X35667095Y26432800D01*
X35667095Y26432800D02*
X35643286Y26456610D01*
D14*
X27996810Y42788581D02*
X27996810Y43788581D01*
X29044428Y42883820D02*
X28996809Y42836200D01*
X28996809Y42836200D02*
X28853952Y42788581D01*
X28853952Y42788581D02*
X28758714Y42788581D01*
X28758714Y42788581D02*
X28615857Y42836200D01*
X28615857Y42836200D02*
X28520619Y42931439D01*
X28520619Y42931439D02*
X28473000Y43026677D01*
X28473000Y43026677D02*
X28425381Y43217153D01*
X28425381Y43217153D02*
X28425381Y43360010D01*
X28425381Y43360010D02*
X28473000Y43550486D01*
X28473000Y43550486D02*
X28520619Y43645724D01*
X28520619Y43645724D02*
X28615857Y43740962D01*
X28615857Y43740962D02*
X28758714Y43788581D01*
X28758714Y43788581D02*
X28853952Y43788581D01*
X28853952Y43788581D02*
X28996809Y43740962D01*
X28996809Y43740962D02*
X29044428Y43693343D01*
X29615857Y43360010D02*
X29520619Y43407629D01*
X29520619Y43407629D02*
X29473000Y43455248D01*
X29473000Y43455248D02*
X29425381Y43550486D01*
X29425381Y43550486D02*
X29425381Y43598105D01*
X29425381Y43598105D02*
X29473000Y43693343D01*
X29473000Y43693343D02*
X29520619Y43740962D01*
X29520619Y43740962D02*
X29615857Y43788581D01*
X29615857Y43788581D02*
X29806333Y43788581D01*
X29806333Y43788581D02*
X29901571Y43740962D01*
X29901571Y43740962D02*
X29949190Y43693343D01*
X29949190Y43693343D02*
X29996809Y43598105D01*
X29996809Y43598105D02*
X29996809Y43550486D01*
X29996809Y43550486D02*
X29949190Y43455248D01*
X29949190Y43455248D02*
X29901571Y43407629D01*
X29901571Y43407629D02*
X29806333Y43360010D01*
X29806333Y43360010D02*
X29615857Y43360010D01*
X29615857Y43360010D02*
X29520619Y43312391D01*
X29520619Y43312391D02*
X29473000Y43264772D01*
X29473000Y43264772D02*
X29425381Y43169534D01*
X29425381Y43169534D02*
X29425381Y42979058D01*
X29425381Y42979058D02*
X29473000Y42883820D01*
X29473000Y42883820D02*
X29520619Y42836200D01*
X29520619Y42836200D02*
X29615857Y42788581D01*
X29615857Y42788581D02*
X29806333Y42788581D01*
X29806333Y42788581D02*
X29901571Y42836200D01*
X29901571Y42836200D02*
X29949190Y42883820D01*
X29949190Y42883820D02*
X29996809Y42979058D01*
X29996809Y42979058D02*
X29996809Y43169534D01*
X29996809Y43169534D02*
X29949190Y43264772D01*
X29949190Y43264772D02*
X29901571Y43312391D01*
X29901571Y43312391D02*
X29806333Y43360010D01*
X54400332Y33245181D02*
X54400332Y32530896D01*
X54400332Y32530896D02*
X54352713Y32388039D01*
X54352713Y32388039D02*
X54257475Y32292800D01*
X54257475Y32292800D02*
X54114618Y32245181D01*
X54114618Y32245181D02*
X54019380Y32245181D01*
X54828904Y33149943D02*
X54876523Y33197562D01*
X54876523Y33197562D02*
X54971761Y33245181D01*
X54971761Y33245181D02*
X55209856Y33245181D01*
X55209856Y33245181D02*
X55305094Y33197562D01*
X55305094Y33197562D02*
X55352713Y33149943D01*
X55352713Y33149943D02*
X55400332Y33054705D01*
X55400332Y33054705D02*
X55400332Y32959467D01*
X55400332Y32959467D02*
X55352713Y32816610D01*
X55352713Y32816610D02*
X54781285Y32245181D01*
X54781285Y32245181D02*
X55400332Y32245181D01*
D10*
X44338185Y23160235D02*
X44326281Y23148330D01*
X44326281Y23148330D02*
X44290566Y23136426D01*
X44290566Y23136426D02*
X44266757Y23136426D01*
X44266757Y23136426D02*
X44231043Y23148330D01*
X44231043Y23148330D02*
X44207233Y23172140D01*
X44207233Y23172140D02*
X44195328Y23195950D01*
X44195328Y23195950D02*
X44183424Y23243569D01*
X44183424Y23243569D02*
X44183424Y23279283D01*
X44183424Y23279283D02*
X44195328Y23326902D01*
X44195328Y23326902D02*
X44207233Y23350711D01*
X44207233Y23350711D02*
X44231043Y23374521D01*
X44231043Y23374521D02*
X44266757Y23386426D01*
X44266757Y23386426D02*
X44290566Y23386426D01*
X44290566Y23386426D02*
X44326281Y23374521D01*
X44326281Y23374521D02*
X44338185Y23362616D01*
X44421519Y23386426D02*
X44576281Y23386426D01*
X44576281Y23386426D02*
X44492947Y23291188D01*
X44492947Y23291188D02*
X44528662Y23291188D01*
X44528662Y23291188D02*
X44552471Y23279283D01*
X44552471Y23279283D02*
X44564376Y23267378D01*
X44564376Y23267378D02*
X44576281Y23243569D01*
X44576281Y23243569D02*
X44576281Y23184045D01*
X44576281Y23184045D02*
X44564376Y23160235D01*
X44564376Y23160235D02*
X44552471Y23148330D01*
X44552471Y23148330D02*
X44528662Y23136426D01*
X44528662Y23136426D02*
X44457233Y23136426D01*
X44457233Y23136426D02*
X44433424Y23148330D01*
X44433424Y23148330D02*
X44421519Y23160235D01*
X44659614Y23386426D02*
X44814376Y23386426D01*
X44814376Y23386426D02*
X44731042Y23291188D01*
X44731042Y23291188D02*
X44766757Y23291188D01*
X44766757Y23291188D02*
X44790566Y23279283D01*
X44790566Y23279283D02*
X44802471Y23267378D01*
X44802471Y23267378D02*
X44814376Y23243569D01*
X44814376Y23243569D02*
X44814376Y23184045D01*
X44814376Y23184045D02*
X44802471Y23160235D01*
X44802471Y23160235D02*
X44790566Y23148330D01*
X44790566Y23148330D02*
X44766757Y23136426D01*
X44766757Y23136426D02*
X44695328Y23136426D01*
X44695328Y23136426D02*
X44671519Y23148330D01*
X44671519Y23148330D02*
X44659614Y23160235D01*
D15*
X27975810Y26408991D02*
X27975810Y26908991D01*
X28499619Y26456610D02*
X28475810Y26432800D01*
X28475810Y26432800D02*
X28404381Y26408991D01*
X28404381Y26408991D02*
X28356762Y26408991D01*
X28356762Y26408991D02*
X28285334Y26432800D01*
X28285334Y26432800D02*
X28237715Y26480420D01*
X28237715Y26480420D02*
X28213905Y26528039D01*
X28213905Y26528039D02*
X28190096Y26623277D01*
X28190096Y26623277D02*
X28190096Y26694705D01*
X28190096Y26694705D02*
X28213905Y26789943D01*
X28213905Y26789943D02*
X28237715Y26837562D01*
X28237715Y26837562D02*
X28285334Y26885181D01*
X28285334Y26885181D02*
X28356762Y26908991D01*
X28356762Y26908991D02*
X28404381Y26908991D01*
X28404381Y26908991D02*
X28475810Y26885181D01*
X28475810Y26885181D02*
X28499619Y26861372D01*
X28975810Y26408991D02*
X28690096Y26408991D01*
X28832953Y26408991D02*
X28832953Y26908991D01*
X28832953Y26908991D02*
X28785334Y26837562D01*
X28785334Y26837562D02*
X28737715Y26789943D01*
X28737715Y26789943D02*
X28690096Y26766134D01*
X29404381Y26908991D02*
X29309143Y26908991D01*
X29309143Y26908991D02*
X29261524Y26885181D01*
X29261524Y26885181D02*
X29237714Y26861372D01*
X29237714Y26861372D02*
X29190095Y26789943D01*
X29190095Y26789943D02*
X29166286Y26694705D01*
X29166286Y26694705D02*
X29166286Y26504229D01*
X29166286Y26504229D02*
X29190095Y26456610D01*
X29190095Y26456610D02*
X29213905Y26432800D01*
X29213905Y26432800D02*
X29261524Y26408991D01*
X29261524Y26408991D02*
X29356762Y26408991D01*
X29356762Y26408991D02*
X29404381Y26432800D01*
X29404381Y26432800D02*
X29428190Y26456610D01*
X29428190Y26456610D02*
X29452000Y26504229D01*
X29452000Y26504229D02*
X29452000Y26623277D01*
X29452000Y26623277D02*
X29428190Y26670896D01*
X29428190Y26670896D02*
X29404381Y26694705D01*
X29404381Y26694705D02*
X29356762Y26718515D01*
X29356762Y26718515D02*
X29261524Y26718515D01*
X29261524Y26718515D02*
X29213905Y26694705D01*
X29213905Y26694705D02*
X29190095Y26670896D01*
X29190095Y26670896D02*
X29166286Y26623277D01*
D14*
X24642948Y67834912D02*
X24642948Y68634912D01*
X25481043Y67911103D02*
X25442947Y67873007D01*
X25442947Y67873007D02*
X25328662Y67834912D01*
X25328662Y67834912D02*
X25252471Y67834912D01*
X25252471Y67834912D02*
X25138185Y67873007D01*
X25138185Y67873007D02*
X25061995Y67949198D01*
X25061995Y67949198D02*
X25023900Y68025388D01*
X25023900Y68025388D02*
X24985804Y68177769D01*
X24985804Y68177769D02*
X24985804Y68292055D01*
X24985804Y68292055D02*
X25023900Y68444436D01*
X25023900Y68444436D02*
X25061995Y68520627D01*
X25061995Y68520627D02*
X25138185Y68596817D01*
X25138185Y68596817D02*
X25252471Y68634912D01*
X25252471Y68634912D02*
X25328662Y68634912D01*
X25328662Y68634912D02*
X25442947Y68596817D01*
X25442947Y68596817D02*
X25481043Y68558722D01*
X26242947Y67834912D02*
X25785804Y67834912D01*
X26014376Y67834912D02*
X26014376Y68634912D01*
X26014376Y68634912D02*
X25938185Y68520627D01*
X25938185Y68520627D02*
X25861995Y68444436D01*
X25861995Y68444436D02*
X25785804Y68406341D01*
D17*
X46915566Y67172851D02*
X46677471Y67172851D01*
X46677471Y67172851D02*
X46677471Y67672851D01*
X47344138Y67172851D02*
X47058424Y67172851D01*
X47201281Y67172851D02*
X47201281Y67672851D01*
X47201281Y67672851D02*
X47153662Y67601422D01*
X47153662Y67601422D02*
X47106043Y67553803D01*
X47106043Y67553803D02*
X47058424Y67529994D01*
D10*
X17646185Y14517235D02*
X17634281Y14505330D01*
X17634281Y14505330D02*
X17598566Y14493426D01*
X17598566Y14493426D02*
X17574757Y14493426D01*
X17574757Y14493426D02*
X17539043Y14505330D01*
X17539043Y14505330D02*
X17515233Y14529140D01*
X17515233Y14529140D02*
X17503328Y14552950D01*
X17503328Y14552950D02*
X17491424Y14600569D01*
X17491424Y14600569D02*
X17491424Y14636283D01*
X17491424Y14636283D02*
X17503328Y14683902D01*
X17503328Y14683902D02*
X17515233Y14707711D01*
X17515233Y14707711D02*
X17539043Y14731521D01*
X17539043Y14731521D02*
X17574757Y14743426D01*
X17574757Y14743426D02*
X17598566Y14743426D01*
X17598566Y14743426D02*
X17634281Y14731521D01*
X17634281Y14731521D02*
X17646185Y14719616D01*
X17741424Y14719616D02*
X17753328Y14731521D01*
X17753328Y14731521D02*
X17777138Y14743426D01*
X17777138Y14743426D02*
X17836662Y14743426D01*
X17836662Y14743426D02*
X17860471Y14731521D01*
X17860471Y14731521D02*
X17872376Y14719616D01*
X17872376Y14719616D02*
X17884281Y14695807D01*
X17884281Y14695807D02*
X17884281Y14671997D01*
X17884281Y14671997D02*
X17872376Y14636283D01*
X17872376Y14636283D02*
X17729519Y14493426D01*
X17729519Y14493426D02*
X17884281Y14493426D01*
X18039042Y14743426D02*
X18062852Y14743426D01*
X18062852Y14743426D02*
X18086661Y14731521D01*
X18086661Y14731521D02*
X18098566Y14719616D01*
X18098566Y14719616D02*
X18110471Y14695807D01*
X18110471Y14695807D02*
X18122376Y14648188D01*
X18122376Y14648188D02*
X18122376Y14588664D01*
X18122376Y14588664D02*
X18110471Y14541045D01*
X18110471Y14541045D02*
X18098566Y14517235D01*
X18098566Y14517235D02*
X18086661Y14505330D01*
X18086661Y14505330D02*
X18062852Y14493426D01*
X18062852Y14493426D02*
X18039042Y14493426D01*
X18039042Y14493426D02*
X18015233Y14505330D01*
X18015233Y14505330D02*
X18003328Y14517235D01*
X18003328Y14517235D02*
X17991423Y14541045D01*
X17991423Y14541045D02*
X17979519Y14588664D01*
X17979519Y14588664D02*
X17979519Y14648188D01*
X17979519Y14648188D02*
X17991423Y14695807D01*
X17991423Y14695807D02*
X18003328Y14719616D01*
X18003328Y14719616D02*
X18015233Y14731521D01*
X18015233Y14731521D02*
X18039042Y14743426D01*
D15*
X17476309Y25656211D02*
X16976309Y25656211D01*
X17428690Y26180020D02*
X17452500Y26156211D01*
X17452500Y26156211D02*
X17476309Y26084782D01*
X17476309Y26084782D02*
X17476309Y26037163D01*
X17476309Y26037163D02*
X17452500Y25965735D01*
X17452500Y25965735D02*
X17404880Y25918116D01*
X17404880Y25918116D02*
X17357261Y25894306D01*
X17357261Y25894306D02*
X17262023Y25870497D01*
X17262023Y25870497D02*
X17190595Y25870497D01*
X17190595Y25870497D02*
X17095357Y25894306D01*
X17095357Y25894306D02*
X17047738Y25918116D01*
X17047738Y25918116D02*
X17000119Y25965735D01*
X17000119Y25965735D02*
X16976309Y26037163D01*
X16976309Y26037163D02*
X16976309Y26084782D01*
X16976309Y26084782D02*
X17000119Y26156211D01*
X17000119Y26156211D02*
X17023928Y26180020D01*
X17476309Y26656211D02*
X17476309Y26370497D01*
X17476309Y26513354D02*
X16976309Y26513354D01*
X16976309Y26513354D02*
X17047738Y26465735D01*
X17047738Y26465735D02*
X17095357Y26418116D01*
X17095357Y26418116D02*
X17119166Y26370497D01*
X17190595Y26941925D02*
X17166785Y26894306D01*
X17166785Y26894306D02*
X17142976Y26870496D01*
X17142976Y26870496D02*
X17095357Y26846687D01*
X17095357Y26846687D02*
X17071547Y26846687D01*
X17071547Y26846687D02*
X17023928Y26870496D01*
X17023928Y26870496D02*
X17000119Y26894306D01*
X17000119Y26894306D02*
X16976309Y26941925D01*
X16976309Y26941925D02*
X16976309Y27037163D01*
X16976309Y27037163D02*
X17000119Y27084782D01*
X17000119Y27084782D02*
X17023928Y27108591D01*
X17023928Y27108591D02*
X17071547Y27132401D01*
X17071547Y27132401D02*
X17095357Y27132401D01*
X17095357Y27132401D02*
X17142976Y27108591D01*
X17142976Y27108591D02*
X17166785Y27084782D01*
X17166785Y27084782D02*
X17190595Y27037163D01*
X17190595Y27037163D02*
X17190595Y26941925D01*
X17190595Y26941925D02*
X17214404Y26894306D01*
X17214404Y26894306D02*
X17238214Y26870496D01*
X17238214Y26870496D02*
X17285833Y26846687D01*
X17285833Y26846687D02*
X17381071Y26846687D01*
X17381071Y26846687D02*
X17428690Y26870496D01*
X17428690Y26870496D02*
X17452500Y26894306D01*
X17452500Y26894306D02*
X17476309Y26941925D01*
X17476309Y26941925D02*
X17476309Y27037163D01*
X17476309Y27037163D02*
X17452500Y27084782D01*
X17452500Y27084782D02*
X17428690Y27108591D01*
X17428690Y27108591D02*
X17381071Y27132401D01*
X17381071Y27132401D02*
X17285833Y27132401D01*
X17285833Y27132401D02*
X17238214Y27108591D01*
X17238214Y27108591D02*
X17214404Y27084782D01*
X17214404Y27084782D02*
X17190595Y27037163D01*
D16*
X46747353Y75187096D02*
X46580686Y75187096D01*
X46580686Y74925191D02*
X46580686Y75425191D01*
X46580686Y75425191D02*
X46818781Y75425191D01*
X47247352Y74925191D02*
X47009257Y74925191D01*
X47009257Y74925191D02*
X47009257Y75425191D01*
X47390210Y75377572D02*
X47414019Y75401381D01*
X47414019Y75401381D02*
X47461638Y75425191D01*
X47461638Y75425191D02*
X47580686Y75425191D01*
X47580686Y75425191D02*
X47628305Y75401381D01*
X47628305Y75401381D02*
X47652114Y75377572D01*
X47652114Y75377572D02*
X47675924Y75329953D01*
X47675924Y75329953D02*
X47675924Y75282334D01*
X47675924Y75282334D02*
X47652114Y75210905D01*
X47652114Y75210905D02*
X47366400Y74925191D01*
X47366400Y74925191D02*
X47675924Y74925191D01*
D10*
X38631757Y78681800D02*
X38545090Y78805609D01*
X38483185Y78681800D02*
X38483185Y78941800D01*
X38483185Y78941800D02*
X38582233Y78941800D01*
X38582233Y78941800D02*
X38606995Y78929419D01*
X38606995Y78929419D02*
X38619376Y78917038D01*
X38619376Y78917038D02*
X38631757Y78892276D01*
X38631757Y78892276D02*
X38631757Y78855133D01*
X38631757Y78855133D02*
X38619376Y78830371D01*
X38619376Y78830371D02*
X38606995Y78817990D01*
X38606995Y78817990D02*
X38582233Y78805609D01*
X38582233Y78805609D02*
X38483185Y78805609D01*
X38730804Y78917038D02*
X38743185Y78929419D01*
X38743185Y78929419D02*
X38767947Y78941800D01*
X38767947Y78941800D02*
X38829852Y78941800D01*
X38829852Y78941800D02*
X38854614Y78929419D01*
X38854614Y78929419D02*
X38866995Y78917038D01*
X38866995Y78917038D02*
X38879376Y78892276D01*
X38879376Y78892276D02*
X38879376Y78867514D01*
X38879376Y78867514D02*
X38866995Y78830371D01*
X38866995Y78830371D02*
X38718423Y78681800D01*
X38718423Y78681800D02*
X38879376Y78681800D01*
X39102233Y78855133D02*
X39102233Y78681800D01*
X39040328Y78954180D02*
X38978423Y78768466D01*
X38978423Y78768466D02*
X39139376Y78768466D01*
X22488333Y61910235D02*
X22476429Y61898330D01*
X22476429Y61898330D02*
X22440714Y61886426D01*
X22440714Y61886426D02*
X22416905Y61886426D01*
X22416905Y61886426D02*
X22381191Y61898330D01*
X22381191Y61898330D02*
X22357381Y61922140D01*
X22357381Y61922140D02*
X22345476Y61945950D01*
X22345476Y61945950D02*
X22333572Y61993569D01*
X22333572Y61993569D02*
X22333572Y62029283D01*
X22333572Y62029283D02*
X22345476Y62076902D01*
X22345476Y62076902D02*
X22357381Y62100711D01*
X22357381Y62100711D02*
X22381191Y62124521D01*
X22381191Y62124521D02*
X22416905Y62136426D01*
X22416905Y62136426D02*
X22440714Y62136426D01*
X22440714Y62136426D02*
X22476429Y62124521D01*
X22476429Y62124521D02*
X22488333Y62112616D01*
X22607381Y61886426D02*
X22655000Y61886426D01*
X22655000Y61886426D02*
X22678810Y61898330D01*
X22678810Y61898330D02*
X22690714Y61910235D01*
X22690714Y61910235D02*
X22714524Y61945950D01*
X22714524Y61945950D02*
X22726429Y61993569D01*
X22726429Y61993569D02*
X22726429Y62088807D01*
X22726429Y62088807D02*
X22714524Y62112616D01*
X22714524Y62112616D02*
X22702619Y62124521D01*
X22702619Y62124521D02*
X22678810Y62136426D01*
X22678810Y62136426D02*
X22631191Y62136426D01*
X22631191Y62136426D02*
X22607381Y62124521D01*
X22607381Y62124521D02*
X22595476Y62112616D01*
X22595476Y62112616D02*
X22583572Y62088807D01*
X22583572Y62088807D02*
X22583572Y62029283D01*
X22583572Y62029283D02*
X22595476Y62005473D01*
X22595476Y62005473D02*
X22607381Y61993569D01*
X22607381Y61993569D02*
X22631191Y61981664D01*
X22631191Y61981664D02*
X22678810Y61981664D01*
X22678810Y61981664D02*
X22702619Y61993569D01*
X22702619Y61993569D02*
X22714524Y62005473D01*
X22714524Y62005473D02*
X22726429Y62029283D01*
X28982165Y52923486D02*
X28994070Y52911582D01*
X28994070Y52911582D02*
X29005974Y52875867D01*
X29005974Y52875867D02*
X29005974Y52852058D01*
X29005974Y52852058D02*
X28994070Y52816344D01*
X28994070Y52816344D02*
X28970260Y52792534D01*
X28970260Y52792534D02*
X28946450Y52780629D01*
X28946450Y52780629D02*
X28898831Y52768725D01*
X28898831Y52768725D02*
X28863117Y52768725D01*
X28863117Y52768725D02*
X28815498Y52780629D01*
X28815498Y52780629D02*
X28791689Y52792534D01*
X28791689Y52792534D02*
X28767879Y52816344D01*
X28767879Y52816344D02*
X28755974Y52852058D01*
X28755974Y52852058D02*
X28755974Y52875867D01*
X28755974Y52875867D02*
X28767879Y52911582D01*
X28767879Y52911582D02*
X28779784Y52923486D01*
X28779784Y53018725D02*
X28767879Y53030629D01*
X28767879Y53030629D02*
X28755974Y53054439D01*
X28755974Y53054439D02*
X28755974Y53113963D01*
X28755974Y53113963D02*
X28767879Y53137772D01*
X28767879Y53137772D02*
X28779784Y53149677D01*
X28779784Y53149677D02*
X28803593Y53161582D01*
X28803593Y53161582D02*
X28827403Y53161582D01*
X28827403Y53161582D02*
X28863117Y53149677D01*
X28863117Y53149677D02*
X29005974Y53006820D01*
X29005974Y53006820D02*
X29005974Y53161582D01*
X28755974Y53244915D02*
X28755974Y53411581D01*
X28755974Y53411581D02*
X29005974Y53304439D01*
X47581757Y18881800D02*
X47495090Y19005609D01*
X47433185Y18881800D02*
X47433185Y19141800D01*
X47433185Y19141800D02*
X47532233Y19141800D01*
X47532233Y19141800D02*
X47556995Y19129419D01*
X47556995Y19129419D02*
X47569376Y19117038D01*
X47569376Y19117038D02*
X47581757Y19092276D01*
X47581757Y19092276D02*
X47581757Y19055133D01*
X47581757Y19055133D02*
X47569376Y19030371D01*
X47569376Y19030371D02*
X47556995Y19017990D01*
X47556995Y19017990D02*
X47532233Y19005609D01*
X47532233Y19005609D02*
X47433185Y19005609D01*
X47829376Y18881800D02*
X47680804Y18881800D01*
X47755090Y18881800D02*
X47755090Y19141800D01*
X47755090Y19141800D02*
X47730328Y19104657D01*
X47730328Y19104657D02*
X47705566Y19079895D01*
X47705566Y19079895D02*
X47680804Y19067514D01*
X48064614Y19141800D02*
X47940804Y19141800D01*
X47940804Y19141800D02*
X47928423Y19017990D01*
X47928423Y19017990D02*
X47940804Y19030371D01*
X47940804Y19030371D02*
X47965566Y19042752D01*
X47965566Y19042752D02*
X48027471Y19042752D01*
X48027471Y19042752D02*
X48052233Y19030371D01*
X48052233Y19030371D02*
X48064614Y19017990D01*
X48064614Y19017990D02*
X48076995Y18993228D01*
X48076995Y18993228D02*
X48076995Y18931323D01*
X48076995Y18931323D02*
X48064614Y18906561D01*
X48064614Y18906561D02*
X48052233Y18894180D01*
X48052233Y18894180D02*
X48027471Y18881800D01*
X48027471Y18881800D02*
X47965566Y18881800D01*
X47965566Y18881800D02*
X47940804Y18894180D01*
X47940804Y18894180D02*
X47928423Y18906561D01*
X16338185Y28910235D02*
X16326281Y28898330D01*
X16326281Y28898330D02*
X16290566Y28886426D01*
X16290566Y28886426D02*
X16266757Y28886426D01*
X16266757Y28886426D02*
X16231043Y28898330D01*
X16231043Y28898330D02*
X16207233Y28922140D01*
X16207233Y28922140D02*
X16195328Y28945950D01*
X16195328Y28945950D02*
X16183424Y28993569D01*
X16183424Y28993569D02*
X16183424Y29029283D01*
X16183424Y29029283D02*
X16195328Y29076902D01*
X16195328Y29076902D02*
X16207233Y29100711D01*
X16207233Y29100711D02*
X16231043Y29124521D01*
X16231043Y29124521D02*
X16266757Y29136426D01*
X16266757Y29136426D02*
X16290566Y29136426D01*
X16290566Y29136426D02*
X16326281Y29124521D01*
X16326281Y29124521D02*
X16338185Y29112616D01*
X16433424Y29112616D02*
X16445328Y29124521D01*
X16445328Y29124521D02*
X16469138Y29136426D01*
X16469138Y29136426D02*
X16528662Y29136426D01*
X16528662Y29136426D02*
X16552471Y29124521D01*
X16552471Y29124521D02*
X16564376Y29112616D01*
X16564376Y29112616D02*
X16576281Y29088807D01*
X16576281Y29088807D02*
X16576281Y29064997D01*
X16576281Y29064997D02*
X16564376Y29029283D01*
X16564376Y29029283D02*
X16421519Y28886426D01*
X16421519Y28886426D02*
X16576281Y28886426D01*
X16814376Y28886426D02*
X16671519Y28886426D01*
X16742947Y28886426D02*
X16742947Y29136426D01*
X16742947Y29136426D02*
X16719138Y29100711D01*
X16719138Y29100711D02*
X16695328Y29076902D01*
X16695328Y29076902D02*
X16671519Y29064997D01*
D18*
X56860566Y73330081D02*
X56860566Y72615796D01*
X56860566Y72615796D02*
X56812947Y72472939D01*
X56812947Y72472939D02*
X56717709Y72377700D01*
X56717709Y72377700D02*
X56574852Y72330081D01*
X56574852Y72330081D02*
X56479614Y72330081D01*
X57860566Y72330081D02*
X57289138Y72330081D01*
X57574852Y72330081D02*
X57574852Y73330081D01*
X57574852Y73330081D02*
X57479614Y73187224D01*
X57479614Y73187224D02*
X57384376Y73091986D01*
X57384376Y73091986D02*
X57289138Y73044367D01*
D12*
X41561733Y66349768D02*
X41542685Y66330720D01*
X41542685Y66330720D02*
X41485543Y66311673D01*
X41485543Y66311673D02*
X41447447Y66311673D01*
X41447447Y66311673D02*
X41390304Y66330720D01*
X41390304Y66330720D02*
X41352209Y66368816D01*
X41352209Y66368816D02*
X41333162Y66406911D01*
X41333162Y66406911D02*
X41314114Y66483101D01*
X41314114Y66483101D02*
X41314114Y66540244D01*
X41314114Y66540244D02*
X41333162Y66616435D01*
X41333162Y66616435D02*
X41352209Y66654530D01*
X41352209Y66654530D02*
X41390304Y66692625D01*
X41390304Y66692625D02*
X41447447Y66711673D01*
X41447447Y66711673D02*
X41485543Y66711673D01*
X41485543Y66711673D02*
X41542685Y66692625D01*
X41542685Y66692625D02*
X41561733Y66673578D01*
X41790304Y66540244D02*
X41752209Y66559292D01*
X41752209Y66559292D02*
X41733162Y66578340D01*
X41733162Y66578340D02*
X41714114Y66616435D01*
X41714114Y66616435D02*
X41714114Y66635482D01*
X41714114Y66635482D02*
X41733162Y66673578D01*
X41733162Y66673578D02*
X41752209Y66692625D01*
X41752209Y66692625D02*
X41790304Y66711673D01*
X41790304Y66711673D02*
X41866495Y66711673D01*
X41866495Y66711673D02*
X41904590Y66692625D01*
X41904590Y66692625D02*
X41923638Y66673578D01*
X41923638Y66673578D02*
X41942685Y66635482D01*
X41942685Y66635482D02*
X41942685Y66616435D01*
X41942685Y66616435D02*
X41923638Y66578340D01*
X41923638Y66578340D02*
X41904590Y66559292D01*
X41904590Y66559292D02*
X41866495Y66540244D01*
X41866495Y66540244D02*
X41790304Y66540244D01*
X41790304Y66540244D02*
X41752209Y66521197D01*
X41752209Y66521197D02*
X41733162Y66502149D01*
X41733162Y66502149D02*
X41714114Y66464054D01*
X41714114Y66464054D02*
X41714114Y66387863D01*
X41714114Y66387863D02*
X41733162Y66349768D01*
X41733162Y66349768D02*
X41752209Y66330720D01*
X41752209Y66330720D02*
X41790304Y66311673D01*
X41790304Y66311673D02*
X41866495Y66311673D01*
X41866495Y66311673D02*
X41904590Y66330720D01*
X41904590Y66330720D02*
X41923638Y66349768D01*
X41923638Y66349768D02*
X41942685Y66387863D01*
X41942685Y66387863D02*
X41942685Y66464054D01*
X41942685Y66464054D02*
X41923638Y66502149D01*
X41923638Y66502149D02*
X41904590Y66521197D01*
X41904590Y66521197D02*
X41866495Y66540244D01*
D10*
X37808765Y27110686D02*
X37820670Y27098782D01*
X37820670Y27098782D02*
X37832574Y27063067D01*
X37832574Y27063067D02*
X37832574Y27039258D01*
X37832574Y27039258D02*
X37820670Y27003544D01*
X37820670Y27003544D02*
X37796860Y26979734D01*
X37796860Y26979734D02*
X37773050Y26967829D01*
X37773050Y26967829D02*
X37725431Y26955925D01*
X37725431Y26955925D02*
X37689717Y26955925D01*
X37689717Y26955925D02*
X37642098Y26967829D01*
X37642098Y26967829D02*
X37618289Y26979734D01*
X37618289Y26979734D02*
X37594479Y27003544D01*
X37594479Y27003544D02*
X37582574Y27039258D01*
X37582574Y27039258D02*
X37582574Y27063067D01*
X37582574Y27063067D02*
X37594479Y27098782D01*
X37594479Y27098782D02*
X37606384Y27110686D01*
X37606384Y27205925D02*
X37594479Y27217829D01*
X37594479Y27217829D02*
X37582574Y27241639D01*
X37582574Y27241639D02*
X37582574Y27301163D01*
X37582574Y27301163D02*
X37594479Y27324972D01*
X37594479Y27324972D02*
X37606384Y27336877D01*
X37606384Y27336877D02*
X37630193Y27348782D01*
X37630193Y27348782D02*
X37654003Y27348782D01*
X37654003Y27348782D02*
X37689717Y27336877D01*
X37689717Y27336877D02*
X37832574Y27194020D01*
X37832574Y27194020D02*
X37832574Y27348782D01*
X37606384Y27444020D02*
X37594479Y27455924D01*
X37594479Y27455924D02*
X37582574Y27479734D01*
X37582574Y27479734D02*
X37582574Y27539258D01*
X37582574Y27539258D02*
X37594479Y27563067D01*
X37594479Y27563067D02*
X37606384Y27574972D01*
X37606384Y27574972D02*
X37630193Y27586877D01*
X37630193Y27586877D02*
X37654003Y27586877D01*
X37654003Y27586877D02*
X37689717Y27574972D01*
X37689717Y27574972D02*
X37832574Y27432115D01*
X37832574Y27432115D02*
X37832574Y27586877D01*
D12*
X41478657Y54021568D02*
X41459609Y54002520D01*
X41459609Y54002520D02*
X41402467Y53983473D01*
X41402467Y53983473D02*
X41364371Y53983473D01*
X41364371Y53983473D02*
X41307228Y54002520D01*
X41307228Y54002520D02*
X41269133Y54040616D01*
X41269133Y54040616D02*
X41250086Y54078711D01*
X41250086Y54078711D02*
X41231038Y54154901D01*
X41231038Y54154901D02*
X41231038Y54212044D01*
X41231038Y54212044D02*
X41250086Y54288235D01*
X41250086Y54288235D02*
X41269133Y54326330D01*
X41269133Y54326330D02*
X41307228Y54364425D01*
X41307228Y54364425D02*
X41364371Y54383473D01*
X41364371Y54383473D02*
X41402467Y54383473D01*
X41402467Y54383473D02*
X41459609Y54364425D01*
X41459609Y54364425D02*
X41478657Y54345378D01*
X41859609Y53983473D02*
X41631038Y53983473D01*
X41745324Y53983473D02*
X41745324Y54383473D01*
X41745324Y54383473D02*
X41707228Y54326330D01*
X41707228Y54326330D02*
X41669133Y54288235D01*
X41669133Y54288235D02*
X41631038Y54269187D01*
X42240561Y53983473D02*
X42011990Y53983473D01*
X42126276Y53983473D02*
X42126276Y54383473D01*
X42126276Y54383473D02*
X42088180Y54326330D01*
X42088180Y54326330D02*
X42050085Y54288235D01*
X42050085Y54288235D02*
X42011990Y54269187D01*
D15*
X13054409Y49151211D02*
X12554409Y49151211D01*
X13006790Y49675020D02*
X13030600Y49651211D01*
X13030600Y49651211D02*
X13054409Y49579782D01*
X13054409Y49579782D02*
X13054409Y49532163D01*
X13054409Y49532163D02*
X13030600Y49460735D01*
X13030600Y49460735D02*
X12982980Y49413116D01*
X12982980Y49413116D02*
X12935361Y49389306D01*
X12935361Y49389306D02*
X12840123Y49365497D01*
X12840123Y49365497D02*
X12768695Y49365497D01*
X12768695Y49365497D02*
X12673457Y49389306D01*
X12673457Y49389306D02*
X12625838Y49413116D01*
X12625838Y49413116D02*
X12578219Y49460735D01*
X12578219Y49460735D02*
X12554409Y49532163D01*
X12554409Y49532163D02*
X12554409Y49579782D01*
X12554409Y49579782D02*
X12578219Y49651211D01*
X12578219Y49651211D02*
X12602028Y49675020D01*
X13054409Y50151211D02*
X13054409Y49865497D01*
X13054409Y50008354D02*
X12554409Y50008354D01*
X12554409Y50008354D02*
X12625838Y49960735D01*
X12625838Y49960735D02*
X12673457Y49913116D01*
X12673457Y49913116D02*
X12697266Y49865497D01*
X13054409Y50627401D02*
X13054409Y50341687D01*
X13054409Y50484544D02*
X12554409Y50484544D01*
X12554409Y50484544D02*
X12625838Y50436925D01*
X12625838Y50436925D02*
X12673457Y50389306D01*
X12673457Y50389306D02*
X12697266Y50341687D01*
D10*
X32036685Y52214635D02*
X32024781Y52202730D01*
X32024781Y52202730D02*
X31989066Y52190826D01*
X31989066Y52190826D02*
X31965257Y52190826D01*
X31965257Y52190826D02*
X31929543Y52202730D01*
X31929543Y52202730D02*
X31905733Y52226540D01*
X31905733Y52226540D02*
X31893828Y52250350D01*
X31893828Y52250350D02*
X31881924Y52297969D01*
X31881924Y52297969D02*
X31881924Y52333683D01*
X31881924Y52333683D02*
X31893828Y52381302D01*
X31893828Y52381302D02*
X31905733Y52405111D01*
X31905733Y52405111D02*
X31929543Y52428921D01*
X31929543Y52428921D02*
X31965257Y52440826D01*
X31965257Y52440826D02*
X31989066Y52440826D01*
X31989066Y52440826D02*
X32024781Y52428921D01*
X32024781Y52428921D02*
X32036685Y52417016D01*
X32131924Y52417016D02*
X32143828Y52428921D01*
X32143828Y52428921D02*
X32167638Y52440826D01*
X32167638Y52440826D02*
X32227162Y52440826D01*
X32227162Y52440826D02*
X32250971Y52428921D01*
X32250971Y52428921D02*
X32262876Y52417016D01*
X32262876Y52417016D02*
X32274781Y52393207D01*
X32274781Y52393207D02*
X32274781Y52369397D01*
X32274781Y52369397D02*
X32262876Y52333683D01*
X32262876Y52333683D02*
X32120019Y52190826D01*
X32120019Y52190826D02*
X32274781Y52190826D01*
X32500971Y52440826D02*
X32381923Y52440826D01*
X32381923Y52440826D02*
X32370019Y52321778D01*
X32370019Y52321778D02*
X32381923Y52333683D01*
X32381923Y52333683D02*
X32405733Y52345588D01*
X32405733Y52345588D02*
X32465257Y52345588D01*
X32465257Y52345588D02*
X32489066Y52333683D01*
X32489066Y52333683D02*
X32500971Y52321778D01*
X32500971Y52321778D02*
X32512876Y52297969D01*
X32512876Y52297969D02*
X32512876Y52238445D01*
X32512876Y52238445D02*
X32500971Y52214635D01*
X32500971Y52214635D02*
X32489066Y52202730D01*
X32489066Y52202730D02*
X32465257Y52190826D01*
X32465257Y52190826D02*
X32405733Y52190826D01*
X32405733Y52190826D02*
X32381923Y52202730D01*
X32381923Y52202730D02*
X32370019Y52214635D01*
D15*
X13626309Y36054306D02*
X13126309Y36054306D01*
X13578690Y36578115D02*
X13602500Y36554306D01*
X13602500Y36554306D02*
X13626309Y36482877D01*
X13626309Y36482877D02*
X13626309Y36435258D01*
X13626309Y36435258D02*
X13602500Y36363830D01*
X13602500Y36363830D02*
X13554880Y36316211D01*
X13554880Y36316211D02*
X13507261Y36292401D01*
X13507261Y36292401D02*
X13412023Y36268592D01*
X13412023Y36268592D02*
X13340595Y36268592D01*
X13340595Y36268592D02*
X13245357Y36292401D01*
X13245357Y36292401D02*
X13197738Y36316211D01*
X13197738Y36316211D02*
X13150119Y36363830D01*
X13150119Y36363830D02*
X13126309Y36435258D01*
X13126309Y36435258D02*
X13126309Y36482877D01*
X13126309Y36482877D02*
X13150119Y36554306D01*
X13150119Y36554306D02*
X13173928Y36578115D01*
X13292976Y37006687D02*
X13626309Y37006687D01*
X13102500Y36887639D02*
X13459642Y36768592D01*
X13459642Y36768592D02*
X13459642Y37078115D01*
D10*
X38130365Y44888486D02*
X38142270Y44876582D01*
X38142270Y44876582D02*
X38154174Y44840867D01*
X38154174Y44840867D02*
X38154174Y44817058D01*
X38154174Y44817058D02*
X38142270Y44781344D01*
X38142270Y44781344D02*
X38118460Y44757534D01*
X38118460Y44757534D02*
X38094650Y44745629D01*
X38094650Y44745629D02*
X38047031Y44733725D01*
X38047031Y44733725D02*
X38011317Y44733725D01*
X38011317Y44733725D02*
X37963698Y44745629D01*
X37963698Y44745629D02*
X37939889Y44757534D01*
X37939889Y44757534D02*
X37916079Y44781344D01*
X37916079Y44781344D02*
X37904174Y44817058D01*
X37904174Y44817058D02*
X37904174Y44840867D01*
X37904174Y44840867D02*
X37916079Y44876582D01*
X37916079Y44876582D02*
X37927984Y44888486D01*
X37927984Y44983725D02*
X37916079Y44995629D01*
X37916079Y44995629D02*
X37904174Y45019439D01*
X37904174Y45019439D02*
X37904174Y45078963D01*
X37904174Y45078963D02*
X37916079Y45102772D01*
X37916079Y45102772D02*
X37927984Y45114677D01*
X37927984Y45114677D02*
X37951793Y45126582D01*
X37951793Y45126582D02*
X37975603Y45126582D01*
X37975603Y45126582D02*
X38011317Y45114677D01*
X38011317Y45114677D02*
X38154174Y44971820D01*
X38154174Y44971820D02*
X38154174Y45126582D01*
X37904174Y45340867D02*
X37904174Y45293248D01*
X37904174Y45293248D02*
X37916079Y45269439D01*
X37916079Y45269439D02*
X37927984Y45257534D01*
X37927984Y45257534D02*
X37963698Y45233724D01*
X37963698Y45233724D02*
X38011317Y45221820D01*
X38011317Y45221820D02*
X38106555Y45221820D01*
X38106555Y45221820D02*
X38130365Y45233724D01*
X38130365Y45233724D02*
X38142270Y45245629D01*
X38142270Y45245629D02*
X38154174Y45269439D01*
X38154174Y45269439D02*
X38154174Y45317058D01*
X38154174Y45317058D02*
X38142270Y45340867D01*
X38142270Y45340867D02*
X38130365Y45352772D01*
X38130365Y45352772D02*
X38106555Y45364677D01*
X38106555Y45364677D02*
X38047031Y45364677D01*
X38047031Y45364677D02*
X38023222Y45352772D01*
X38023222Y45352772D02*
X38011317Y45340867D01*
X38011317Y45340867D02*
X37999412Y45317058D01*
X37999412Y45317058D02*
X37999412Y45269439D01*
X37999412Y45269439D02*
X38011317Y45245629D01*
X38011317Y45245629D02*
X38023222Y45233724D01*
X38023222Y45233724D02*
X38047031Y45221820D01*
D12*
X41351657Y63140168D02*
X41332609Y63121120D01*
X41332609Y63121120D02*
X41275467Y63102073D01*
X41275467Y63102073D02*
X41237371Y63102073D01*
X41237371Y63102073D02*
X41180228Y63121120D01*
X41180228Y63121120D02*
X41142133Y63159216D01*
X41142133Y63159216D02*
X41123086Y63197311D01*
X41123086Y63197311D02*
X41104038Y63273501D01*
X41104038Y63273501D02*
X41104038Y63330644D01*
X41104038Y63330644D02*
X41123086Y63406835D01*
X41123086Y63406835D02*
X41142133Y63444930D01*
X41142133Y63444930D02*
X41180228Y63483025D01*
X41180228Y63483025D02*
X41237371Y63502073D01*
X41237371Y63502073D02*
X41275467Y63502073D01*
X41275467Y63502073D02*
X41332609Y63483025D01*
X41332609Y63483025D02*
X41351657Y63463978D01*
X41732609Y63102073D02*
X41504038Y63102073D01*
X41618324Y63102073D02*
X41618324Y63502073D01*
X41618324Y63502073D02*
X41580228Y63444930D01*
X41580228Y63444930D02*
X41542133Y63406835D01*
X41542133Y63406835D02*
X41504038Y63387787D01*
X41980228Y63502073D02*
X42018323Y63502073D01*
X42018323Y63502073D02*
X42056419Y63483025D01*
X42056419Y63483025D02*
X42075466Y63463978D01*
X42075466Y63463978D02*
X42094514Y63425882D01*
X42094514Y63425882D02*
X42113561Y63349692D01*
X42113561Y63349692D02*
X42113561Y63254454D01*
X42113561Y63254454D02*
X42094514Y63178263D01*
X42094514Y63178263D02*
X42075466Y63140168D01*
X42075466Y63140168D02*
X42056419Y63121120D01*
X42056419Y63121120D02*
X42018323Y63102073D01*
X42018323Y63102073D02*
X41980228Y63102073D01*
X41980228Y63102073D02*
X41942133Y63121120D01*
X41942133Y63121120D02*
X41923085Y63140168D01*
X41923085Y63140168D02*
X41904038Y63178263D01*
X41904038Y63178263D02*
X41884990Y63254454D01*
X41884990Y63254454D02*
X41884990Y63349692D01*
X41884990Y63349692D02*
X41904038Y63425882D01*
X41904038Y63425882D02*
X41923085Y63463978D01*
X41923085Y63463978D02*
X41942133Y63483025D01*
X41942133Y63483025D02*
X41980228Y63502073D01*
X22370880Y56009496D02*
X22389927Y56066639D01*
X22389927Y56066639D02*
X22389927Y56161877D01*
X22389927Y56161877D02*
X22370880Y56199972D01*
X22370880Y56199972D02*
X22351832Y56219020D01*
X22351832Y56219020D02*
X22313737Y56238067D01*
X22313737Y56238067D02*
X22275641Y56238067D01*
X22275641Y56238067D02*
X22237546Y56219020D01*
X22237546Y56219020D02*
X22218499Y56199972D01*
X22218499Y56199972D02*
X22199451Y56161877D01*
X22199451Y56161877D02*
X22180403Y56085686D01*
X22180403Y56085686D02*
X22161356Y56047591D01*
X22161356Y56047591D02*
X22142308Y56028544D01*
X22142308Y56028544D02*
X22104213Y56009496D01*
X22104213Y56009496D02*
X22066118Y56009496D01*
X22066118Y56009496D02*
X22028022Y56028544D01*
X22028022Y56028544D02*
X22008975Y56047591D01*
X22008975Y56047591D02*
X21989927Y56085686D01*
X21989927Y56085686D02*
X21989927Y56180925D01*
X21989927Y56180925D02*
X22008975Y56238067D01*
X21989927Y56352353D02*
X21989927Y56580924D01*
X22389927Y56466638D02*
X21989927Y56466638D01*
X22275641Y56695210D02*
X22275641Y56885686D01*
X22389927Y56657115D02*
X21989927Y56790448D01*
X21989927Y56790448D02*
X22389927Y56923781D01*
X21989927Y56999972D02*
X21989927Y57228543D01*
X22389927Y57114257D02*
X21989927Y57114257D01*
X22180403Y57361877D02*
X22180403Y57495210D01*
X22389927Y57552353D02*
X22389927Y57361877D01*
X22389927Y57361877D02*
X21989927Y57361877D01*
X21989927Y57361877D02*
X21989927Y57552353D01*
X21989927Y57799972D02*
X21989927Y57838067D01*
X21989927Y57838067D02*
X22008975Y57876163D01*
X22008975Y57876163D02*
X22028022Y57895210D01*
X22028022Y57895210D02*
X22066118Y57914258D01*
X22066118Y57914258D02*
X22142308Y57933305D01*
X22142308Y57933305D02*
X22237546Y57933305D01*
X22237546Y57933305D02*
X22313737Y57914258D01*
X22313737Y57914258D02*
X22351832Y57895210D01*
X22351832Y57895210D02*
X22370880Y57876163D01*
X22370880Y57876163D02*
X22389927Y57838067D01*
X22389927Y57838067D02*
X22389927Y57799972D01*
X22389927Y57799972D02*
X22370880Y57761877D01*
X22370880Y57761877D02*
X22351832Y57742829D01*
X22351832Y57742829D02*
X22313737Y57723782D01*
X22313737Y57723782D02*
X22237546Y57704734D01*
X22237546Y57704734D02*
X22142308Y57704734D01*
X22142308Y57704734D02*
X22066118Y57723782D01*
X22066118Y57723782D02*
X22028022Y57742829D01*
X22028022Y57742829D02*
X22008975Y57761877D01*
X22008975Y57761877D02*
X21989927Y57799972D01*
D15*
X21879810Y26662991D02*
X21879810Y27162991D01*
X22403619Y26710610D02*
X22379810Y26686800D01*
X22379810Y26686800D02*
X22308381Y26662991D01*
X22308381Y26662991D02*
X22260762Y26662991D01*
X22260762Y26662991D02*
X22189334Y26686800D01*
X22189334Y26686800D02*
X22141715Y26734420D01*
X22141715Y26734420D02*
X22117905Y26782039D01*
X22117905Y26782039D02*
X22094096Y26877277D01*
X22094096Y26877277D02*
X22094096Y26948705D01*
X22094096Y26948705D02*
X22117905Y27043943D01*
X22117905Y27043943D02*
X22141715Y27091562D01*
X22141715Y27091562D02*
X22189334Y27139181D01*
X22189334Y27139181D02*
X22260762Y27162991D01*
X22260762Y27162991D02*
X22308381Y27162991D01*
X22308381Y27162991D02*
X22379810Y27139181D01*
X22379810Y27139181D02*
X22403619Y27115372D01*
X22879810Y26662991D02*
X22594096Y26662991D01*
X22736953Y26662991D02*
X22736953Y27162991D01*
X22736953Y27162991D02*
X22689334Y27091562D01*
X22689334Y27091562D02*
X22641715Y27043943D01*
X22641715Y27043943D02*
X22594096Y27020134D01*
X23046476Y27162991D02*
X23379809Y27162991D01*
X23379809Y27162991D02*
X23165524Y26662991D01*
D10*
X12338185Y75176181D02*
X12326281Y75164276D01*
X12326281Y75164276D02*
X12290566Y75152372D01*
X12290566Y75152372D02*
X12266757Y75152372D01*
X12266757Y75152372D02*
X12231043Y75164276D01*
X12231043Y75164276D02*
X12207233Y75188086D01*
X12207233Y75188086D02*
X12195328Y75211896D01*
X12195328Y75211896D02*
X12183424Y75259515D01*
X12183424Y75259515D02*
X12183424Y75295229D01*
X12183424Y75295229D02*
X12195328Y75342848D01*
X12195328Y75342848D02*
X12207233Y75366657D01*
X12207233Y75366657D02*
X12231043Y75390467D01*
X12231043Y75390467D02*
X12266757Y75402372D01*
X12266757Y75402372D02*
X12290566Y75402372D01*
X12290566Y75402372D02*
X12326281Y75390467D01*
X12326281Y75390467D02*
X12338185Y75378562D01*
X12421519Y75402372D02*
X12576281Y75402372D01*
X12576281Y75402372D02*
X12492947Y75307134D01*
X12492947Y75307134D02*
X12528662Y75307134D01*
X12528662Y75307134D02*
X12552471Y75295229D01*
X12552471Y75295229D02*
X12564376Y75283324D01*
X12564376Y75283324D02*
X12576281Y75259515D01*
X12576281Y75259515D02*
X12576281Y75199991D01*
X12576281Y75199991D02*
X12564376Y75176181D01*
X12564376Y75176181D02*
X12552471Y75164276D01*
X12552471Y75164276D02*
X12528662Y75152372D01*
X12528662Y75152372D02*
X12457233Y75152372D01*
X12457233Y75152372D02*
X12433424Y75164276D01*
X12433424Y75164276D02*
X12421519Y75176181D01*
X12790566Y75319038D02*
X12790566Y75152372D01*
X12731042Y75414276D02*
X12671519Y75235705D01*
X12671519Y75235705D02*
X12826280Y75235705D01*
X17113000Y35864258D02*
X16989191Y35777591D01*
X17113000Y35715686D02*
X16853000Y35715686D01*
X16853000Y35715686D02*
X16853000Y35814734D01*
X16853000Y35814734D02*
X16865381Y35839496D01*
X16865381Y35839496D02*
X16877762Y35851877D01*
X16877762Y35851877D02*
X16902524Y35864258D01*
X16902524Y35864258D02*
X16939667Y35864258D01*
X16939667Y35864258D02*
X16964429Y35851877D01*
X16964429Y35851877D02*
X16976810Y35839496D01*
X16976810Y35839496D02*
X16989191Y35814734D01*
X16989191Y35814734D02*
X16989191Y35715686D01*
X17113000Y36111877D02*
X17113000Y35963305D01*
X17113000Y36037591D02*
X16853000Y36037591D01*
X16853000Y36037591D02*
X16890143Y36012829D01*
X16890143Y36012829D02*
X16914905Y35988067D01*
X16914905Y35988067D02*
X16927286Y35963305D01*
X16877762Y36210924D02*
X16865381Y36223305D01*
X16865381Y36223305D02*
X16853000Y36248067D01*
X16853000Y36248067D02*
X16853000Y36309972D01*
X16853000Y36309972D02*
X16865381Y36334734D01*
X16865381Y36334734D02*
X16877762Y36347115D01*
X16877762Y36347115D02*
X16902524Y36359496D01*
X16902524Y36359496D02*
X16927286Y36359496D01*
X16927286Y36359496D02*
X16964429Y36347115D01*
X16964429Y36347115D02*
X17113000Y36198543D01*
X17113000Y36198543D02*
X17113000Y36359496D01*
X42257233Y35715235D02*
X42245329Y35703330D01*
X42245329Y35703330D02*
X42209614Y35691426D01*
X42209614Y35691426D02*
X42185805Y35691426D01*
X42185805Y35691426D02*
X42150091Y35703330D01*
X42150091Y35703330D02*
X42126281Y35727140D01*
X42126281Y35727140D02*
X42114376Y35750950D01*
X42114376Y35750950D02*
X42102472Y35798569D01*
X42102472Y35798569D02*
X42102472Y35834283D01*
X42102472Y35834283D02*
X42114376Y35881902D01*
X42114376Y35881902D02*
X42126281Y35905711D01*
X42126281Y35905711D02*
X42150091Y35929521D01*
X42150091Y35929521D02*
X42185805Y35941426D01*
X42185805Y35941426D02*
X42209614Y35941426D01*
X42209614Y35941426D02*
X42245329Y35929521D01*
X42245329Y35929521D02*
X42257233Y35917616D01*
X42340567Y35941426D02*
X42495329Y35941426D01*
X42495329Y35941426D02*
X42411995Y35846188D01*
X42411995Y35846188D02*
X42447710Y35846188D01*
X42447710Y35846188D02*
X42471519Y35834283D01*
X42471519Y35834283D02*
X42483424Y35822378D01*
X42483424Y35822378D02*
X42495329Y35798569D01*
X42495329Y35798569D02*
X42495329Y35739045D01*
X42495329Y35739045D02*
X42483424Y35715235D01*
X42483424Y35715235D02*
X42471519Y35703330D01*
X42471519Y35703330D02*
X42447710Y35691426D01*
X42447710Y35691426D02*
X42376281Y35691426D01*
X42376281Y35691426D02*
X42352472Y35703330D01*
X42352472Y35703330D02*
X42340567Y35715235D01*
D12*
X41866927Y58219925D02*
X41466927Y58219925D01*
X41828832Y58638972D02*
X41847880Y58619924D01*
X41847880Y58619924D02*
X41866927Y58562782D01*
X41866927Y58562782D02*
X41866927Y58524686D01*
X41866927Y58524686D02*
X41847880Y58467543D01*
X41847880Y58467543D02*
X41809784Y58429448D01*
X41809784Y58429448D02*
X41771689Y58410401D01*
X41771689Y58410401D02*
X41695499Y58391353D01*
X41695499Y58391353D02*
X41638356Y58391353D01*
X41638356Y58391353D02*
X41562165Y58410401D01*
X41562165Y58410401D02*
X41524070Y58429448D01*
X41524070Y58429448D02*
X41485975Y58467543D01*
X41485975Y58467543D02*
X41466927Y58524686D01*
X41466927Y58524686D02*
X41466927Y58562782D01*
X41466927Y58562782D02*
X41485975Y58619924D01*
X41485975Y58619924D02*
X41505022Y58638972D01*
X41466927Y58772305D02*
X41466927Y59019924D01*
X41466927Y59019924D02*
X41619308Y58886591D01*
X41619308Y58886591D02*
X41619308Y58943734D01*
X41619308Y58943734D02*
X41638356Y58981829D01*
X41638356Y58981829D02*
X41657403Y59000877D01*
X41657403Y59000877D02*
X41695499Y59019924D01*
X41695499Y59019924D02*
X41790737Y59019924D01*
X41790737Y59019924D02*
X41828832Y59000877D01*
X41828832Y59000877D02*
X41847880Y58981829D01*
X41847880Y58981829D02*
X41866927Y58943734D01*
X41866927Y58943734D02*
X41866927Y58829448D01*
X41866927Y58829448D02*
X41847880Y58791353D01*
X41847880Y58791353D02*
X41828832Y58772305D01*
D11*
X2233528Y24253830D02*
X3733528Y25253830D01*
X2233528Y25253830D02*
X3733528Y24253830D01*
X3733528Y26610973D02*
X3733528Y25753830D01*
X3733528Y26182401D02*
X2233528Y26182401D01*
X2233528Y26182401D02*
X2447814Y26039544D01*
X2447814Y26039544D02*
X2590671Y25896687D01*
X2590671Y25896687D02*
X2662100Y25753830D01*
X2233528Y27539544D02*
X2233528Y27682401D01*
X2233528Y27682401D02*
X2304957Y27825258D01*
X2304957Y27825258D02*
X2376385Y27896686D01*
X2376385Y27896686D02*
X2519242Y27968115D01*
X2519242Y27968115D02*
X2804957Y28039544D01*
X2804957Y28039544D02*
X3162100Y28039544D01*
X3162100Y28039544D02*
X3447814Y27968115D01*
X3447814Y27968115D02*
X3590671Y27896686D01*
X3590671Y27896686D02*
X3662100Y27825258D01*
X3662100Y27825258D02*
X3733528Y27682401D01*
X3733528Y27682401D02*
X3733528Y27539544D01*
X3733528Y27539544D02*
X3662100Y27396686D01*
X3662100Y27396686D02*
X3590671Y27325258D01*
X3590671Y27325258D02*
X3447814Y27253829D01*
X3447814Y27253829D02*
X3162100Y27182401D01*
X3162100Y27182401D02*
X2804957Y27182401D01*
X2804957Y27182401D02*
X2519242Y27253829D01*
X2519242Y27253829D02*
X2376385Y27325258D01*
X2376385Y27325258D02*
X2304957Y27396686D01*
X2304957Y27396686D02*
X2233528Y27539544D01*
D10*
X10960565Y36039286D02*
X10972470Y36027382D01*
X10972470Y36027382D02*
X10984374Y35991667D01*
X10984374Y35991667D02*
X10984374Y35967858D01*
X10984374Y35967858D02*
X10972470Y35932144D01*
X10972470Y35932144D02*
X10948660Y35908334D01*
X10948660Y35908334D02*
X10924850Y35896429D01*
X10924850Y35896429D02*
X10877231Y35884525D01*
X10877231Y35884525D02*
X10841517Y35884525D01*
X10841517Y35884525D02*
X10793898Y35896429D01*
X10793898Y35896429D02*
X10770089Y35908334D01*
X10770089Y35908334D02*
X10746279Y35932144D01*
X10746279Y35932144D02*
X10734374Y35967858D01*
X10734374Y35967858D02*
X10734374Y35991667D01*
X10734374Y35991667D02*
X10746279Y36027382D01*
X10746279Y36027382D02*
X10758184Y36039286D01*
X10734374Y36122620D02*
X10734374Y36277382D01*
X10734374Y36277382D02*
X10829612Y36194048D01*
X10829612Y36194048D02*
X10829612Y36229763D01*
X10829612Y36229763D02*
X10841517Y36253572D01*
X10841517Y36253572D02*
X10853422Y36265477D01*
X10853422Y36265477D02*
X10877231Y36277382D01*
X10877231Y36277382D02*
X10936755Y36277382D01*
X10936755Y36277382D02*
X10960565Y36265477D01*
X10960565Y36265477D02*
X10972470Y36253572D01*
X10972470Y36253572D02*
X10984374Y36229763D01*
X10984374Y36229763D02*
X10984374Y36158334D01*
X10984374Y36158334D02*
X10972470Y36134525D01*
X10972470Y36134525D02*
X10960565Y36122620D01*
X10841517Y36420239D02*
X10829612Y36396429D01*
X10829612Y36396429D02*
X10817708Y36384524D01*
X10817708Y36384524D02*
X10793898Y36372620D01*
X10793898Y36372620D02*
X10781993Y36372620D01*
X10781993Y36372620D02*
X10758184Y36384524D01*
X10758184Y36384524D02*
X10746279Y36396429D01*
X10746279Y36396429D02*
X10734374Y36420239D01*
X10734374Y36420239D02*
X10734374Y36467858D01*
X10734374Y36467858D02*
X10746279Y36491667D01*
X10746279Y36491667D02*
X10758184Y36503572D01*
X10758184Y36503572D02*
X10781993Y36515477D01*
X10781993Y36515477D02*
X10793898Y36515477D01*
X10793898Y36515477D02*
X10817708Y36503572D01*
X10817708Y36503572D02*
X10829612Y36491667D01*
X10829612Y36491667D02*
X10841517Y36467858D01*
X10841517Y36467858D02*
X10841517Y36420239D01*
X10841517Y36420239D02*
X10853422Y36396429D01*
X10853422Y36396429D02*
X10865327Y36384524D01*
X10865327Y36384524D02*
X10889136Y36372620D01*
X10889136Y36372620D02*
X10936755Y36372620D01*
X10936755Y36372620D02*
X10960565Y36384524D01*
X10960565Y36384524D02*
X10972470Y36396429D01*
X10972470Y36396429D02*
X10984374Y36420239D01*
X10984374Y36420239D02*
X10984374Y36467858D01*
X10984374Y36467858D02*
X10972470Y36491667D01*
X10972470Y36491667D02*
X10960565Y36503572D01*
X10960565Y36503572D02*
X10936755Y36515477D01*
X10936755Y36515477D02*
X10889136Y36515477D01*
X10889136Y36515477D02*
X10865327Y36503572D01*
X10865327Y36503572D02*
X10853422Y36491667D01*
X10853422Y36491667D02*
X10841517Y36467858D01*
X34738007Y60004000D02*
X34651340Y60127809D01*
X34589435Y60004000D02*
X34589435Y60264000D01*
X34589435Y60264000D02*
X34688483Y60264000D01*
X34688483Y60264000D02*
X34713245Y60251619D01*
X34713245Y60251619D02*
X34725626Y60239238D01*
X34725626Y60239238D02*
X34738007Y60214476D01*
X34738007Y60214476D02*
X34738007Y60177333D01*
X34738007Y60177333D02*
X34725626Y60152571D01*
X34725626Y60152571D02*
X34713245Y60140190D01*
X34713245Y60140190D02*
X34688483Y60127809D01*
X34688483Y60127809D02*
X34589435Y60127809D01*
X34824673Y60264000D02*
X34985626Y60264000D01*
X34985626Y60264000D02*
X34898959Y60164952D01*
X34898959Y60164952D02*
X34936102Y60164952D01*
X34936102Y60164952D02*
X34960864Y60152571D01*
X34960864Y60152571D02*
X34973245Y60140190D01*
X34973245Y60140190D02*
X34985626Y60115428D01*
X34985626Y60115428D02*
X34985626Y60053523D01*
X34985626Y60053523D02*
X34973245Y60028761D01*
X34973245Y60028761D02*
X34960864Y60016380D01*
X34960864Y60016380D02*
X34936102Y60004000D01*
X34936102Y60004000D02*
X34861816Y60004000D01*
X34861816Y60004000D02*
X34837054Y60016380D01*
X34837054Y60016380D02*
X34824673Y60028761D01*
X35208483Y60177333D02*
X35208483Y60004000D01*
X35146578Y60276380D02*
X35084673Y60090666D01*
X35084673Y60090666D02*
X35245626Y60090666D01*
X33388665Y70858334D02*
X33400570Y70846430D01*
X33400570Y70846430D02*
X33412474Y70810715D01*
X33412474Y70810715D02*
X33412474Y70786906D01*
X33412474Y70786906D02*
X33400570Y70751192D01*
X33400570Y70751192D02*
X33376760Y70727382D01*
X33376760Y70727382D02*
X33352950Y70715477D01*
X33352950Y70715477D02*
X33305331Y70703573D01*
X33305331Y70703573D02*
X33269617Y70703573D01*
X33269617Y70703573D02*
X33221998Y70715477D01*
X33221998Y70715477D02*
X33198189Y70727382D01*
X33198189Y70727382D02*
X33174379Y70751192D01*
X33174379Y70751192D02*
X33162474Y70786906D01*
X33162474Y70786906D02*
X33162474Y70810715D01*
X33162474Y70810715D02*
X33174379Y70846430D01*
X33174379Y70846430D02*
X33186284Y70858334D01*
X33245808Y71072620D02*
X33412474Y71072620D01*
X33150570Y71013096D02*
X33329141Y70953573D01*
X33329141Y70953573D02*
X33329141Y71108334D01*
X28014500Y75011065D02*
X27890691Y74924398D01*
X28014500Y74862493D02*
X27754500Y74862493D01*
X27754500Y74862493D02*
X27754500Y74961541D01*
X27754500Y74961541D02*
X27766881Y74986303D01*
X27766881Y74986303D02*
X27779262Y74998684D01*
X27779262Y74998684D02*
X27804024Y75011065D01*
X27804024Y75011065D02*
X27841167Y75011065D01*
X27841167Y75011065D02*
X27865929Y74998684D01*
X27865929Y74998684D02*
X27878310Y74986303D01*
X27878310Y74986303D02*
X27890691Y74961541D01*
X27890691Y74961541D02*
X27890691Y74862493D01*
X28014500Y75258684D02*
X28014500Y75110112D01*
X28014500Y75184398D02*
X27754500Y75184398D01*
X27754500Y75184398D02*
X27791643Y75159636D01*
X27791643Y75159636D02*
X27816405Y75134874D01*
X27816405Y75134874D02*
X27828786Y75110112D01*
X27865929Y75407255D02*
X27853548Y75382493D01*
X27853548Y75382493D02*
X27841167Y75370112D01*
X27841167Y75370112D02*
X27816405Y75357731D01*
X27816405Y75357731D02*
X27804024Y75357731D01*
X27804024Y75357731D02*
X27779262Y75370112D01*
X27779262Y75370112D02*
X27766881Y75382493D01*
X27766881Y75382493D02*
X27754500Y75407255D01*
X27754500Y75407255D02*
X27754500Y75456779D01*
X27754500Y75456779D02*
X27766881Y75481541D01*
X27766881Y75481541D02*
X27779262Y75493922D01*
X27779262Y75493922D02*
X27804024Y75506303D01*
X27804024Y75506303D02*
X27816405Y75506303D01*
X27816405Y75506303D02*
X27841167Y75493922D01*
X27841167Y75493922D02*
X27853548Y75481541D01*
X27853548Y75481541D02*
X27865929Y75456779D01*
X27865929Y75456779D02*
X27865929Y75407255D01*
X27865929Y75407255D02*
X27878310Y75382493D01*
X27878310Y75382493D02*
X27890691Y75370112D01*
X27890691Y75370112D02*
X27915453Y75357731D01*
X27915453Y75357731D02*
X27964977Y75357731D01*
X27964977Y75357731D02*
X27989739Y75370112D01*
X27989739Y75370112D02*
X28002120Y75382493D01*
X28002120Y75382493D02*
X28014500Y75407255D01*
X28014500Y75407255D02*
X28014500Y75456779D01*
X28014500Y75456779D02*
X28002120Y75481541D01*
X28002120Y75481541D02*
X27989739Y75493922D01*
X27989739Y75493922D02*
X27964977Y75506303D01*
X27964977Y75506303D02*
X27915453Y75506303D01*
X27915453Y75506303D02*
X27890691Y75493922D01*
X27890691Y75493922D02*
X27878310Y75481541D01*
X27878310Y75481541D02*
X27865929Y75456779D01*
X29862665Y75156541D02*
X29874570Y75144637D01*
X29874570Y75144637D02*
X29886474Y75108922D01*
X29886474Y75108922D02*
X29886474Y75085113D01*
X29886474Y75085113D02*
X29874570Y75049399D01*
X29874570Y75049399D02*
X29850760Y75025589D01*
X29850760Y75025589D02*
X29826950Y75013684D01*
X29826950Y75013684D02*
X29779331Y75001780D01*
X29779331Y75001780D02*
X29743617Y75001780D01*
X29743617Y75001780D02*
X29695998Y75013684D01*
X29695998Y75013684D02*
X29672189Y75025589D01*
X29672189Y75025589D02*
X29648379Y75049399D01*
X29648379Y75049399D02*
X29636474Y75085113D01*
X29636474Y75085113D02*
X29636474Y75108922D01*
X29636474Y75108922D02*
X29648379Y75144637D01*
X29648379Y75144637D02*
X29660284Y75156541D01*
X29636474Y75239875D02*
X29636474Y75406541D01*
X29636474Y75406541D02*
X29886474Y75299399D01*
X16732000Y44370068D02*
X16608191Y44283401D01*
X16732000Y44221496D02*
X16472000Y44221496D01*
X16472000Y44221496D02*
X16472000Y44320544D01*
X16472000Y44320544D02*
X16484381Y44345306D01*
X16484381Y44345306D02*
X16496762Y44357687D01*
X16496762Y44357687D02*
X16521524Y44370068D01*
X16521524Y44370068D02*
X16558667Y44370068D01*
X16558667Y44370068D02*
X16583429Y44357687D01*
X16583429Y44357687D02*
X16595810Y44345306D01*
X16595810Y44345306D02*
X16608191Y44320544D01*
X16608191Y44320544D02*
X16608191Y44221496D01*
X16472000Y44592925D02*
X16472000Y44543401D01*
X16472000Y44543401D02*
X16484381Y44518639D01*
X16484381Y44518639D02*
X16496762Y44506258D01*
X16496762Y44506258D02*
X16533905Y44481496D01*
X16533905Y44481496D02*
X16583429Y44469115D01*
X16583429Y44469115D02*
X16682477Y44469115D01*
X16682477Y44469115D02*
X16707239Y44481496D01*
X16707239Y44481496D02*
X16719620Y44493877D01*
X16719620Y44493877D02*
X16732000Y44518639D01*
X16732000Y44518639D02*
X16732000Y44568163D01*
X16732000Y44568163D02*
X16719620Y44592925D01*
X16719620Y44592925D02*
X16707239Y44605306D01*
X16707239Y44605306D02*
X16682477Y44617687D01*
X16682477Y44617687D02*
X16620572Y44617687D01*
X16620572Y44617687D02*
X16595810Y44605306D01*
X16595810Y44605306D02*
X16583429Y44592925D01*
X16583429Y44592925D02*
X16571048Y44568163D01*
X16571048Y44568163D02*
X16571048Y44518639D01*
X16571048Y44518639D02*
X16583429Y44493877D01*
X16583429Y44493877D02*
X16595810Y44481496D01*
X16595810Y44481496D02*
X16620572Y44469115D01*
X33388665Y68558334D02*
X33400570Y68546430D01*
X33400570Y68546430D02*
X33412474Y68510715D01*
X33412474Y68510715D02*
X33412474Y68486906D01*
X33412474Y68486906D02*
X33400570Y68451192D01*
X33400570Y68451192D02*
X33376760Y68427382D01*
X33376760Y68427382D02*
X33352950Y68415477D01*
X33352950Y68415477D02*
X33305331Y68403573D01*
X33305331Y68403573D02*
X33269617Y68403573D01*
X33269617Y68403573D02*
X33221998Y68415477D01*
X33221998Y68415477D02*
X33198189Y68427382D01*
X33198189Y68427382D02*
X33174379Y68451192D01*
X33174379Y68451192D02*
X33162474Y68486906D01*
X33162474Y68486906D02*
X33162474Y68510715D01*
X33162474Y68510715D02*
X33174379Y68546430D01*
X33174379Y68546430D02*
X33186284Y68558334D01*
X33162474Y68772620D02*
X33162474Y68725001D01*
X33162474Y68725001D02*
X33174379Y68701192D01*
X33174379Y68701192D02*
X33186284Y68689287D01*
X33186284Y68689287D02*
X33221998Y68665477D01*
X33221998Y68665477D02*
X33269617Y68653573D01*
X33269617Y68653573D02*
X33364855Y68653573D01*
X33364855Y68653573D02*
X33388665Y68665477D01*
X33388665Y68665477D02*
X33400570Y68677382D01*
X33400570Y68677382D02*
X33412474Y68701192D01*
X33412474Y68701192D02*
X33412474Y68748811D01*
X33412474Y68748811D02*
X33400570Y68772620D01*
X33400570Y68772620D02*
X33388665Y68784525D01*
X33388665Y68784525D02*
X33364855Y68796430D01*
X33364855Y68796430D02*
X33305331Y68796430D01*
X33305331Y68796430D02*
X33281522Y68784525D01*
X33281522Y68784525D02*
X33269617Y68772620D01*
X33269617Y68772620D02*
X33257712Y68748811D01*
X33257712Y68748811D02*
X33257712Y68701192D01*
X33257712Y68701192D02*
X33269617Y68677382D01*
X33269617Y68677382D02*
X33281522Y68665477D01*
X33281522Y68665477D02*
X33305331Y68653573D01*
X12381757Y19581800D02*
X12295090Y19705609D01*
X12233185Y19581800D02*
X12233185Y19841800D01*
X12233185Y19841800D02*
X12332233Y19841800D01*
X12332233Y19841800D02*
X12356995Y19829419D01*
X12356995Y19829419D02*
X12369376Y19817038D01*
X12369376Y19817038D02*
X12381757Y19792276D01*
X12381757Y19792276D02*
X12381757Y19755133D01*
X12381757Y19755133D02*
X12369376Y19730371D01*
X12369376Y19730371D02*
X12356995Y19717990D01*
X12356995Y19717990D02*
X12332233Y19705609D01*
X12332233Y19705609D02*
X12233185Y19705609D01*
X12480804Y19817038D02*
X12493185Y19829419D01*
X12493185Y19829419D02*
X12517947Y19841800D01*
X12517947Y19841800D02*
X12579852Y19841800D01*
X12579852Y19841800D02*
X12604614Y19829419D01*
X12604614Y19829419D02*
X12616995Y19817038D01*
X12616995Y19817038D02*
X12629376Y19792276D01*
X12629376Y19792276D02*
X12629376Y19767514D01*
X12629376Y19767514D02*
X12616995Y19730371D01*
X12616995Y19730371D02*
X12468423Y19581800D01*
X12468423Y19581800D02*
X12629376Y19581800D01*
X12716042Y19841800D02*
X12876995Y19841800D01*
X12876995Y19841800D02*
X12790328Y19742752D01*
X12790328Y19742752D02*
X12827471Y19742752D01*
X12827471Y19742752D02*
X12852233Y19730371D01*
X12852233Y19730371D02*
X12864614Y19717990D01*
X12864614Y19717990D02*
X12876995Y19693228D01*
X12876995Y19693228D02*
X12876995Y19631323D01*
X12876995Y19631323D02*
X12864614Y19606561D01*
X12864614Y19606561D02*
X12852233Y19594180D01*
X12852233Y19594180D02*
X12827471Y19581800D01*
X12827471Y19581800D02*
X12753185Y19581800D01*
X12753185Y19581800D02*
X12728423Y19594180D01*
X12728423Y19594180D02*
X12716042Y19606561D01*
X44338185Y17910235D02*
X44326281Y17898330D01*
X44326281Y17898330D02*
X44290566Y17886426D01*
X44290566Y17886426D02*
X44266757Y17886426D01*
X44266757Y17886426D02*
X44231043Y17898330D01*
X44231043Y17898330D02*
X44207233Y17922140D01*
X44207233Y17922140D02*
X44195328Y17945950D01*
X44195328Y17945950D02*
X44183424Y17993569D01*
X44183424Y17993569D02*
X44183424Y18029283D01*
X44183424Y18029283D02*
X44195328Y18076902D01*
X44195328Y18076902D02*
X44207233Y18100711D01*
X44207233Y18100711D02*
X44231043Y18124521D01*
X44231043Y18124521D02*
X44266757Y18136426D01*
X44266757Y18136426D02*
X44290566Y18136426D01*
X44290566Y18136426D02*
X44326281Y18124521D01*
X44326281Y18124521D02*
X44338185Y18112616D01*
X44421519Y18136426D02*
X44576281Y18136426D01*
X44576281Y18136426D02*
X44492947Y18041188D01*
X44492947Y18041188D02*
X44528662Y18041188D01*
X44528662Y18041188D02*
X44552471Y18029283D01*
X44552471Y18029283D02*
X44564376Y18017378D01*
X44564376Y18017378D02*
X44576281Y17993569D01*
X44576281Y17993569D02*
X44576281Y17934045D01*
X44576281Y17934045D02*
X44564376Y17910235D01*
X44564376Y17910235D02*
X44552471Y17898330D01*
X44552471Y17898330D02*
X44528662Y17886426D01*
X44528662Y17886426D02*
X44457233Y17886426D01*
X44457233Y17886426D02*
X44433424Y17898330D01*
X44433424Y17898330D02*
X44421519Y17910235D01*
X44802471Y18136426D02*
X44683423Y18136426D01*
X44683423Y18136426D02*
X44671519Y18017378D01*
X44671519Y18017378D02*
X44683423Y18029283D01*
X44683423Y18029283D02*
X44707233Y18041188D01*
X44707233Y18041188D02*
X44766757Y18041188D01*
X44766757Y18041188D02*
X44790566Y18029283D01*
X44790566Y18029283D02*
X44802471Y18017378D01*
X44802471Y18017378D02*
X44814376Y17993569D01*
X44814376Y17993569D02*
X44814376Y17934045D01*
X44814376Y17934045D02*
X44802471Y17910235D01*
X44802471Y17910235D02*
X44790566Y17898330D01*
X44790566Y17898330D02*
X44766757Y17886426D01*
X44766757Y17886426D02*
X44707233Y17886426D01*
X44707233Y17886426D02*
X44683423Y17898330D01*
X44683423Y17898330D02*
X44671519Y17910235D01*
D15*
X44066309Y10523811D02*
X43566309Y10523811D01*
X44018690Y11047620D02*
X44042500Y11023811D01*
X44042500Y11023811D02*
X44066309Y10952382D01*
X44066309Y10952382D02*
X44066309Y10904763D01*
X44066309Y10904763D02*
X44042500Y10833335D01*
X44042500Y10833335D02*
X43994880Y10785716D01*
X43994880Y10785716D02*
X43947261Y10761906D01*
X43947261Y10761906D02*
X43852023Y10738097D01*
X43852023Y10738097D02*
X43780595Y10738097D01*
X43780595Y10738097D02*
X43685357Y10761906D01*
X43685357Y10761906D02*
X43637738Y10785716D01*
X43637738Y10785716D02*
X43590119Y10833335D01*
X43590119Y10833335D02*
X43566309Y10904763D01*
X43566309Y10904763D02*
X43566309Y10952382D01*
X43566309Y10952382D02*
X43590119Y11023811D01*
X43590119Y11023811D02*
X43613928Y11047620D01*
X44066309Y11523811D02*
X44066309Y11238097D01*
X44066309Y11380954D02*
X43566309Y11380954D01*
X43566309Y11380954D02*
X43637738Y11333335D01*
X43637738Y11333335D02*
X43685357Y11285716D01*
X43685357Y11285716D02*
X43709166Y11238097D01*
X44066309Y11761906D02*
X44066309Y11857144D01*
X44066309Y11857144D02*
X44042500Y11904763D01*
X44042500Y11904763D02*
X44018690Y11928572D01*
X44018690Y11928572D02*
X43947261Y11976191D01*
X43947261Y11976191D02*
X43852023Y12000001D01*
X43852023Y12000001D02*
X43661547Y12000001D01*
X43661547Y12000001D02*
X43613928Y11976191D01*
X43613928Y11976191D02*
X43590119Y11952382D01*
X43590119Y11952382D02*
X43566309Y11904763D01*
X43566309Y11904763D02*
X43566309Y11809525D01*
X43566309Y11809525D02*
X43590119Y11761906D01*
X43590119Y11761906D02*
X43613928Y11738096D01*
X43613928Y11738096D02*
X43661547Y11714287D01*
X43661547Y11714287D02*
X43780595Y11714287D01*
X43780595Y11714287D02*
X43828214Y11738096D01*
X43828214Y11738096D02*
X43852023Y11761906D01*
X43852023Y11761906D02*
X43875833Y11809525D01*
X43875833Y11809525D02*
X43875833Y11904763D01*
X43875833Y11904763D02*
X43852023Y11952382D01*
X43852023Y11952382D02*
X43828214Y11976191D01*
X43828214Y11976191D02*
X43780595Y12000001D01*
D10*
X49955567Y64631800D02*
X49868900Y64755609D01*
X49806995Y64631800D02*
X49806995Y64891800D01*
X49806995Y64891800D02*
X49906043Y64891800D01*
X49906043Y64891800D02*
X49930805Y64879419D01*
X49930805Y64879419D02*
X49943186Y64867038D01*
X49943186Y64867038D02*
X49955567Y64842276D01*
X49955567Y64842276D02*
X49955567Y64805133D01*
X49955567Y64805133D02*
X49943186Y64780371D01*
X49943186Y64780371D02*
X49930805Y64767990D01*
X49930805Y64767990D02*
X49906043Y64755609D01*
X49906043Y64755609D02*
X49806995Y64755609D01*
X50190805Y64891800D02*
X50066995Y64891800D01*
X50066995Y64891800D02*
X50054614Y64767990D01*
X50054614Y64767990D02*
X50066995Y64780371D01*
X50066995Y64780371D02*
X50091757Y64792752D01*
X50091757Y64792752D02*
X50153662Y64792752D01*
X50153662Y64792752D02*
X50178424Y64780371D01*
X50178424Y64780371D02*
X50190805Y64767990D01*
X50190805Y64767990D02*
X50203186Y64743228D01*
X50203186Y64743228D02*
X50203186Y64681323D01*
X50203186Y64681323D02*
X50190805Y64656561D01*
X50190805Y64656561D02*
X50178424Y64644180D01*
X50178424Y64644180D02*
X50153662Y64631800D01*
X50153662Y64631800D02*
X50091757Y64631800D01*
X50091757Y64631800D02*
X50066995Y64644180D01*
X50066995Y64644180D02*
X50054614Y64656561D01*
X20328200Y57206668D02*
X20204391Y57120001D01*
X20328200Y57058096D02*
X20068200Y57058096D01*
X20068200Y57058096D02*
X20068200Y57157144D01*
X20068200Y57157144D02*
X20080581Y57181906D01*
X20080581Y57181906D02*
X20092962Y57194287D01*
X20092962Y57194287D02*
X20117724Y57206668D01*
X20117724Y57206668D02*
X20154867Y57206668D01*
X20154867Y57206668D02*
X20179629Y57194287D01*
X20179629Y57194287D02*
X20192010Y57181906D01*
X20192010Y57181906D02*
X20204391Y57157144D01*
X20204391Y57157144D02*
X20204391Y57058096D01*
X20328200Y57454287D02*
X20328200Y57305715D01*
X20328200Y57380001D02*
X20068200Y57380001D01*
X20068200Y57380001D02*
X20105343Y57355239D01*
X20105343Y57355239D02*
X20130105Y57330477D01*
X20130105Y57330477D02*
X20142486Y57305715D01*
D14*
X54380566Y53045181D02*
X54380566Y52330896D01*
X54380566Y52330896D02*
X54332947Y52188039D01*
X54332947Y52188039D02*
X54237709Y52092800D01*
X54237709Y52092800D02*
X54094852Y52045181D01*
X54094852Y52045181D02*
X53999614Y52045181D01*
X54761519Y53045181D02*
X55380566Y53045181D01*
X55380566Y53045181D02*
X55047233Y52664229D01*
X55047233Y52664229D02*
X55190090Y52664229D01*
X55190090Y52664229D02*
X55285328Y52616610D01*
X55285328Y52616610D02*
X55332947Y52568991D01*
X55332947Y52568991D02*
X55380566Y52473753D01*
X55380566Y52473753D02*
X55380566Y52235658D01*
X55380566Y52235658D02*
X55332947Y52140420D01*
X55332947Y52140420D02*
X55285328Y52092800D01*
X55285328Y52092800D02*
X55190090Y52045181D01*
X55190090Y52045181D02*
X54904376Y52045181D01*
X54904376Y52045181D02*
X54809138Y52092800D01*
X54809138Y52092800D02*
X54761519Y52140420D01*
D11*
X2183528Y37971115D02*
X3683528Y38971115D01*
X2183528Y38971115D02*
X3683528Y37971115D01*
X2183528Y40256829D02*
X2183528Y39542543D01*
X2183528Y39542543D02*
X2897814Y39471115D01*
X2897814Y39471115D02*
X2826385Y39542543D01*
X2826385Y39542543D02*
X2754957Y39685400D01*
X2754957Y39685400D02*
X2754957Y40042543D01*
X2754957Y40042543D02*
X2826385Y40185400D01*
X2826385Y40185400D02*
X2897814Y40256829D01*
X2897814Y40256829D02*
X3040671Y40328258D01*
X3040671Y40328258D02*
X3397814Y40328258D01*
X3397814Y40328258D02*
X3540671Y40256829D01*
X3540671Y40256829D02*
X3612100Y40185400D01*
X3612100Y40185400D02*
X3683528Y40042543D01*
X3683528Y40042543D02*
X3683528Y39685400D01*
X3683528Y39685400D02*
X3612100Y39542543D01*
X3612100Y39542543D02*
X3540671Y39471115D01*
D10*
X26088665Y75156541D02*
X26100570Y75144637D01*
X26100570Y75144637D02*
X26112474Y75108922D01*
X26112474Y75108922D02*
X26112474Y75085113D01*
X26112474Y75085113D02*
X26100570Y75049399D01*
X26100570Y75049399D02*
X26076760Y75025589D01*
X26076760Y75025589D02*
X26052950Y75013684D01*
X26052950Y75013684D02*
X26005331Y75001780D01*
X26005331Y75001780D02*
X25969617Y75001780D01*
X25969617Y75001780D02*
X25921998Y75013684D01*
X25921998Y75013684D02*
X25898189Y75025589D01*
X25898189Y75025589D02*
X25874379Y75049399D01*
X25874379Y75049399D02*
X25862474Y75085113D01*
X25862474Y75085113D02*
X25862474Y75108922D01*
X25862474Y75108922D02*
X25874379Y75144637D01*
X25874379Y75144637D02*
X25886284Y75156541D01*
X25862474Y75382732D02*
X25862474Y75263684D01*
X25862474Y75263684D02*
X25981522Y75251780D01*
X25981522Y75251780D02*
X25969617Y75263684D01*
X25969617Y75263684D02*
X25957712Y75287494D01*
X25957712Y75287494D02*
X25957712Y75347018D01*
X25957712Y75347018D02*
X25969617Y75370827D01*
X25969617Y75370827D02*
X25981522Y75382732D01*
X25981522Y75382732D02*
X26005331Y75394637D01*
X26005331Y75394637D02*
X26064855Y75394637D01*
X26064855Y75394637D02*
X26088665Y75382732D01*
X26088665Y75382732D02*
X26100570Y75370827D01*
X26100570Y75370827D02*
X26112474Y75347018D01*
X26112474Y75347018D02*
X26112474Y75287494D01*
X26112474Y75287494D02*
X26100570Y75263684D01*
X26100570Y75263684D02*
X26088665Y75251780D01*
D15*
X44066309Y14523811D02*
X43566309Y14523811D01*
X44018690Y15047620D02*
X44042500Y15023811D01*
X44042500Y15023811D02*
X44066309Y14952382D01*
X44066309Y14952382D02*
X44066309Y14904763D01*
X44066309Y14904763D02*
X44042500Y14833335D01*
X44042500Y14833335D02*
X43994880Y14785716D01*
X43994880Y14785716D02*
X43947261Y14761906D01*
X43947261Y14761906D02*
X43852023Y14738097D01*
X43852023Y14738097D02*
X43780595Y14738097D01*
X43780595Y14738097D02*
X43685357Y14761906D01*
X43685357Y14761906D02*
X43637738Y14785716D01*
X43637738Y14785716D02*
X43590119Y14833335D01*
X43590119Y14833335D02*
X43566309Y14904763D01*
X43566309Y14904763D02*
X43566309Y14952382D01*
X43566309Y14952382D02*
X43590119Y15023811D01*
X43590119Y15023811D02*
X43613928Y15047620D01*
X43613928Y15238097D02*
X43590119Y15261906D01*
X43590119Y15261906D02*
X43566309Y15309525D01*
X43566309Y15309525D02*
X43566309Y15428573D01*
X43566309Y15428573D02*
X43590119Y15476192D01*
X43590119Y15476192D02*
X43613928Y15500001D01*
X43613928Y15500001D02*
X43661547Y15523811D01*
X43661547Y15523811D02*
X43709166Y15523811D01*
X43709166Y15523811D02*
X43780595Y15500001D01*
X43780595Y15500001D02*
X44066309Y15214287D01*
X44066309Y15214287D02*
X44066309Y15523811D01*
X43566309Y15833334D02*
X43566309Y15880953D01*
X43566309Y15880953D02*
X43590119Y15928572D01*
X43590119Y15928572D02*
X43613928Y15952382D01*
X43613928Y15952382D02*
X43661547Y15976191D01*
X43661547Y15976191D02*
X43756785Y16000001D01*
X43756785Y16000001D02*
X43875833Y16000001D01*
X43875833Y16000001D02*
X43971071Y15976191D01*
X43971071Y15976191D02*
X44018690Y15952382D01*
X44018690Y15952382D02*
X44042500Y15928572D01*
X44042500Y15928572D02*
X44066309Y15880953D01*
X44066309Y15880953D02*
X44066309Y15833334D01*
X44066309Y15833334D02*
X44042500Y15785715D01*
X44042500Y15785715D02*
X44018690Y15761906D01*
X44018690Y15761906D02*
X43971071Y15738096D01*
X43971071Y15738096D02*
X43875833Y15714287D01*
X43875833Y15714287D02*
X43756785Y15714287D01*
X43756785Y15714287D02*
X43661547Y15738096D01*
X43661547Y15738096D02*
X43613928Y15761906D01*
X43613928Y15761906D02*
X43590119Y15785715D01*
X43590119Y15785715D02*
X43566309Y15833334D01*
D10*
X41566485Y51471435D02*
X41554581Y51459530D01*
X41554581Y51459530D02*
X41518866Y51447626D01*
X41518866Y51447626D02*
X41495057Y51447626D01*
X41495057Y51447626D02*
X41459343Y51459530D01*
X41459343Y51459530D02*
X41435533Y51483340D01*
X41435533Y51483340D02*
X41423628Y51507150D01*
X41423628Y51507150D02*
X41411724Y51554769D01*
X41411724Y51554769D02*
X41411724Y51590483D01*
X41411724Y51590483D02*
X41423628Y51638102D01*
X41423628Y51638102D02*
X41435533Y51661911D01*
X41435533Y51661911D02*
X41459343Y51685721D01*
X41459343Y51685721D02*
X41495057Y51697626D01*
X41495057Y51697626D02*
X41518866Y51697626D01*
X41518866Y51697626D02*
X41554581Y51685721D01*
X41554581Y51685721D02*
X41566485Y51673816D01*
X41804581Y51447626D02*
X41661724Y51447626D01*
X41733152Y51447626D02*
X41733152Y51697626D01*
X41733152Y51697626D02*
X41709343Y51661911D01*
X41709343Y51661911D02*
X41685533Y51638102D01*
X41685533Y51638102D02*
X41661724Y51626197D01*
X41899819Y51673816D02*
X41911723Y51685721D01*
X41911723Y51685721D02*
X41935533Y51697626D01*
X41935533Y51697626D02*
X41995057Y51697626D01*
X41995057Y51697626D02*
X42018866Y51685721D01*
X42018866Y51685721D02*
X42030771Y51673816D01*
X42030771Y51673816D02*
X42042676Y51650007D01*
X42042676Y51650007D02*
X42042676Y51626197D01*
X42042676Y51626197D02*
X42030771Y51590483D01*
X42030771Y51590483D02*
X41887914Y51447626D01*
X41887914Y51447626D02*
X42042676Y51447626D01*
X17723185Y20704235D02*
X17711281Y20692330D01*
X17711281Y20692330D02*
X17675566Y20680426D01*
X17675566Y20680426D02*
X17651757Y20680426D01*
X17651757Y20680426D02*
X17616043Y20692330D01*
X17616043Y20692330D02*
X17592233Y20716140D01*
X17592233Y20716140D02*
X17580328Y20739950D01*
X17580328Y20739950D02*
X17568424Y20787569D01*
X17568424Y20787569D02*
X17568424Y20823283D01*
X17568424Y20823283D02*
X17580328Y20870902D01*
X17580328Y20870902D02*
X17592233Y20894711D01*
X17592233Y20894711D02*
X17616043Y20918521D01*
X17616043Y20918521D02*
X17651757Y20930426D01*
X17651757Y20930426D02*
X17675566Y20930426D01*
X17675566Y20930426D02*
X17711281Y20918521D01*
X17711281Y20918521D02*
X17723185Y20906616D01*
X17961281Y20680426D02*
X17818424Y20680426D01*
X17889852Y20680426D02*
X17889852Y20930426D01*
X17889852Y20930426D02*
X17866043Y20894711D01*
X17866043Y20894711D02*
X17842233Y20870902D01*
X17842233Y20870902D02*
X17818424Y20858997D01*
X18080328Y20680426D02*
X18127947Y20680426D01*
X18127947Y20680426D02*
X18151757Y20692330D01*
X18151757Y20692330D02*
X18163661Y20704235D01*
X18163661Y20704235D02*
X18187471Y20739950D01*
X18187471Y20739950D02*
X18199376Y20787569D01*
X18199376Y20787569D02*
X18199376Y20882807D01*
X18199376Y20882807D02*
X18187471Y20906616D01*
X18187471Y20906616D02*
X18175566Y20918521D01*
X18175566Y20918521D02*
X18151757Y20930426D01*
X18151757Y20930426D02*
X18104138Y20930426D01*
X18104138Y20930426D02*
X18080328Y20918521D01*
X18080328Y20918521D02*
X18068423Y20906616D01*
X18068423Y20906616D02*
X18056519Y20882807D01*
X18056519Y20882807D02*
X18056519Y20823283D01*
X18056519Y20823283D02*
X18068423Y20799473D01*
X18068423Y20799473D02*
X18080328Y20787569D01*
X18080328Y20787569D02*
X18104138Y20775664D01*
X18104138Y20775664D02*
X18151757Y20775664D01*
X18151757Y20775664D02*
X18175566Y20787569D01*
X18175566Y20787569D02*
X18187471Y20799473D01*
X18187471Y20799473D02*
X18199376Y20823283D01*
D15*
X17526309Y11213811D02*
X17026309Y11213811D01*
X17478690Y11737620D02*
X17502500Y11713811D01*
X17502500Y11713811D02*
X17526309Y11642382D01*
X17526309Y11642382D02*
X17526309Y11594763D01*
X17526309Y11594763D02*
X17502500Y11523335D01*
X17502500Y11523335D02*
X17454880Y11475716D01*
X17454880Y11475716D02*
X17407261Y11451906D01*
X17407261Y11451906D02*
X17312023Y11428097D01*
X17312023Y11428097D02*
X17240595Y11428097D01*
X17240595Y11428097D02*
X17145357Y11451906D01*
X17145357Y11451906D02*
X17097738Y11475716D01*
X17097738Y11475716D02*
X17050119Y11523335D01*
X17050119Y11523335D02*
X17026309Y11594763D01*
X17026309Y11594763D02*
X17026309Y11642382D01*
X17026309Y11642382D02*
X17050119Y11713811D01*
X17050119Y11713811D02*
X17073928Y11737620D01*
X17526309Y12213811D02*
X17526309Y11928097D01*
X17526309Y12070954D02*
X17026309Y12070954D01*
X17026309Y12070954D02*
X17097738Y12023335D01*
X17097738Y12023335D02*
X17145357Y11975716D01*
X17145357Y11975716D02*
X17169166Y11928097D01*
X17192976Y12642382D02*
X17526309Y12642382D01*
X17002500Y12523334D02*
X17359642Y12404287D01*
X17359642Y12404287D02*
X17359642Y12713810D01*
D10*
X46443185Y35565235D02*
X46431281Y35553330D01*
X46431281Y35553330D02*
X46395566Y35541426D01*
X46395566Y35541426D02*
X46371757Y35541426D01*
X46371757Y35541426D02*
X46336043Y35553330D01*
X46336043Y35553330D02*
X46312233Y35577140D01*
X46312233Y35577140D02*
X46300328Y35600950D01*
X46300328Y35600950D02*
X46288424Y35648569D01*
X46288424Y35648569D02*
X46288424Y35684283D01*
X46288424Y35684283D02*
X46300328Y35731902D01*
X46300328Y35731902D02*
X46312233Y35755711D01*
X46312233Y35755711D02*
X46336043Y35779521D01*
X46336043Y35779521D02*
X46371757Y35791426D01*
X46371757Y35791426D02*
X46395566Y35791426D01*
X46395566Y35791426D02*
X46431281Y35779521D01*
X46431281Y35779521D02*
X46443185Y35767616D01*
X46526519Y35791426D02*
X46681281Y35791426D01*
X46681281Y35791426D02*
X46597947Y35696188D01*
X46597947Y35696188D02*
X46633662Y35696188D01*
X46633662Y35696188D02*
X46657471Y35684283D01*
X46657471Y35684283D02*
X46669376Y35672378D01*
X46669376Y35672378D02*
X46681281Y35648569D01*
X46681281Y35648569D02*
X46681281Y35589045D01*
X46681281Y35589045D02*
X46669376Y35565235D01*
X46669376Y35565235D02*
X46657471Y35553330D01*
X46657471Y35553330D02*
X46633662Y35541426D01*
X46633662Y35541426D02*
X46562233Y35541426D01*
X46562233Y35541426D02*
X46538424Y35553330D01*
X46538424Y35553330D02*
X46526519Y35565235D01*
X46764614Y35791426D02*
X46931280Y35791426D01*
X46931280Y35791426D02*
X46824138Y35541426D01*
X11418713Y29381800D02*
X11332046Y29505609D01*
X11270141Y29381800D02*
X11270141Y29641800D01*
X11270141Y29641800D02*
X11369189Y29641800D01*
X11369189Y29641800D02*
X11393951Y29629419D01*
X11393951Y29629419D02*
X11406332Y29617038D01*
X11406332Y29617038D02*
X11418713Y29592276D01*
X11418713Y29592276D02*
X11418713Y29555133D01*
X11418713Y29555133D02*
X11406332Y29530371D01*
X11406332Y29530371D02*
X11393951Y29517990D01*
X11393951Y29517990D02*
X11369189Y29505609D01*
X11369189Y29505609D02*
X11270141Y29505609D01*
X11666332Y29381800D02*
X11517760Y29381800D01*
X11592046Y29381800D02*
X11592046Y29641800D01*
X11592046Y29641800D02*
X11567284Y29604657D01*
X11567284Y29604657D02*
X11542522Y29579895D01*
X11542522Y29579895D02*
X11517760Y29567514D01*
X11889189Y29641800D02*
X11839665Y29641800D01*
X11839665Y29641800D02*
X11814903Y29629419D01*
X11814903Y29629419D02*
X11802522Y29617038D01*
X11802522Y29617038D02*
X11777760Y29579895D01*
X11777760Y29579895D02*
X11765379Y29530371D01*
X11765379Y29530371D02*
X11765379Y29431323D01*
X11765379Y29431323D02*
X11777760Y29406561D01*
X11777760Y29406561D02*
X11790141Y29394180D01*
X11790141Y29394180D02*
X11814903Y29381800D01*
X11814903Y29381800D02*
X11864427Y29381800D01*
X11864427Y29381800D02*
X11889189Y29394180D01*
X11889189Y29394180D02*
X11901570Y29406561D01*
X11901570Y29406561D02*
X11913951Y29431323D01*
X11913951Y29431323D02*
X11913951Y29493228D01*
X11913951Y29493228D02*
X11901570Y29517990D01*
X11901570Y29517990D02*
X11889189Y29530371D01*
X11889189Y29530371D02*
X11864427Y29542752D01*
X11864427Y29542752D02*
X11814903Y29542752D01*
X11814903Y29542752D02*
X11790141Y29530371D01*
X11790141Y29530371D02*
X11777760Y29517990D01*
X11777760Y29517990D02*
X11765379Y29493228D01*
D15*
X11976309Y71939757D02*
X11476309Y71939757D01*
X11928690Y72463566D02*
X11952500Y72439757D01*
X11952500Y72439757D02*
X11976309Y72368328D01*
X11976309Y72368328D02*
X11976309Y72320709D01*
X11976309Y72320709D02*
X11952500Y72249281D01*
X11952500Y72249281D02*
X11904880Y72201662D01*
X11904880Y72201662D02*
X11857261Y72177852D01*
X11857261Y72177852D02*
X11762023Y72154043D01*
X11762023Y72154043D02*
X11690595Y72154043D01*
X11690595Y72154043D02*
X11595357Y72177852D01*
X11595357Y72177852D02*
X11547738Y72201662D01*
X11547738Y72201662D02*
X11500119Y72249281D01*
X11500119Y72249281D02*
X11476309Y72320709D01*
X11476309Y72320709D02*
X11476309Y72368328D01*
X11476309Y72368328D02*
X11500119Y72439757D01*
X11500119Y72439757D02*
X11523928Y72463566D01*
X11523928Y72654043D02*
X11500119Y72677852D01*
X11500119Y72677852D02*
X11476309Y72725471D01*
X11476309Y72725471D02*
X11476309Y72844519D01*
X11476309Y72844519D02*
X11500119Y72892138D01*
X11500119Y72892138D02*
X11523928Y72915947D01*
X11523928Y72915947D02*
X11571547Y72939757D01*
X11571547Y72939757D02*
X11619166Y72939757D01*
X11619166Y72939757D02*
X11690595Y72915947D01*
X11690595Y72915947D02*
X11976309Y72630233D01*
X11976309Y72630233D02*
X11976309Y72939757D01*
X11976309Y73415947D02*
X11976309Y73130233D01*
X11976309Y73273090D02*
X11476309Y73273090D01*
X11476309Y73273090D02*
X11547738Y73225471D01*
X11547738Y73225471D02*
X11595357Y73177852D01*
X11595357Y73177852D02*
X11619166Y73130233D01*
D11*
X2183528Y12568115D02*
X3683528Y13568115D01*
X2183528Y13568115D02*
X3683528Y12568115D01*
X3683528Y14210972D02*
X3683528Y14496686D01*
X3683528Y14496686D02*
X3612100Y14639543D01*
X3612100Y14639543D02*
X3540671Y14710972D01*
X3540671Y14710972D02*
X3326385Y14853829D01*
X3326385Y14853829D02*
X3040671Y14925258D01*
X3040671Y14925258D02*
X2469242Y14925258D01*
X2469242Y14925258D02*
X2326385Y14853829D01*
X2326385Y14853829D02*
X2254957Y14782400D01*
X2254957Y14782400D02*
X2183528Y14639543D01*
X2183528Y14639543D02*
X2183528Y14353829D01*
X2183528Y14353829D02*
X2254957Y14210972D01*
X2254957Y14210972D02*
X2326385Y14139543D01*
X2326385Y14139543D02*
X2469242Y14068115D01*
X2469242Y14068115D02*
X2826385Y14068115D01*
X2826385Y14068115D02*
X2969242Y14139543D01*
X2969242Y14139543D02*
X3040671Y14210972D01*
X3040671Y14210972D02*
X3112100Y14353829D01*
X3112100Y14353829D02*
X3112100Y14639543D01*
X3112100Y14639543D02*
X3040671Y14782400D01*
X3040671Y14782400D02*
X2969242Y14853829D01*
X2969242Y14853829D02*
X2826385Y14925258D01*
D10*
X30578565Y33453286D02*
X30590470Y33441382D01*
X30590470Y33441382D02*
X30602374Y33405667D01*
X30602374Y33405667D02*
X30602374Y33381858D01*
X30602374Y33381858D02*
X30590470Y33346144D01*
X30590470Y33346144D02*
X30566660Y33322334D01*
X30566660Y33322334D02*
X30542850Y33310429D01*
X30542850Y33310429D02*
X30495231Y33298525D01*
X30495231Y33298525D02*
X30459517Y33298525D01*
X30459517Y33298525D02*
X30411898Y33310429D01*
X30411898Y33310429D02*
X30388089Y33322334D01*
X30388089Y33322334D02*
X30364279Y33346144D01*
X30364279Y33346144D02*
X30352374Y33381858D01*
X30352374Y33381858D02*
X30352374Y33405667D01*
X30352374Y33405667D02*
X30364279Y33441382D01*
X30364279Y33441382D02*
X30376184Y33453286D01*
X30376184Y33548525D02*
X30364279Y33560429D01*
X30364279Y33560429D02*
X30352374Y33584239D01*
X30352374Y33584239D02*
X30352374Y33643763D01*
X30352374Y33643763D02*
X30364279Y33667572D01*
X30364279Y33667572D02*
X30376184Y33679477D01*
X30376184Y33679477D02*
X30399993Y33691382D01*
X30399993Y33691382D02*
X30423803Y33691382D01*
X30423803Y33691382D02*
X30459517Y33679477D01*
X30459517Y33679477D02*
X30602374Y33536620D01*
X30602374Y33536620D02*
X30602374Y33691382D01*
X30459517Y33834239D02*
X30447612Y33810429D01*
X30447612Y33810429D02*
X30435708Y33798524D01*
X30435708Y33798524D02*
X30411898Y33786620D01*
X30411898Y33786620D02*
X30399993Y33786620D01*
X30399993Y33786620D02*
X30376184Y33798524D01*
X30376184Y33798524D02*
X30364279Y33810429D01*
X30364279Y33810429D02*
X30352374Y33834239D01*
X30352374Y33834239D02*
X30352374Y33881858D01*
X30352374Y33881858D02*
X30364279Y33905667D01*
X30364279Y33905667D02*
X30376184Y33917572D01*
X30376184Y33917572D02*
X30399993Y33929477D01*
X30399993Y33929477D02*
X30411898Y33929477D01*
X30411898Y33929477D02*
X30435708Y33917572D01*
X30435708Y33917572D02*
X30447612Y33905667D01*
X30447612Y33905667D02*
X30459517Y33881858D01*
X30459517Y33881858D02*
X30459517Y33834239D01*
X30459517Y33834239D02*
X30471422Y33810429D01*
X30471422Y33810429D02*
X30483327Y33798524D01*
X30483327Y33798524D02*
X30507136Y33786620D01*
X30507136Y33786620D02*
X30554755Y33786620D01*
X30554755Y33786620D02*
X30578565Y33798524D01*
X30578565Y33798524D02*
X30590470Y33810429D01*
X30590470Y33810429D02*
X30602374Y33834239D01*
X30602374Y33834239D02*
X30602374Y33881858D01*
X30602374Y33881858D02*
X30590470Y33905667D01*
X30590470Y33905667D02*
X30578565Y33917572D01*
X30578565Y33917572D02*
X30554755Y33929477D01*
X30554755Y33929477D02*
X30507136Y33929477D01*
X30507136Y33929477D02*
X30483327Y33917572D01*
X30483327Y33917572D02*
X30471422Y33905667D01*
X30471422Y33905667D02*
X30459517Y33881858D01*
X35117100Y72432858D02*
X34993291Y72346191D01*
X35117100Y72284286D02*
X34857100Y72284286D01*
X34857100Y72284286D02*
X34857100Y72383334D01*
X34857100Y72383334D02*
X34869481Y72408096D01*
X34869481Y72408096D02*
X34881862Y72420477D01*
X34881862Y72420477D02*
X34906624Y72432858D01*
X34906624Y72432858D02*
X34943767Y72432858D01*
X34943767Y72432858D02*
X34968529Y72420477D01*
X34968529Y72420477D02*
X34980910Y72408096D01*
X34980910Y72408096D02*
X34993291Y72383334D01*
X34993291Y72383334D02*
X34993291Y72284286D01*
X34881862Y72531905D02*
X34869481Y72544286D01*
X34869481Y72544286D02*
X34857100Y72569048D01*
X34857100Y72569048D02*
X34857100Y72630953D01*
X34857100Y72630953D02*
X34869481Y72655715D01*
X34869481Y72655715D02*
X34881862Y72668096D01*
X34881862Y72668096D02*
X34906624Y72680477D01*
X34906624Y72680477D02*
X34931386Y72680477D01*
X34931386Y72680477D02*
X34968529Y72668096D01*
X34968529Y72668096D02*
X35117100Y72519524D01*
X35117100Y72519524D02*
X35117100Y72680477D01*
X34857100Y72903334D02*
X34857100Y72853810D01*
X34857100Y72853810D02*
X34869481Y72829048D01*
X34869481Y72829048D02*
X34881862Y72816667D01*
X34881862Y72816667D02*
X34919005Y72791905D01*
X34919005Y72791905D02*
X34968529Y72779524D01*
X34968529Y72779524D02*
X35067577Y72779524D01*
X35067577Y72779524D02*
X35092339Y72791905D01*
X35092339Y72791905D02*
X35104720Y72804286D01*
X35104720Y72804286D02*
X35117100Y72829048D01*
X35117100Y72829048D02*
X35117100Y72878572D01*
X35117100Y72878572D02*
X35104720Y72903334D01*
X35104720Y72903334D02*
X35092339Y72915715D01*
X35092339Y72915715D02*
X35067577Y72928096D01*
X35067577Y72928096D02*
X35005672Y72928096D01*
X35005672Y72928096D02*
X34980910Y72915715D01*
X34980910Y72915715D02*
X34968529Y72903334D01*
X34968529Y72903334D02*
X34956148Y72878572D01*
X34956148Y72878572D02*
X34956148Y72829048D01*
X34956148Y72829048D02*
X34968529Y72804286D01*
X34968529Y72804286D02*
X34980910Y72791905D01*
X34980910Y72791905D02*
X35005672Y72779524D01*
X17113000Y39737758D02*
X16989191Y39651091D01*
X17113000Y39589186D02*
X16853000Y39589186D01*
X16853000Y39589186D02*
X16853000Y39688234D01*
X16853000Y39688234D02*
X16865381Y39712996D01*
X16865381Y39712996D02*
X16877762Y39725377D01*
X16877762Y39725377D02*
X16902524Y39737758D01*
X16902524Y39737758D02*
X16939667Y39737758D01*
X16939667Y39737758D02*
X16964429Y39725377D01*
X16964429Y39725377D02*
X16976810Y39712996D01*
X16976810Y39712996D02*
X16989191Y39688234D01*
X16989191Y39688234D02*
X16989191Y39589186D01*
X17113000Y39985377D02*
X17113000Y39836805D01*
X17113000Y39911091D02*
X16853000Y39911091D01*
X16853000Y39911091D02*
X16890143Y39886329D01*
X16890143Y39886329D02*
X16914905Y39861567D01*
X16914905Y39861567D02*
X16927286Y39836805D01*
X16853000Y40072043D02*
X16853000Y40232996D01*
X16853000Y40232996D02*
X16952048Y40146329D01*
X16952048Y40146329D02*
X16952048Y40183472D01*
X16952048Y40183472D02*
X16964429Y40208234D01*
X16964429Y40208234D02*
X16976810Y40220615D01*
X16976810Y40220615D02*
X17001572Y40232996D01*
X17001572Y40232996D02*
X17063477Y40232996D01*
X17063477Y40232996D02*
X17088239Y40220615D01*
X17088239Y40220615D02*
X17100620Y40208234D01*
X17100620Y40208234D02*
X17113000Y40183472D01*
X17113000Y40183472D02*
X17113000Y40109186D01*
X17113000Y40109186D02*
X17100620Y40084424D01*
X17100620Y40084424D02*
X17088239Y40072043D01*
D11*
X57882428Y13460715D02*
X59382428Y14460715D01*
X57882428Y14460715D02*
X59382428Y13460715D01*
X59382428Y15817858D02*
X59382428Y14960715D01*
X59382428Y15389286D02*
X57882428Y15389286D01*
X57882428Y15389286D02*
X58096714Y15246429D01*
X58096714Y15246429D02*
X58239571Y15103572D01*
X58239571Y15103572D02*
X58311000Y14960715D01*
D17*
X41327866Y48070851D02*
X41089771Y48070851D01*
X41089771Y48070851D02*
X41089771Y48570851D01*
X41470724Y48523232D02*
X41494533Y48547041D01*
X41494533Y48547041D02*
X41542152Y48570851D01*
X41542152Y48570851D02*
X41661200Y48570851D01*
X41661200Y48570851D02*
X41708819Y48547041D01*
X41708819Y48547041D02*
X41732628Y48523232D01*
X41732628Y48523232D02*
X41756438Y48475613D01*
X41756438Y48475613D02*
X41756438Y48427994D01*
X41756438Y48427994D02*
X41732628Y48356565D01*
X41732628Y48356565D02*
X41446914Y48070851D01*
X41446914Y48070851D02*
X41756438Y48070851D01*
D11*
X2183528Y53079115D02*
X3683528Y54079115D01*
X2183528Y54079115D02*
X3683528Y53079115D01*
X2326385Y54579115D02*
X2254957Y54650543D01*
X2254957Y54650543D02*
X2183528Y54793400D01*
X2183528Y54793400D02*
X2183528Y55150543D01*
X2183528Y55150543D02*
X2254957Y55293400D01*
X2254957Y55293400D02*
X2326385Y55364829D01*
X2326385Y55364829D02*
X2469242Y55436258D01*
X2469242Y55436258D02*
X2612100Y55436258D01*
X2612100Y55436258D02*
X2826385Y55364829D01*
X2826385Y55364829D02*
X3683528Y54507686D01*
X3683528Y54507686D02*
X3683528Y55436258D01*
D12*
X8842732Y32842858D02*
X8861780Y32823810D01*
X8861780Y32823810D02*
X8880827Y32766668D01*
X8880827Y32766668D02*
X8880827Y32728572D01*
X8880827Y32728572D02*
X8861780Y32671429D01*
X8861780Y32671429D02*
X8823684Y32633334D01*
X8823684Y32633334D02*
X8785589Y32614287D01*
X8785589Y32614287D02*
X8709399Y32595239D01*
X8709399Y32595239D02*
X8652256Y32595239D01*
X8652256Y32595239D02*
X8576065Y32614287D01*
X8576065Y32614287D02*
X8537970Y32633334D01*
X8537970Y32633334D02*
X8499875Y32671429D01*
X8499875Y32671429D02*
X8480827Y32728572D01*
X8480827Y32728572D02*
X8480827Y32766668D01*
X8480827Y32766668D02*
X8499875Y32823810D01*
X8499875Y32823810D02*
X8518922Y32842858D01*
X8480827Y32976191D02*
X8480827Y33223810D01*
X8480827Y33223810D02*
X8633208Y33090477D01*
X8633208Y33090477D02*
X8633208Y33147620D01*
X8633208Y33147620D02*
X8652256Y33185715D01*
X8652256Y33185715D02*
X8671303Y33204763D01*
X8671303Y33204763D02*
X8709399Y33223810D01*
X8709399Y33223810D02*
X8804637Y33223810D01*
X8804637Y33223810D02*
X8842732Y33204763D01*
X8842732Y33204763D02*
X8861780Y33185715D01*
X8861780Y33185715D02*
X8880827Y33147620D01*
X8880827Y33147620D02*
X8880827Y33033334D01*
X8880827Y33033334D02*
X8861780Y32995239D01*
X8861780Y32995239D02*
X8842732Y32976191D01*
X8880827Y33414286D02*
X8880827Y33490477D01*
X8880827Y33490477D02*
X8861780Y33528572D01*
X8861780Y33528572D02*
X8842732Y33547620D01*
X8842732Y33547620D02*
X8785589Y33585715D01*
X8785589Y33585715D02*
X8709399Y33604762D01*
X8709399Y33604762D02*
X8557018Y33604762D01*
X8557018Y33604762D02*
X8518922Y33585715D01*
X8518922Y33585715D02*
X8499875Y33566667D01*
X8499875Y33566667D02*
X8480827Y33528572D01*
X8480827Y33528572D02*
X8480827Y33452381D01*
X8480827Y33452381D02*
X8499875Y33414286D01*
X8499875Y33414286D02*
X8518922Y33395239D01*
X8518922Y33395239D02*
X8557018Y33376191D01*
X8557018Y33376191D02*
X8652256Y33376191D01*
X8652256Y33376191D02*
X8690351Y33395239D01*
X8690351Y33395239D02*
X8709399Y33414286D01*
X8709399Y33414286D02*
X8728446Y33452381D01*
X8728446Y33452381D02*
X8728446Y33528572D01*
X8728446Y33528572D02*
X8709399Y33566667D01*
X8709399Y33566667D02*
X8690351Y33585715D01*
X8690351Y33585715D02*
X8652256Y33604762D01*
D15*
X48951280Y42624972D02*
X48903661Y42648781D01*
X48903661Y42648781D02*
X48856042Y42696400D01*
X48856042Y42696400D02*
X48784614Y42767829D01*
X48784614Y42767829D02*
X48736995Y42791639D01*
X48736995Y42791639D02*
X48689376Y42791639D01*
X48713185Y42672591D02*
X48665566Y42696400D01*
X48665566Y42696400D02*
X48617947Y42744020D01*
X48617947Y42744020D02*
X48594138Y42839258D01*
X48594138Y42839258D02*
X48594138Y43005924D01*
X48594138Y43005924D02*
X48617947Y43101162D01*
X48617947Y43101162D02*
X48665566Y43148781D01*
X48665566Y43148781D02*
X48713185Y43172591D01*
X48713185Y43172591D02*
X48808423Y43172591D01*
X48808423Y43172591D02*
X48856042Y43148781D01*
X48856042Y43148781D02*
X48903661Y43101162D01*
X48903661Y43101162D02*
X48927471Y43005924D01*
X48927471Y43005924D02*
X48927471Y42839258D01*
X48927471Y42839258D02*
X48903661Y42744020D01*
X48903661Y42744020D02*
X48856042Y42696400D01*
X48856042Y42696400D02*
X48808423Y42672591D01*
X48808423Y42672591D02*
X48713185Y42672591D01*
X49403662Y42672591D02*
X49117948Y42672591D01*
X49260805Y42672591D02*
X49260805Y43172591D01*
X49260805Y43172591D02*
X49213186Y43101162D01*
X49213186Y43101162D02*
X49165567Y43053543D01*
X49165567Y43053543D02*
X49117948Y43029734D01*
D10*
X34376857Y29693200D02*
X34290190Y29817009D01*
X34228285Y29693200D02*
X34228285Y29953200D01*
X34228285Y29953200D02*
X34327333Y29953200D01*
X34327333Y29953200D02*
X34352095Y29940819D01*
X34352095Y29940819D02*
X34364476Y29928438D01*
X34364476Y29928438D02*
X34376857Y29903676D01*
X34376857Y29903676D02*
X34376857Y29866533D01*
X34376857Y29866533D02*
X34364476Y29841771D01*
X34364476Y29841771D02*
X34352095Y29829390D01*
X34352095Y29829390D02*
X34327333Y29817009D01*
X34327333Y29817009D02*
X34228285Y29817009D01*
X34624476Y29693200D02*
X34475904Y29693200D01*
X34550190Y29693200D02*
X34550190Y29953200D01*
X34550190Y29953200D02*
X34525428Y29916057D01*
X34525428Y29916057D02*
X34500666Y29891295D01*
X34500666Y29891295D02*
X34475904Y29878914D01*
X34872095Y29693200D02*
X34723523Y29693200D01*
X34797809Y29693200D02*
X34797809Y29953200D01*
X34797809Y29953200D02*
X34773047Y29916057D01*
X34773047Y29916057D02*
X34748285Y29891295D01*
X34748285Y29891295D02*
X34723523Y29878914D01*
X38234565Y60507536D02*
X38246470Y60495632D01*
X38246470Y60495632D02*
X38258374Y60459917D01*
X38258374Y60459917D02*
X38258374Y60436108D01*
X38258374Y60436108D02*
X38246470Y60400394D01*
X38246470Y60400394D02*
X38222660Y60376584D01*
X38222660Y60376584D02*
X38198850Y60364679D01*
X38198850Y60364679D02*
X38151231Y60352775D01*
X38151231Y60352775D02*
X38115517Y60352775D01*
X38115517Y60352775D02*
X38067898Y60364679D01*
X38067898Y60364679D02*
X38044089Y60376584D01*
X38044089Y60376584D02*
X38020279Y60400394D01*
X38020279Y60400394D02*
X38008374Y60436108D01*
X38008374Y60436108D02*
X38008374Y60459917D01*
X38008374Y60459917D02*
X38020279Y60495632D01*
X38020279Y60495632D02*
X38032184Y60507536D01*
X38258374Y60745632D02*
X38258374Y60602775D01*
X38258374Y60674203D02*
X38008374Y60674203D01*
X38008374Y60674203D02*
X38044089Y60650394D01*
X38044089Y60650394D02*
X38067898Y60626584D01*
X38067898Y60626584D02*
X38079803Y60602775D01*
X38008374Y60828965D02*
X38008374Y60983727D01*
X38008374Y60983727D02*
X38103612Y60900393D01*
X38103612Y60900393D02*
X38103612Y60936108D01*
X38103612Y60936108D02*
X38115517Y60959917D01*
X38115517Y60959917D02*
X38127422Y60971822D01*
X38127422Y60971822D02*
X38151231Y60983727D01*
X38151231Y60983727D02*
X38210755Y60983727D01*
X38210755Y60983727D02*
X38234565Y60971822D01*
X38234565Y60971822D02*
X38246470Y60959917D01*
X38246470Y60959917D02*
X38258374Y60936108D01*
X38258374Y60936108D02*
X38258374Y60864679D01*
X38258374Y60864679D02*
X38246470Y60840870D01*
X38246470Y60840870D02*
X38234565Y60828965D01*
X27772857Y29566200D02*
X27686190Y29690009D01*
X27624285Y29566200D02*
X27624285Y29826200D01*
X27624285Y29826200D02*
X27723333Y29826200D01*
X27723333Y29826200D02*
X27748095Y29813819D01*
X27748095Y29813819D02*
X27760476Y29801438D01*
X27760476Y29801438D02*
X27772857Y29776676D01*
X27772857Y29776676D02*
X27772857Y29739533D01*
X27772857Y29739533D02*
X27760476Y29714771D01*
X27760476Y29714771D02*
X27748095Y29702390D01*
X27748095Y29702390D02*
X27723333Y29690009D01*
X27723333Y29690009D02*
X27624285Y29690009D01*
X28020476Y29566200D02*
X27871904Y29566200D01*
X27946190Y29566200D02*
X27946190Y29826200D01*
X27946190Y29826200D02*
X27921428Y29789057D01*
X27921428Y29789057D02*
X27896666Y29764295D01*
X27896666Y29764295D02*
X27871904Y29751914D01*
X28181428Y29826200D02*
X28206190Y29826200D01*
X28206190Y29826200D02*
X28230952Y29813819D01*
X28230952Y29813819D02*
X28243333Y29801438D01*
X28243333Y29801438D02*
X28255714Y29776676D01*
X28255714Y29776676D02*
X28268095Y29727152D01*
X28268095Y29727152D02*
X28268095Y29665247D01*
X28268095Y29665247D02*
X28255714Y29615723D01*
X28255714Y29615723D02*
X28243333Y29590961D01*
X28243333Y29590961D02*
X28230952Y29578580D01*
X28230952Y29578580D02*
X28206190Y29566200D01*
X28206190Y29566200D02*
X28181428Y29566200D01*
X28181428Y29566200D02*
X28156666Y29578580D01*
X28156666Y29578580D02*
X28144285Y29590961D01*
X28144285Y29590961D02*
X28131904Y29615723D01*
X28131904Y29615723D02*
X28119523Y29665247D01*
X28119523Y29665247D02*
X28119523Y29727152D01*
X28119523Y29727152D02*
X28131904Y29776676D01*
X28131904Y29776676D02*
X28144285Y29801438D01*
X28144285Y29801438D02*
X28156666Y29813819D01*
X28156666Y29813819D02*
X28181428Y29826200D01*
D18*
%TO.C,C17*%
X16236000Y52106600D02*
X16736000Y52106600D01*
X16236000Y51106600D02*
X16236000Y52106600D01*
X16736000Y52106600D02*
X16736000Y51106600D01*
X16736000Y51106600D02*
X16236000Y51106600D01*
%TO.C,R2*%
X52978900Y63675000D02*
X53518900Y63675000D01*
X52978900Y62625000D02*
X52978900Y63675000D01*
X53518900Y63675000D02*
X53518900Y62625000D01*
X53518900Y62625000D02*
X52978900Y62625000D01*
%TO.C,C14*%
X16363000Y57250000D02*
X16863000Y57250000D01*
X16363000Y56250000D02*
X16363000Y57250000D01*
X16863000Y57250000D02*
X16863000Y56250000D01*
X16863000Y56250000D02*
X16363000Y56250000D01*
%TO.C,C30*%
X24769000Y28025400D02*
X25269000Y28025400D01*
X24769000Y27025400D02*
X24769000Y28025400D01*
X25269000Y28025400D02*
X25269000Y27025400D01*
X25269000Y27025400D02*
X24769000Y27025400D01*
%TO.C,R14*%
X21446000Y30208400D02*
X22496000Y30208400D01*
X21446000Y29668400D02*
X21446000Y30208400D01*
X22496000Y30208400D02*
X22496000Y29668400D01*
X22496000Y29668400D02*
X21446000Y29668400D01*
%TO.C,X3*%
X5000000Y79193400D02*
X5000000Y71643400D01*
X6350000Y79193400D02*
X0Y79193400D01*
X0Y71593400D01*
X6350000Y71593400D01*
X6350000Y79193400D01*
%TO.C,C24*%
X55948900Y61400000D02*
X57548900Y61400000D01*
X55948900Y60600000D02*
X55948900Y61400000D01*
X57548900Y61400000D02*
X57548900Y60600000D01*
X57548900Y60600000D02*
X55948900Y60600000D01*
%TO.C,C32*%
X43998900Y8750000D02*
X44998900Y8750000D01*
X43998900Y8250000D02*
X43998900Y8750000D01*
X44998900Y8750000D02*
X44998900Y8250000D01*
X44998900Y8250000D02*
X43998900Y8250000D01*
%TO.C,C29*%
X19238200Y41939000D02*
X19738200Y41939000D01*
X19238200Y40939000D02*
X19238200Y41939000D01*
X19738200Y41939000D02*
X19738200Y40939000D01*
X19738200Y40939000D02*
X19238200Y40939000D01*
%TO.C,R22*%
X12423900Y14770000D02*
X13473900Y14770000D01*
X12423900Y14230000D02*
X12423900Y14770000D01*
X13473900Y14770000D02*
X13473900Y14230000D01*
X13473900Y14230000D02*
X12423900Y14230000D01*
%TO.C,X6*%
X32648900Y56800000D02*
X32648900Y54925000D01*
X29448900Y54925000D01*
X29448900Y57425000D01*
X32023900Y57425000D01*
X32648900Y56800000D01*
%TO.C,J6*%
X28198900Y19400000D02*
X34198900Y19400000D01*
X34198900Y13400000D01*
X28198900Y13400000D01*
X28198900Y19400000D01*
%TO.C,IC6*%
X12002000Y46449400D02*
X13652000Y46449400D01*
X12002000Y43399400D02*
X12002000Y46449400D01*
X12002000Y43399400D02*
X13252000Y43399400D01*
X13652000Y43824400D02*
X13252000Y43399400D01*
X13652000Y43824400D02*
X13652000Y46449400D01*
%TO.C,IC22*%
X43013900Y21800000D02*
X43013900Y19175000D01*
X43013900Y21800000D02*
X43413900Y22225000D01*
X44663900Y22225000D02*
X43413900Y22225000D01*
X44663900Y22225000D02*
X44663900Y19175000D01*
X44663900Y19175000D02*
X43013900Y19175000D01*
%TO.C,C31*%
X30853971Y27753623D02*
X31353971Y27753623D01*
X30853971Y26753623D02*
X30853971Y27753623D01*
X31353971Y27753623D02*
X31353971Y26753623D01*
X31353971Y26753623D02*
X30853971Y26753623D01*
%TO.C,C18*%
X55748900Y63250000D02*
X56748900Y63250000D01*
X55748900Y62750000D02*
X55748900Y63250000D01*
X56748900Y63250000D02*
X56748900Y62750000D01*
X56748900Y62750000D02*
X55748900Y62750000D01*
%TO.C,U1*%
X49333900Y62650000D02*
X49333900Y60025000D01*
X49333900Y62650000D02*
X49733900Y63075000D01*
X50983900Y63075000D02*
X49733900Y63075000D01*
X50983900Y63075000D02*
X50983900Y60025000D01*
X50983900Y60025000D02*
X49333900Y60025000D01*
D19*
%TO.C,FL1*%
X46161400Y72100000D02*
X48161400Y72100000D01*
X46161400Y70900000D02*
X46161400Y72100000D01*
X48161400Y72100000D02*
X48161400Y70900000D01*
X48161400Y70900000D02*
X46161400Y70900000D01*
D11*
X49111400Y71920000D02*
G75*
G02*
X48911400Y71920000I-100000J0D01*
G01*
X48911400Y71920000D02*
G75*
G02*
X49111400Y71920000I100000J0D01*
G01*
D18*
%TO.C,C36*%
X52998900Y61000000D02*
X53498900Y61000000D01*
X52998900Y60000000D02*
X52998900Y61000000D01*
X53498900Y61000000D02*
X53498900Y60000000D01*
X53498900Y60000000D02*
X52998900Y60000000D01*
%TO.C,R27*%
X34728900Y76825000D02*
X35268900Y76825000D01*
X34728900Y75775000D02*
X34728900Y76825000D01*
X35268900Y76825000D02*
X35268900Y75775000D01*
X35268900Y75775000D02*
X34728900Y75775000D01*
%TO.C,X4*%
X5156000Y70391400D02*
X5156000Y62841400D01*
X6506000Y70391400D02*
X156000Y70391400D01*
X156000Y62791400D01*
X6506000Y62791400D01*
X6506000Y70391400D01*
%TO.C,D1*%
X57998900Y46700000D02*
X58798900Y46700000D01*
X57998900Y46100000D02*
X57998900Y46700000D01*
X58248900Y46400000D02*
X58148900Y46400000D01*
X58248900Y46400000D02*
X58548900Y46200000D01*
X58248900Y46200000D02*
X58248900Y46600000D01*
X58548900Y46600000D02*
X58248900Y46400000D01*
X58548900Y46400000D02*
X58648900Y46400000D01*
X58548900Y46200000D02*
X58548900Y46600000D01*
X58798900Y46700000D02*
X58798900Y46100000D01*
X58798900Y46100000D02*
X57998900Y46100000D01*
%TO.C,D2*%
X56298900Y59050000D02*
X57098900Y59050000D01*
X56298900Y58450000D02*
X56298900Y59050000D01*
X56548900Y58950000D02*
X56548900Y58550000D01*
X56548900Y58750000D02*
X56448900Y58750000D01*
X56548900Y58550000D02*
X56848900Y58750000D01*
X56848900Y58950000D02*
X56848900Y58550000D01*
X56848900Y58750000D02*
X56548900Y58950000D01*
X56848900Y58750000D02*
X56948900Y58750000D01*
X57098900Y59050000D02*
X57098900Y58450000D01*
X57098900Y58450000D02*
X56298900Y58450000D01*
%TO.C,IC13*%
X16423900Y19100000D02*
X16423900Y16475000D01*
X16423900Y19100000D02*
X16823900Y19525000D01*
X18073900Y19525000D02*
X16823900Y19525000D01*
X18073900Y19525000D02*
X18073900Y16475000D01*
X18073900Y16475000D02*
X16423900Y16475000D01*
%TO.C,U2*%
X38048900Y76525000D02*
X39023900Y77500000D01*
X38048900Y72600000D02*
X38048900Y76525000D01*
X39023900Y77500000D02*
X41948900Y77500000D01*
X41948900Y77500000D02*
X41948900Y72600000D01*
X41948900Y72600000D02*
X38048900Y72600000D01*
%TO.C,SV2*%
X33938900Y59100000D02*
X39018900Y59100000D01*
X33938900Y51480000D02*
X33938900Y59100000D01*
X37748900Y51480000D02*
X33938900Y51480000D01*
X39018900Y59100000D02*
X39018900Y52750000D01*
X39018900Y52750000D02*
X37748900Y51480000D01*
%TO.C,U3*%
X41823900Y33180000D02*
X42798900Y34155000D01*
X41823900Y29255000D02*
X41823900Y33180000D01*
X42798900Y34155000D02*
X45723900Y34155000D01*
X45723900Y34155000D02*
X45723900Y29255000D01*
X45723900Y29255000D02*
X41823900Y29255000D01*
%TO.C,IC2*%
X12002000Y56311400D02*
X12002000Y53686400D01*
X12002000Y56311400D02*
X12402000Y56736400D01*
X13652000Y56736400D02*
X12402000Y56736400D01*
X13652000Y56736400D02*
X13652000Y53686400D01*
X13652000Y53686400D02*
X12002000Y53686400D01*
%TO.C,R25*%
X50473900Y58820000D02*
X51523900Y58820000D01*
X50473900Y58280000D02*
X50473900Y58820000D01*
X51523900Y58820000D02*
X51523900Y58280000D01*
X51523900Y58280000D02*
X50473900Y58280000D01*
%TO.C,IC5*%
X12002000Y42131400D02*
X13652000Y42131400D01*
X12002000Y39081400D02*
X12002000Y42131400D01*
X12002000Y39081400D02*
X13252000Y39081400D01*
X13652000Y39506400D02*
X13252000Y39081400D01*
X13652000Y39506400D02*
X13652000Y42131400D01*
%TO.C,J4*%
X23998900Y75600000D02*
X17998900Y75600000D01*
X17998900Y81600000D01*
X23998900Y81600000D01*
X23998900Y75600000D01*
%TO.C,IC15*%
X33654000Y25811400D02*
X33654000Y27461400D01*
X36279000Y27461400D02*
X33654000Y27461400D01*
X36279000Y27461400D02*
X36704000Y27061400D01*
X36704000Y25811400D02*
X33654000Y25811400D01*
X36704000Y25811400D02*
X36704000Y27061400D01*
%TO.C,IC8*%
X23973000Y47243400D02*
X24973000Y48243400D01*
X23973000Y38243400D02*
X23973000Y47243400D01*
X24973000Y48243400D02*
X33973000Y48243400D01*
X33973000Y48243400D02*
X33973000Y38243400D01*
X33973000Y38243400D02*
X23973000Y38243400D01*
%TO.C,J2*%
X49533666Y35900000D02*
X49533666Y29500000D01*
X49533666Y29500000D02*
X62333666Y29500000D01*
X61233666Y34300000D02*
X62333666Y34300000D01*
X61233666Y31100000D02*
X61233666Y34300000D01*
X61233666Y31100000D02*
X62333666Y31100000D01*
X62333666Y35900000D02*
X49533666Y35900000D01*
X62333666Y34300000D02*
X62333666Y35900000D01*
X62333666Y29500000D02*
X62333666Y31100000D01*
D13*
X59633666Y35050000D02*
G75*
G02*
X59133666Y35050000I-250000J0D01*
G01*
X59133666Y35050000D02*
G75*
G02*
X59633666Y35050000I250000J0D01*
G01*
D18*
%TO.C,C33*%
X43998900Y23500000D02*
X44998900Y23500000D01*
X43998900Y23000000D02*
X43998900Y23500000D01*
X44998900Y23500000D02*
X44998900Y23000000D01*
X44998900Y23000000D02*
X43998900Y23000000D01*
%TO.C,D7*%
X58698900Y39400000D02*
X59498900Y39400000D01*
X58698900Y38800000D02*
X58698900Y39400000D01*
X58948900Y39300000D02*
X58948900Y38900000D01*
X58948900Y39100000D02*
X58848900Y39100000D01*
X58948900Y38900000D02*
X59248900Y39100000D01*
X59248900Y39300000D02*
X59248900Y38900000D01*
X59248900Y39100000D02*
X58948900Y39300000D01*
X59248900Y39100000D02*
X59348900Y39100000D01*
X59498900Y39400000D02*
X59498900Y38800000D01*
X59498900Y38800000D02*
X58698900Y38800000D01*
%TO.C,IC16*%
X27177000Y25811400D02*
X27177000Y27461400D01*
X29802000Y27461400D02*
X27177000Y27461400D01*
X29802000Y27461400D02*
X30227000Y27061400D01*
X30227000Y25811400D02*
X27177000Y25811400D01*
X30227000Y25811400D02*
X30227000Y27061400D01*
D14*
%TO.C,IC1*%
X20323900Y70847207D02*
X30523900Y70847207D01*
X20323900Y66547207D02*
X20323900Y70847207D01*
X21323900Y65547207D02*
X20323900Y66547207D01*
X30523900Y70847207D02*
X30523900Y65547207D01*
X30523900Y65547207D02*
X21323900Y65547207D01*
D18*
%TO.C,L1*%
X45998900Y68025000D02*
X47998900Y68025000D01*
X45998900Y66775000D02*
X45998900Y68025000D01*
X47998900Y68025000D02*
X47998900Y66775000D01*
X47998900Y66775000D02*
X45998900Y66775000D01*
%TO.C,C20*%
X17306900Y14857000D02*
X18306900Y14857000D01*
X17306900Y14357000D02*
X17306900Y14857000D01*
X18306900Y14857000D02*
X18306900Y14357000D01*
X18306900Y14357000D02*
X17306900Y14357000D01*
%TO.C,IC18*%
X16423900Y27482400D02*
X16423900Y24857400D01*
X16423900Y27482400D02*
X16823900Y27907400D01*
X18073900Y27907400D02*
X16823900Y27907400D01*
X18073900Y27907400D02*
X18073900Y24857400D01*
X18073900Y24857400D02*
X16423900Y24857400D01*
D19*
%TO.C,FL2*%
X46116400Y75700000D02*
X48116400Y75700000D01*
X46116400Y74500000D02*
X46116400Y75700000D01*
X48116400Y75700000D02*
X48116400Y74500000D01*
X48116400Y74500000D02*
X46116400Y74500000D01*
D11*
X49066400Y75520000D02*
G75*
G02*
X48866400Y75520000I-100000J0D01*
G01*
X48866400Y75520000D02*
G75*
G02*
X49066400Y75520000I100000J0D01*
G01*
D18*
%TO.C,R24*%
X38273900Y79070000D02*
X39323900Y79070000D01*
X38273900Y78530000D02*
X38273900Y79070000D01*
X39323900Y79070000D02*
X39323900Y78530000D01*
X39323900Y78530000D02*
X38273900Y78530000D01*
%TO.C,C9*%
X22030000Y62250000D02*
X23030000Y62250000D01*
X22030000Y61750000D02*
X22030000Y62250000D01*
X23030000Y62250000D02*
X23030000Y61750000D01*
X23030000Y61750000D02*
X22030000Y61750000D01*
%TO.C,D3*%
X52598900Y46300000D02*
X53398900Y46300000D01*
X52598900Y45700000D02*
X52598900Y46300000D01*
X52848900Y46200000D02*
X52848900Y45800000D01*
X52848900Y46000000D02*
X52748900Y46000000D01*
X52848900Y45800000D02*
X53148900Y46000000D01*
X53148900Y46200000D02*
X53148900Y45800000D01*
X53148900Y46000000D02*
X52848900Y46200000D01*
X53148900Y46000000D02*
X53248900Y46000000D01*
X53398900Y46300000D02*
X53398900Y45700000D01*
X53398900Y45700000D02*
X52598900Y45700000D01*
%TO.C,C27*%
X28642400Y53584200D02*
X29142400Y53584200D01*
X28642400Y52584200D02*
X28642400Y53584200D01*
X29142400Y53584200D02*
X29142400Y52584200D01*
X29142400Y52584200D02*
X28642400Y52584200D01*
%TO.C,R15*%
X47223900Y19270000D02*
X48273900Y19270000D01*
X47223900Y18730000D02*
X47223900Y19270000D01*
X48273900Y19270000D02*
X48273900Y18730000D01*
X48273900Y18730000D02*
X47223900Y18730000D01*
%TO.C,C21*%
X15998900Y29250000D02*
X16998900Y29250000D01*
X15998900Y28750000D02*
X15998900Y29250000D01*
X16998900Y29250000D02*
X16998900Y28750000D01*
X16998900Y28750000D02*
X15998900Y28750000D01*
%TO.C,J1*%
X51973900Y68187500D02*
X51973900Y77387500D01*
X62423900Y77387500D02*
X51973900Y77387500D01*
X62423900Y68187500D02*
X51973900Y68187500D01*
X62423900Y68187500D02*
X62423900Y77387500D01*
%TO.C,C8*%
X40828400Y66893600D02*
X42428400Y66893600D01*
X40828400Y66093600D02*
X40828400Y66893600D01*
X42428400Y66893600D02*
X42428400Y66093600D01*
X42428400Y66093600D02*
X40828400Y66093600D01*
%TO.C,C22*%
X37469000Y27771400D02*
X37969000Y27771400D01*
X37469000Y26771400D02*
X37469000Y27771400D01*
X37969000Y27771400D02*
X37969000Y26771400D01*
X37969000Y26771400D02*
X37469000Y26771400D01*
%TO.C,C11*%
X40935800Y54565400D02*
X42535800Y54565400D01*
X40935800Y53765400D02*
X40935800Y54565400D01*
X42535800Y54565400D02*
X42535800Y53765400D01*
X42535800Y53765400D02*
X40935800Y53765400D01*
%TO.C,IC11*%
X12002000Y50977400D02*
X12002000Y48352400D01*
X12002000Y50977400D02*
X12402000Y51402400D01*
X13652000Y51402400D02*
X12402000Y51402400D01*
X13652000Y51402400D02*
X13652000Y48352400D01*
X13652000Y48352400D02*
X12002000Y48352400D01*
%TO.C,C25*%
X31697400Y52554400D02*
X32697400Y52554400D01*
X31697400Y52054400D02*
X31697400Y52554400D01*
X32697400Y52554400D02*
X32697400Y52054400D01*
X32697400Y52054400D02*
X31697400Y52054400D01*
%TO.C,IC4*%
X12573900Y38067400D02*
X14223900Y38067400D01*
X12573900Y35017400D02*
X12573900Y38067400D01*
X12573900Y35017400D02*
X13823900Y35017400D01*
X14223900Y35442400D02*
X13823900Y35017400D01*
X14223900Y35442400D02*
X14223900Y38067400D01*
%TO.C,C26*%
X37790600Y45549200D02*
X38290600Y45549200D01*
X37790600Y44549200D02*
X37790600Y45549200D01*
X38290600Y45549200D02*
X38290600Y44549200D01*
X38290600Y44549200D02*
X37790600Y44549200D01*
%TO.C,C10*%
X40808800Y63684000D02*
X42408800Y63684000D01*
X40808800Y62884000D02*
X40808800Y63684000D01*
X42408800Y63684000D02*
X42408800Y62884000D01*
X42408800Y62884000D02*
X40808800Y62884000D01*
%TO.C,STATE0*%
X21808000Y57771400D02*
X21808000Y56171400D01*
X21808000Y56171400D02*
X22608000Y56171400D01*
X22308000Y57771400D02*
X21808000Y57771400D01*
X22608000Y57471400D02*
X22308000Y57771400D01*
X22608000Y56171400D02*
X22608000Y57471400D01*
%TO.C,IC17*%
X21081000Y26065400D02*
X21081000Y27715400D01*
X23706000Y27715400D02*
X21081000Y27715400D01*
X23706000Y27715400D02*
X24131000Y27315400D01*
X24131000Y26065400D02*
X21081000Y26065400D01*
X24131000Y26065400D02*
X24131000Y27315400D01*
%TO.C,C34*%
X11998900Y75515946D02*
X12998900Y75515946D01*
X11998900Y75015946D02*
X11998900Y75515946D01*
X12998900Y75515946D02*
X12998900Y75015946D01*
X12998900Y75015946D02*
X11998900Y75015946D01*
%TO.C,R12*%
X16724800Y36556400D02*
X17264800Y36556400D01*
X16724800Y35506400D02*
X16724800Y36556400D01*
X17264800Y36556400D02*
X17264800Y35506400D01*
X17264800Y35506400D02*
X16724800Y35506400D01*
%TO.C,C3*%
X41798900Y36055000D02*
X42798900Y36055000D01*
X41798900Y35555000D02*
X41798900Y36055000D01*
X42798900Y36055000D02*
X42798900Y35555000D01*
X42798900Y35555000D02*
X41798900Y35555000D01*
%TO.C,IC3*%
X40235000Y59410400D02*
X42735000Y59410400D01*
X40235000Y57810400D02*
X40235000Y59410400D01*
X42735000Y59410400D02*
X43135000Y59010400D01*
X43135000Y59010400D02*
X43135000Y57810400D01*
X43135000Y57810400D02*
X40235000Y57810400D01*
%TO.C,X10*%
X5200000Y30182400D02*
X5200000Y22632400D01*
X6550000Y30182400D02*
X200000Y30182400D01*
X200000Y22582400D01*
X6550000Y22582400D01*
X6550000Y30182400D01*
%TO.C,C38*%
X10620800Y36700000D02*
X11120800Y36700000D01*
X10620800Y35700000D02*
X10620800Y36700000D01*
X11120800Y36700000D02*
X11120800Y35700000D01*
X11120800Y35700000D02*
X10620800Y35700000D01*
%TO.C,R34*%
X34380150Y60392200D02*
X35430150Y60392200D01*
X34380150Y59852200D02*
X34380150Y60392200D01*
X35430150Y60392200D02*
X35430150Y59852200D01*
X35430150Y59852200D02*
X34380150Y59852200D01*
%TO.C,C4*%
X33048900Y71400000D02*
X33548900Y71400000D01*
X33048900Y70400000D02*
X33048900Y71400000D01*
X33548900Y71400000D02*
X33548900Y70400000D01*
X33548900Y70400000D02*
X33048900Y70400000D01*
%TO.C,R18*%
X27626300Y75703207D02*
X28166300Y75703207D01*
X27626300Y74653207D02*
X27626300Y75703207D01*
X28166300Y75703207D02*
X28166300Y74653207D01*
X28166300Y74653207D02*
X27626300Y74653207D01*
%TO.C,C7*%
X29522900Y75698207D02*
X30022900Y75698207D01*
X29522900Y74698207D02*
X29522900Y75698207D01*
X30022900Y75698207D02*
X30022900Y74698207D01*
X30022900Y74698207D02*
X29522900Y74698207D01*
%TO.C,R6*%
X16343800Y44938400D02*
X16883800Y44938400D01*
X16343800Y43888400D02*
X16343800Y44938400D01*
X16883800Y44938400D02*
X16883800Y43888400D01*
X16883800Y43888400D02*
X16343800Y43888400D01*
%TO.C,C6*%
X33048900Y69100000D02*
X33548900Y69100000D01*
X33048900Y68100000D02*
X33048900Y69100000D01*
X33548900Y69100000D02*
X33548900Y68100000D01*
X33548900Y68100000D02*
X33048900Y68100000D01*
%TO.C,R23*%
X12023900Y19970000D02*
X13073900Y19970000D01*
X12023900Y19430000D02*
X12023900Y19970000D01*
X13073900Y19970000D02*
X13073900Y19430000D01*
X13073900Y19430000D02*
X12023900Y19430000D01*
%TO.C,C35*%
X43998900Y18250000D02*
X44998900Y18250000D01*
X43998900Y17750000D02*
X43998900Y18250000D01*
X44998900Y18250000D02*
X44998900Y17750000D01*
X44998900Y17750000D02*
X43998900Y17750000D01*
%TO.C,IC19*%
X43013900Y12775000D02*
X44663900Y12775000D01*
X43013900Y9725000D02*
X43013900Y12775000D01*
X43013900Y9725000D02*
X44263900Y9725000D01*
X44663900Y10150000D02*
X44263900Y9725000D01*
X44663900Y10150000D02*
X44663900Y12775000D01*
%TO.C,R5*%
X49473900Y65020000D02*
X50523900Y65020000D01*
X49473900Y64480000D02*
X49473900Y65020000D01*
X50523900Y65020000D02*
X50523900Y64480000D01*
X50523900Y64480000D02*
X49473900Y64480000D01*
%TO.C,R1*%
X19940000Y57775000D02*
X20480000Y57775000D01*
X19940000Y56725000D02*
X19940000Y57775000D01*
X20480000Y57775000D02*
X20480000Y56725000D01*
X20480000Y56725000D02*
X19940000Y56725000D01*
%TO.C,J3*%
X49513900Y55700000D02*
X49513900Y49300000D01*
X49513900Y49300000D02*
X62313900Y49300000D01*
X61213900Y54100000D02*
X62313900Y54100000D01*
X61213900Y50900000D02*
X61213900Y54100000D01*
X61213900Y50900000D02*
X62313900Y50900000D01*
X62313900Y55700000D02*
X49513900Y55700000D01*
X62313900Y54100000D02*
X62313900Y55700000D01*
X62313900Y49300000D02*
X62313900Y50900000D01*
D13*
X59613900Y54850000D02*
G75*
G02*
X59113900Y54850000I-250000J0D01*
G01*
X59113900Y54850000D02*
G75*
G02*
X59613900Y54850000I250000J0D01*
G01*
D18*
%TO.C,X5*%
X5200000Y45435400D02*
X5200000Y32785400D01*
X6550000Y45435400D02*
X200000Y45435400D01*
X200000Y32735400D01*
X6550000Y32735400D01*
X6550000Y45435400D01*
%TO.C,C5*%
X25748900Y75698207D02*
X26248900Y75698207D01*
X25748900Y74698207D02*
X25748900Y75698207D01*
X26248900Y75698207D02*
X26248900Y74698207D01*
X26248900Y74698207D02*
X25748900Y74698207D01*
%TO.C,IC20*%
X43013900Y16350000D02*
X43013900Y13725000D01*
X43013900Y16350000D02*
X43413900Y16775000D01*
X44663900Y16775000D02*
X43413900Y16775000D01*
X44663900Y16775000D02*
X44663900Y13725000D01*
X44663900Y13725000D02*
X43013900Y13725000D01*
%TO.C,C12*%
X41227200Y51811200D02*
X42227200Y51811200D01*
X41227200Y51311200D02*
X41227200Y51811200D01*
X42227200Y51811200D02*
X42227200Y51311200D01*
X42227200Y51311200D02*
X41227200Y51311200D01*
%TO.C,C19*%
X17383900Y21044000D02*
X18383900Y21044000D01*
X17383900Y20544000D02*
X17383900Y21044000D01*
X18383900Y21044000D02*
X18383900Y20544000D01*
X18383900Y20544000D02*
X17383900Y20544000D01*
%TO.C,IC14*%
X16473900Y13040000D02*
X16473900Y10415000D01*
X16473900Y13040000D02*
X16873900Y13465000D01*
X18123900Y13465000D02*
X16873900Y13465000D01*
X18123900Y13465000D02*
X18123900Y10415000D01*
X18123900Y10415000D02*
X16473900Y10415000D01*
%TO.C,C37*%
X46103900Y35905000D02*
X47103900Y35905000D01*
X46103900Y35405000D02*
X46103900Y35905000D01*
X47103900Y35905000D02*
X47103900Y35405000D01*
X47103900Y35405000D02*
X46103900Y35405000D01*
%TO.C,R16*%
X11060856Y29770000D02*
X12110856Y29770000D01*
X11060856Y29230000D02*
X11060856Y29770000D01*
X12110856Y29770000D02*
X12110856Y29230000D01*
X12110856Y29230000D02*
X11060856Y29230000D01*
%TO.C,IC21*%
X10923900Y73765946D02*
X10923900Y71140946D01*
X10923900Y73765946D02*
X11323900Y74190946D01*
X12573900Y74190946D02*
X11323900Y74190946D01*
X12573900Y74190946D02*
X12573900Y71140946D01*
X12573900Y71140946D02*
X10923900Y71140946D01*
%TO.C,X9*%
X5200000Y20032400D02*
X5200000Y7382400D01*
X6550000Y20032400D02*
X200000Y20032400D01*
X200000Y7332400D01*
X6550000Y7332400D01*
X6550000Y20032400D01*
%TO.C,D8*%
X52998900Y26500000D02*
X53798900Y26500000D01*
X52998900Y25900000D02*
X52998900Y26500000D01*
X53248900Y26400000D02*
X53248900Y26000000D01*
X53248900Y26200000D02*
X53148900Y26200000D01*
X53248900Y26000000D02*
X53548900Y26200000D01*
X53548900Y26400000D02*
X53548900Y26000000D01*
X53548900Y26200000D02*
X53248900Y26400000D01*
X53548900Y26200000D02*
X53648900Y26200000D01*
X53798900Y26500000D02*
X53798900Y25900000D01*
X53798900Y25900000D02*
X52998900Y25900000D01*
%TO.C,C28*%
X30238800Y34114000D02*
X30738800Y34114000D01*
X30238800Y33114000D02*
X30238800Y34114000D01*
X30738800Y34114000D02*
X30738800Y33114000D01*
X30738800Y33114000D02*
X30238800Y33114000D01*
%TO.C,R26*%
X34728900Y73125000D02*
X35268900Y73125000D01*
X34728900Y72075000D02*
X34728900Y73125000D01*
X35268900Y73125000D02*
X35268900Y72075000D01*
X35268900Y72075000D02*
X34728900Y72075000D01*
%TO.C,R13*%
X16724800Y40429900D02*
X17264800Y40429900D01*
X16724800Y39379900D02*
X16724800Y40429900D01*
X17264800Y40429900D02*
X17264800Y39379900D01*
X17264800Y39379900D02*
X16724800Y39379900D01*
%TO.C,X1*%
X52898900Y5675000D02*
X63398900Y5675000D01*
X63398900Y24775000D01*
X52898900Y24775000D01*
X52898900Y5675000D01*
%TO.C,L2*%
X40411200Y48923000D02*
X42411200Y48923000D01*
X40411200Y47673000D02*
X40411200Y48923000D01*
X42411200Y48923000D02*
X42411200Y47673000D01*
X42411200Y47673000D02*
X40411200Y47673000D01*
%TO.C,X2*%
X5200000Y60543400D02*
X5200000Y47893400D01*
X6550000Y60543400D02*
X200000Y60543400D01*
X200000Y47843400D01*
X6550000Y47843400D01*
X6550000Y60543400D01*
%TO.C,C39*%
X8298900Y33900000D02*
X9098900Y33900000D01*
X8298900Y32300000D02*
X8298900Y33900000D01*
X9098900Y33900000D02*
X9098900Y32300000D01*
X9098900Y32300000D02*
X8298900Y32300000D01*
%TO.C,Q1*%
X47548900Y42020000D02*
X47548900Y43780000D01*
X49998900Y43780000D02*
X47548900Y43780000D01*
X49998900Y43780000D02*
X50448900Y43330000D01*
X50448900Y42020000D02*
X47548900Y42020000D01*
X50448900Y42020000D02*
X50448900Y43330000D01*
%TO.C,R11*%
X34019000Y30081400D02*
X35069000Y30081400D01*
X34019000Y29541400D02*
X34019000Y30081400D01*
X35069000Y30081400D02*
X35069000Y29541400D01*
X35069000Y29541400D02*
X34019000Y29541400D01*
%TO.C,C13*%
X37894800Y61168250D02*
X38394800Y61168250D01*
X37894800Y60168250D02*
X37894800Y61168250D01*
X38394800Y61168250D02*
X38394800Y60168250D01*
X38394800Y60168250D02*
X37894800Y60168250D01*
%TO.C,R10*%
X27415000Y29954400D02*
X28465000Y29954400D01*
X27415000Y29414400D02*
X27415000Y29954400D01*
X28465000Y29954400D02*
X28465000Y29414400D01*
X28465000Y29414400D02*
X27415000Y29414400D01*
%TD*%
D20*
X60423900Y0D02*
G75*
G02*
X61923900Y1500000I1500000J0D01*
G01*
X1500000Y0D02*
X60423900Y0D01*
X0Y1500000D02*
G75*
G02*
X1500000Y0I0J-1500000D01*
G01*
X1500000Y84400000D02*
G75*
G02*
X0Y82900000I-1500000J0D01*
G01*
D21*
X61923900Y1500000D02*
X61923900Y82900000D01*
D20*
X60423900Y84400000D02*
X1500000Y84400000D01*
X0Y82900000D02*
X0Y1500000D01*
X61923900Y82900000D02*
G75*
G02*
X60423900Y84400000I0J1500000D01*
G01*
M02*
