%TF.GenerationSoftware,KiCad,Pcbnew,9.0.0*%
%TF.CreationDate,2025-08-15T00:34:50+01:00*%
%TF.ProjectId,FastStepper,46617374-5374-4657-9070-65722e6b6963,rev?*%
%TF.SameCoordinates,PX71f712cPY8e18f40*%
%TF.FileFunction,Soldermask,Bot*%
%TF.FilePolarity,Negative*%
%FSLAX46Y46*%
G04 Gerber Fmt 4.6, Leading zero omitted, Abs format (unit mm)*
G04 Created by KiCad (PCBNEW 9.0.0) date 2025-08-15 00:34:50*
%MOMM*%
%LPD*%
G01*
G04 APERTURE LIST*
G04 Aperture macros list*
%AMRoundRect*
0 Rectangle with rounded corners*
0 $1 Rounding radius*
0 $2 $3 $4 $5 $6 $7 $8 $9 X,Y pos of 4 corners*
0 Add a 4 corners polygon primitive as box body*
4,1,4,$2,$3,$4,$5,$6,$7,$8,$9,$2,$3,0*
0 Add four circle primitives for the rounded corners*
1,1,$1+$1,$2,$3*
1,1,$1+$1,$4,$5*
1,1,$1+$1,$6,$7*
1,1,$1+$1,$8,$9*
0 Add four rect primitives between the rounded corners*
20,1,$1+$1,$2,$3,$4,$5,0*
20,1,$1+$1,$4,$5,$6,$7,0*
20,1,$1+$1,$6,$7,$8,$9,0*
20,1,$1+$1,$8,$9,$2,$3,0*%
G04 Aperture macros list end*
%ADD10O,3.000000X1.500000*%
%ADD11C,2.500000*%
%ADD12R,1.700000X1.700000*%
%ADD13C,1.700000*%
%ADD14C,1.000000*%
%ADD15C,1.450000*%
%ADD16C,3.500000*%
%ADD17C,0.650000*%
%ADD18O,0.650000X0.950000*%
%ADD19O,1.600000X1.000000*%
%ADD20O,1.350000X0.900000*%
%ADD21O,4.267200X2.133600*%
%ADD22RoundRect,0.135000X-0.185000X0.135000X-0.185000X-0.135000X0.185000X-0.135000X0.185000X0.135000X0*%
%ADD23RoundRect,0.140000X-0.140000X-0.170000X0.140000X-0.170000X0.140000X0.170000X-0.140000X0.170000X0*%
%ADD24RoundRect,0.150000X0.150000X-0.587500X0.150000X0.587500X-0.150000X0.587500X-0.150000X-0.587500X0*%
%ADD25RoundRect,0.135000X-0.135000X-0.185000X0.135000X-0.185000X0.135000X0.185000X-0.135000X0.185000X0*%
%ADD26RoundRect,0.225000X0.250000X-0.225000X0.250000X0.225000X-0.250000X0.225000X-0.250000X-0.225000X0*%
%ADD27RoundRect,0.140000X-0.170000X0.140000X-0.170000X-0.140000X0.170000X-0.140000X0.170000X0.140000X0*%
%ADD28RoundRect,0.135000X0.185000X-0.135000X0.185000X0.135000X-0.185000X0.135000X-0.185000X-0.135000X0*%
%ADD29RoundRect,0.150000X-0.512500X-0.150000X0.512500X-0.150000X0.512500X0.150000X-0.512500X0.150000X0*%
%ADD30RoundRect,0.140000X0.170000X-0.140000X0.170000X0.140000X-0.170000X0.140000X-0.170000X-0.140000X0*%
%ADD31RoundRect,0.150000X0.587500X0.150000X-0.587500X0.150000X-0.587500X-0.150000X0.587500X-0.150000X0*%
%ADD32RoundRect,0.140000X0.140000X0.170000X-0.140000X0.170000X-0.140000X-0.170000X0.140000X-0.170000X0*%
%ADD33RoundRect,0.250000X0.262500X0.450000X-0.262500X0.450000X-0.262500X-0.450000X0.262500X-0.450000X0*%
%TA.AperFunction,Profile*%
%ADD34C,0.152400*%
%TD*%
%TA.AperFunction,Profile*%
%ADD35C,0.150000*%
%TD*%
G04 APERTURE END LIST*
D10*
%TO.C,X3*%
X3200000Y77933400D03*
X3200000Y75393400D03*
X3200000Y72853400D03*
%TD*%
D11*
%TO.C,J6*%
X31198900Y17400000D03*
%TD*%
D10*
%TO.C,X4*%
X3356000Y69131400D03*
X3356000Y66591400D03*
X3356000Y64051400D03*
%TD*%
D12*
%TO.C,SV2*%
X37748900Y52750000D03*
D13*
X35208900Y52750000D03*
X37748900Y55290000D03*
X35208900Y55290000D03*
X37748900Y57830000D03*
X35208900Y57830000D03*
%TD*%
D14*
%TO.C,TP4*%
X20098900Y50300000D03*
%TD*%
D11*
%TO.C,J4*%
X20998900Y77600000D03*
%TD*%
D15*
%TO.C,J2*%
X51733666Y32700000D03*
%TD*%
D14*
%TO.C,TP10*%
X15798900Y68700000D03*
%TD*%
%TO.C,TP11*%
X36998900Y32250000D03*
%TD*%
%TO.C,TP13*%
X39198900Y65200000D03*
%TD*%
D16*
%TO.C,SC1*%
X11898900Y81500000D03*
%TD*%
D17*
%TO.C,J1*%
X52833900Y69187500D03*
D18*
X52833900Y76387500D03*
D19*
X60033900Y68297500D03*
X54083900Y68657500D03*
D20*
X54083900Y76917500D03*
D19*
X60033900Y77277500D03*
%TD*%
D16*
%TO.C,SC1*%
X55981414Y3000000D03*
%TD*%
D14*
%TO.C,TP6*%
X18525000Y43243400D03*
%TD*%
D16*
%TO.C,SC1*%
X56248900Y41400000D03*
%TD*%
D10*
%TO.C,X10*%
X3400000Y28922400D03*
X3400000Y26382400D03*
X3400000Y23842400D03*
%TD*%
D16*
%TO.C,SC1*%
X11898900Y32400000D03*
%TD*%
D15*
%TO.C,J3*%
X51713900Y52500000D03*
%TD*%
D10*
%TO.C,X5*%
X3400000Y44165400D03*
X3400000Y41625400D03*
X3400000Y39085400D03*
X3400000Y36545400D03*
X3400000Y34005400D03*
%TD*%
%TO.C,X9*%
X3400000Y18762400D03*
X3400000Y16222400D03*
X3400000Y13682400D03*
X3400000Y11142400D03*
X3400000Y8602400D03*
%TD*%
D16*
%TO.C,SC1*%
X56248900Y81500000D03*
%TD*%
D14*
%TO.C,TP5*%
X19248900Y48250000D03*
%TD*%
D16*
%TO.C,SC1*%
X11898900Y3000000D03*
%TD*%
D21*
%TO.C,X1*%
X55348900Y8225000D03*
X55348900Y11725000D03*
X55348900Y15225000D03*
X55348900Y18725000D03*
X55348900Y22225000D03*
%TD*%
D14*
%TO.C,TP1*%
X44998900Y48900000D03*
%TD*%
D10*
%TO.C,X2*%
X3400000Y59273400D03*
X3400000Y56733400D03*
X3400000Y54193400D03*
X3400000Y51653400D03*
X3400000Y49113400D03*
%TD*%
D14*
%TO.C,TP8*%
X20794200Y36563200D03*
%TD*%
%TO.C,TP9*%
X32164000Y35273400D03*
%TD*%
D22*
%TO.C,R20*%
X10800000Y63929400D03*
X10800000Y62909400D03*
%TD*%
D23*
%TO.C,C23*%
X59498900Y73925000D03*
X60458900Y73925000D03*
%TD*%
D24*
%TO.C,D5*%
X50748900Y77662500D03*
X48848900Y77662500D03*
X49798900Y79537500D03*
%TD*%
D25*
%TO.C,R3*%
X59488900Y71187500D03*
X60508900Y71187500D03*
%TD*%
D22*
%TO.C,R19*%
X23000000Y66529400D03*
X23000000Y65509400D03*
%TD*%
%TO.C,R28*%
X57648900Y71360000D03*
X57648900Y70340000D03*
%TD*%
D26*
%TO.C,C15*%
X23700000Y55744400D03*
X23700000Y57294400D03*
%TD*%
D27*
%TO.C,C1*%
X17798000Y63247400D03*
X17798000Y62287400D03*
%TD*%
%TO.C,C42*%
X24900000Y66499400D03*
X24900000Y65539400D03*
%TD*%
D28*
%TO.C,R17*%
X18400000Y65509400D03*
X18400000Y66529400D03*
%TD*%
D24*
%TO.C,D4*%
X57648900Y73462500D03*
X55748900Y73462500D03*
X56698900Y75337500D03*
%TD*%
D29*
%TO.C,IC10*%
X12962500Y63369400D03*
X12962500Y64319400D03*
X12962500Y65269400D03*
X15237500Y65269400D03*
X15237500Y63369400D03*
%TD*%
D25*
%TO.C,R9*%
X26090000Y55619400D03*
X27110000Y55619400D03*
%TD*%
D22*
%TO.C,R21*%
X10800000Y67829400D03*
X10800000Y66809400D03*
%TD*%
D30*
%TO.C,C41*%
X20800000Y65539400D03*
X20800000Y66499400D03*
%TD*%
D31*
%TO.C,D6*%
X49736400Y73750000D03*
X49736400Y71850000D03*
X47861400Y72800000D03*
%TD*%
D27*
%TO.C,C16*%
X29000000Y45099400D03*
X29000000Y44139400D03*
%TD*%
D25*
%TO.C,R8*%
X8857000Y72815346D03*
X9877000Y72815346D03*
%TD*%
D22*
%TO.C,R7*%
X23024000Y53101400D03*
X23024000Y52081400D03*
%TD*%
D32*
%TO.C,C2*%
X60458900Y72556250D03*
X59498900Y72556250D03*
%TD*%
D28*
%TO.C,R29*%
X54398900Y74890000D03*
X54398900Y75910000D03*
%TD*%
%TO.C,R4*%
X24877200Y52086600D03*
X24877200Y53106600D03*
%TD*%
D33*
%TO.C,L3*%
X32812500Y45519400D03*
X30987500Y45519400D03*
%TD*%
D34*
X60423900Y0D02*
G75*
G02*
X61923900Y1500000I1500000J0D01*
G01*
X1500000Y0D02*
X60423900Y0D01*
X0Y1500000D02*
G75*
G02*
X1500000Y0I0J-1500000D01*
G01*
X1500000Y84400000D02*
G75*
G02*
X0Y82900000I-1500000J0D01*
G01*
D35*
X61923900Y1500000D02*
X61923900Y82900000D01*
D34*
X60423900Y84400000D02*
X1500000Y84400000D01*
X0Y82900000D02*
X0Y1500000D01*
X61923900Y82900000D02*
G75*
G02*
X60423900Y84400000I0J1500000D01*
G01*
M02*
