%TF.GenerationSoftware,KiCad,Pcbnew,9.0.2*%
%TF.CreationDate,2025-07-11T15:35:01+01:00*%
%TF.ProjectId,FastStepper,46617374-5374-4657-9070-65722e6b6963,rev?*%
%TF.SameCoordinates,PX71f712cPY8e18f40*%
%TF.FileFunction,Drillmap*%
%TF.FilePolarity,Positive*%
%FSLAX45Y45*%
G04 Gerber Fmt 4.5, Leading zero omitted, Abs format (unit mm)*
G04 Created by KiCad (PCBNEW 9.0.2) date 2025-07-11 15:35:01*
%MOMM*%
%LPD*%
G01*
G04 APERTURE LIST*
%ADD10C,0.152400*%
%ADD11C,0.150000*%
%ADD12C,0.200000*%
%ADD13C,0.100000*%
G04 APERTURE END LIST*
D10*
X6042390Y0D02*
G75*
G02*
X6192390Y150000I150000J0D01*
G01*
X150000Y0D02*
X6042390Y0D01*
X0Y150000D02*
G75*
G02*
X150000Y0I0J-150000D01*
G01*
X150000Y8440000D02*
G75*
G02*
X0Y8290000I-150000J0D01*
G01*
D11*
X6192390Y150000D02*
X6192390Y8290000D01*
D10*
X6042390Y8440000D02*
X150000Y8440000D01*
X0Y8290000D02*
X0Y150000D01*
X6192390Y8290000D02*
G75*
G02*
X6042390Y8440000I0J150000D01*
G01*
D12*
D13*
X5250890Y7671250D02*
X5315890Y7606250D01*
X5315890Y7671250D02*
X5250890Y7606250D01*
X5315890Y7623750D02*
X5315890Y7653750D01*
X5250890Y7653750D02*
G75*
G02*
X5315890Y7653750I32500J0D01*
G01*
X5250890Y7653750D02*
X5250890Y7623750D01*
X5250890Y7623750D02*
G75*
G03*
X5315890Y7623750I32500J0D01*
G01*
X5250890Y6951250D02*
X5315890Y6886250D01*
X5315890Y6951250D02*
X5250890Y6886250D01*
D11*
X5246390Y5250000D02*
G75*
G02*
X5096390Y5250000I-75000J0D01*
G01*
X5096390Y5250000D02*
G75*
G02*
X5246390Y5250000I75000J0D01*
G01*
X5248367Y3270000D02*
G75*
G02*
X5098367Y3270000I-75000J0D01*
G01*
X5098367Y3270000D02*
G75*
G02*
X5248367Y3270000I75000J0D01*
G01*
D12*
X253157Y-319104D02*
X253157Y-119104D01*
X253157Y-119104D02*
X300776Y-119104D01*
X300776Y-119104D02*
X329347Y-128628D01*
X329347Y-128628D02*
X348395Y-147675D01*
X348395Y-147675D02*
X357919Y-166723D01*
X357919Y-166723D02*
X367442Y-204818D01*
X367442Y-204818D02*
X367442Y-233389D01*
X367442Y-233389D02*
X357919Y-271485D01*
X357919Y-271485D02*
X348395Y-290532D01*
X348395Y-290532D02*
X329347Y-309580D01*
X329347Y-309580D02*
X300776Y-319104D01*
X300776Y-319104D02*
X253157Y-319104D01*
X453157Y-319104D02*
X453157Y-185770D01*
X453157Y-223866D02*
X462681Y-204818D01*
X462681Y-204818D02*
X472204Y-195294D01*
X472204Y-195294D02*
X491252Y-185770D01*
X491252Y-185770D02*
X510300Y-185770D01*
X576966Y-319104D02*
X576966Y-185770D01*
X576966Y-119104D02*
X567443Y-128628D01*
X567443Y-128628D02*
X576966Y-138151D01*
X576966Y-138151D02*
X586490Y-128628D01*
X586490Y-128628D02*
X576966Y-119104D01*
X576966Y-119104D02*
X576966Y-138151D01*
X700776Y-319104D02*
X681728Y-309580D01*
X681728Y-309580D02*
X672204Y-290532D01*
X672204Y-290532D02*
X672204Y-119104D01*
X805538Y-319104D02*
X786490Y-309580D01*
X786490Y-309580D02*
X776966Y-290532D01*
X776966Y-290532D02*
X776966Y-119104D01*
X1034109Y-319104D02*
X1034109Y-119104D01*
X1034109Y-119104D02*
X1100776Y-261961D01*
X1100776Y-261961D02*
X1167443Y-119104D01*
X1167443Y-119104D02*
X1167443Y-319104D01*
X1348395Y-319104D02*
X1348395Y-214342D01*
X1348395Y-214342D02*
X1338871Y-195294D01*
X1338871Y-195294D02*
X1319824Y-185770D01*
X1319824Y-185770D02*
X1281728Y-185770D01*
X1281728Y-185770D02*
X1262681Y-195294D01*
X1348395Y-309580D02*
X1329347Y-319104D01*
X1329347Y-319104D02*
X1281728Y-319104D01*
X1281728Y-319104D02*
X1262681Y-309580D01*
X1262681Y-309580D02*
X1253157Y-290532D01*
X1253157Y-290532D02*
X1253157Y-271485D01*
X1253157Y-271485D02*
X1262681Y-252437D01*
X1262681Y-252437D02*
X1281728Y-242913D01*
X1281728Y-242913D02*
X1329347Y-242913D01*
X1329347Y-242913D02*
X1348395Y-233389D01*
X1443633Y-185770D02*
X1443633Y-385770D01*
X1443633Y-195294D02*
X1462681Y-185770D01*
X1462681Y-185770D02*
X1500776Y-185770D01*
X1500776Y-185770D02*
X1519823Y-195294D01*
X1519823Y-195294D02*
X1529347Y-204818D01*
X1529347Y-204818D02*
X1538871Y-223866D01*
X1538871Y-223866D02*
X1538871Y-281009D01*
X1538871Y-281009D02*
X1529347Y-300056D01*
X1529347Y-300056D02*
X1519823Y-309580D01*
X1519823Y-309580D02*
X1500776Y-319104D01*
X1500776Y-319104D02*
X1462681Y-319104D01*
X1462681Y-319104D02*
X1443633Y-309580D01*
X1624585Y-300056D02*
X1634109Y-309580D01*
X1634109Y-309580D02*
X1624585Y-319104D01*
X1624585Y-319104D02*
X1615062Y-309580D01*
X1615062Y-309580D02*
X1624585Y-300056D01*
X1624585Y-300056D02*
X1624585Y-319104D01*
X1624585Y-195294D02*
X1634109Y-204818D01*
X1634109Y-204818D02*
X1624585Y-214342D01*
X1624585Y-214342D02*
X1615062Y-204818D01*
X1615062Y-204818D02*
X1624585Y-195294D01*
X1624585Y-195294D02*
X1624585Y-214342D01*
D13*
X-72620Y-615120D02*
X-7620Y-680120D01*
X-7620Y-615120D02*
X-72620Y-680120D01*
D12*
X291252Y-539104D02*
X310300Y-539104D01*
X310300Y-539104D02*
X329347Y-548628D01*
X329347Y-548628D02*
X338871Y-558151D01*
X338871Y-558151D02*
X348395Y-577199D01*
X348395Y-577199D02*
X357919Y-615294D01*
X357919Y-615294D02*
X357919Y-662913D01*
X357919Y-662913D02*
X348395Y-701008D01*
X348395Y-701008D02*
X338871Y-720056D01*
X338871Y-720056D02*
X329347Y-729580D01*
X329347Y-729580D02*
X310300Y-739104D01*
X310300Y-739104D02*
X291252Y-739104D01*
X291252Y-739104D02*
X272204Y-729580D01*
X272204Y-729580D02*
X262681Y-720056D01*
X262681Y-720056D02*
X253157Y-701008D01*
X253157Y-701008D02*
X243633Y-662913D01*
X243633Y-662913D02*
X243633Y-615294D01*
X243633Y-615294D02*
X253157Y-577199D01*
X253157Y-577199D02*
X262681Y-558151D01*
X262681Y-558151D02*
X272204Y-548628D01*
X272204Y-548628D02*
X291252Y-539104D01*
X443633Y-720056D02*
X453157Y-729580D01*
X453157Y-729580D02*
X443633Y-739104D01*
X443633Y-739104D02*
X434109Y-729580D01*
X434109Y-729580D02*
X443633Y-720056D01*
X443633Y-720056D02*
X443633Y-739104D01*
X624585Y-539104D02*
X586490Y-539104D01*
X586490Y-539104D02*
X567443Y-548628D01*
X567443Y-548628D02*
X557919Y-558151D01*
X557919Y-558151D02*
X538871Y-586723D01*
X538871Y-586723D02*
X529347Y-624818D01*
X529347Y-624818D02*
X529347Y-701008D01*
X529347Y-701008D02*
X538871Y-720056D01*
X538871Y-720056D02*
X548395Y-729580D01*
X548395Y-729580D02*
X567443Y-739104D01*
X567443Y-739104D02*
X605538Y-739104D01*
X605538Y-739104D02*
X624585Y-729580D01*
X624585Y-729580D02*
X634109Y-720056D01*
X634109Y-720056D02*
X643633Y-701008D01*
X643633Y-701008D02*
X643633Y-653390D01*
X643633Y-653390D02*
X634109Y-634342D01*
X634109Y-634342D02*
X624585Y-624818D01*
X624585Y-624818D02*
X605538Y-615294D01*
X605538Y-615294D02*
X567443Y-615294D01*
X567443Y-615294D02*
X548395Y-624818D01*
X548395Y-624818D02*
X538871Y-634342D01*
X538871Y-634342D02*
X529347Y-653390D01*
X824585Y-539104D02*
X729347Y-539104D01*
X729347Y-539104D02*
X719823Y-634342D01*
X719823Y-634342D02*
X729347Y-624818D01*
X729347Y-624818D02*
X748395Y-615294D01*
X748395Y-615294D02*
X796014Y-615294D01*
X796014Y-615294D02*
X815062Y-624818D01*
X815062Y-624818D02*
X824585Y-634342D01*
X824585Y-634342D02*
X834109Y-653390D01*
X834109Y-653390D02*
X834109Y-701008D01*
X834109Y-701008D02*
X824585Y-720056D01*
X824585Y-720056D02*
X815062Y-729580D01*
X815062Y-729580D02*
X796014Y-739104D01*
X796014Y-739104D02*
X748395Y-739104D01*
X748395Y-739104D02*
X729347Y-729580D01*
X729347Y-729580D02*
X719823Y-720056D01*
X957919Y-539104D02*
X976966Y-539104D01*
X976966Y-539104D02*
X996014Y-548628D01*
X996014Y-548628D02*
X1005538Y-558151D01*
X1005538Y-558151D02*
X1015062Y-577199D01*
X1015062Y-577199D02*
X1024585Y-615294D01*
X1024585Y-615294D02*
X1024585Y-662913D01*
X1024585Y-662913D02*
X1015062Y-701008D01*
X1015062Y-701008D02*
X1005538Y-720056D01*
X1005538Y-720056D02*
X996014Y-729580D01*
X996014Y-729580D02*
X976966Y-739104D01*
X976966Y-739104D02*
X957919Y-739104D01*
X957919Y-739104D02*
X938871Y-729580D01*
X938871Y-729580D02*
X929347Y-720056D01*
X929347Y-720056D02*
X919823Y-701008D01*
X919823Y-701008D02*
X910300Y-662913D01*
X910300Y-662913D02*
X910300Y-615294D01*
X910300Y-615294D02*
X919823Y-577199D01*
X919823Y-577199D02*
X929347Y-558151D01*
X929347Y-558151D02*
X938871Y-548628D01*
X938871Y-548628D02*
X957919Y-539104D01*
X1110300Y-739104D02*
X1110300Y-605770D01*
X1110300Y-624818D02*
X1119824Y-615294D01*
X1119824Y-615294D02*
X1138871Y-605770D01*
X1138871Y-605770D02*
X1167443Y-605770D01*
X1167443Y-605770D02*
X1186490Y-615294D01*
X1186490Y-615294D02*
X1196014Y-634342D01*
X1196014Y-634342D02*
X1196014Y-739104D01*
X1196014Y-634342D02*
X1205538Y-615294D01*
X1205538Y-615294D02*
X1224585Y-605770D01*
X1224585Y-605770D02*
X1253157Y-605770D01*
X1253157Y-605770D02*
X1272205Y-615294D01*
X1272205Y-615294D02*
X1281728Y-634342D01*
X1281728Y-634342D02*
X1281728Y-739104D01*
X1376966Y-739104D02*
X1376966Y-605770D01*
X1376966Y-624818D02*
X1386490Y-615294D01*
X1386490Y-615294D02*
X1405538Y-605770D01*
X1405538Y-605770D02*
X1434109Y-605770D01*
X1434109Y-605770D02*
X1453157Y-615294D01*
X1453157Y-615294D02*
X1462681Y-634342D01*
X1462681Y-634342D02*
X1462681Y-739104D01*
X1462681Y-634342D02*
X1472204Y-615294D01*
X1472204Y-615294D02*
X1491252Y-605770D01*
X1491252Y-605770D02*
X1519823Y-605770D01*
X1519823Y-605770D02*
X1538871Y-615294D01*
X1538871Y-615294D02*
X1548395Y-634342D01*
X1548395Y-634342D02*
X1548395Y-739104D01*
X1938871Y-529580D02*
X1767443Y-786723D01*
X2196014Y-539104D02*
X2215062Y-539104D01*
X2215062Y-539104D02*
X2234109Y-548628D01*
X2234109Y-548628D02*
X2243633Y-558151D01*
X2243633Y-558151D02*
X2253157Y-577199D01*
X2253157Y-577199D02*
X2262681Y-615294D01*
X2262681Y-615294D02*
X2262681Y-662913D01*
X2262681Y-662913D02*
X2253157Y-701008D01*
X2253157Y-701008D02*
X2243633Y-720056D01*
X2243633Y-720056D02*
X2234109Y-729580D01*
X2234109Y-729580D02*
X2215062Y-739104D01*
X2215062Y-739104D02*
X2196014Y-739104D01*
X2196014Y-739104D02*
X2176967Y-729580D01*
X2176967Y-729580D02*
X2167443Y-720056D01*
X2167443Y-720056D02*
X2157919Y-701008D01*
X2157919Y-701008D02*
X2148395Y-662913D01*
X2148395Y-662913D02*
X2148395Y-615294D01*
X2148395Y-615294D02*
X2157919Y-577199D01*
X2157919Y-577199D02*
X2167443Y-558151D01*
X2167443Y-558151D02*
X2176967Y-548628D01*
X2176967Y-548628D02*
X2196014Y-539104D01*
X2348395Y-720056D02*
X2357919Y-729580D01*
X2357919Y-729580D02*
X2348395Y-739104D01*
X2348395Y-739104D02*
X2338871Y-729580D01*
X2338871Y-729580D02*
X2348395Y-720056D01*
X2348395Y-720056D02*
X2348395Y-739104D01*
X2481728Y-539104D02*
X2500776Y-539104D01*
X2500776Y-539104D02*
X2519824Y-548628D01*
X2519824Y-548628D02*
X2529348Y-558151D01*
X2529348Y-558151D02*
X2538871Y-577199D01*
X2538871Y-577199D02*
X2548395Y-615294D01*
X2548395Y-615294D02*
X2548395Y-662913D01*
X2548395Y-662913D02*
X2538871Y-701008D01*
X2538871Y-701008D02*
X2529348Y-720056D01*
X2529348Y-720056D02*
X2519824Y-729580D01*
X2519824Y-729580D02*
X2500776Y-739104D01*
X2500776Y-739104D02*
X2481728Y-739104D01*
X2481728Y-739104D02*
X2462681Y-729580D01*
X2462681Y-729580D02*
X2453157Y-720056D01*
X2453157Y-720056D02*
X2443633Y-701008D01*
X2443633Y-701008D02*
X2434109Y-662913D01*
X2434109Y-662913D02*
X2434109Y-615294D01*
X2434109Y-615294D02*
X2443633Y-577199D01*
X2443633Y-577199D02*
X2453157Y-558151D01*
X2453157Y-558151D02*
X2462681Y-548628D01*
X2462681Y-548628D02*
X2481728Y-539104D01*
X2624586Y-558151D02*
X2634109Y-548628D01*
X2634109Y-548628D02*
X2653157Y-539104D01*
X2653157Y-539104D02*
X2700776Y-539104D01*
X2700776Y-539104D02*
X2719824Y-548628D01*
X2719824Y-548628D02*
X2729348Y-558151D01*
X2729348Y-558151D02*
X2738871Y-577199D01*
X2738871Y-577199D02*
X2738871Y-596247D01*
X2738871Y-596247D02*
X2729348Y-624818D01*
X2729348Y-624818D02*
X2615062Y-739104D01*
X2615062Y-739104D02*
X2738871Y-739104D01*
X2919824Y-539104D02*
X2824586Y-539104D01*
X2824586Y-539104D02*
X2815062Y-634342D01*
X2815062Y-634342D02*
X2824586Y-624818D01*
X2824586Y-624818D02*
X2843633Y-615294D01*
X2843633Y-615294D02*
X2891252Y-615294D01*
X2891252Y-615294D02*
X2910300Y-624818D01*
X2910300Y-624818D02*
X2919824Y-634342D01*
X2919824Y-634342D02*
X2929347Y-653390D01*
X2929347Y-653390D02*
X2929347Y-701008D01*
X2929347Y-701008D02*
X2919824Y-720056D01*
X2919824Y-720056D02*
X2910300Y-729580D01*
X2910300Y-729580D02*
X2891252Y-739104D01*
X2891252Y-739104D02*
X2843633Y-739104D01*
X2843633Y-739104D02*
X2824586Y-729580D01*
X2824586Y-729580D02*
X2815062Y-720056D01*
X3100776Y-539104D02*
X3062681Y-539104D01*
X3062681Y-539104D02*
X3043633Y-548628D01*
X3043633Y-548628D02*
X3034109Y-558151D01*
X3034109Y-558151D02*
X3015062Y-586723D01*
X3015062Y-586723D02*
X3005538Y-624818D01*
X3005538Y-624818D02*
X3005538Y-701008D01*
X3005538Y-701008D02*
X3015062Y-720056D01*
X3015062Y-720056D02*
X3024586Y-729580D01*
X3024586Y-729580D02*
X3043633Y-739104D01*
X3043633Y-739104D02*
X3081728Y-739104D01*
X3081728Y-739104D02*
X3100776Y-729580D01*
X3100776Y-729580D02*
X3110300Y-720056D01*
X3110300Y-720056D02*
X3119824Y-701008D01*
X3119824Y-701008D02*
X3119824Y-653390D01*
X3119824Y-653390D02*
X3110300Y-634342D01*
X3110300Y-634342D02*
X3100776Y-624818D01*
X3100776Y-624818D02*
X3081728Y-615294D01*
X3081728Y-615294D02*
X3043633Y-615294D01*
X3043633Y-615294D02*
X3024586Y-624818D01*
X3024586Y-624818D02*
X3015062Y-634342D01*
X3015062Y-634342D02*
X3005538Y-653390D01*
X3196014Y-539104D02*
X3196014Y-577199D01*
X3272205Y-539104D02*
X3272205Y-577199D01*
X3567443Y-815294D02*
X3557919Y-805770D01*
X3557919Y-805770D02*
X3538871Y-777199D01*
X3538871Y-777199D02*
X3529348Y-758151D01*
X3529348Y-758151D02*
X3519824Y-729580D01*
X3519824Y-729580D02*
X3510300Y-681961D01*
X3510300Y-681961D02*
X3510300Y-643866D01*
X3510300Y-643866D02*
X3519824Y-596247D01*
X3519824Y-596247D02*
X3529348Y-567675D01*
X3529348Y-567675D02*
X3538871Y-548628D01*
X3538871Y-548628D02*
X3557919Y-520056D01*
X3557919Y-520056D02*
X3567443Y-510532D01*
X3748395Y-739104D02*
X3634109Y-739104D01*
X3691252Y-739104D02*
X3691252Y-539104D01*
X3691252Y-539104D02*
X3672205Y-567675D01*
X3672205Y-567675D02*
X3653157Y-586723D01*
X3653157Y-586723D02*
X3634109Y-596247D01*
X3986490Y-739104D02*
X3986490Y-539104D01*
X4072205Y-739104D02*
X4072205Y-634342D01*
X4072205Y-634342D02*
X4062681Y-615294D01*
X4062681Y-615294D02*
X4043633Y-605770D01*
X4043633Y-605770D02*
X4015062Y-605770D01*
X4015062Y-605770D02*
X3996014Y-615294D01*
X3996014Y-615294D02*
X3986490Y-624818D01*
X4196014Y-739104D02*
X4176967Y-729580D01*
X4176967Y-729580D02*
X4167443Y-720056D01*
X4167443Y-720056D02*
X4157919Y-701008D01*
X4157919Y-701008D02*
X4157919Y-643866D01*
X4157919Y-643866D02*
X4167443Y-624818D01*
X4167443Y-624818D02*
X4176967Y-615294D01*
X4176967Y-615294D02*
X4196014Y-605770D01*
X4196014Y-605770D02*
X4224586Y-605770D01*
X4224586Y-605770D02*
X4243633Y-615294D01*
X4243633Y-615294D02*
X4253157Y-624818D01*
X4253157Y-624818D02*
X4262681Y-643866D01*
X4262681Y-643866D02*
X4262681Y-701008D01*
X4262681Y-701008D02*
X4253157Y-720056D01*
X4253157Y-720056D02*
X4243633Y-729580D01*
X4243633Y-729580D02*
X4224586Y-739104D01*
X4224586Y-739104D02*
X4196014Y-739104D01*
X4376967Y-739104D02*
X4357919Y-729580D01*
X4357919Y-729580D02*
X4348395Y-710532D01*
X4348395Y-710532D02*
X4348395Y-539104D01*
X4529348Y-729580D02*
X4510300Y-739104D01*
X4510300Y-739104D02*
X4472205Y-739104D01*
X4472205Y-739104D02*
X4453157Y-729580D01*
X4453157Y-729580D02*
X4443633Y-710532D01*
X4443633Y-710532D02*
X4443633Y-634342D01*
X4443633Y-634342D02*
X4453157Y-615294D01*
X4453157Y-615294D02*
X4472205Y-605770D01*
X4472205Y-605770D02*
X4510300Y-605770D01*
X4510300Y-605770D02*
X4529348Y-615294D01*
X4529348Y-615294D02*
X4538872Y-634342D01*
X4538872Y-634342D02*
X4538872Y-653390D01*
X4538872Y-653390D02*
X4443633Y-672437D01*
X4615062Y-729580D02*
X4634110Y-739104D01*
X4634110Y-739104D02*
X4672205Y-739104D01*
X4672205Y-739104D02*
X4691253Y-729580D01*
X4691253Y-729580D02*
X4700776Y-710532D01*
X4700776Y-710532D02*
X4700776Y-701008D01*
X4700776Y-701008D02*
X4691253Y-681961D01*
X4691253Y-681961D02*
X4672205Y-672437D01*
X4672205Y-672437D02*
X4643633Y-672437D01*
X4643633Y-672437D02*
X4624586Y-662913D01*
X4624586Y-662913D02*
X4615062Y-643866D01*
X4615062Y-643866D02*
X4615062Y-634342D01*
X4615062Y-634342D02*
X4624586Y-615294D01*
X4624586Y-615294D02*
X4643633Y-605770D01*
X4643633Y-605770D02*
X4672205Y-605770D01*
X4672205Y-605770D02*
X4691253Y-615294D01*
X4938872Y-662913D02*
X5091253Y-662913D01*
X5015062Y-739104D02*
X5015062Y-586723D01*
X5443634Y-739104D02*
X5329348Y-739104D01*
X5386491Y-739104D02*
X5386491Y-539104D01*
X5386491Y-539104D02*
X5367443Y-567675D01*
X5367443Y-567675D02*
X5348395Y-586723D01*
X5348395Y-586723D02*
X5329348Y-596247D01*
X5672205Y-729580D02*
X5691253Y-739104D01*
X5691253Y-739104D02*
X5729348Y-739104D01*
X5729348Y-739104D02*
X5748395Y-729580D01*
X5748395Y-729580D02*
X5757919Y-710532D01*
X5757919Y-710532D02*
X5757919Y-701008D01*
X5757919Y-701008D02*
X5748395Y-681961D01*
X5748395Y-681961D02*
X5729348Y-672437D01*
X5729348Y-672437D02*
X5700776Y-672437D01*
X5700776Y-672437D02*
X5681729Y-662913D01*
X5681729Y-662913D02*
X5672205Y-643866D01*
X5672205Y-643866D02*
X5672205Y-634342D01*
X5672205Y-634342D02*
X5681729Y-615294D01*
X5681729Y-615294D02*
X5700776Y-605770D01*
X5700776Y-605770D02*
X5729348Y-605770D01*
X5729348Y-605770D02*
X5748395Y-615294D01*
X5872205Y-739104D02*
X5853157Y-729580D01*
X5853157Y-729580D02*
X5843634Y-710532D01*
X5843634Y-710532D02*
X5843634Y-539104D01*
X5976967Y-739104D02*
X5957919Y-729580D01*
X5957919Y-729580D02*
X5948395Y-720056D01*
X5948395Y-720056D02*
X5938872Y-701008D01*
X5938872Y-701008D02*
X5938872Y-643866D01*
X5938872Y-643866D02*
X5948395Y-624818D01*
X5948395Y-624818D02*
X5957919Y-615294D01*
X5957919Y-615294D02*
X5976967Y-605770D01*
X5976967Y-605770D02*
X6005538Y-605770D01*
X6005538Y-605770D02*
X6024586Y-615294D01*
X6024586Y-615294D02*
X6034110Y-624818D01*
X6034110Y-624818D02*
X6043634Y-643866D01*
X6043634Y-643866D02*
X6043634Y-701008D01*
X6043634Y-701008D02*
X6034110Y-720056D01*
X6034110Y-720056D02*
X6024586Y-729580D01*
X6024586Y-729580D02*
X6005538Y-739104D01*
X6005538Y-739104D02*
X5976967Y-739104D01*
X6100776Y-605770D02*
X6176967Y-605770D01*
X6129348Y-539104D02*
X6129348Y-710532D01*
X6129348Y-710532D02*
X6138872Y-729580D01*
X6138872Y-729580D02*
X6157919Y-739104D01*
X6157919Y-739104D02*
X6176967Y-739104D01*
X6224586Y-815294D02*
X6234110Y-805770D01*
X6234110Y-805770D02*
X6253157Y-777199D01*
X6253157Y-777199D02*
X6262681Y-758151D01*
X6262681Y-758151D02*
X6272205Y-729580D01*
X6272205Y-729580D02*
X6281729Y-681961D01*
X6281729Y-681961D02*
X6281729Y-643866D01*
X6281729Y-643866D02*
X6272205Y-596247D01*
X6272205Y-596247D02*
X6262681Y-567675D01*
X6262681Y-567675D02*
X6253157Y-548628D01*
X6253157Y-548628D02*
X6234110Y-520056D01*
X6234110Y-520056D02*
X6224586Y-510532D01*
X6586491Y-815294D02*
X6576967Y-805770D01*
X6576967Y-805770D02*
X6557919Y-777199D01*
X6557919Y-777199D02*
X6548395Y-758151D01*
X6548395Y-758151D02*
X6538872Y-729580D01*
X6538872Y-729580D02*
X6529348Y-681961D01*
X6529348Y-681961D02*
X6529348Y-643866D01*
X6529348Y-643866D02*
X6538872Y-596247D01*
X6538872Y-596247D02*
X6548395Y-567675D01*
X6548395Y-567675D02*
X6557919Y-548628D01*
X6557919Y-548628D02*
X6576967Y-520056D01*
X6576967Y-520056D02*
X6586491Y-510532D01*
X6662681Y-605770D02*
X6662681Y-739104D01*
X6662681Y-624818D02*
X6672205Y-615294D01*
X6672205Y-615294D02*
X6691253Y-605770D01*
X6691253Y-605770D02*
X6719824Y-605770D01*
X6719824Y-605770D02*
X6738872Y-615294D01*
X6738872Y-615294D02*
X6748395Y-634342D01*
X6748395Y-634342D02*
X6748395Y-739104D01*
X6872205Y-739104D02*
X6853157Y-729580D01*
X6853157Y-729580D02*
X6843634Y-720056D01*
X6843634Y-720056D02*
X6834110Y-701008D01*
X6834110Y-701008D02*
X6834110Y-643866D01*
X6834110Y-643866D02*
X6843634Y-624818D01*
X6843634Y-624818D02*
X6853157Y-615294D01*
X6853157Y-615294D02*
X6872205Y-605770D01*
X6872205Y-605770D02*
X6900776Y-605770D01*
X6900776Y-605770D02*
X6919824Y-615294D01*
X6919824Y-615294D02*
X6929348Y-624818D01*
X6929348Y-624818D02*
X6938872Y-643866D01*
X6938872Y-643866D02*
X6938872Y-701008D01*
X6938872Y-701008D02*
X6929348Y-720056D01*
X6929348Y-720056D02*
X6919824Y-729580D01*
X6919824Y-729580D02*
X6900776Y-739104D01*
X6900776Y-739104D02*
X6872205Y-739104D01*
X6996015Y-605770D02*
X7072205Y-605770D01*
X7024586Y-539104D02*
X7024586Y-710532D01*
X7024586Y-710532D02*
X7034110Y-729580D01*
X7034110Y-729580D02*
X7053157Y-739104D01*
X7053157Y-739104D02*
X7072205Y-739104D01*
X7291253Y-605770D02*
X7291253Y-805770D01*
X7291253Y-615294D02*
X7310300Y-605770D01*
X7310300Y-605770D02*
X7348396Y-605770D01*
X7348396Y-605770D02*
X7367443Y-615294D01*
X7367443Y-615294D02*
X7376967Y-624818D01*
X7376967Y-624818D02*
X7386491Y-643866D01*
X7386491Y-643866D02*
X7386491Y-701008D01*
X7386491Y-701008D02*
X7376967Y-720056D01*
X7376967Y-720056D02*
X7367443Y-729580D01*
X7367443Y-729580D02*
X7348396Y-739104D01*
X7348396Y-739104D02*
X7310300Y-739104D01*
X7310300Y-739104D02*
X7291253Y-729580D01*
X7500776Y-739104D02*
X7481729Y-729580D01*
X7481729Y-729580D02*
X7472205Y-710532D01*
X7472205Y-710532D02*
X7472205Y-539104D01*
X7662681Y-739104D02*
X7662681Y-634342D01*
X7662681Y-634342D02*
X7653157Y-615294D01*
X7653157Y-615294D02*
X7634110Y-605770D01*
X7634110Y-605770D02*
X7596015Y-605770D01*
X7596015Y-605770D02*
X7576967Y-615294D01*
X7662681Y-729580D02*
X7643634Y-739104D01*
X7643634Y-739104D02*
X7596015Y-739104D01*
X7596015Y-739104D02*
X7576967Y-729580D01*
X7576967Y-729580D02*
X7567443Y-710532D01*
X7567443Y-710532D02*
X7567443Y-691485D01*
X7567443Y-691485D02*
X7576967Y-672437D01*
X7576967Y-672437D02*
X7596015Y-662913D01*
X7596015Y-662913D02*
X7643634Y-662913D01*
X7643634Y-662913D02*
X7662681Y-653390D01*
X7729348Y-605770D02*
X7805538Y-605770D01*
X7757919Y-539104D02*
X7757919Y-710532D01*
X7757919Y-710532D02*
X7767443Y-729580D01*
X7767443Y-729580D02*
X7786491Y-739104D01*
X7786491Y-739104D02*
X7805538Y-739104D01*
X7948396Y-729580D02*
X7929348Y-739104D01*
X7929348Y-739104D02*
X7891253Y-739104D01*
X7891253Y-739104D02*
X7872205Y-729580D01*
X7872205Y-729580D02*
X7862681Y-710532D01*
X7862681Y-710532D02*
X7862681Y-634342D01*
X7862681Y-634342D02*
X7872205Y-615294D01*
X7872205Y-615294D02*
X7891253Y-605770D01*
X7891253Y-605770D02*
X7929348Y-605770D01*
X7929348Y-605770D02*
X7948396Y-615294D01*
X7948396Y-615294D02*
X7957919Y-634342D01*
X7957919Y-634342D02*
X7957919Y-653390D01*
X7957919Y-653390D02*
X7862681Y-672437D01*
X8129348Y-739104D02*
X8129348Y-539104D01*
X8129348Y-729580D02*
X8110300Y-739104D01*
X8110300Y-739104D02*
X8072205Y-739104D01*
X8072205Y-739104D02*
X8053157Y-729580D01*
X8053157Y-729580D02*
X8043634Y-720056D01*
X8043634Y-720056D02*
X8034110Y-701008D01*
X8034110Y-701008D02*
X8034110Y-643866D01*
X8034110Y-643866D02*
X8043634Y-624818D01*
X8043634Y-624818D02*
X8053157Y-615294D01*
X8053157Y-615294D02*
X8072205Y-605770D01*
X8072205Y-605770D02*
X8110300Y-605770D01*
X8110300Y-605770D02*
X8129348Y-615294D01*
X8205538Y-815294D02*
X8215062Y-805770D01*
X8215062Y-805770D02*
X8234110Y-777199D01*
X8234110Y-777199D02*
X8243634Y-758151D01*
X8243634Y-758151D02*
X8253157Y-729580D01*
X8253157Y-729580D02*
X8262681Y-681961D01*
X8262681Y-681961D02*
X8262681Y-643866D01*
X8262681Y-643866D02*
X8253157Y-596247D01*
X8253157Y-596247D02*
X8243634Y-567675D01*
X8243634Y-567675D02*
X8234110Y-548628D01*
X8234110Y-548628D02*
X8215062Y-520056D01*
X8215062Y-520056D02*
X8205538Y-510532D01*
D11*
X-7620Y-911620D02*
G75*
G02*
X-157620Y-911620I-75000J0D01*
G01*
X-157620Y-911620D02*
G75*
G02*
X-7620Y-911620I75000J0D01*
G01*
D12*
X357919Y-1003104D02*
X243633Y-1003104D01*
X300776Y-1003104D02*
X300776Y-803104D01*
X300776Y-803104D02*
X281728Y-831675D01*
X281728Y-831675D02*
X262681Y-850723D01*
X262681Y-850723D02*
X243633Y-860247D01*
X443633Y-984056D02*
X453157Y-993580D01*
X453157Y-993580D02*
X443633Y-1003104D01*
X443633Y-1003104D02*
X434109Y-993580D01*
X434109Y-993580D02*
X443633Y-984056D01*
X443633Y-984056D02*
X443633Y-1003104D01*
X634109Y-803104D02*
X538871Y-803104D01*
X538871Y-803104D02*
X529347Y-898342D01*
X529347Y-898342D02*
X538871Y-888818D01*
X538871Y-888818D02*
X557919Y-879294D01*
X557919Y-879294D02*
X605538Y-879294D01*
X605538Y-879294D02*
X624585Y-888818D01*
X624585Y-888818D02*
X634109Y-898342D01*
X634109Y-898342D02*
X643633Y-917389D01*
X643633Y-917389D02*
X643633Y-965008D01*
X643633Y-965008D02*
X634109Y-984056D01*
X634109Y-984056D02*
X624585Y-993580D01*
X624585Y-993580D02*
X605538Y-1003104D01*
X605538Y-1003104D02*
X557919Y-1003104D01*
X557919Y-1003104D02*
X538871Y-993580D01*
X538871Y-993580D02*
X529347Y-984056D01*
X767442Y-803104D02*
X786490Y-803104D01*
X786490Y-803104D02*
X805538Y-812628D01*
X805538Y-812628D02*
X815062Y-822151D01*
X815062Y-822151D02*
X824585Y-841199D01*
X824585Y-841199D02*
X834109Y-879294D01*
X834109Y-879294D02*
X834109Y-926913D01*
X834109Y-926913D02*
X824585Y-965008D01*
X824585Y-965008D02*
X815062Y-984056D01*
X815062Y-984056D02*
X805538Y-993580D01*
X805538Y-993580D02*
X786490Y-1003104D01*
X786490Y-1003104D02*
X767442Y-1003104D01*
X767442Y-1003104D02*
X748395Y-993580D01*
X748395Y-993580D02*
X738871Y-984056D01*
X738871Y-984056D02*
X729347Y-965008D01*
X729347Y-965008D02*
X719823Y-926913D01*
X719823Y-926913D02*
X719823Y-879294D01*
X719823Y-879294D02*
X729347Y-841199D01*
X729347Y-841199D02*
X738871Y-822151D01*
X738871Y-822151D02*
X748395Y-812628D01*
X748395Y-812628D02*
X767442Y-803104D01*
X957919Y-803104D02*
X976966Y-803104D01*
X976966Y-803104D02*
X996014Y-812628D01*
X996014Y-812628D02*
X1005538Y-822151D01*
X1005538Y-822151D02*
X1015062Y-841199D01*
X1015062Y-841199D02*
X1024585Y-879294D01*
X1024585Y-879294D02*
X1024585Y-926913D01*
X1024585Y-926913D02*
X1015062Y-965008D01*
X1015062Y-965008D02*
X1005538Y-984056D01*
X1005538Y-984056D02*
X996014Y-993580D01*
X996014Y-993580D02*
X976966Y-1003104D01*
X976966Y-1003104D02*
X957919Y-1003104D01*
X957919Y-1003104D02*
X938871Y-993580D01*
X938871Y-993580D02*
X929347Y-984056D01*
X929347Y-984056D02*
X919823Y-965008D01*
X919823Y-965008D02*
X910300Y-926913D01*
X910300Y-926913D02*
X910300Y-879294D01*
X910300Y-879294D02*
X919823Y-841199D01*
X919823Y-841199D02*
X929347Y-822151D01*
X929347Y-822151D02*
X938871Y-812628D01*
X938871Y-812628D02*
X957919Y-803104D01*
X1110300Y-1003104D02*
X1110300Y-869770D01*
X1110300Y-888818D02*
X1119824Y-879294D01*
X1119824Y-879294D02*
X1138871Y-869770D01*
X1138871Y-869770D02*
X1167443Y-869770D01*
X1167443Y-869770D02*
X1186490Y-879294D01*
X1186490Y-879294D02*
X1196014Y-898342D01*
X1196014Y-898342D02*
X1196014Y-1003104D01*
X1196014Y-898342D02*
X1205538Y-879294D01*
X1205538Y-879294D02*
X1224585Y-869770D01*
X1224585Y-869770D02*
X1253157Y-869770D01*
X1253157Y-869770D02*
X1272205Y-879294D01*
X1272205Y-879294D02*
X1281728Y-898342D01*
X1281728Y-898342D02*
X1281728Y-1003104D01*
X1376966Y-1003104D02*
X1376966Y-869770D01*
X1376966Y-888818D02*
X1386490Y-879294D01*
X1386490Y-879294D02*
X1405538Y-869770D01*
X1405538Y-869770D02*
X1434109Y-869770D01*
X1434109Y-869770D02*
X1453157Y-879294D01*
X1453157Y-879294D02*
X1462681Y-898342D01*
X1462681Y-898342D02*
X1462681Y-1003104D01*
X1462681Y-898342D02*
X1472204Y-879294D01*
X1472204Y-879294D02*
X1491252Y-869770D01*
X1491252Y-869770D02*
X1519823Y-869770D01*
X1519823Y-869770D02*
X1538871Y-879294D01*
X1538871Y-879294D02*
X1548395Y-898342D01*
X1548395Y-898342D02*
X1548395Y-1003104D01*
X1938871Y-793580D02*
X1767443Y-1050723D01*
X2196014Y-803104D02*
X2215062Y-803104D01*
X2215062Y-803104D02*
X2234109Y-812628D01*
X2234109Y-812628D02*
X2243633Y-822151D01*
X2243633Y-822151D02*
X2253157Y-841199D01*
X2253157Y-841199D02*
X2262681Y-879294D01*
X2262681Y-879294D02*
X2262681Y-926913D01*
X2262681Y-926913D02*
X2253157Y-965008D01*
X2253157Y-965008D02*
X2243633Y-984056D01*
X2243633Y-984056D02*
X2234109Y-993580D01*
X2234109Y-993580D02*
X2215062Y-1003104D01*
X2215062Y-1003104D02*
X2196014Y-1003104D01*
X2196014Y-1003104D02*
X2176967Y-993580D01*
X2176967Y-993580D02*
X2167443Y-984056D01*
X2167443Y-984056D02*
X2157919Y-965008D01*
X2157919Y-965008D02*
X2148395Y-926913D01*
X2148395Y-926913D02*
X2148395Y-879294D01*
X2148395Y-879294D02*
X2157919Y-841199D01*
X2157919Y-841199D02*
X2167443Y-822151D01*
X2167443Y-822151D02*
X2176967Y-812628D01*
X2176967Y-812628D02*
X2196014Y-803104D01*
X2348395Y-984056D02*
X2357919Y-993580D01*
X2357919Y-993580D02*
X2348395Y-1003104D01*
X2348395Y-1003104D02*
X2338871Y-993580D01*
X2338871Y-993580D02*
X2348395Y-984056D01*
X2348395Y-984056D02*
X2348395Y-1003104D01*
X2481728Y-803104D02*
X2500776Y-803104D01*
X2500776Y-803104D02*
X2519824Y-812628D01*
X2519824Y-812628D02*
X2529348Y-822151D01*
X2529348Y-822151D02*
X2538871Y-841199D01*
X2538871Y-841199D02*
X2548395Y-879294D01*
X2548395Y-879294D02*
X2548395Y-926913D01*
X2548395Y-926913D02*
X2538871Y-965008D01*
X2538871Y-965008D02*
X2529348Y-984056D01*
X2529348Y-984056D02*
X2519824Y-993580D01*
X2519824Y-993580D02*
X2500776Y-1003104D01*
X2500776Y-1003104D02*
X2481728Y-1003104D01*
X2481728Y-1003104D02*
X2462681Y-993580D01*
X2462681Y-993580D02*
X2453157Y-984056D01*
X2453157Y-984056D02*
X2443633Y-965008D01*
X2443633Y-965008D02*
X2434109Y-926913D01*
X2434109Y-926913D02*
X2434109Y-879294D01*
X2434109Y-879294D02*
X2443633Y-841199D01*
X2443633Y-841199D02*
X2453157Y-822151D01*
X2453157Y-822151D02*
X2462681Y-812628D01*
X2462681Y-812628D02*
X2481728Y-803104D01*
X2729348Y-803104D02*
X2634109Y-803104D01*
X2634109Y-803104D02*
X2624586Y-898342D01*
X2624586Y-898342D02*
X2634109Y-888818D01*
X2634109Y-888818D02*
X2653157Y-879294D01*
X2653157Y-879294D02*
X2700776Y-879294D01*
X2700776Y-879294D02*
X2719824Y-888818D01*
X2719824Y-888818D02*
X2729348Y-898342D01*
X2729348Y-898342D02*
X2738871Y-917389D01*
X2738871Y-917389D02*
X2738871Y-965008D01*
X2738871Y-965008D02*
X2729348Y-984056D01*
X2729348Y-984056D02*
X2719824Y-993580D01*
X2719824Y-993580D02*
X2700776Y-1003104D01*
X2700776Y-1003104D02*
X2653157Y-1003104D01*
X2653157Y-1003104D02*
X2634109Y-993580D01*
X2634109Y-993580D02*
X2624586Y-984056D01*
X2834109Y-1003104D02*
X2872205Y-1003104D01*
X2872205Y-1003104D02*
X2891252Y-993580D01*
X2891252Y-993580D02*
X2900776Y-984056D01*
X2900776Y-984056D02*
X2919824Y-955485D01*
X2919824Y-955485D02*
X2929347Y-917389D01*
X2929347Y-917389D02*
X2929347Y-841199D01*
X2929347Y-841199D02*
X2919824Y-822151D01*
X2919824Y-822151D02*
X2910300Y-812628D01*
X2910300Y-812628D02*
X2891252Y-803104D01*
X2891252Y-803104D02*
X2853157Y-803104D01*
X2853157Y-803104D02*
X2834109Y-812628D01*
X2834109Y-812628D02*
X2824586Y-822151D01*
X2824586Y-822151D02*
X2815062Y-841199D01*
X2815062Y-841199D02*
X2815062Y-888818D01*
X2815062Y-888818D02*
X2824586Y-907866D01*
X2824586Y-907866D02*
X2834109Y-917389D01*
X2834109Y-917389D02*
X2853157Y-926913D01*
X2853157Y-926913D02*
X2891252Y-926913D01*
X2891252Y-926913D02*
X2910300Y-917389D01*
X2910300Y-917389D02*
X2919824Y-907866D01*
X2919824Y-907866D02*
X2929347Y-888818D01*
X3119824Y-1003104D02*
X3005538Y-1003104D01*
X3062681Y-1003104D02*
X3062681Y-803104D01*
X3062681Y-803104D02*
X3043633Y-831675D01*
X3043633Y-831675D02*
X3024586Y-850723D01*
X3024586Y-850723D02*
X3005538Y-860247D01*
X3196014Y-803104D02*
X3196014Y-841199D01*
X3272205Y-803104D02*
X3272205Y-841199D01*
X3567443Y-1079294D02*
X3557919Y-1069770D01*
X3557919Y-1069770D02*
X3538871Y-1041199D01*
X3538871Y-1041199D02*
X3529348Y-1022151D01*
X3529348Y-1022151D02*
X3519824Y-993580D01*
X3519824Y-993580D02*
X3510300Y-945961D01*
X3510300Y-945961D02*
X3510300Y-907866D01*
X3510300Y-907866D02*
X3519824Y-860247D01*
X3519824Y-860247D02*
X3529348Y-831675D01*
X3529348Y-831675D02*
X3538871Y-812628D01*
X3538871Y-812628D02*
X3557919Y-784056D01*
X3557919Y-784056D02*
X3567443Y-774532D01*
X3634109Y-822151D02*
X3643633Y-812628D01*
X3643633Y-812628D02*
X3662681Y-803104D01*
X3662681Y-803104D02*
X3710300Y-803104D01*
X3710300Y-803104D02*
X3729348Y-812628D01*
X3729348Y-812628D02*
X3738871Y-822151D01*
X3738871Y-822151D02*
X3748395Y-841199D01*
X3748395Y-841199D02*
X3748395Y-860247D01*
X3748395Y-860247D02*
X3738871Y-888818D01*
X3738871Y-888818D02*
X3624586Y-1003104D01*
X3624586Y-1003104D02*
X3748395Y-1003104D01*
X3986490Y-1003104D02*
X3986490Y-803104D01*
X4072205Y-1003104D02*
X4072205Y-898342D01*
X4072205Y-898342D02*
X4062681Y-879294D01*
X4062681Y-879294D02*
X4043633Y-869770D01*
X4043633Y-869770D02*
X4015062Y-869770D01*
X4015062Y-869770D02*
X3996014Y-879294D01*
X3996014Y-879294D02*
X3986490Y-888818D01*
X4196014Y-1003104D02*
X4176967Y-993580D01*
X4176967Y-993580D02*
X4167443Y-984056D01*
X4167443Y-984056D02*
X4157919Y-965008D01*
X4157919Y-965008D02*
X4157919Y-907866D01*
X4157919Y-907866D02*
X4167443Y-888818D01*
X4167443Y-888818D02*
X4176967Y-879294D01*
X4176967Y-879294D02*
X4196014Y-869770D01*
X4196014Y-869770D02*
X4224586Y-869770D01*
X4224586Y-869770D02*
X4243633Y-879294D01*
X4243633Y-879294D02*
X4253157Y-888818D01*
X4253157Y-888818D02*
X4262681Y-907866D01*
X4262681Y-907866D02*
X4262681Y-965008D01*
X4262681Y-965008D02*
X4253157Y-984056D01*
X4253157Y-984056D02*
X4243633Y-993580D01*
X4243633Y-993580D02*
X4224586Y-1003104D01*
X4224586Y-1003104D02*
X4196014Y-1003104D01*
X4376967Y-1003104D02*
X4357919Y-993580D01*
X4357919Y-993580D02*
X4348395Y-974532D01*
X4348395Y-974532D02*
X4348395Y-803104D01*
X4529348Y-993580D02*
X4510300Y-1003104D01*
X4510300Y-1003104D02*
X4472205Y-1003104D01*
X4472205Y-1003104D02*
X4453157Y-993580D01*
X4453157Y-993580D02*
X4443633Y-974532D01*
X4443633Y-974532D02*
X4443633Y-898342D01*
X4443633Y-898342D02*
X4453157Y-879294D01*
X4453157Y-879294D02*
X4472205Y-869770D01*
X4472205Y-869770D02*
X4510300Y-869770D01*
X4510300Y-869770D02*
X4529348Y-879294D01*
X4529348Y-879294D02*
X4538872Y-898342D01*
X4538872Y-898342D02*
X4538872Y-917389D01*
X4538872Y-917389D02*
X4443633Y-936437D01*
X4615062Y-993580D02*
X4634110Y-1003104D01*
X4634110Y-1003104D02*
X4672205Y-1003104D01*
X4672205Y-1003104D02*
X4691253Y-993580D01*
X4691253Y-993580D02*
X4700776Y-974532D01*
X4700776Y-974532D02*
X4700776Y-965008D01*
X4700776Y-965008D02*
X4691253Y-945961D01*
X4691253Y-945961D02*
X4672205Y-936437D01*
X4672205Y-936437D02*
X4643633Y-936437D01*
X4643633Y-936437D02*
X4624586Y-926913D01*
X4624586Y-926913D02*
X4615062Y-907866D01*
X4615062Y-907866D02*
X4615062Y-898342D01*
X4615062Y-898342D02*
X4624586Y-879294D01*
X4624586Y-879294D02*
X4643633Y-869770D01*
X4643633Y-869770D02*
X4672205Y-869770D01*
X4672205Y-869770D02*
X4691253Y-879294D01*
X4767443Y-1079294D02*
X4776967Y-1069770D01*
X4776967Y-1069770D02*
X4796014Y-1041199D01*
X4796014Y-1041199D02*
X4805538Y-1022151D01*
X4805538Y-1022151D02*
X4815062Y-993580D01*
X4815062Y-993580D02*
X4824586Y-945961D01*
X4824586Y-945961D02*
X4824586Y-907866D01*
X4824586Y-907866D02*
X4815062Y-860247D01*
X4815062Y-860247D02*
X4805538Y-831675D01*
X4805538Y-831675D02*
X4796014Y-812628D01*
X4796014Y-812628D02*
X4776967Y-784056D01*
X4776967Y-784056D02*
X4767443Y-774532D01*
X5129348Y-1079294D02*
X5119824Y-1069770D01*
X5119824Y-1069770D02*
X5100776Y-1041199D01*
X5100776Y-1041199D02*
X5091253Y-1022151D01*
X5091253Y-1022151D02*
X5081729Y-993580D01*
X5081729Y-993580D02*
X5072205Y-945961D01*
X5072205Y-945961D02*
X5072205Y-907866D01*
X5072205Y-907866D02*
X5081729Y-860247D01*
X5081729Y-860247D02*
X5091253Y-831675D01*
X5091253Y-831675D02*
X5100776Y-812628D01*
X5100776Y-812628D02*
X5119824Y-784056D01*
X5119824Y-784056D02*
X5129348Y-774532D01*
X5205538Y-869770D02*
X5205538Y-1003104D01*
X5205538Y-888818D02*
X5215062Y-879294D01*
X5215062Y-879294D02*
X5234110Y-869770D01*
X5234110Y-869770D02*
X5262681Y-869770D01*
X5262681Y-869770D02*
X5281729Y-879294D01*
X5281729Y-879294D02*
X5291253Y-898342D01*
X5291253Y-898342D02*
X5291253Y-1003104D01*
X5415062Y-1003104D02*
X5396014Y-993580D01*
X5396014Y-993580D02*
X5386491Y-984056D01*
X5386491Y-984056D02*
X5376967Y-965008D01*
X5376967Y-965008D02*
X5376967Y-907866D01*
X5376967Y-907866D02*
X5386491Y-888818D01*
X5386491Y-888818D02*
X5396014Y-879294D01*
X5396014Y-879294D02*
X5415062Y-869770D01*
X5415062Y-869770D02*
X5443634Y-869770D01*
X5443634Y-869770D02*
X5462681Y-879294D01*
X5462681Y-879294D02*
X5472205Y-888818D01*
X5472205Y-888818D02*
X5481729Y-907866D01*
X5481729Y-907866D02*
X5481729Y-965008D01*
X5481729Y-965008D02*
X5472205Y-984056D01*
X5472205Y-984056D02*
X5462681Y-993580D01*
X5462681Y-993580D02*
X5443634Y-1003104D01*
X5443634Y-1003104D02*
X5415062Y-1003104D01*
X5538872Y-869770D02*
X5615062Y-869770D01*
X5567443Y-803104D02*
X5567443Y-974532D01*
X5567443Y-974532D02*
X5576967Y-993580D01*
X5576967Y-993580D02*
X5596014Y-1003104D01*
X5596014Y-1003104D02*
X5615062Y-1003104D01*
X5834110Y-869770D02*
X5834110Y-1069770D01*
X5834110Y-879294D02*
X5853157Y-869770D01*
X5853157Y-869770D02*
X5891253Y-869770D01*
X5891253Y-869770D02*
X5910300Y-879294D01*
X5910300Y-879294D02*
X5919824Y-888818D01*
X5919824Y-888818D02*
X5929348Y-907866D01*
X5929348Y-907866D02*
X5929348Y-965008D01*
X5929348Y-965008D02*
X5919824Y-984056D01*
X5919824Y-984056D02*
X5910300Y-993580D01*
X5910300Y-993580D02*
X5891253Y-1003104D01*
X5891253Y-1003104D02*
X5853157Y-1003104D01*
X5853157Y-1003104D02*
X5834110Y-993580D01*
X6043633Y-1003104D02*
X6024586Y-993580D01*
X6024586Y-993580D02*
X6015062Y-974532D01*
X6015062Y-974532D02*
X6015062Y-803104D01*
X6205538Y-1003104D02*
X6205538Y-898342D01*
X6205538Y-898342D02*
X6196014Y-879294D01*
X6196014Y-879294D02*
X6176967Y-869770D01*
X6176967Y-869770D02*
X6138872Y-869770D01*
X6138872Y-869770D02*
X6119824Y-879294D01*
X6205538Y-993580D02*
X6186491Y-1003104D01*
X6186491Y-1003104D02*
X6138872Y-1003104D01*
X6138872Y-1003104D02*
X6119824Y-993580D01*
X6119824Y-993580D02*
X6110300Y-974532D01*
X6110300Y-974532D02*
X6110300Y-955485D01*
X6110300Y-955485D02*
X6119824Y-936437D01*
X6119824Y-936437D02*
X6138872Y-926913D01*
X6138872Y-926913D02*
X6186491Y-926913D01*
X6186491Y-926913D02*
X6205538Y-917389D01*
X6272205Y-869770D02*
X6348395Y-869770D01*
X6300776Y-803104D02*
X6300776Y-974532D01*
X6300776Y-974532D02*
X6310300Y-993580D01*
X6310300Y-993580D02*
X6329348Y-1003104D01*
X6329348Y-1003104D02*
X6348395Y-1003104D01*
X6491253Y-993580D02*
X6472205Y-1003104D01*
X6472205Y-1003104D02*
X6434110Y-1003104D01*
X6434110Y-1003104D02*
X6415062Y-993580D01*
X6415062Y-993580D02*
X6405538Y-974532D01*
X6405538Y-974532D02*
X6405538Y-898342D01*
X6405538Y-898342D02*
X6415062Y-879294D01*
X6415062Y-879294D02*
X6434110Y-869770D01*
X6434110Y-869770D02*
X6472205Y-869770D01*
X6472205Y-869770D02*
X6491253Y-879294D01*
X6491253Y-879294D02*
X6500776Y-898342D01*
X6500776Y-898342D02*
X6500776Y-917389D01*
X6500776Y-917389D02*
X6405538Y-936437D01*
X6672205Y-1003104D02*
X6672205Y-803104D01*
X6672205Y-993580D02*
X6653157Y-1003104D01*
X6653157Y-1003104D02*
X6615062Y-1003104D01*
X6615062Y-1003104D02*
X6596014Y-993580D01*
X6596014Y-993580D02*
X6586491Y-984056D01*
X6586491Y-984056D02*
X6576967Y-965008D01*
X6576967Y-965008D02*
X6576967Y-907866D01*
X6576967Y-907866D02*
X6586491Y-888818D01*
X6586491Y-888818D02*
X6596014Y-879294D01*
X6596014Y-879294D02*
X6615062Y-869770D01*
X6615062Y-869770D02*
X6653157Y-869770D01*
X6653157Y-869770D02*
X6672205Y-879294D01*
X6748395Y-1079294D02*
X6757919Y-1069770D01*
X6757919Y-1069770D02*
X6776967Y-1041199D01*
X6776967Y-1041199D02*
X6786491Y-1022151D01*
X6786491Y-1022151D02*
X6796014Y-993580D01*
X6796014Y-993580D02*
X6805538Y-945961D01*
X6805538Y-945961D02*
X6805538Y-907866D01*
X6805538Y-907866D02*
X6796014Y-860247D01*
X6796014Y-860247D02*
X6786491Y-831675D01*
X6786491Y-831675D02*
X6776967Y-812628D01*
X6776967Y-812628D02*
X6757919Y-784056D01*
X6757919Y-784056D02*
X6748395Y-774532D01*
M02*
