%TF.GenerationSoftware,KiCad,Pcbnew,9.0.2*%
%TF.CreationDate,2025-07-11T15:35:01+01:00*%
%TF.ProjectId,FastStepper,46617374-5374-4657-9070-65722e6b6963,rev?*%
%TF.SameCoordinates,PX71f712cPY8e18f40*%
%TF.FileFunction,Plated,1,4,PTH,Mixed*%
%TF.FilePolarity,Positive*%
%FSLAX46Y46*%
G04 Gerber Fmt 4.6, Leading zero omitted, Abs format (unit mm)*
G04 Created by KiCad (PCBNEW 9.0.2) date 2025-07-11 15:35:01*
%MOMM*%
%LPD*%
G01*
G04 APERTURE LIST*
%TA.AperFunction,ViaDrill*%
%ADD10C,0.220000*%
%TD*%
G04 aperture for slot hole*
%TA.AperFunction,ComponentDrill*%
%ADD11C,0.450000*%
%TD*%
%TA.AperFunction,ComponentDrill*%
%ADD12C,0.500000*%
%TD*%
G04 aperture for slot hole*
%TA.AperFunction,ComponentDrill*%
%ADD13C,0.500000*%
%TD*%
%TA.AperFunction,ComponentDrill*%
%ADD14C,1.000000*%
%TD*%
%TA.AperFunction,ComponentDrill*%
%ADD15C,1.422400*%
%TD*%
%TA.AperFunction,ComponentDrill*%
%ADD16C,2.098040*%
%TD*%
G04 APERTURE END LIST*
D10*
X1824000Y61937400D03*
X2298900Y81700000D03*
X2662000Y47024400D03*
X3698900Y4600000D03*
X5800000Y52819400D03*
X5850000Y55419400D03*
X5877000Y37950400D03*
X5948900Y64900000D03*
X5998900Y74250000D03*
X6098900Y35200000D03*
X6350000Y9745400D03*
X6512000Y44554400D03*
X7366000Y21429400D03*
X7398900Y14900000D03*
X7498900Y32300000D03*
X7748900Y60250000D03*
X7811000Y75919400D03*
X7898900Y72853400D03*
X8100000Y52919400D03*
X8400000Y48028400D03*
X8788000Y62200000D03*
X8998900Y71700000D03*
X9015000Y68008400D03*
X9397600Y43959200D03*
X9423000Y39615800D03*
X9423000Y35526400D03*
X9598900Y71000000D03*
X9798900Y60100000D03*
X9906000Y25366400D03*
X10098900Y36600000D03*
X10383000Y44864400D03*
X10414000Y47250000D03*
X10510000Y40673400D03*
X10674022Y48890098D03*
X10748900Y54250000D03*
X10800000Y68700000D03*
X11248900Y75265946D03*
X11498900Y61000000D03*
X11780000Y38641400D03*
X12298900Y52450000D03*
X12415000Y42703400D03*
X12948900Y47294409D03*
X12984407Y45861112D03*
X12998900Y72600000D03*
X12998900Y41500000D03*
X13598900Y37500000D03*
X14000000Y66719400D03*
X14598900Y58200000D03*
X14605000Y28922400D03*
X14640206Y22919083D03*
X14998900Y49900000D03*
X14998900Y10924000D03*
X15113000Y55084400D03*
X15358000Y40567200D03*
X15367000Y46575400D03*
X15447144Y43876105D03*
X15459045Y52115945D03*
X15978900Y20794000D03*
X16022900Y15984000D03*
X16050000Y48946400D03*
X16050000Y33442400D03*
X16248900Y14607000D03*
X16600000Y64419400D03*
X16698900Y31700000D03*
X16798900Y62300000D03*
X16850000Y54323400D03*
X17103971Y25404591D03*
X17398900Y19750000D03*
X17498900Y57250000D03*
X17653000Y48607400D03*
X17748900Y29000000D03*
X17777000Y37900400D03*
X17907000Y53052400D03*
X17998900Y35750000D03*
X18015810Y39385267D03*
X18356943Y15593466D03*
X18363900Y21595000D03*
X18372200Y40867000D03*
X18382955Y22985514D03*
X18498900Y34250000D03*
X18511000Y56265400D03*
X18542000Y44416400D03*
X18584000Y50996400D03*
X18589000Y46000400D03*
X18998900Y73900000D03*
X18998900Y63400000D03*
X18998900Y57000000D03*
X19198900Y62200000D03*
X19390000Y35123400D03*
X19748900Y65500000D03*
X20198900Y54100000D03*
X20498900Y42000000D03*
X20498900Y28033400D03*
X20506144Y29913046D03*
X20574000Y13555400D03*
X21198900Y63116600D03*
X21498900Y45900000D03*
X21698900Y44100000D03*
X21748900Y41628826D03*
X22498900Y73830269D03*
X22498900Y63116600D03*
X22603000Y36238400D03*
X23171604Y73330269D03*
X23248900Y37443400D03*
X23298900Y69200000D03*
X23798900Y63100000D03*
X23898900Y66500000D03*
X24257000Y29938400D03*
X24498900Y62200000D03*
X24798900Y44700000D03*
X24892000Y42384400D03*
X24892000Y39081400D03*
X24998900Y75580269D03*
X24998900Y46900000D03*
X25019000Y29049400D03*
X25098900Y63000000D03*
X25222000Y56965400D03*
X25598900Y62200000D03*
X25615000Y32845400D03*
X25641500Y45361401D03*
X25748900Y73330269D03*
X25767816Y44052669D03*
X25773000Y43200000D03*
X25778000Y35857400D03*
X25781000Y54449400D03*
X25878000Y51895400D03*
X25904698Y26913048D03*
X25998900Y50500000D03*
X26162000Y19905400D03*
X26298900Y10400000D03*
X26398900Y68900000D03*
X26416000Y27779400D03*
X26473200Y41840800D03*
X26498900Y30250000D03*
X26600000Y62900000D03*
X26600000Y47601100D03*
X26631000Y34242400D03*
X26748900Y45941000D03*
X26924000Y40049000D03*
X26950000Y11041400D03*
X26998900Y75580269D03*
X26998900Y17050000D03*
X27300000Y52419400D03*
X27698900Y63116600D03*
X27798900Y69500000D03*
X27805000Y44943900D03*
X28194000Y40225400D03*
X28600000Y56919400D03*
X28956000Y41622400D03*
X28998900Y70000000D03*
X28998900Y46487000D03*
X29598900Y30250000D03*
X29648900Y69150000D03*
X29726000Y46705400D03*
X29748900Y50500000D03*
X29928849Y53544688D03*
X29998900Y60800000D03*
X29998900Y58500000D03*
X30498900Y39250000D03*
X30748900Y75580269D03*
X30988000Y29430400D03*
X30988000Y9745400D03*
X31298900Y81600000D03*
X31457712Y50391220D03*
X31496000Y21937400D03*
X31506148Y33154591D03*
X31698900Y53800000D03*
X31940930Y26666668D03*
X31998900Y69200000D03*
X32150000Y47311400D03*
X32448900Y69900000D03*
X32864000Y42561400D03*
X33000000Y39319400D03*
X33020000Y27779400D03*
X33064000Y33029400D03*
X33298900Y72300000D03*
X33298900Y67100000D03*
X33498900Y35800000D03*
X33748900Y30500000D03*
X34550000Y49619400D03*
X34998900Y77700000D03*
X35179000Y31208400D03*
X35300000Y63192400D03*
X35998900Y72100000D03*
X36498900Y71300000D03*
X36630000Y46705400D03*
X36748900Y44500000D03*
X36830000Y21429400D03*
X37262000Y40208400D03*
X37398900Y35900000D03*
X37698900Y4800000D03*
X37719000Y25000000D03*
X37795030Y47486263D03*
X37798900Y29400000D03*
X38062000Y49345400D03*
X38100800Y34380200D03*
X38143828Y62200000D03*
X38492000Y48419400D03*
X38811200Y40858600D03*
X38837000Y37750000D03*
X38837000Y12250000D03*
X39098900Y75685000D03*
X39493900Y39250000D03*
X39493900Y15305000D03*
X39598900Y47300000D03*
X39698900Y49500000D03*
X39750000Y43549400D03*
X39898900Y62300000D03*
X39998900Y61150000D03*
X39998900Y54250000D03*
X40248900Y51500000D03*
X40248900Y36929147D03*
X40248900Y20700000D03*
X40733800Y68000000D03*
X40741350Y65257550D03*
X41298900Y28855000D03*
X41402000Y62196400D03*
X41748900Y19750000D03*
X41748900Y14250000D03*
X41798900Y61050000D03*
X41998900Y22953400D03*
X42055733Y46532159D03*
X43498900Y66500000D03*
X43498900Y63250000D03*
X43498900Y61500000D03*
X43498900Y47400000D03*
X43570580Y48964805D03*
X43598900Y56500000D03*
X43998900Y17200000D03*
X43998900Y7500000D03*
X44048900Y72750000D03*
X44198900Y63900000D03*
X44212670Y24109908D03*
X44298900Y43600000D03*
X44398900Y47500000D03*
X44998900Y78900000D03*
X44998900Y62500000D03*
X44998900Y24250000D03*
X44998900Y18750000D03*
X45698900Y46300000D03*
X45748900Y9000000D03*
X45998900Y12230677D03*
X46029400Y73330500D03*
X46398900Y41500000D03*
X46398900Y28200000D03*
X46498900Y76955000D03*
X46498900Y38750000D03*
X46998900Y61800000D03*
X47298900Y58550000D03*
X47998900Y61500000D03*
X48198900Y32300000D03*
X48248900Y35600000D03*
X48498900Y73700000D03*
X48898900Y46000000D03*
X48998900Y75900000D03*
X49048900Y74700000D03*
X49448900Y72600000D03*
X49498900Y63900000D03*
X49998900Y45450000D03*
X50137811Y75750000D03*
X50197328Y74706468D03*
X50198900Y70700000D03*
X50898900Y76100000D03*
X50898900Y70000000D03*
X51098900Y72000000D03*
X51298900Y74000000D03*
X51321845Y63660869D03*
X52398900Y60000000D03*
X54448900Y46200000D03*
X54848900Y72850000D03*
X54891618Y70674730D03*
X54898900Y73950000D03*
X54898900Y69800000D03*
X55248900Y72000000D03*
X55640201Y62149454D03*
X56808900Y62100000D03*
X57098900Y46400000D03*
X57285136Y59713764D03*
X57498900Y75800000D03*
X58144865Y64435266D03*
X58698900Y13800000D03*
X59433666Y36450000D03*
X59488900Y70140106D03*
X59498900Y58000000D03*
X59529006Y74800000D03*
D11*
%TO.C,J1*%
X54358900Y76917500D02*
X53808900Y76917500D01*
D12*
%TO.C,TP10*%
X15798900Y68700000D03*
%TO.C,TP6*%
X18525000Y43243400D03*
%TO.C,TP5*%
X19248900Y48250000D03*
%TO.C,TP4*%
X20098900Y50300000D03*
%TO.C,TP8*%
X20794200Y36563200D03*
%TO.C,TP9*%
X32164000Y35273400D03*
%TO.C,TP11*%
X36998900Y32250000D03*
%TO.C,TP13*%
X39198900Y65200000D03*
%TO.C,TP1*%
X44998900Y48900000D03*
D13*
%TO.C,J1*%
X54383900Y68657500D02*
X53783900Y68657500D01*
X60333900Y77277500D02*
X59733900Y77277500D01*
X60333900Y68297500D02*
X59733900Y68297500D01*
D14*
%TO.C,X3*%
X3200000Y77933400D03*
X3200000Y75393400D03*
X3200000Y72853400D03*
%TO.C,X4*%
X3356000Y69131400D03*
X3356000Y66591400D03*
X3356000Y64051400D03*
%TO.C,X2*%
X3400000Y59273400D03*
X3400000Y56733400D03*
X3400000Y54193400D03*
X3400000Y51653400D03*
X3400000Y49113400D03*
%TO.C,X5*%
X3400000Y44165400D03*
X3400000Y41625400D03*
X3400000Y39085400D03*
X3400000Y36545400D03*
X3400000Y34005400D03*
%TO.C,X10*%
X3400000Y28922400D03*
X3400000Y26382400D03*
X3400000Y23842400D03*
%TO.C,X9*%
X3400000Y18762400D03*
X3400000Y16222400D03*
X3400000Y13682400D03*
X3400000Y11142400D03*
X3400000Y8602400D03*
%TO.C,J4*%
X20998900Y77600000D03*
%TO.C,J6*%
X31198900Y17400000D03*
%TO.C,SV2*%
X35208900Y57830000D03*
X35208900Y55290000D03*
X35208900Y52750000D03*
X37748900Y57830000D03*
X37748900Y55290000D03*
X37748900Y52750000D03*
D15*
%TO.C,X1*%
X55348900Y22225000D03*
X55348900Y18725000D03*
X55348900Y15225000D03*
X55348900Y11725000D03*
X55348900Y8225000D03*
D16*
%TO.C,SC1*%
X11898900Y81500000D03*
X11898900Y32400000D03*
X11898900Y3000000D03*
X55981414Y3000000D03*
X56248900Y81500000D03*
X56248900Y41400000D03*
M02*
