%TF.GenerationSoftware,KiCad,Pcbnew,9.0.2*%
%TF.CreationDate,2025-07-10T16:00:18+01:00*%
%TF.ProjectId,FastStepper,46617374-5374-4657-9070-65722e6b6963,rev?*%
%TF.SameCoordinates,PX71f712cPY8e18f40*%
%TF.FileFunction,Copper,L3,Inr*%
%TF.FilePolarity,Positive*%
%FSLAX46Y46*%
G04 Gerber Fmt 4.6, Leading zero omitted, Abs format (unit mm)*
G04 Created by KiCad (PCBNEW 9.0.2) date 2025-07-10 16:00:18*
%MOMM*%
%LPD*%
G01*
G04 APERTURE LIST*
%TA.AperFunction,ComponentPad*%
%ADD10O,3.000000X1.500000*%
%TD*%
%TA.AperFunction,ComponentPad*%
%ADD11C,2.500000*%
%TD*%
%TA.AperFunction,ComponentPad*%
%ADD12R,1.700000X1.700000*%
%TD*%
%TA.AperFunction,ComponentPad*%
%ADD13C,1.700000*%
%TD*%
%TA.AperFunction,ComponentPad*%
%ADD14C,1.000000*%
%TD*%
%TA.AperFunction,ComponentPad*%
%ADD15C,3.500000*%
%TD*%
%TA.AperFunction,HeatsinkPad*%
%ADD16O,1.400000X0.800000*%
%TD*%
%TA.AperFunction,ComponentPad*%
%ADD17O,4.267200X2.133600*%
%TD*%
%TA.AperFunction,ViaPad*%
%ADD18C,0.500000*%
%TD*%
%TA.AperFunction,ViaPad*%
%ADD19C,0.600000*%
%TD*%
%TA.AperFunction,Conductor*%
%ADD20C,0.203200*%
%TD*%
%TA.AperFunction,Conductor*%
%ADD21C,0.304800*%
%TD*%
%TA.AperFunction,Conductor*%
%ADD22C,0.300000*%
%TD*%
%TA.AperFunction,Conductor*%
%ADD23C,0.220000*%
%TD*%
%TA.AperFunction,Conductor*%
%ADD24C,0.200000*%
%TD*%
%TA.AperFunction,Profile*%
%ADD25C,0.152400*%
%TD*%
%TA.AperFunction,Profile*%
%ADD26C,0.150000*%
%TD*%
G04 APERTURE END LIST*
D10*
%TO.N,unconnected-(X3-Pin_1-Pad1)*%
%TO.C,X3*%
X3200000Y77933400D03*
%TO.N,GND*%
X3200000Y75393400D03*
%TO.N,Net-(IC21-A)*%
X3200000Y72853400D03*
%TD*%
D11*
%TO.N,GND*%
%TO.C,J6*%
X31198900Y17400000D03*
%TD*%
D10*
%TO.N,GND*%
%TO.C,X4*%
X3356000Y69131400D03*
%TO.N,+5V*%
X3356000Y66591400D03*
%TO.N,/IO stage/HALL_EFFCT_IN*%
X3356000Y64051400D03*
%TD*%
D12*
%TO.N,/core stage/PDI_DATA*%
%TO.C,SV2*%
X37748900Y52750000D03*
D13*
%TO.N,+3.3V_u*%
X35208900Y52750000D03*
%TO.N,unconnected-(SV2-Pad3)*%
X37748900Y55290000D03*
%TO.N,unconnected-(SV2-Pad4)*%
X35208900Y55290000D03*
%TO.N,/core stage/PDI_CLK*%
X37748900Y57830000D03*
%TO.N,GND*%
X35208900Y57830000D03*
%TD*%
D14*
%TO.N,Net-(IC8-PA4{slash}ADC4)*%
%TO.C,TP4*%
X20098900Y50300000D03*
%TD*%
D11*
%TO.N,GND*%
%TO.C,J4*%
X20998900Y77600000D03*
%TD*%
D14*
%TO.N,GND*%
%TO.C,TP10*%
X15798900Y68700000D03*
%TD*%
%TO.N,GND*%
%TO.C,TP11*%
X36998900Y32250000D03*
%TD*%
%TO.N,+5V*%
%TO.C,TP13*%
X39198900Y65200000D03*
%TD*%
D15*
%TO.N,GND*%
%TO.C,SC1*%
X11898900Y81500000D03*
%TD*%
D16*
%TO.N,Net-(J1-SHIELD)*%
%TO.C,J1*%
X60033900Y68297500D03*
X54083900Y68657500D03*
X54083900Y76917500D03*
X60033900Y77277500D03*
%TD*%
D15*
%TO.N,GND*%
%TO.C,SC1*%
X55981414Y3000000D03*
%TD*%
D14*
%TO.N,Net-(IC8-PB2{slash}ADC10{slash}DAC0)*%
%TO.C,TP6*%
X18525000Y43243400D03*
%TD*%
D15*
%TO.N,GND*%
%TO.C,SC1*%
X56248900Y41400000D03*
%TD*%
D10*
%TO.N,GND*%
%TO.C,X10*%
X3400000Y28922400D03*
%TO.N,/IO stage/ENDSTOP*%
X3400000Y26382400D03*
%TO.N,/IO stage/BRAKE*%
X3400000Y23842400D03*
%TD*%
D15*
%TO.N,GND*%
%TO.C,SC1*%
X11898900Y32400000D03*
%TD*%
D10*
%TO.N,GND*%
%TO.C,X5*%
X3400000Y44165400D03*
%TO.N,/IO stage/STEP_ENABLE*%
X3400000Y41625400D03*
%TO.N,/IO stage/STEP_DIRECTION*%
X3400000Y39085400D03*
%TO.N,/IO stage/STEP_PULSE*%
X3400000Y36545400D03*
%TO.N,+5V*%
X3400000Y34005400D03*
%TD*%
%TO.N,GND*%
%TO.C,X9*%
X3400000Y18762400D03*
%TO.N,/IO stage/IN0*%
X3400000Y16222400D03*
%TO.N,/IO stage/IN1*%
X3400000Y13682400D03*
%TO.N,/IO stage/OUTPUT0*%
X3400000Y11142400D03*
%TO.N,/IO stage/OUTPUT1*%
X3400000Y8602400D03*
%TD*%
D15*
%TO.N,GND*%
%TO.C,SC1*%
X56248900Y81500000D03*
%TD*%
D14*
%TO.N,Net-(IC8-PA5{slash}ADC5)*%
%TO.C,TP5*%
X19248900Y48250000D03*
%TD*%
D15*
%TO.N,GND*%
%TO.C,SC1*%
X11898900Y3000000D03*
%TD*%
D17*
%TO.N,+5V*%
%TO.C,X1*%
X55348900Y8225000D03*
%TO.N,/IO stage/2Harp_H2_RX*%
X55348900Y11725000D03*
%TO.N,/IO stage/2Harp_H2_TX*%
X55348900Y15225000D03*
%TO.N,/IO stage/2Harp_ClockOut*%
X55348900Y18725000D03*
%TO.N,GND*%
X55348900Y22225000D03*
%TD*%
D14*
%TO.N,+3V3*%
%TO.C,TP1*%
X44998900Y48900000D03*
%TD*%
D10*
%TO.N,GND*%
%TO.C,X2*%
X3400000Y59273400D03*
%TO.N,/IO stage/INPUT0*%
X3400000Y56733400D03*
%TO.N,/IO stage/INPUT1*%
X3400000Y54193400D03*
%TO.N,unconnected-(X2-Pin_4-Pad4)*%
X3400000Y51653400D03*
%TO.N,+5V*%
X3400000Y49113400D03*
%TD*%
D14*
%TO.N,Net-(IC8-PC1{slash}OC0B{slash}XCK0{slash}SCL)*%
%TO.C,TP8*%
X20794200Y36563200D03*
%TD*%
%TO.N,Net-(IC8-OC0B{slash}XCK0{slash}PD1)*%
%TO.C,TP9*%
X32164000Y35273400D03*
%TD*%
D18*
%TO.N,GND*%
X10510000Y40673400D03*
X26631000Y34242400D03*
X10383000Y44864400D03*
X47998900Y61500000D03*
X30988000Y9745400D03*
X17498900Y57250000D03*
X17998900Y35750000D03*
X24892000Y39081400D03*
X26498900Y30250000D03*
X14000000Y66719400D03*
X35998900Y72100000D03*
X43498900Y61500000D03*
X57098900Y46400000D03*
X45998900Y12230677D03*
X21698900Y44100000D03*
X33298900Y67100000D03*
X26473200Y41840800D03*
X7398900Y14900000D03*
X26298900Y10400000D03*
X43998900Y7500000D03*
X12998900Y41500000D03*
X58144865Y64435266D03*
X14598900Y58200000D03*
X16798900Y62300000D03*
X11780000Y38641400D03*
X31506148Y33154591D03*
X42055733Y46532159D03*
X36630000Y46705400D03*
X31496000Y21937400D03*
X34550000Y49619400D03*
X43498900Y63250000D03*
X33064000Y33029400D03*
X5948900Y64900000D03*
X8400000Y48028400D03*
X26416000Y27779400D03*
X14998900Y10924000D03*
X29998900Y58500000D03*
X1824000Y61937400D03*
X33020000Y27779400D03*
X25778000Y35857400D03*
X39750000Y43549400D03*
X5850000Y55419400D03*
X7748900Y60250000D03*
X18498900Y34250000D03*
X14998900Y49900000D03*
X41298900Y28855000D03*
X52398900Y60000000D03*
X7366000Y21429400D03*
X17103971Y25404591D03*
X20498900Y42000000D03*
X44212670Y24109908D03*
X17907000Y53052400D03*
X33298900Y72300000D03*
X34998900Y77700000D03*
X9015000Y68008400D03*
X33000000Y39319400D03*
X15447144Y43876105D03*
X17653000Y48607400D03*
X41748900Y14250000D03*
X25904698Y26913048D03*
X44298900Y43600000D03*
X19498900Y62020159D03*
X25098900Y63000000D03*
X37698900Y4800000D03*
X25748900Y73330269D03*
X16600000Y64419400D03*
X18998900Y57000000D03*
X38143828Y62200000D03*
X37398900Y35900000D03*
X7498900Y32300000D03*
X39998900Y54250000D03*
X43498900Y66500000D03*
X8100000Y52919400D03*
X12984407Y45861112D03*
X40248900Y51500000D03*
X15459045Y52115945D03*
X10674022Y48890098D03*
X31940930Y26666668D03*
X25998900Y50500000D03*
X15978900Y20794000D03*
X59529006Y74800000D03*
X25615000Y32845400D03*
X59488900Y70140106D03*
X26162000Y19905400D03*
X46398900Y28200000D03*
X11248900Y75265946D03*
X16510000Y20207400D03*
X20574000Y13555400D03*
X30748900Y75580269D03*
X11498900Y61000000D03*
X35300000Y63192400D03*
X23171604Y73330269D03*
X16698900Y31700000D03*
X10748900Y54250000D03*
X56808900Y62100000D03*
X20498900Y28033400D03*
X45698900Y46300000D03*
X10098900Y36600000D03*
X7811000Y75919400D03*
X29928849Y53544688D03*
X32864000Y42561400D03*
X18589000Y46000400D03*
X20506144Y29913046D03*
X37719000Y25000000D03*
X6098900Y35200000D03*
X59498900Y58000000D03*
X13598900Y37500000D03*
X6350000Y9745400D03*
X17748900Y29000000D03*
X17777000Y37900400D03*
X57798900Y75800000D03*
X31298900Y81600000D03*
X44198900Y73100000D03*
X12415000Y42703400D03*
X10414000Y47250000D03*
X37262000Y40208400D03*
X8998900Y71700000D03*
X42032600Y60900283D03*
X5877000Y37950400D03*
X40098900Y61300000D03*
X2298900Y81700000D03*
X2662000Y47024400D03*
X29998900Y60800000D03*
X15367000Y46575400D03*
X30498900Y39250000D03*
X50898900Y76100000D03*
X3698900Y4600000D03*
X43998900Y17200000D03*
X15113000Y55084400D03*
X18015810Y39385267D03*
X5800000Y52819400D03*
X16022900Y15984000D03*
X54398900Y46010000D03*
X57285136Y59713764D03*
X6512000Y44554400D03*
X50898900Y70000000D03*
X25781000Y54449400D03*
X20198900Y54100000D03*
X29748900Y50500000D03*
X23298900Y69200000D03*
X27798900Y69500000D03*
X12619000Y52442400D03*
X31457712Y50391220D03*
X31698900Y53800000D03*
X21748900Y41628826D03*
X16248900Y14607000D03*
X33498900Y35800000D03*
X41748900Y19750000D03*
X36748900Y44500000D03*
X9906000Y25366400D03*
X5998900Y74250000D03*
X22603000Y36238400D03*
X24998900Y75580269D03*
X22498900Y73830269D03*
X23898900Y66500000D03*
X36830000Y21429400D03*
X58698900Y13800000D03*
X10800000Y68700000D03*
X19748900Y65500000D03*
X33748900Y30500000D03*
%TO.N,+3V3*%
X43498900Y47400000D03*
X24498900Y62200000D03*
X18998900Y73900000D03*
X26998900Y75580269D03*
X18584000Y50996400D03*
X45748900Y9000000D03*
X43598900Y56500000D03*
X43570580Y48964805D03*
X18363900Y21595000D03*
X14640206Y22919083D03*
X18356943Y15593466D03*
X14605000Y28922400D03*
X25598900Y62200000D03*
X18998900Y63400000D03*
X44998900Y24250000D03*
X18511000Y56265400D03*
X44998900Y18750000D03*
X44398900Y47500000D03*
X18382955Y22985514D03*
X44198900Y63900000D03*
X41998900Y22953400D03*
%TO.N,Net-(IC8-AVCC)*%
X28998900Y46487000D03*
%TO.N,U_HALL_EFFCT_IN*%
X26600000Y62900000D03*
X26600000Y47601100D03*
%TO.N,FTDI_CTS*%
X27805000Y44943900D03*
X27698900Y63116600D03*
%TO.N,+5V*%
X40733800Y68000000D03*
X25019000Y29049400D03*
X40741350Y65257550D03*
X9423000Y39615800D03*
X9397600Y43959200D03*
X30988000Y29430400D03*
X39898900Y62300000D03*
X41402000Y62196400D03*
X26398900Y68900000D03*
X9798900Y60100000D03*
X9423000Y35526400D03*
X37798900Y29400000D03*
X8788000Y62200000D03*
%TO.N,FTDI_RXD*%
X23798900Y63100000D03*
X32150000Y47311400D03*
X24998900Y46900000D03*
%TO.N,FTDI_RTS*%
X24498900Y44750000D03*
X22498900Y63116600D03*
%TO.N,FTDI_TXD*%
X26748900Y45941000D03*
X21198900Y63116600D03*
X21498900Y45900000D03*
%TO.N,U_PH_A*%
X16850000Y54323400D03*
X19390000Y35123400D03*
%TO.N,U_STEP_DIRECTION*%
X15358000Y40567200D03*
X26924000Y40049000D03*
%TO.N,U_STEP_ENABLE*%
X25773000Y43200000D03*
X18542000Y44416400D03*
%TO.N,HARP_H2_TX*%
X39493900Y15305000D03*
X39493900Y39250000D03*
%TO.N,U_PH_B*%
X16050000Y33442400D03*
X16050000Y48946400D03*
%TO.N,UC_OUTPUT0*%
X25767816Y44052669D03*
X29533600Y30006400D03*
%TO.N,/core stage/LED_STATE*%
X25222000Y56965400D03*
X29726000Y46705400D03*
X28600000Y56919400D03*
%TO.N,UC_INPUT1*%
X26950000Y11041400D03*
X28956000Y41622400D03*
%TO.N,UC_BRAKE*%
X24257000Y29938400D03*
X24892000Y42384400D03*
%TO.N,UC_OUTPUT1*%
X35179000Y31208400D03*
X25641500Y45361401D03*
%TO.N,/core stage/AREF*%
X25878000Y51895400D03*
%TO.N,EMERGENCY_INPUT*%
X12998900Y72600000D03*
X12948900Y47294409D03*
%TO.N,UC_INPUT0*%
X28194000Y40225400D03*
X26998900Y17050000D03*
%TO.N,HARP_H2_RX*%
X38837000Y37750000D03*
X38837000Y12250000D03*
%TO.N,+3.3V_u*%
X27300000Y52419400D03*
X9598900Y71000000D03*
X39698900Y49500000D03*
X38811200Y40858600D03*
X38492000Y48419400D03*
X39598900Y47300000D03*
X38100800Y34380200D03*
X36498900Y71300000D03*
X37795030Y47486263D03*
X38062000Y49345400D03*
X18372200Y40867000D03*
%TO.N,Net-(IC21-A)*%
X7898900Y72853400D03*
%TO.N,/Clock stage/CLCK_IN*%
X49498900Y63900000D03*
X48898900Y46000000D03*
%TO.N,VClk*%
X55640201Y62149454D03*
X46498900Y76955000D03*
X46998900Y61800000D03*
%TO.N,/Clock stage/~{CLCK_DET}*%
X49998900Y45450000D03*
X51321845Y63660869D03*
%TO.N,~{CLK_EN_USB}*%
X39098900Y75685000D03*
X46029400Y73330500D03*
X46398900Y41500000D03*
%TO.N,CLK_USB*%
X44998900Y62500000D03*
X44998900Y78900000D03*
%TO.N,/CC2*%
X54798900Y73460389D03*
%TO.N,/CC1*%
X51298900Y71900000D03*
%TO.N,/USB_P*%
X54900699Y72563520D03*
X50143512Y72462500D03*
%TO.N,/USB_N*%
X54698900Y71800000D03*
X49780750Y73070683D03*
%TO.N,/USB_POWER*%
X50698900Y70900000D03*
X51298900Y74000000D03*
D19*
%TO.N,GNDS*%
X59433666Y36450000D03*
X48248900Y35600000D03*
X48198900Y32300000D03*
D18*
%TO.N,CLK_2u*%
X46498900Y38750000D03*
X40248900Y20700000D03*
X23248900Y37443400D03*
X47298900Y58550000D03*
X40248900Y36929147D03*
%TO.N,/USB_CLCK_N*%
X50197328Y74706468D03*
X49398900Y75500000D03*
X54667779Y70011480D03*
%TO.N,/USB_CLCK_P*%
X54891618Y70674730D03*
X50137811Y75538908D03*
X49398900Y74700000D03*
%TO.N,/USB_2u_N*%
X28998900Y70000000D03*
X31923900Y70100000D03*
%TO.N,/USB_2u_P*%
X29648900Y69400000D03*
X31998900Y69400000D03*
%TD*%
D20*
%TO.N,+3V3*%
X44198900Y63900000D02*
X44181202Y63882302D01*
X38074700Y63875800D02*
X43774700Y63875800D01*
X34198900Y56269400D02*
X18515000Y56269400D01*
X25598900Y62200000D02*
X20198900Y62200000D01*
X44181202Y63882302D02*
X43781202Y63882302D01*
D21*
X18350841Y22953400D02*
X18382955Y22985514D01*
X14640206Y22919083D02*
X14674523Y22953400D01*
D20*
X43598900Y56500000D02*
X34429500Y56500000D01*
X20198900Y62200000D02*
X18998900Y63400000D01*
X43781202Y63882302D02*
X43774700Y63875800D01*
D21*
X18415069Y22953400D02*
X18382955Y22985514D01*
D20*
X25598900Y62200000D02*
X36398900Y62200000D01*
D21*
X41998900Y22953400D02*
X18415069Y22953400D01*
X14674523Y22953400D02*
X18350841Y22953400D01*
D20*
X44998900Y48900000D02*
X44998900Y47900000D01*
X34429500Y56500000D02*
X34198900Y56269400D01*
X36398900Y62200000D02*
X38074700Y63875800D01*
%TO.N,+5V*%
X39498900Y61700000D02*
X39267459Y61468559D01*
X27198900Y68100000D02*
X40633800Y68100000D01*
X16030341Y61468559D02*
X15298900Y62200000D01*
D22*
X41402000Y61303100D02*
X41402000Y62196400D01*
D20*
X39898900Y62300000D02*
X39598900Y62300000D01*
X26398900Y68900000D02*
X27198900Y68100000D01*
X39267459Y61468559D02*
X16030341Y61468559D01*
D22*
X40198900Y60100000D02*
X41402000Y61303100D01*
X9798900Y60100000D02*
X40198900Y60100000D01*
D20*
X39598900Y62300000D02*
X39498900Y62200000D01*
X15298900Y62200000D02*
X8788000Y62200000D01*
X39498900Y62200000D02*
X39498900Y61700000D01*
X40633800Y68100000D02*
X40733800Y68000000D01*
%TO.N,FTDI_RXD*%
X28687500Y47311400D02*
X32150000Y47311400D01*
X24998900Y46900000D02*
X28276100Y46900000D01*
X28276100Y46900000D02*
X28687500Y47311400D01*
%TO.N,FTDI_TXD*%
X21539900Y45941000D02*
X26748900Y45941000D01*
X21498900Y45900000D02*
X21539900Y45941000D01*
%TO.N,U_STEP_DIRECTION*%
X26913800Y40059200D02*
X15866000Y40059200D01*
X26924000Y40049000D02*
X26913800Y40059200D01*
X15358000Y40567200D02*
X15866000Y40059200D01*
%TO.N,U_STEP_ENABLE*%
X19558000Y43400400D02*
X18542000Y44416400D01*
X25773000Y43200000D02*
X25572600Y43400400D01*
X25572600Y43400400D02*
X19558000Y43400400D01*
%TO.N,/core stage/LED_STATE*%
X25268000Y56919400D02*
X25222000Y56965400D01*
X28600000Y56919400D02*
X25268000Y56919400D01*
%TO.N,+3.3V_u*%
X10698900Y71000000D02*
X9598900Y71000000D01*
X18397600Y40892400D02*
X18372200Y40867000D01*
X38811200Y40858600D02*
X38777400Y40892400D01*
X27300000Y52419400D02*
X27300000Y49519400D01*
X27900000Y48919400D02*
X27300000Y49519400D01*
X10998900Y71300000D02*
X10698900Y71000000D01*
X38492000Y48419400D02*
X37992000Y48919400D01*
X38777400Y40892400D02*
X18397600Y40892400D01*
X36498900Y71300000D02*
X10998900Y71300000D01*
X35617200Y49796200D02*
X35617200Y52478600D01*
X38062000Y49345400D02*
X36068000Y49345400D01*
X36068000Y49345400D02*
X35617200Y49796200D01*
X37992000Y48919400D02*
X27900000Y48919400D01*
D23*
%TO.N,VClk*%
X46998900Y61800000D02*
X47348354Y62149454D01*
X47348354Y62149454D02*
X55686500Y62149454D01*
%TO.N,~{CLK_EN_USB}*%
X46029400Y73330500D02*
X45698900Y73661000D01*
X45698900Y73661000D02*
X39537900Y73661000D01*
X39537900Y73661000D02*
X39098900Y74100000D01*
X39098900Y74100000D02*
X39098900Y75685000D01*
%TO.N,/USB_N*%
X49806702Y73096635D02*
X51095535Y73096635D01*
X53448900Y72200000D02*
X54298900Y72200000D01*
X49780750Y73070683D02*
X49806702Y73096635D01*
X52548900Y73100000D02*
X53448900Y72200000D01*
X54298900Y72200000D02*
X54698900Y71800000D01*
X51098900Y73100000D02*
X52548900Y73100000D01*
X51095535Y73096635D02*
X51098900Y73100000D01*
%TO.N,GNDS*%
X59433666Y36450000D02*
X58583666Y35600000D01*
X58583666Y35600000D02*
X48248900Y35600000D01*
D20*
%TO.N,CLK_2u*%
X40248900Y36929147D02*
X46178047Y36929147D01*
X39908300Y36909400D02*
X39928047Y36929147D01*
X39928047Y36929147D02*
X40248900Y36929147D01*
X46498900Y37250000D02*
X46498900Y38750000D01*
X23782900Y36909400D02*
X39908300Y36909400D01*
X23248900Y37443400D02*
X23782900Y36909400D01*
X46178047Y36929147D02*
X46498900Y37250000D01*
D24*
%TO.N,/USB_CLCK_N*%
X50090205Y74813591D02*
X50085309Y74813591D01*
X50085309Y74813591D02*
X49398900Y75500000D01*
X50197328Y74706468D02*
X50090205Y74813591D01*
%TO.N,/USB_2u_N*%
X31836401Y70012501D02*
X28985916Y70012501D01*
X31923900Y70100000D02*
X31836401Y70012501D01*
%TO.N,/USB_2u_P*%
X31998900Y69400000D02*
X29648900Y69400000D01*
%TD*%
%TA.AperFunction,Conductor*%
%TO.N,+3.3V_u*%
G36*
X40696309Y49921709D02*
G01*
X40707000Y49895900D01*
X40707000Y47020900D01*
X40696309Y46995091D01*
X40670500Y46984400D01*
X37461500Y46984400D01*
X37435691Y46995091D01*
X37425000Y47020900D01*
X37425000Y49895900D01*
X37435691Y49921709D01*
X37461500Y49932400D01*
X40670500Y49932400D01*
X40696309Y49921709D01*
G37*
%TD.AperFunction*%
%TD*%
%TA.AperFunction,Conductor*%
%TO.N,GND*%
G36*
X36074044Y57143896D02*
G01*
X36152437Y57251792D01*
X36217680Y57379838D01*
X36265315Y57427473D01*
X36331851Y57438011D01*
X36391874Y57407428D01*
X36422458Y57347405D01*
X36423800Y57330353D01*
X36423800Y57004600D01*
X36402983Y56940531D01*
X36348483Y56900935D01*
X36314800Y56895600D01*
X36007469Y56895600D01*
X35943400Y56916417D01*
X35932555Y56931344D01*
X35930536Y56929324D01*
X35461418Y57398442D01*
X35515907Y57429901D01*
X35608999Y57522993D01*
X35640458Y57577482D01*
X36074044Y57143896D01*
G37*
%TD.AperFunction*%
%TA.AperFunction,Conductor*%
G36*
X39048469Y63552883D02*
G01*
X39088065Y63498383D01*
X39093400Y63464700D01*
X39093400Y61909300D01*
X39095522Y61898633D01*
X39095877Y61896340D01*
X39090846Y61865270D01*
X39087149Y61834027D01*
X39085498Y61832242D01*
X39085110Y61829841D01*
X39062779Y61807664D01*
X39041422Y61784558D01*
X39038835Y61783884D01*
X39037312Y61782370D01*
X39026797Y61780742D01*
X38988161Y61770659D01*
X36659942Y61770659D01*
X36595873Y61791476D01*
X36556277Y61845976D01*
X36556277Y61913342D01*
X36582867Y61956734D01*
X36584391Y61958259D01*
X36584394Y61958260D01*
X38167909Y63541775D01*
X38227933Y63572358D01*
X38244984Y63573700D01*
X38984400Y63573700D01*
X39048469Y63552883D01*
G37*
%TD.AperFunction*%
%TA.AperFunction,Conductor*%
G36*
X10047168Y82482473D02*
G01*
X10086764Y82427973D01*
X10086764Y82360607D01*
X10083802Y82352578D01*
X9997942Y82145295D01*
X9997939Y82145286D01*
X9929976Y81891643D01*
X9929973Y81891627D01*
X9895700Y81631300D01*
X9895700Y81368701D01*
X9929973Y81108374D01*
X9929976Y81108358D01*
X9997939Y80854715D01*
X9997942Y80854706D01*
X10098430Y80612106D01*
X10098432Y80612103D01*
X10229728Y80384691D01*
X10389581Y80176367D01*
X10392903Y80173045D01*
X11070884Y80851027D01*
X11084073Y80831289D01*
X11230189Y80685173D01*
X11249924Y80671987D01*
X10571943Y79994005D01*
X10575266Y79990682D01*
X10783590Y79830829D01*
X11011002Y79699533D01*
X11011005Y79699531D01*
X11253605Y79599043D01*
X11253614Y79599040D01*
X11507257Y79531077D01*
X11507273Y79531074D01*
X11767600Y79496800D01*
X12030200Y79496800D01*
X12290526Y79531074D01*
X12290542Y79531077D01*
X12544185Y79599040D01*
X12544194Y79599043D01*
X12786794Y79699531D01*
X12786797Y79699533D01*
X13014209Y79830829D01*
X13222530Y79990679D01*
X13225856Y79994005D01*
X12547874Y80671986D01*
X12567611Y80685173D01*
X12713727Y80831289D01*
X12726914Y80851026D01*
X13404895Y80173044D01*
X13408221Y80176370D01*
X13568071Y80384691D01*
X13699367Y80612103D01*
X13699369Y80612106D01*
X13799857Y80854706D01*
X13799860Y80854715D01*
X13867823Y81108358D01*
X13867826Y81108374D01*
X13902100Y81368701D01*
X13902100Y81631300D01*
X13867826Y81891627D01*
X13867823Y81891643D01*
X13799860Y82145286D01*
X13799857Y82145295D01*
X13713998Y82352578D01*
X13708713Y82419736D01*
X13743911Y82477174D01*
X13806149Y82502954D01*
X13814701Y82503290D01*
X54333099Y82503290D01*
X54397168Y82482473D01*
X54436764Y82427973D01*
X54436764Y82360607D01*
X54433802Y82352578D01*
X54347942Y82145295D01*
X54347939Y82145286D01*
X54279976Y81891643D01*
X54279973Y81891627D01*
X54245700Y81631300D01*
X54245700Y81368701D01*
X54279973Y81108374D01*
X54279976Y81108358D01*
X54347939Y80854715D01*
X54347942Y80854706D01*
X54448430Y80612106D01*
X54448432Y80612103D01*
X54579728Y80384691D01*
X54739581Y80176367D01*
X54742903Y80173045D01*
X55420884Y80851027D01*
X55434073Y80831289D01*
X55580189Y80685173D01*
X55599924Y80671987D01*
X54921943Y79994005D01*
X54925266Y79990682D01*
X55133590Y79830829D01*
X55361002Y79699533D01*
X55361005Y79699531D01*
X55603605Y79599043D01*
X55603614Y79599040D01*
X55857257Y79531077D01*
X55857273Y79531074D01*
X56117600Y79496800D01*
X56380200Y79496800D01*
X56640526Y79531074D01*
X56640542Y79531077D01*
X56894185Y79599040D01*
X56894194Y79599043D01*
X57136794Y79699531D01*
X57136797Y79699533D01*
X57364209Y79830829D01*
X57572530Y79990679D01*
X57575856Y79994005D01*
X56897874Y80671986D01*
X56917611Y80685173D01*
X57063727Y80831289D01*
X57076914Y80851026D01*
X57754895Y80173044D01*
X57758221Y80176370D01*
X57918071Y80384691D01*
X58049367Y80612103D01*
X58049369Y80612106D01*
X58149857Y80854706D01*
X58149860Y80854715D01*
X58217823Y81108358D01*
X58217826Y81108374D01*
X58252100Y81368701D01*
X58252100Y81631300D01*
X58217826Y81891627D01*
X58217823Y81891643D01*
X58149860Y82145286D01*
X58149857Y82145295D01*
X58063998Y82352578D01*
X58058713Y82419736D01*
X58093911Y82477174D01*
X58156149Y82502954D01*
X58164701Y82503290D01*
X59968600Y82503290D01*
X60032669Y82482473D01*
X60072265Y82427973D01*
X60077600Y82394290D01*
X60077600Y77987000D01*
X60056783Y77922931D01*
X60002283Y77883335D01*
X59968600Y77878000D01*
X59654843Y77878000D01*
X59502116Y77837078D01*
X59365186Y77758022D01*
X59253378Y77646214D01*
X59174322Y77509284D01*
X59146918Y77407007D01*
X59133400Y77356557D01*
X59133400Y77198443D01*
X59134297Y77195095D01*
X59174322Y77045717D01*
X59253378Y76908787D01*
X59253380Y76908784D01*
X59365184Y76796980D01*
X59365186Y76796979D01*
X59502116Y76717923D01*
X59654843Y76677000D01*
X59968600Y76677000D01*
X60032669Y76656183D01*
X60072265Y76601683D01*
X60077600Y76568000D01*
X60077600Y69007000D01*
X60056783Y68942931D01*
X60002283Y68903335D01*
X59968600Y68898000D01*
X59654843Y68898000D01*
X59502116Y68857078D01*
X59365186Y68778022D01*
X59253378Y68666214D01*
X59174322Y68529284D01*
X59133400Y68376557D01*
X59133400Y68218444D01*
X59174322Y68065717D01*
X59253378Y67928787D01*
X59253380Y67928784D01*
X59365184Y67816980D01*
X59365186Y67816979D01*
X59502116Y67737923D01*
X59654843Y67697000D01*
X59968600Y67697000D01*
X60032669Y67676183D01*
X60072265Y67621683D01*
X60077600Y67588000D01*
X60077600Y36742469D01*
X60056783Y36678400D01*
X60002283Y36638804D01*
X59934917Y36638804D01*
X59880417Y36678400D01*
X59874204Y36687968D01*
X59834168Y36757311D01*
X59834167Y36757312D01*
X59834166Y36757314D01*
X59740980Y36850500D01*
X59740977Y36850502D01*
X59626851Y36916393D01*
X59499558Y36950500D01*
X59367774Y36950500D01*
X59240480Y36916393D01*
X59126354Y36850502D01*
X59033164Y36757312D01*
X58967273Y36643186D01*
X58933166Y36515892D01*
X58933166Y36433764D01*
X58912349Y36369695D01*
X58901241Y36356689D01*
X58486977Y35942425D01*
X58426953Y35911842D01*
X58409902Y35910500D01*
X48691364Y35910500D01*
X48627295Y35931317D01*
X48614290Y35942425D01*
X48556214Y36000501D01*
X48442085Y36066393D01*
X48314792Y36100500D01*
X48183008Y36100500D01*
X48055714Y36066393D01*
X47941588Y36000502D01*
X47848398Y35907312D01*
X47782507Y35793186D01*
X47748400Y35665892D01*
X47748400Y35534109D01*
X47782507Y35406815D01*
X47845744Y35297286D01*
X47848400Y35292686D01*
X47941586Y35199500D01*
X48055714Y35133608D01*
X48183008Y35099500D01*
X48314792Y35099500D01*
X48442086Y35133608D01*
X48556214Y35199500D01*
X48561125Y35204411D01*
X48614290Y35257575D01*
X48674313Y35288158D01*
X48691364Y35289500D01*
X58624543Y35289500D01*
X58624545Y35289500D01*
X58703515Y35310660D01*
X58774318Y35351538D01*
X59340354Y35917576D01*
X59400378Y35948158D01*
X59417429Y35949500D01*
X59499558Y35949500D01*
X59626852Y35983608D01*
X59740980Y36049500D01*
X59834166Y36142686D01*
X59874203Y36212033D01*
X59924266Y36257108D01*
X59991262Y36264150D01*
X60049603Y36230467D01*
X60077003Y36168926D01*
X60077600Y36157532D01*
X60077600Y2484800D01*
X60056783Y2420731D01*
X60002283Y2381135D01*
X59968600Y2375800D01*
X58030076Y2375800D01*
X57966007Y2396617D01*
X57926411Y2451117D01*
X57924790Y2513011D01*
X57950337Y2608358D01*
X57950340Y2608374D01*
X57984614Y2868701D01*
X57984614Y3131300D01*
X57950340Y3391627D01*
X57950337Y3391643D01*
X57882374Y3645286D01*
X57882371Y3645295D01*
X57781883Y3887895D01*
X57781881Y3887898D01*
X57650585Y4115310D01*
X57490732Y4323634D01*
X57487409Y4326957D01*
X56809427Y3648976D01*
X56796241Y3668711D01*
X56650125Y3814827D01*
X56630387Y3828016D01*
X57308369Y4505997D01*
X57305047Y4509319D01*
X57096723Y4669172D01*
X56869311Y4800468D01*
X56869308Y4800470D01*
X56626708Y4900958D01*
X56626699Y4900961D01*
X56373056Y4968924D01*
X56373040Y4968927D01*
X56112714Y5003200D01*
X55850114Y5003200D01*
X55589787Y4968927D01*
X55589771Y4968924D01*
X55336128Y4900961D01*
X55336119Y4900958D01*
X55093519Y4800470D01*
X55093516Y4800468D01*
X54866104Y4669172D01*
X54657784Y4509322D01*
X54654457Y4505997D01*
X55332439Y3828015D01*
X55312703Y3814827D01*
X55166587Y3668711D01*
X55153399Y3648975D01*
X54475417Y4326957D01*
X54472092Y4323630D01*
X54312242Y4115310D01*
X54180946Y3887898D01*
X54180944Y3887895D01*
X54080456Y3645295D01*
X54080453Y3645286D01*
X54012490Y3391643D01*
X54012487Y3391627D01*
X53978214Y3131300D01*
X53978214Y2868701D01*
X54012487Y2608374D01*
X54012490Y2608358D01*
X54038038Y2513011D01*
X54034512Y2445738D01*
X53992117Y2393385D01*
X53932752Y2375800D01*
X13947562Y2375800D01*
X13883493Y2396617D01*
X13843897Y2451117D01*
X13842276Y2513011D01*
X13867823Y2608358D01*
X13867826Y2608374D01*
X13902100Y2868701D01*
X13902100Y3131300D01*
X13867826Y3391627D01*
X13867823Y3391643D01*
X13799860Y3645286D01*
X13799857Y3645295D01*
X13699369Y3887895D01*
X13699367Y3887898D01*
X13568071Y4115310D01*
X13408218Y4323634D01*
X13404895Y4326957D01*
X12726913Y3648976D01*
X12713727Y3668711D01*
X12567611Y3814827D01*
X12547873Y3828016D01*
X13225855Y4505997D01*
X13222533Y4509319D01*
X13014209Y4669172D01*
X12786797Y4800468D01*
X12786794Y4800470D01*
X12544194Y4900958D01*
X12544185Y4900961D01*
X12290542Y4968924D01*
X12290526Y4968927D01*
X12030200Y5003200D01*
X11767600Y5003200D01*
X11507273Y4968927D01*
X11507257Y4968924D01*
X11253614Y4900961D01*
X11253605Y4900958D01*
X11011005Y4800470D01*
X11011002Y4800468D01*
X10783590Y4669172D01*
X10575270Y4509322D01*
X10571943Y4505997D01*
X11249925Y3828015D01*
X11230189Y3814827D01*
X11084073Y3668711D01*
X11070885Y3648975D01*
X10392903Y4326957D01*
X10389578Y4323630D01*
X10229728Y4115310D01*
X10098432Y3887898D01*
X10098430Y3887895D01*
X9997942Y3645295D01*
X9997939Y3645286D01*
X9929976Y3391643D01*
X9929973Y3391627D01*
X9895700Y3131300D01*
X9895700Y2868701D01*
X9929973Y2608374D01*
X9929976Y2608358D01*
X9955524Y2513011D01*
X9951998Y2445738D01*
X9909603Y2393385D01*
X9850238Y2375800D01*
X1273400Y2375800D01*
X1209331Y2396617D01*
X1169735Y2451117D01*
X1164400Y2484800D01*
X1164400Y7432000D01*
X1185217Y7496069D01*
X1239717Y7535665D01*
X1273400Y7541000D01*
X5486399Y7541000D01*
X5486400Y7541000D01*
X5486400Y8324741D01*
X53014800Y8324741D01*
X53014800Y8125260D01*
X53046005Y7928237D01*
X53107645Y7738531D01*
X53107647Y7738526D01*
X53198208Y7560790D01*
X53315457Y7399409D01*
X53456509Y7258357D01*
X53617890Y7141108D01*
X53795626Y7050547D01*
X53890483Y7019726D01*
X53985336Y6988906D01*
X53985338Y6988906D01*
X53985340Y6988905D01*
X54182361Y6957700D01*
X54182362Y6957700D01*
X56515438Y6957700D01*
X56515439Y6957700D01*
X56712460Y6988905D01*
X56902174Y7050547D01*
X57079910Y7141108D01*
X57241291Y7258357D01*
X57382343Y7399409D01*
X57499592Y7560790D01*
X57590153Y7738526D01*
X57651795Y7928240D01*
X57683000Y8125261D01*
X57683000Y8324739D01*
X57651795Y8521760D01*
X57642781Y8549501D01*
X57590154Y8711470D01*
X57590153Y8711474D01*
X57499592Y8889210D01*
X57462191Y8940688D01*
X57382348Y9050584D01*
X57382345Y9050588D01*
X57382343Y9050591D01*
X57241291Y9191643D01*
X57241283Y9191649D01*
X57079912Y9308891D01*
X57079906Y9308894D01*
X56978643Y9360490D01*
X56902174Y9399453D01*
X56902171Y9399454D01*
X56902169Y9399455D01*
X56712463Y9461095D01*
X56712464Y9461095D01*
X56515440Y9492300D01*
X56515439Y9492300D01*
X54182361Y9492300D01*
X54182359Y9492300D01*
X53985336Y9461095D01*
X53795630Y9399455D01*
X53617893Y9308894D01*
X53617887Y9308891D01*
X53456516Y9191649D01*
X53456512Y9191646D01*
X53315454Y9050588D01*
X53315451Y9050584D01*
X53198209Y8889213D01*
X53198206Y8889207D01*
X53107645Y8711470D01*
X53046005Y8521764D01*
X53014800Y8324741D01*
X5486400Y8324741D01*
X5486400Y9059313D01*
X45298400Y9059313D01*
X45298400Y8940688D01*
X45329101Y8826114D01*
X45329100Y8826114D01*
X45380463Y8737153D01*
X45388411Y8723387D01*
X45472287Y8639511D01*
X45575014Y8580201D01*
X45689591Y8549500D01*
X45689593Y8549500D01*
X45808207Y8549500D01*
X45808209Y8549500D01*
X45922786Y8580201D01*
X46025513Y8639511D01*
X46109389Y8723387D01*
X46168699Y8826114D01*
X46199400Y8940691D01*
X46199400Y9059309D01*
X46168699Y9173886D01*
X46168698Y9173887D01*
X46168699Y9173887D01*
X46139044Y9225250D01*
X46109389Y9276613D01*
X46025513Y9360489D01*
X45922786Y9419799D01*
X45808212Y9450500D01*
X45808209Y9450500D01*
X45689591Y9450500D01*
X45689587Y9450500D01*
X45575013Y9419799D01*
X45472288Y9360490D01*
X45388410Y9276612D01*
X45329101Y9173887D01*
X45298400Y9059313D01*
X5486400Y9059313D01*
X5486400Y11100713D01*
X26499500Y11100713D01*
X26499500Y10982088D01*
X26530201Y10867514D01*
X26530200Y10867514D01*
X26581563Y10778553D01*
X26589511Y10764787D01*
X26673387Y10680911D01*
X26776114Y10621601D01*
X26890691Y10590900D01*
X26890693Y10590900D01*
X27009307Y10590900D01*
X27009309Y10590900D01*
X27123886Y10621601D01*
X27226613Y10680911D01*
X27310489Y10764787D01*
X27369799Y10867514D01*
X27400500Y10982091D01*
X27400500Y11100709D01*
X27369799Y11215286D01*
X27369798Y11215287D01*
X27369799Y11215287D01*
X27340144Y11266650D01*
X27310489Y11318013D01*
X27226613Y11401889D01*
X27123886Y11461199D01*
X27009312Y11491900D01*
X27009309Y11491900D01*
X26890691Y11491900D01*
X26890687Y11491900D01*
X26776113Y11461199D01*
X26673388Y11401890D01*
X26589510Y11318012D01*
X26530201Y11215287D01*
X26499500Y11100713D01*
X5486400Y11100713D01*
X5486400Y12309313D01*
X38386500Y12309313D01*
X38386500Y12190688D01*
X38417201Y12076114D01*
X38417200Y12076114D01*
X38468563Y11987153D01*
X38476511Y11973387D01*
X38560387Y11889511D01*
X38663114Y11830201D01*
X38777691Y11799500D01*
X38777693Y11799500D01*
X38896307Y11799500D01*
X38896309Y11799500D01*
X38990509Y11824741D01*
X53014800Y11824741D01*
X53014800Y11625260D01*
X53046005Y11428237D01*
X53081820Y11318012D01*
X53107647Y11238526D01*
X53177866Y11100713D01*
X53198206Y11060794D01*
X53198209Y11060788D01*
X53315451Y10899417D01*
X53315457Y10899409D01*
X53456509Y10758357D01*
X53617890Y10641108D01*
X53795626Y10550547D01*
X53890483Y10519726D01*
X53985336Y10488906D01*
X53985338Y10488906D01*
X53985340Y10488905D01*
X54182361Y10457700D01*
X54182362Y10457700D01*
X56515438Y10457700D01*
X56515439Y10457700D01*
X56712460Y10488905D01*
X56902174Y10550547D01*
X57079910Y10641108D01*
X57241291Y10758357D01*
X57382343Y10899409D01*
X57499592Y11060790D01*
X57590153Y11238526D01*
X57651795Y11428240D01*
X57683000Y11625261D01*
X57683000Y11824739D01*
X57651795Y12021760D01*
X57590153Y12211474D01*
X57499592Y12389210D01*
X57382343Y12550591D01*
X57241291Y12691643D01*
X57241283Y12691649D01*
X57079912Y12808891D01*
X57079906Y12808894D01*
X56902174Y12899453D01*
X56902171Y12899454D01*
X56902169Y12899455D01*
X56712463Y12961095D01*
X56712464Y12961095D01*
X56515440Y12992300D01*
X56515439Y12992300D01*
X54182361Y12992300D01*
X54182359Y12992300D01*
X53985336Y12961095D01*
X53795630Y12899455D01*
X53617893Y12808894D01*
X53617887Y12808891D01*
X53456516Y12691649D01*
X53456512Y12691646D01*
X53315454Y12550588D01*
X53315451Y12550584D01*
X53198209Y12389213D01*
X53198206Y12389207D01*
X53107645Y12211470D01*
X53046005Y12021764D01*
X53014800Y11824741D01*
X38990509Y11824741D01*
X39010886Y11830201D01*
X39113613Y11889511D01*
X39197489Y11973387D01*
X39256799Y12076114D01*
X39287500Y12190691D01*
X39287500Y12309309D01*
X39256799Y12423886D01*
X39256798Y12423887D01*
X39256799Y12423887D01*
X39227144Y12475250D01*
X39197489Y12526613D01*
X39113613Y12610489D01*
X39010886Y12669799D01*
X38896312Y12700500D01*
X38896309Y12700500D01*
X38777691Y12700500D01*
X38777687Y12700500D01*
X38663113Y12669799D01*
X38560388Y12610490D01*
X38476510Y12526612D01*
X38417201Y12423887D01*
X38386500Y12309313D01*
X5486400Y12309313D01*
X5486400Y15652779D01*
X17906443Y15652779D01*
X17906443Y15534154D01*
X17937144Y15419580D01*
X17937143Y15419580D01*
X17969055Y15364309D01*
X17996454Y15316853D01*
X18080330Y15232977D01*
X18183057Y15173667D01*
X18297634Y15142966D01*
X18297636Y15142966D01*
X18416250Y15142966D01*
X18416252Y15142966D01*
X18530829Y15173667D01*
X18633556Y15232977D01*
X18717432Y15316853D01*
X18744833Y15364313D01*
X39043400Y15364313D01*
X39043400Y15245688D01*
X39074101Y15131114D01*
X39074100Y15131114D01*
X39125463Y15042153D01*
X39133411Y15028387D01*
X39217287Y14944511D01*
X39320014Y14885201D01*
X39434591Y14854500D01*
X39434593Y14854500D01*
X39553207Y14854500D01*
X39553209Y14854500D01*
X39667786Y14885201D01*
X39770513Y14944511D01*
X39854389Y15028387D01*
X39913699Y15131114D01*
X39944400Y15245691D01*
X39944400Y15324741D01*
X53014800Y15324741D01*
X53014800Y15125260D01*
X53046005Y14928237D01*
X53107645Y14738531D01*
X53107647Y14738526D01*
X53198208Y14560790D01*
X53315457Y14399409D01*
X53456509Y14258357D01*
X53617890Y14141108D01*
X53795626Y14050547D01*
X53890483Y14019726D01*
X53985336Y13988906D01*
X53985338Y13988906D01*
X53985340Y13988905D01*
X54182361Y13957700D01*
X54182362Y13957700D01*
X56515438Y13957700D01*
X56515439Y13957700D01*
X56712460Y13988905D01*
X56902174Y14050547D01*
X57079910Y14141108D01*
X57241291Y14258357D01*
X57382343Y14399409D01*
X57499592Y14560790D01*
X57590153Y14738526D01*
X57651795Y14928240D01*
X57683000Y15125261D01*
X57683000Y15324739D01*
X57651795Y15521760D01*
X57590153Y15711474D01*
X57499592Y15889210D01*
X57452552Y15953955D01*
X57382348Y16050584D01*
X57382345Y16050588D01*
X57382343Y16050591D01*
X57241291Y16191643D01*
X57241283Y16191649D01*
X57079912Y16308891D01*
X57079906Y16308894D01*
X56902174Y16399453D01*
X56902171Y16399454D01*
X56902169Y16399455D01*
X56712463Y16461095D01*
X56712464Y16461095D01*
X56515440Y16492300D01*
X56515439Y16492300D01*
X54182361Y16492300D01*
X54182359Y16492300D01*
X53985336Y16461095D01*
X53795630Y16399455D01*
X53617893Y16308894D01*
X53617887Y16308891D01*
X53456516Y16191649D01*
X53456512Y16191646D01*
X53315454Y16050588D01*
X53315451Y16050584D01*
X53198209Y15889213D01*
X53198206Y15889207D01*
X53107645Y15711470D01*
X53046005Y15521764D01*
X53014800Y15324741D01*
X39944400Y15324741D01*
X39944400Y15364309D01*
X39913699Y15478886D01*
X39913698Y15478887D01*
X39913699Y15478887D01*
X39881786Y15534160D01*
X39854389Y15581613D01*
X39770513Y15665489D01*
X39667786Y15724799D01*
X39553212Y15755500D01*
X39553209Y15755500D01*
X39434591Y15755500D01*
X39434587Y15755500D01*
X39320013Y15724799D01*
X39217288Y15665490D01*
X39133410Y15581612D01*
X39074101Y15478887D01*
X39043400Y15364313D01*
X18744833Y15364313D01*
X18776742Y15419580D01*
X18807443Y15534157D01*
X18807443Y15652775D01*
X18776742Y15767352D01*
X18776741Y15767353D01*
X18776742Y15767353D01*
X18747087Y15818716D01*
X18717432Y15870079D01*
X18633556Y15953955D01*
X18530829Y16013265D01*
X18416255Y16043966D01*
X18416252Y16043966D01*
X18297634Y16043966D01*
X18297630Y16043966D01*
X18183056Y16013265D01*
X18080331Y15953956D01*
X17996453Y15870078D01*
X17937144Y15767353D01*
X17906443Y15652779D01*
X5486400Y15652779D01*
X5486400Y17109313D01*
X26548400Y17109313D01*
X26548400Y16990688D01*
X26579101Y16876114D01*
X26579100Y16876114D01*
X26609780Y16822977D01*
X26638411Y16773387D01*
X26722287Y16689511D01*
X26825014Y16630201D01*
X26939591Y16599500D01*
X26939593Y16599500D01*
X27058207Y16599500D01*
X27058209Y16599500D01*
X27172786Y16630201D01*
X27275513Y16689511D01*
X27359389Y16773387D01*
X27418699Y16876114D01*
X27449400Y16990691D01*
X27449400Y17109309D01*
X27418699Y17223886D01*
X27418698Y17223887D01*
X27418699Y17223887D01*
X27385322Y17281696D01*
X27359389Y17326613D01*
X27275513Y17410489D01*
X27228330Y17437731D01*
X27172786Y17469800D01*
X27058212Y17500500D01*
X27058209Y17500500D01*
X26939591Y17500500D01*
X26939587Y17500500D01*
X26825013Y17469799D01*
X26722288Y17410490D01*
X26638410Y17326612D01*
X26579101Y17223887D01*
X26548400Y17109313D01*
X5486400Y17109313D01*
X5486400Y17518305D01*
X29695700Y17518305D01*
X29695700Y17281696D01*
X29732714Y17047996D01*
X29805828Y16822977D01*
X29913249Y16612152D01*
X30047386Y16427528D01*
X30767341Y17147484D01*
X30798801Y17092993D01*
X30891893Y16999901D01*
X30946381Y16968443D01*
X30226426Y16248487D01*
X30411051Y16114350D01*
X30621876Y16006929D01*
X30846895Y15933815D01*
X31080596Y15896800D01*
X31317204Y15896800D01*
X31550904Y15933815D01*
X31775923Y16006929D01*
X31986748Y16114350D01*
X32171372Y16248487D01*
X31451417Y16968442D01*
X31505907Y16999901D01*
X31598999Y17092993D01*
X31630458Y17147483D01*
X32350413Y16427528D01*
X32484550Y16612152D01*
X32591971Y16822977D01*
X32665085Y17047996D01*
X32702100Y17281696D01*
X32702100Y17518305D01*
X32665085Y17752005D01*
X32591971Y17977024D01*
X32484550Y18187849D01*
X32350412Y18372474D01*
X31630457Y17652519D01*
X31598999Y17707007D01*
X31505907Y17800099D01*
X31451416Y17831559D01*
X32171372Y18551514D01*
X31986748Y18685651D01*
X31920644Y18719333D01*
X31775923Y18793072D01*
X31725939Y18809313D01*
X44548400Y18809313D01*
X44548400Y18690688D01*
X44579101Y18576114D01*
X44579100Y18576114D01*
X44630463Y18487153D01*
X44638411Y18473387D01*
X44722287Y18389511D01*
X44825014Y18330201D01*
X44939591Y18299500D01*
X44939593Y18299500D01*
X45058207Y18299500D01*
X45058209Y18299500D01*
X45172786Y18330201D01*
X45275513Y18389511D01*
X45359389Y18473387D01*
X45418699Y18576114D01*
X45449400Y18690691D01*
X45449400Y18809309D01*
X45445265Y18824741D01*
X53014800Y18824741D01*
X53014800Y18625260D01*
X53046005Y18428237D01*
X53107645Y18238531D01*
X53107647Y18238526D01*
X53198206Y18060794D01*
X53198209Y18060788D01*
X53315451Y17899417D01*
X53315457Y17899409D01*
X53456509Y17758357D01*
X53617890Y17641108D01*
X53795626Y17550547D01*
X53890483Y17519726D01*
X53985336Y17488906D01*
X53985338Y17488906D01*
X53985340Y17488905D01*
X54182361Y17457700D01*
X54182362Y17457700D01*
X56515438Y17457700D01*
X56515439Y17457700D01*
X56712460Y17488905D01*
X56902174Y17550547D01*
X57079910Y17641108D01*
X57241291Y17758357D01*
X57382343Y17899409D01*
X57499592Y18060790D01*
X57590153Y18238526D01*
X57651795Y18428240D01*
X57683000Y18625261D01*
X57683000Y18824739D01*
X57651795Y19021760D01*
X57650218Y19026612D01*
X57603694Y19169799D01*
X57590153Y19211474D01*
X57499592Y19389210D01*
X57382343Y19550591D01*
X57241291Y19691643D01*
X57192560Y19727048D01*
X57079912Y19808891D01*
X57079906Y19808894D01*
X56902174Y19899453D01*
X56902171Y19899454D01*
X56902169Y19899455D01*
X56712463Y19961095D01*
X56712464Y19961095D01*
X56515440Y19992300D01*
X56515439Y19992300D01*
X54182361Y19992300D01*
X54182359Y19992300D01*
X53985336Y19961095D01*
X53795630Y19899455D01*
X53617893Y19808894D01*
X53617887Y19808891D01*
X53456516Y19691649D01*
X53456512Y19691646D01*
X53315454Y19550588D01*
X53315451Y19550584D01*
X53198209Y19389213D01*
X53198206Y19389207D01*
X53107645Y19211470D01*
X53046005Y19021764D01*
X53014800Y18824741D01*
X45445265Y18824741D01*
X45418699Y18923886D01*
X45418698Y18923887D01*
X45418699Y18923887D01*
X45389044Y18975250D01*
X45359389Y19026613D01*
X45275513Y19110489D01*
X45172786Y19169799D01*
X45058212Y19200500D01*
X45058209Y19200500D01*
X44939591Y19200500D01*
X44939587Y19200500D01*
X44825013Y19169799D01*
X44722288Y19110490D01*
X44638410Y19026612D01*
X44579101Y18923887D01*
X44548400Y18809313D01*
X31725939Y18809313D01*
X31550904Y18866186D01*
X31317204Y18903200D01*
X31080596Y18903200D01*
X30846895Y18866186D01*
X30621876Y18793072D01*
X30411047Y18685650D01*
X30226426Y18551515D01*
X30226426Y18551514D01*
X30946381Y17831559D01*
X30891893Y17800099D01*
X30798801Y17707007D01*
X30767341Y17652519D01*
X30047386Y18372474D01*
X30047385Y18372474D01*
X29913250Y18187853D01*
X29805828Y17977024D01*
X29732714Y17752005D01*
X29695700Y17518305D01*
X5486400Y17518305D01*
X5486400Y18533800D01*
X5260200Y18533800D01*
X5196131Y18554617D01*
X5156535Y18609117D01*
X5155525Y18626231D01*
X5147672Y18635800D01*
X3883715Y18635800D01*
X3900000Y18696574D01*
X3900000Y18828226D01*
X3883715Y18889000D01*
X5147671Y18889000D01*
X5114647Y19055024D01*
X5039024Y19237593D01*
X5039023Y19237595D01*
X4929237Y19401901D01*
X4789500Y19541638D01*
X4625194Y19651424D01*
X4625192Y19651425D01*
X4442622Y19727048D01*
X4248805Y19765600D01*
X3526601Y19765600D01*
X3526600Y19765599D01*
X3526600Y19246116D01*
X3465826Y19262400D01*
X3334174Y19262400D01*
X3273400Y19246116D01*
X3273400Y19765599D01*
X3273399Y19765600D01*
X2551194Y19765600D01*
X2357377Y19727048D01*
X2174807Y19651425D01*
X2174805Y19651424D01*
X2010499Y19541638D01*
X1870762Y19401901D01*
X1760976Y19237595D01*
X1760975Y19237593D01*
X1685352Y19055024D01*
X1652329Y18889000D01*
X2916285Y18889000D01*
X2900000Y18828226D01*
X2900000Y18696574D01*
X2916285Y18635800D01*
X1652328Y18635800D01*
X1642284Y18623562D01*
X1629274Y18580547D01*
X1575595Y18539845D01*
X1539800Y18533800D01*
X1273400Y18533800D01*
X1209331Y18554617D01*
X1169735Y18609117D01*
X1164400Y18642800D01*
X1164400Y20759313D01*
X39798400Y20759313D01*
X39798400Y20640688D01*
X39829101Y20526114D01*
X39829100Y20526114D01*
X39880463Y20437153D01*
X39888411Y20423387D01*
X39972287Y20339511D01*
X40075014Y20280201D01*
X40189591Y20249500D01*
X40189593Y20249500D01*
X40308207Y20249500D01*
X40308209Y20249500D01*
X40422786Y20280201D01*
X40525513Y20339511D01*
X40609389Y20423387D01*
X40668699Y20526114D01*
X40699400Y20640691D01*
X40699400Y20759309D01*
X40668699Y20873886D01*
X40668698Y20873887D01*
X40668699Y20873887D01*
X40631969Y20937503D01*
X40609389Y20976613D01*
X40525513Y21060489D01*
X40422786Y21119799D01*
X40308212Y21150500D01*
X40308209Y21150500D01*
X40189591Y21150500D01*
X40189587Y21150500D01*
X40075013Y21119799D01*
X39972288Y21060490D01*
X39888410Y20976612D01*
X39829101Y20873887D01*
X39798400Y20759313D01*
X1164400Y20759313D01*
X1164400Y21654313D01*
X17913400Y21654313D01*
X17913400Y21535688D01*
X17944101Y21421114D01*
X17944100Y21421114D01*
X17976449Y21365086D01*
X18003411Y21318387D01*
X18087287Y21234511D01*
X18190014Y21175201D01*
X18304591Y21144500D01*
X18304593Y21144500D01*
X18423207Y21144500D01*
X18423209Y21144500D01*
X18537786Y21175201D01*
X18640513Y21234511D01*
X18724389Y21318387D01*
X18783699Y21421114D01*
X18814400Y21535691D01*
X18814400Y21654309D01*
X18783699Y21768886D01*
X18783698Y21768887D01*
X18783699Y21768887D01*
X18754044Y21820250D01*
X18724389Y21871613D01*
X18640513Y21955489D01*
X18537786Y22014799D01*
X18497126Y22025694D01*
X18423212Y22045500D01*
X18423209Y22045500D01*
X18304591Y22045500D01*
X18304587Y22045500D01*
X18190013Y22014799D01*
X18087288Y21955490D01*
X18003410Y21871612D01*
X17944101Y21768887D01*
X17913400Y21654313D01*
X1164400Y21654313D01*
X1164400Y22351600D01*
X52965696Y22351600D01*
X54648949Y22351600D01*
X54637700Y22295047D01*
X54637700Y22154953D01*
X54648949Y22098400D01*
X52965697Y22098400D01*
X52994601Y21915902D01*
X53058806Y21718301D01*
X53153137Y21533165D01*
X53275254Y21365086D01*
X53275257Y21365082D01*
X53422181Y21218158D01*
X53422185Y21218155D01*
X53590264Y21096038D01*
X53775400Y21001707D01*
X53972995Y20937503D01*
X53972994Y20937503D01*
X54178212Y20905001D01*
X54178215Y20905000D01*
X55222299Y20905000D01*
X55222300Y20905001D01*
X55222300Y21525050D01*
X55278853Y21513800D01*
X55418947Y21513800D01*
X55475500Y21525050D01*
X55475500Y20905001D01*
X55475501Y20905000D01*
X56519585Y20905000D01*
X56519587Y20905001D01*
X56724804Y20937503D01*
X56922399Y21001707D01*
X57107535Y21096038D01*
X57275614Y21218155D01*
X57275618Y21218158D01*
X57422542Y21365082D01*
X57422545Y21365086D01*
X57544662Y21533165D01*
X57638993Y21718301D01*
X57703198Y21915902D01*
X57732103Y22098400D01*
X56048851Y22098400D01*
X56060100Y22154953D01*
X56060100Y22295047D01*
X56048851Y22351600D01*
X57732103Y22351600D01*
X57703198Y22534099D01*
X57638993Y22731700D01*
X57544662Y22916836D01*
X57422545Y23084915D01*
X57422542Y23084919D01*
X57275618Y23231843D01*
X57275614Y23231846D01*
X57107535Y23353963D01*
X56922399Y23448294D01*
X56724804Y23512498D01*
X56724805Y23512498D01*
X56519587Y23545000D01*
X55475501Y23545000D01*
X55475500Y23544999D01*
X55475500Y22924951D01*
X55418947Y22936200D01*
X55278853Y22936200D01*
X55222300Y22924951D01*
X55222300Y23544999D01*
X55222299Y23545000D01*
X54178212Y23545000D01*
X53972995Y23512498D01*
X53775400Y23448294D01*
X53590264Y23353963D01*
X53422185Y23231846D01*
X53422181Y23231843D01*
X53275257Y23084919D01*
X53275254Y23084915D01*
X53153137Y22916836D01*
X53058806Y22731700D01*
X52994601Y22534099D01*
X52965696Y22351600D01*
X1164400Y22351600D01*
X1164400Y22438000D01*
X1185217Y22502069D01*
X1239717Y22541665D01*
X1273400Y22547000D01*
X5486399Y22547000D01*
X5486400Y22547000D01*
X5486400Y22978396D01*
X14189706Y22978396D01*
X14189706Y22859771D01*
X14220407Y22745197D01*
X14220406Y22745197D01*
X14258994Y22678363D01*
X14279717Y22642470D01*
X14363593Y22558594D01*
X14466320Y22499284D01*
X14580897Y22468583D01*
X14580899Y22468583D01*
X14699513Y22468583D01*
X14699515Y22468583D01*
X14814092Y22499284D01*
X14916819Y22558594D01*
X14926801Y22568577D01*
X14986823Y22599158D01*
X15003874Y22600500D01*
X18119613Y22600500D01*
X18174112Y22585898D01*
X18209069Y22565715D01*
X18323646Y22535014D01*
X18323648Y22535014D01*
X18442262Y22535014D01*
X18442264Y22535014D01*
X18556841Y22565715D01*
X18591797Y22585898D01*
X18646297Y22600500D01*
X41679937Y22600500D01*
X41734436Y22585897D01*
X41773955Y22563080D01*
X41825013Y22533601D01*
X41939587Y22502901D01*
X41939591Y22502900D01*
X41939593Y22502900D01*
X42058207Y22502900D01*
X42058209Y22502900D01*
X42172786Y22533601D01*
X42275513Y22592911D01*
X42359389Y22676787D01*
X42418699Y22779514D01*
X42449400Y22894091D01*
X42449400Y23012709D01*
X42418699Y23127286D01*
X42418698Y23127287D01*
X42418699Y23127287D01*
X42389044Y23178650D01*
X42359389Y23230013D01*
X42275513Y23313889D01*
X42172786Y23373199D01*
X42172782Y23373200D01*
X42058212Y23403900D01*
X42058209Y23403900D01*
X41939591Y23403900D01*
X41939587Y23403900D01*
X41825013Y23373200D01*
X41754433Y23332449D01*
X41734436Y23320904D01*
X41679937Y23306300D01*
X18744420Y23306300D01*
X18680351Y23327117D01*
X18667351Y23338220D01*
X18659568Y23346003D01*
X18556841Y23405313D01*
X18442267Y23436014D01*
X18442264Y23436014D01*
X18323646Y23436014D01*
X18323642Y23436014D01*
X18209068Y23405313D01*
X18106343Y23346004D01*
X18106342Y23346004D01*
X18106342Y23346003D01*
X18098562Y23338224D01*
X18038541Y23307642D01*
X18021490Y23306300D01*
X14899731Y23306300D01*
X14845231Y23320904D01*
X14814092Y23338882D01*
X14814091Y23338883D01*
X14814090Y23338883D01*
X14699518Y23369583D01*
X14699515Y23369583D01*
X14580897Y23369583D01*
X14580893Y23369583D01*
X14466319Y23338882D01*
X14363594Y23279573D01*
X14279716Y23195695D01*
X14220407Y23092970D01*
X14189706Y22978396D01*
X5486400Y22978396D01*
X5486400Y24309313D01*
X44548400Y24309313D01*
X44548400Y24190688D01*
X44579101Y24076114D01*
X44579100Y24076114D01*
X44630463Y23987153D01*
X44638411Y23973387D01*
X44722287Y23889511D01*
X44825014Y23830201D01*
X44939591Y23799500D01*
X44939593Y23799500D01*
X45058207Y23799500D01*
X45058209Y23799500D01*
X45172786Y23830201D01*
X45275513Y23889511D01*
X45359389Y23973387D01*
X45418699Y24076114D01*
X45449400Y24190691D01*
X45449400Y24309309D01*
X45418699Y24423886D01*
X45418698Y24423887D01*
X45418699Y24423887D01*
X45389044Y24475250D01*
X45359389Y24526613D01*
X45275513Y24610489D01*
X45172786Y24669799D01*
X45058212Y24700500D01*
X45058209Y24700500D01*
X44939591Y24700500D01*
X44939587Y24700500D01*
X44825013Y24669799D01*
X44722288Y24610490D01*
X44638410Y24526612D01*
X44579101Y24423887D01*
X44548400Y24309313D01*
X5486400Y24309313D01*
X5486400Y28185800D01*
X5068282Y28185800D01*
X5004213Y28206617D01*
X4964617Y28261117D01*
X4964617Y28328483D01*
X4977652Y28355357D01*
X5039023Y28447206D01*
X5039024Y28447208D01*
X5114647Y28629777D01*
X5147671Y28795800D01*
X3883715Y28795800D01*
X3900000Y28856574D01*
X3900000Y28981713D01*
X14154500Y28981713D01*
X14154500Y28863088D01*
X14185201Y28748514D01*
X14185200Y28748514D01*
X14219613Y28688911D01*
X14244511Y28645787D01*
X14328387Y28561911D01*
X14431114Y28502601D01*
X14545691Y28471900D01*
X14545693Y28471900D01*
X14664307Y28471900D01*
X14664309Y28471900D01*
X14778886Y28502601D01*
X14881613Y28561911D01*
X14965489Y28645787D01*
X15024799Y28748514D01*
X15055500Y28863091D01*
X15055500Y28981709D01*
X15024799Y29096286D01*
X15024799Y29096287D01*
X15017625Y29108713D01*
X24568500Y29108713D01*
X24568500Y28990088D01*
X24599201Y28875514D01*
X24599200Y28875514D01*
X24645224Y28795800D01*
X24658511Y28772787D01*
X24742387Y28688911D01*
X24845114Y28629601D01*
X24959691Y28598900D01*
X24959693Y28598900D01*
X25078307Y28598900D01*
X25078309Y28598900D01*
X25192886Y28629601D01*
X25295613Y28688911D01*
X25379489Y28772787D01*
X25438799Y28875514D01*
X25469500Y28990091D01*
X25469500Y29108709D01*
X25438799Y29223286D01*
X25438798Y29223287D01*
X25438799Y29223287D01*
X25404386Y29282890D01*
X25379489Y29326013D01*
X25295613Y29409889D01*
X25192886Y29469199D01*
X25116329Y29489713D01*
X30537500Y29489713D01*
X30537500Y29371088D01*
X30568201Y29256514D01*
X30568200Y29256514D01*
X30601400Y29199012D01*
X30627511Y29153787D01*
X30711387Y29069911D01*
X30814114Y29010601D01*
X30918452Y28982644D01*
X30927567Y28980201D01*
X30928691Y28979900D01*
X30928693Y28979900D01*
X31047307Y28979900D01*
X31047309Y28979900D01*
X31161886Y29010601D01*
X31264613Y29069911D01*
X31348489Y29153787D01*
X31407799Y29256514D01*
X31438500Y29371091D01*
X31438500Y29459313D01*
X37348400Y29459313D01*
X37348400Y29340688D01*
X37379101Y29226114D01*
X37379100Y29226114D01*
X37394748Y29199012D01*
X37438411Y29123387D01*
X37522287Y29039511D01*
X37625014Y28980201D01*
X37739591Y28949500D01*
X37739593Y28949500D01*
X37858207Y28949500D01*
X37858209Y28949500D01*
X37972786Y28980201D01*
X38075513Y29039511D01*
X38159389Y29123387D01*
X38218699Y29226114D01*
X38249400Y29340691D01*
X38249400Y29459309D01*
X38218699Y29573886D01*
X38218698Y29573887D01*
X38218699Y29573887D01*
X38177115Y29645911D01*
X38159389Y29676613D01*
X38075513Y29760489D01*
X37972786Y29819799D01*
X37858212Y29850500D01*
X37858209Y29850500D01*
X37739591Y29850500D01*
X37739587Y29850500D01*
X37625013Y29819799D01*
X37522288Y29760490D01*
X37438410Y29676612D01*
X37379101Y29573887D01*
X37348400Y29459313D01*
X31438500Y29459313D01*
X31438500Y29489709D01*
X31407799Y29604286D01*
X31407798Y29604287D01*
X31407799Y29604287D01*
X31366041Y29676612D01*
X31348489Y29707013D01*
X31264613Y29790889D01*
X31161886Y29850199D01*
X31160763Y29850500D01*
X31047312Y29880900D01*
X31047309Y29880900D01*
X30928691Y29880900D01*
X30928687Y29880900D01*
X30814113Y29850199D01*
X30711388Y29790890D01*
X30627510Y29707012D01*
X30568201Y29604287D01*
X30537500Y29489713D01*
X25116329Y29489713D01*
X25078312Y29499900D01*
X25078309Y29499900D01*
X24959691Y29499900D01*
X24959687Y29499900D01*
X24845113Y29469199D01*
X24742388Y29409890D01*
X24658510Y29326012D01*
X24599201Y29223287D01*
X24568500Y29108713D01*
X15017625Y29108713D01*
X14991599Y29153789D01*
X14965489Y29199013D01*
X14881613Y29282889D01*
X14778886Y29342199D01*
X14664312Y29372900D01*
X14664309Y29372900D01*
X14545691Y29372900D01*
X14545687Y29372900D01*
X14431113Y29342199D01*
X14328388Y29282890D01*
X14244510Y29199012D01*
X14185201Y29096287D01*
X14154500Y28981713D01*
X3900000Y28981713D01*
X3900000Y28988226D01*
X3883715Y29049000D01*
X5147671Y29049000D01*
X5114647Y29215024D01*
X5039024Y29397593D01*
X5039023Y29397595D01*
X4929237Y29561901D01*
X4789500Y29701638D01*
X4625194Y29811424D01*
X4625192Y29811425D01*
X4442623Y29887048D01*
X4387828Y29897947D01*
X4248805Y29925600D01*
X3526601Y29925600D01*
X3526600Y29925599D01*
X3526600Y29406116D01*
X3465826Y29422400D01*
X3334174Y29422400D01*
X3273400Y29406116D01*
X3273400Y29925599D01*
X3273399Y29925600D01*
X2551194Y29925600D01*
X2357377Y29887048D01*
X2174807Y29811425D01*
X2174805Y29811424D01*
X2010499Y29701638D01*
X1870762Y29561901D01*
X1760976Y29397595D01*
X1760975Y29397593D01*
X1685352Y29215024D01*
X1652329Y29049000D01*
X2916285Y29049000D01*
X2900000Y28988226D01*
X2900000Y28856574D01*
X2916285Y28795800D01*
X1652329Y28795800D01*
X1685352Y28629777D01*
X1760975Y28447208D01*
X1760976Y28447206D01*
X1822348Y28355357D01*
X1840634Y28290521D01*
X1817318Y28227319D01*
X1761305Y28189892D01*
X1731718Y28185800D01*
X1273400Y28185800D01*
X1209331Y28206617D01*
X1169735Y28261117D01*
X1164400Y28294800D01*
X1164400Y29997713D01*
X23806500Y29997713D01*
X23806500Y29879088D01*
X23837201Y29764514D01*
X23837200Y29764514D01*
X23870400Y29707012D01*
X23896511Y29661787D01*
X23980387Y29577911D01*
X24083114Y29518601D01*
X24197691Y29487900D01*
X24197693Y29487900D01*
X24316307Y29487900D01*
X24316309Y29487900D01*
X24430886Y29518601D01*
X24533613Y29577911D01*
X24617489Y29661787D01*
X24676799Y29764514D01*
X24707500Y29879091D01*
X24707500Y29997709D01*
X24689278Y30065713D01*
X29083100Y30065713D01*
X29083100Y29947088D01*
X29113801Y29832514D01*
X29113800Y29832514D01*
X29137833Y29790889D01*
X29173111Y29729787D01*
X29256987Y29645911D01*
X29359714Y29586601D01*
X29474291Y29555900D01*
X29474293Y29555900D01*
X29592907Y29555900D01*
X29592909Y29555900D01*
X29707486Y29586601D01*
X29713730Y29590207D01*
X29715537Y29591249D01*
X29738119Y29604287D01*
X29810213Y29645911D01*
X29894089Y29729787D01*
X29953399Y29832514D01*
X29984100Y29947091D01*
X29984100Y30065709D01*
X29953399Y30180286D01*
X29953398Y30180287D01*
X29953399Y30180287D01*
X29923744Y30231650D01*
X29894089Y30283013D01*
X29810213Y30366889D01*
X29707486Y30426199D01*
X29592912Y30456900D01*
X29592909Y30456900D01*
X29474291Y30456900D01*
X29474287Y30456900D01*
X29359713Y30426199D01*
X29256988Y30366890D01*
X29173110Y30283012D01*
X29113801Y30180287D01*
X29083100Y30065713D01*
X24689278Y30065713D01*
X24676799Y30112286D01*
X24676798Y30112287D01*
X24676799Y30112287D01*
X24637538Y30180287D01*
X24617489Y30215013D01*
X24533613Y30298889D01*
X24430886Y30358199D01*
X24316312Y30388900D01*
X24316309Y30388900D01*
X24197691Y30388900D01*
X24197687Y30388900D01*
X24083113Y30358199D01*
X23980388Y30298890D01*
X23896510Y30215012D01*
X23837201Y30112287D01*
X23806500Y29997713D01*
X1164400Y29997713D01*
X1164400Y32531300D01*
X9895700Y32531300D01*
X9895700Y32268701D01*
X9929973Y32008374D01*
X9929976Y32008358D01*
X9997939Y31754715D01*
X9997942Y31754706D01*
X10098430Y31512106D01*
X10098432Y31512103D01*
X10229728Y31284691D01*
X10389581Y31076367D01*
X10392903Y31073045D01*
X11070884Y31751027D01*
X11084073Y31731289D01*
X11230189Y31585173D01*
X11249924Y31571987D01*
X10571943Y30894005D01*
X10575266Y30890682D01*
X10783590Y30730829D01*
X11011002Y30599533D01*
X11011005Y30599531D01*
X11253605Y30499043D01*
X11253614Y30499040D01*
X11507257Y30431077D01*
X11507273Y30431074D01*
X11767600Y30396800D01*
X12030200Y30396800D01*
X12290526Y30431074D01*
X12290542Y30431077D01*
X12544185Y30499040D01*
X12544194Y30499043D01*
X12786794Y30599531D01*
X12786797Y30599533D01*
X13014209Y30730829D01*
X13222530Y30890679D01*
X13225856Y30894005D01*
X12547875Y31571986D01*
X12567611Y31585173D01*
X12713727Y31731289D01*
X12726914Y31751025D01*
X13404895Y31073044D01*
X13408221Y31076370D01*
X13555043Y31267713D01*
X34728500Y31267713D01*
X34728500Y31149088D01*
X34759201Y31034514D01*
X34759200Y31034514D01*
X34810563Y30945553D01*
X34818511Y30931787D01*
X34902387Y30847911D01*
X35005114Y30788601D01*
X35119691Y30757900D01*
X35119693Y30757900D01*
X35238307Y30757900D01*
X35238309Y30757900D01*
X35352886Y30788601D01*
X35455613Y30847911D01*
X35539489Y30931787D01*
X35598799Y31034514D01*
X35629500Y31149091D01*
X35629500Y31267709D01*
X35598799Y31382286D01*
X35598798Y31382287D01*
X35598799Y31382287D01*
X35547943Y31470370D01*
X35539489Y31485013D01*
X35455613Y31568889D01*
X35352886Y31628199D01*
X35238312Y31658900D01*
X35238309Y31658900D01*
X35119691Y31658900D01*
X35119687Y31658900D01*
X35005113Y31628199D01*
X34902388Y31568890D01*
X34818510Y31485012D01*
X34759201Y31382287D01*
X34728500Y31267713D01*
X13555043Y31267713D01*
X13568071Y31284691D01*
X13593858Y31329353D01*
X13699367Y31512103D01*
X13699369Y31512106D01*
X13799857Y31754706D01*
X13799860Y31754715D01*
X13867823Y32008358D01*
X13867826Y32008374D01*
X13902100Y32268701D01*
X13902100Y32324181D01*
X36245700Y32324181D01*
X36245700Y32175820D01*
X36274645Y32030301D01*
X36274646Y32030298D01*
X36331419Y31893233D01*
X36331421Y31893229D01*
X36384158Y31814301D01*
X36755118Y32185261D01*
X36786960Y32108386D01*
X36857286Y32038060D01*
X36934157Y32006219D01*
X36563199Y31635260D01*
X36642124Y31582524D01*
X36642129Y31582522D01*
X36779197Y31525747D01*
X36779200Y31525746D01*
X36924719Y31496800D01*
X37073080Y31496800D01*
X37218599Y31525746D01*
X37218602Y31525747D01*
X37355670Y31582522D01*
X37355675Y31582524D01*
X37434599Y31635260D01*
X37063640Y32006219D01*
X37140514Y32038060D01*
X37210840Y32108386D01*
X37242681Y32185260D01*
X37613640Y31814301D01*
X37666376Y31893225D01*
X37666378Y31893230D01*
X37723153Y32030298D01*
X37723154Y32030301D01*
X37752100Y32175820D01*
X37752100Y32324181D01*
X37746612Y32351771D01*
X37743803Y32365892D01*
X47698400Y32365892D01*
X47698400Y32234108D01*
X47701923Y32220961D01*
X47732507Y32106815D01*
X47794177Y32000000D01*
X47798400Y31992686D01*
X47891586Y31899500D01*
X48005714Y31833608D01*
X48133008Y31799500D01*
X48264792Y31799500D01*
X48392086Y31833608D01*
X48506214Y31899500D01*
X48599400Y31992686D01*
X48665292Y32106814D01*
X48699400Y32234108D01*
X48699400Y32365892D01*
X48665292Y32493186D01*
X48599400Y32607314D01*
X48506214Y32700500D01*
X48506211Y32700502D01*
X48506210Y32700503D01*
X48490628Y32709499D01*
X48490627Y32709499D01*
X48392085Y32766393D01*
X48272103Y32798541D01*
X50733166Y32798541D01*
X50733166Y32601459D01*
X50771615Y32408166D01*
X50771616Y32408163D01*
X50847034Y32226086D01*
X50956523Y32062223D01*
X50956524Y32062222D01*
X50956527Y32062218D01*
X51095884Y31922861D01*
X51095887Y31922859D01*
X51095888Y31922858D01*
X51140225Y31893233D01*
X51259752Y31813368D01*
X51441831Y31737949D01*
X51635125Y31699500D01*
X51635128Y31699500D01*
X51832203Y31699500D01*
X51832207Y31699500D01*
X52025501Y31737949D01*
X52207580Y31813368D01*
X52371448Y31922861D01*
X52510805Y32062218D01*
X52620298Y32226086D01*
X52695717Y32408165D01*
X52734166Y32601459D01*
X52734166Y32798541D01*
X52695717Y32991835D01*
X52620298Y33173914D01*
X52557088Y33268514D01*
X52510808Y33337778D01*
X52510807Y33337779D01*
X52510805Y33337782D01*
X52371448Y33477139D01*
X52371444Y33477142D01*
X52371443Y33477143D01*
X52207580Y33586632D01*
X52025503Y33662050D01*
X52025505Y33662050D01*
X52025501Y33662051D01*
X51832207Y33700500D01*
X51635125Y33700500D01*
X51441831Y33662051D01*
X51441828Y33662050D01*
X51259751Y33586632D01*
X51095888Y33477143D01*
X50956523Y33337778D01*
X50847034Y33173915D01*
X50771642Y32991901D01*
X50771615Y32991835D01*
X50733166Y32798541D01*
X48272103Y32798541D01*
X48264792Y32800500D01*
X48133008Y32800500D01*
X48005714Y32766393D01*
X47891588Y32700502D01*
X47798398Y32607312D01*
X47732507Y32493186D01*
X47709727Y32408166D01*
X47698400Y32365892D01*
X37743803Y32365892D01*
X37723154Y32469700D01*
X37723153Y32469703D01*
X37666378Y32606771D01*
X37666376Y32606776D01*
X37613640Y32685701D01*
X37242681Y32314743D01*
X37210840Y32391614D01*
X37140514Y32461940D01*
X37063639Y32493782D01*
X37434599Y32864742D01*
X37355671Y32917479D01*
X37355667Y32917481D01*
X37218602Y32974254D01*
X37218599Y32974255D01*
X37073081Y33003200D01*
X36924719Y33003200D01*
X36779200Y32974255D01*
X36779197Y32974254D01*
X36642125Y32917477D01*
X36563198Y32864742D01*
X36934158Y32493782D01*
X36857286Y32461940D01*
X36786960Y32391614D01*
X36755118Y32314742D01*
X36384158Y32685702D01*
X36331423Y32606775D01*
X36274646Y32469703D01*
X36274645Y32469700D01*
X36245700Y32324181D01*
X13902100Y32324181D01*
X13902100Y32531300D01*
X13867826Y32791627D01*
X13867822Y32791650D01*
X13866680Y32795914D01*
X13799860Y33045286D01*
X13799857Y33045295D01*
X13699369Y33287895D01*
X13699367Y33287898D01*
X13603265Y33454353D01*
X13575921Y33501713D01*
X15599500Y33501713D01*
X15599500Y33383088D01*
X15630201Y33268514D01*
X15630200Y33268514D01*
X15661197Y33214827D01*
X15689511Y33165787D01*
X15773387Y33081911D01*
X15876114Y33022601D01*
X15990691Y32991900D01*
X15990693Y32991900D01*
X16109307Y32991900D01*
X16109309Y32991900D01*
X16223886Y33022601D01*
X16326613Y33081911D01*
X16410489Y33165787D01*
X16469799Y33268514D01*
X16500500Y33383091D01*
X16500500Y33501709D01*
X16469799Y33616286D01*
X16469798Y33616287D01*
X16469799Y33616287D01*
X16440144Y33667650D01*
X16410489Y33719013D01*
X16326613Y33802889D01*
X16223886Y33862199D01*
X16109312Y33892900D01*
X16109309Y33892900D01*
X15990691Y33892900D01*
X15990687Y33892900D01*
X15876113Y33862199D01*
X15773388Y33802890D01*
X15689510Y33719012D01*
X15630201Y33616287D01*
X15599500Y33501713D01*
X13575921Y33501713D01*
X13568071Y33515310D01*
X13408218Y33723634D01*
X13404895Y33726957D01*
X12726913Y33048976D01*
X12713727Y33068711D01*
X12567611Y33214827D01*
X12547873Y33228016D01*
X13225855Y33905997D01*
X13222533Y33909319D01*
X13014209Y34069172D01*
X12786797Y34200468D01*
X12786794Y34200470D01*
X12544194Y34300958D01*
X12544185Y34300961D01*
X12393386Y34341367D01*
X12290542Y34368924D01*
X12290526Y34368927D01*
X12030200Y34403200D01*
X11767600Y34403200D01*
X11507273Y34368927D01*
X11507257Y34368924D01*
X11253614Y34300961D01*
X11253605Y34300958D01*
X11011005Y34200470D01*
X11011002Y34200468D01*
X10783590Y34069172D01*
X10575270Y33909322D01*
X10571943Y33905997D01*
X11249925Y33228015D01*
X11230189Y33214827D01*
X11084073Y33068711D01*
X11070885Y33048975D01*
X10392903Y33726957D01*
X10389578Y33723630D01*
X10229728Y33515310D01*
X10098432Y33287898D01*
X10098430Y33287895D01*
X9997942Y33045295D01*
X9997939Y33045286D01*
X9929976Y32791643D01*
X9929973Y32791627D01*
X9895700Y32531300D01*
X1164400Y32531300D01*
X1164400Y32784200D01*
X1185217Y32848269D01*
X1239717Y32887865D01*
X1273400Y32893200D01*
X5403199Y32893200D01*
X5403200Y32893200D01*
X5403200Y34439513D01*
X37650300Y34439513D01*
X37650300Y34320888D01*
X37681001Y34206314D01*
X37681000Y34206314D01*
X37732363Y34117353D01*
X37740311Y34103587D01*
X37824187Y34019711D01*
X37926914Y33960401D01*
X38041491Y33929700D01*
X38041493Y33929700D01*
X38160107Y33929700D01*
X38160109Y33929700D01*
X38274686Y33960401D01*
X38377413Y34019711D01*
X38461289Y34103587D01*
X38520599Y34206314D01*
X38551300Y34320891D01*
X38551300Y34439509D01*
X38520599Y34554086D01*
X38520598Y34554087D01*
X38520599Y34554087D01*
X38490944Y34605450D01*
X38461289Y34656813D01*
X38377413Y34740689D01*
X38274686Y34799999D01*
X38160112Y34830700D01*
X38160109Y34830700D01*
X38041491Y34830700D01*
X38041487Y34830700D01*
X37926913Y34799999D01*
X37824188Y34740690D01*
X37740310Y34656812D01*
X37681001Y34554087D01*
X37650300Y34439513D01*
X5403200Y34439513D01*
X5403200Y35585713D01*
X8972500Y35585713D01*
X8972500Y35467088D01*
X9003201Y35352514D01*
X9003200Y35352514D01*
X9035087Y35297286D01*
X9062511Y35249787D01*
X9146387Y35165911D01*
X9249114Y35106601D01*
X9363691Y35075900D01*
X9363693Y35075900D01*
X9482307Y35075900D01*
X9482309Y35075900D01*
X9596886Y35106601D01*
X9699613Y35165911D01*
X9716415Y35182713D01*
X18939500Y35182713D01*
X18939500Y35064088D01*
X18970201Y34949514D01*
X18970200Y34949514D01*
X19021563Y34860553D01*
X19029511Y34846787D01*
X19113387Y34762911D01*
X19216114Y34703601D01*
X19330691Y34672900D01*
X19330693Y34672900D01*
X19449307Y34672900D01*
X19449309Y34672900D01*
X19563886Y34703601D01*
X19666613Y34762911D01*
X19750489Y34846787D01*
X19809799Y34949514D01*
X19840500Y35064091D01*
X19840500Y35182709D01*
X19809799Y35297286D01*
X19783756Y35342393D01*
X31463500Y35342393D01*
X31463500Y35204407D01*
X31490420Y35069072D01*
X31508021Y35026578D01*
X31543223Y34941593D01*
X31543225Y34941588D01*
X31619882Y34826863D01*
X31619883Y34826862D01*
X31619886Y34826858D01*
X31717458Y34729286D01*
X31717461Y34729284D01*
X31717462Y34729283D01*
X31832187Y34652626D01*
X31832188Y34652626D01*
X31832189Y34652625D01*
X31959672Y34599820D01*
X32095007Y34572900D01*
X32095010Y34572900D01*
X32232989Y34572900D01*
X32232993Y34572900D01*
X32368328Y34599820D01*
X32495811Y34652625D01*
X32610542Y34729286D01*
X32708114Y34826858D01*
X32784775Y34941589D01*
X32837580Y35069072D01*
X32864500Y35204407D01*
X32864500Y35342393D01*
X32837580Y35477728D01*
X32784775Y35605211D01*
X32708114Y35719942D01*
X32610542Y35817514D01*
X32610538Y35817517D01*
X32610537Y35817518D01*
X32495812Y35894175D01*
X32495807Y35894177D01*
X32379327Y35942424D01*
X32368328Y35946980D01*
X32232993Y35973900D01*
X32095007Y35973900D01*
X31972341Y35949500D01*
X31959672Y35946980D01*
X31959669Y35946979D01*
X31832192Y35894177D01*
X31832187Y35894175D01*
X31717462Y35817518D01*
X31619882Y35719938D01*
X31543225Y35605213D01*
X31543223Y35605208D01*
X31513773Y35534108D01*
X31490420Y35477728D01*
X31463500Y35342393D01*
X19783756Y35342393D01*
X19750489Y35400013D01*
X19666613Y35483889D01*
X19563886Y35543199D01*
X19449312Y35573900D01*
X19449309Y35573900D01*
X19330691Y35573900D01*
X19330687Y35573900D01*
X19216113Y35543199D01*
X19113388Y35483890D01*
X19029510Y35400012D01*
X18970201Y35297287D01*
X18939500Y35182713D01*
X9716415Y35182713D01*
X9783489Y35249787D01*
X9842799Y35352514D01*
X9873500Y35467091D01*
X9873500Y35585709D01*
X9842799Y35700286D01*
X9842798Y35700287D01*
X9842799Y35700287D01*
X9813144Y35751650D01*
X9783489Y35803013D01*
X9699613Y35886889D01*
X9596886Y35946199D01*
X9584567Y35949500D01*
X9482312Y35976900D01*
X9482309Y35976900D01*
X9363691Y35976900D01*
X9363687Y35976900D01*
X9249113Y35946199D01*
X9146388Y35886890D01*
X9062510Y35803012D01*
X9003201Y35700287D01*
X8972500Y35585713D01*
X5403200Y35585713D01*
X5403200Y36632193D01*
X20093700Y36632193D01*
X20093700Y36494207D01*
X20118467Y36369695D01*
X20120620Y36358873D01*
X20120621Y36358870D01*
X20173423Y36231393D01*
X20173425Y36231388D01*
X20250082Y36116663D01*
X20250083Y36116662D01*
X20250086Y36116658D01*
X20347658Y36019086D01*
X20347661Y36019084D01*
X20347662Y36019083D01*
X20462387Y35942426D01*
X20462388Y35942426D01*
X20462389Y35942425D01*
X20589872Y35889620D01*
X20725207Y35862700D01*
X20725210Y35862700D01*
X20863189Y35862700D01*
X20863193Y35862700D01*
X20998528Y35889620D01*
X21126011Y35942425D01*
X21240742Y36019086D01*
X21338314Y36116658D01*
X21414975Y36231389D01*
X21467780Y36358872D01*
X21494700Y36494207D01*
X21494700Y36632193D01*
X21467780Y36767528D01*
X21414975Y36895011D01*
X21377898Y36950500D01*
X21338317Y37009738D01*
X21338316Y37009739D01*
X21338314Y37009742D01*
X21240742Y37107314D01*
X21240738Y37107317D01*
X21240737Y37107318D01*
X21126012Y37183975D01*
X21126007Y37183977D01*
X21041022Y37219179D01*
X20998528Y37236780D01*
X20863193Y37263700D01*
X20725207Y37263700D01*
X20589872Y37236780D01*
X20589869Y37236779D01*
X20462392Y37183977D01*
X20462387Y37183975D01*
X20347662Y37107318D01*
X20250082Y37009738D01*
X20173425Y36895013D01*
X20173423Y36895008D01*
X20120621Y36767531D01*
X20120620Y36767528D01*
X20093700Y36632193D01*
X5403200Y36632193D01*
X5403200Y37502713D01*
X22798400Y37502713D01*
X22798400Y37384088D01*
X22829101Y37269514D01*
X22829100Y37269514D01*
X22863330Y37210228D01*
X22888411Y37166787D01*
X22972287Y37082911D01*
X23075014Y37023601D01*
X23189591Y36992900D01*
X23227016Y36992900D01*
X23291085Y36972083D01*
X23304091Y36960975D01*
X23597406Y36667660D01*
X23639795Y36643186D01*
X23666293Y36627887D01*
X23743127Y36607300D01*
X23743128Y36607300D01*
X23822672Y36607300D01*
X39868528Y36607300D01*
X39888496Y36607300D01*
X39952565Y36586483D01*
X39965564Y36575381D01*
X39972287Y36568658D01*
X40075014Y36509348D01*
X40189591Y36478647D01*
X40189593Y36478647D01*
X40308207Y36478647D01*
X40308209Y36478647D01*
X40422786Y36509348D01*
X40525513Y36568658D01*
X40551978Y36595124D01*
X40612000Y36625705D01*
X40629051Y36627047D01*
X46217820Y36627047D01*
X46256236Y36637341D01*
X46294654Y36647634D01*
X46363541Y36687407D01*
X46740640Y37064506D01*
X46780413Y37133393D01*
X46801000Y37210228D01*
X46801000Y37289772D01*
X46801000Y38369849D01*
X46821817Y38433918D01*
X46832919Y38446918D01*
X46859389Y38473387D01*
X46918699Y38576114D01*
X46949400Y38690691D01*
X46949400Y38809309D01*
X46918699Y38923886D01*
X46918698Y38923887D01*
X46918699Y38923887D01*
X46889044Y38975250D01*
X46859389Y39026613D01*
X46775513Y39110489D01*
X46672786Y39169799D01*
X46558212Y39200500D01*
X46558209Y39200500D01*
X46439591Y39200500D01*
X46439587Y39200500D01*
X46325013Y39169799D01*
X46222288Y39110490D01*
X46138410Y39026612D01*
X46079101Y38923887D01*
X46048400Y38809313D01*
X46048400Y38690688D01*
X46079101Y38576114D01*
X46079100Y38576114D01*
X46130463Y38487153D01*
X46138411Y38473387D01*
X46164876Y38446922D01*
X46195458Y38386900D01*
X46196800Y38369849D01*
X46196800Y37420284D01*
X46194082Y37411920D01*
X46195458Y37403233D01*
X46183870Y37380491D01*
X46175983Y37356215D01*
X46164875Y37343209D01*
X46084838Y37263172D01*
X46024814Y37232589D01*
X46007763Y37231247D01*
X40629051Y37231247D01*
X40564982Y37252064D01*
X40551982Y37263167D01*
X40525513Y37289636D01*
X40422786Y37348946D01*
X40308212Y37379647D01*
X40308209Y37379647D01*
X40189591Y37379647D01*
X40189587Y37379647D01*
X40075013Y37348946D01*
X39972287Y37289636D01*
X39972283Y37289634D01*
X39943925Y37261276D01*
X39895065Y37233067D01*
X39858914Y37223380D01*
X39828435Y37215214D01*
X39800227Y37211500D01*
X39198751Y37211500D01*
X39134682Y37232317D01*
X39095086Y37286817D01*
X39095086Y37354183D01*
X39121674Y37397573D01*
X39197489Y37473387D01*
X39256799Y37576114D01*
X39287500Y37690691D01*
X39287500Y37809309D01*
X39256799Y37923886D01*
X39256798Y37923887D01*
X39256799Y37923887D01*
X39227144Y37975250D01*
X39197489Y38026613D01*
X39113613Y38110489D01*
X39010886Y38169799D01*
X38896312Y38200500D01*
X38896309Y38200500D01*
X38777691Y38200500D01*
X38777687Y38200500D01*
X38663113Y38169799D01*
X38560388Y38110490D01*
X38476510Y38026612D01*
X38417201Y37923887D01*
X38386500Y37809313D01*
X38386500Y37690688D01*
X38417201Y37576114D01*
X38417200Y37576114D01*
X38459579Y37502713D01*
X38476511Y37473387D01*
X38552325Y37397573D01*
X38582907Y37337551D01*
X38572369Y37271015D01*
X38524734Y37223380D01*
X38475249Y37211500D01*
X23953184Y37211500D01*
X23944819Y37214218D01*
X23936133Y37212842D01*
X23913390Y37224430D01*
X23889115Y37232317D01*
X23876109Y37243425D01*
X23731325Y37388209D01*
X23700742Y37448233D01*
X23699400Y37465284D01*
X23699400Y37502707D01*
X23699399Y37502713D01*
X23679731Y37576114D01*
X23668699Y37617286D01*
X23668698Y37617287D01*
X23668699Y37617287D01*
X23626316Y37690694D01*
X23609389Y37720013D01*
X23525513Y37803889D01*
X23422786Y37863199D01*
X23308212Y37893900D01*
X23308209Y37893900D01*
X23189591Y37893900D01*
X23189587Y37893900D01*
X23075013Y37863199D01*
X22972288Y37803890D01*
X22888410Y37720012D01*
X22829101Y37617287D01*
X22798400Y37502713D01*
X5403200Y37502713D01*
X5403200Y39675113D01*
X8972500Y39675113D01*
X8972500Y39556488D01*
X9003201Y39441914D01*
X9003200Y39441914D01*
X9054563Y39352953D01*
X9062511Y39339187D01*
X9146387Y39255311D01*
X9249114Y39196001D01*
X9363691Y39165300D01*
X9363693Y39165300D01*
X9482307Y39165300D01*
X9482309Y39165300D01*
X9596886Y39196001D01*
X9699613Y39255311D01*
X9753615Y39309313D01*
X39043400Y39309313D01*
X39043400Y39190688D01*
X39074101Y39076114D01*
X39074100Y39076114D01*
X39102681Y39026612D01*
X39133411Y38973387D01*
X39217287Y38889511D01*
X39320014Y38830201D01*
X39434591Y38799500D01*
X39434593Y38799500D01*
X39553207Y38799500D01*
X39553209Y38799500D01*
X39667786Y38830201D01*
X39770513Y38889511D01*
X39854389Y38973387D01*
X39913699Y39076114D01*
X39944400Y39190691D01*
X39944400Y39309309D01*
X39913699Y39423886D01*
X39913698Y39423887D01*
X39913699Y39423887D01*
X39870308Y39499040D01*
X39854389Y39526613D01*
X39770513Y39610489D01*
X39667786Y39669799D01*
X39553212Y39700500D01*
X39553209Y39700500D01*
X39434591Y39700500D01*
X39434587Y39700500D01*
X39320013Y39669799D01*
X39217288Y39610490D01*
X39133410Y39526612D01*
X39074101Y39423887D01*
X39043400Y39309313D01*
X9753615Y39309313D01*
X9783489Y39339187D01*
X9842799Y39441914D01*
X9873500Y39556491D01*
X9873500Y39675109D01*
X9842799Y39789686D01*
X9842798Y39789687D01*
X9842799Y39789687D01*
X9799367Y39864911D01*
X9783489Y39892413D01*
X9699613Y39976289D01*
X9596886Y40035599D01*
X9482312Y40066300D01*
X9482309Y40066300D01*
X9363691Y40066300D01*
X9363687Y40066300D01*
X9249113Y40035599D01*
X9146388Y39976290D01*
X9062510Y39892412D01*
X9003201Y39789687D01*
X8972500Y39675113D01*
X5403200Y39675113D01*
X5403200Y40626513D01*
X14907500Y40626513D01*
X14907500Y40507888D01*
X14938201Y40393314D01*
X14938200Y40393314D01*
X14977289Y40325612D01*
X14997511Y40290587D01*
X15081387Y40206711D01*
X15184114Y40147401D01*
X15298691Y40116700D01*
X15336116Y40116700D01*
X15400185Y40095883D01*
X15413191Y40084775D01*
X15624260Y39873706D01*
X15624259Y39873706D01*
X15680503Y39817463D01*
X15680506Y39817460D01*
X15749394Y39777687D01*
X15826227Y39757100D01*
X15826228Y39757100D01*
X15905772Y39757100D01*
X26533648Y39757100D01*
X26597717Y39736283D01*
X26610722Y39725176D01*
X26647387Y39688511D01*
X26750114Y39629201D01*
X26864691Y39598500D01*
X26864693Y39598500D01*
X26983307Y39598500D01*
X26983309Y39598500D01*
X27097886Y39629201D01*
X27200613Y39688511D01*
X27284489Y39772387D01*
X27343799Y39875114D01*
X27374500Y39989691D01*
X27374500Y40108309D01*
X27343799Y40222886D01*
X27343798Y40222887D01*
X27343799Y40222887D01*
X27314144Y40274250D01*
X27284489Y40325613D01*
X27205874Y40404228D01*
X27175293Y40464249D01*
X27185831Y40530785D01*
X27233466Y40578420D01*
X27282951Y40590300D01*
X27695690Y40590300D01*
X27759759Y40569483D01*
X27799355Y40514983D01*
X27799355Y40447617D01*
X27790088Y40426805D01*
X27786631Y40420815D01*
X27774200Y40399285D01*
X27743500Y40284713D01*
X27743500Y40166088D01*
X27774201Y40051514D01*
X27774200Y40051514D01*
X27825563Y39962553D01*
X27833511Y39948787D01*
X27917387Y39864911D01*
X28020114Y39805601D01*
X28134691Y39774900D01*
X28134693Y39774900D01*
X28253307Y39774900D01*
X28253309Y39774900D01*
X28367886Y39805601D01*
X28470613Y39864911D01*
X28554489Y39948787D01*
X28576363Y39986675D01*
X28580394Y39993655D01*
X28580395Y39993657D01*
X28613797Y40051510D01*
X28613797Y40051511D01*
X28613799Y40051514D01*
X28644500Y40166091D01*
X28644500Y40284709D01*
X28642924Y40290589D01*
X28618399Y40382117D01*
X28613799Y40399286D01*
X28597913Y40426801D01*
X28583907Y40492692D01*
X28611306Y40554234D01*
X28669646Y40587918D01*
X28692310Y40590300D01*
X38397248Y40590300D01*
X38461317Y40569483D01*
X38474322Y40558375D01*
X38517715Y40514983D01*
X38534587Y40498111D01*
X38637314Y40438801D01*
X38751891Y40408100D01*
X38751893Y40408100D01*
X38870507Y40408100D01*
X38870509Y40408100D01*
X38985086Y40438801D01*
X39087813Y40498111D01*
X39171689Y40581987D01*
X39230999Y40684714D01*
X39261700Y40799291D01*
X39261700Y40917909D01*
X39230999Y41032486D01*
X39230998Y41032487D01*
X39230999Y41032487D01*
X39195477Y41094012D01*
X39171689Y41135213D01*
X39087813Y41219089D01*
X38985086Y41278399D01*
X38870512Y41309100D01*
X38870509Y41309100D01*
X38751891Y41309100D01*
X38751887Y41309100D01*
X38637313Y41278399D01*
X38534587Y41219089D01*
X38531895Y41217023D01*
X38529604Y41216213D01*
X38528401Y41215517D01*
X38528272Y41215741D01*
X38468393Y41194537D01*
X38465542Y41194500D01*
X29417936Y41194500D01*
X29353867Y41215317D01*
X29314271Y41269817D01*
X29314271Y41337183D01*
X29323537Y41357995D01*
X29375799Y41448514D01*
X29405488Y41559313D01*
X45948400Y41559313D01*
X45948400Y41440688D01*
X45979101Y41326114D01*
X45979100Y41326114D01*
X46016169Y41261911D01*
X46038411Y41223387D01*
X46122287Y41139511D01*
X46225014Y41080201D01*
X46339591Y41049500D01*
X46339593Y41049500D01*
X46458207Y41049500D01*
X46458209Y41049500D01*
X46572786Y41080201D01*
X46675513Y41139511D01*
X46759389Y41223387D01*
X46818699Y41326114D01*
X46849400Y41440691D01*
X46849400Y41531300D01*
X54245700Y41531300D01*
X54245700Y41268701D01*
X54279973Y41008374D01*
X54279976Y41008358D01*
X54347939Y40754715D01*
X54347942Y40754706D01*
X54448430Y40512106D01*
X54448432Y40512103D01*
X54579728Y40284691D01*
X54739581Y40076367D01*
X54742903Y40073045D01*
X55420884Y40751027D01*
X55434073Y40731289D01*
X55580189Y40585173D01*
X55599924Y40571987D01*
X54921943Y39894005D01*
X54925266Y39890682D01*
X55133590Y39730829D01*
X55361002Y39599533D01*
X55361005Y39599531D01*
X55603605Y39499043D01*
X55603614Y39499040D01*
X55857257Y39431077D01*
X55857273Y39431074D01*
X56117600Y39396800D01*
X56380200Y39396800D01*
X56640526Y39431074D01*
X56640542Y39431077D01*
X56894185Y39499040D01*
X56894194Y39499043D01*
X57136794Y39599531D01*
X57136797Y39599533D01*
X57364209Y39730829D01*
X57572530Y39890679D01*
X57575856Y39894005D01*
X56897875Y40571986D01*
X56917611Y40585173D01*
X57063727Y40731289D01*
X57076914Y40751025D01*
X57754895Y40073044D01*
X57758221Y40076370D01*
X57918071Y40284691D01*
X58049367Y40512103D01*
X58049369Y40512106D01*
X58149857Y40754706D01*
X58149860Y40754715D01*
X58217823Y41008358D01*
X58217826Y41008374D01*
X58252100Y41268701D01*
X58252100Y41531300D01*
X58217826Y41791627D01*
X58217823Y41791643D01*
X58149860Y42045286D01*
X58149857Y42045295D01*
X58049369Y42287895D01*
X58049367Y42287898D01*
X57918071Y42515310D01*
X57758218Y42723634D01*
X57754895Y42726957D01*
X57076913Y42048976D01*
X57063727Y42068711D01*
X56917611Y42214827D01*
X56897873Y42228016D01*
X57575855Y42905997D01*
X57572533Y42909319D01*
X57364209Y43069172D01*
X57136797Y43200468D01*
X57136794Y43200470D01*
X56894194Y43300958D01*
X56894185Y43300961D01*
X56640542Y43368924D01*
X56640526Y43368927D01*
X56380200Y43403200D01*
X56117600Y43403200D01*
X55857273Y43368927D01*
X55857257Y43368924D01*
X55603614Y43300961D01*
X55603605Y43300958D01*
X55361005Y43200470D01*
X55361002Y43200468D01*
X55133590Y43069172D01*
X54925270Y42909322D01*
X54921943Y42905997D01*
X55599925Y42228015D01*
X55580189Y42214827D01*
X55434073Y42068711D01*
X55420885Y42048975D01*
X54742903Y42726957D01*
X54739578Y42723630D01*
X54579728Y42515310D01*
X54448432Y42287898D01*
X54448430Y42287895D01*
X54347942Y42045295D01*
X54347939Y42045286D01*
X54279976Y41791643D01*
X54279973Y41791627D01*
X54245700Y41531300D01*
X46849400Y41531300D01*
X46849400Y41559309D01*
X46818699Y41673886D01*
X46818698Y41673887D01*
X46818699Y41673887D01*
X46789044Y41725250D01*
X46759389Y41776613D01*
X46675513Y41860489D01*
X46572786Y41919799D01*
X46458212Y41950500D01*
X46458209Y41950500D01*
X46339591Y41950500D01*
X46339587Y41950500D01*
X46225013Y41919799D01*
X46122288Y41860490D01*
X46038410Y41776612D01*
X45979101Y41673887D01*
X45948400Y41559313D01*
X29405488Y41559313D01*
X29406500Y41563091D01*
X29406500Y41681709D01*
X29375799Y41796286D01*
X29375798Y41796287D01*
X29375799Y41796287D01*
X29338730Y41860490D01*
X29316489Y41899013D01*
X29232613Y41982889D01*
X29129886Y42042199D01*
X29015312Y42072900D01*
X29015309Y42072900D01*
X28896691Y42072900D01*
X28896687Y42072900D01*
X28782113Y42042199D01*
X28679388Y41982890D01*
X28595510Y41899012D01*
X28536201Y41796287D01*
X28505500Y41681713D01*
X28505500Y41563088D01*
X28536201Y41448514D01*
X28536200Y41448514D01*
X28540719Y41440688D01*
X28588460Y41357999D01*
X28602467Y41292108D01*
X28575068Y41230566D01*
X28516728Y41196882D01*
X28494064Y41194500D01*
X18726951Y41194500D01*
X18662882Y41215317D01*
X18649882Y41226420D01*
X18648813Y41227489D01*
X18546086Y41286799D01*
X18526273Y41292108D01*
X18431512Y41317500D01*
X18431509Y41317500D01*
X18312891Y41317500D01*
X18312887Y41317500D01*
X18198313Y41286799D01*
X18095588Y41227490D01*
X18011710Y41143612D01*
X17952401Y41040887D01*
X17921700Y40926313D01*
X17921700Y40807688D01*
X17952401Y40693114D01*
X17952400Y40693114D01*
X17990853Y40626513D01*
X18011711Y40590387D01*
X18054725Y40547373D01*
X18085307Y40487351D01*
X18074769Y40420815D01*
X18027134Y40373180D01*
X17977649Y40361300D01*
X16036284Y40361300D01*
X16027919Y40364018D01*
X16019233Y40362642D01*
X15996490Y40374230D01*
X15972215Y40382117D01*
X15959209Y40393225D01*
X15840425Y40512009D01*
X15809842Y40572033D01*
X15808500Y40589084D01*
X15808500Y40626507D01*
X15808499Y40626513D01*
X15790653Y40693114D01*
X15777799Y40741086D01*
X15777798Y40741087D01*
X15777799Y40741087D01*
X15739344Y40807691D01*
X15718489Y40843813D01*
X15634613Y40927689D01*
X15531886Y40986999D01*
X15417312Y41017700D01*
X15417309Y41017700D01*
X15298691Y41017700D01*
X15298687Y41017700D01*
X15184113Y40986999D01*
X15081388Y40927690D01*
X14997510Y40843812D01*
X14938201Y40741087D01*
X14907500Y40626513D01*
X5403200Y40626513D01*
X5403200Y42443713D01*
X24441500Y42443713D01*
X24441500Y42325088D01*
X24472201Y42210514D01*
X24472200Y42210514D01*
X24523563Y42121553D01*
X24531511Y42107787D01*
X24615387Y42023911D01*
X24718114Y41964601D01*
X24832691Y41933900D01*
X24832693Y41933900D01*
X24951307Y41933900D01*
X24951309Y41933900D01*
X25065886Y41964601D01*
X25168613Y42023911D01*
X25252489Y42107787D01*
X25311799Y42210514D01*
X25342500Y42325091D01*
X25342500Y42443709D01*
X25311799Y42558286D01*
X25311798Y42558287D01*
X25311799Y42558287D01*
X25274653Y42622624D01*
X25252489Y42661013D01*
X25168613Y42744889D01*
X25065886Y42804199D01*
X24951312Y42834900D01*
X24951309Y42834900D01*
X24832691Y42834900D01*
X24832687Y42834900D01*
X24718113Y42804199D01*
X24615388Y42744890D01*
X24531510Y42661012D01*
X24472201Y42558287D01*
X24441500Y42443713D01*
X5403200Y42443713D01*
X5403200Y43312393D01*
X17824500Y43312393D01*
X17824500Y43174407D01*
X17851420Y43039073D01*
X17851421Y43039070D01*
X17904223Y42911593D01*
X17904225Y42911588D01*
X17980882Y42796863D01*
X17980883Y42796862D01*
X17980886Y42796858D01*
X18078458Y42699286D01*
X18078461Y42699284D01*
X18078462Y42699283D01*
X18193187Y42622626D01*
X18193188Y42622626D01*
X18193189Y42622625D01*
X18320672Y42569820D01*
X18456007Y42542900D01*
X18456010Y42542900D01*
X18593989Y42542900D01*
X18593993Y42542900D01*
X18729328Y42569820D01*
X18856811Y42622625D01*
X18971542Y42699286D01*
X19069114Y42796858D01*
X19145775Y42911589D01*
X19198580Y43039072D01*
X19208158Y43087228D01*
X19241074Y43146003D01*
X19302252Y43174206D01*
X19368323Y43161064D01*
X19369566Y43160358D01*
X19372504Y43158662D01*
X19372506Y43158660D01*
X19403634Y43140688D01*
X19441393Y43118887D01*
X19518227Y43098300D01*
X19518228Y43098300D01*
X25250469Y43098300D01*
X25314538Y43077483D01*
X25351172Y43031012D01*
X25353201Y43026114D01*
X25412511Y42923387D01*
X25496387Y42839511D01*
X25599114Y42780201D01*
X25713691Y42749500D01*
X25713693Y42749500D01*
X25832307Y42749500D01*
X25832309Y42749500D01*
X25946886Y42780201D01*
X26049613Y42839511D01*
X26133489Y42923387D01*
X26192799Y43026114D01*
X26223500Y43140691D01*
X26223500Y43259309D01*
X26192799Y43373886D01*
X26192798Y43373887D01*
X26192799Y43373887D01*
X26150164Y43447731D01*
X26133489Y43476613D01*
X26058247Y43551855D01*
X26027666Y43611876D01*
X26038204Y43678412D01*
X26058247Y43705999D01*
X26128305Y43776056D01*
X26187615Y43878783D01*
X26218316Y43993360D01*
X26218316Y44111978D01*
X26187615Y44226555D01*
X26187614Y44226556D01*
X26187615Y44226556D01*
X26145499Y44299501D01*
X26128305Y44329282D01*
X26044429Y44413158D01*
X25941702Y44472468D01*
X25929614Y44475707D01*
X25827128Y44503169D01*
X25827125Y44503169D01*
X25708507Y44503169D01*
X25708503Y44503169D01*
X25593929Y44472468D01*
X25491204Y44413159D01*
X25407326Y44329281D01*
X25348017Y44226556D01*
X25317316Y44111982D01*
X25317316Y43993357D01*
X25348017Y43878783D01*
X25348017Y43878781D01*
X25355396Y43866002D01*
X25369404Y43800109D01*
X25342006Y43738567D01*
X25283666Y43704883D01*
X25261001Y43702500D01*
X19728284Y43702500D01*
X19664215Y43723317D01*
X19651209Y43734425D01*
X19024425Y44361209D01*
X18993842Y44421233D01*
X18992500Y44438284D01*
X18992500Y44475707D01*
X18992499Y44475713D01*
X18979533Y44524102D01*
X18961799Y44590286D01*
X18961798Y44590287D01*
X18961799Y44590287D01*
X18932144Y44641650D01*
X18902489Y44693013D01*
X18818613Y44776889D01*
X18762453Y44809313D01*
X24048400Y44809313D01*
X24048400Y44690688D01*
X24079101Y44576114D01*
X24079100Y44576114D01*
X24109130Y44524102D01*
X24138411Y44473387D01*
X24222287Y44389511D01*
X24325014Y44330201D01*
X24439591Y44299500D01*
X24439593Y44299500D01*
X24558207Y44299500D01*
X24558209Y44299500D01*
X24672786Y44330201D01*
X24775513Y44389511D01*
X24859389Y44473387D01*
X24918699Y44576114D01*
X24949400Y44690691D01*
X24949400Y44809309D01*
X24918699Y44923886D01*
X24918698Y44923887D01*
X24918699Y44923887D01*
X24875042Y44999501D01*
X24859389Y45026613D01*
X24775513Y45110489D01*
X24672786Y45169799D01*
X24558212Y45200500D01*
X24558209Y45200500D01*
X24439591Y45200500D01*
X24439587Y45200500D01*
X24325013Y45169799D01*
X24222288Y45110490D01*
X24138410Y45026612D01*
X24079101Y44923887D01*
X24048400Y44809313D01*
X18762453Y44809313D01*
X18715886Y44836199D01*
X18601312Y44866900D01*
X18601309Y44866900D01*
X18482691Y44866900D01*
X18482687Y44866900D01*
X18368113Y44836199D01*
X18265388Y44776890D01*
X18181510Y44693012D01*
X18122201Y44590287D01*
X18091500Y44475713D01*
X18091500Y44357088D01*
X18122201Y44242514D01*
X18122200Y44242514D01*
X18173563Y44153553D01*
X18181511Y44139787D01*
X18264469Y44056829D01*
X18295051Y43996807D01*
X18284513Y43930271D01*
X18236878Y43882636D01*
X18229107Y43879054D01*
X18193194Y43864179D01*
X18193187Y43864175D01*
X18078462Y43787518D01*
X17980882Y43689938D01*
X17904225Y43575213D01*
X17904223Y43575208D01*
X17863384Y43476612D01*
X17851420Y43447728D01*
X17824500Y43312393D01*
X5403200Y43312393D01*
X5403200Y43995600D01*
X5234678Y43995600D01*
X5170609Y44016417D01*
X5168386Y44018513D01*
X8947100Y44018513D01*
X8947100Y43899888D01*
X8977801Y43785314D01*
X8977800Y43785314D01*
X9007182Y43734425D01*
X9037111Y43682587D01*
X9120987Y43598711D01*
X9223714Y43539401D01*
X9338291Y43508700D01*
X9338293Y43508700D01*
X9456907Y43508700D01*
X9456909Y43508700D01*
X9571486Y43539401D01*
X9674213Y43598711D01*
X9758089Y43682587D01*
X9817399Y43785314D01*
X9848100Y43899891D01*
X9848100Y44018509D01*
X9817399Y44133086D01*
X9817398Y44133087D01*
X9817399Y44133087D01*
X9763434Y44226555D01*
X9758089Y44235813D01*
X9674213Y44319689D01*
X9571486Y44378999D01*
X9456912Y44409700D01*
X9456909Y44409700D01*
X9338291Y44409700D01*
X9338287Y44409700D01*
X9223713Y44378999D01*
X9120988Y44319690D01*
X9037110Y44235812D01*
X8977801Y44133087D01*
X8947100Y44018513D01*
X5168386Y44018513D01*
X5150420Y44035452D01*
X5147672Y44038800D01*
X3883715Y44038800D01*
X3900000Y44099574D01*
X3900000Y44231226D01*
X3883715Y44292000D01*
X5147671Y44292000D01*
X5114647Y44458024D01*
X5039024Y44640593D01*
X5039023Y44640595D01*
X4929237Y44804901D01*
X4789500Y44944638D01*
X4625194Y45054424D01*
X4625192Y45054425D01*
X4442622Y45130048D01*
X4248805Y45168600D01*
X3526601Y45168600D01*
X3526600Y45168599D01*
X3526600Y44649116D01*
X3465826Y44665400D01*
X3334174Y44665400D01*
X3273400Y44649116D01*
X3273400Y45168599D01*
X3273399Y45168600D01*
X2551194Y45168600D01*
X2357377Y45130048D01*
X2174807Y45054425D01*
X2174805Y45054424D01*
X2010499Y44944638D01*
X1870762Y44804901D01*
X1760976Y44640595D01*
X1760975Y44640593D01*
X1685352Y44458024D01*
X1652329Y44292000D01*
X2916285Y44292000D01*
X2900000Y44231226D01*
X2900000Y44099574D01*
X2916285Y44038800D01*
X1652328Y44038800D01*
X1649580Y44035452D01*
X1632014Y44024208D01*
X1617715Y44009018D01*
X1602000Y44004994D01*
X1592844Y43999132D01*
X1581682Y43999791D01*
X1565322Y43995600D01*
X1273400Y43995600D01*
X1209331Y44016417D01*
X1169735Y44070917D01*
X1164400Y44104600D01*
X1164400Y45959313D01*
X21048400Y45959313D01*
X21048400Y45840688D01*
X21079101Y45726114D01*
X21079100Y45726114D01*
X21114738Y45664389D01*
X21138411Y45623387D01*
X21222287Y45539511D01*
X21325014Y45480201D01*
X21439591Y45449500D01*
X21439593Y45449500D01*
X21558207Y45449500D01*
X21558209Y45449500D01*
X21672786Y45480201D01*
X21775513Y45539511D01*
X21842978Y45606977D01*
X21903000Y45637558D01*
X21920051Y45638900D01*
X25107412Y45638900D01*
X25171481Y45618083D01*
X25211077Y45563583D01*
X25212698Y45501689D01*
X25191000Y45420714D01*
X25191000Y45302089D01*
X25221701Y45187515D01*
X25221700Y45187515D01*
X25254880Y45130048D01*
X25281011Y45084788D01*
X25364887Y45000912D01*
X25467614Y44941602D01*
X25582191Y44910901D01*
X25582193Y44910901D01*
X25700807Y44910901D01*
X25700809Y44910901D01*
X25815386Y44941602D01*
X25918113Y45000912D01*
X25920414Y45003213D01*
X27354500Y45003213D01*
X27354500Y44884588D01*
X27385201Y44770014D01*
X27385200Y44770014D01*
X27431000Y44690688D01*
X27444511Y44667287D01*
X27528387Y44583411D01*
X27631114Y44524101D01*
X27745691Y44493400D01*
X27745693Y44493400D01*
X27864307Y44493400D01*
X27864309Y44493400D01*
X27978886Y44524101D01*
X28081613Y44583411D01*
X28165489Y44667287D01*
X28224799Y44770014D01*
X28255500Y44884591D01*
X28255500Y45003209D01*
X28224799Y45117786D01*
X28224798Y45117787D01*
X28224799Y45117787D01*
X28192696Y45173389D01*
X28165489Y45220513D01*
X28081613Y45304389D01*
X27978886Y45363699D01*
X27864312Y45394400D01*
X27864309Y45394400D01*
X27745691Y45394400D01*
X27745687Y45394400D01*
X27631113Y45363699D01*
X27528388Y45304390D01*
X27444510Y45220512D01*
X27385201Y45117787D01*
X27354500Y45003213D01*
X25920414Y45003213D01*
X26001989Y45084788D01*
X26061299Y45187515D01*
X26092000Y45302092D01*
X26092000Y45420710D01*
X26084286Y45449500D01*
X26070302Y45501689D01*
X26071923Y45532617D01*
X26071923Y45563583D01*
X26073672Y45565991D01*
X26073828Y45568962D01*
X26093313Y45593026D01*
X26111519Y45618083D01*
X26114349Y45619003D01*
X26116222Y45621315D01*
X26175588Y45638900D01*
X26368749Y45638900D01*
X26432818Y45618083D01*
X26445817Y45606981D01*
X26472287Y45580511D01*
X26575014Y45521201D01*
X26689591Y45490500D01*
X26689593Y45490500D01*
X26808207Y45490500D01*
X26808209Y45490500D01*
X26878420Y45509313D01*
X49548400Y45509313D01*
X49548400Y45390688D01*
X49579101Y45276114D01*
X49579100Y45276114D01*
X49611203Y45220512D01*
X49638411Y45173387D01*
X49722287Y45089511D01*
X49825014Y45030201D01*
X49939591Y44999500D01*
X49939593Y44999500D01*
X50058207Y44999500D01*
X50058209Y44999500D01*
X50172786Y45030201D01*
X50275513Y45089511D01*
X50359389Y45173387D01*
X50418699Y45276114D01*
X50449400Y45390691D01*
X50449400Y45509309D01*
X50418699Y45623886D01*
X50418698Y45623887D01*
X50418699Y45623887D01*
X50389044Y45675250D01*
X50359389Y45726613D01*
X50275513Y45810489D01*
X50172786Y45869799D01*
X50058212Y45900500D01*
X50058209Y45900500D01*
X49939591Y45900500D01*
X49939587Y45900500D01*
X49825013Y45869799D01*
X49722288Y45810490D01*
X49638410Y45726612D01*
X49579101Y45623887D01*
X49548400Y45509313D01*
X26878420Y45509313D01*
X26922786Y45521201D01*
X27025513Y45580511D01*
X27109389Y45664387D01*
X27168699Y45767114D01*
X27199400Y45881691D01*
X27199400Y46000309D01*
X27168699Y46114886D01*
X27168698Y46114887D01*
X27168699Y46114887D01*
X27133061Y46176612D01*
X27109389Y46217613D01*
X27025513Y46301489D01*
X26922786Y46360799D01*
X26837640Y46383614D01*
X26781142Y46420304D01*
X26757000Y46483195D01*
X26774436Y46548266D01*
X26826789Y46590660D01*
X26865851Y46597900D01*
X28315873Y46597900D01*
X28354289Y46608194D01*
X28392707Y46618487D01*
X28392709Y46618489D01*
X28397688Y46620550D01*
X28464846Y46625835D01*
X28522284Y46590637D01*
X28548064Y46528399D01*
X28548400Y46519847D01*
X28548400Y46427688D01*
X28579101Y46313114D01*
X28579100Y46313114D01*
X28612711Y46254900D01*
X28638411Y46210387D01*
X28722287Y46126511D01*
X28825014Y46067201D01*
X28939591Y46036500D01*
X28939593Y46036500D01*
X29058207Y46036500D01*
X29058209Y46036500D01*
X29143348Y46059313D01*
X48448400Y46059313D01*
X48448400Y45940688D01*
X48479101Y45826114D01*
X48479100Y45826114D01*
X48513165Y45767114D01*
X48538411Y45723387D01*
X48622287Y45639511D01*
X48725014Y45580201D01*
X48839591Y45549500D01*
X48839593Y45549500D01*
X48958207Y45549500D01*
X48958209Y45549500D01*
X49072786Y45580201D01*
X49175513Y45639511D01*
X49259389Y45723387D01*
X49318699Y45826114D01*
X49349400Y45940691D01*
X49349400Y46059309D01*
X49318699Y46173886D01*
X49318698Y46173887D01*
X49318699Y46173887D01*
X49271925Y46254900D01*
X49259389Y46276613D01*
X49175513Y46360489D01*
X49072786Y46419799D01*
X49069438Y46420696D01*
X48958212Y46450500D01*
X48958209Y46450500D01*
X48839591Y46450500D01*
X48839587Y46450500D01*
X48725013Y46419799D01*
X48622288Y46360490D01*
X48538410Y46276612D01*
X48479101Y46173887D01*
X48448400Y46059313D01*
X29143348Y46059313D01*
X29172786Y46067201D01*
X29275513Y46126511D01*
X29359389Y46210387D01*
X29390077Y46263541D01*
X29395691Y46270398D01*
X29416937Y46284037D01*
X29435700Y46300930D01*
X29444736Y46301880D01*
X29452383Y46306788D01*
X29477589Y46305334D01*
X29502697Y46307972D01*
X29515232Y46303161D01*
X29519637Y46302906D01*
X29522941Y46300202D01*
X29534532Y46295752D01*
X29552114Y46285601D01*
X29666691Y46254900D01*
X29666693Y46254900D01*
X29785307Y46254900D01*
X29785309Y46254900D01*
X29899886Y46285601D01*
X30002613Y46344911D01*
X30086489Y46428787D01*
X30145799Y46531514D01*
X30176500Y46646091D01*
X30176500Y46764709D01*
X30168506Y46794544D01*
X30147728Y46872089D01*
X30151254Y46939362D01*
X30193649Y46991715D01*
X30253014Y47009300D01*
X31769849Y47009300D01*
X31833918Y46988483D01*
X31846917Y46977381D01*
X31873387Y46950911D01*
X31976114Y46891601D01*
X32090691Y46860900D01*
X32090693Y46860900D01*
X32209307Y46860900D01*
X32209309Y46860900D01*
X32323886Y46891601D01*
X32426613Y46950911D01*
X32510489Y47034787D01*
X32569799Y47137514D01*
X32600500Y47252091D01*
X32600500Y47370709D01*
X32569799Y47485286D01*
X32569798Y47485287D01*
X32569799Y47485287D01*
X32537177Y47541788D01*
X32510489Y47588013D01*
X32426613Y47671889D01*
X32323886Y47731199D01*
X32209312Y47761900D01*
X32209309Y47761900D01*
X32090691Y47761900D01*
X32090687Y47761900D01*
X31976113Y47731199D01*
X31873388Y47671890D01*
X31873387Y47671890D01*
X31873387Y47671889D01*
X31846921Y47645424D01*
X31786900Y47614842D01*
X31769849Y47613500D01*
X28647727Y47613500D01*
X28570895Y47592914D01*
X28542663Y47576615D01*
X28542662Y47576613D01*
X28502006Y47553140D01*
X28182891Y47234025D01*
X28122867Y47203442D01*
X28105816Y47202100D01*
X27078622Y47202100D01*
X27014553Y47222917D01*
X26974957Y47277417D01*
X26974957Y47344783D01*
X26984226Y47365601D01*
X26987176Y47370709D01*
X27019799Y47427214D01*
X27050500Y47541791D01*
X27050500Y47660409D01*
X27019799Y47774986D01*
X27019798Y47774987D01*
X27019799Y47774987D01*
X26990144Y47826350D01*
X26960489Y47877713D01*
X26876613Y47961589D01*
X26773886Y48020899D01*
X26659312Y48051600D01*
X26659309Y48051600D01*
X26540691Y48051600D01*
X26540687Y48051600D01*
X26426113Y48020899D01*
X26323388Y47961590D01*
X26239510Y47877712D01*
X26180201Y47774987D01*
X26149500Y47660413D01*
X26149500Y47541788D01*
X26180201Y47427214D01*
X26180200Y47427214D01*
X26205707Y47383036D01*
X26212824Y47370709D01*
X26215774Y47365601D01*
X26229781Y47299708D01*
X26202382Y47238166D01*
X26144042Y47204482D01*
X26121378Y47202100D01*
X25379051Y47202100D01*
X25314982Y47222917D01*
X25301982Y47234020D01*
X25275513Y47260489D01*
X25172786Y47319799D01*
X25058212Y47350500D01*
X25058209Y47350500D01*
X24939591Y47350500D01*
X24939587Y47350500D01*
X24825013Y47319799D01*
X24722288Y47260490D01*
X24638410Y47176612D01*
X24579101Y47073887D01*
X24548400Y46959313D01*
X24548400Y46840688D01*
X24579101Y46726114D01*
X24579100Y46726114D01*
X24618277Y46658260D01*
X24638411Y46623387D01*
X24722287Y46539511D01*
X24825014Y46480201D01*
X24903680Y46459123D01*
X24910160Y46457386D01*
X24966658Y46420696D01*
X24990800Y46357805D01*
X24973364Y46292734D01*
X24921011Y46250340D01*
X24881949Y46243100D01*
X21834837Y46243100D01*
X21780336Y46257704D01*
X21775513Y46260489D01*
X21672786Y46319799D01*
X21558212Y46350500D01*
X21558209Y46350500D01*
X21439591Y46350500D01*
X21439587Y46350500D01*
X21325013Y46319799D01*
X21222288Y46260490D01*
X21138410Y46176612D01*
X21079101Y46073887D01*
X21048400Y45959313D01*
X1164400Y45959313D01*
X1164400Y47353722D01*
X12498400Y47353722D01*
X12498400Y47235097D01*
X12529101Y47120523D01*
X12529100Y47120523D01*
X12578600Y47034789D01*
X12588411Y47017796D01*
X12672287Y46933920D01*
X12775014Y46874610D01*
X12889591Y46843909D01*
X12889593Y46843909D01*
X13008207Y46843909D01*
X13008209Y46843909D01*
X13122786Y46874610D01*
X13225513Y46933920D01*
X13309389Y47017796D01*
X13368699Y47120523D01*
X13399400Y47235100D01*
X13399400Y47353718D01*
X13368699Y47468295D01*
X13368698Y47468296D01*
X13368699Y47468296D01*
X13326267Y47541788D01*
X13309389Y47571022D01*
X13225513Y47654898D01*
X13122786Y47714208D01*
X13008212Y47744909D01*
X13008209Y47744909D01*
X12889591Y47744909D01*
X12889587Y47744909D01*
X12775013Y47714208D01*
X12672288Y47654899D01*
X12588410Y47571021D01*
X12529101Y47468296D01*
X12498400Y47353722D01*
X1164400Y47353722D01*
X1164400Y47684200D01*
X1185217Y47748269D01*
X1239717Y47787865D01*
X1273400Y47793200D01*
X5326199Y47793200D01*
X5326200Y47793200D01*
X5326200Y48318993D01*
X18548400Y48318993D01*
X18548400Y48181007D01*
X18574141Y48051600D01*
X18575320Y48045673D01*
X18575321Y48045670D01*
X18628123Y47918193D01*
X18628125Y47918188D01*
X18704782Y47803463D01*
X18704783Y47803462D01*
X18704786Y47803458D01*
X18802358Y47705886D01*
X18802361Y47705884D01*
X18802362Y47705883D01*
X18917087Y47629226D01*
X18917088Y47629226D01*
X18917089Y47629225D01*
X19044572Y47576420D01*
X19179907Y47549500D01*
X19179910Y47549500D01*
X19317889Y47549500D01*
X19317893Y47549500D01*
X19453228Y47576420D01*
X19580711Y47629225D01*
X19695442Y47705886D01*
X19793014Y47803458D01*
X19869675Y47918189D01*
X19922480Y48045672D01*
X19949400Y48181007D01*
X19949400Y48318993D01*
X19922480Y48454328D01*
X19869675Y48581811D01*
X19866935Y48585911D01*
X19793017Y48696538D01*
X19793016Y48696539D01*
X19793014Y48696542D01*
X19695442Y48794114D01*
X19695438Y48794117D01*
X19695437Y48794118D01*
X19580712Y48870775D01*
X19580707Y48870777D01*
X19453230Y48923579D01*
X19453232Y48923579D01*
X19453228Y48923580D01*
X19317893Y48950500D01*
X19179907Y48950500D01*
X19044572Y48923580D01*
X19044569Y48923579D01*
X18917092Y48870777D01*
X18917087Y48870775D01*
X18802362Y48794118D01*
X18704782Y48696538D01*
X18628125Y48581813D01*
X18628123Y48581808D01*
X18575321Y48454331D01*
X18575320Y48454328D01*
X18548400Y48318993D01*
X5326200Y48318993D01*
X5326200Y49005713D01*
X15599500Y49005713D01*
X15599500Y48887088D01*
X15630201Y48772514D01*
X15630200Y48772514D01*
X15674566Y48695672D01*
X15689511Y48669787D01*
X15773387Y48585911D01*
X15876114Y48526601D01*
X15990691Y48495900D01*
X15990693Y48495900D01*
X16109307Y48495900D01*
X16109309Y48495900D01*
X16223886Y48526601D01*
X16326613Y48585911D01*
X16410489Y48669787D01*
X16469799Y48772514D01*
X16500500Y48887091D01*
X16500500Y49005709D01*
X16469799Y49120286D01*
X16469798Y49120287D01*
X16469799Y49120287D01*
X16440144Y49171650D01*
X16410489Y49223013D01*
X16326613Y49306889D01*
X16223886Y49366199D01*
X16109312Y49396900D01*
X16109309Y49396900D01*
X15990691Y49396900D01*
X15990687Y49396900D01*
X15876113Y49366199D01*
X15773388Y49306890D01*
X15689510Y49223012D01*
X15630201Y49120287D01*
X15599500Y49005713D01*
X5326200Y49005713D01*
X5326200Y50368993D01*
X19398400Y50368993D01*
X19398400Y50231007D01*
X19422159Y50111565D01*
X19425320Y50095673D01*
X19425321Y50095670D01*
X19478123Y49968193D01*
X19478125Y49968188D01*
X19554782Y49853463D01*
X19554783Y49853462D01*
X19554786Y49853458D01*
X19652358Y49755886D01*
X19652361Y49755884D01*
X19652362Y49755883D01*
X19767087Y49679226D01*
X19767088Y49679226D01*
X19767089Y49679225D01*
X19894572Y49626420D01*
X20029907Y49599500D01*
X20029910Y49599500D01*
X20167889Y49599500D01*
X20167893Y49599500D01*
X20303228Y49626420D01*
X20430711Y49679225D01*
X20545442Y49755886D01*
X20643014Y49853458D01*
X20719675Y49968189D01*
X20772480Y50095672D01*
X20799400Y50231007D01*
X20799400Y50368993D01*
X20772480Y50504328D01*
X20719675Y50631811D01*
X20716935Y50635911D01*
X20643017Y50746538D01*
X20643016Y50746539D01*
X20643014Y50746542D01*
X20545442Y50844114D01*
X20545438Y50844117D01*
X20545437Y50844118D01*
X20430712Y50920775D01*
X20430707Y50920777D01*
X20303230Y50973579D01*
X20303232Y50973579D01*
X20303228Y50973580D01*
X20167893Y51000500D01*
X20029907Y51000500D01*
X19894572Y50973580D01*
X19894569Y50973579D01*
X19767092Y50920777D01*
X19767087Y50920775D01*
X19652362Y50844118D01*
X19554782Y50746538D01*
X19478125Y50631813D01*
X19478123Y50631808D01*
X19425321Y50504331D01*
X19425320Y50504328D01*
X19398400Y50368993D01*
X5326200Y50368993D01*
X5326200Y51055713D01*
X18133500Y51055713D01*
X18133500Y50937088D01*
X18164201Y50822514D01*
X18164200Y50822514D01*
X18208064Y50746542D01*
X18223511Y50719787D01*
X18307387Y50635911D01*
X18410114Y50576601D01*
X18524691Y50545900D01*
X18524693Y50545900D01*
X18643307Y50545900D01*
X18643309Y50545900D01*
X18757886Y50576601D01*
X18860613Y50635911D01*
X18944489Y50719787D01*
X19003799Y50822514D01*
X19034500Y50937091D01*
X19034500Y51055709D01*
X19003799Y51170286D01*
X19003798Y51170287D01*
X19003799Y51170287D01*
X18964782Y51237865D01*
X18944489Y51273013D01*
X18860613Y51356889D01*
X18757886Y51416199D01*
X18643312Y51446900D01*
X18643309Y51446900D01*
X18524691Y51446900D01*
X18524687Y51446900D01*
X18410113Y51416199D01*
X18307388Y51356890D01*
X18223510Y51273012D01*
X18164201Y51170287D01*
X18133500Y51055713D01*
X5326200Y51055713D01*
X5326200Y51954713D01*
X25427500Y51954713D01*
X25427500Y51836088D01*
X25458201Y51721514D01*
X25458200Y51721514D01*
X25509563Y51632553D01*
X25517511Y51618787D01*
X25601387Y51534911D01*
X25704114Y51475601D01*
X25818691Y51444900D01*
X25818693Y51444900D01*
X25937307Y51444900D01*
X25937309Y51444900D01*
X26051886Y51475601D01*
X26154613Y51534911D01*
X26238489Y51618787D01*
X26297799Y51721514D01*
X26328500Y51836091D01*
X26328500Y51954709D01*
X26297799Y52069286D01*
X26297798Y52069287D01*
X26297799Y52069287D01*
X26255363Y52142787D01*
X26238489Y52172013D01*
X26154613Y52255889D01*
X26051886Y52315199D01*
X25937312Y52345900D01*
X25937309Y52345900D01*
X25818691Y52345900D01*
X25818687Y52345900D01*
X25704113Y52315199D01*
X25601388Y52255890D01*
X25517510Y52172012D01*
X25458201Y52069287D01*
X25427500Y51954713D01*
X5326200Y51954713D01*
X5326200Y54382713D01*
X16399500Y54382713D01*
X16399500Y54264088D01*
X16430201Y54149514D01*
X16430200Y54149514D01*
X16481563Y54060553D01*
X16489511Y54046787D01*
X16573387Y53962911D01*
X16676114Y53903601D01*
X16790691Y53872900D01*
X16790693Y53872900D01*
X16909307Y53872900D01*
X16909309Y53872900D01*
X17023886Y53903601D01*
X17126613Y53962911D01*
X17210489Y54046787D01*
X17269799Y54149514D01*
X17300500Y54264091D01*
X17300500Y54382709D01*
X17269799Y54497286D01*
X17269798Y54497287D01*
X17269799Y54497287D01*
X17240144Y54548650D01*
X17210489Y54600013D01*
X17126613Y54683889D01*
X17023886Y54743199D01*
X16909312Y54773900D01*
X16909309Y54773900D01*
X16790691Y54773900D01*
X16790687Y54773900D01*
X16676113Y54743199D01*
X16573388Y54683890D01*
X16489510Y54600012D01*
X16430201Y54497287D01*
X16399500Y54382713D01*
X5326200Y54382713D01*
X5326200Y56324713D01*
X18060500Y56324713D01*
X18060500Y56206088D01*
X18091201Y56091514D01*
X18091200Y56091514D01*
X18128067Y56027660D01*
X18150511Y55988787D01*
X18234387Y55904911D01*
X18337114Y55845601D01*
X18451691Y55814900D01*
X18451693Y55814900D01*
X18570307Y55814900D01*
X18570309Y55814900D01*
X18684886Y55845601D01*
X18787613Y55904911D01*
X18818078Y55935376D01*
X18878102Y55965958D01*
X18895152Y55967300D01*
X29014800Y55967300D01*
X29078869Y55946483D01*
X29118465Y55891983D01*
X29123800Y55858300D01*
X29123800Y54343200D01*
X29123801Y54343200D01*
X33326199Y54343200D01*
X33326200Y54343200D01*
X33326200Y55858300D01*
X33347017Y55922369D01*
X33401517Y55961965D01*
X33435200Y55967300D01*
X34194107Y55967300D01*
X34258176Y55946483D01*
X34297772Y55891983D01*
X34297772Y55824617D01*
X34284738Y55797745D01*
X34277961Y55787603D01*
X34277956Y55787595D01*
X34198771Y55596423D01*
X34198770Y55596420D01*
X34158400Y55393465D01*
X34158400Y55186535D01*
X34198770Y54983581D01*
X34198771Y54983578D01*
X34277956Y54792406D01*
X34277959Y54792401D01*
X34392148Y54621505D01*
X34392923Y54620345D01*
X34539245Y54474023D01*
X34539248Y54474021D01*
X34541875Y54471394D01*
X34572458Y54411370D01*
X34573800Y54394319D01*
X34573800Y53645681D01*
X34552983Y53581612D01*
X34541875Y53568606D01*
X34539247Y53565979D01*
X34539245Y53565977D01*
X34435319Y53462051D01*
X34392921Y53419653D01*
X34277959Y53247600D01*
X34277956Y53247595D01*
X34198771Y53056423D01*
X34198770Y53056420D01*
X34158400Y52853465D01*
X34158400Y52646535D01*
X34191783Y52478707D01*
X34198770Y52443581D01*
X34198771Y52443578D01*
X34277956Y52252406D01*
X34277959Y52252401D01*
X34351201Y52142787D01*
X34392923Y52080345D01*
X34539245Y51934023D01*
X34539248Y51934021D01*
X34541875Y51931394D01*
X34572458Y51871370D01*
X34573800Y51854319D01*
X34573800Y51243200D01*
X35206100Y51243200D01*
X35270169Y51222383D01*
X35309765Y51167883D01*
X35315100Y51134200D01*
X35315100Y49756428D01*
X35335686Y49679594D01*
X35375460Y49610706D01*
X35578591Y49407574D01*
X35609174Y49347551D01*
X35598636Y49281015D01*
X35551001Y49233380D01*
X35501516Y49221500D01*
X28070284Y49221500D01*
X28006215Y49242317D01*
X27993209Y49253425D01*
X27634025Y49612609D01*
X27603442Y49672633D01*
X27602100Y49689684D01*
X27602100Y52039249D01*
X27622917Y52103318D01*
X27634019Y52116318D01*
X27660489Y52142787D01*
X27719799Y52245514D01*
X27750500Y52360091D01*
X27750500Y52478709D01*
X27719799Y52593286D01*
X27719798Y52593287D01*
X27719798Y52593289D01*
X27686639Y52650719D01*
X27660489Y52696013D01*
X27576613Y52779889D01*
X27473886Y52839199D01*
X27359312Y52869900D01*
X27359309Y52869900D01*
X27240691Y52869900D01*
X27240687Y52869900D01*
X27126113Y52839199D01*
X27023388Y52779890D01*
X26939510Y52696012D01*
X26880202Y52593289D01*
X26849500Y52478713D01*
X26849500Y52360088D01*
X26880201Y52245514D01*
X26880200Y52245514D01*
X26922637Y52172013D01*
X26939511Y52142787D01*
X26965976Y52116322D01*
X26996558Y52056300D01*
X26997900Y52039249D01*
X26997900Y49479628D01*
X27018486Y49402794D01*
X27018487Y49402793D01*
X27058260Y49333906D01*
X27714506Y48677660D01*
X27783393Y48637887D01*
X27860227Y48617300D01*
X27860228Y48617300D01*
X37110500Y48617300D01*
X37174569Y48596483D01*
X37214165Y48541983D01*
X37219500Y48508300D01*
X37219500Y47020900D01*
X37228158Y46977375D01*
X37235144Y46942254D01*
X37240676Y46928900D01*
X37245835Y46916446D01*
X37282459Y46858160D01*
X37282460Y46858160D01*
X37282461Y46858158D01*
X37357045Y46805236D01*
X37357048Y46805234D01*
X37382850Y46794545D01*
X37382854Y46794545D01*
X37382855Y46794544D01*
X37461500Y46778900D01*
X37461503Y46778900D01*
X40670496Y46778900D01*
X40670500Y46778900D01*
X40749145Y46794544D01*
X40774954Y46805235D01*
X40833240Y46841859D01*
X40886165Y46916446D01*
X40891324Y46928900D01*
X40896855Y46942251D01*
X40897311Y46944544D01*
X40912500Y47020900D01*
X40912500Y49345900D01*
X41969500Y49345900D01*
X41969500Y47170900D01*
X41976141Y47137514D01*
X41985144Y47092254D01*
X41992753Y47073887D01*
X41995835Y47066446D01*
X42032459Y47008160D01*
X42032460Y47008160D01*
X42032461Y47008158D01*
X42107045Y46955236D01*
X42107048Y46955234D01*
X42132850Y46944545D01*
X42132854Y46944545D01*
X42132855Y46944544D01*
X42211500Y46928900D01*
X42211503Y46928900D01*
X45270496Y46928900D01*
X45270500Y46928900D01*
X45349145Y46944544D01*
X45374954Y46955235D01*
X45433240Y46991859D01*
X45486165Y47066446D01*
X45489247Y47073887D01*
X45496855Y47092251D01*
X45502479Y47120523D01*
X45512500Y47170900D01*
X45512500Y48215319D01*
X45512500Y48215326D01*
X45508553Y48255402D01*
X45508553Y48255404D01*
X45505777Y48269360D01*
X45505775Y48269372D01*
X45498190Y48297159D01*
X45498187Y48297163D01*
X45498187Y48297165D01*
X45494956Y48304525D01*
X45497944Y48305838D01*
X45484957Y48357303D01*
X45510015Y48419835D01*
X45516633Y48427078D01*
X45543014Y48453458D01*
X45619675Y48568189D01*
X45672480Y48695672D01*
X45699400Y48831007D01*
X45699400Y48968993D01*
X45672480Y49104328D01*
X45619675Y49231811D01*
X45569509Y49306889D01*
X45543017Y49346538D01*
X45543016Y49346539D01*
X45543014Y49346542D01*
X45445442Y49444114D01*
X45445438Y49444117D01*
X45445437Y49444118D01*
X45330712Y49520775D01*
X45330707Y49520777D01*
X45203230Y49573579D01*
X45203232Y49573579D01*
X45203228Y49573580D01*
X45067893Y49600500D01*
X44929907Y49600500D01*
X44794572Y49573580D01*
X44794568Y49573579D01*
X44663337Y49519222D01*
X44596179Y49513937D01*
X44558549Y49531030D01*
X44515519Y49561563D01*
X44515511Y49561567D01*
X44489709Y49572256D01*
X44444765Y49581196D01*
X44411060Y49587900D01*
X42211500Y49587900D01*
X42164313Y49578514D01*
X42132853Y49572256D01*
X42107045Y49561565D01*
X42048760Y49524941D01*
X42048757Y49524939D01*
X41995835Y49450355D01*
X41995833Y49450352D01*
X41985144Y49424550D01*
X41975366Y49375392D01*
X41969500Y49345900D01*
X40912500Y49345900D01*
X40912500Y49895900D01*
X40896856Y49974545D01*
X40886165Y50000354D01*
X40849541Y50058640D01*
X40849539Y50058642D01*
X40849538Y50058643D01*
X40774954Y50111565D01*
X40774951Y50111567D01*
X40749149Y50122256D01*
X40704205Y50131196D01*
X40670500Y50137900D01*
X37461500Y50137900D01*
X37414313Y50128514D01*
X37382853Y50122256D01*
X37357045Y50111565D01*
X37298760Y50074941D01*
X37298757Y50074939D01*
X37245835Y50000355D01*
X37245833Y50000352D01*
X37235144Y49974550D01*
X37225366Y49925392D01*
X37219500Y49895900D01*
X37219500Y49895897D01*
X37219500Y49756500D01*
X37198683Y49692431D01*
X37144183Y49652835D01*
X37110500Y49647500D01*
X36238284Y49647500D01*
X36174215Y49668317D01*
X36161209Y49679425D01*
X35951225Y49889409D01*
X35920642Y49949433D01*
X35919300Y49966484D01*
X35919300Y51134200D01*
X35940117Y51198269D01*
X35994617Y51237865D01*
X36028300Y51243200D01*
X39326199Y51243200D01*
X39326200Y51243200D01*
X39326200Y52598541D01*
X50713400Y52598541D01*
X50713400Y52401459D01*
X50751849Y52208165D01*
X50795278Y52103318D01*
X50827268Y52026086D01*
X50936757Y51862223D01*
X50936758Y51862222D01*
X50936761Y51862218D01*
X51076118Y51722861D01*
X51076121Y51722859D01*
X51076122Y51722858D01*
X51157489Y51668491D01*
X51239986Y51613368D01*
X51422065Y51537949D01*
X51615359Y51499500D01*
X51615362Y51499500D01*
X51812437Y51499500D01*
X51812441Y51499500D01*
X52005735Y51537949D01*
X52187814Y51613368D01*
X52351682Y51722861D01*
X52491039Y51862218D01*
X52600532Y52026086D01*
X52675951Y52208165D01*
X52714400Y52401459D01*
X52714400Y52598541D01*
X52675951Y52791835D01*
X52600532Y52973914D01*
X52491039Y53137782D01*
X52351682Y53277139D01*
X52351678Y53277142D01*
X52351677Y53277143D01*
X52187814Y53386632D01*
X52005735Y53462051D01*
X51812441Y53500500D01*
X51615359Y53500500D01*
X51422065Y53462051D01*
X51422062Y53462050D01*
X51239985Y53386632D01*
X51076122Y53277143D01*
X50936757Y53137778D01*
X50827268Y52973915D01*
X50751850Y52791838D01*
X50751849Y52791835D01*
X50713400Y52598541D01*
X39326200Y52598541D01*
X39326200Y56088900D01*
X39347017Y56152969D01*
X39401517Y56192565D01*
X39435200Y56197900D01*
X43218749Y56197900D01*
X43282818Y56177083D01*
X43295817Y56165981D01*
X43322287Y56139511D01*
X43425014Y56080201D01*
X43539591Y56049500D01*
X43539593Y56049500D01*
X43658207Y56049500D01*
X43658209Y56049500D01*
X43772786Y56080201D01*
X43875513Y56139511D01*
X43959389Y56223387D01*
X44018699Y56326114D01*
X44049400Y56440691D01*
X44049400Y56559309D01*
X44018699Y56673886D01*
X44018698Y56673887D01*
X44018699Y56673887D01*
X43977344Y56745514D01*
X43959389Y56776613D01*
X43875513Y56860489D01*
X43772786Y56919799D01*
X43658212Y56950500D01*
X43658209Y56950500D01*
X43539591Y56950500D01*
X43539587Y56950500D01*
X43425013Y56919799D01*
X43322288Y56860490D01*
X43322287Y56860490D01*
X43322287Y56860489D01*
X43295821Y56834024D01*
X43235800Y56803442D01*
X43218749Y56802100D01*
X39435200Y56802100D01*
X39371131Y56822917D01*
X39331535Y56877417D01*
X39326200Y56911100D01*
X39326200Y58609313D01*
X46848400Y58609313D01*
X46848400Y58490688D01*
X46879101Y58376114D01*
X46879100Y58376114D01*
X46930463Y58287153D01*
X46938411Y58273387D01*
X47022287Y58189511D01*
X47125014Y58130201D01*
X47239591Y58099500D01*
X47239593Y58099500D01*
X47358207Y58099500D01*
X47358209Y58099500D01*
X47472786Y58130201D01*
X47575513Y58189511D01*
X47659389Y58273387D01*
X47718699Y58376114D01*
X47749400Y58490691D01*
X47749400Y58609309D01*
X47718699Y58723886D01*
X47718698Y58723887D01*
X47718699Y58723887D01*
X47670438Y58807475D01*
X47659389Y58826613D01*
X47575513Y58910489D01*
X47472786Y58969799D01*
X47358212Y59000500D01*
X47358209Y59000500D01*
X47239591Y59000500D01*
X47239587Y59000500D01*
X47125013Y58969799D01*
X47022288Y58910490D01*
X46938410Y58826612D01*
X46879101Y58723887D01*
X46848400Y58609313D01*
X39326200Y58609313D01*
X39326200Y58645599D01*
X39326200Y58645600D01*
X39326199Y58645600D01*
X38452183Y58645600D01*
X38391626Y58663970D01*
X38246499Y58760941D01*
X38246494Y58760944D01*
X38055322Y58840129D01*
X38055324Y58840129D01*
X38055320Y58840130D01*
X37852365Y58880500D01*
X37645435Y58880500D01*
X37442480Y58840130D01*
X37442477Y58840129D01*
X37251305Y58760944D01*
X37251300Y58760941D01*
X37106174Y58663970D01*
X37045617Y58645600D01*
X36423800Y58645600D01*
X36423800Y58645599D01*
X36423800Y58329648D01*
X36402983Y58265579D01*
X36348483Y58225983D01*
X36281117Y58225983D01*
X36226617Y58265579D01*
X36217680Y58280163D01*
X36152437Y58408209D01*
X36074044Y58516106D01*
X35640457Y58082520D01*
X35608999Y58137007D01*
X35515907Y58230099D01*
X35461417Y58261559D01*
X35895005Y58695146D01*
X35787103Y58773540D01*
X35632377Y58852377D01*
X35467236Y58906035D01*
X35295724Y58933200D01*
X35122076Y58933200D01*
X34950563Y58906035D01*
X34785419Y58852376D01*
X34630704Y58773546D01*
X34630701Y58773544D01*
X34522794Y58695145D01*
X34956381Y58261559D01*
X34901893Y58230099D01*
X34808801Y58137007D01*
X34777341Y58082519D01*
X34343754Y58516106D01*
X34265356Y58408199D01*
X34265354Y58408196D01*
X34186524Y58253481D01*
X34132865Y58088337D01*
X34105700Y57916825D01*
X34105700Y57743176D01*
X34132865Y57571664D01*
X34186523Y57406523D01*
X34265360Y57251797D01*
X34343754Y57143896D01*
X34777341Y57577484D01*
X34808801Y57522993D01*
X34901893Y57429901D01*
X34956380Y57398443D01*
X34522793Y56964855D01*
X34526351Y56919651D01*
X34510624Y56854146D01*
X34459398Y56810397D01*
X34417687Y56802100D01*
X34389727Y56802100D01*
X34312893Y56781514D01*
X34244005Y56741740D01*
X34105690Y56603425D01*
X34045667Y56572842D01*
X34028616Y56571500D01*
X33435200Y56571500D01*
X33371131Y56592317D01*
X33331535Y56646817D01*
X33326200Y56680500D01*
X33326200Y58045599D01*
X33326200Y58045600D01*
X29123800Y58045600D01*
X29123800Y58045599D01*
X29123800Y57295851D01*
X29102983Y57231782D01*
X29048483Y57192186D01*
X28981117Y57192186D01*
X28937727Y57218775D01*
X28876613Y57279889D01*
X28773886Y57339199D01*
X28659312Y57369900D01*
X28659309Y57369900D01*
X28540691Y57369900D01*
X28540687Y57369900D01*
X28426113Y57339199D01*
X28323388Y57279890D01*
X28323387Y57279890D01*
X28323387Y57279889D01*
X28296921Y57253424D01*
X28236900Y57222842D01*
X28219849Y57221500D01*
X25648152Y57221500D01*
X25584083Y57242317D01*
X25571078Y57253425D01*
X25498615Y57325887D01*
X25498613Y57325889D01*
X25395886Y57385199D01*
X25281312Y57415900D01*
X25281309Y57415900D01*
X25162691Y57415900D01*
X25162687Y57415900D01*
X25048113Y57385199D01*
X24945388Y57325890D01*
X24861510Y57242012D01*
X24802201Y57139287D01*
X24771500Y57024713D01*
X24771500Y56906088D01*
X24802201Y56791514D01*
X24834829Y56735001D01*
X24848836Y56669107D01*
X24821436Y56607565D01*
X24763096Y56573882D01*
X24740433Y56571500D01*
X18887151Y56571500D01*
X18823082Y56592317D01*
X18810082Y56603420D01*
X18787613Y56625889D01*
X18684886Y56685199D01*
X18570312Y56715900D01*
X18570309Y56715900D01*
X18451691Y56715900D01*
X18451687Y56715900D01*
X18337113Y56685199D01*
X18234388Y56625890D01*
X18150510Y56542012D01*
X18091201Y56439287D01*
X18060500Y56324713D01*
X5326200Y56324713D01*
X5326200Y59095600D01*
X5241244Y59095600D01*
X5177175Y59116417D01*
X5156985Y59135452D01*
X5147672Y59146800D01*
X3883715Y59146800D01*
X3900000Y59207574D01*
X3900000Y59339226D01*
X3883715Y59400000D01*
X5147671Y59400000D01*
X5114647Y59566024D01*
X5039024Y59748593D01*
X5039023Y59748595D01*
X4929237Y59912901D01*
X4789500Y60052638D01*
X4625194Y60162424D01*
X4625192Y60162425D01*
X4442622Y60238048D01*
X4248805Y60276600D01*
X3526601Y60276600D01*
X3526600Y60276599D01*
X3526600Y59757116D01*
X3465826Y59773400D01*
X3334174Y59773400D01*
X3273400Y59757116D01*
X3273400Y60276599D01*
X3273399Y60276600D01*
X2551194Y60276600D01*
X2357377Y60238048D01*
X2174807Y60162425D01*
X2174805Y60162424D01*
X2010499Y60052638D01*
X1870762Y59912901D01*
X1760976Y59748595D01*
X1760975Y59748593D01*
X1685352Y59566024D01*
X1652329Y59400000D01*
X2916285Y59400000D01*
X2900000Y59339226D01*
X2900000Y59207574D01*
X2916285Y59146800D01*
X1652328Y59146800D01*
X1643015Y59135452D01*
X1623353Y59122866D01*
X1606566Y59106645D01*
X1593186Y59103555D01*
X1586279Y59099132D01*
X1576532Y59099707D01*
X1558756Y59095600D01*
X1273400Y59095600D01*
X1209331Y59116417D01*
X1169735Y59170917D01*
X1164400Y59204600D01*
X1164400Y62259313D01*
X8337500Y62259313D01*
X8337500Y62140688D01*
X8368201Y62026114D01*
X8368200Y62026114D01*
X8398355Y61973886D01*
X8427511Y61923387D01*
X8511387Y61839511D01*
X8614114Y61780201D01*
X8728691Y61749500D01*
X8728693Y61749500D01*
X8847307Y61749500D01*
X8847309Y61749500D01*
X8961886Y61780201D01*
X9064613Y61839511D01*
X9091078Y61865977D01*
X9151100Y61896558D01*
X9168151Y61897900D01*
X15128616Y61897900D01*
X15192685Y61877083D01*
X15205691Y61865975D01*
X15844847Y61226819D01*
X15913727Y61187050D01*
X15913734Y61187046D01*
X15990568Y61166459D01*
X15990569Y61166459D01*
X39307232Y61166459D01*
X39345648Y61176753D01*
X39384066Y61187046D01*
X39452953Y61226819D01*
X39740640Y61514506D01*
X39780413Y61583393D01*
X39781247Y61586507D01*
X39782505Y61588444D01*
X39783146Y61589991D01*
X39783432Y61589873D01*
X39817933Y61643005D01*
X39880823Y61667150D01*
X39886534Y61667300D01*
X40942500Y61667300D01*
X40958920Y61661965D01*
X40976183Y61661965D01*
X40990149Y61651818D01*
X41006569Y61646483D01*
X41016716Y61632517D01*
X41030683Y61622369D01*
X41036017Y61605950D01*
X41046165Y61591983D01*
X41051500Y61558300D01*
X41051500Y61493432D01*
X41030683Y61429363D01*
X41019575Y61416357D01*
X40085643Y60482425D01*
X40025619Y60451842D01*
X40008568Y60450500D01*
X10122020Y60450500D01*
X10067520Y60465104D01*
X9972786Y60519799D01*
X9858212Y60550500D01*
X9858209Y60550500D01*
X9739591Y60550500D01*
X9739587Y60550500D01*
X9625013Y60519799D01*
X9522288Y60460490D01*
X9438410Y60376612D01*
X9379101Y60273887D01*
X9348400Y60159313D01*
X9348400Y60040688D01*
X9379101Y59926114D01*
X9379100Y59926114D01*
X9430463Y59837153D01*
X9438411Y59823387D01*
X9522287Y59739511D01*
X9625014Y59680201D01*
X9739591Y59649500D01*
X9739593Y59649500D01*
X9858207Y59649500D01*
X9858209Y59649500D01*
X9972786Y59680201D01*
X10067520Y59734897D01*
X10122020Y59749500D01*
X40245044Y59749500D01*
X40334188Y59773386D01*
X40414112Y59819530D01*
X41682469Y61087888D01*
X41728614Y61167812D01*
X41733768Y61187046D01*
X41752500Y61256956D01*
X41752500Y61624374D01*
X41773317Y61688443D01*
X41803507Y61716666D01*
X41825140Y61730259D01*
X41878065Y61804846D01*
X41888756Y61830655D01*
X41894457Y61859313D01*
X46548400Y61859313D01*
X46548400Y61740688D01*
X46579101Y61626114D01*
X46579100Y61626114D01*
X46603766Y61583393D01*
X46638411Y61523387D01*
X46722287Y61439511D01*
X46825014Y61380201D01*
X46939591Y61349500D01*
X46939593Y61349500D01*
X47058207Y61349500D01*
X47058209Y61349500D01*
X47172786Y61380201D01*
X47275513Y61439511D01*
X47359389Y61523387D01*
X47418699Y61626114D01*
X47449400Y61740691D01*
X47449400Y61740696D01*
X47449859Y61744180D01*
X47450945Y61746458D01*
X47451249Y61747591D01*
X47451459Y61747535D01*
X47478861Y61804984D01*
X47538062Y61837129D01*
X47557927Y61838954D01*
X55268450Y61838954D01*
X55332519Y61818137D01*
X55345518Y61807035D01*
X55363588Y61788965D01*
X55466315Y61729655D01*
X55580892Y61698954D01*
X55580894Y61698954D01*
X55699508Y61698954D01*
X55699510Y61698954D01*
X55814087Y61729655D01*
X55916814Y61788965D01*
X56000690Y61872841D01*
X56060000Y61975568D01*
X56090701Y62090145D01*
X56090701Y62208763D01*
X56060000Y62323340D01*
X56059999Y62323341D01*
X56060000Y62323341D01*
X56016943Y62397916D01*
X56000690Y62426067D01*
X55916814Y62509943D01*
X55814087Y62569253D01*
X55699513Y62599954D01*
X55699510Y62599954D01*
X55580892Y62599954D01*
X55580888Y62599954D01*
X55466314Y62569253D01*
X55363589Y62509944D01*
X55363588Y62509944D01*
X55363588Y62509943D01*
X55345522Y62491878D01*
X55285501Y62461296D01*
X55268450Y62459954D01*
X47307476Y62459954D01*
X47228504Y62438794D01*
X47157703Y62397916D01*
X47157700Y62397914D01*
X47042211Y62282425D01*
X46982188Y62251842D01*
X46965137Y62250500D01*
X46939587Y62250500D01*
X46825013Y62219799D01*
X46722288Y62160490D01*
X46638410Y62076612D01*
X46579101Y61973887D01*
X46548400Y61859313D01*
X41894457Y61859313D01*
X41904400Y61909300D01*
X41904400Y62559313D01*
X44548400Y62559313D01*
X44548400Y62440688D01*
X44579101Y62326114D01*
X44579100Y62326114D01*
X44604325Y62282425D01*
X44638411Y62223387D01*
X44722287Y62139511D01*
X44825014Y62080201D01*
X44939591Y62049500D01*
X44939593Y62049500D01*
X45058207Y62049500D01*
X45058209Y62049500D01*
X45172786Y62080201D01*
X45275513Y62139511D01*
X45359389Y62223387D01*
X45418699Y62326114D01*
X45449400Y62440691D01*
X45449400Y62559309D01*
X45418699Y62673886D01*
X45418698Y62673887D01*
X45418699Y62673887D01*
X45371226Y62756111D01*
X45359389Y62776613D01*
X45275513Y62860489D01*
X45172786Y62919799D01*
X45058212Y62950500D01*
X45058209Y62950500D01*
X44939591Y62950500D01*
X44939587Y62950500D01*
X44825013Y62919799D01*
X44722288Y62860490D01*
X44638410Y62776612D01*
X44579101Y62673887D01*
X44548400Y62559313D01*
X41904400Y62559313D01*
X41904400Y63464700D01*
X41925217Y63528769D01*
X41979717Y63568365D01*
X42013400Y63573700D01*
X43814474Y63573700D01*
X43821553Y63574632D01*
X43821841Y63572441D01*
X43879015Y63569450D01*
X43917035Y63544763D01*
X43922287Y63539511D01*
X44025014Y63480201D01*
X44139591Y63449500D01*
X44139593Y63449500D01*
X44258207Y63449500D01*
X44258209Y63449500D01*
X44372786Y63480201D01*
X44475513Y63539511D01*
X44559389Y63623387D01*
X44618699Y63726114D01*
X44649400Y63840691D01*
X44649400Y63959309D01*
X44649399Y63959313D01*
X49048400Y63959313D01*
X49048400Y63840688D01*
X49079101Y63726114D01*
X49079100Y63726114D01*
X49107681Y63676612D01*
X49138411Y63623387D01*
X49222287Y63539511D01*
X49325014Y63480201D01*
X49439591Y63449500D01*
X49439593Y63449500D01*
X49558207Y63449500D01*
X49558209Y63449500D01*
X49672786Y63480201D01*
X49775513Y63539511D01*
X49859389Y63623387D01*
X49915274Y63720182D01*
X50871345Y63720182D01*
X50871345Y63601557D01*
X50902046Y63486983D01*
X50902045Y63486983D01*
X50939631Y63421884D01*
X50961356Y63384256D01*
X51045232Y63300380D01*
X51147959Y63241070D01*
X51262536Y63210369D01*
X51262538Y63210369D01*
X51381152Y63210369D01*
X51381154Y63210369D01*
X51495731Y63241070D01*
X51598458Y63300380D01*
X51682334Y63384256D01*
X51741644Y63486983D01*
X51772345Y63601560D01*
X51772345Y63720178D01*
X51741644Y63834755D01*
X51741643Y63834756D01*
X51741644Y63834756D01*
X51711989Y63886119D01*
X51682334Y63937482D01*
X51598458Y64021358D01*
X51495731Y64080668D01*
X51381157Y64111369D01*
X51381154Y64111369D01*
X51262536Y64111369D01*
X51262532Y64111369D01*
X51147958Y64080668D01*
X51045233Y64021359D01*
X50961355Y63937481D01*
X50902046Y63834756D01*
X50871345Y63720182D01*
X49915274Y63720182D01*
X49918699Y63726114D01*
X49949400Y63840691D01*
X49949400Y63959309D01*
X49918699Y64073886D01*
X49918698Y64073887D01*
X49918699Y64073887D01*
X49870531Y64157314D01*
X49859389Y64176613D01*
X49775513Y64260489D01*
X49672786Y64319799D01*
X49558212Y64350500D01*
X49558209Y64350500D01*
X49439591Y64350500D01*
X49439587Y64350500D01*
X49325013Y64319799D01*
X49222288Y64260490D01*
X49138410Y64176612D01*
X49079101Y64073887D01*
X49048400Y63959313D01*
X44649399Y63959313D01*
X44618699Y64073886D01*
X44618698Y64073887D01*
X44618699Y64073887D01*
X44570531Y64157314D01*
X44559389Y64176613D01*
X44475513Y64260489D01*
X44372786Y64319799D01*
X44258212Y64350500D01*
X44258209Y64350500D01*
X44139591Y64350500D01*
X44139587Y64350500D01*
X44025013Y64319799D01*
X43922287Y64260489D01*
X43922284Y64260487D01*
X43878124Y64216327D01*
X43873543Y64213994D01*
X43870803Y64209643D01*
X43850797Y64202404D01*
X43818100Y64185744D01*
X43808249Y64184640D01*
X43804653Y64184402D01*
X43741430Y64184402D01*
X43720688Y64178845D01*
X43710014Y64178138D01*
X43708170Y64178606D01*
X43702815Y64177900D01*
X42013400Y64177900D01*
X41949331Y64198717D01*
X41909735Y64253217D01*
X41904400Y64286900D01*
X41904400Y68263497D01*
X41904400Y68263500D01*
X41888756Y68342145D01*
X41878065Y68367954D01*
X41841441Y68426240D01*
X41841439Y68426242D01*
X41841438Y68426243D01*
X41766854Y68479165D01*
X41766851Y68479167D01*
X41741049Y68489856D01*
X41696105Y68498796D01*
X41662400Y68505500D01*
X39335400Y68505500D01*
X39288213Y68496114D01*
X39256753Y68489856D01*
X39230945Y68479165D01*
X39172658Y68442540D01*
X39164859Y68435166D01*
X39162548Y68437611D01*
X39122506Y68407822D01*
X39087656Y68402100D01*
X27369184Y68402100D01*
X27305115Y68422917D01*
X27292109Y68434025D01*
X26881325Y68844809D01*
X26850742Y68904833D01*
X26849400Y68921884D01*
X26849400Y68959307D01*
X26849399Y68959313D01*
X26837264Y69004600D01*
X26818699Y69073886D01*
X26818698Y69073887D01*
X26818699Y69073887D01*
X26783009Y69135702D01*
X26759389Y69176613D01*
X26675513Y69260489D01*
X26572786Y69319799D01*
X26458212Y69350500D01*
X26458209Y69350500D01*
X26339591Y69350500D01*
X26339587Y69350500D01*
X26225013Y69319799D01*
X26122288Y69260490D01*
X26038410Y69176612D01*
X25979101Y69073887D01*
X25948400Y68959313D01*
X25948400Y68840688D01*
X25979101Y68726114D01*
X25979100Y68726114D01*
X26014111Y68665475D01*
X26038411Y68623387D01*
X26122287Y68539511D01*
X26225014Y68480201D01*
X26339591Y68449500D01*
X26377016Y68449500D01*
X26441085Y68428683D01*
X26454091Y68417575D01*
X27013406Y67858260D01*
X27082293Y67818487D01*
X27159127Y67797900D01*
X27159128Y67797900D01*
X27238672Y67797900D01*
X38984400Y67797900D01*
X39048469Y67777083D01*
X39088065Y67722583D01*
X39093400Y67688900D01*
X39093400Y65982693D01*
X39072583Y65918624D01*
X39018083Y65879028D01*
X39005670Y65875788D01*
X38994575Y65873581D01*
X38994569Y65873579D01*
X38867092Y65820777D01*
X38867087Y65820775D01*
X38752362Y65744118D01*
X38654782Y65646538D01*
X38578125Y65531813D01*
X38578123Y65531808D01*
X38525321Y65404331D01*
X38525320Y65404328D01*
X38498400Y65268993D01*
X38498400Y65131007D01*
X38525320Y64995673D01*
X38525321Y64995670D01*
X38578123Y64868193D01*
X38578125Y64868188D01*
X38654782Y64753463D01*
X38654783Y64753462D01*
X38654786Y64753458D01*
X38752358Y64655886D01*
X38752361Y64655884D01*
X38752362Y64655883D01*
X38867087Y64579226D01*
X38867088Y64579226D01*
X38867089Y64579225D01*
X38930830Y64552823D01*
X38994569Y64526421D01*
X38994570Y64526421D01*
X38994572Y64526420D01*
X39005666Y64524214D01*
X39011452Y64520973D01*
X39018083Y64520973D01*
X39040388Y64504768D01*
X39064441Y64491297D01*
X39067216Y64485276D01*
X39072583Y64481377D01*
X39081103Y64455154D01*
X39092644Y64430120D01*
X39093400Y64417308D01*
X39093400Y64286900D01*
X39072583Y64222831D01*
X39018083Y64183235D01*
X38984400Y64177900D01*
X38034927Y64177900D01*
X37958093Y64157314D01*
X37889207Y64117541D01*
X36305691Y62534025D01*
X36245667Y62503442D01*
X36228616Y62502100D01*
X27942347Y62502100D01*
X27878278Y62522917D01*
X27838682Y62577417D01*
X27838682Y62644783D01*
X27878278Y62699283D01*
X27887846Y62705496D01*
X27975513Y62756111D01*
X28059389Y62839987D01*
X28118699Y62942714D01*
X28149400Y63057291D01*
X28149400Y63175909D01*
X28118699Y63290486D01*
X28118698Y63290487D01*
X28118699Y63290487D01*
X28087335Y63344809D01*
X28059389Y63393213D01*
X27975513Y63477089D01*
X27872786Y63536399D01*
X27852723Y63541775D01*
X27758212Y63567100D01*
X27758209Y63567100D01*
X27639591Y63567100D01*
X27639587Y63567100D01*
X27525013Y63536399D01*
X27422288Y63477090D01*
X27338410Y63393212D01*
X27279101Y63290487D01*
X27248400Y63175913D01*
X27248400Y63175909D01*
X27248400Y63057291D01*
X27264660Y62996609D01*
X27264668Y62996576D01*
X27279101Y62942713D01*
X27288685Y62926114D01*
X27338411Y62839987D01*
X27422287Y62756111D01*
X27451039Y62739511D01*
X27509954Y62705496D01*
X27555030Y62655434D01*
X27562071Y62588437D01*
X27528388Y62530097D01*
X27466846Y62502697D01*
X27455453Y62502100D01*
X27079257Y62502100D01*
X27015188Y62522917D01*
X26975592Y62577417D01*
X26975592Y62644783D01*
X26984861Y62665601D01*
X26985150Y62666100D01*
X27019799Y62726114D01*
X27050500Y62840691D01*
X27050500Y62959309D01*
X27019799Y63073886D01*
X27019798Y63073887D01*
X27019799Y63073887D01*
X26990144Y63125250D01*
X26960489Y63176613D01*
X26876613Y63260489D01*
X26773886Y63319799D01*
X26659312Y63350500D01*
X26659309Y63350500D01*
X26540691Y63350500D01*
X26540687Y63350500D01*
X26426113Y63319799D01*
X26323388Y63260490D01*
X26239510Y63176612D01*
X26180201Y63073887D01*
X26149500Y62959313D01*
X26149500Y62840688D01*
X26180201Y62726114D01*
X26180200Y62726114D01*
X26195692Y62699283D01*
X26214850Y62666100D01*
X26215139Y62665601D01*
X26217560Y62654208D01*
X26224408Y62644783D01*
X26224408Y62621997D01*
X26229146Y62599708D01*
X26224408Y62589066D01*
X26224408Y62577417D01*
X26211014Y62558983D01*
X26201747Y62538166D01*
X26191659Y62532342D01*
X26184812Y62522917D01*
X26163140Y62515876D01*
X26143407Y62504482D01*
X26120743Y62502100D01*
X25979051Y62502100D01*
X25914982Y62522917D01*
X25901982Y62534020D01*
X25875513Y62560489D01*
X25772786Y62619799D01*
X25764583Y62621997D01*
X25658212Y62650500D01*
X25658209Y62650500D01*
X25539591Y62650500D01*
X25539587Y62650500D01*
X25425013Y62619799D01*
X25322288Y62560490D01*
X25322287Y62560490D01*
X25322287Y62560489D01*
X25295821Y62534024D01*
X25235800Y62503442D01*
X25218749Y62502100D01*
X24879051Y62502100D01*
X24814982Y62522917D01*
X24801982Y62534020D01*
X24775513Y62560489D01*
X24672786Y62619799D01*
X24664583Y62621997D01*
X24558212Y62650500D01*
X24558209Y62650500D01*
X24439591Y62650500D01*
X24439587Y62650500D01*
X24325013Y62619799D01*
X24222288Y62560490D01*
X24222287Y62560490D01*
X24222287Y62560489D01*
X24195821Y62534024D01*
X24187987Y62530033D01*
X24182818Y62522917D01*
X24158542Y62515030D01*
X24135800Y62503442D01*
X24118749Y62502100D01*
X24071099Y62502100D01*
X24007030Y62522917D01*
X23967434Y62577417D01*
X23967434Y62644783D01*
X24007030Y62699283D01*
X24016598Y62705496D01*
X24021285Y62708203D01*
X24075513Y62739511D01*
X24159389Y62823387D01*
X24218699Y62926114D01*
X24249400Y63040691D01*
X24249400Y63159309D01*
X24218699Y63273886D01*
X24218698Y63273887D01*
X24218699Y63273887D01*
X24174465Y63350500D01*
X24159389Y63376613D01*
X24075513Y63460489D01*
X23972786Y63519799D01*
X23858212Y63550500D01*
X23858209Y63550500D01*
X23739591Y63550500D01*
X23739587Y63550500D01*
X23625013Y63519799D01*
X23522288Y63460490D01*
X23438410Y63376612D01*
X23379101Y63273887D01*
X23348400Y63159313D01*
X23348400Y63040688D01*
X23379101Y62926114D01*
X23379100Y62926114D01*
X23416989Y62860490D01*
X23438411Y62823387D01*
X23522287Y62739511D01*
X23572517Y62710511D01*
X23581202Y62705496D01*
X23626278Y62655433D01*
X23633319Y62588436D01*
X23599635Y62530096D01*
X23538093Y62502697D01*
X23526701Y62502100D01*
X22742347Y62502100D01*
X22678278Y62522917D01*
X22638682Y62577417D01*
X22638682Y62644783D01*
X22678278Y62699283D01*
X22687846Y62705496D01*
X22775513Y62756111D01*
X22859389Y62839987D01*
X22918699Y62942714D01*
X22949400Y63057291D01*
X22949400Y63175909D01*
X22918699Y63290486D01*
X22918698Y63290487D01*
X22918699Y63290487D01*
X22887335Y63344809D01*
X22859389Y63393213D01*
X22775513Y63477089D01*
X22672786Y63536399D01*
X22652723Y63541775D01*
X22558212Y63567100D01*
X22558209Y63567100D01*
X22439591Y63567100D01*
X22439587Y63567100D01*
X22325013Y63536399D01*
X22222288Y63477090D01*
X22138410Y63393212D01*
X22079101Y63290487D01*
X22048400Y63175913D01*
X22048400Y63057288D01*
X22079101Y62942714D01*
X22079100Y62942714D01*
X22126573Y62860490D01*
X22138411Y62839987D01*
X22222287Y62756111D01*
X22251039Y62739511D01*
X22309954Y62705496D01*
X22355030Y62655434D01*
X22362071Y62588437D01*
X22328388Y62530097D01*
X22266846Y62502697D01*
X22255453Y62502100D01*
X21442347Y62502100D01*
X21378278Y62522917D01*
X21338682Y62577417D01*
X21338682Y62644783D01*
X21378278Y62699283D01*
X21387846Y62705496D01*
X21475513Y62756111D01*
X21559389Y62839987D01*
X21618699Y62942714D01*
X21649400Y63057291D01*
X21649400Y63175909D01*
X21618699Y63290486D01*
X21618698Y63290487D01*
X21618699Y63290487D01*
X21587335Y63344809D01*
X21559389Y63393213D01*
X21475513Y63477089D01*
X21372786Y63536399D01*
X21352723Y63541775D01*
X21258212Y63567100D01*
X21258209Y63567100D01*
X21139591Y63567100D01*
X21139587Y63567100D01*
X21025013Y63536399D01*
X20922288Y63477090D01*
X20838410Y63393212D01*
X20779101Y63290487D01*
X20748400Y63175913D01*
X20748400Y63057288D01*
X20779101Y62942714D01*
X20779100Y62942714D01*
X20826573Y62860490D01*
X20838411Y62839987D01*
X20922287Y62756111D01*
X20951039Y62739511D01*
X21009954Y62705496D01*
X21055030Y62655434D01*
X21062071Y62588437D01*
X21028388Y62530097D01*
X20966846Y62502697D01*
X20955453Y62502100D01*
X20369184Y62502100D01*
X20305115Y62522917D01*
X20292109Y62534025D01*
X19481325Y63344809D01*
X19450742Y63404833D01*
X19449400Y63421884D01*
X19449400Y63459307D01*
X19449399Y63459313D01*
X19438930Y63498383D01*
X19418699Y63573886D01*
X19418698Y63573887D01*
X19418699Y63573887D01*
X19389044Y63625250D01*
X19359389Y63676613D01*
X19275513Y63760489D01*
X19172786Y63819799D01*
X19058212Y63850500D01*
X19058209Y63850500D01*
X18939591Y63850500D01*
X18939587Y63850500D01*
X18825013Y63819799D01*
X18722288Y63760490D01*
X18638410Y63676612D01*
X18579101Y63573887D01*
X18548400Y63459313D01*
X18548400Y63340688D01*
X18579101Y63226114D01*
X18579100Y63226114D01*
X18608087Y63175909D01*
X18638411Y63123387D01*
X18722287Y63039511D01*
X18825014Y62980201D01*
X18939591Y62949500D01*
X18977016Y62949500D01*
X19041085Y62928683D01*
X19054091Y62917575D01*
X19957160Y62014506D01*
X19957159Y62014506D01*
X20014932Y61956734D01*
X20045516Y61896711D01*
X20034978Y61830175D01*
X19987344Y61782540D01*
X19937858Y61770659D01*
X16200625Y61770659D01*
X16136556Y61791476D01*
X16123550Y61802584D01*
X15835986Y62090148D01*
X15484394Y62441740D01*
X15423994Y62476613D01*
X15415506Y62481514D01*
X15338673Y62502100D01*
X15338672Y62502100D01*
X9168151Y62502100D01*
X9104082Y62522917D01*
X9091082Y62534020D01*
X9064613Y62560489D01*
X8961886Y62619799D01*
X8953683Y62621997D01*
X8847312Y62650500D01*
X8847309Y62650500D01*
X8728691Y62650500D01*
X8728687Y62650500D01*
X8614113Y62619799D01*
X8511388Y62560490D01*
X8427510Y62476612D01*
X8368201Y62373887D01*
X8337500Y62259313D01*
X1164400Y62259313D01*
X1164400Y62734200D01*
X1185217Y62798269D01*
X1239717Y62837865D01*
X1273400Y62843200D01*
X5076199Y62843200D01*
X5076200Y62843200D01*
X5076200Y68774181D01*
X15045700Y68774181D01*
X15045700Y68625820D01*
X15074645Y68480301D01*
X15074646Y68480298D01*
X15131419Y68343233D01*
X15131421Y68343229D01*
X15184158Y68264301D01*
X15555118Y68635261D01*
X15586960Y68558386D01*
X15657286Y68488060D01*
X15734157Y68456219D01*
X15363199Y68085260D01*
X15442124Y68032524D01*
X15442129Y68032522D01*
X15579197Y67975747D01*
X15579200Y67975746D01*
X15724719Y67946800D01*
X15873080Y67946800D01*
X16018599Y67975746D01*
X16018602Y67975747D01*
X16155670Y68032522D01*
X16155675Y68032524D01*
X16234599Y68085260D01*
X15863640Y68456219D01*
X15940514Y68488060D01*
X16010840Y68558386D01*
X16042681Y68635260D01*
X16413640Y68264301D01*
X16466376Y68343225D01*
X16466378Y68343230D01*
X16523153Y68480298D01*
X16523154Y68480301D01*
X16552100Y68625820D01*
X16552100Y68774181D01*
X16523154Y68919700D01*
X16523153Y68919703D01*
X16466378Y69056771D01*
X16466376Y69056776D01*
X16413640Y69135701D01*
X16042681Y68764743D01*
X16010840Y68841614D01*
X15940514Y68911940D01*
X15863639Y68943782D01*
X16234599Y69314742D01*
X16155671Y69367479D01*
X16155667Y69367481D01*
X16018602Y69424254D01*
X16018599Y69424255D01*
X15873081Y69453200D01*
X15724719Y69453200D01*
X15579200Y69424255D01*
X15579197Y69424254D01*
X15442125Y69367477D01*
X15363198Y69314742D01*
X15734158Y68943782D01*
X15657286Y68911940D01*
X15586960Y68841614D01*
X15555118Y68764742D01*
X15184158Y69135702D01*
X15131423Y69056775D01*
X15074646Y68919703D01*
X15074645Y68919700D01*
X15045700Y68774181D01*
X5076200Y68774181D01*
X5076200Y68855953D01*
X5078294Y68877218D01*
X5103671Y69004800D01*
X3839715Y69004800D01*
X3856000Y69065574D01*
X3856000Y69197226D01*
X3839715Y69258000D01*
X5103671Y69258000D01*
X5070647Y69424024D01*
X4995024Y69606593D01*
X4995023Y69606595D01*
X4885237Y69770901D01*
X4745500Y69910638D01*
X4647943Y69975823D01*
X4581194Y70020424D01*
X4581192Y70020425D01*
X4487308Y70059313D01*
X28548400Y70059313D01*
X28548400Y69940688D01*
X28579101Y69826114D01*
X28579100Y69826114D01*
X28616990Y69760489D01*
X28638411Y69723387D01*
X28722287Y69639511D01*
X28825014Y69580201D01*
X28929352Y69552244D01*
X28936616Y69550297D01*
X28939591Y69549500D01*
X28939593Y69549500D01*
X29058207Y69549500D01*
X29058209Y69549500D01*
X29061183Y69550297D01*
X29063385Y69550182D01*
X29065294Y69550433D01*
X29065340Y69550080D01*
X29128456Y69546776D01*
X29180811Y69504384D01*
X29198400Y69445013D01*
X29198400Y69340688D01*
X29229101Y69226114D01*
X29229100Y69226114D01*
X29257681Y69176612D01*
X29288411Y69123387D01*
X29372287Y69039511D01*
X29475014Y68980201D01*
X29589591Y68949500D01*
X29589593Y68949500D01*
X29708207Y68949500D01*
X29708209Y68949500D01*
X29822786Y68980201D01*
X29925513Y69039511D01*
X29942778Y69056776D01*
X29953579Y69067576D01*
X30013602Y69098158D01*
X30030652Y69099500D01*
X31617148Y69099500D01*
X31681217Y69078683D01*
X31694221Y69067576D01*
X31722284Y69039514D01*
X31722287Y69039511D01*
X31825014Y68980201D01*
X31939591Y68949500D01*
X31939593Y68949500D01*
X32058207Y68949500D01*
X32058209Y68949500D01*
X32172786Y68980201D01*
X32275513Y69039511D01*
X32359389Y69123387D01*
X32418699Y69226114D01*
X32449400Y69340691D01*
X32449400Y69459309D01*
X32418699Y69573886D01*
X32418698Y69573887D01*
X32418699Y69573887D01*
X32385493Y69631400D01*
X32359389Y69676613D01*
X32317256Y69718746D01*
X32286675Y69778767D01*
X32297213Y69845303D01*
X32299906Y69850265D01*
X32343699Y69926114D01*
X32374400Y70040691D01*
X32374400Y70159309D01*
X32343699Y70273886D01*
X32343698Y70273887D01*
X32343699Y70273887D01*
X32309097Y70333818D01*
X32284389Y70376613D01*
X32200513Y70460489D01*
X32097786Y70519799D01*
X31983212Y70550500D01*
X31983209Y70550500D01*
X31864591Y70550500D01*
X31864587Y70550500D01*
X31750013Y70519799D01*
X31647288Y70460490D01*
X31563409Y70376611D01*
X31558148Y70367498D01*
X31508085Y70322423D01*
X31463753Y70313001D01*
X29368150Y70313001D01*
X29304081Y70333818D01*
X29291081Y70344921D01*
X29275513Y70360489D01*
X29172786Y70419799D01*
X29058212Y70450500D01*
X29058209Y70450500D01*
X28939591Y70450500D01*
X28939587Y70450500D01*
X28825013Y70419799D01*
X28722288Y70360490D01*
X28638410Y70276612D01*
X28579101Y70173887D01*
X28548400Y70059313D01*
X4487308Y70059313D01*
X4398622Y70096048D01*
X4204805Y70134600D01*
X3482601Y70134600D01*
X3482600Y70134599D01*
X3482600Y69615116D01*
X3421826Y69631400D01*
X3290174Y69631400D01*
X3229400Y69615116D01*
X3229400Y70134599D01*
X3229399Y70134600D01*
X2507194Y70134600D01*
X2313377Y70096048D01*
X2130807Y70020425D01*
X2130805Y70020424D01*
X1966499Y69910638D01*
X1826762Y69770901D01*
X1716976Y69606595D01*
X1716975Y69606593D01*
X1641352Y69424024D01*
X1608329Y69258000D01*
X2872285Y69258000D01*
X2856000Y69197226D01*
X2856000Y69065574D01*
X2872285Y69004800D01*
X1608328Y69004800D01*
X1600518Y68995284D01*
X1596219Y68958964D01*
X1550490Y68909497D01*
X1497232Y68895600D01*
X1273400Y68895600D01*
X1209331Y68916417D01*
X1169735Y68970917D01*
X1164400Y69004600D01*
X1164400Y71059313D01*
X9148400Y71059313D01*
X9148400Y70940688D01*
X9179101Y70826114D01*
X9179100Y70826114D01*
X9218276Y70758261D01*
X9238411Y70723387D01*
X9322287Y70639511D01*
X9425014Y70580201D01*
X9539591Y70549500D01*
X9539593Y70549500D01*
X9658207Y70549500D01*
X9658209Y70549500D01*
X9772786Y70580201D01*
X9875513Y70639511D01*
X9901978Y70665977D01*
X9962000Y70696558D01*
X9979051Y70697900D01*
X10738673Y70697900D01*
X10777089Y70708194D01*
X10815507Y70718487D01*
X10884394Y70758260D01*
X11006336Y70880202D01*
X11092110Y70965975D01*
X11152133Y70996558D01*
X11169184Y70997900D01*
X36118749Y70997900D01*
X36182818Y70977083D01*
X36195817Y70965981D01*
X36222287Y70939511D01*
X36325014Y70880201D01*
X36439591Y70849500D01*
X36439593Y70849500D01*
X36558207Y70849500D01*
X36558209Y70849500D01*
X36672786Y70880201D01*
X36775513Y70939511D01*
X36859389Y71023387D01*
X36918699Y71126114D01*
X36949400Y71240691D01*
X36949400Y71359309D01*
X36918699Y71473886D01*
X36918698Y71473887D01*
X36918699Y71473887D01*
X36879523Y71541740D01*
X36859389Y71576613D01*
X36775513Y71660489D01*
X36672786Y71719799D01*
X36558212Y71750500D01*
X36558209Y71750500D01*
X36439591Y71750500D01*
X36439587Y71750500D01*
X36325013Y71719799D01*
X36222288Y71660490D01*
X36222287Y71660490D01*
X36222287Y71660489D01*
X36195821Y71634024D01*
X36135800Y71603442D01*
X36118749Y71602100D01*
X10959127Y71602100D01*
X10882293Y71581514D01*
X10813405Y71541740D01*
X10605690Y71334025D01*
X10545667Y71303442D01*
X10528616Y71302100D01*
X9979051Y71302100D01*
X9914982Y71322917D01*
X9901982Y71334020D01*
X9875513Y71360489D01*
X9772786Y71419799D01*
X9658212Y71450500D01*
X9658209Y71450500D01*
X9539591Y71450500D01*
X9539587Y71450500D01*
X9425013Y71419799D01*
X9322288Y71360490D01*
X9238410Y71276612D01*
X9179101Y71173887D01*
X9148400Y71059313D01*
X1164400Y71059313D01*
X1164400Y72947016D01*
X1499500Y72947016D01*
X1499500Y72759784D01*
X1536027Y72576149D01*
X1559910Y72518489D01*
X1607676Y72403173D01*
X1607678Y72403168D01*
X1711694Y72247497D01*
X1711695Y72247496D01*
X1711698Y72247492D01*
X1844092Y72115098D01*
X1844095Y72115096D01*
X1844096Y72115095D01*
X1999767Y72011079D01*
X1999768Y72011079D01*
X1999769Y72011078D01*
X2172749Y71939427D01*
X2356384Y71902900D01*
X2356387Y71902900D01*
X4043612Y71902900D01*
X4043616Y71902900D01*
X4227251Y71939427D01*
X4400231Y72011078D01*
X4555908Y72115098D01*
X4688302Y72247492D01*
X4792322Y72403169D01*
X4863973Y72576149D01*
X4900500Y72759784D01*
X4900500Y72912713D01*
X7448400Y72912713D01*
X7448400Y72794088D01*
X7479101Y72679514D01*
X7479100Y72679514D01*
X7530463Y72590553D01*
X7538411Y72576787D01*
X7622287Y72492911D01*
X7725014Y72433601D01*
X7839591Y72402900D01*
X7839593Y72402900D01*
X7958207Y72402900D01*
X7958209Y72402900D01*
X8072786Y72433601D01*
X8175513Y72492911D01*
X8259389Y72576787D01*
X8307036Y72659313D01*
X12548400Y72659313D01*
X12548400Y72540688D01*
X12579101Y72426114D01*
X12579100Y72426114D01*
X12630463Y72337153D01*
X12638411Y72323387D01*
X12722287Y72239511D01*
X12825014Y72180201D01*
X12939591Y72149500D01*
X12939593Y72149500D01*
X13058207Y72149500D01*
X13058209Y72149500D01*
X13172786Y72180201D01*
X13275513Y72239511D01*
X13359389Y72323387D01*
X13418699Y72426114D01*
X13449400Y72540691D01*
X13449400Y72659309D01*
X13418699Y72773886D01*
X13418698Y72773887D01*
X13418699Y72773887D01*
X13389044Y72825250D01*
X13359389Y72876613D01*
X13275513Y72960489D01*
X13172786Y73019799D01*
X13058212Y73050500D01*
X13058209Y73050500D01*
X12939591Y73050500D01*
X12939587Y73050500D01*
X12825013Y73019799D01*
X12722288Y72960490D01*
X12638410Y72876612D01*
X12579101Y72773887D01*
X12548400Y72659313D01*
X8307036Y72659313D01*
X8318699Y72679514D01*
X8318969Y72680525D01*
X8322760Y72694666D01*
X8349399Y72794088D01*
X8349400Y72794091D01*
X8349400Y72912709D01*
X8318699Y73027286D01*
X8318698Y73027287D01*
X8318699Y73027287D01*
X8289044Y73078650D01*
X8259389Y73130013D01*
X8175513Y73213889D01*
X8072786Y73273199D01*
X8065382Y73275183D01*
X7958212Y73303900D01*
X7958209Y73303900D01*
X7839591Y73303900D01*
X7839587Y73303900D01*
X7725013Y73273199D01*
X7622288Y73213890D01*
X7538410Y73130012D01*
X7479101Y73027287D01*
X7448400Y72912713D01*
X4900500Y72912713D01*
X4900500Y72947016D01*
X4863973Y73130651D01*
X4792322Y73303631D01*
X4792142Y73303900D01*
X4688305Y73459304D01*
X4688304Y73459305D01*
X4688302Y73459308D01*
X4555908Y73591702D01*
X4555904Y73591705D01*
X4555903Y73591706D01*
X4400232Y73695722D01*
X4400227Y73695724D01*
X4227253Y73767372D01*
X4227255Y73767372D01*
X4227251Y73767373D01*
X4043616Y73803900D01*
X2356384Y73803900D01*
X2172749Y73767373D01*
X2172746Y73767372D01*
X1999772Y73695724D01*
X1999767Y73695722D01*
X1844096Y73591706D01*
X1711694Y73459304D01*
X1607678Y73303633D01*
X1607676Y73303628D01*
X1570505Y73213889D01*
X1536027Y73130651D01*
X1499500Y72947016D01*
X1164400Y72947016D01*
X1164400Y73959313D01*
X18548400Y73959313D01*
X18548400Y73840688D01*
X18579101Y73726114D01*
X18579100Y73726114D01*
X18630463Y73637153D01*
X18638411Y73623387D01*
X18722287Y73539511D01*
X18825014Y73480201D01*
X18939591Y73449500D01*
X18939593Y73449500D01*
X19058207Y73449500D01*
X19058209Y73449500D01*
X19172786Y73480201D01*
X19275513Y73539511D01*
X19359389Y73623387D01*
X19418699Y73726114D01*
X19449400Y73840691D01*
X19449400Y73959309D01*
X19418699Y74073886D01*
X19418698Y74073887D01*
X19418699Y74073887D01*
X19380020Y74140879D01*
X19359389Y74176613D01*
X19275513Y74260489D01*
X19172786Y74319799D01*
X19058212Y74350500D01*
X19058209Y74350500D01*
X18939591Y74350500D01*
X18939587Y74350500D01*
X18825013Y74319799D01*
X18722288Y74260490D01*
X18638410Y74176612D01*
X18579101Y74073887D01*
X18548400Y73959313D01*
X1164400Y73959313D01*
X1164400Y75520000D01*
X1452329Y75520000D01*
X2716285Y75520000D01*
X2700000Y75459226D01*
X2700000Y75327574D01*
X2716285Y75266800D01*
X1452329Y75266800D01*
X1485352Y75100777D01*
X1560975Y74918208D01*
X1560976Y74918206D01*
X1670762Y74753900D01*
X1810499Y74614163D01*
X1974805Y74504377D01*
X1974807Y74504376D01*
X2157377Y74428753D01*
X2351194Y74390201D01*
X2351196Y74390200D01*
X3073399Y74390200D01*
X3073400Y74390201D01*
X3073400Y74909685D01*
X3134174Y74893400D01*
X3265826Y74893400D01*
X3326600Y74909685D01*
X3326600Y74390201D01*
X3326601Y74390200D01*
X4048804Y74390200D01*
X4048805Y74390201D01*
X4242622Y74428753D01*
X4425192Y74504376D01*
X4425194Y74504377D01*
X4589500Y74614163D01*
X4729237Y74753900D01*
X4839023Y74918206D01*
X4839024Y74918208D01*
X4914647Y75100777D01*
X4947671Y75266800D01*
X3683715Y75266800D01*
X3700000Y75327574D01*
X3700000Y75459226D01*
X3683715Y75520000D01*
X4947671Y75520000D01*
X4926695Y75625457D01*
X4923885Y75639582D01*
X26548400Y75639582D01*
X26548400Y75520957D01*
X26579101Y75406383D01*
X26579100Y75406383D01*
X26606805Y75358398D01*
X26638411Y75303656D01*
X26722287Y75219780D01*
X26825014Y75160470D01*
X26939591Y75129769D01*
X26939593Y75129769D01*
X27058207Y75129769D01*
X27058209Y75129769D01*
X27172786Y75160470D01*
X27275513Y75219780D01*
X27359389Y75303656D01*
X27418699Y75406383D01*
X27449400Y75520960D01*
X27449400Y75639578D01*
X27421336Y75744313D01*
X38648400Y75744313D01*
X38648400Y75625688D01*
X38679101Y75511114D01*
X38679100Y75511114D01*
X38730463Y75422153D01*
X38738411Y75408387D01*
X38756476Y75390322D01*
X38787058Y75330300D01*
X38788400Y75313249D01*
X38788400Y74059118D01*
X38809559Y73980152D01*
X38850372Y73909462D01*
X38850438Y73909348D01*
X39347249Y73412538D01*
X39418051Y73371660D01*
X39497022Y73350500D01*
X39578779Y73350500D01*
X45474010Y73350500D01*
X45538079Y73329683D01*
X45577675Y73275183D01*
X45579296Y73269712D01*
X45609601Y73156613D01*
X45656375Y73075599D01*
X45668911Y73053887D01*
X45752787Y72970011D01*
X45855514Y72910701D01*
X45970091Y72880000D01*
X45970093Y72880000D01*
X46088707Y72880000D01*
X46088709Y72880000D01*
X46203286Y72910701D01*
X46306013Y72970011D01*
X46389889Y73053887D01*
X46449199Y73156614D01*
X46479900Y73271191D01*
X46479900Y73389809D01*
X46449199Y73504386D01*
X46449198Y73504387D01*
X46449199Y73504387D01*
X46419544Y73555750D01*
X46389889Y73607113D01*
X46306013Y73690989D01*
X46203286Y73750299D01*
X46088712Y73781000D01*
X46088709Y73781000D01*
X46063164Y73781000D01*
X45999095Y73801817D01*
X45986090Y73812925D01*
X45889552Y73909463D01*
X45818748Y73950341D01*
X45739782Y73971500D01*
X45739779Y73971500D01*
X45739778Y73971500D01*
X39711662Y73971500D01*
X39647593Y73992317D01*
X39634587Y74003426D01*
X39441325Y74196689D01*
X39410742Y74256712D01*
X39409400Y74273763D01*
X39409400Y75313249D01*
X39430217Y75377318D01*
X39441319Y75390318D01*
X39459389Y75408387D01*
X39518699Y75511114D01*
X39549400Y75625691D01*
X39549400Y75717500D01*
X48798900Y75717500D01*
X48798900Y70400000D01*
X51414900Y70400000D01*
X51478969Y70379183D01*
X51518565Y70324683D01*
X51523900Y70291000D01*
X51523900Y67737500D01*
X51523901Y67737500D01*
X55723899Y67737500D01*
X55723900Y67737500D01*
X55723900Y77837500D01*
X51523900Y77837500D01*
X51523900Y77837499D01*
X51523900Y75826500D01*
X51503083Y75762431D01*
X51448583Y75722835D01*
X51414900Y75717500D01*
X50617824Y75717500D01*
X50553755Y75738317D01*
X50523428Y75771998D01*
X50520765Y75776610D01*
X50498300Y75815521D01*
X50414424Y75899397D01*
X50311697Y75958707D01*
X50197123Y75989408D01*
X50197120Y75989408D01*
X50078502Y75989408D01*
X50078498Y75989408D01*
X49963924Y75958707D01*
X49861199Y75899398D01*
X49825975Y75864174D01*
X49765951Y75833592D01*
X49699415Y75844131D01*
X49681793Y75856934D01*
X49681183Y75856138D01*
X49675516Y75860486D01*
X49675513Y75860489D01*
X49572786Y75919799D01*
X49458212Y75950500D01*
X49458209Y75950500D01*
X49339591Y75950500D01*
X49339587Y75950500D01*
X49225013Y75919799D01*
X49122288Y75860490D01*
X49038408Y75776610D01*
X49035749Y75772003D01*
X48985688Y75726925D01*
X48941351Y75717500D01*
X48798900Y75717500D01*
X39549400Y75717500D01*
X39549400Y75744309D01*
X39546761Y75754156D01*
X39536219Y75793499D01*
X39518699Y75858886D01*
X39518698Y75858887D01*
X39518699Y75858887D01*
X39489044Y75910250D01*
X39459389Y75961613D01*
X39375513Y76045489D01*
X39272786Y76104799D01*
X39158212Y76135500D01*
X39158209Y76135500D01*
X39039591Y76135500D01*
X39039587Y76135500D01*
X38925013Y76104799D01*
X38822288Y76045490D01*
X38738410Y75961612D01*
X38679101Y75858887D01*
X38648400Y75744313D01*
X27421336Y75744313D01*
X27418699Y75754155D01*
X27418698Y75754156D01*
X27418699Y75754156D01*
X27376930Y75826500D01*
X27359389Y75856882D01*
X27275513Y75940758D01*
X27172786Y76000068D01*
X27058212Y76030769D01*
X27058209Y76030769D01*
X26939591Y76030769D01*
X26939587Y76030769D01*
X26825013Y76000068D01*
X26722288Y75940759D01*
X26638410Y75856881D01*
X26579101Y75754156D01*
X26548400Y75639582D01*
X4923885Y75639582D01*
X4914647Y75686024D01*
X4839024Y75868593D01*
X4839023Y75868595D01*
X4729237Y76032901D01*
X4589500Y76172638D01*
X4425194Y76282424D01*
X4425192Y76282425D01*
X4242623Y76358048D01*
X4116554Y76383124D01*
X4116553Y76383124D01*
X4048804Y76396600D01*
X3326601Y76396600D01*
X3326600Y76396599D01*
X3326600Y75877116D01*
X3265826Y75893400D01*
X3134174Y75893400D01*
X3073400Y75877116D01*
X3073400Y76396599D01*
X3073399Y76396600D01*
X2351194Y76396600D01*
X2157377Y76358048D01*
X1974807Y76282425D01*
X1974805Y76282424D01*
X1810499Y76172638D01*
X1670762Y76032901D01*
X1560976Y75868595D01*
X1560975Y75868593D01*
X1485352Y75686024D01*
X1452329Y75520000D01*
X1164400Y75520000D01*
X1164400Y78027016D01*
X1499500Y78027016D01*
X1499500Y77839784D01*
X1536027Y77656149D01*
X1540142Y77646214D01*
X1607676Y77483173D01*
X1607678Y77483168D01*
X1711694Y77327497D01*
X1711695Y77327496D01*
X1711698Y77327492D01*
X1844092Y77195098D01*
X1844095Y77195096D01*
X1844096Y77195095D01*
X1999767Y77091079D01*
X1999768Y77091079D01*
X1999769Y77091078D01*
X2172749Y77019427D01*
X2356384Y76982900D01*
X2356387Y76982900D01*
X4043612Y76982900D01*
X4043616Y76982900D01*
X4227251Y77019427D01*
X4400231Y77091078D01*
X4555908Y77195098D01*
X4688302Y77327492D01*
X4792322Y77483169D01*
X4863973Y77656149D01*
X4876337Y77718305D01*
X19495700Y77718305D01*
X19495700Y77481696D01*
X19532714Y77247996D01*
X19605828Y77022977D01*
X19713249Y76812152D01*
X19847386Y76627528D01*
X20567341Y77347484D01*
X20598801Y77292993D01*
X20691893Y77199901D01*
X20746381Y77168443D01*
X20026426Y76448487D01*
X20211051Y76314350D01*
X20421876Y76206929D01*
X20646895Y76133815D01*
X20880596Y76096800D01*
X21117204Y76096800D01*
X21350904Y76133815D01*
X21575923Y76206929D01*
X21786748Y76314350D01*
X21971372Y76448487D01*
X21251417Y77168442D01*
X21305907Y77199901D01*
X21398999Y77292993D01*
X21430458Y77347483D01*
X22150413Y76627528D01*
X22284550Y76812152D01*
X22387557Y77014313D01*
X46048400Y77014313D01*
X46048400Y76895688D01*
X46079101Y76781114D01*
X46079100Y76781114D01*
X46130463Y76692153D01*
X46138411Y76678387D01*
X46222287Y76594511D01*
X46325014Y76535201D01*
X46439591Y76504500D01*
X46439593Y76504500D01*
X46558207Y76504500D01*
X46558209Y76504500D01*
X46672786Y76535201D01*
X46775513Y76594511D01*
X46859389Y76678387D01*
X46918699Y76781114D01*
X46949400Y76895691D01*
X46949400Y77014309D01*
X46918699Y77128886D01*
X46918698Y77128887D01*
X46918699Y77128887D01*
X46877698Y77199901D01*
X46859389Y77231613D01*
X46775513Y77315489D01*
X46672786Y77374799D01*
X46558212Y77405500D01*
X46558209Y77405500D01*
X46439591Y77405500D01*
X46439587Y77405500D01*
X46325013Y77374799D01*
X46222288Y77315490D01*
X46138410Y77231612D01*
X46079101Y77128887D01*
X46048400Y77014313D01*
X22387557Y77014313D01*
X22391971Y77022976D01*
X22402421Y77055136D01*
X22465085Y77247996D01*
X22502100Y77481696D01*
X22502100Y77718305D01*
X22465085Y77952005D01*
X22391971Y78177024D01*
X22284550Y78387849D01*
X22150412Y78572474D01*
X21430457Y77852519D01*
X21398999Y77907007D01*
X21305907Y78000099D01*
X21251416Y78031559D01*
X21971372Y78751514D01*
X21796908Y78878270D01*
X21796906Y78878272D01*
X21786752Y78885650D01*
X21642179Y78959313D01*
X44548400Y78959313D01*
X44548400Y78840688D01*
X44579101Y78726114D01*
X44579100Y78726114D01*
X44610516Y78671702D01*
X44638411Y78623387D01*
X44722287Y78539511D01*
X44825014Y78480201D01*
X44939591Y78449500D01*
X44939593Y78449500D01*
X45058207Y78449500D01*
X45058209Y78449500D01*
X45172786Y78480201D01*
X45275513Y78539511D01*
X45359389Y78623387D01*
X45418699Y78726114D01*
X45449400Y78840691D01*
X45449400Y78959309D01*
X45418699Y79073886D01*
X45418698Y79073887D01*
X45418699Y79073887D01*
X45389044Y79125250D01*
X45359389Y79176613D01*
X45275513Y79260489D01*
X45172786Y79319799D01*
X45058212Y79350500D01*
X45058209Y79350500D01*
X44939591Y79350500D01*
X44939587Y79350500D01*
X44825013Y79319799D01*
X44722288Y79260490D01*
X44638410Y79176612D01*
X44579101Y79073887D01*
X44548400Y78959313D01*
X21642179Y78959313D01*
X21575923Y78993072D01*
X21350904Y79066186D01*
X21117204Y79103200D01*
X20880596Y79103200D01*
X20646895Y79066186D01*
X20421876Y78993072D01*
X20211047Y78885650D01*
X20026426Y78751515D01*
X20026426Y78751514D01*
X20746381Y78031559D01*
X20691893Y78000099D01*
X20598801Y77907007D01*
X20567341Y77852519D01*
X19847386Y78572474D01*
X19847385Y78572474D01*
X19713250Y78387853D01*
X19605828Y78177024D01*
X19532714Y77952005D01*
X19495700Y77718305D01*
X4876337Y77718305D01*
X4900500Y77839784D01*
X4900500Y78027016D01*
X4863973Y78210651D01*
X4792322Y78383631D01*
X4727795Y78480202D01*
X4688305Y78539304D01*
X4688304Y78539305D01*
X4688302Y78539308D01*
X4555908Y78671702D01*
X4555904Y78671705D01*
X4555903Y78671706D01*
X4400232Y78775722D01*
X4400227Y78775724D01*
X4243390Y78840688D01*
X4227251Y78847373D01*
X4043616Y78883900D01*
X2356384Y78883900D01*
X2172749Y78847373D01*
X2172746Y78847372D01*
X1999772Y78775724D01*
X1999767Y78775722D01*
X1844096Y78671706D01*
X1711694Y78539304D01*
X1607678Y78383633D01*
X1607676Y78383628D01*
X1536028Y78210654D01*
X1536027Y78210651D01*
X1499500Y78027016D01*
X1164400Y78027016D01*
X1164400Y82394290D01*
X1185217Y82458359D01*
X1239717Y82497955D01*
X1273400Y82503290D01*
X9983099Y82503290D01*
X10047168Y82482473D01*
G37*
%TD.AperFunction*%
%TD*%
%TA.AperFunction,Conductor*%
%TO.N,+3V3*%
G36*
X44436869Y49371709D02*
G01*
X44447560Y49345900D01*
X44441409Y49325622D01*
X44378570Y49231578D01*
X44325800Y49104181D01*
X44298900Y48968941D01*
X44298900Y48831060D01*
X44325800Y48695820D01*
X44378570Y48568423D01*
X44437582Y48480105D01*
X44766136Y48808659D01*
X44786960Y48758386D01*
X44857286Y48688060D01*
X44907557Y48667238D01*
X44579003Y48338684D01*
X44667323Y48279671D01*
X44667322Y48279671D01*
X44794719Y48226901D01*
X44929959Y48200001D01*
X44929962Y48200000D01*
X45067838Y48200000D01*
X45067840Y48200001D01*
X45203080Y48226901D01*
X45256532Y48249041D01*
X45284468Y48249041D01*
X45304222Y48229287D01*
X45307000Y48215319D01*
X45307000Y47170900D01*
X45296309Y47145091D01*
X45270500Y47134400D01*
X42211500Y47134400D01*
X42185691Y47145091D01*
X42175000Y47170900D01*
X42175000Y49345900D01*
X42185691Y49371709D01*
X42211500Y49382400D01*
X44411060Y49382400D01*
X44436869Y49371709D01*
G37*
%TD.AperFunction*%
%TD*%
%TA.AperFunction,Conductor*%
%TO.N,+5V*%
G36*
X41688209Y63563009D02*
G01*
X41698900Y63537200D01*
X41698900Y61909300D01*
X41688209Y61883491D01*
X41662400Y61872800D01*
X39335400Y61872800D01*
X39309591Y61883491D01*
X39298900Y61909300D01*
X39298900Y63537200D01*
X39309591Y63563009D01*
X39335400Y63573700D01*
X41662400Y63573700D01*
X41688209Y63563009D01*
G37*
%TD.AperFunction*%
%TA.AperFunction,Conductor*%
G36*
X41688209Y68289309D02*
G01*
X41698900Y68263500D01*
X41698900Y64214400D01*
X41688209Y64188591D01*
X41662400Y64177900D01*
X39335400Y64177900D01*
X39309591Y64188591D01*
X39298900Y64214400D01*
X39298900Y64476223D01*
X39309591Y64502032D01*
X39328279Y64512022D01*
X39403080Y64526901D01*
X39403083Y64526902D01*
X39530475Y64579670D01*
X39618796Y64638684D01*
X39298900Y64958579D01*
X39298900Y64970824D01*
X39340514Y64988060D01*
X39410840Y65058386D01*
X39431663Y65108658D01*
X39760216Y64780105D01*
X39819230Y64868425D01*
X39871999Y64995820D01*
X39898899Y65131060D01*
X39898900Y65131062D01*
X39898900Y65268939D01*
X39898899Y65268941D01*
X39871999Y65404181D01*
X39819229Y65531578D01*
X39760216Y65619897D01*
X39431662Y65291343D01*
X39410840Y65341614D01*
X39340514Y65411940D01*
X39298900Y65429177D01*
X39298900Y65441423D01*
X39618795Y65761318D01*
X39530476Y65820330D01*
X39530477Y65820330D01*
X39403080Y65873100D01*
X39328279Y65887979D01*
X39305051Y65903500D01*
X39298900Y65923778D01*
X39298900Y68263500D01*
X39309591Y68289309D01*
X39335400Y68300000D01*
X41662400Y68300000D01*
X41688209Y68289309D01*
G37*
%TD.AperFunction*%
%TD*%
D25*
X60423900Y0D02*
G75*
G02*
X61923900Y1500000I1500000J0D01*
G01*
X1500000Y0D02*
X60423900Y0D01*
X0Y1500000D02*
G75*
G02*
X1500000Y0I0J-1500000D01*
G01*
X1500000Y84400000D02*
G75*
G02*
X0Y82900000I-1500000J0D01*
G01*
D26*
X61923900Y1500000D02*
X61923900Y82900000D01*
D25*
X60423900Y84400000D02*
X1500000Y84400000D01*
X0Y82900000D02*
X0Y1500000D01*
X61923900Y82900000D02*
G75*
G02*
X60423900Y84400000I0J1500000D01*
G01*
M02*
