%TF.GenerationSoftware,KiCad,Pcbnew,9.0.2*%
%TF.CreationDate,2025-07-10T16:00:18+01:00*%
%TF.ProjectId,FastStepper,46617374-5374-4657-9070-65722e6b6963,rev?*%
%TF.SameCoordinates,PX71f712cPY8e18f40*%
%TF.FileFunction,Legend,Bot*%
%TF.FilePolarity,Positive*%
%FSLAX46Y46*%
G04 Gerber Fmt 4.6, Leading zero omitted, Abs format (unit mm)*
G04 Created by KiCad (PCBNEW 9.0.2) date 2025-07-10 16:00:18*
%MOMM*%
%LPD*%
G01*
G04 APERTURE LIST*
%ADD10C,0.152400*%
%ADD11C,0.120000*%
%TA.AperFunction,Profile*%
%ADD12C,0.152400*%
%TD*%
%TA.AperFunction,Profile*%
%ADD13C,0.150000*%
%TD*%
G04 APERTURE END LIST*
D10*
X15059151Y61621812D02*
X15059151Y62282212D01*
X14367304Y61684707D02*
X14398752Y61653259D01*
X14398752Y61653259D02*
X14493094Y61621812D01*
X14493094Y61621812D02*
X14555990Y61621812D01*
X14555990Y61621812D02*
X14650333Y61653259D01*
X14650333Y61653259D02*
X14713228Y61716155D01*
X14713228Y61716155D02*
X14744675Y61779050D01*
X14744675Y61779050D02*
X14776123Y61904840D01*
X14776123Y61904840D02*
X14776123Y61999183D01*
X14776123Y61999183D02*
X14744675Y62124974D01*
X14744675Y62124974D02*
X14713228Y62187869D01*
X14713228Y62187869D02*
X14650333Y62250764D01*
X14650333Y62250764D02*
X14555990Y62282212D01*
X14555990Y62282212D02*
X14493094Y62282212D01*
X14493094Y62282212D02*
X14398752Y62250764D01*
X14398752Y62250764D02*
X14367304Y62219317D01*
X13738352Y61621812D02*
X14115723Y61621812D01*
X13927037Y61621812D02*
X13927037Y62282212D01*
X13927037Y62282212D02*
X13989933Y62187869D01*
X13989933Y62187869D02*
X14052828Y62124974D01*
X14052828Y62124974D02*
X14115723Y62093526D01*
X13329533Y62282212D02*
X13266638Y62282212D01*
X13266638Y62282212D02*
X13203742Y62250764D01*
X13203742Y62250764D02*
X13172295Y62219317D01*
X13172295Y62219317D02*
X13140847Y62156421D01*
X13140847Y62156421D02*
X13109400Y62030631D01*
X13109400Y62030631D02*
X13109400Y61873393D01*
X13109400Y61873393D02*
X13140847Y61747602D01*
X13140847Y61747602D02*
X13172295Y61684707D01*
X13172295Y61684707D02*
X13203742Y61653259D01*
X13203742Y61653259D02*
X13266638Y61621812D01*
X13266638Y61621812D02*
X13329533Y61621812D01*
X13329533Y61621812D02*
X13392428Y61653259D01*
X13392428Y61653259D02*
X13423876Y61684707D01*
X13423876Y61684707D02*
X13455323Y61747602D01*
X13455323Y61747602D02*
X13486771Y61873393D01*
X13486771Y61873393D02*
X13486771Y62030631D01*
X13486771Y62030631D02*
X13455323Y62156421D01*
X13455323Y62156421D02*
X13423876Y62219317D01*
X13423876Y62219317D02*
X13392428Y62250764D01*
X13392428Y62250764D02*
X13329533Y62282212D01*
X49451337Y70114912D02*
X49451337Y70775312D01*
X49451337Y70775312D02*
X49294099Y70775312D01*
X49294099Y70775312D02*
X49199756Y70743864D01*
X49199756Y70743864D02*
X49136861Y70680969D01*
X49136861Y70680969D02*
X49105414Y70618074D01*
X49105414Y70618074D02*
X49073966Y70492283D01*
X49073966Y70492283D02*
X49073966Y70397940D01*
X49073966Y70397940D02*
X49105414Y70272150D01*
X49105414Y70272150D02*
X49136861Y70209255D01*
X49136861Y70209255D02*
X49199756Y70146359D01*
X49199756Y70146359D02*
X49294099Y70114912D01*
X49294099Y70114912D02*
X49451337Y70114912D01*
X48507909Y70775312D02*
X48633699Y70775312D01*
X48633699Y70775312D02*
X48696595Y70743864D01*
X48696595Y70743864D02*
X48728042Y70712417D01*
X48728042Y70712417D02*
X48790937Y70618074D01*
X48790937Y70618074D02*
X48822385Y70492283D01*
X48822385Y70492283D02*
X48822385Y70240702D01*
X48822385Y70240702D02*
X48790937Y70177807D01*
X48790937Y70177807D02*
X48759490Y70146359D01*
X48759490Y70146359D02*
X48696595Y70114912D01*
X48696595Y70114912D02*
X48570804Y70114912D01*
X48570804Y70114912D02*
X48507909Y70146359D01*
X48507909Y70146359D02*
X48476461Y70177807D01*
X48476461Y70177807D02*
X48445014Y70240702D01*
X48445014Y70240702D02*
X48445014Y70397940D01*
X48445014Y70397940D02*
X48476461Y70460836D01*
X48476461Y70460836D02*
X48507909Y70492283D01*
X48507909Y70492283D02*
X48570804Y70523731D01*
X48570804Y70523731D02*
X48696595Y70523731D01*
X48696595Y70523731D02*
X48759490Y70492283D01*
X48759490Y70492283D02*
X48790937Y70460836D01*
X48790937Y70460836D02*
X48822385Y70397940D01*
X47677124Y78649659D02*
X47677124Y79310059D01*
X47677124Y79310059D02*
X47519886Y79310059D01*
X47519886Y79310059D02*
X47425543Y79278611D01*
X47425543Y79278611D02*
X47362648Y79215716D01*
X47362648Y79215716D02*
X47331201Y79152821D01*
X47331201Y79152821D02*
X47299753Y79027030D01*
X47299753Y79027030D02*
X47299753Y78932687D01*
X47299753Y78932687D02*
X47331201Y78806897D01*
X47331201Y78806897D02*
X47362648Y78744002D01*
X47362648Y78744002D02*
X47425543Y78681106D01*
X47425543Y78681106D02*
X47519886Y78649659D01*
X47519886Y78649659D02*
X47677124Y78649659D01*
X46702248Y79310059D02*
X47016724Y79310059D01*
X47016724Y79310059D02*
X47048172Y78995583D01*
X47048172Y78995583D02*
X47016724Y79027030D01*
X47016724Y79027030D02*
X46953829Y79058478D01*
X46953829Y79058478D02*
X46796591Y79058478D01*
X46796591Y79058478D02*
X46733696Y79027030D01*
X46733696Y79027030D02*
X46702248Y78995583D01*
X46702248Y78995583D02*
X46670801Y78932687D01*
X46670801Y78932687D02*
X46670801Y78775449D01*
X46670801Y78775449D02*
X46702248Y78712554D01*
X46702248Y78712554D02*
X46733696Y78681106D01*
X46733696Y78681106D02*
X46796591Y78649659D01*
X46796591Y78649659D02*
X46953829Y78649659D01*
X46953829Y78649659D02*
X47016724Y78681106D01*
X47016724Y78681106D02*
X47048172Y78712554D01*
X54696488Y74487438D02*
X54036088Y74487438D01*
X54036088Y74487438D02*
X54036088Y74330200D01*
X54036088Y74330200D02*
X54067536Y74235857D01*
X54067536Y74235857D02*
X54130431Y74172962D01*
X54130431Y74172962D02*
X54193326Y74141515D01*
X54193326Y74141515D02*
X54319117Y74110067D01*
X54319117Y74110067D02*
X54413460Y74110067D01*
X54413460Y74110067D02*
X54539250Y74141515D01*
X54539250Y74141515D02*
X54602145Y74172962D01*
X54602145Y74172962D02*
X54665041Y74235857D01*
X54665041Y74235857D02*
X54696488Y74330200D01*
X54696488Y74330200D02*
X54696488Y74487438D01*
X54256221Y73544010D02*
X54696488Y73544010D01*
X54004641Y73701248D02*
X54476355Y73858486D01*
X54476355Y73858486D02*
X54476355Y73449667D01*
X9927588Y63843943D02*
X9613112Y64064076D01*
X9927588Y64221314D02*
X9267188Y64221314D01*
X9267188Y64221314D02*
X9267188Y63969733D01*
X9267188Y63969733D02*
X9298636Y63906838D01*
X9298636Y63906838D02*
X9330083Y63875391D01*
X9330083Y63875391D02*
X9392979Y63843943D01*
X9392979Y63843943D02*
X9487321Y63843943D01*
X9487321Y63843943D02*
X9550217Y63875391D01*
X9550217Y63875391D02*
X9581664Y63906838D01*
X9581664Y63906838D02*
X9613112Y63969733D01*
X9613112Y63969733D02*
X9613112Y64221314D01*
X9330083Y63592362D02*
X9298636Y63560914D01*
X9298636Y63560914D02*
X9267188Y63498019D01*
X9267188Y63498019D02*
X9267188Y63340781D01*
X9267188Y63340781D02*
X9298636Y63277886D01*
X9298636Y63277886D02*
X9330083Y63246438D01*
X9330083Y63246438D02*
X9392979Y63214991D01*
X9392979Y63214991D02*
X9455874Y63214991D01*
X9455874Y63214991D02*
X9550217Y63246438D01*
X9550217Y63246438D02*
X9927588Y63623810D01*
X9927588Y63623810D02*
X9927588Y63214991D01*
X9267188Y62806172D02*
X9267188Y62743277D01*
X9267188Y62743277D02*
X9298636Y62680381D01*
X9298636Y62680381D02*
X9330083Y62648934D01*
X9330083Y62648934D02*
X9392979Y62617486D01*
X9392979Y62617486D02*
X9518769Y62586039D01*
X9518769Y62586039D02*
X9676007Y62586039D01*
X9676007Y62586039D02*
X9801798Y62617486D01*
X9801798Y62617486D02*
X9864693Y62648934D01*
X9864693Y62648934D02*
X9896141Y62680381D01*
X9896141Y62680381D02*
X9927588Y62743277D01*
X9927588Y62743277D02*
X9927588Y62806172D01*
X9927588Y62806172D02*
X9896141Y62869067D01*
X9896141Y62869067D02*
X9864693Y62900515D01*
X9864693Y62900515D02*
X9801798Y62931962D01*
X9801798Y62931962D02*
X9676007Y62963410D01*
X9676007Y62963410D02*
X9518769Y62963410D01*
X9518769Y62963410D02*
X9392979Y62931962D01*
X9392979Y62931962D02*
X9330083Y62900515D01*
X9330083Y62900515D02*
X9298636Y62869067D01*
X9298636Y62869067D02*
X9267188Y62806172D01*
X60211278Y76030307D02*
X60242726Y75998859D01*
X60242726Y75998859D02*
X60337068Y75967412D01*
X60337068Y75967412D02*
X60399964Y75967412D01*
X60399964Y75967412D02*
X60494307Y75998859D01*
X60494307Y75998859D02*
X60557202Y76061755D01*
X60557202Y76061755D02*
X60588649Y76124650D01*
X60588649Y76124650D02*
X60620097Y76250440D01*
X60620097Y76250440D02*
X60620097Y76344783D01*
X60620097Y76344783D02*
X60588649Y76470574D01*
X60588649Y76470574D02*
X60557202Y76533469D01*
X60557202Y76533469D02*
X60494307Y76596364D01*
X60494307Y76596364D02*
X60399964Y76627812D01*
X60399964Y76627812D02*
X60337068Y76627812D01*
X60337068Y76627812D02*
X60242726Y76596364D01*
X60242726Y76596364D02*
X60211278Y76564917D01*
X59959697Y76564917D02*
X59928249Y76596364D01*
X59928249Y76596364D02*
X59865354Y76627812D01*
X59865354Y76627812D02*
X59708116Y76627812D01*
X59708116Y76627812D02*
X59645221Y76596364D01*
X59645221Y76596364D02*
X59613773Y76564917D01*
X59613773Y76564917D02*
X59582326Y76502021D01*
X59582326Y76502021D02*
X59582326Y76439126D01*
X59582326Y76439126D02*
X59613773Y76344783D01*
X59613773Y76344783D02*
X59991145Y75967412D01*
X59991145Y75967412D02*
X59582326Y75967412D01*
X59362193Y76627812D02*
X58953374Y76627812D01*
X58953374Y76627812D02*
X59173507Y76376231D01*
X59173507Y76376231D02*
X59079164Y76376231D01*
X59079164Y76376231D02*
X59016269Y76344783D01*
X59016269Y76344783D02*
X58984821Y76313336D01*
X58984821Y76313336D02*
X58953374Y76250440D01*
X58953374Y76250440D02*
X58953374Y76093202D01*
X58953374Y76093202D02*
X58984821Y76030307D01*
X58984821Y76030307D02*
X59016269Y75998859D01*
X59016269Y75998859D02*
X59079164Y75967412D01*
X59079164Y75967412D02*
X59267850Y75967412D01*
X59267850Y75967412D02*
X59330745Y75998859D01*
X59330745Y75998859D02*
X59362193Y76030307D01*
X60554522Y69597520D02*
X60774655Y69911996D01*
X60931893Y69597520D02*
X60931893Y70257920D01*
X60931893Y70257920D02*
X60680312Y70257920D01*
X60680312Y70257920D02*
X60617417Y70226472D01*
X60617417Y70226472D02*
X60585970Y70195025D01*
X60585970Y70195025D02*
X60554522Y70132129D01*
X60554522Y70132129D02*
X60554522Y70037787D01*
X60554522Y70037787D02*
X60585970Y69974891D01*
X60585970Y69974891D02*
X60617417Y69943444D01*
X60617417Y69943444D02*
X60680312Y69911996D01*
X60680312Y69911996D02*
X60931893Y69911996D01*
X60334389Y70257920D02*
X59925570Y70257920D01*
X59925570Y70257920D02*
X60145703Y70006339D01*
X60145703Y70006339D02*
X60051360Y70006339D01*
X60051360Y70006339D02*
X59988465Y69974891D01*
X59988465Y69974891D02*
X59957017Y69943444D01*
X59957017Y69943444D02*
X59925570Y69880548D01*
X59925570Y69880548D02*
X59925570Y69723310D01*
X59925570Y69723310D02*
X59957017Y69660415D01*
X59957017Y69660415D02*
X59988465Y69628967D01*
X59988465Y69628967D02*
X60051360Y69597520D01*
X60051360Y69597520D02*
X60240046Y69597520D01*
X60240046Y69597520D02*
X60302941Y69628967D01*
X60302941Y69628967D02*
X60334389Y69660415D01*
X23173442Y67202412D02*
X23393575Y67516888D01*
X23550813Y67202412D02*
X23550813Y67862812D01*
X23550813Y67862812D02*
X23299232Y67862812D01*
X23299232Y67862812D02*
X23236337Y67831364D01*
X23236337Y67831364D02*
X23204890Y67799917D01*
X23204890Y67799917D02*
X23173442Y67737021D01*
X23173442Y67737021D02*
X23173442Y67642679D01*
X23173442Y67642679D02*
X23204890Y67579783D01*
X23204890Y67579783D02*
X23236337Y67548336D01*
X23236337Y67548336D02*
X23299232Y67516888D01*
X23299232Y67516888D02*
X23550813Y67516888D01*
X22544490Y67202412D02*
X22921861Y67202412D01*
X22733175Y67202412D02*
X22733175Y67862812D01*
X22733175Y67862812D02*
X22796071Y67768469D01*
X22796071Y67768469D02*
X22858966Y67705574D01*
X22858966Y67705574D02*
X22921861Y67674126D01*
X22230014Y67202412D02*
X22104223Y67202412D01*
X22104223Y67202412D02*
X22041328Y67233859D01*
X22041328Y67233859D02*
X22009880Y67265307D01*
X22009880Y67265307D02*
X21946985Y67359650D01*
X21946985Y67359650D02*
X21915538Y67485440D01*
X21915538Y67485440D02*
X21915538Y67737021D01*
X21915538Y67737021D02*
X21946985Y67799917D01*
X21946985Y67799917D02*
X21978433Y67831364D01*
X21978433Y67831364D02*
X22041328Y67862812D01*
X22041328Y67862812D02*
X22167119Y67862812D01*
X22167119Y67862812D02*
X22230014Y67831364D01*
X22230014Y67831364D02*
X22261461Y67799917D01*
X22261461Y67799917D02*
X22292909Y67737021D01*
X22292909Y67737021D02*
X22292909Y67579783D01*
X22292909Y67579783D02*
X22261461Y67516888D01*
X22261461Y67516888D02*
X22230014Y67485440D01*
X22230014Y67485440D02*
X22167119Y67453993D01*
X22167119Y67453993D02*
X22041328Y67453993D01*
X22041328Y67453993D02*
X21978433Y67485440D01*
X21978433Y67485440D02*
X21946985Y67516888D01*
X21946985Y67516888D02*
X21915538Y67579783D01*
X24923442Y58265307D02*
X24954890Y58233859D01*
X24954890Y58233859D02*
X25049232Y58202412D01*
X25049232Y58202412D02*
X25112128Y58202412D01*
X25112128Y58202412D02*
X25206471Y58233859D01*
X25206471Y58233859D02*
X25269366Y58296755D01*
X25269366Y58296755D02*
X25300813Y58359650D01*
X25300813Y58359650D02*
X25332261Y58485440D01*
X25332261Y58485440D02*
X25332261Y58579783D01*
X25332261Y58579783D02*
X25300813Y58705574D01*
X25300813Y58705574D02*
X25269366Y58768469D01*
X25269366Y58768469D02*
X25206471Y58831364D01*
X25206471Y58831364D02*
X25112128Y58862812D01*
X25112128Y58862812D02*
X25049232Y58862812D01*
X25049232Y58862812D02*
X24954890Y58831364D01*
X24954890Y58831364D02*
X24923442Y58799917D01*
X24294490Y58202412D02*
X24671861Y58202412D01*
X24483175Y58202412D02*
X24483175Y58862812D01*
X24483175Y58862812D02*
X24546071Y58768469D01*
X24546071Y58768469D02*
X24608966Y58705574D01*
X24608966Y58705574D02*
X24671861Y58674126D01*
X23696985Y58862812D02*
X24011461Y58862812D01*
X24011461Y58862812D02*
X24042909Y58548336D01*
X24042909Y58548336D02*
X24011461Y58579783D01*
X24011461Y58579783D02*
X23948566Y58611231D01*
X23948566Y58611231D02*
X23791328Y58611231D01*
X23791328Y58611231D02*
X23728433Y58579783D01*
X23728433Y58579783D02*
X23696985Y58548336D01*
X23696985Y58548336D02*
X23665538Y58485440D01*
X23665538Y58485440D02*
X23665538Y58328202D01*
X23665538Y58328202D02*
X23696985Y58265307D01*
X23696985Y58265307D02*
X23728433Y58233859D01*
X23728433Y58233859D02*
X23791328Y58202412D01*
X23791328Y58202412D02*
X23948566Y58202412D01*
X23948566Y58202412D02*
X24011461Y58233859D01*
X24011461Y58233859D02*
X24042909Y58265307D01*
X17608966Y61015307D02*
X17640414Y60983859D01*
X17640414Y60983859D02*
X17734756Y60952412D01*
X17734756Y60952412D02*
X17797652Y60952412D01*
X17797652Y60952412D02*
X17891995Y60983859D01*
X17891995Y60983859D02*
X17954890Y61046755D01*
X17954890Y61046755D02*
X17986337Y61109650D01*
X17986337Y61109650D02*
X18017785Y61235440D01*
X18017785Y61235440D02*
X18017785Y61329783D01*
X18017785Y61329783D02*
X17986337Y61455574D01*
X17986337Y61455574D02*
X17954890Y61518469D01*
X17954890Y61518469D02*
X17891995Y61581364D01*
X17891995Y61581364D02*
X17797652Y61612812D01*
X17797652Y61612812D02*
X17734756Y61612812D01*
X17734756Y61612812D02*
X17640414Y61581364D01*
X17640414Y61581364D02*
X17608966Y61549917D01*
X16980014Y60952412D02*
X17357385Y60952412D01*
X17168699Y60952412D02*
X17168699Y61612812D01*
X17168699Y61612812D02*
X17231595Y61518469D01*
X17231595Y61518469D02*
X17294490Y61455574D01*
X17294490Y61455574D02*
X17357385Y61424126D01*
X25923442Y67265307D02*
X25954890Y67233859D01*
X25954890Y67233859D02*
X26049232Y67202412D01*
X26049232Y67202412D02*
X26112128Y67202412D01*
X26112128Y67202412D02*
X26206471Y67233859D01*
X26206471Y67233859D02*
X26269366Y67296755D01*
X26269366Y67296755D02*
X26300813Y67359650D01*
X26300813Y67359650D02*
X26332261Y67485440D01*
X26332261Y67485440D02*
X26332261Y67579783D01*
X26332261Y67579783D02*
X26300813Y67705574D01*
X26300813Y67705574D02*
X26269366Y67768469D01*
X26269366Y67768469D02*
X26206471Y67831364D01*
X26206471Y67831364D02*
X26112128Y67862812D01*
X26112128Y67862812D02*
X26049232Y67862812D01*
X26049232Y67862812D02*
X25954890Y67831364D01*
X25954890Y67831364D02*
X25923442Y67799917D01*
X25357385Y67642679D02*
X25357385Y67202412D01*
X25514623Y67894259D02*
X25671861Y67422545D01*
X25671861Y67422545D02*
X25263042Y67422545D01*
X25042909Y67799917D02*
X25011461Y67831364D01*
X25011461Y67831364D02*
X24948566Y67862812D01*
X24948566Y67862812D02*
X24791328Y67862812D01*
X24791328Y67862812D02*
X24728433Y67831364D01*
X24728433Y67831364D02*
X24696985Y67799917D01*
X24696985Y67799917D02*
X24665538Y67737021D01*
X24665538Y67737021D02*
X24665538Y67674126D01*
X24665538Y67674126D02*
X24696985Y67579783D01*
X24696985Y67579783D02*
X25074357Y67202412D01*
X25074357Y67202412D02*
X24665538Y67202412D01*
X18423442Y67202412D02*
X18643575Y67516888D01*
X18800813Y67202412D02*
X18800813Y67862812D01*
X18800813Y67862812D02*
X18549232Y67862812D01*
X18549232Y67862812D02*
X18486337Y67831364D01*
X18486337Y67831364D02*
X18454890Y67799917D01*
X18454890Y67799917D02*
X18423442Y67737021D01*
X18423442Y67737021D02*
X18423442Y67642679D01*
X18423442Y67642679D02*
X18454890Y67579783D01*
X18454890Y67579783D02*
X18486337Y67548336D01*
X18486337Y67548336D02*
X18549232Y67516888D01*
X18549232Y67516888D02*
X18800813Y67516888D01*
X17794490Y67202412D02*
X18171861Y67202412D01*
X17983175Y67202412D02*
X17983175Y67862812D01*
X17983175Y67862812D02*
X18046071Y67768469D01*
X18046071Y67768469D02*
X18108966Y67705574D01*
X18108966Y67705574D02*
X18171861Y67674126D01*
X17574357Y67862812D02*
X17134090Y67862812D01*
X17134090Y67862812D02*
X17417119Y67202412D01*
X26608966Y56452412D02*
X26829099Y56766888D01*
X26986337Y56452412D02*
X26986337Y57112812D01*
X26986337Y57112812D02*
X26734756Y57112812D01*
X26734756Y57112812D02*
X26671861Y57081364D01*
X26671861Y57081364D02*
X26640414Y57049917D01*
X26640414Y57049917D02*
X26608966Y56987021D01*
X26608966Y56987021D02*
X26608966Y56892679D01*
X26608966Y56892679D02*
X26640414Y56829783D01*
X26640414Y56829783D02*
X26671861Y56798336D01*
X26671861Y56798336D02*
X26734756Y56766888D01*
X26734756Y56766888D02*
X26986337Y56766888D01*
X26294490Y56452412D02*
X26168699Y56452412D01*
X26168699Y56452412D02*
X26105804Y56483859D01*
X26105804Y56483859D02*
X26074356Y56515307D01*
X26074356Y56515307D02*
X26011461Y56609650D01*
X26011461Y56609650D02*
X25980014Y56735440D01*
X25980014Y56735440D02*
X25980014Y56987021D01*
X25980014Y56987021D02*
X26011461Y57049917D01*
X26011461Y57049917D02*
X26042909Y57081364D01*
X26042909Y57081364D02*
X26105804Y57112812D01*
X26105804Y57112812D02*
X26231595Y57112812D01*
X26231595Y57112812D02*
X26294490Y57081364D01*
X26294490Y57081364D02*
X26325937Y57049917D01*
X26325937Y57049917D02*
X26357385Y56987021D01*
X26357385Y56987021D02*
X26357385Y56829783D01*
X26357385Y56829783D02*
X26325937Y56766888D01*
X26325937Y56766888D02*
X26294490Y56735440D01*
X26294490Y56735440D02*
X26231595Y56703993D01*
X26231595Y56703993D02*
X26105804Y56703993D01*
X26105804Y56703993D02*
X26042909Y56735440D01*
X26042909Y56735440D02*
X26011461Y56766888D01*
X26011461Y56766888D02*
X25980014Y56829783D01*
X12673442Y67452412D02*
X12893575Y67766888D01*
X13050813Y67452412D02*
X13050813Y68112812D01*
X13050813Y68112812D02*
X12799232Y68112812D01*
X12799232Y68112812D02*
X12736337Y68081364D01*
X12736337Y68081364D02*
X12704890Y68049917D01*
X12704890Y68049917D02*
X12673442Y67987021D01*
X12673442Y67987021D02*
X12673442Y67892679D01*
X12673442Y67892679D02*
X12704890Y67829783D01*
X12704890Y67829783D02*
X12736337Y67798336D01*
X12736337Y67798336D02*
X12799232Y67766888D01*
X12799232Y67766888D02*
X13050813Y67766888D01*
X12421861Y68049917D02*
X12390413Y68081364D01*
X12390413Y68081364D02*
X12327518Y68112812D01*
X12327518Y68112812D02*
X12170280Y68112812D01*
X12170280Y68112812D02*
X12107385Y68081364D01*
X12107385Y68081364D02*
X12075937Y68049917D01*
X12075937Y68049917D02*
X12044490Y67987021D01*
X12044490Y67987021D02*
X12044490Y67924126D01*
X12044490Y67924126D02*
X12075937Y67829783D01*
X12075937Y67829783D02*
X12453309Y67452412D01*
X12453309Y67452412D02*
X12044490Y67452412D01*
X11415538Y67452412D02*
X11792909Y67452412D01*
X11604223Y67452412D02*
X11604223Y68112812D01*
X11604223Y68112812D02*
X11667119Y68018469D01*
X11667119Y68018469D02*
X11730014Y67955574D01*
X11730014Y67955574D02*
X11792909Y67924126D01*
X20923442Y67265307D02*
X20954890Y67233859D01*
X20954890Y67233859D02*
X21049232Y67202412D01*
X21049232Y67202412D02*
X21112128Y67202412D01*
X21112128Y67202412D02*
X21206471Y67233859D01*
X21206471Y67233859D02*
X21269366Y67296755D01*
X21269366Y67296755D02*
X21300813Y67359650D01*
X21300813Y67359650D02*
X21332261Y67485440D01*
X21332261Y67485440D02*
X21332261Y67579783D01*
X21332261Y67579783D02*
X21300813Y67705574D01*
X21300813Y67705574D02*
X21269366Y67768469D01*
X21269366Y67768469D02*
X21206471Y67831364D01*
X21206471Y67831364D02*
X21112128Y67862812D01*
X21112128Y67862812D02*
X21049232Y67862812D01*
X21049232Y67862812D02*
X20954890Y67831364D01*
X20954890Y67831364D02*
X20923442Y67799917D01*
X20357385Y67642679D02*
X20357385Y67202412D01*
X20514623Y67894259D02*
X20671861Y67422545D01*
X20671861Y67422545D02*
X20263042Y67422545D01*
X19665538Y67202412D02*
X20042909Y67202412D01*
X19854223Y67202412D02*
X19854223Y67862812D01*
X19854223Y67862812D02*
X19917119Y67768469D01*
X19917119Y67768469D02*
X19980014Y67705574D01*
X19980014Y67705574D02*
X20042909Y67674126D01*
X29397542Y43008707D02*
X29428990Y42977259D01*
X29428990Y42977259D02*
X29523332Y42945812D01*
X29523332Y42945812D02*
X29586228Y42945812D01*
X29586228Y42945812D02*
X29680571Y42977259D01*
X29680571Y42977259D02*
X29743466Y43040155D01*
X29743466Y43040155D02*
X29774913Y43103050D01*
X29774913Y43103050D02*
X29806361Y43228840D01*
X29806361Y43228840D02*
X29806361Y43323183D01*
X29806361Y43323183D02*
X29774913Y43448974D01*
X29774913Y43448974D02*
X29743466Y43511869D01*
X29743466Y43511869D02*
X29680571Y43574764D01*
X29680571Y43574764D02*
X29586228Y43606212D01*
X29586228Y43606212D02*
X29523332Y43606212D01*
X29523332Y43606212D02*
X29428990Y43574764D01*
X29428990Y43574764D02*
X29397542Y43543317D01*
X28768590Y42945812D02*
X29145961Y42945812D01*
X28957275Y42945812D02*
X28957275Y43606212D01*
X28957275Y43606212D02*
X29020171Y43511869D01*
X29020171Y43511869D02*
X29083066Y43448974D01*
X29083066Y43448974D02*
X29145961Y43417526D01*
X28202533Y43606212D02*
X28328323Y43606212D01*
X28328323Y43606212D02*
X28391219Y43574764D01*
X28391219Y43574764D02*
X28422666Y43543317D01*
X28422666Y43543317D02*
X28485561Y43448974D01*
X28485561Y43448974D02*
X28517009Y43323183D01*
X28517009Y43323183D02*
X28517009Y43071602D01*
X28517009Y43071602D02*
X28485561Y43008707D01*
X28485561Y43008707D02*
X28454114Y42977259D01*
X28454114Y42977259D02*
X28391219Y42945812D01*
X28391219Y42945812D02*
X28265428Y42945812D01*
X28265428Y42945812D02*
X28202533Y42977259D01*
X28202533Y42977259D02*
X28171085Y43008707D01*
X28171085Y43008707D02*
X28139638Y43071602D01*
X28139638Y43071602D02*
X28139638Y43228840D01*
X28139638Y43228840D02*
X28171085Y43291736D01*
X28171085Y43291736D02*
X28202533Y43323183D01*
X28202533Y43323183D02*
X28265428Y43354631D01*
X28265428Y43354631D02*
X28391219Y43354631D01*
X28391219Y43354631D02*
X28454114Y43323183D01*
X28454114Y43323183D02*
X28485561Y43291736D01*
X28485561Y43291736D02*
X28517009Y43228840D01*
X9323425Y73518358D02*
X9543558Y73832834D01*
X9700796Y73518358D02*
X9700796Y74178758D01*
X9700796Y74178758D02*
X9449215Y74178758D01*
X9449215Y74178758D02*
X9386320Y74147310D01*
X9386320Y74147310D02*
X9354873Y74115863D01*
X9354873Y74115863D02*
X9323425Y74052967D01*
X9323425Y74052967D02*
X9323425Y73958625D01*
X9323425Y73958625D02*
X9354873Y73895729D01*
X9354873Y73895729D02*
X9386320Y73864282D01*
X9386320Y73864282D02*
X9449215Y73832834D01*
X9449215Y73832834D02*
X9700796Y73832834D01*
X8946054Y73895729D02*
X9008949Y73927177D01*
X9008949Y73927177D02*
X9040396Y73958625D01*
X9040396Y73958625D02*
X9071844Y74021520D01*
X9071844Y74021520D02*
X9071844Y74052967D01*
X9071844Y74052967D02*
X9040396Y74115863D01*
X9040396Y74115863D02*
X9008949Y74147310D01*
X9008949Y74147310D02*
X8946054Y74178758D01*
X8946054Y74178758D02*
X8820263Y74178758D01*
X8820263Y74178758D02*
X8757368Y74147310D01*
X8757368Y74147310D02*
X8725920Y74115863D01*
X8725920Y74115863D02*
X8694473Y74052967D01*
X8694473Y74052967D02*
X8694473Y74021520D01*
X8694473Y74021520D02*
X8725920Y73958625D01*
X8725920Y73958625D02*
X8757368Y73927177D01*
X8757368Y73927177D02*
X8820263Y73895729D01*
X8820263Y73895729D02*
X8946054Y73895729D01*
X8946054Y73895729D02*
X9008949Y73864282D01*
X9008949Y73864282D02*
X9040396Y73832834D01*
X9040396Y73832834D02*
X9071844Y73769939D01*
X9071844Y73769939D02*
X9071844Y73644148D01*
X9071844Y73644148D02*
X9040396Y73581253D01*
X9040396Y73581253D02*
X9008949Y73549805D01*
X9008949Y73549805D02*
X8946054Y73518358D01*
X8946054Y73518358D02*
X8820263Y73518358D01*
X8820263Y73518358D02*
X8757368Y73549805D01*
X8757368Y73549805D02*
X8725920Y73581253D01*
X8725920Y73581253D02*
X8694473Y73644148D01*
X8694473Y73644148D02*
X8694473Y73769939D01*
X8694473Y73769939D02*
X8725920Y73832834D01*
X8725920Y73832834D02*
X8757368Y73864282D01*
X8757368Y73864282D02*
X8820263Y73895729D01*
X23108966Y50702412D02*
X23329099Y51016888D01*
X23486337Y50702412D02*
X23486337Y51362812D01*
X23486337Y51362812D02*
X23234756Y51362812D01*
X23234756Y51362812D02*
X23171861Y51331364D01*
X23171861Y51331364D02*
X23140414Y51299917D01*
X23140414Y51299917D02*
X23108966Y51237021D01*
X23108966Y51237021D02*
X23108966Y51142679D01*
X23108966Y51142679D02*
X23140414Y51079783D01*
X23140414Y51079783D02*
X23171861Y51048336D01*
X23171861Y51048336D02*
X23234756Y51016888D01*
X23234756Y51016888D02*
X23486337Y51016888D01*
X22888833Y51362812D02*
X22448566Y51362812D01*
X22448566Y51362812D02*
X22731595Y50702412D01*
X60196802Y74630307D02*
X60228250Y74598859D01*
X60228250Y74598859D02*
X60322592Y74567412D01*
X60322592Y74567412D02*
X60385488Y74567412D01*
X60385488Y74567412D02*
X60479831Y74598859D01*
X60479831Y74598859D02*
X60542726Y74661755D01*
X60542726Y74661755D02*
X60574173Y74724650D01*
X60574173Y74724650D02*
X60605621Y74850440D01*
X60605621Y74850440D02*
X60605621Y74944783D01*
X60605621Y74944783D02*
X60574173Y75070574D01*
X60574173Y75070574D02*
X60542726Y75133469D01*
X60542726Y75133469D02*
X60479831Y75196364D01*
X60479831Y75196364D02*
X60385488Y75227812D01*
X60385488Y75227812D02*
X60322592Y75227812D01*
X60322592Y75227812D02*
X60228250Y75196364D01*
X60228250Y75196364D02*
X60196802Y75164917D01*
X59945221Y75164917D02*
X59913773Y75196364D01*
X59913773Y75196364D02*
X59850878Y75227812D01*
X59850878Y75227812D02*
X59693640Y75227812D01*
X59693640Y75227812D02*
X59630745Y75196364D01*
X59630745Y75196364D02*
X59599297Y75164917D01*
X59599297Y75164917D02*
X59567850Y75102021D01*
X59567850Y75102021D02*
X59567850Y75039126D01*
X59567850Y75039126D02*
X59599297Y74944783D01*
X59599297Y74944783D02*
X59976669Y74567412D01*
X59976669Y74567412D02*
X59567850Y74567412D01*
X25358966Y50702412D02*
X25579099Y51016888D01*
X25736337Y50702412D02*
X25736337Y51362812D01*
X25736337Y51362812D02*
X25484756Y51362812D01*
X25484756Y51362812D02*
X25421861Y51331364D01*
X25421861Y51331364D02*
X25390414Y51299917D01*
X25390414Y51299917D02*
X25358966Y51237021D01*
X25358966Y51237021D02*
X25358966Y51142679D01*
X25358966Y51142679D02*
X25390414Y51079783D01*
X25390414Y51079783D02*
X25421861Y51048336D01*
X25421861Y51048336D02*
X25484756Y51016888D01*
X25484756Y51016888D02*
X25736337Y51016888D01*
X24792909Y51142679D02*
X24792909Y50702412D01*
X24950147Y51394259D02*
X25107385Y50922545D01*
X25107385Y50922545D02*
X24698566Y50922545D01*
X32010066Y46871812D02*
X32324542Y46871812D01*
X32324542Y46871812D02*
X32324542Y47532212D01*
X31852828Y47532212D02*
X31444009Y47532212D01*
X31444009Y47532212D02*
X31664142Y47280631D01*
X31664142Y47280631D02*
X31569799Y47280631D01*
X31569799Y47280631D02*
X31506904Y47249183D01*
X31506904Y47249183D02*
X31475456Y47217736D01*
X31475456Y47217736D02*
X31444009Y47154840D01*
X31444009Y47154840D02*
X31444009Y46997602D01*
X31444009Y46997602D02*
X31475456Y46934707D01*
X31475456Y46934707D02*
X31506904Y46903259D01*
X31506904Y46903259D02*
X31569799Y46871812D01*
X31569799Y46871812D02*
X31758485Y46871812D01*
X31758485Y46871812D02*
X31821380Y46903259D01*
X31821380Y46903259D02*
X31852828Y46934707D01*
D11*
%TO.C,IC10*%
X14100000Y62759400D02*
X13300000Y62759400D01*
X14100000Y62759400D02*
X14900000Y62759400D01*
X14100000Y65879400D02*
X13300000Y65879400D01*
X14100000Y65879400D02*
X14900000Y65879400D01*
X13040000Y62479400D02*
X12560000Y62479400D01*
X12800000Y62809400D01*
X13040000Y62479400D01*
G36*
X13040000Y62479400D02*
G01*
X12560000Y62479400D01*
X12800000Y62809400D01*
X13040000Y62479400D01*
G37*
%TO.C,D6*%
X48798900Y74360000D02*
X49448900Y74360000D01*
X48798900Y74360000D02*
X48148900Y74360000D01*
X48798900Y71240000D02*
X49448900Y71240000D01*
X48798900Y71240000D02*
X48148900Y71240000D01*
X49961400Y74310000D02*
X49721400Y74640000D01*
X50201400Y74640000D01*
X49961400Y74310000D01*
G36*
X49961400Y74310000D02*
G01*
X49721400Y74640000D01*
X50201400Y74640000D01*
X49961400Y74310000D01*
G37*
%TO.C,D5*%
X51358900Y78600000D02*
X51358900Y77950000D01*
X51358900Y78600000D02*
X51358900Y79250000D01*
X48238900Y78600000D02*
X48238900Y77950000D01*
X48238900Y78600000D02*
X48238900Y79250000D01*
X51638900Y77197500D02*
X51308900Y77437500D01*
X51638900Y77677500D01*
X51638900Y77197500D01*
G36*
X51638900Y77197500D02*
G01*
X51308900Y77437500D01*
X51638900Y77677500D01*
X51638900Y77197500D01*
G37*
%TO.C,D4*%
X58258900Y74400000D02*
X58258900Y73750000D01*
X58258900Y74400000D02*
X58258900Y75050000D01*
X55138900Y74400000D02*
X55138900Y73750000D01*
X55138900Y74400000D02*
X55138900Y75050000D01*
X58538900Y72997500D02*
X58208900Y73237500D01*
X58538900Y73477500D01*
X58538900Y72997500D01*
G36*
X58538900Y72997500D02*
G01*
X58208900Y73237500D01*
X58538900Y73477500D01*
X58538900Y72997500D01*
G37*
%TO.C,R20*%
X10420000Y63573041D02*
X10420000Y63265759D01*
X11180000Y63573041D02*
X11180000Y63265759D01*
%TO.C,C23*%
X59871064Y74285000D02*
X60086736Y74285000D01*
X59871064Y73565000D02*
X60086736Y73565000D01*
%TO.C,R3*%
X59845259Y71567500D02*
X60152541Y71567500D01*
X59845259Y70807500D02*
X60152541Y70807500D01*
%TO.C,R19*%
X22620000Y66173041D02*
X22620000Y65865759D01*
X23380000Y66173041D02*
X23380000Y65865759D01*
%TO.C,C15*%
X23190000Y56378820D02*
X23190000Y56659980D01*
X24210000Y56378820D02*
X24210000Y56659980D01*
%TO.C,C1*%
X17438000Y62875236D02*
X17438000Y62659564D01*
X18158000Y62875236D02*
X18158000Y62659564D01*
%TO.C,C42*%
X24540000Y66127236D02*
X24540000Y65911564D01*
X25260000Y66127236D02*
X25260000Y65911564D01*
%TO.C,R17*%
X18020000Y65865759D02*
X18020000Y66173041D01*
X18780000Y65865759D02*
X18780000Y66173041D01*
%TO.C,R9*%
X26446359Y55999400D02*
X26753641Y55999400D01*
X26446359Y55239400D02*
X26753641Y55239400D01*
%TO.C,R21*%
X10420000Y67473041D02*
X10420000Y67165759D01*
X11180000Y67473041D02*
X11180000Y67165759D01*
%TO.C,C41*%
X20440000Y65911564D02*
X20440000Y66127236D01*
X21160000Y65911564D02*
X21160000Y66127236D01*
%TO.C,C16*%
X28640000Y44727236D02*
X28640000Y44511564D01*
X29360000Y44727236D02*
X29360000Y44511564D01*
%TO.C,R8*%
X9213359Y73195346D02*
X9520641Y73195346D01*
X9213359Y72435346D02*
X9520641Y72435346D01*
%TO.C,R7*%
X22644000Y52745041D02*
X22644000Y52437759D01*
X23404000Y52745041D02*
X23404000Y52437759D01*
%TO.C,C2*%
X60086736Y72916250D02*
X59871064Y72916250D01*
X60086736Y72196250D02*
X59871064Y72196250D01*
%TO.C,R4*%
X24497200Y52442959D02*
X24497200Y52750241D01*
X25257200Y52442959D02*
X25257200Y52750241D01*
%TO.C,L3*%
X32127064Y46254400D02*
X31672936Y46254400D01*
X32127064Y44784400D02*
X31672936Y44784400D01*
%TD*%
D12*
X60423900Y0D02*
G75*
G02*
X61923900Y1500000I1500000J0D01*
G01*
X1500000Y0D02*
X60423900Y0D01*
X0Y1500000D02*
G75*
G02*
X1500000Y0I0J-1500000D01*
G01*
X1500000Y84400000D02*
G75*
G02*
X0Y82900000I-1500000J0D01*
G01*
D13*
X61923900Y1500000D02*
X61923900Y82900000D01*
D12*
X60423900Y84400000D02*
X1500000Y84400000D01*
X0Y82900000D02*
X0Y1500000D01*
X61923900Y82900000D02*
G75*
G02*
X60423900Y84400000I0J1500000D01*
G01*
M02*
