%TF.GenerationSoftware,KiCad,Pcbnew,9.0.2*%
%TF.CreationDate,2025-07-11T15:34:56+01:00*%
%TF.ProjectId,FastStepper,46617374-5374-4657-9070-65722e6b6963,rev?*%
%TF.SameCoordinates,PX71f712cPY8e18f40*%
%TF.FileFunction,AssemblyDrawing,Bot*%
%FSLAX46Y46*%
G04 Gerber Fmt 4.6, Leading zero omitted, Abs format (unit mm)*
G04 Created by KiCad (PCBNEW 9.0.2) date 2025-07-11 15:34:56*
%MOMM*%
%LPD*%
G01*
G04 APERTURE LIST*
%ADD10C,0.040000*%
%ADD11C,0.050000*%
%ADD12C,0.060000*%
%ADD13C,0.080000*%
%ADD14C,0.100000*%
%TA.AperFunction,Profile*%
%ADD15C,0.152400*%
%TD*%
%TA.AperFunction,Profile*%
%ADD16C,0.150000*%
%TD*%
G04 APERTURE END LIST*
D10*
X10918200Y63586543D02*
X10794391Y63673210D01*
X10918200Y63735115D02*
X10658200Y63735115D01*
X10658200Y63735115D02*
X10658200Y63636067D01*
X10658200Y63636067D02*
X10670581Y63611305D01*
X10670581Y63611305D02*
X10682962Y63598924D01*
X10682962Y63598924D02*
X10707724Y63586543D01*
X10707724Y63586543D02*
X10744867Y63586543D01*
X10744867Y63586543D02*
X10769629Y63598924D01*
X10769629Y63598924D02*
X10782010Y63611305D01*
X10782010Y63611305D02*
X10794391Y63636067D01*
X10794391Y63636067D02*
X10794391Y63735115D01*
X10682962Y63487496D02*
X10670581Y63475115D01*
X10670581Y63475115D02*
X10658200Y63450353D01*
X10658200Y63450353D02*
X10658200Y63388448D01*
X10658200Y63388448D02*
X10670581Y63363686D01*
X10670581Y63363686D02*
X10682962Y63351305D01*
X10682962Y63351305D02*
X10707724Y63338924D01*
X10707724Y63338924D02*
X10732486Y63338924D01*
X10732486Y63338924D02*
X10769629Y63351305D01*
X10769629Y63351305D02*
X10918200Y63499877D01*
X10918200Y63499877D02*
X10918200Y63338924D01*
X10658200Y63177972D02*
X10658200Y63153210D01*
X10658200Y63153210D02*
X10670581Y63128448D01*
X10670581Y63128448D02*
X10682962Y63116067D01*
X10682962Y63116067D02*
X10707724Y63103686D01*
X10707724Y63103686D02*
X10757248Y63091305D01*
X10757248Y63091305D02*
X10819153Y63091305D01*
X10819153Y63091305D02*
X10868677Y63103686D01*
X10868677Y63103686D02*
X10893439Y63116067D01*
X10893439Y63116067D02*
X10905820Y63128448D01*
X10905820Y63128448D02*
X10918200Y63153210D01*
X10918200Y63153210D02*
X10918200Y63177972D01*
X10918200Y63177972D02*
X10905820Y63202734D01*
X10905820Y63202734D02*
X10893439Y63215115D01*
X10893439Y63215115D02*
X10868677Y63227496D01*
X10868677Y63227496D02*
X10819153Y63239877D01*
X10819153Y63239877D02*
X10757248Y63239877D01*
X10757248Y63239877D02*
X10707724Y63227496D01*
X10707724Y63227496D02*
X10682962Y63215115D01*
X10682962Y63215115D02*
X10670581Y63202734D01*
X10670581Y63202734D02*
X10658200Y63177972D01*
X60139614Y73835235D02*
X60151518Y73823330D01*
X60151518Y73823330D02*
X60187233Y73811426D01*
X60187233Y73811426D02*
X60211042Y73811426D01*
X60211042Y73811426D02*
X60246756Y73823330D01*
X60246756Y73823330D02*
X60270566Y73847140D01*
X60270566Y73847140D02*
X60282471Y73870950D01*
X60282471Y73870950D02*
X60294375Y73918569D01*
X60294375Y73918569D02*
X60294375Y73954283D01*
X60294375Y73954283D02*
X60282471Y74001902D01*
X60282471Y74001902D02*
X60270566Y74025711D01*
X60270566Y74025711D02*
X60246756Y74049521D01*
X60246756Y74049521D02*
X60211042Y74061426D01*
X60211042Y74061426D02*
X60187233Y74061426D01*
X60187233Y74061426D02*
X60151518Y74049521D01*
X60151518Y74049521D02*
X60139614Y74037616D01*
X60044375Y74037616D02*
X60032471Y74049521D01*
X60032471Y74049521D02*
X60008661Y74061426D01*
X60008661Y74061426D02*
X59949137Y74061426D01*
X59949137Y74061426D02*
X59925328Y74049521D01*
X59925328Y74049521D02*
X59913423Y74037616D01*
X59913423Y74037616D02*
X59901518Y74013807D01*
X59901518Y74013807D02*
X59901518Y73989997D01*
X59901518Y73989997D02*
X59913423Y73954283D01*
X59913423Y73954283D02*
X60056280Y73811426D01*
X60056280Y73811426D02*
X59901518Y73811426D01*
X59818185Y74061426D02*
X59663423Y74061426D01*
X59663423Y74061426D02*
X59746757Y73966188D01*
X59746757Y73966188D02*
X59711042Y73966188D01*
X59711042Y73966188D02*
X59687233Y73954283D01*
X59687233Y73954283D02*
X59675328Y73942378D01*
X59675328Y73942378D02*
X59663423Y73918569D01*
X59663423Y73918569D02*
X59663423Y73859045D01*
X59663423Y73859045D02*
X59675328Y73835235D01*
X59675328Y73835235D02*
X59687233Y73823330D01*
X59687233Y73823330D02*
X59711042Y73811426D01*
X59711042Y73811426D02*
X59782471Y73811426D01*
X59782471Y73811426D02*
X59806280Y73823330D01*
X59806280Y73823330D02*
X59818185Y73835235D01*
D11*
X49944338Y78836191D02*
X49624338Y78836191D01*
X49624338Y78836191D02*
X49624338Y78760001D01*
X49624338Y78760001D02*
X49639576Y78714286D01*
X49639576Y78714286D02*
X49670052Y78683810D01*
X49670052Y78683810D02*
X49700528Y78668572D01*
X49700528Y78668572D02*
X49761480Y78653334D01*
X49761480Y78653334D02*
X49807195Y78653334D01*
X49807195Y78653334D02*
X49868147Y78668572D01*
X49868147Y78668572D02*
X49898623Y78683810D01*
X49898623Y78683810D02*
X49929100Y78714286D01*
X49929100Y78714286D02*
X49944338Y78760001D01*
X49944338Y78760001D02*
X49944338Y78836191D01*
X49624338Y78363810D02*
X49624338Y78516191D01*
X49624338Y78516191D02*
X49776719Y78531429D01*
X49776719Y78531429D02*
X49761480Y78516191D01*
X49761480Y78516191D02*
X49746242Y78485715D01*
X49746242Y78485715D02*
X49746242Y78409524D01*
X49746242Y78409524D02*
X49761480Y78379048D01*
X49761480Y78379048D02*
X49776719Y78363810D01*
X49776719Y78363810D02*
X49807195Y78348572D01*
X49807195Y78348572D02*
X49883385Y78348572D01*
X49883385Y78348572D02*
X49913861Y78363810D01*
X49913861Y78363810D02*
X49929100Y78379048D01*
X49929100Y78379048D02*
X49944338Y78409524D01*
X49944338Y78409524D02*
X49944338Y78485715D01*
X49944338Y78485715D02*
X49929100Y78516191D01*
X49929100Y78516191D02*
X49913861Y78531429D01*
D10*
X60042232Y71069300D02*
X60128899Y71193109D01*
X60190804Y71069300D02*
X60190804Y71329300D01*
X60190804Y71329300D02*
X60091756Y71329300D01*
X60091756Y71329300D02*
X60066994Y71316919D01*
X60066994Y71316919D02*
X60054613Y71304538D01*
X60054613Y71304538D02*
X60042232Y71279776D01*
X60042232Y71279776D02*
X60042232Y71242633D01*
X60042232Y71242633D02*
X60054613Y71217871D01*
X60054613Y71217871D02*
X60066994Y71205490D01*
X60066994Y71205490D02*
X60091756Y71193109D01*
X60091756Y71193109D02*
X60190804Y71193109D01*
X59955566Y71329300D02*
X59794613Y71329300D01*
X59794613Y71329300D02*
X59881280Y71230252D01*
X59881280Y71230252D02*
X59844137Y71230252D01*
X59844137Y71230252D02*
X59819375Y71217871D01*
X59819375Y71217871D02*
X59806994Y71205490D01*
X59806994Y71205490D02*
X59794613Y71180728D01*
X59794613Y71180728D02*
X59794613Y71118823D01*
X59794613Y71118823D02*
X59806994Y71094061D01*
X59806994Y71094061D02*
X59819375Y71081680D01*
X59819375Y71081680D02*
X59844137Y71069300D01*
X59844137Y71069300D02*
X59918423Y71069300D01*
X59918423Y71069300D02*
X59943185Y71081680D01*
X59943185Y71081680D02*
X59955566Y71094061D01*
X23118200Y66186543D02*
X22994391Y66273210D01*
X23118200Y66335115D02*
X22858200Y66335115D01*
X22858200Y66335115D02*
X22858200Y66236067D01*
X22858200Y66236067D02*
X22870581Y66211305D01*
X22870581Y66211305D02*
X22882962Y66198924D01*
X22882962Y66198924D02*
X22907724Y66186543D01*
X22907724Y66186543D02*
X22944867Y66186543D01*
X22944867Y66186543D02*
X22969629Y66198924D01*
X22969629Y66198924D02*
X22982010Y66211305D01*
X22982010Y66211305D02*
X22994391Y66236067D01*
X22994391Y66236067D02*
X22994391Y66335115D01*
X23118200Y65938924D02*
X23118200Y66087496D01*
X23118200Y66013210D02*
X22858200Y66013210D01*
X22858200Y66013210D02*
X22895343Y66037972D01*
X22895343Y66037972D02*
X22920105Y66062734D01*
X22920105Y66062734D02*
X22932486Y66087496D01*
X23118200Y65815115D02*
X23118200Y65765591D01*
X23118200Y65765591D02*
X23105820Y65740829D01*
X23105820Y65740829D02*
X23093439Y65728448D01*
X23093439Y65728448D02*
X23056296Y65703686D01*
X23056296Y65703686D02*
X23006772Y65691305D01*
X23006772Y65691305D02*
X22907724Y65691305D01*
X22907724Y65691305D02*
X22882962Y65703686D01*
X22882962Y65703686D02*
X22870581Y65716067D01*
X22870581Y65716067D02*
X22858200Y65740829D01*
X22858200Y65740829D02*
X22858200Y65790353D01*
X22858200Y65790353D02*
X22870581Y65815115D01*
X22870581Y65815115D02*
X22882962Y65827496D01*
X22882962Y65827496D02*
X22907724Y65839877D01*
X22907724Y65839877D02*
X22969629Y65839877D01*
X22969629Y65839877D02*
X22994391Y65827496D01*
X22994391Y65827496D02*
X23006772Y65815115D01*
X23006772Y65815115D02*
X23019153Y65790353D01*
X23019153Y65790353D02*
X23019153Y65740829D01*
X23019153Y65740829D02*
X23006772Y65716067D01*
X23006772Y65716067D02*
X22994391Y65703686D01*
X22994391Y65703686D02*
X22969629Y65691305D01*
D12*
X23843832Y56776543D02*
X23862880Y56795591D01*
X23862880Y56795591D02*
X23881927Y56852733D01*
X23881927Y56852733D02*
X23881927Y56890829D01*
X23881927Y56890829D02*
X23862880Y56947972D01*
X23862880Y56947972D02*
X23824784Y56986067D01*
X23824784Y56986067D02*
X23786689Y57005114D01*
X23786689Y57005114D02*
X23710499Y57024162D01*
X23710499Y57024162D02*
X23653356Y57024162D01*
X23653356Y57024162D02*
X23577165Y57005114D01*
X23577165Y57005114D02*
X23539070Y56986067D01*
X23539070Y56986067D02*
X23500975Y56947972D01*
X23500975Y56947972D02*
X23481927Y56890829D01*
X23481927Y56890829D02*
X23481927Y56852733D01*
X23481927Y56852733D02*
X23500975Y56795591D01*
X23500975Y56795591D02*
X23520022Y56776543D01*
X23881927Y56395591D02*
X23881927Y56624162D01*
X23881927Y56509876D02*
X23481927Y56509876D01*
X23481927Y56509876D02*
X23539070Y56547972D01*
X23539070Y56547972D02*
X23577165Y56586067D01*
X23577165Y56586067D02*
X23596213Y56624162D01*
X23481927Y56033686D02*
X23481927Y56224162D01*
X23481927Y56224162D02*
X23672403Y56243210D01*
X23672403Y56243210D02*
X23653356Y56224162D01*
X23653356Y56224162D02*
X23634308Y56186067D01*
X23634308Y56186067D02*
X23634308Y56090829D01*
X23634308Y56090829D02*
X23653356Y56052734D01*
X23653356Y56052734D02*
X23672403Y56033686D01*
X23672403Y56033686D02*
X23710499Y56014639D01*
X23710499Y56014639D02*
X23805737Y56014639D01*
X23805737Y56014639D02*
X23843832Y56033686D01*
X23843832Y56033686D02*
X23862880Y56052734D01*
X23862880Y56052734D02*
X23881927Y56090829D01*
X23881927Y56090829D02*
X23881927Y56186067D01*
X23881927Y56186067D02*
X23862880Y56224162D01*
X23862880Y56224162D02*
X23843832Y56243210D01*
X23681927Y55924639D02*
X23681927Y57114162D01*
D10*
X17887765Y62809067D02*
X17899670Y62820971D01*
X17899670Y62820971D02*
X17911574Y62856686D01*
X17911574Y62856686D02*
X17911574Y62880495D01*
X17911574Y62880495D02*
X17899670Y62916209D01*
X17899670Y62916209D02*
X17875860Y62940019D01*
X17875860Y62940019D02*
X17852050Y62951924D01*
X17852050Y62951924D02*
X17804431Y62963828D01*
X17804431Y62963828D02*
X17768717Y62963828D01*
X17768717Y62963828D02*
X17721098Y62951924D01*
X17721098Y62951924D02*
X17697289Y62940019D01*
X17697289Y62940019D02*
X17673479Y62916209D01*
X17673479Y62916209D02*
X17661574Y62880495D01*
X17661574Y62880495D02*
X17661574Y62856686D01*
X17661574Y62856686D02*
X17673479Y62820971D01*
X17673479Y62820971D02*
X17685384Y62809067D01*
X17911574Y62570971D02*
X17911574Y62713828D01*
X17911574Y62642400D02*
X17661574Y62642400D01*
X17661574Y62642400D02*
X17697289Y62666209D01*
X17697289Y62666209D02*
X17721098Y62690019D01*
X17721098Y62690019D02*
X17733003Y62713828D01*
X24989765Y66180115D02*
X25001670Y66192019D01*
X25001670Y66192019D02*
X25013574Y66227734D01*
X25013574Y66227734D02*
X25013574Y66251543D01*
X25013574Y66251543D02*
X25001670Y66287257D01*
X25001670Y66287257D02*
X24977860Y66311067D01*
X24977860Y66311067D02*
X24954050Y66322972D01*
X24954050Y66322972D02*
X24906431Y66334876D01*
X24906431Y66334876D02*
X24870717Y66334876D01*
X24870717Y66334876D02*
X24823098Y66322972D01*
X24823098Y66322972D02*
X24799289Y66311067D01*
X24799289Y66311067D02*
X24775479Y66287257D01*
X24775479Y66287257D02*
X24763574Y66251543D01*
X24763574Y66251543D02*
X24763574Y66227734D01*
X24763574Y66227734D02*
X24775479Y66192019D01*
X24775479Y66192019D02*
X24787384Y66180115D01*
X24846908Y65965829D02*
X25013574Y65965829D01*
X24751670Y66025353D02*
X24930241Y66084876D01*
X24930241Y66084876D02*
X24930241Y65930115D01*
X24787384Y65846781D02*
X24775479Y65834877D01*
X24775479Y65834877D02*
X24763574Y65811067D01*
X24763574Y65811067D02*
X24763574Y65751543D01*
X24763574Y65751543D02*
X24775479Y65727734D01*
X24775479Y65727734D02*
X24787384Y65715829D01*
X24787384Y65715829D02*
X24811193Y65703924D01*
X24811193Y65703924D02*
X24835003Y65703924D01*
X24835003Y65703924D02*
X24870717Y65715829D01*
X24870717Y65715829D02*
X25013574Y65858686D01*
X25013574Y65858686D02*
X25013574Y65703924D01*
X18518200Y66186543D02*
X18394391Y66273210D01*
X18518200Y66335115D02*
X18258200Y66335115D01*
X18258200Y66335115D02*
X18258200Y66236067D01*
X18258200Y66236067D02*
X18270581Y66211305D01*
X18270581Y66211305D02*
X18282962Y66198924D01*
X18282962Y66198924D02*
X18307724Y66186543D01*
X18307724Y66186543D02*
X18344867Y66186543D01*
X18344867Y66186543D02*
X18369629Y66198924D01*
X18369629Y66198924D02*
X18382010Y66211305D01*
X18382010Y66211305D02*
X18394391Y66236067D01*
X18394391Y66236067D02*
X18394391Y66335115D01*
X18518200Y65938924D02*
X18518200Y66087496D01*
X18518200Y66013210D02*
X18258200Y66013210D01*
X18258200Y66013210D02*
X18295343Y66037972D01*
X18295343Y66037972D02*
X18320105Y66062734D01*
X18320105Y66062734D02*
X18332486Y66087496D01*
X18258200Y65852258D02*
X18258200Y65678924D01*
X18258200Y65678924D02*
X18518200Y65790353D01*
D11*
X56844338Y74636191D02*
X56524338Y74636191D01*
X56524338Y74636191D02*
X56524338Y74560001D01*
X56524338Y74560001D02*
X56539576Y74514286D01*
X56539576Y74514286D02*
X56570052Y74483810D01*
X56570052Y74483810D02*
X56600528Y74468572D01*
X56600528Y74468572D02*
X56661480Y74453334D01*
X56661480Y74453334D02*
X56707195Y74453334D01*
X56707195Y74453334D02*
X56768147Y74468572D01*
X56768147Y74468572D02*
X56798623Y74483810D01*
X56798623Y74483810D02*
X56829100Y74514286D01*
X56829100Y74514286D02*
X56844338Y74560001D01*
X56844338Y74560001D02*
X56844338Y74636191D01*
X56631004Y74179048D02*
X56844338Y74179048D01*
X56509100Y74255239D02*
X56737671Y74331429D01*
X56737671Y74331429D02*
X56737671Y74133334D01*
D12*
X14680951Y64137473D02*
X14680951Y64537473D01*
X14261904Y64175568D02*
X14280952Y64156520D01*
X14280952Y64156520D02*
X14338094Y64137473D01*
X14338094Y64137473D02*
X14376190Y64137473D01*
X14376190Y64137473D02*
X14433333Y64156520D01*
X14433333Y64156520D02*
X14471428Y64194616D01*
X14471428Y64194616D02*
X14490475Y64232711D01*
X14490475Y64232711D02*
X14509523Y64308901D01*
X14509523Y64308901D02*
X14509523Y64366044D01*
X14509523Y64366044D02*
X14490475Y64442235D01*
X14490475Y64442235D02*
X14471428Y64480330D01*
X14471428Y64480330D02*
X14433333Y64518425D01*
X14433333Y64518425D02*
X14376190Y64537473D01*
X14376190Y64537473D02*
X14338094Y64537473D01*
X14338094Y64537473D02*
X14280952Y64518425D01*
X14280952Y64518425D02*
X14261904Y64499378D01*
X13880952Y64137473D02*
X14109523Y64137473D01*
X13995237Y64137473D02*
X13995237Y64537473D01*
X13995237Y64537473D02*
X14033333Y64480330D01*
X14033333Y64480330D02*
X14071428Y64442235D01*
X14071428Y64442235D02*
X14109523Y64423187D01*
X13633333Y64537473D02*
X13595238Y64537473D01*
X13595238Y64537473D02*
X13557142Y64518425D01*
X13557142Y64518425D02*
X13538095Y64499378D01*
X13538095Y64499378D02*
X13519047Y64461282D01*
X13519047Y64461282D02*
X13500000Y64385092D01*
X13500000Y64385092D02*
X13500000Y64289854D01*
X13500000Y64289854D02*
X13519047Y64213663D01*
X13519047Y64213663D02*
X13538095Y64175568D01*
X13538095Y64175568D02*
X13557142Y64156520D01*
X13557142Y64156520D02*
X13595238Y64137473D01*
X13595238Y64137473D02*
X13633333Y64137473D01*
X13633333Y64137473D02*
X13671428Y64156520D01*
X13671428Y64156520D02*
X13690476Y64175568D01*
X13690476Y64175568D02*
X13709523Y64213663D01*
X13709523Y64213663D02*
X13728571Y64289854D01*
X13728571Y64289854D02*
X13728571Y64385092D01*
X13728571Y64385092D02*
X13709523Y64461282D01*
X13709523Y64461282D02*
X13690476Y64499378D01*
X13690476Y64499378D02*
X13671428Y64518425D01*
X13671428Y64518425D02*
X13633333Y64537473D01*
D10*
X26643332Y55501200D02*
X26729999Y55625009D01*
X26791904Y55501200D02*
X26791904Y55761200D01*
X26791904Y55761200D02*
X26692856Y55761200D01*
X26692856Y55761200D02*
X26668094Y55748819D01*
X26668094Y55748819D02*
X26655713Y55736438D01*
X26655713Y55736438D02*
X26643332Y55711676D01*
X26643332Y55711676D02*
X26643332Y55674533D01*
X26643332Y55674533D02*
X26655713Y55649771D01*
X26655713Y55649771D02*
X26668094Y55637390D01*
X26668094Y55637390D02*
X26692856Y55625009D01*
X26692856Y55625009D02*
X26791904Y55625009D01*
X26519523Y55501200D02*
X26469999Y55501200D01*
X26469999Y55501200D02*
X26445237Y55513580D01*
X26445237Y55513580D02*
X26432856Y55525961D01*
X26432856Y55525961D02*
X26408094Y55563104D01*
X26408094Y55563104D02*
X26395713Y55612628D01*
X26395713Y55612628D02*
X26395713Y55711676D01*
X26395713Y55711676D02*
X26408094Y55736438D01*
X26408094Y55736438D02*
X26420475Y55748819D01*
X26420475Y55748819D02*
X26445237Y55761200D01*
X26445237Y55761200D02*
X26494761Y55761200D01*
X26494761Y55761200D02*
X26519523Y55748819D01*
X26519523Y55748819D02*
X26531904Y55736438D01*
X26531904Y55736438D02*
X26544285Y55711676D01*
X26544285Y55711676D02*
X26544285Y55649771D01*
X26544285Y55649771D02*
X26531904Y55625009D01*
X26531904Y55625009D02*
X26519523Y55612628D01*
X26519523Y55612628D02*
X26494761Y55600247D01*
X26494761Y55600247D02*
X26445237Y55600247D01*
X26445237Y55600247D02*
X26420475Y55612628D01*
X26420475Y55612628D02*
X26408094Y55625009D01*
X26408094Y55625009D02*
X26395713Y55649771D01*
X26335713Y55631200D02*
X26851904Y55631200D01*
X10918200Y67486543D02*
X10794391Y67573210D01*
X10918200Y67635115D02*
X10658200Y67635115D01*
X10658200Y67635115D02*
X10658200Y67536067D01*
X10658200Y67536067D02*
X10670581Y67511305D01*
X10670581Y67511305D02*
X10682962Y67498924D01*
X10682962Y67498924D02*
X10707724Y67486543D01*
X10707724Y67486543D02*
X10744867Y67486543D01*
X10744867Y67486543D02*
X10769629Y67498924D01*
X10769629Y67498924D02*
X10782010Y67511305D01*
X10782010Y67511305D02*
X10794391Y67536067D01*
X10794391Y67536067D02*
X10794391Y67635115D01*
X10682962Y67387496D02*
X10670581Y67375115D01*
X10670581Y67375115D02*
X10658200Y67350353D01*
X10658200Y67350353D02*
X10658200Y67288448D01*
X10658200Y67288448D02*
X10670581Y67263686D01*
X10670581Y67263686D02*
X10682962Y67251305D01*
X10682962Y67251305D02*
X10707724Y67238924D01*
X10707724Y67238924D02*
X10732486Y67238924D01*
X10732486Y67238924D02*
X10769629Y67251305D01*
X10769629Y67251305D02*
X10918200Y67399877D01*
X10918200Y67399877D02*
X10918200Y67238924D01*
X10918200Y66991305D02*
X10918200Y67139877D01*
X10918200Y67065591D02*
X10658200Y67065591D01*
X10658200Y67065591D02*
X10695343Y67090353D01*
X10695343Y67090353D02*
X10720105Y67115115D01*
X10720105Y67115115D02*
X10732486Y67139877D01*
X20889765Y66180115D02*
X20901670Y66192019D01*
X20901670Y66192019D02*
X20913574Y66227734D01*
X20913574Y66227734D02*
X20913574Y66251543D01*
X20913574Y66251543D02*
X20901670Y66287257D01*
X20901670Y66287257D02*
X20877860Y66311067D01*
X20877860Y66311067D02*
X20854050Y66322972D01*
X20854050Y66322972D02*
X20806431Y66334876D01*
X20806431Y66334876D02*
X20770717Y66334876D01*
X20770717Y66334876D02*
X20723098Y66322972D01*
X20723098Y66322972D02*
X20699289Y66311067D01*
X20699289Y66311067D02*
X20675479Y66287257D01*
X20675479Y66287257D02*
X20663574Y66251543D01*
X20663574Y66251543D02*
X20663574Y66227734D01*
X20663574Y66227734D02*
X20675479Y66192019D01*
X20675479Y66192019D02*
X20687384Y66180115D01*
X20746908Y65965829D02*
X20913574Y65965829D01*
X20651670Y66025353D02*
X20830241Y66084876D01*
X20830241Y66084876D02*
X20830241Y65930115D01*
X20913574Y65703924D02*
X20913574Y65846781D01*
X20913574Y65775353D02*
X20663574Y65775353D01*
X20663574Y65775353D02*
X20699289Y65799162D01*
X20699289Y65799162D02*
X20723098Y65822972D01*
X20723098Y65822972D02*
X20735003Y65846781D01*
D11*
X49035090Y72654562D02*
X49035090Y72974562D01*
X49035090Y72974562D02*
X48958900Y72974562D01*
X48958900Y72974562D02*
X48913185Y72959324D01*
X48913185Y72959324D02*
X48882709Y72928848D01*
X48882709Y72928848D02*
X48867471Y72898372D01*
X48867471Y72898372D02*
X48852233Y72837420D01*
X48852233Y72837420D02*
X48852233Y72791705D01*
X48852233Y72791705D02*
X48867471Y72730753D01*
X48867471Y72730753D02*
X48882709Y72700277D01*
X48882709Y72700277D02*
X48913185Y72669800D01*
X48913185Y72669800D02*
X48958900Y72654562D01*
X48958900Y72654562D02*
X49035090Y72654562D01*
X48577947Y72974562D02*
X48638900Y72974562D01*
X48638900Y72974562D02*
X48669376Y72959324D01*
X48669376Y72959324D02*
X48684614Y72944086D01*
X48684614Y72944086D02*
X48715090Y72898372D01*
X48715090Y72898372D02*
X48730328Y72837420D01*
X48730328Y72837420D02*
X48730328Y72715515D01*
X48730328Y72715515D02*
X48715090Y72685039D01*
X48715090Y72685039D02*
X48699852Y72669800D01*
X48699852Y72669800D02*
X48669376Y72654562D01*
X48669376Y72654562D02*
X48608423Y72654562D01*
X48608423Y72654562D02*
X48577947Y72669800D01*
X48577947Y72669800D02*
X48562709Y72685039D01*
X48562709Y72685039D02*
X48547471Y72715515D01*
X48547471Y72715515D02*
X48547471Y72791705D01*
X48547471Y72791705D02*
X48562709Y72822181D01*
X48562709Y72822181D02*
X48577947Y72837420D01*
X48577947Y72837420D02*
X48608423Y72852658D01*
X48608423Y72852658D02*
X48669376Y72852658D01*
X48669376Y72852658D02*
X48699852Y72837420D01*
X48699852Y72837420D02*
X48715090Y72822181D01*
X48715090Y72822181D02*
X48730328Y72791705D01*
D10*
X29089765Y44780115D02*
X29101670Y44792019D01*
X29101670Y44792019D02*
X29113574Y44827734D01*
X29113574Y44827734D02*
X29113574Y44851543D01*
X29113574Y44851543D02*
X29101670Y44887257D01*
X29101670Y44887257D02*
X29077860Y44911067D01*
X29077860Y44911067D02*
X29054050Y44922972D01*
X29054050Y44922972D02*
X29006431Y44934876D01*
X29006431Y44934876D02*
X28970717Y44934876D01*
X28970717Y44934876D02*
X28923098Y44922972D01*
X28923098Y44922972D02*
X28899289Y44911067D01*
X28899289Y44911067D02*
X28875479Y44887257D01*
X28875479Y44887257D02*
X28863574Y44851543D01*
X28863574Y44851543D02*
X28863574Y44827734D01*
X28863574Y44827734D02*
X28875479Y44792019D01*
X28875479Y44792019D02*
X28887384Y44780115D01*
X29113574Y44542019D02*
X29113574Y44684876D01*
X29113574Y44613448D02*
X28863574Y44613448D01*
X28863574Y44613448D02*
X28899289Y44637257D01*
X28899289Y44637257D02*
X28923098Y44661067D01*
X28923098Y44661067D02*
X28935003Y44684876D01*
X28863574Y44327734D02*
X28863574Y44375353D01*
X28863574Y44375353D02*
X28875479Y44399162D01*
X28875479Y44399162D02*
X28887384Y44411067D01*
X28887384Y44411067D02*
X28923098Y44434877D01*
X28923098Y44434877D02*
X28970717Y44446781D01*
X28970717Y44446781D02*
X29065955Y44446781D01*
X29065955Y44446781D02*
X29089765Y44434877D01*
X29089765Y44434877D02*
X29101670Y44422972D01*
X29101670Y44422972D02*
X29113574Y44399162D01*
X29113574Y44399162D02*
X29113574Y44351543D01*
X29113574Y44351543D02*
X29101670Y44327734D01*
X29101670Y44327734D02*
X29089765Y44315829D01*
X29089765Y44315829D02*
X29065955Y44303924D01*
X29065955Y44303924D02*
X29006431Y44303924D01*
X29006431Y44303924D02*
X28982622Y44315829D01*
X28982622Y44315829D02*
X28970717Y44327734D01*
X28970717Y44327734D02*
X28958812Y44351543D01*
X28958812Y44351543D02*
X28958812Y44399162D01*
X28958812Y44399162D02*
X28970717Y44422972D01*
X28970717Y44422972D02*
X28982622Y44434877D01*
X28982622Y44434877D02*
X29006431Y44446781D01*
X9410332Y72697146D02*
X9496999Y72820955D01*
X9558904Y72697146D02*
X9558904Y72957146D01*
X9558904Y72957146D02*
X9459856Y72957146D01*
X9459856Y72957146D02*
X9435094Y72944765D01*
X9435094Y72944765D02*
X9422713Y72932384D01*
X9422713Y72932384D02*
X9410332Y72907622D01*
X9410332Y72907622D02*
X9410332Y72870479D01*
X9410332Y72870479D02*
X9422713Y72845717D01*
X9422713Y72845717D02*
X9435094Y72833336D01*
X9435094Y72833336D02*
X9459856Y72820955D01*
X9459856Y72820955D02*
X9558904Y72820955D01*
X9261761Y72845717D02*
X9286523Y72858098D01*
X9286523Y72858098D02*
X9298904Y72870479D01*
X9298904Y72870479D02*
X9311285Y72895241D01*
X9311285Y72895241D02*
X9311285Y72907622D01*
X9311285Y72907622D02*
X9298904Y72932384D01*
X9298904Y72932384D02*
X9286523Y72944765D01*
X9286523Y72944765D02*
X9261761Y72957146D01*
X9261761Y72957146D02*
X9212237Y72957146D01*
X9212237Y72957146D02*
X9187475Y72944765D01*
X9187475Y72944765D02*
X9175094Y72932384D01*
X9175094Y72932384D02*
X9162713Y72907622D01*
X9162713Y72907622D02*
X9162713Y72895241D01*
X9162713Y72895241D02*
X9175094Y72870479D01*
X9175094Y72870479D02*
X9187475Y72858098D01*
X9187475Y72858098D02*
X9212237Y72845717D01*
X9212237Y72845717D02*
X9261761Y72845717D01*
X9261761Y72845717D02*
X9286523Y72833336D01*
X9286523Y72833336D02*
X9298904Y72820955D01*
X9298904Y72820955D02*
X9311285Y72796193D01*
X9311285Y72796193D02*
X9311285Y72746669D01*
X9311285Y72746669D02*
X9298904Y72721907D01*
X9298904Y72721907D02*
X9286523Y72709526D01*
X9286523Y72709526D02*
X9261761Y72697146D01*
X9261761Y72697146D02*
X9212237Y72697146D01*
X9212237Y72697146D02*
X9187475Y72709526D01*
X9187475Y72709526D02*
X9175094Y72721907D01*
X9175094Y72721907D02*
X9162713Y72746669D01*
X9162713Y72746669D02*
X9162713Y72796193D01*
X9162713Y72796193D02*
X9175094Y72820955D01*
X9175094Y72820955D02*
X9187475Y72833336D01*
X9187475Y72833336D02*
X9212237Y72845717D01*
X23142200Y52634733D02*
X23018391Y52721400D01*
X23142200Y52783305D02*
X22882200Y52783305D01*
X22882200Y52783305D02*
X22882200Y52684257D01*
X22882200Y52684257D02*
X22894581Y52659495D01*
X22894581Y52659495D02*
X22906962Y52647114D01*
X22906962Y52647114D02*
X22931724Y52634733D01*
X22931724Y52634733D02*
X22968867Y52634733D01*
X22968867Y52634733D02*
X22993629Y52647114D01*
X22993629Y52647114D02*
X23006010Y52659495D01*
X23006010Y52659495D02*
X23018391Y52684257D01*
X23018391Y52684257D02*
X23018391Y52783305D01*
X22882200Y52548067D02*
X22882200Y52374733D01*
X22882200Y52374733D02*
X23142200Y52486162D01*
X23012199Y52314734D02*
X23012199Y52843305D01*
X60020566Y72466485D02*
X60032470Y72454580D01*
X60032470Y72454580D02*
X60068185Y72442676D01*
X60068185Y72442676D02*
X60091994Y72442676D01*
X60091994Y72442676D02*
X60127708Y72454580D01*
X60127708Y72454580D02*
X60151518Y72478390D01*
X60151518Y72478390D02*
X60163423Y72502200D01*
X60163423Y72502200D02*
X60175327Y72549819D01*
X60175327Y72549819D02*
X60175327Y72585533D01*
X60175327Y72585533D02*
X60163423Y72633152D01*
X60163423Y72633152D02*
X60151518Y72656961D01*
X60151518Y72656961D02*
X60127708Y72680771D01*
X60127708Y72680771D02*
X60091994Y72692676D01*
X60091994Y72692676D02*
X60068185Y72692676D01*
X60068185Y72692676D02*
X60032470Y72680771D01*
X60032470Y72680771D02*
X60020566Y72668866D01*
X59925327Y72668866D02*
X59913423Y72680771D01*
X59913423Y72680771D02*
X59889613Y72692676D01*
X59889613Y72692676D02*
X59830089Y72692676D01*
X59830089Y72692676D02*
X59806280Y72680771D01*
X59806280Y72680771D02*
X59794375Y72668866D01*
X59794375Y72668866D02*
X59782470Y72645057D01*
X59782470Y72645057D02*
X59782470Y72621247D01*
X59782470Y72621247D02*
X59794375Y72585533D01*
X59794375Y72585533D02*
X59937232Y72442676D01*
X59937232Y72442676D02*
X59782470Y72442676D01*
X24995400Y52639933D02*
X24871591Y52726600D01*
X24995400Y52788505D02*
X24735400Y52788505D01*
X24735400Y52788505D02*
X24735400Y52689457D01*
X24735400Y52689457D02*
X24747781Y52664695D01*
X24747781Y52664695D02*
X24760162Y52652314D01*
X24760162Y52652314D02*
X24784924Y52639933D01*
X24784924Y52639933D02*
X24822067Y52639933D01*
X24822067Y52639933D02*
X24846829Y52652314D01*
X24846829Y52652314D02*
X24859210Y52664695D01*
X24859210Y52664695D02*
X24871591Y52689457D01*
X24871591Y52689457D02*
X24871591Y52788505D01*
X24822067Y52417076D02*
X24995400Y52417076D01*
X24723020Y52478981D02*
X24908734Y52540886D01*
X24908734Y52540886D02*
X24908734Y52379933D01*
X24858998Y52321455D02*
X24858998Y52848505D01*
D13*
X31983333Y45292251D02*
X32221428Y45292251D01*
X32221428Y45292251D02*
X32221428Y45792251D01*
X31864285Y45792251D02*
X31554761Y45792251D01*
X31554761Y45792251D02*
X31721428Y45601775D01*
X31721428Y45601775D02*
X31649999Y45601775D01*
X31649999Y45601775D02*
X31602380Y45577965D01*
X31602380Y45577965D02*
X31578571Y45554156D01*
X31578571Y45554156D02*
X31554761Y45506537D01*
X31554761Y45506537D02*
X31554761Y45387489D01*
X31554761Y45387489D02*
X31578571Y45339870D01*
X31578571Y45339870D02*
X31602380Y45316060D01*
X31602380Y45316060D02*
X31649999Y45292251D01*
X31649999Y45292251D02*
X31792856Y45292251D01*
X31792856Y45292251D02*
X31840475Y45316060D01*
X31840475Y45316060D02*
X31864285Y45339870D01*
D14*
%TO.C,R20*%
X10530000Y63944400D02*
X10530000Y62894400D01*
X10530000Y62894400D02*
X11070000Y62894400D01*
X11070000Y63944400D02*
X10530000Y63944400D01*
X11070000Y62894400D02*
X11070000Y63944400D01*
%TO.C,C23*%
X59478900Y74175000D02*
X59478900Y73675000D01*
X59478900Y73675000D02*
X60478900Y73675000D01*
X60478900Y74175000D02*
X59478900Y74175000D01*
X60478900Y73675000D02*
X60478900Y74175000D01*
%TO.C,D5*%
X48348900Y79250000D02*
X48348900Y77950000D01*
X48348900Y77950000D02*
X50923900Y77950000D01*
X50923900Y77950000D02*
X51248900Y78275000D01*
X51248900Y79250000D02*
X48348900Y79250000D01*
X51248900Y78275000D02*
X51248900Y79250000D01*
%TO.C,R3*%
X59473900Y71457500D02*
X59473900Y70917500D01*
X59473900Y70917500D02*
X60523900Y70917500D01*
X60523900Y71457500D02*
X59473900Y71457500D01*
X60523900Y70917500D02*
X60523900Y71457500D01*
%TO.C,R19*%
X22730000Y66544400D02*
X22730000Y65494400D01*
X22730000Y65494400D02*
X23270000Y65494400D01*
X23270000Y66544400D02*
X22730000Y66544400D01*
X23270000Y65494400D02*
X23270000Y66544400D01*
X23250000Y57319400D02*
X23250000Y55719400D01*
X23350000Y55719400D02*
G75*
G02*
X23250000Y55719400I-50000J0D01*
G01*
X23350000Y55719400D02*
X23350000Y57319400D01*
X23350000Y57319400D02*
G75*
G03*
X23250000Y57319400I-50000J0D01*
G01*
X23300000Y55669400D02*
X24100000Y55669400D01*
X24100000Y55769400D02*
G75*
G02*
X24100000Y55669400I0J-50000D01*
G01*
X24100000Y55769400D02*
X23300000Y55769400D01*
X23300000Y55769400D02*
G75*
G03*
X23300000Y55669400I0J-50000D01*
G01*
X24100000Y57369400D02*
X23300000Y57369400D01*
X23300000Y57269400D02*
G75*
G02*
X23300000Y57369400I0J50000D01*
G01*
X23300000Y57269400D02*
X24100000Y57269400D01*
X24100000Y57269400D02*
G75*
G03*
X24100000Y57369400I0J50000D01*
G01*
X24150000Y55719400D02*
X24150000Y57319400D01*
X24050000Y57319400D02*
G75*
G02*
X24150000Y57319400I50000J0D01*
G01*
X24050000Y57319400D02*
X24050000Y55719400D01*
X24050000Y55719400D02*
G75*
G03*
X24150000Y55719400I50000J0D01*
G01*
%TO.C,C1*%
X17548000Y63267400D02*
X17548000Y62267400D01*
X17548000Y62267400D02*
X18048000Y62267400D01*
X18048000Y63267400D02*
X17548000Y63267400D01*
X18048000Y62267400D02*
X18048000Y63267400D01*
%TO.C,C42*%
X24650000Y66519400D02*
X24650000Y65519400D01*
X24650000Y65519400D02*
X25150000Y65519400D01*
X25150000Y66519400D02*
X24650000Y66519400D01*
X25150000Y65519400D02*
X25150000Y66519400D01*
%TO.C,R17*%
X18130000Y66544400D02*
X18130000Y65494400D01*
X18130000Y65494400D02*
X18670000Y65494400D01*
X18670000Y66544400D02*
X18130000Y66544400D01*
X18670000Y65494400D02*
X18670000Y66544400D01*
%TO.C,D4*%
X55248900Y75050000D02*
X55248900Y73750000D01*
X55248900Y73750000D02*
X57823900Y73750000D01*
X57823900Y73750000D02*
X58148900Y74075000D01*
X58148900Y75050000D02*
X55248900Y75050000D01*
X58148900Y74075000D02*
X58148900Y75050000D01*
%TO.C,IC10*%
X13300000Y65769400D02*
X13300000Y63269400D01*
X13300000Y63269400D02*
X13700000Y62869400D01*
X13700000Y62869400D02*
X14900000Y62869400D01*
X14900000Y65769400D02*
X13300000Y65769400D01*
X14900000Y62869400D02*
X14900000Y65769400D01*
X26025000Y55889400D02*
X26025000Y55349400D01*
X26125000Y55349400D02*
G75*
G02*
X26025000Y55349400I-50000J0D01*
G01*
X26125000Y55349400D02*
X26125000Y55889400D01*
X26125000Y55889400D02*
G75*
G03*
X26025000Y55889400I-50000J0D01*
G01*
X26075000Y55299400D02*
X27125000Y55299400D01*
X27125000Y55399400D02*
G75*
G02*
X27125000Y55299400I0J-50000D01*
G01*
X27125000Y55399400D02*
X26075000Y55399400D01*
X26075000Y55399400D02*
G75*
G03*
X26075000Y55299400I0J-50000D01*
G01*
X27125000Y55939400D02*
X26075000Y55939400D01*
X26075000Y55839400D02*
G75*
G02*
X26075000Y55939400I0J50000D01*
G01*
X26075000Y55839400D02*
X27125000Y55839400D01*
X27125000Y55839400D02*
G75*
G03*
X27125000Y55939400I0J50000D01*
G01*
X27175000Y55349400D02*
X27175000Y55889400D01*
X27075000Y55889400D02*
G75*
G02*
X27175000Y55889400I50000J0D01*
G01*
X27075000Y55889400D02*
X27075000Y55349400D01*
X27075000Y55349400D02*
G75*
G03*
X27175000Y55349400I50000J0D01*
G01*
%TO.C,R21*%
X10530000Y67844400D02*
X10530000Y66794400D01*
X10530000Y66794400D02*
X11070000Y66794400D01*
X11070000Y67844400D02*
X10530000Y67844400D01*
X11070000Y66794400D02*
X11070000Y67844400D01*
%TO.C,C41*%
X20550000Y66519400D02*
X20550000Y65519400D01*
X20550000Y65519400D02*
X21050000Y65519400D01*
X21050000Y66519400D02*
X20550000Y66519400D01*
X21050000Y65519400D02*
X21050000Y66519400D01*
%TO.C,D6*%
X48148900Y74250000D02*
X48148900Y71350000D01*
X48148900Y71350000D02*
X49448900Y71350000D01*
X49123900Y74250000D02*
X48148900Y74250000D01*
X49448900Y73925000D02*
X49123900Y74250000D01*
X49448900Y71350000D02*
X49448900Y73925000D01*
%TO.C,C16*%
X28750000Y45119400D02*
X28750000Y44119400D01*
X28750000Y44119400D02*
X29250000Y44119400D01*
X29250000Y45119400D02*
X28750000Y45119400D01*
X29250000Y44119400D02*
X29250000Y45119400D01*
%TO.C,R8*%
X8842000Y73085346D02*
X8842000Y72545346D01*
X8842000Y72545346D02*
X9892000Y72545346D01*
X9892000Y73085346D02*
X8842000Y73085346D01*
X9892000Y72545346D02*
X9892000Y73085346D01*
X22704000Y53116400D02*
X22704000Y52066400D01*
X22804000Y52066400D02*
G75*
G02*
X22704000Y52066400I-50000J0D01*
G01*
X22804000Y52066400D02*
X22804000Y53116400D01*
X22804000Y53116400D02*
G75*
G03*
X22704000Y53116400I-50000J0D01*
G01*
X22754000Y52016400D02*
X23294000Y52016400D01*
X23294000Y52116400D02*
G75*
G02*
X23294000Y52016400I0J-50000D01*
G01*
X23294000Y52116400D02*
X22754000Y52116400D01*
X22754000Y52116400D02*
G75*
G03*
X22754000Y52016400I0J-50000D01*
G01*
X23294000Y53166400D02*
X22754000Y53166400D01*
X22754000Y53066400D02*
G75*
G02*
X22754000Y53166400I0J50000D01*
G01*
X22754000Y53066400D02*
X23294000Y53066400D01*
X23294000Y53066400D02*
G75*
G03*
X23294000Y53166400I0J50000D01*
G01*
X23344000Y52066400D02*
X23344000Y53116400D01*
X23244000Y53116400D02*
G75*
G02*
X23344000Y53116400I50000J0D01*
G01*
X23244000Y53116400D02*
X23244000Y52066400D01*
X23244000Y52066400D02*
G75*
G03*
X23344000Y52066400I50000J0D01*
G01*
%TO.C,C2*%
X59478900Y72806250D02*
X59478900Y72306250D01*
X59478900Y72306250D02*
X60478900Y72306250D01*
X60478900Y72806250D02*
X59478900Y72806250D01*
X60478900Y72306250D02*
X60478900Y72806250D01*
X24557200Y53121600D02*
X24557200Y52071600D01*
X24657200Y52071600D02*
G75*
G02*
X24557200Y52071600I-50000J0D01*
G01*
X24657200Y52071600D02*
X24657200Y53121600D01*
X24657200Y53121600D02*
G75*
G03*
X24557200Y53121600I-50000J0D01*
G01*
X24607200Y52021600D02*
X25147200Y52021600D01*
X25147200Y52121600D02*
G75*
G02*
X25147200Y52021600I0J-50000D01*
G01*
X25147200Y52121600D02*
X24607200Y52121600D01*
X24607200Y52121600D02*
G75*
G03*
X24607200Y52021600I0J-50000D01*
G01*
X25147200Y53171600D02*
X24607200Y53171600D01*
X24607200Y53071600D02*
G75*
G02*
X24607200Y53171600I0J50000D01*
G01*
X24607200Y53071600D02*
X25147200Y53071600D01*
X25147200Y53071600D02*
G75*
G03*
X25147200Y53171600I0J50000D01*
G01*
X25197200Y52071600D02*
X25197200Y53121600D01*
X25097200Y53121600D02*
G75*
G02*
X25197200Y53121600I50000J0D01*
G01*
X25097200Y53121600D02*
X25097200Y52071600D01*
X25097200Y52071600D02*
G75*
G03*
X25197200Y52071600I50000J0D01*
G01*
%TO.C,L3*%
X30900000Y46144400D02*
X30900000Y44894400D01*
X30900000Y44894400D02*
X32900000Y44894400D01*
X32900000Y46144400D02*
X30900000Y46144400D01*
X32900000Y44894400D02*
X32900000Y46144400D01*
%TD*%
X22945000Y58024400D02*
X24455000Y55014400D01*
X22945000Y55014400D02*
X24455000Y58024400D01*
X25645000Y56114400D02*
X27555000Y55124400D01*
X25645000Y55124400D02*
X27555000Y56114400D01*
X22529000Y53546400D02*
X23519000Y51636400D01*
X22529000Y51636400D02*
X23519000Y53546400D01*
X24382200Y53551600D02*
X25372200Y51641600D01*
X24382200Y51641600D02*
X25372200Y53551600D01*
D15*
X60423900Y0D02*
G75*
G02*
X61923900Y1500000I1500000J0D01*
G01*
X1500000Y0D02*
X60423900Y0D01*
X0Y1500000D02*
G75*
G02*
X1500000Y0I0J-1500000D01*
G01*
X1500000Y84400000D02*
G75*
G02*
X0Y82900000I-1500000J0D01*
G01*
D16*
X61923900Y1500000D02*
X61923900Y82900000D01*
D15*
X60423900Y84400000D02*
X1500000Y84400000D01*
X0Y82900000D02*
X0Y1500000D01*
X61923900Y82900000D02*
G75*
G02*
X60423900Y84400000I0J1500000D01*
G01*
M02*
