%TF.GenerationSoftware,KiCad,Pcbnew,9.0.2*%
%TF.CreationDate,2025-07-11T15:35:01+01:00*%
%TF.ProjectId,FastStepper,46617374-5374-4657-9070-65722e6b6963,rev?*%
%TF.SameCoordinates,PX71f712cPY8e18f40*%
%TF.FileFunction,Drillmap*%
%TF.FilePolarity,Positive*%
%FSLAX45Y45*%
G04 Gerber Fmt 4.5, Leading zero omitted, Abs format (unit mm)*
G04 Created by KiCad (PCBNEW 9.0.2) date 2025-07-11 15:35:01*
%MOMM*%
%LPD*%
G01*
G04 APERTURE LIST*
%ADD10C,0.152400*%
%ADD11C,0.150000*%
%ADD12C,0.200000*%
%ADD13C,0.100000*%
%ADD14C,0.142240*%
%ADD15C,0.209804*%
G04 APERTURE END LIST*
D10*
X6042390Y0D02*
G75*
G02*
X6192390Y150000I150000J0D01*
G01*
X150000Y0D02*
X6042390Y0D01*
X0Y150000D02*
G75*
G02*
X150000Y0I0J-150000D01*
G01*
X150000Y8440000D02*
G75*
G02*
X0Y8290000I-150000J0D01*
G01*
D11*
X6192390Y150000D02*
X6192390Y8290000D01*
D10*
X6042390Y8440000D02*
X150000Y8440000D01*
X0Y8290000D02*
X0Y150000D01*
X6192390Y8290000D02*
G75*
G02*
X6042390Y8440000I0J150000D01*
G01*
D12*
D13*
X171400Y6204740D02*
X193400Y6182740D01*
X193400Y6204740D02*
X171400Y6182740D01*
X218890Y8181000D02*
X240890Y8159000D01*
X240890Y8181000D02*
X218890Y8159000D01*
X255200Y4713440D02*
X277200Y4691440D01*
X277200Y4713440D02*
X255200Y4691440D01*
X358890Y471000D02*
X380890Y449000D01*
X380890Y471000D02*
X358890Y449000D01*
X569000Y5292940D02*
X591000Y5270940D01*
X591000Y5292940D02*
X569000Y5270940D01*
X574000Y5552940D02*
X596000Y5530940D01*
X596000Y5552940D02*
X574000Y5530940D01*
X576700Y3806040D02*
X598700Y3784040D01*
X598700Y3806040D02*
X576700Y3784040D01*
X583890Y6501000D02*
X605890Y6479000D01*
X605890Y6501000D02*
X583890Y6479000D01*
X588890Y7436000D02*
X610890Y7414000D01*
X610890Y7436000D02*
X588890Y7414000D01*
X598890Y3531000D02*
X620890Y3509000D01*
X620890Y3531000D02*
X598890Y3509000D01*
X624000Y985540D02*
X646000Y963540D01*
X646000Y985540D02*
X624000Y963540D01*
X640200Y4466440D02*
X662200Y4444440D01*
X662200Y4466440D02*
X640200Y4444440D01*
X725600Y2153940D02*
X747600Y2131940D01*
X747600Y2153940D02*
X725600Y2131940D01*
X728890Y1501000D02*
X750890Y1479000D01*
X750890Y1501000D02*
X728890Y1479000D01*
X738890Y3241000D02*
X760890Y3219000D01*
X760890Y3241000D02*
X738890Y3219000D01*
X763890Y6036000D02*
X785890Y6014000D01*
X785890Y6036000D02*
X763890Y6014000D01*
X770100Y7602940D02*
X792100Y7580940D01*
X792100Y7602940D02*
X770100Y7580940D01*
X778890Y7296340D02*
X800890Y7274340D01*
X800890Y7296340D02*
X778890Y7274340D01*
X799000Y5302940D02*
X821000Y5280940D01*
X821000Y5302940D02*
X799000Y5280940D01*
X829000Y4813840D02*
X851000Y4791840D01*
X851000Y4813840D02*
X829000Y4791840D01*
X867800Y6231000D02*
X889800Y6209000D01*
X889800Y6231000D02*
X867800Y6209000D01*
X888890Y7181000D02*
X910890Y7159000D01*
X910890Y7181000D02*
X888890Y7159000D01*
X890500Y6811840D02*
X912500Y6789840D01*
X912500Y6811840D02*
X890500Y6789840D01*
X928760Y4406920D02*
X950760Y4384920D01*
X950760Y4406920D02*
X928760Y4384920D01*
X931300Y3972580D02*
X953300Y3950580D01*
X953300Y3972580D02*
X931300Y3950580D01*
X931300Y3563640D02*
X953300Y3541640D01*
X953300Y3563640D02*
X931300Y3541640D01*
X948890Y7111000D02*
X970890Y7089000D01*
X970890Y7111000D02*
X948890Y7089000D01*
X968890Y6021000D02*
X990890Y5999000D01*
X990890Y6021000D02*
X968890Y5999000D01*
X979600Y2547640D02*
X1001600Y2525640D01*
X1001600Y2547640D02*
X979600Y2525640D01*
X998890Y3671000D02*
X1020890Y3649000D01*
X1020890Y3671000D02*
X998890Y3649000D01*
X1027300Y4497440D02*
X1049300Y4475440D01*
X1049300Y4497440D02*
X1027300Y4475440D01*
X1030400Y4736000D02*
X1052400Y4714000D01*
X1052400Y4736000D02*
X1030400Y4714000D01*
X1040000Y4078340D02*
X1062000Y4056340D01*
X1062000Y4078340D02*
X1040000Y4056340D01*
X1056402Y4900010D02*
X1078402Y4878010D01*
X1078402Y4900010D02*
X1056402Y4878010D01*
X1063890Y5436000D02*
X1085890Y5414000D01*
X1085890Y5436000D02*
X1063890Y5414000D01*
X1069000Y6881000D02*
X1091000Y6859000D01*
X1091000Y6881000D02*
X1069000Y6859000D01*
X1113890Y7537595D02*
X1135890Y7515595D01*
X1135890Y7537595D02*
X1113890Y7515595D01*
X1138890Y6111000D02*
X1160890Y6089000D01*
X1160890Y6111000D02*
X1138890Y6089000D01*
X1167000Y3875140D02*
X1189000Y3853140D01*
X1189000Y3875140D02*
X1167000Y3853140D01*
X1218890Y5256000D02*
X1240890Y5234000D01*
X1240890Y5256000D02*
X1218890Y5234000D01*
X1230500Y4281340D02*
X1252500Y4259340D01*
X1252500Y4281340D02*
X1230500Y4259340D01*
X1283890Y4740441D02*
X1305890Y4718441D01*
X1305890Y4740441D02*
X1283890Y4718441D01*
X1287441Y4597111D02*
X1309441Y4575111D01*
X1309441Y4597111D02*
X1287441Y4575111D01*
X1288890Y7271000D02*
X1310890Y7249000D01*
X1310890Y7271000D02*
X1288890Y7249000D01*
X1288890Y4161000D02*
X1310890Y4139000D01*
X1310890Y4161000D02*
X1288890Y4139000D01*
X1348890Y3761000D02*
X1370890Y3739000D01*
X1370890Y3761000D02*
X1348890Y3739000D01*
X1389000Y6682940D02*
X1411000Y6660940D01*
X1411000Y6682940D02*
X1389000Y6660940D01*
X1448890Y5831000D02*
X1470890Y5809000D01*
X1470890Y5831000D02*
X1448890Y5809000D01*
X1449500Y2903240D02*
X1471500Y2881240D01*
X1471500Y2903240D02*
X1449500Y2881240D01*
X1453021Y2302908D02*
X1475021Y2280908D01*
X1475021Y2302908D02*
X1453021Y2280908D01*
X1488890Y5001000D02*
X1510890Y4979000D01*
X1510890Y5001000D02*
X1488890Y4979000D01*
X1488890Y1103400D02*
X1510890Y1081400D01*
X1510890Y1103400D02*
X1488890Y1081400D01*
X1500300Y5519440D02*
X1522300Y5497440D01*
X1522300Y5519440D02*
X1500300Y5497440D01*
X1524800Y4067720D02*
X1546800Y4045720D01*
X1546800Y4067720D02*
X1524800Y4045720D01*
X1525700Y4668540D02*
X1547700Y4646540D01*
X1547700Y4668540D02*
X1525700Y4646540D01*
X1533714Y4398611D02*
X1555714Y4376611D01*
X1555714Y4398611D02*
X1533714Y4376611D01*
X1534904Y5222595D02*
X1556904Y5200595D01*
X1556904Y5222595D02*
X1534904Y5200595D01*
X1586890Y2090400D02*
X1608890Y2068400D01*
X1608890Y2090400D02*
X1586890Y2068400D01*
X1591290Y1609400D02*
X1613290Y1587400D01*
X1613290Y1609400D02*
X1591290Y1587400D01*
X1594000Y4905640D02*
X1616000Y4883640D01*
X1616000Y4905640D02*
X1594000Y4883640D01*
X1594000Y3355240D02*
X1616000Y3333240D01*
X1616000Y3355240D02*
X1594000Y3333240D01*
X1613890Y1471700D02*
X1635890Y1449700D01*
X1635890Y1471700D02*
X1613890Y1449700D01*
X1649000Y6452940D02*
X1671000Y6430940D01*
X1671000Y6452940D02*
X1649000Y6430940D01*
X1658890Y3181000D02*
X1680890Y3159000D01*
X1680890Y3181000D02*
X1658890Y3159000D01*
X1668890Y6241000D02*
X1690890Y6219000D01*
X1690890Y6241000D02*
X1668890Y6219000D01*
X1674000Y5443340D02*
X1696000Y5421340D01*
X1696000Y5443340D02*
X1674000Y5421340D01*
X1699397Y2551459D02*
X1721397Y2529459D01*
X1721397Y2551459D02*
X1699397Y2529459D01*
X1728890Y1986000D02*
X1750890Y1964000D01*
X1750890Y1986000D02*
X1728890Y1964000D01*
X1738890Y5736000D02*
X1760890Y5714000D01*
X1760890Y5736000D02*
X1738890Y5714000D01*
X1754300Y4871740D02*
X1776300Y4849740D01*
X1776300Y4871740D02*
X1754300Y4849740D01*
X1763890Y2911000D02*
X1785890Y2889000D01*
X1785890Y2911000D02*
X1763890Y2889000D01*
X1766700Y3801040D02*
X1788700Y3779040D01*
X1788700Y3801040D02*
X1766700Y3779040D01*
X1779700Y5316240D02*
X1801700Y5294240D01*
X1801700Y5316240D02*
X1779700Y5294240D01*
X1788890Y3586000D02*
X1810890Y3564000D01*
X1810890Y3586000D02*
X1788890Y3564000D01*
X1790581Y3949527D02*
X1812581Y3927527D01*
X1812581Y3949527D02*
X1790581Y3927527D01*
X1824694Y1570347D02*
X1846694Y1548347D01*
X1846694Y1570347D02*
X1824694Y1548347D01*
X1825390Y2170500D02*
X1847390Y2148500D01*
X1847390Y2170500D02*
X1825390Y2148500D01*
X1826220Y4097700D02*
X1848220Y4075700D01*
X1848220Y4097700D02*
X1826220Y4075700D01*
X1827295Y2309551D02*
X1849295Y2287551D01*
X1849295Y2309551D02*
X1827295Y2287551D01*
X1838890Y3436000D02*
X1860890Y3414000D01*
X1860890Y3436000D02*
X1838890Y3414000D01*
X1840100Y5637540D02*
X1862100Y5615540D01*
X1862100Y5637540D02*
X1840100Y5615540D01*
X1843200Y4452640D02*
X1865200Y4430640D01*
X1865200Y4452640D02*
X1843200Y4430640D01*
X1847400Y5110640D02*
X1869400Y5088640D01*
X1869400Y5110640D02*
X1847400Y5088640D01*
X1847900Y4611040D02*
X1869900Y4589040D01*
X1869900Y4611040D02*
X1847900Y4589040D01*
X1888890Y7401000D02*
X1910890Y7379000D01*
X1910890Y7401000D02*
X1888890Y7379000D01*
X1888890Y6351000D02*
X1910890Y6329000D01*
X1910890Y6351000D02*
X1888890Y6329000D01*
X1888890Y5711000D02*
X1910890Y5689000D01*
X1910890Y5711000D02*
X1888890Y5689000D01*
X1908890Y6231000D02*
X1930890Y6209000D01*
X1930890Y6231000D02*
X1908890Y6209000D01*
X1928000Y3523340D02*
X1950000Y3501340D01*
X1950000Y3523340D02*
X1928000Y3501340D01*
X1963890Y6561000D02*
X1985890Y6539000D01*
X1985890Y6561000D02*
X1963890Y6539000D01*
X2008890Y5421000D02*
X2030890Y5399000D01*
X2030890Y5421000D02*
X2008890Y5399000D01*
X2038890Y4211000D02*
X2060890Y4189000D01*
X2060890Y4211000D02*
X2038890Y4189000D01*
X2038890Y2814340D02*
X2060890Y2792340D01*
X2060890Y2814340D02*
X2038890Y2792340D01*
X2039614Y3002305D02*
X2061614Y2980305D01*
X2061614Y3002305D02*
X2039614Y2980305D01*
X2046400Y1366540D02*
X2068400Y1344540D01*
X2068400Y1366540D02*
X2046400Y1344540D01*
X2108890Y6322660D02*
X2130890Y6300660D01*
X2130890Y6322660D02*
X2108890Y6300660D01*
X2138890Y4601000D02*
X2160890Y4579000D01*
X2160890Y4601000D02*
X2138890Y4579000D01*
X2158890Y4421000D02*
X2180890Y4399000D01*
X2180890Y4421000D02*
X2158890Y4399000D01*
X2163890Y4173883D02*
X2185890Y4151883D01*
X2185890Y4173883D02*
X2163890Y4151883D01*
X2238890Y7394027D02*
X2260890Y7372027D01*
X2260890Y7394027D02*
X2238890Y7372027D01*
X2238890Y6322660D02*
X2260890Y6300660D01*
X2260890Y6322660D02*
X2238890Y6300660D01*
X2249300Y3634840D02*
X2271300Y3612840D01*
X2271300Y3634840D02*
X2249300Y3612840D01*
X2306160Y7344027D02*
X2328160Y7322027D01*
X2328160Y7344027D02*
X2306160Y7322027D01*
X2313890Y3755340D02*
X2335890Y3733340D01*
X2335890Y3755340D02*
X2313890Y3733340D01*
X2318890Y6931000D02*
X2340890Y6909000D01*
X2340890Y6931000D02*
X2318890Y6909000D01*
X2368890Y6321000D02*
X2390890Y6299000D01*
X2390890Y6321000D02*
X2368890Y6299000D01*
X2378890Y6661000D02*
X2400890Y6639000D01*
X2400890Y6661000D02*
X2378890Y6639000D01*
X2414700Y3004840D02*
X2436700Y2982840D01*
X2436700Y3004840D02*
X2414700Y2982840D01*
X2438890Y6231000D02*
X2460890Y6209000D01*
X2460890Y6231000D02*
X2438890Y6209000D01*
X2468890Y4481000D02*
X2490890Y4459000D01*
X2490890Y4481000D02*
X2468890Y4459000D01*
X2478200Y4249440D02*
X2500200Y4227440D01*
X2500200Y4249440D02*
X2478200Y4227440D01*
X2478200Y3919140D02*
X2500200Y3897140D01*
X2500200Y3919140D02*
X2478200Y3897140D01*
X2488890Y7569027D02*
X2510890Y7547027D01*
X2510890Y7569027D02*
X2488890Y7547027D01*
X2488890Y4701000D02*
X2510890Y4679000D01*
X2510890Y4701000D02*
X2488890Y4679000D01*
X2490900Y2915940D02*
X2512900Y2893940D01*
X2512900Y2915940D02*
X2490900Y2893940D01*
X2498890Y6311000D02*
X2520890Y6289000D01*
X2520890Y6311000D02*
X2498890Y6289000D01*
X2511200Y5707540D02*
X2533200Y5685540D01*
X2533200Y5707540D02*
X2511200Y5685540D01*
X2548890Y6231000D02*
X2570890Y6209000D01*
X2570890Y6231000D02*
X2548890Y6209000D01*
X2550500Y3295540D02*
X2572500Y3273540D01*
X2572500Y3295540D02*
X2550500Y3273540D01*
X2553150Y4547140D02*
X2575150Y4525140D01*
X2575150Y4547140D02*
X2553150Y4525140D01*
X2563890Y7344027D02*
X2585890Y7322027D01*
X2585890Y7344027D02*
X2563890Y7322027D01*
X2565782Y4416267D02*
X2587782Y4394267D01*
X2587782Y4416267D02*
X2565782Y4394267D01*
X2566300Y4331000D02*
X2588300Y4309000D01*
X2588300Y4331000D02*
X2566300Y4309000D01*
X2566800Y3596740D02*
X2588800Y3574740D01*
X2588800Y3596740D02*
X2566800Y3574740D01*
X2567100Y5455940D02*
X2589100Y5433940D01*
X2589100Y5455940D02*
X2567100Y5433940D01*
X2576800Y5200540D02*
X2598800Y5178540D01*
X2598800Y5200540D02*
X2576800Y5178540D01*
X2579470Y2702305D02*
X2601470Y2680305D01*
X2601470Y2702305D02*
X2579470Y2680305D01*
X2588890Y5061000D02*
X2610890Y5039000D01*
X2610890Y5061000D02*
X2588890Y5039000D01*
X2605200Y2001540D02*
X2627200Y1979540D01*
X2627200Y2001540D02*
X2605200Y1979540D01*
X2618890Y1051000D02*
X2640890Y1029000D01*
X2640890Y1051000D02*
X2618890Y1029000D01*
X2628890Y6901000D02*
X2650890Y6879000D01*
X2650890Y6901000D02*
X2628890Y6879000D01*
X2630600Y2788940D02*
X2652600Y2766940D01*
X2652600Y2788940D02*
X2630600Y2766940D01*
X2636320Y4195080D02*
X2658320Y4173080D01*
X2658320Y4195080D02*
X2636320Y4173080D01*
X2638890Y3036000D02*
X2660890Y3014000D01*
X2660890Y3036000D02*
X2638890Y3014000D01*
X2649000Y6301000D02*
X2671000Y6279000D01*
X2671000Y6301000D02*
X2649000Y6279000D01*
X2649000Y4771110D02*
X2671000Y4749110D01*
X2671000Y4771110D02*
X2649000Y4749110D01*
X2652100Y3435240D02*
X2674100Y3413240D01*
X2674100Y3435240D02*
X2652100Y3413240D01*
X2663890Y4605100D02*
X2685890Y4583100D01*
X2685890Y4605100D02*
X2663890Y4583100D01*
X2681400Y4015900D02*
X2703400Y3993900D01*
X2703400Y4015900D02*
X2681400Y3993900D01*
X2684000Y1115140D02*
X2706000Y1093140D01*
X2706000Y1115140D02*
X2684000Y1093140D01*
X2688890Y7569027D02*
X2710890Y7547027D01*
X2710890Y7569027D02*
X2688890Y7547027D01*
X2688890Y1716000D02*
X2710890Y1694000D01*
X2710890Y1716000D02*
X2688890Y1694000D01*
X2719000Y5252940D02*
X2741000Y5230940D01*
X2741000Y5252940D02*
X2719000Y5230940D01*
X2758890Y6322660D02*
X2780890Y6300660D01*
X2780890Y6322660D02*
X2758890Y6300660D01*
X2768890Y6961000D02*
X2790890Y6939000D01*
X2790890Y6961000D02*
X2768890Y6939000D01*
X2769500Y4505390D02*
X2791500Y4483390D01*
X2791500Y4505390D02*
X2769500Y4483390D01*
X2808400Y4033540D02*
X2830400Y4011540D01*
X2830400Y4033540D02*
X2808400Y4011540D01*
X2849000Y5702940D02*
X2871000Y5680940D01*
X2871000Y5702940D02*
X2849000Y5680940D01*
X2884600Y4173240D02*
X2906600Y4151240D01*
X2906600Y4173240D02*
X2884600Y4151240D01*
X2888890Y7011000D02*
X2910890Y6989000D01*
X2910890Y7011000D02*
X2888890Y6989000D01*
X2888890Y4659700D02*
X2910890Y4637700D01*
X2910890Y4659700D02*
X2888890Y4637700D01*
X2948890Y3036000D02*
X2970890Y3014000D01*
X2970890Y3036000D02*
X2948890Y3014000D01*
X2953890Y6926000D02*
X2975890Y6904000D01*
X2975890Y6926000D02*
X2953890Y6904000D01*
X2961600Y4681540D02*
X2983600Y4659540D01*
X2983600Y4681540D02*
X2961600Y4659540D01*
X2963890Y5061000D02*
X2985890Y5039000D01*
X2985890Y5061000D02*
X2963890Y5039000D01*
X2981885Y5365469D02*
X3003885Y5343469D01*
X3003885Y5365469D02*
X2981885Y5343469D01*
X2988890Y6091000D02*
X3010890Y6069000D01*
X3010890Y6091000D02*
X2988890Y6069000D01*
X2988890Y5861000D02*
X3010890Y5839000D01*
X3010890Y5861000D02*
X2988890Y5839000D01*
X3038890Y3936000D02*
X3060890Y3914000D01*
X3060890Y3936000D02*
X3038890Y3914000D01*
X3063890Y7569027D02*
X3085890Y7547027D01*
X3085890Y7569027D02*
X3063890Y7547027D01*
X3087800Y2954040D02*
X3109800Y2932040D01*
X3109800Y2954040D02*
X3087800Y2932040D01*
X3087800Y985540D02*
X3109800Y963540D01*
X3109800Y985540D02*
X3087800Y963540D01*
X3118890Y8171000D02*
X3140890Y8149000D01*
X3140890Y8171000D02*
X3118890Y8149000D01*
X3134771Y5050122D02*
X3156771Y5028122D01*
X3156771Y5050122D02*
X3134771Y5028122D01*
X3138600Y2204740D02*
X3160600Y2182740D01*
X3160600Y2204740D02*
X3138600Y2182740D01*
X3139615Y3326459D02*
X3161615Y3304459D01*
X3161615Y3326459D02*
X3139615Y3304459D01*
X3158890Y5391000D02*
X3180890Y5369000D01*
X3180890Y5391000D02*
X3158890Y5369000D01*
X3183093Y2677667D02*
X3205093Y2655667D01*
X3205093Y2677667D02*
X3183093Y2655667D01*
X3188890Y6931000D02*
X3210890Y6909000D01*
X3210890Y6931000D02*
X3188890Y6909000D01*
X3204000Y4742140D02*
X3226000Y4720140D01*
X3226000Y4742140D02*
X3204000Y4720140D01*
X3233890Y7001000D02*
X3255890Y6979000D01*
X3255890Y7001000D02*
X3233890Y6979000D01*
X3275400Y4267140D02*
X3297400Y4245140D01*
X3297400Y4267140D02*
X3275400Y4245140D01*
X3289000Y3942940D02*
X3311000Y3920940D01*
X3311000Y3942940D02*
X3289000Y3920940D01*
X3291000Y2788940D02*
X3313000Y2766940D01*
X3313000Y2788940D02*
X3291000Y2766940D01*
X3295400Y3313940D02*
X3317400Y3291940D01*
X3317400Y3313940D02*
X3295400Y3291940D01*
X3318890Y7241000D02*
X3340890Y7219000D01*
X3340890Y7241000D02*
X3318890Y7219000D01*
X3318890Y6721000D02*
X3340890Y6699000D01*
X3340890Y6721000D02*
X3318890Y6699000D01*
X3338890Y3591000D02*
X3360890Y3569000D01*
X3360890Y3591000D02*
X3338890Y3569000D01*
X3363890Y3061000D02*
X3385890Y3039000D01*
X3385890Y3061000D02*
X3363890Y3039000D01*
X3444000Y4972940D02*
X3466000Y4950940D01*
X3466000Y4972940D02*
X3444000Y4950940D01*
X3488890Y7781000D02*
X3510890Y7759000D01*
X3510890Y7781000D02*
X3488890Y7759000D01*
X3506900Y3131840D02*
X3528900Y3109840D01*
X3528900Y3131840D02*
X3506900Y3109840D01*
X3519000Y6330240D02*
X3541000Y6308240D01*
X3541000Y6330240D02*
X3519000Y6308240D01*
X3588890Y7221000D02*
X3610890Y7199000D01*
X3610890Y7221000D02*
X3588890Y7199000D01*
X3638890Y7141000D02*
X3660890Y7119000D01*
X3660890Y7141000D02*
X3638890Y7119000D01*
X3652000Y4681540D02*
X3674000Y4659540D01*
X3674000Y4681540D02*
X3652000Y4659540D01*
X3663890Y4461000D02*
X3685890Y4439000D01*
X3685890Y4461000D02*
X3663890Y4439000D01*
X3672000Y2153940D02*
X3694000Y2131940D01*
X3694000Y2153940D02*
X3672000Y2131940D01*
X3715200Y4031840D02*
X3737200Y4009840D01*
X3737200Y4031840D02*
X3715200Y4009840D01*
X3728890Y3601000D02*
X3750890Y3579000D01*
X3750890Y3601000D02*
X3728890Y3579000D01*
X3758890Y491000D02*
X3780890Y469000D01*
X3780890Y491000D02*
X3758890Y469000D01*
X3760900Y2511000D02*
X3782900Y2489000D01*
X3782900Y2511000D02*
X3760900Y2489000D01*
X3768503Y4759626D02*
X3790503Y4737626D01*
X3790503Y4759626D02*
X3768503Y4737626D01*
X3768890Y2951000D02*
X3790890Y2929000D01*
X3790890Y2951000D02*
X3768890Y2929000D01*
X3795200Y4945540D02*
X3817200Y4923540D01*
X3817200Y4945540D02*
X3795200Y4923540D01*
X3799080Y3449020D02*
X3821080Y3427020D01*
X3821080Y3449020D02*
X3799080Y3427020D01*
X3803383Y6231000D02*
X3825383Y6209000D01*
X3825383Y6231000D02*
X3803383Y6209000D01*
X3838200Y4852940D02*
X3860200Y4830940D01*
X3860200Y4852940D02*
X3838200Y4830940D01*
X3870120Y4096860D02*
X3892120Y4074860D01*
X3892120Y4096860D02*
X3870120Y4074860D01*
X3872700Y3786000D02*
X3894700Y3764000D01*
X3894700Y3786000D02*
X3872700Y3764000D01*
X3872700Y1236000D02*
X3894700Y1214000D01*
X3894700Y1236000D02*
X3872700Y1214000D01*
X3898890Y7579500D02*
X3920890Y7557500D01*
X3920890Y7579500D02*
X3898890Y7557500D01*
X3938390Y3936000D02*
X3960390Y3914000D01*
X3960390Y3936000D02*
X3938390Y3914000D01*
X3938390Y1541500D02*
X3960390Y1519500D01*
X3960390Y1541500D02*
X3938390Y1519500D01*
X3948890Y4741000D02*
X3970890Y4719000D01*
X3970890Y4741000D02*
X3948890Y4719000D01*
X3958890Y4961000D02*
X3980890Y4939000D01*
X3980890Y4961000D02*
X3958890Y4939000D01*
X3964000Y4365940D02*
X3986000Y4343940D01*
X3986000Y4365940D02*
X3964000Y4343940D01*
X3978890Y6241000D02*
X4000890Y6219000D01*
X4000890Y6241000D02*
X3978890Y6219000D01*
X3988890Y6126000D02*
X4010890Y6104000D01*
X4010890Y6126000D02*
X3988890Y6104000D01*
X3988890Y5436000D02*
X4010890Y5414000D01*
X4010890Y5436000D02*
X3988890Y5414000D01*
X4013890Y5161000D02*
X4035890Y5139000D01*
X4035890Y5161000D02*
X4013890Y5139000D01*
X4013890Y3703915D02*
X4035890Y3681915D01*
X4035890Y3703915D02*
X4013890Y3681915D01*
X4013890Y2081000D02*
X4035890Y2059000D01*
X4035890Y2081000D02*
X4013890Y2059000D01*
X4062380Y6811000D02*
X4084380Y6789000D01*
X4084380Y6811000D02*
X4062380Y6789000D01*
X4063135Y6536755D02*
X4085135Y6514755D01*
X4085135Y6536755D02*
X4063135Y6514755D01*
X4118890Y2896500D02*
X4140890Y2874500D01*
X4140890Y2896500D02*
X4118890Y2874500D01*
X4129200Y6230640D02*
X4151200Y6208640D01*
X4151200Y6230640D02*
X4129200Y6208640D01*
X4163890Y1986000D02*
X4185890Y1964000D01*
X4185890Y1986000D02*
X4163890Y1964000D01*
X4163890Y1436000D02*
X4185890Y1414000D01*
X4185890Y1436000D02*
X4163890Y1414000D01*
X4168890Y6116000D02*
X4190890Y6094000D01*
X4190890Y6116000D02*
X4168890Y6094000D01*
X4188890Y2306340D02*
X4210890Y2284340D01*
X4210890Y2306340D02*
X4188890Y2284340D01*
X4194573Y4664216D02*
X4216573Y4642216D01*
X4216573Y4664216D02*
X4194573Y4642216D01*
X4338890Y6661000D02*
X4360890Y6639000D01*
X4360890Y6661000D02*
X4338890Y6639000D01*
X4338890Y6336000D02*
X4360890Y6314000D01*
X4360890Y6336000D02*
X4338890Y6314000D01*
X4338890Y6161000D02*
X4360890Y6139000D01*
X4360890Y6161000D02*
X4338890Y6139000D01*
X4338890Y4751000D02*
X4360890Y4729000D01*
X4360890Y4751000D02*
X4338890Y4729000D01*
X4346058Y4907481D02*
X4368058Y4885481D01*
X4368058Y4907481D02*
X4346058Y4885481D01*
X4348890Y5661000D02*
X4370890Y5639000D01*
X4370890Y5661000D02*
X4348890Y5639000D01*
X4388890Y1731000D02*
X4410890Y1709000D01*
X4410890Y1731000D02*
X4388890Y1709000D01*
X4388890Y761000D02*
X4410890Y739000D01*
X4410890Y761000D02*
X4388890Y739000D01*
X4393890Y7286000D02*
X4415890Y7264000D01*
X4415890Y7286000D02*
X4393890Y7264000D01*
X4408890Y6401000D02*
X4430890Y6379000D01*
X4430890Y6401000D02*
X4408890Y6379000D01*
X4410267Y2421991D02*
X4432267Y2399991D01*
X4432267Y2421991D02*
X4410267Y2399991D01*
X4418890Y4371000D02*
X4440890Y4349000D01*
X4440890Y4371000D02*
X4418890Y4349000D01*
X4428890Y4761000D02*
X4450890Y4739000D01*
X4450890Y4761000D02*
X4428890Y4739000D01*
X4488890Y7901000D02*
X4510890Y7879000D01*
X4510890Y7901000D02*
X4488890Y7879000D01*
X4488890Y6261000D02*
X4510890Y6239000D01*
X4510890Y6261000D02*
X4488890Y6239000D01*
X4488890Y2436000D02*
X4510890Y2414000D01*
X4510890Y2436000D02*
X4488890Y2414000D01*
X4488890Y1886000D02*
X4510890Y1864000D01*
X4510890Y1886000D02*
X4488890Y1864000D01*
X4558890Y4641000D02*
X4580890Y4619000D01*
X4580890Y4641000D02*
X4558890Y4619000D01*
X4563890Y911000D02*
X4585890Y889000D01*
X4585890Y911000D02*
X4563890Y889000D01*
X4588890Y1234068D02*
X4610890Y1212068D01*
X4610890Y1234068D02*
X4588890Y1212068D01*
X4591940Y7344050D02*
X4613940Y7322050D01*
X4613940Y7344050D02*
X4591940Y7322050D01*
X4628890Y4161000D02*
X4650890Y4139000D01*
X4650890Y4161000D02*
X4628890Y4139000D01*
X4628890Y2831000D02*
X4650890Y2809000D01*
X4650890Y2831000D02*
X4628890Y2809000D01*
X4638890Y7706500D02*
X4660890Y7684500D01*
X4660890Y7706500D02*
X4638890Y7684500D01*
X4638890Y3886000D02*
X4660890Y3864000D01*
X4660890Y3886000D02*
X4638890Y3864000D01*
X4688890Y6191000D02*
X4710890Y6169000D01*
X4710890Y6191000D02*
X4688890Y6169000D01*
X4718890Y5866000D02*
X4740890Y5844000D01*
X4740890Y5866000D02*
X4718890Y5844000D01*
X4788890Y6161000D02*
X4810890Y6139000D01*
X4810890Y6161000D02*
X4788890Y6139000D01*
X4808890Y3241000D02*
X4830890Y3219000D01*
X4830890Y3241000D02*
X4808890Y3219000D01*
X4813890Y3571000D02*
X4835890Y3549000D01*
X4835890Y3571000D02*
X4813890Y3549000D01*
X4838890Y7381000D02*
X4860890Y7359000D01*
X4860890Y7381000D02*
X4838890Y7359000D01*
X4878890Y4611000D02*
X4900890Y4589000D01*
X4900890Y4611000D02*
X4878890Y4589000D01*
X4888890Y7601000D02*
X4910890Y7579000D01*
X4910890Y7601000D02*
X4888890Y7579000D01*
X4893890Y7481000D02*
X4915890Y7459000D01*
X4915890Y7481000D02*
X4893890Y7459000D01*
X4933890Y7271000D02*
X4955890Y7249000D01*
X4955890Y7271000D02*
X4933890Y7249000D01*
X4938890Y6401000D02*
X4960890Y6379000D01*
X4960890Y6401000D02*
X4938890Y6379000D01*
X4988890Y4556000D02*
X5010890Y4534000D01*
X5010890Y4556000D02*
X4988890Y4534000D01*
X5002781Y7586000D02*
X5024781Y7564000D01*
X5024781Y7586000D02*
X5002781Y7564000D01*
X5008733Y7481647D02*
X5030733Y7459647D01*
X5030733Y7481647D02*
X5008733Y7459647D01*
X5008890Y7081000D02*
X5030890Y7059000D01*
X5030890Y7081000D02*
X5008890Y7059000D01*
X5078890Y7621000D02*
X5100890Y7599000D01*
X5100890Y7621000D02*
X5078890Y7599000D01*
X5078890Y7011000D02*
X5100890Y6989000D01*
X5100890Y7011000D02*
X5078890Y6989000D01*
X5098890Y7211000D02*
X5120890Y7189000D01*
X5120890Y7211000D02*
X5098890Y7189000D01*
X5118890Y7411000D02*
X5140890Y7389000D01*
X5140890Y7411000D02*
X5118890Y7389000D01*
X5121185Y6377087D02*
X5143185Y6355087D01*
X5143185Y6377087D02*
X5121185Y6355087D01*
X5228890Y6011000D02*
X5250890Y5989000D01*
X5250890Y6011000D02*
X5228890Y5989000D01*
X5433890Y4631000D02*
X5455890Y4609000D01*
X5455890Y4631000D02*
X5433890Y4609000D01*
X5473890Y7296000D02*
X5495890Y7274000D01*
X5495890Y7296000D02*
X5473890Y7274000D01*
X5478162Y7078473D02*
X5500162Y7056473D01*
X5500162Y7078473D02*
X5478162Y7056473D01*
X5478890Y7406000D02*
X5500890Y7384000D01*
X5500890Y7406000D02*
X5478890Y7384000D01*
X5478890Y6991000D02*
X5500890Y6969000D01*
X5500890Y6991000D02*
X5478890Y6969000D01*
X5513890Y7211000D02*
X5535890Y7189000D01*
X5535890Y7211000D02*
X5513890Y7189000D01*
X5553020Y6225945D02*
X5575020Y6203945D01*
X5575020Y6225945D02*
X5553020Y6203945D01*
X5669890Y6221000D02*
X5691890Y6199000D01*
X5691890Y6221000D02*
X5669890Y6199000D01*
X5698890Y4651000D02*
X5720890Y4629000D01*
X5720890Y4651000D02*
X5698890Y4629000D01*
X5717514Y5982376D02*
X5739514Y5960376D01*
X5739514Y5982376D02*
X5717514Y5960376D01*
X5738890Y7591000D02*
X5760890Y7569000D01*
X5760890Y7591000D02*
X5738890Y7569000D01*
X5803486Y6454527D02*
X5825486Y6432527D01*
X5825486Y6454527D02*
X5803486Y6432527D01*
X5858890Y1391000D02*
X5880890Y1369000D01*
X5880890Y1391000D02*
X5858890Y1369000D01*
X5932367Y3656000D02*
X5954367Y3634000D01*
X5954367Y3656000D02*
X5932367Y3634000D01*
X5937890Y7025011D02*
X5959890Y7003011D01*
X5959890Y7025011D02*
X5937890Y7003011D01*
X5938890Y5811000D02*
X5960890Y5789000D01*
X5960890Y5811000D02*
X5938890Y5789000D01*
X5941901Y7491000D02*
X5963901Y7469000D01*
X5963901Y7491000D02*
X5941901Y7469000D01*
X5430890Y7691750D02*
G75*
G02*
X5385890Y7691750I-22500J0D01*
G01*
X5385890Y7691750D02*
G75*
G02*
X5430890Y7691750I22500J0D01*
G01*
X5380890Y7669250D02*
X5435890Y7669250D01*
X5435890Y7714250D02*
G75*
G02*
X5435890Y7669250I0J-22500D01*
G01*
X5435890Y7714250D02*
X5380890Y7714250D01*
X5380890Y7714250D02*
G75*
G03*
X5380890Y7669250I0J-22500D01*
G01*
X1579890Y6895000D02*
X1579890Y6845000D01*
X1554890Y6870000D02*
X1604890Y6870000D01*
X1852500Y4349340D02*
X1852500Y4299340D01*
X1827500Y4324340D02*
X1877500Y4324340D01*
X1924890Y4850000D02*
X1924890Y4800000D01*
X1899890Y4825000D02*
X1949890Y4825000D01*
X2009890Y5055000D02*
X2009890Y5005000D01*
X1984890Y5030000D02*
X2034890Y5030000D01*
X2079420Y3681320D02*
X2079420Y3631320D01*
X2054420Y3656320D02*
X2104420Y3656320D01*
X3216400Y3552340D02*
X3216400Y3502340D01*
X3191400Y3527340D02*
X3241400Y3527340D01*
X3699890Y3250000D02*
X3699890Y3200000D01*
X3674890Y3225000D02*
X3724890Y3225000D01*
X3919890Y6545000D02*
X3919890Y6495000D01*
X3894890Y6520000D02*
X3944890Y6520000D01*
X4499890Y4915000D02*
X4499890Y4865000D01*
X4474890Y4890000D02*
X4524890Y4890000D01*
X5408390Y6890750D02*
X5408390Y6840750D01*
X5383390Y6865750D02*
X5433390Y6865750D01*
X5378390Y6840750D02*
X5438390Y6840750D01*
X5438390Y6890750D02*
G75*
G02*
X5438390Y6840750I0J-25000D01*
G01*
X5438390Y6890750D02*
X5378390Y6890750D01*
X5378390Y6890750D02*
G75*
G03*
X5378390Y6840750I0J-25000D01*
G01*
X6003390Y7752750D02*
X6003390Y7702750D01*
X5978390Y7727750D02*
X6028390Y7727750D01*
X5973390Y7702750D02*
X6033390Y7702750D01*
X6033390Y7752750D02*
G75*
G02*
X6033390Y7702750I0J-25000D01*
G01*
X6033390Y7752750D02*
X5973390Y7752750D01*
X5973390Y7752750D02*
G75*
G03*
X5973390Y7702750I0J-25000D01*
G01*
X6003390Y6854750D02*
X6003390Y6804750D01*
X5978390Y6829750D02*
X6028390Y6829750D01*
X5973390Y6804750D02*
X6033390Y6804750D01*
X6033390Y6854750D02*
G75*
G02*
X6033390Y6804750I0J-25000D01*
G01*
X6033390Y6854750D02*
X5973390Y6854750D01*
X5973390Y6854750D02*
G75*
G03*
X5973390Y6804750I0J-25000D01*
G01*
X355356Y7757984D02*
X355356Y7828696D01*
X284644Y7828696D01*
X284644Y7757984D01*
X355356Y7757984D01*
X355356Y7503984D02*
X355356Y7574696D01*
X284644Y7574696D01*
X284644Y7503984D01*
X355356Y7503984D01*
X355356Y7249984D02*
X355356Y7320696D01*
X284644Y7320696D01*
X284644Y7249984D01*
X355356Y7249984D01*
X370956Y6877784D02*
X370956Y6948496D01*
X300244Y6948496D01*
X300244Y6877784D01*
X370956Y6877784D01*
X370956Y6623784D02*
X370956Y6694496D01*
X300244Y6694496D01*
X300244Y6623784D01*
X370956Y6623784D01*
X370956Y6369784D02*
X370956Y6440496D01*
X300244Y6440496D01*
X300244Y6369784D01*
X370956Y6369784D01*
X375356Y5891984D02*
X375356Y5962696D01*
X304644Y5962696D01*
X304644Y5891984D01*
X375356Y5891984D01*
X375356Y5637984D02*
X375356Y5708696D01*
X304644Y5708696D01*
X304644Y5637984D01*
X375356Y5637984D01*
X375356Y5383984D02*
X375356Y5454696D01*
X304644Y5454696D01*
X304644Y5383984D01*
X375356Y5383984D01*
X375356Y5129984D02*
X375356Y5200696D01*
X304644Y5200696D01*
X304644Y5129984D01*
X375356Y5129984D01*
X375356Y4875984D02*
X375356Y4946696D01*
X304644Y4946696D01*
X304644Y4875984D01*
X375356Y4875984D01*
X375356Y4381184D02*
X375356Y4451896D01*
X304644Y4451896D01*
X304644Y4381184D01*
X375356Y4381184D01*
X375356Y4127184D02*
X375356Y4197896D01*
X304644Y4197896D01*
X304644Y4127184D01*
X375356Y4127184D01*
X375356Y3873184D02*
X375356Y3943896D01*
X304644Y3943896D01*
X304644Y3873184D01*
X375356Y3873184D01*
X375356Y3619184D02*
X375356Y3689896D01*
X304644Y3689896D01*
X304644Y3619184D01*
X375356Y3619184D01*
X375356Y3365184D02*
X375356Y3435896D01*
X304644Y3435896D01*
X304644Y3365184D01*
X375356Y3365184D01*
X375356Y2856884D02*
X375356Y2927596D01*
X304644Y2927596D01*
X304644Y2856884D01*
X375356Y2856884D01*
X375356Y2602884D02*
X375356Y2673596D01*
X304644Y2673596D01*
X304644Y2602884D01*
X375356Y2602884D01*
X375356Y2348884D02*
X375356Y2419596D01*
X304644Y2419596D01*
X304644Y2348884D01*
X375356Y2348884D01*
X375356Y1840884D02*
X375356Y1911596D01*
X304644Y1911596D01*
X304644Y1840884D01*
X375356Y1840884D01*
X375356Y1586884D02*
X375356Y1657596D01*
X304644Y1657596D01*
X304644Y1586884D01*
X375356Y1586884D01*
X375356Y1332884D02*
X375356Y1403596D01*
X304644Y1403596D01*
X304644Y1332884D01*
X375356Y1332884D01*
X375356Y1078884D02*
X375356Y1149596D01*
X304644Y1149596D01*
X304644Y1078884D01*
X375356Y1078884D01*
X375356Y824884D02*
X375356Y895596D01*
X304644Y895596D01*
X304644Y824884D01*
X375356Y824884D01*
X2135246Y7724644D02*
X2135246Y7795356D01*
X2064534Y7795356D01*
X2064534Y7724644D01*
X2135246Y7724644D01*
X3155246Y1704644D02*
X3155246Y1775356D01*
X3084534Y1775356D01*
X3084534Y1704644D01*
X3155246Y1704644D01*
X3556246Y5747644D02*
X3556246Y5818356D01*
X3485534Y5818356D01*
X3485534Y5747644D01*
X3556246Y5747644D01*
X3556246Y5493644D02*
X3556246Y5564356D01*
X3485534Y5564356D01*
X3485534Y5493644D01*
X3556246Y5493644D01*
X3556246Y5239644D02*
X3556246Y5310356D01*
X3485534Y5310356D01*
X3485534Y5239644D01*
X3556246Y5239644D01*
X3810246Y5747644D02*
X3810246Y5818356D01*
X3739534Y5818356D01*
X3739534Y5747644D01*
X3810246Y5747644D01*
X3810246Y5493644D02*
X3810246Y5564356D01*
X3739534Y5564356D01*
X3739534Y5493644D01*
X3810246Y5493644D01*
X3810246Y5239644D02*
X3810246Y5310356D01*
X3739534Y5310356D01*
X3739534Y5239644D01*
X3810246Y5239644D01*
D14*
X5534890Y2151380D02*
X5606010Y2222500D01*
X5534890Y2293620D01*
X5463770Y2222500D01*
X5534890Y2151380D01*
X5534890Y1801380D02*
X5606010Y1872500D01*
X5534890Y1943620D01*
X5463770Y1872500D01*
X5534890Y1801380D01*
X5534890Y1451380D02*
X5606010Y1522500D01*
X5534890Y1593620D01*
X5463770Y1522500D01*
X5534890Y1451380D01*
X5534890Y1101380D02*
X5606010Y1172500D01*
X5534890Y1243620D01*
X5463770Y1172500D01*
X5534890Y1101380D01*
X5534890Y751380D02*
X5606010Y822500D01*
X5534890Y893620D01*
X5463770Y822500D01*
X5534890Y751380D01*
D15*
X1084988Y8254902D02*
X1294792Y8045098D01*
X1294792Y8254902D02*
X1084988Y8045098D01*
X1294792Y8150000D02*
G75*
G02*
X1084988Y8150000I-104902J0D01*
G01*
X1084988Y8150000D02*
G75*
G02*
X1294792Y8150000I104902J0D01*
G01*
X1084988Y3344902D02*
X1294792Y3135098D01*
X1294792Y3344902D02*
X1084988Y3135098D01*
X1294792Y3240000D02*
G75*
G02*
X1084988Y3240000I-104902J0D01*
G01*
X1084988Y3240000D02*
G75*
G02*
X1294792Y3240000I104902J0D01*
G01*
X1084988Y404902D02*
X1294792Y195098D01*
X1294792Y404902D02*
X1084988Y195098D01*
X1294792Y300000D02*
G75*
G02*
X1084988Y300000I-104902J0D01*
G01*
X1084988Y300000D02*
G75*
G02*
X1294792Y300000I104902J0D01*
G01*
X5493239Y404902D02*
X5703043Y195098D01*
X5703043Y404902D02*
X5493239Y195098D01*
X5703043Y300000D02*
G75*
G02*
X5493239Y300000I-104902J0D01*
G01*
X5493239Y300000D02*
G75*
G02*
X5703043Y300000I104902J0D01*
G01*
X5519988Y8254902D02*
X5729792Y8045098D01*
X5729792Y8254902D02*
X5519988Y8045098D01*
X5729792Y8150000D02*
G75*
G02*
X5519988Y8150000I-104902J0D01*
G01*
X5519988Y8150000D02*
G75*
G02*
X5729792Y8150000I104902J0D01*
G01*
X5519988Y4244902D02*
X5729792Y4035098D01*
X5729792Y4244902D02*
X5519988Y4035098D01*
X5729792Y4140000D02*
G75*
G02*
X5519988Y4140000I-104902J0D01*
G01*
X5519988Y4140000D02*
G75*
G02*
X5729792Y4140000I104902J0D01*
G01*
D12*
X253157Y-319104D02*
X253157Y-119104D01*
X253157Y-119104D02*
X300776Y-119104D01*
X300776Y-119104D02*
X329347Y-128628D01*
X329347Y-128628D02*
X348395Y-147675D01*
X348395Y-147675D02*
X357919Y-166723D01*
X357919Y-166723D02*
X367442Y-204818D01*
X367442Y-204818D02*
X367442Y-233389D01*
X367442Y-233389D02*
X357919Y-271485D01*
X357919Y-271485D02*
X348395Y-290532D01*
X348395Y-290532D02*
X329347Y-309580D01*
X329347Y-309580D02*
X300776Y-319104D01*
X300776Y-319104D02*
X253157Y-319104D01*
X453157Y-319104D02*
X453157Y-185770D01*
X453157Y-223866D02*
X462681Y-204818D01*
X462681Y-204818D02*
X472204Y-195294D01*
X472204Y-195294D02*
X491252Y-185770D01*
X491252Y-185770D02*
X510300Y-185770D01*
X576966Y-319104D02*
X576966Y-185770D01*
X576966Y-119104D02*
X567443Y-128628D01*
X567443Y-128628D02*
X576966Y-138151D01*
X576966Y-138151D02*
X586490Y-128628D01*
X586490Y-128628D02*
X576966Y-119104D01*
X576966Y-119104D02*
X576966Y-138151D01*
X700776Y-319104D02*
X681728Y-309580D01*
X681728Y-309580D02*
X672204Y-290532D01*
X672204Y-290532D02*
X672204Y-119104D01*
X805538Y-319104D02*
X786490Y-309580D01*
X786490Y-309580D02*
X776966Y-290532D01*
X776966Y-290532D02*
X776966Y-119104D01*
X1034109Y-319104D02*
X1034109Y-119104D01*
X1034109Y-119104D02*
X1100776Y-261961D01*
X1100776Y-261961D02*
X1167443Y-119104D01*
X1167443Y-119104D02*
X1167443Y-319104D01*
X1348395Y-319104D02*
X1348395Y-214342D01*
X1348395Y-214342D02*
X1338871Y-195294D01*
X1338871Y-195294D02*
X1319824Y-185770D01*
X1319824Y-185770D02*
X1281728Y-185770D01*
X1281728Y-185770D02*
X1262681Y-195294D01*
X1348395Y-309580D02*
X1329347Y-319104D01*
X1329347Y-319104D02*
X1281728Y-319104D01*
X1281728Y-319104D02*
X1262681Y-309580D01*
X1262681Y-309580D02*
X1253157Y-290532D01*
X1253157Y-290532D02*
X1253157Y-271485D01*
X1253157Y-271485D02*
X1262681Y-252437D01*
X1262681Y-252437D02*
X1281728Y-242913D01*
X1281728Y-242913D02*
X1329347Y-242913D01*
X1329347Y-242913D02*
X1348395Y-233389D01*
X1443633Y-185770D02*
X1443633Y-385770D01*
X1443633Y-195294D02*
X1462681Y-185770D01*
X1462681Y-185770D02*
X1500776Y-185770D01*
X1500776Y-185770D02*
X1519823Y-195294D01*
X1519823Y-195294D02*
X1529347Y-204818D01*
X1529347Y-204818D02*
X1538871Y-223866D01*
X1538871Y-223866D02*
X1538871Y-281009D01*
X1538871Y-281009D02*
X1529347Y-300056D01*
X1529347Y-300056D02*
X1519823Y-309580D01*
X1519823Y-309580D02*
X1500776Y-319104D01*
X1500776Y-319104D02*
X1462681Y-319104D01*
X1462681Y-319104D02*
X1443633Y-309580D01*
X1624585Y-300056D02*
X1634109Y-309580D01*
X1634109Y-309580D02*
X1624585Y-319104D01*
X1624585Y-319104D02*
X1615062Y-309580D01*
X1615062Y-309580D02*
X1624585Y-300056D01*
X1624585Y-300056D02*
X1624585Y-319104D01*
X1624585Y-195294D02*
X1634109Y-204818D01*
X1634109Y-204818D02*
X1624585Y-214342D01*
X1624585Y-214342D02*
X1615062Y-204818D01*
X1615062Y-204818D02*
X1624585Y-195294D01*
X1624585Y-195294D02*
X1624585Y-214342D01*
D13*
X-29620Y-636620D02*
X-7620Y-658620D01*
X-7620Y-636620D02*
X-29620Y-658620D01*
D12*
X291252Y-539104D02*
X310300Y-539104D01*
X310300Y-539104D02*
X329347Y-548628D01*
X329347Y-548628D02*
X338871Y-558151D01*
X338871Y-558151D02*
X348395Y-577199D01*
X348395Y-577199D02*
X357919Y-615294D01*
X357919Y-615294D02*
X357919Y-662913D01*
X357919Y-662913D02*
X348395Y-701008D01*
X348395Y-701008D02*
X338871Y-720056D01*
X338871Y-720056D02*
X329347Y-729580D01*
X329347Y-729580D02*
X310300Y-739104D01*
X310300Y-739104D02*
X291252Y-739104D01*
X291252Y-739104D02*
X272204Y-729580D01*
X272204Y-729580D02*
X262681Y-720056D01*
X262681Y-720056D02*
X253157Y-701008D01*
X253157Y-701008D02*
X243633Y-662913D01*
X243633Y-662913D02*
X243633Y-615294D01*
X243633Y-615294D02*
X253157Y-577199D01*
X253157Y-577199D02*
X262681Y-558151D01*
X262681Y-558151D02*
X272204Y-548628D01*
X272204Y-548628D02*
X291252Y-539104D01*
X443633Y-720056D02*
X453157Y-729580D01*
X453157Y-729580D02*
X443633Y-739104D01*
X443633Y-739104D02*
X434109Y-729580D01*
X434109Y-729580D02*
X443633Y-720056D01*
X443633Y-720056D02*
X443633Y-739104D01*
X529347Y-558151D02*
X538871Y-548628D01*
X538871Y-548628D02*
X557919Y-539104D01*
X557919Y-539104D02*
X605538Y-539104D01*
X605538Y-539104D02*
X624585Y-548628D01*
X624585Y-548628D02*
X634109Y-558151D01*
X634109Y-558151D02*
X643633Y-577199D01*
X643633Y-577199D02*
X643633Y-596247D01*
X643633Y-596247D02*
X634109Y-624818D01*
X634109Y-624818D02*
X519823Y-739104D01*
X519823Y-739104D02*
X643633Y-739104D01*
X719823Y-558151D02*
X729347Y-548628D01*
X729347Y-548628D02*
X748395Y-539104D01*
X748395Y-539104D02*
X796014Y-539104D01*
X796014Y-539104D02*
X815062Y-548628D01*
X815062Y-548628D02*
X824585Y-558151D01*
X824585Y-558151D02*
X834109Y-577199D01*
X834109Y-577199D02*
X834109Y-596247D01*
X834109Y-596247D02*
X824585Y-624818D01*
X824585Y-624818D02*
X710300Y-739104D01*
X710300Y-739104D02*
X834109Y-739104D01*
X957919Y-539104D02*
X976966Y-539104D01*
X976966Y-539104D02*
X996014Y-548628D01*
X996014Y-548628D02*
X1005538Y-558151D01*
X1005538Y-558151D02*
X1015062Y-577199D01*
X1015062Y-577199D02*
X1024585Y-615294D01*
X1024585Y-615294D02*
X1024585Y-662913D01*
X1024585Y-662913D02*
X1015062Y-701008D01*
X1015062Y-701008D02*
X1005538Y-720056D01*
X1005538Y-720056D02*
X996014Y-729580D01*
X996014Y-729580D02*
X976966Y-739104D01*
X976966Y-739104D02*
X957919Y-739104D01*
X957919Y-739104D02*
X938871Y-729580D01*
X938871Y-729580D02*
X929347Y-720056D01*
X929347Y-720056D02*
X919823Y-701008D01*
X919823Y-701008D02*
X910300Y-662913D01*
X910300Y-662913D02*
X910300Y-615294D01*
X910300Y-615294D02*
X919823Y-577199D01*
X919823Y-577199D02*
X929347Y-558151D01*
X929347Y-558151D02*
X938871Y-548628D01*
X938871Y-548628D02*
X957919Y-539104D01*
X1110300Y-739104D02*
X1110300Y-605770D01*
X1110300Y-624818D02*
X1119824Y-615294D01*
X1119824Y-615294D02*
X1138871Y-605770D01*
X1138871Y-605770D02*
X1167443Y-605770D01*
X1167443Y-605770D02*
X1186490Y-615294D01*
X1186490Y-615294D02*
X1196014Y-634342D01*
X1196014Y-634342D02*
X1196014Y-739104D01*
X1196014Y-634342D02*
X1205538Y-615294D01*
X1205538Y-615294D02*
X1224585Y-605770D01*
X1224585Y-605770D02*
X1253157Y-605770D01*
X1253157Y-605770D02*
X1272205Y-615294D01*
X1272205Y-615294D02*
X1281728Y-634342D01*
X1281728Y-634342D02*
X1281728Y-739104D01*
X1376966Y-739104D02*
X1376966Y-605770D01*
X1376966Y-624818D02*
X1386490Y-615294D01*
X1386490Y-615294D02*
X1405538Y-605770D01*
X1405538Y-605770D02*
X1434109Y-605770D01*
X1434109Y-605770D02*
X1453157Y-615294D01*
X1453157Y-615294D02*
X1462681Y-634342D01*
X1462681Y-634342D02*
X1462681Y-739104D01*
X1462681Y-634342D02*
X1472204Y-615294D01*
X1472204Y-615294D02*
X1491252Y-605770D01*
X1491252Y-605770D02*
X1519823Y-605770D01*
X1519823Y-605770D02*
X1538871Y-615294D01*
X1538871Y-615294D02*
X1548395Y-634342D01*
X1548395Y-634342D02*
X1548395Y-739104D01*
X1938871Y-529580D02*
X1767443Y-786723D01*
X2196014Y-539104D02*
X2215062Y-539104D01*
X2215062Y-539104D02*
X2234109Y-548628D01*
X2234109Y-548628D02*
X2243633Y-558151D01*
X2243633Y-558151D02*
X2253157Y-577199D01*
X2253157Y-577199D02*
X2262681Y-615294D01*
X2262681Y-615294D02*
X2262681Y-662913D01*
X2262681Y-662913D02*
X2253157Y-701008D01*
X2253157Y-701008D02*
X2243633Y-720056D01*
X2243633Y-720056D02*
X2234109Y-729580D01*
X2234109Y-729580D02*
X2215062Y-739104D01*
X2215062Y-739104D02*
X2196014Y-739104D01*
X2196014Y-739104D02*
X2176967Y-729580D01*
X2176967Y-729580D02*
X2167443Y-720056D01*
X2167443Y-720056D02*
X2157919Y-701008D01*
X2157919Y-701008D02*
X2148395Y-662913D01*
X2148395Y-662913D02*
X2148395Y-615294D01*
X2148395Y-615294D02*
X2157919Y-577199D01*
X2157919Y-577199D02*
X2167443Y-558151D01*
X2167443Y-558151D02*
X2176967Y-548628D01*
X2176967Y-548628D02*
X2196014Y-539104D01*
X2348395Y-720056D02*
X2357919Y-729580D01*
X2357919Y-729580D02*
X2348395Y-739104D01*
X2348395Y-739104D02*
X2338871Y-729580D01*
X2338871Y-729580D02*
X2348395Y-720056D01*
X2348395Y-720056D02*
X2348395Y-739104D01*
X2481728Y-539104D02*
X2500776Y-539104D01*
X2500776Y-539104D02*
X2519824Y-548628D01*
X2519824Y-548628D02*
X2529348Y-558151D01*
X2529348Y-558151D02*
X2538871Y-577199D01*
X2538871Y-577199D02*
X2548395Y-615294D01*
X2548395Y-615294D02*
X2548395Y-662913D01*
X2548395Y-662913D02*
X2538871Y-701008D01*
X2538871Y-701008D02*
X2529348Y-720056D01*
X2529348Y-720056D02*
X2519824Y-729580D01*
X2519824Y-729580D02*
X2500776Y-739104D01*
X2500776Y-739104D02*
X2481728Y-739104D01*
X2481728Y-739104D02*
X2462681Y-729580D01*
X2462681Y-729580D02*
X2453157Y-720056D01*
X2453157Y-720056D02*
X2443633Y-701008D01*
X2443633Y-701008D02*
X2434109Y-662913D01*
X2434109Y-662913D02*
X2434109Y-615294D01*
X2434109Y-615294D02*
X2443633Y-577199D01*
X2443633Y-577199D02*
X2453157Y-558151D01*
X2453157Y-558151D02*
X2462681Y-548628D01*
X2462681Y-548628D02*
X2481728Y-539104D01*
X2672205Y-539104D02*
X2691252Y-539104D01*
X2691252Y-539104D02*
X2710300Y-548628D01*
X2710300Y-548628D02*
X2719824Y-558151D01*
X2719824Y-558151D02*
X2729348Y-577199D01*
X2729348Y-577199D02*
X2738871Y-615294D01*
X2738871Y-615294D02*
X2738871Y-662913D01*
X2738871Y-662913D02*
X2729348Y-701008D01*
X2729348Y-701008D02*
X2719824Y-720056D01*
X2719824Y-720056D02*
X2710300Y-729580D01*
X2710300Y-729580D02*
X2691252Y-739104D01*
X2691252Y-739104D02*
X2672205Y-739104D01*
X2672205Y-739104D02*
X2653157Y-729580D01*
X2653157Y-729580D02*
X2643633Y-720056D01*
X2643633Y-720056D02*
X2634109Y-701008D01*
X2634109Y-701008D02*
X2624586Y-662913D01*
X2624586Y-662913D02*
X2624586Y-615294D01*
X2624586Y-615294D02*
X2634109Y-577199D01*
X2634109Y-577199D02*
X2643633Y-558151D01*
X2643633Y-558151D02*
X2653157Y-548628D01*
X2653157Y-548628D02*
X2672205Y-539104D01*
X2853157Y-624818D02*
X2834109Y-615294D01*
X2834109Y-615294D02*
X2824586Y-605770D01*
X2824586Y-605770D02*
X2815062Y-586723D01*
X2815062Y-586723D02*
X2815062Y-577199D01*
X2815062Y-577199D02*
X2824586Y-558151D01*
X2824586Y-558151D02*
X2834109Y-548628D01*
X2834109Y-548628D02*
X2853157Y-539104D01*
X2853157Y-539104D02*
X2891252Y-539104D01*
X2891252Y-539104D02*
X2910300Y-548628D01*
X2910300Y-548628D02*
X2919824Y-558151D01*
X2919824Y-558151D02*
X2929347Y-577199D01*
X2929347Y-577199D02*
X2929347Y-586723D01*
X2929347Y-586723D02*
X2919824Y-605770D01*
X2919824Y-605770D02*
X2910300Y-615294D01*
X2910300Y-615294D02*
X2891252Y-624818D01*
X2891252Y-624818D02*
X2853157Y-624818D01*
X2853157Y-624818D02*
X2834109Y-634342D01*
X2834109Y-634342D02*
X2824586Y-643866D01*
X2824586Y-643866D02*
X2815062Y-662913D01*
X2815062Y-662913D02*
X2815062Y-701008D01*
X2815062Y-701008D02*
X2824586Y-720056D01*
X2824586Y-720056D02*
X2834109Y-729580D01*
X2834109Y-729580D02*
X2853157Y-739104D01*
X2853157Y-739104D02*
X2891252Y-739104D01*
X2891252Y-739104D02*
X2910300Y-729580D01*
X2910300Y-729580D02*
X2919824Y-720056D01*
X2919824Y-720056D02*
X2929347Y-701008D01*
X2929347Y-701008D02*
X2929347Y-662913D01*
X2929347Y-662913D02*
X2919824Y-643866D01*
X2919824Y-643866D02*
X2910300Y-634342D01*
X2910300Y-634342D02*
X2891252Y-624818D01*
X2996014Y-539104D02*
X3129347Y-539104D01*
X3129347Y-539104D02*
X3043633Y-739104D01*
X3196014Y-539104D02*
X3196014Y-577199D01*
X3272205Y-539104D02*
X3272205Y-577199D01*
X3567443Y-815294D02*
X3557919Y-805770D01*
X3557919Y-805770D02*
X3538871Y-777199D01*
X3538871Y-777199D02*
X3529348Y-758151D01*
X3529348Y-758151D02*
X3519824Y-729580D01*
X3519824Y-729580D02*
X3510300Y-681961D01*
X3510300Y-681961D02*
X3510300Y-643866D01*
X3510300Y-643866D02*
X3519824Y-596247D01*
X3519824Y-596247D02*
X3529348Y-567675D01*
X3529348Y-567675D02*
X3538871Y-548628D01*
X3538871Y-548628D02*
X3557919Y-520056D01*
X3557919Y-520056D02*
X3567443Y-510532D01*
X3634109Y-558151D02*
X3643633Y-548628D01*
X3643633Y-548628D02*
X3662681Y-539104D01*
X3662681Y-539104D02*
X3710300Y-539104D01*
X3710300Y-539104D02*
X3729348Y-548628D01*
X3729348Y-548628D02*
X3738871Y-558151D01*
X3738871Y-558151D02*
X3748395Y-577199D01*
X3748395Y-577199D02*
X3748395Y-596247D01*
X3748395Y-596247D02*
X3738871Y-624818D01*
X3738871Y-624818D02*
X3624586Y-739104D01*
X3624586Y-739104D02*
X3748395Y-739104D01*
X3862681Y-624818D02*
X3843633Y-615294D01*
X3843633Y-615294D02*
X3834109Y-605770D01*
X3834109Y-605770D02*
X3824586Y-586723D01*
X3824586Y-586723D02*
X3824586Y-577199D01*
X3824586Y-577199D02*
X3834109Y-558151D01*
X3834109Y-558151D02*
X3843633Y-548628D01*
X3843633Y-548628D02*
X3862681Y-539104D01*
X3862681Y-539104D02*
X3900776Y-539104D01*
X3900776Y-539104D02*
X3919824Y-548628D01*
X3919824Y-548628D02*
X3929348Y-558151D01*
X3929348Y-558151D02*
X3938871Y-577199D01*
X3938871Y-577199D02*
X3938871Y-586723D01*
X3938871Y-586723D02*
X3929348Y-605770D01*
X3929348Y-605770D02*
X3919824Y-615294D01*
X3919824Y-615294D02*
X3900776Y-624818D01*
X3900776Y-624818D02*
X3862681Y-624818D01*
X3862681Y-624818D02*
X3843633Y-634342D01*
X3843633Y-634342D02*
X3834109Y-643866D01*
X3834109Y-643866D02*
X3824586Y-662913D01*
X3824586Y-662913D02*
X3824586Y-701008D01*
X3824586Y-701008D02*
X3834109Y-720056D01*
X3834109Y-720056D02*
X3843633Y-729580D01*
X3843633Y-729580D02*
X3862681Y-739104D01*
X3862681Y-739104D02*
X3900776Y-739104D01*
X3900776Y-739104D02*
X3919824Y-729580D01*
X3919824Y-729580D02*
X3929348Y-720056D01*
X3929348Y-720056D02*
X3938871Y-701008D01*
X3938871Y-701008D02*
X3938871Y-662913D01*
X3938871Y-662913D02*
X3929348Y-643866D01*
X3929348Y-643866D02*
X3919824Y-634342D01*
X3919824Y-634342D02*
X3900776Y-624818D01*
X4119824Y-539104D02*
X4024586Y-539104D01*
X4024586Y-539104D02*
X4015062Y-634342D01*
X4015062Y-634342D02*
X4024586Y-624818D01*
X4024586Y-624818D02*
X4043633Y-615294D01*
X4043633Y-615294D02*
X4091252Y-615294D01*
X4091252Y-615294D02*
X4110300Y-624818D01*
X4110300Y-624818D02*
X4119824Y-634342D01*
X4119824Y-634342D02*
X4129348Y-653390D01*
X4129348Y-653390D02*
X4129348Y-701008D01*
X4129348Y-701008D02*
X4119824Y-720056D01*
X4119824Y-720056D02*
X4110300Y-729580D01*
X4110300Y-729580D02*
X4091252Y-739104D01*
X4091252Y-739104D02*
X4043633Y-739104D01*
X4043633Y-739104D02*
X4024586Y-729580D01*
X4024586Y-729580D02*
X4015062Y-720056D01*
X4367443Y-739104D02*
X4367443Y-539104D01*
X4453157Y-739104D02*
X4453157Y-634342D01*
X4453157Y-634342D02*
X4443633Y-615294D01*
X4443633Y-615294D02*
X4424586Y-605770D01*
X4424586Y-605770D02*
X4396014Y-605770D01*
X4396014Y-605770D02*
X4376967Y-615294D01*
X4376967Y-615294D02*
X4367443Y-624818D01*
X4576967Y-739104D02*
X4557919Y-729580D01*
X4557919Y-729580D02*
X4548395Y-720056D01*
X4548395Y-720056D02*
X4538872Y-701008D01*
X4538872Y-701008D02*
X4538872Y-643866D01*
X4538872Y-643866D02*
X4548395Y-624818D01*
X4548395Y-624818D02*
X4557919Y-615294D01*
X4557919Y-615294D02*
X4576967Y-605770D01*
X4576967Y-605770D02*
X4605538Y-605770D01*
X4605538Y-605770D02*
X4624586Y-615294D01*
X4624586Y-615294D02*
X4634110Y-624818D01*
X4634110Y-624818D02*
X4643633Y-643866D01*
X4643633Y-643866D02*
X4643633Y-701008D01*
X4643633Y-701008D02*
X4634110Y-720056D01*
X4634110Y-720056D02*
X4624586Y-729580D01*
X4624586Y-729580D02*
X4605538Y-739104D01*
X4605538Y-739104D02*
X4576967Y-739104D01*
X4757919Y-739104D02*
X4738872Y-729580D01*
X4738872Y-729580D02*
X4729348Y-710532D01*
X4729348Y-710532D02*
X4729348Y-539104D01*
X4910300Y-729580D02*
X4891253Y-739104D01*
X4891253Y-739104D02*
X4853157Y-739104D01*
X4853157Y-739104D02*
X4834110Y-729580D01*
X4834110Y-729580D02*
X4824586Y-710532D01*
X4824586Y-710532D02*
X4824586Y-634342D01*
X4824586Y-634342D02*
X4834110Y-615294D01*
X4834110Y-615294D02*
X4853157Y-605770D01*
X4853157Y-605770D02*
X4891253Y-605770D01*
X4891253Y-605770D02*
X4910300Y-615294D01*
X4910300Y-615294D02*
X4919824Y-634342D01*
X4919824Y-634342D02*
X4919824Y-653390D01*
X4919824Y-653390D02*
X4824586Y-672437D01*
X4996014Y-729580D02*
X5015062Y-739104D01*
X5015062Y-739104D02*
X5053157Y-739104D01*
X5053157Y-739104D02*
X5072205Y-729580D01*
X5072205Y-729580D02*
X5081729Y-710532D01*
X5081729Y-710532D02*
X5081729Y-701008D01*
X5081729Y-701008D02*
X5072205Y-681961D01*
X5072205Y-681961D02*
X5053157Y-672437D01*
X5053157Y-672437D02*
X5024586Y-672437D01*
X5024586Y-672437D02*
X5005538Y-662913D01*
X5005538Y-662913D02*
X4996014Y-643866D01*
X4996014Y-643866D02*
X4996014Y-634342D01*
X4996014Y-634342D02*
X5005538Y-615294D01*
X5005538Y-615294D02*
X5024586Y-605770D01*
X5024586Y-605770D02*
X5053157Y-605770D01*
X5053157Y-605770D02*
X5072205Y-615294D01*
X5148395Y-815294D02*
X5157919Y-805770D01*
X5157919Y-805770D02*
X5176967Y-777199D01*
X5176967Y-777199D02*
X5186491Y-758151D01*
X5186491Y-758151D02*
X5196014Y-729580D01*
X5196014Y-729580D02*
X5205538Y-681961D01*
X5205538Y-681961D02*
X5205538Y-643866D01*
X5205538Y-643866D02*
X5196014Y-596247D01*
X5196014Y-596247D02*
X5186491Y-567675D01*
X5186491Y-567675D02*
X5176967Y-548628D01*
X5176967Y-548628D02*
X5157919Y-520056D01*
X5157919Y-520056D02*
X5148395Y-510532D01*
D13*
X-7620Y-911620D02*
G75*
G02*
X-52620Y-911620I-22500J0D01*
G01*
X-52620Y-911620D02*
G75*
G02*
X-7620Y-911620I22500J0D01*
G01*
D12*
X291252Y-803104D02*
X310300Y-803104D01*
X310300Y-803104D02*
X329347Y-812628D01*
X329347Y-812628D02*
X338871Y-822151D01*
X338871Y-822151D02*
X348395Y-841199D01*
X348395Y-841199D02*
X357919Y-879294D01*
X357919Y-879294D02*
X357919Y-926913D01*
X357919Y-926913D02*
X348395Y-965008D01*
X348395Y-965008D02*
X338871Y-984056D01*
X338871Y-984056D02*
X329347Y-993580D01*
X329347Y-993580D02*
X310300Y-1003104D01*
X310300Y-1003104D02*
X291252Y-1003104D01*
X291252Y-1003104D02*
X272204Y-993580D01*
X272204Y-993580D02*
X262681Y-984056D01*
X262681Y-984056D02*
X253157Y-965008D01*
X253157Y-965008D02*
X243633Y-926913D01*
X243633Y-926913D02*
X243633Y-879294D01*
X243633Y-879294D02*
X253157Y-841199D01*
X253157Y-841199D02*
X262681Y-822151D01*
X262681Y-822151D02*
X272204Y-812628D01*
X272204Y-812628D02*
X291252Y-803104D01*
X443633Y-984056D02*
X453157Y-993580D01*
X453157Y-993580D02*
X443633Y-1003104D01*
X443633Y-1003104D02*
X434109Y-993580D01*
X434109Y-993580D02*
X443633Y-984056D01*
X443633Y-984056D02*
X443633Y-1003104D01*
X624585Y-869770D02*
X624585Y-1003104D01*
X576966Y-793580D02*
X529347Y-936437D01*
X529347Y-936437D02*
X653157Y-936437D01*
X824585Y-803104D02*
X729347Y-803104D01*
X729347Y-803104D02*
X719823Y-898342D01*
X719823Y-898342D02*
X729347Y-888818D01*
X729347Y-888818D02*
X748395Y-879294D01*
X748395Y-879294D02*
X796014Y-879294D01*
X796014Y-879294D02*
X815062Y-888818D01*
X815062Y-888818D02*
X824585Y-898342D01*
X824585Y-898342D02*
X834109Y-917389D01*
X834109Y-917389D02*
X834109Y-965008D01*
X834109Y-965008D02*
X824585Y-984056D01*
X824585Y-984056D02*
X815062Y-993580D01*
X815062Y-993580D02*
X796014Y-1003104D01*
X796014Y-1003104D02*
X748395Y-1003104D01*
X748395Y-1003104D02*
X729347Y-993580D01*
X729347Y-993580D02*
X719823Y-984056D01*
X957919Y-803104D02*
X976966Y-803104D01*
X976966Y-803104D02*
X996014Y-812628D01*
X996014Y-812628D02*
X1005538Y-822151D01*
X1005538Y-822151D02*
X1015062Y-841199D01*
X1015062Y-841199D02*
X1024585Y-879294D01*
X1024585Y-879294D02*
X1024585Y-926913D01*
X1024585Y-926913D02*
X1015062Y-965008D01*
X1015062Y-965008D02*
X1005538Y-984056D01*
X1005538Y-984056D02*
X996014Y-993580D01*
X996014Y-993580D02*
X976966Y-1003104D01*
X976966Y-1003104D02*
X957919Y-1003104D01*
X957919Y-1003104D02*
X938871Y-993580D01*
X938871Y-993580D02*
X929347Y-984056D01*
X929347Y-984056D02*
X919823Y-965008D01*
X919823Y-965008D02*
X910300Y-926913D01*
X910300Y-926913D02*
X910300Y-879294D01*
X910300Y-879294D02*
X919823Y-841199D01*
X919823Y-841199D02*
X929347Y-822151D01*
X929347Y-822151D02*
X938871Y-812628D01*
X938871Y-812628D02*
X957919Y-803104D01*
X1110300Y-1003104D02*
X1110300Y-869770D01*
X1110300Y-888818D02*
X1119824Y-879294D01*
X1119824Y-879294D02*
X1138871Y-869770D01*
X1138871Y-869770D02*
X1167443Y-869770D01*
X1167443Y-869770D02*
X1186490Y-879294D01*
X1186490Y-879294D02*
X1196014Y-898342D01*
X1196014Y-898342D02*
X1196014Y-1003104D01*
X1196014Y-898342D02*
X1205538Y-879294D01*
X1205538Y-879294D02*
X1224585Y-869770D01*
X1224585Y-869770D02*
X1253157Y-869770D01*
X1253157Y-869770D02*
X1272205Y-879294D01*
X1272205Y-879294D02*
X1281728Y-898342D01*
X1281728Y-898342D02*
X1281728Y-1003104D01*
X1376966Y-1003104D02*
X1376966Y-869770D01*
X1376966Y-888818D02*
X1386490Y-879294D01*
X1386490Y-879294D02*
X1405538Y-869770D01*
X1405538Y-869770D02*
X1434109Y-869770D01*
X1434109Y-869770D02*
X1453157Y-879294D01*
X1453157Y-879294D02*
X1462681Y-898342D01*
X1462681Y-898342D02*
X1462681Y-1003104D01*
X1462681Y-898342D02*
X1472204Y-879294D01*
X1472204Y-879294D02*
X1491252Y-869770D01*
X1491252Y-869770D02*
X1519823Y-869770D01*
X1519823Y-869770D02*
X1538871Y-879294D01*
X1538871Y-879294D02*
X1548395Y-898342D01*
X1548395Y-898342D02*
X1548395Y-1003104D01*
X1938871Y-793580D02*
X1767443Y-1050723D01*
X2196014Y-803104D02*
X2215062Y-803104D01*
X2215062Y-803104D02*
X2234109Y-812628D01*
X2234109Y-812628D02*
X2243633Y-822151D01*
X2243633Y-822151D02*
X2253157Y-841199D01*
X2253157Y-841199D02*
X2262681Y-879294D01*
X2262681Y-879294D02*
X2262681Y-926913D01*
X2262681Y-926913D02*
X2253157Y-965008D01*
X2253157Y-965008D02*
X2243633Y-984056D01*
X2243633Y-984056D02*
X2234109Y-993580D01*
X2234109Y-993580D02*
X2215062Y-1003104D01*
X2215062Y-1003104D02*
X2196014Y-1003104D01*
X2196014Y-1003104D02*
X2176967Y-993580D01*
X2176967Y-993580D02*
X2167443Y-984056D01*
X2167443Y-984056D02*
X2157919Y-965008D01*
X2157919Y-965008D02*
X2148395Y-926913D01*
X2148395Y-926913D02*
X2148395Y-879294D01*
X2148395Y-879294D02*
X2157919Y-841199D01*
X2157919Y-841199D02*
X2167443Y-822151D01*
X2167443Y-822151D02*
X2176967Y-812628D01*
X2176967Y-812628D02*
X2196014Y-803104D01*
X2348395Y-984056D02*
X2357919Y-993580D01*
X2357919Y-993580D02*
X2348395Y-1003104D01*
X2348395Y-1003104D02*
X2338871Y-993580D01*
X2338871Y-993580D02*
X2348395Y-984056D01*
X2348395Y-984056D02*
X2348395Y-1003104D01*
X2481728Y-803104D02*
X2500776Y-803104D01*
X2500776Y-803104D02*
X2519824Y-812628D01*
X2519824Y-812628D02*
X2529348Y-822151D01*
X2529348Y-822151D02*
X2538871Y-841199D01*
X2538871Y-841199D02*
X2548395Y-879294D01*
X2548395Y-879294D02*
X2548395Y-926913D01*
X2548395Y-926913D02*
X2538871Y-965008D01*
X2538871Y-965008D02*
X2529348Y-984056D01*
X2529348Y-984056D02*
X2519824Y-993580D01*
X2519824Y-993580D02*
X2500776Y-1003104D01*
X2500776Y-1003104D02*
X2481728Y-1003104D01*
X2481728Y-1003104D02*
X2462681Y-993580D01*
X2462681Y-993580D02*
X2453157Y-984056D01*
X2453157Y-984056D02*
X2443633Y-965008D01*
X2443633Y-965008D02*
X2434109Y-926913D01*
X2434109Y-926913D02*
X2434109Y-879294D01*
X2434109Y-879294D02*
X2443633Y-841199D01*
X2443633Y-841199D02*
X2453157Y-822151D01*
X2453157Y-822151D02*
X2462681Y-812628D01*
X2462681Y-812628D02*
X2481728Y-803104D01*
X2738871Y-1003104D02*
X2624586Y-1003104D01*
X2681728Y-1003104D02*
X2681728Y-803104D01*
X2681728Y-803104D02*
X2662681Y-831675D01*
X2662681Y-831675D02*
X2643633Y-850723D01*
X2643633Y-850723D02*
X2624586Y-860247D01*
X2805538Y-803104D02*
X2938871Y-803104D01*
X2938871Y-803104D02*
X2853157Y-1003104D01*
X2996014Y-803104D02*
X3129347Y-803104D01*
X3129347Y-803104D02*
X3043633Y-1003104D01*
X3196014Y-803104D02*
X3196014Y-841199D01*
X3272205Y-803104D02*
X3272205Y-841199D01*
X3567443Y-1079294D02*
X3557919Y-1069770D01*
X3557919Y-1069770D02*
X3538871Y-1041199D01*
X3538871Y-1041199D02*
X3529348Y-1022151D01*
X3529348Y-1022151D02*
X3519824Y-993580D01*
X3519824Y-993580D02*
X3510300Y-945961D01*
X3510300Y-945961D02*
X3510300Y-907866D01*
X3510300Y-907866D02*
X3519824Y-860247D01*
X3519824Y-860247D02*
X3529348Y-831675D01*
X3529348Y-831675D02*
X3538871Y-812628D01*
X3538871Y-812628D02*
X3557919Y-784056D01*
X3557919Y-784056D02*
X3567443Y-774532D01*
X3748395Y-1003104D02*
X3634109Y-1003104D01*
X3691252Y-1003104D02*
X3691252Y-803104D01*
X3691252Y-803104D02*
X3672205Y-831675D01*
X3672205Y-831675D02*
X3653157Y-850723D01*
X3653157Y-850723D02*
X3634109Y-860247D01*
X3976967Y-993580D02*
X3996014Y-1003104D01*
X3996014Y-1003104D02*
X4034109Y-1003104D01*
X4034109Y-1003104D02*
X4053157Y-993580D01*
X4053157Y-993580D02*
X4062681Y-974532D01*
X4062681Y-974532D02*
X4062681Y-965008D01*
X4062681Y-965008D02*
X4053157Y-945961D01*
X4053157Y-945961D02*
X4034109Y-936437D01*
X4034109Y-936437D02*
X4005538Y-936437D01*
X4005538Y-936437D02*
X3986490Y-926913D01*
X3986490Y-926913D02*
X3976967Y-907866D01*
X3976967Y-907866D02*
X3976967Y-898342D01*
X3976967Y-898342D02*
X3986490Y-879294D01*
X3986490Y-879294D02*
X4005538Y-869770D01*
X4005538Y-869770D02*
X4034109Y-869770D01*
X4034109Y-869770D02*
X4053157Y-879294D01*
X4176967Y-1003104D02*
X4157919Y-993580D01*
X4157919Y-993580D02*
X4148395Y-974532D01*
X4148395Y-974532D02*
X4148395Y-803104D01*
X4281729Y-1003104D02*
X4262681Y-993580D01*
X4262681Y-993580D02*
X4253157Y-984056D01*
X4253157Y-984056D02*
X4243633Y-965008D01*
X4243633Y-965008D02*
X4243633Y-907866D01*
X4243633Y-907866D02*
X4253157Y-888818D01*
X4253157Y-888818D02*
X4262681Y-879294D01*
X4262681Y-879294D02*
X4281729Y-869770D01*
X4281729Y-869770D02*
X4310300Y-869770D01*
X4310300Y-869770D02*
X4329348Y-879294D01*
X4329348Y-879294D02*
X4338872Y-888818D01*
X4338872Y-888818D02*
X4348395Y-907866D01*
X4348395Y-907866D02*
X4348395Y-965008D01*
X4348395Y-965008D02*
X4338872Y-984056D01*
X4338872Y-984056D02*
X4329348Y-993580D01*
X4329348Y-993580D02*
X4310300Y-1003104D01*
X4310300Y-1003104D02*
X4281729Y-1003104D01*
X4405538Y-869770D02*
X4481729Y-869770D01*
X4434110Y-803104D02*
X4434110Y-974532D01*
X4434110Y-974532D02*
X4443633Y-993580D01*
X4443633Y-993580D02*
X4462681Y-1003104D01*
X4462681Y-1003104D02*
X4481729Y-1003104D01*
X4529348Y-1079294D02*
X4538872Y-1069770D01*
X4538872Y-1069770D02*
X4557919Y-1041199D01*
X4557919Y-1041199D02*
X4567443Y-1022151D01*
X4567443Y-1022151D02*
X4576967Y-993580D01*
X4576967Y-993580D02*
X4586491Y-945961D01*
X4586491Y-945961D02*
X4586491Y-907866D01*
X4586491Y-907866D02*
X4576967Y-860247D01*
X4576967Y-860247D02*
X4567443Y-831675D01*
X4567443Y-831675D02*
X4557919Y-812628D01*
X4557919Y-812628D02*
X4538872Y-784056D01*
X4538872Y-784056D02*
X4529348Y-774532D01*
D13*
X-32620Y-1150620D02*
X-32620Y-1200620D01*
X-57620Y-1175620D02*
X-7620Y-1175620D01*
D12*
X291252Y-1067104D02*
X310300Y-1067104D01*
X310300Y-1067104D02*
X329347Y-1076628D01*
X329347Y-1076628D02*
X338871Y-1086151D01*
X338871Y-1086151D02*
X348395Y-1105199D01*
X348395Y-1105199D02*
X357919Y-1143294D01*
X357919Y-1143294D02*
X357919Y-1190913D01*
X357919Y-1190913D02*
X348395Y-1229009D01*
X348395Y-1229009D02*
X338871Y-1248056D01*
X338871Y-1248056D02*
X329347Y-1257580D01*
X329347Y-1257580D02*
X310300Y-1267104D01*
X310300Y-1267104D02*
X291252Y-1267104D01*
X291252Y-1267104D02*
X272204Y-1257580D01*
X272204Y-1257580D02*
X262681Y-1248056D01*
X262681Y-1248056D02*
X253157Y-1229009D01*
X253157Y-1229009D02*
X243633Y-1190913D01*
X243633Y-1190913D02*
X243633Y-1143294D01*
X243633Y-1143294D02*
X253157Y-1105199D01*
X253157Y-1105199D02*
X262681Y-1086151D01*
X262681Y-1086151D02*
X272204Y-1076628D01*
X272204Y-1076628D02*
X291252Y-1067104D01*
X443633Y-1248056D02*
X453157Y-1257580D01*
X453157Y-1257580D02*
X443633Y-1267104D01*
X443633Y-1267104D02*
X434109Y-1257580D01*
X434109Y-1257580D02*
X443633Y-1248056D01*
X443633Y-1248056D02*
X443633Y-1267104D01*
X634109Y-1067104D02*
X538871Y-1067104D01*
X538871Y-1067104D02*
X529347Y-1162342D01*
X529347Y-1162342D02*
X538871Y-1152818D01*
X538871Y-1152818D02*
X557919Y-1143294D01*
X557919Y-1143294D02*
X605538Y-1143294D01*
X605538Y-1143294D02*
X624585Y-1152818D01*
X624585Y-1152818D02*
X634109Y-1162342D01*
X634109Y-1162342D02*
X643633Y-1181390D01*
X643633Y-1181390D02*
X643633Y-1229009D01*
X643633Y-1229009D02*
X634109Y-1248056D01*
X634109Y-1248056D02*
X624585Y-1257580D01*
X624585Y-1257580D02*
X605538Y-1267104D01*
X605538Y-1267104D02*
X557919Y-1267104D01*
X557919Y-1267104D02*
X538871Y-1257580D01*
X538871Y-1257580D02*
X529347Y-1248056D01*
X767442Y-1067104D02*
X786490Y-1067104D01*
X786490Y-1067104D02*
X805538Y-1076628D01*
X805538Y-1076628D02*
X815062Y-1086151D01*
X815062Y-1086151D02*
X824585Y-1105199D01*
X824585Y-1105199D02*
X834109Y-1143294D01*
X834109Y-1143294D02*
X834109Y-1190913D01*
X834109Y-1190913D02*
X824585Y-1229009D01*
X824585Y-1229009D02*
X815062Y-1248056D01*
X815062Y-1248056D02*
X805538Y-1257580D01*
X805538Y-1257580D02*
X786490Y-1267104D01*
X786490Y-1267104D02*
X767442Y-1267104D01*
X767442Y-1267104D02*
X748395Y-1257580D01*
X748395Y-1257580D02*
X738871Y-1248056D01*
X738871Y-1248056D02*
X729347Y-1229009D01*
X729347Y-1229009D02*
X719823Y-1190913D01*
X719823Y-1190913D02*
X719823Y-1143294D01*
X719823Y-1143294D02*
X729347Y-1105199D01*
X729347Y-1105199D02*
X738871Y-1086151D01*
X738871Y-1086151D02*
X748395Y-1076628D01*
X748395Y-1076628D02*
X767442Y-1067104D01*
X957919Y-1067104D02*
X976966Y-1067104D01*
X976966Y-1067104D02*
X996014Y-1076628D01*
X996014Y-1076628D02*
X1005538Y-1086151D01*
X1005538Y-1086151D02*
X1015062Y-1105199D01*
X1015062Y-1105199D02*
X1024585Y-1143294D01*
X1024585Y-1143294D02*
X1024585Y-1190913D01*
X1024585Y-1190913D02*
X1015062Y-1229009D01*
X1015062Y-1229009D02*
X1005538Y-1248056D01*
X1005538Y-1248056D02*
X996014Y-1257580D01*
X996014Y-1257580D02*
X976966Y-1267104D01*
X976966Y-1267104D02*
X957919Y-1267104D01*
X957919Y-1267104D02*
X938871Y-1257580D01*
X938871Y-1257580D02*
X929347Y-1248056D01*
X929347Y-1248056D02*
X919823Y-1229009D01*
X919823Y-1229009D02*
X910300Y-1190913D01*
X910300Y-1190913D02*
X910300Y-1143294D01*
X910300Y-1143294D02*
X919823Y-1105199D01*
X919823Y-1105199D02*
X929347Y-1086151D01*
X929347Y-1086151D02*
X938871Y-1076628D01*
X938871Y-1076628D02*
X957919Y-1067104D01*
X1110300Y-1267104D02*
X1110300Y-1133770D01*
X1110300Y-1152818D02*
X1119824Y-1143294D01*
X1119824Y-1143294D02*
X1138871Y-1133770D01*
X1138871Y-1133770D02*
X1167443Y-1133770D01*
X1167443Y-1133770D02*
X1186490Y-1143294D01*
X1186490Y-1143294D02*
X1196014Y-1162342D01*
X1196014Y-1162342D02*
X1196014Y-1267104D01*
X1196014Y-1162342D02*
X1205538Y-1143294D01*
X1205538Y-1143294D02*
X1224585Y-1133770D01*
X1224585Y-1133770D02*
X1253157Y-1133770D01*
X1253157Y-1133770D02*
X1272205Y-1143294D01*
X1272205Y-1143294D02*
X1281728Y-1162342D01*
X1281728Y-1162342D02*
X1281728Y-1267104D01*
X1376966Y-1267104D02*
X1376966Y-1133770D01*
X1376966Y-1152818D02*
X1386490Y-1143294D01*
X1386490Y-1143294D02*
X1405538Y-1133770D01*
X1405538Y-1133770D02*
X1434109Y-1133770D01*
X1434109Y-1133770D02*
X1453157Y-1143294D01*
X1453157Y-1143294D02*
X1462681Y-1162342D01*
X1462681Y-1162342D02*
X1462681Y-1267104D01*
X1462681Y-1162342D02*
X1472204Y-1143294D01*
X1472204Y-1143294D02*
X1491252Y-1133770D01*
X1491252Y-1133770D02*
X1519823Y-1133770D01*
X1519823Y-1133770D02*
X1538871Y-1143294D01*
X1538871Y-1143294D02*
X1548395Y-1162342D01*
X1548395Y-1162342D02*
X1548395Y-1267104D01*
X1938871Y-1057580D02*
X1767443Y-1314723D01*
X2196014Y-1067104D02*
X2215062Y-1067104D01*
X2215062Y-1067104D02*
X2234109Y-1076628D01*
X2234109Y-1076628D02*
X2243633Y-1086151D01*
X2243633Y-1086151D02*
X2253157Y-1105199D01*
X2253157Y-1105199D02*
X2262681Y-1143294D01*
X2262681Y-1143294D02*
X2262681Y-1190913D01*
X2262681Y-1190913D02*
X2253157Y-1229009D01*
X2253157Y-1229009D02*
X2243633Y-1248056D01*
X2243633Y-1248056D02*
X2234109Y-1257580D01*
X2234109Y-1257580D02*
X2215062Y-1267104D01*
X2215062Y-1267104D02*
X2196014Y-1267104D01*
X2196014Y-1267104D02*
X2176967Y-1257580D01*
X2176967Y-1257580D02*
X2167443Y-1248056D01*
X2167443Y-1248056D02*
X2157919Y-1229009D01*
X2157919Y-1229009D02*
X2148395Y-1190913D01*
X2148395Y-1190913D02*
X2148395Y-1143294D01*
X2148395Y-1143294D02*
X2157919Y-1105199D01*
X2157919Y-1105199D02*
X2167443Y-1086151D01*
X2167443Y-1086151D02*
X2176967Y-1076628D01*
X2176967Y-1076628D02*
X2196014Y-1067104D01*
X2348395Y-1248056D02*
X2357919Y-1257580D01*
X2357919Y-1257580D02*
X2348395Y-1267104D01*
X2348395Y-1267104D02*
X2338871Y-1257580D01*
X2338871Y-1257580D02*
X2348395Y-1248056D01*
X2348395Y-1248056D02*
X2348395Y-1267104D01*
X2481728Y-1067104D02*
X2500776Y-1067104D01*
X2500776Y-1067104D02*
X2519824Y-1076628D01*
X2519824Y-1076628D02*
X2529348Y-1086151D01*
X2529348Y-1086151D02*
X2538871Y-1105199D01*
X2538871Y-1105199D02*
X2548395Y-1143294D01*
X2548395Y-1143294D02*
X2548395Y-1190913D01*
X2548395Y-1190913D02*
X2538871Y-1229009D01*
X2538871Y-1229009D02*
X2529348Y-1248056D01*
X2529348Y-1248056D02*
X2519824Y-1257580D01*
X2519824Y-1257580D02*
X2500776Y-1267104D01*
X2500776Y-1267104D02*
X2481728Y-1267104D01*
X2481728Y-1267104D02*
X2462681Y-1257580D01*
X2462681Y-1257580D02*
X2453157Y-1248056D01*
X2453157Y-1248056D02*
X2443633Y-1229009D01*
X2443633Y-1229009D02*
X2434109Y-1190913D01*
X2434109Y-1190913D02*
X2434109Y-1143294D01*
X2434109Y-1143294D02*
X2443633Y-1105199D01*
X2443633Y-1105199D02*
X2453157Y-1086151D01*
X2453157Y-1086151D02*
X2462681Y-1076628D01*
X2462681Y-1076628D02*
X2481728Y-1067104D01*
X2738871Y-1267104D02*
X2624586Y-1267104D01*
X2681728Y-1267104D02*
X2681728Y-1067104D01*
X2681728Y-1067104D02*
X2662681Y-1095675D01*
X2662681Y-1095675D02*
X2643633Y-1114723D01*
X2643633Y-1114723D02*
X2624586Y-1124247D01*
X2834109Y-1267104D02*
X2872205Y-1267104D01*
X2872205Y-1267104D02*
X2891252Y-1257580D01*
X2891252Y-1257580D02*
X2900776Y-1248056D01*
X2900776Y-1248056D02*
X2919824Y-1219485D01*
X2919824Y-1219485D02*
X2929347Y-1181390D01*
X2929347Y-1181390D02*
X2929347Y-1105199D01*
X2929347Y-1105199D02*
X2919824Y-1086151D01*
X2919824Y-1086151D02*
X2910300Y-1076628D01*
X2910300Y-1076628D02*
X2891252Y-1067104D01*
X2891252Y-1067104D02*
X2853157Y-1067104D01*
X2853157Y-1067104D02*
X2834109Y-1076628D01*
X2834109Y-1076628D02*
X2824586Y-1086151D01*
X2824586Y-1086151D02*
X2815062Y-1105199D01*
X2815062Y-1105199D02*
X2815062Y-1152818D01*
X2815062Y-1152818D02*
X2824586Y-1171866D01*
X2824586Y-1171866D02*
X2834109Y-1181390D01*
X2834109Y-1181390D02*
X2853157Y-1190913D01*
X2853157Y-1190913D02*
X2891252Y-1190913D01*
X2891252Y-1190913D02*
X2910300Y-1181390D01*
X2910300Y-1181390D02*
X2919824Y-1171866D01*
X2919824Y-1171866D02*
X2929347Y-1152818D01*
X2996014Y-1067104D02*
X3129347Y-1067104D01*
X3129347Y-1067104D02*
X3043633Y-1267104D01*
X3196014Y-1067104D02*
X3196014Y-1105199D01*
X3272205Y-1067104D02*
X3272205Y-1105199D01*
X3567443Y-1343294D02*
X3557919Y-1333770D01*
X3557919Y-1333770D02*
X3538871Y-1305199D01*
X3538871Y-1305199D02*
X3529348Y-1286151D01*
X3529348Y-1286151D02*
X3519824Y-1257580D01*
X3519824Y-1257580D02*
X3510300Y-1209961D01*
X3510300Y-1209961D02*
X3510300Y-1171866D01*
X3510300Y-1171866D02*
X3519824Y-1124247D01*
X3519824Y-1124247D02*
X3529348Y-1095675D01*
X3529348Y-1095675D02*
X3538871Y-1076628D01*
X3538871Y-1076628D02*
X3557919Y-1048056D01*
X3557919Y-1048056D02*
X3567443Y-1038532D01*
X3653157Y-1267104D02*
X3691252Y-1267104D01*
X3691252Y-1267104D02*
X3710300Y-1257580D01*
X3710300Y-1257580D02*
X3719824Y-1248056D01*
X3719824Y-1248056D02*
X3738871Y-1219485D01*
X3738871Y-1219485D02*
X3748395Y-1181390D01*
X3748395Y-1181390D02*
X3748395Y-1105199D01*
X3748395Y-1105199D02*
X3738871Y-1086151D01*
X3738871Y-1086151D02*
X3729348Y-1076628D01*
X3729348Y-1076628D02*
X3710300Y-1067104D01*
X3710300Y-1067104D02*
X3672205Y-1067104D01*
X3672205Y-1067104D02*
X3653157Y-1076628D01*
X3653157Y-1076628D02*
X3643633Y-1086151D01*
X3643633Y-1086151D02*
X3634109Y-1105199D01*
X3634109Y-1105199D02*
X3634109Y-1152818D01*
X3634109Y-1152818D02*
X3643633Y-1171866D01*
X3643633Y-1171866D02*
X3653157Y-1181390D01*
X3653157Y-1181390D02*
X3672205Y-1190913D01*
X3672205Y-1190913D02*
X3710300Y-1190913D01*
X3710300Y-1190913D02*
X3729348Y-1181390D01*
X3729348Y-1181390D02*
X3738871Y-1171866D01*
X3738871Y-1171866D02*
X3748395Y-1152818D01*
X3986490Y-1267104D02*
X3986490Y-1067104D01*
X4072205Y-1267104D02*
X4072205Y-1162342D01*
X4072205Y-1162342D02*
X4062681Y-1143294D01*
X4062681Y-1143294D02*
X4043633Y-1133770D01*
X4043633Y-1133770D02*
X4015062Y-1133770D01*
X4015062Y-1133770D02*
X3996014Y-1143294D01*
X3996014Y-1143294D02*
X3986490Y-1152818D01*
X4196014Y-1267104D02*
X4176967Y-1257580D01*
X4176967Y-1257580D02*
X4167443Y-1248056D01*
X4167443Y-1248056D02*
X4157919Y-1229009D01*
X4157919Y-1229009D02*
X4157919Y-1171866D01*
X4157919Y-1171866D02*
X4167443Y-1152818D01*
X4167443Y-1152818D02*
X4176967Y-1143294D01*
X4176967Y-1143294D02*
X4196014Y-1133770D01*
X4196014Y-1133770D02*
X4224586Y-1133770D01*
X4224586Y-1133770D02*
X4243633Y-1143294D01*
X4243633Y-1143294D02*
X4253157Y-1152818D01*
X4253157Y-1152818D02*
X4262681Y-1171866D01*
X4262681Y-1171866D02*
X4262681Y-1229009D01*
X4262681Y-1229009D02*
X4253157Y-1248056D01*
X4253157Y-1248056D02*
X4243633Y-1257580D01*
X4243633Y-1257580D02*
X4224586Y-1267104D01*
X4224586Y-1267104D02*
X4196014Y-1267104D01*
X4376967Y-1267104D02*
X4357919Y-1257580D01*
X4357919Y-1257580D02*
X4348395Y-1238532D01*
X4348395Y-1238532D02*
X4348395Y-1067104D01*
X4529348Y-1257580D02*
X4510300Y-1267104D01*
X4510300Y-1267104D02*
X4472205Y-1267104D01*
X4472205Y-1267104D02*
X4453157Y-1257580D01*
X4453157Y-1257580D02*
X4443633Y-1238532D01*
X4443633Y-1238532D02*
X4443633Y-1162342D01*
X4443633Y-1162342D02*
X4453157Y-1143294D01*
X4453157Y-1143294D02*
X4472205Y-1133770D01*
X4472205Y-1133770D02*
X4510300Y-1133770D01*
X4510300Y-1133770D02*
X4529348Y-1143294D01*
X4529348Y-1143294D02*
X4538872Y-1162342D01*
X4538872Y-1162342D02*
X4538872Y-1181390D01*
X4538872Y-1181390D02*
X4443633Y-1200437D01*
X4615062Y-1257580D02*
X4634110Y-1267104D01*
X4634110Y-1267104D02*
X4672205Y-1267104D01*
X4672205Y-1267104D02*
X4691253Y-1257580D01*
X4691253Y-1257580D02*
X4700776Y-1238532D01*
X4700776Y-1238532D02*
X4700776Y-1229009D01*
X4700776Y-1229009D02*
X4691253Y-1209961D01*
X4691253Y-1209961D02*
X4672205Y-1200437D01*
X4672205Y-1200437D02*
X4643633Y-1200437D01*
X4643633Y-1200437D02*
X4624586Y-1190913D01*
X4624586Y-1190913D02*
X4615062Y-1171866D01*
X4615062Y-1171866D02*
X4615062Y-1162342D01*
X4615062Y-1162342D02*
X4624586Y-1143294D01*
X4624586Y-1143294D02*
X4643633Y-1133770D01*
X4643633Y-1133770D02*
X4672205Y-1133770D01*
X4672205Y-1133770D02*
X4691253Y-1143294D01*
X4938872Y-1190913D02*
X5091253Y-1190913D01*
X5015062Y-1267104D02*
X5015062Y-1114723D01*
X5319824Y-1067104D02*
X5443634Y-1067104D01*
X5443634Y-1067104D02*
X5376967Y-1143294D01*
X5376967Y-1143294D02*
X5405538Y-1143294D01*
X5405538Y-1143294D02*
X5424586Y-1152818D01*
X5424586Y-1152818D02*
X5434110Y-1162342D01*
X5434110Y-1162342D02*
X5443634Y-1181390D01*
X5443634Y-1181390D02*
X5443634Y-1229009D01*
X5443634Y-1229009D02*
X5434110Y-1248056D01*
X5434110Y-1248056D02*
X5424586Y-1257580D01*
X5424586Y-1257580D02*
X5405538Y-1267104D01*
X5405538Y-1267104D02*
X5348395Y-1267104D01*
X5348395Y-1267104D02*
X5329348Y-1257580D01*
X5329348Y-1257580D02*
X5319824Y-1248056D01*
X5672205Y-1257580D02*
X5691253Y-1267104D01*
X5691253Y-1267104D02*
X5729348Y-1267104D01*
X5729348Y-1267104D02*
X5748395Y-1257580D01*
X5748395Y-1257580D02*
X5757919Y-1238532D01*
X5757919Y-1238532D02*
X5757919Y-1229009D01*
X5757919Y-1229009D02*
X5748395Y-1209961D01*
X5748395Y-1209961D02*
X5729348Y-1200437D01*
X5729348Y-1200437D02*
X5700776Y-1200437D01*
X5700776Y-1200437D02*
X5681729Y-1190913D01*
X5681729Y-1190913D02*
X5672205Y-1171866D01*
X5672205Y-1171866D02*
X5672205Y-1162342D01*
X5672205Y-1162342D02*
X5681729Y-1143294D01*
X5681729Y-1143294D02*
X5700776Y-1133770D01*
X5700776Y-1133770D02*
X5729348Y-1133770D01*
X5729348Y-1133770D02*
X5748395Y-1143294D01*
X5872205Y-1267104D02*
X5853157Y-1257580D01*
X5853157Y-1257580D02*
X5843634Y-1238532D01*
X5843634Y-1238532D02*
X5843634Y-1067104D01*
X5976967Y-1267104D02*
X5957919Y-1257580D01*
X5957919Y-1257580D02*
X5948395Y-1248056D01*
X5948395Y-1248056D02*
X5938872Y-1229009D01*
X5938872Y-1229009D02*
X5938872Y-1171866D01*
X5938872Y-1171866D02*
X5948395Y-1152818D01*
X5948395Y-1152818D02*
X5957919Y-1143294D01*
X5957919Y-1143294D02*
X5976967Y-1133770D01*
X5976967Y-1133770D02*
X6005538Y-1133770D01*
X6005538Y-1133770D02*
X6024586Y-1143294D01*
X6024586Y-1143294D02*
X6034110Y-1152818D01*
X6034110Y-1152818D02*
X6043634Y-1171866D01*
X6043634Y-1171866D02*
X6043634Y-1229009D01*
X6043634Y-1229009D02*
X6034110Y-1248056D01*
X6034110Y-1248056D02*
X6024586Y-1257580D01*
X6024586Y-1257580D02*
X6005538Y-1267104D01*
X6005538Y-1267104D02*
X5976967Y-1267104D01*
X6100776Y-1133770D02*
X6176967Y-1133770D01*
X6129348Y-1067104D02*
X6129348Y-1238532D01*
X6129348Y-1238532D02*
X6138872Y-1257580D01*
X6138872Y-1257580D02*
X6157919Y-1267104D01*
X6157919Y-1267104D02*
X6176967Y-1267104D01*
X6234110Y-1257580D02*
X6253157Y-1267104D01*
X6253157Y-1267104D02*
X6291253Y-1267104D01*
X6291253Y-1267104D02*
X6310300Y-1257580D01*
X6310300Y-1257580D02*
X6319824Y-1238532D01*
X6319824Y-1238532D02*
X6319824Y-1229009D01*
X6319824Y-1229009D02*
X6310300Y-1209961D01*
X6310300Y-1209961D02*
X6291253Y-1200437D01*
X6291253Y-1200437D02*
X6262681Y-1200437D01*
X6262681Y-1200437D02*
X6243634Y-1190913D01*
X6243634Y-1190913D02*
X6234110Y-1171866D01*
X6234110Y-1171866D02*
X6234110Y-1162342D01*
X6234110Y-1162342D02*
X6243634Y-1143294D01*
X6243634Y-1143294D02*
X6262681Y-1133770D01*
X6262681Y-1133770D02*
X6291253Y-1133770D01*
X6291253Y-1133770D02*
X6310300Y-1143294D01*
X6386491Y-1343294D02*
X6396015Y-1333770D01*
X6396015Y-1333770D02*
X6415062Y-1305199D01*
X6415062Y-1305199D02*
X6424586Y-1286151D01*
X6424586Y-1286151D02*
X6434110Y-1257580D01*
X6434110Y-1257580D02*
X6443634Y-1209961D01*
X6443634Y-1209961D02*
X6443634Y-1171866D01*
X6443634Y-1171866D02*
X6434110Y-1124247D01*
X6434110Y-1124247D02*
X6424586Y-1095675D01*
X6424586Y-1095675D02*
X6415062Y-1076628D01*
X6415062Y-1076628D02*
X6396015Y-1048056D01*
X6396015Y-1048056D02*
X6386491Y-1038532D01*
D13*
X-22264Y-1474976D02*
X-22264Y-1404264D01*
X-92976Y-1404264D01*
X-92976Y-1474976D01*
X-22264Y-1474976D01*
D12*
X357919Y-1531104D02*
X243633Y-1531104D01*
X300776Y-1531104D02*
X300776Y-1331104D01*
X300776Y-1331104D02*
X281728Y-1359675D01*
X281728Y-1359675D02*
X262681Y-1378723D01*
X262681Y-1378723D02*
X243633Y-1388247D01*
X443633Y-1512056D02*
X453157Y-1521580D01*
X453157Y-1521580D02*
X443633Y-1531104D01*
X443633Y-1531104D02*
X434109Y-1521580D01*
X434109Y-1521580D02*
X443633Y-1512056D01*
X443633Y-1512056D02*
X443633Y-1531104D01*
X576966Y-1331104D02*
X596014Y-1331104D01*
X596014Y-1331104D02*
X615062Y-1340628D01*
X615062Y-1340628D02*
X624585Y-1350151D01*
X624585Y-1350151D02*
X634109Y-1369199D01*
X634109Y-1369199D02*
X643633Y-1407294D01*
X643633Y-1407294D02*
X643633Y-1454913D01*
X643633Y-1454913D02*
X634109Y-1493008D01*
X634109Y-1493008D02*
X624585Y-1512056D01*
X624585Y-1512056D02*
X615062Y-1521580D01*
X615062Y-1521580D02*
X596014Y-1531104D01*
X596014Y-1531104D02*
X576966Y-1531104D01*
X576966Y-1531104D02*
X557919Y-1521580D01*
X557919Y-1521580D02*
X548395Y-1512056D01*
X548395Y-1512056D02*
X538871Y-1493008D01*
X538871Y-1493008D02*
X529347Y-1454913D01*
X529347Y-1454913D02*
X529347Y-1407294D01*
X529347Y-1407294D02*
X538871Y-1369199D01*
X538871Y-1369199D02*
X548395Y-1350151D01*
X548395Y-1350151D02*
X557919Y-1340628D01*
X557919Y-1340628D02*
X576966Y-1331104D01*
X767442Y-1331104D02*
X786490Y-1331104D01*
X786490Y-1331104D02*
X805538Y-1340628D01*
X805538Y-1340628D02*
X815062Y-1350151D01*
X815062Y-1350151D02*
X824585Y-1369199D01*
X824585Y-1369199D02*
X834109Y-1407294D01*
X834109Y-1407294D02*
X834109Y-1454913D01*
X834109Y-1454913D02*
X824585Y-1493008D01*
X824585Y-1493008D02*
X815062Y-1512056D01*
X815062Y-1512056D02*
X805538Y-1521580D01*
X805538Y-1521580D02*
X786490Y-1531104D01*
X786490Y-1531104D02*
X767442Y-1531104D01*
X767442Y-1531104D02*
X748395Y-1521580D01*
X748395Y-1521580D02*
X738871Y-1512056D01*
X738871Y-1512056D02*
X729347Y-1493008D01*
X729347Y-1493008D02*
X719823Y-1454913D01*
X719823Y-1454913D02*
X719823Y-1407294D01*
X719823Y-1407294D02*
X729347Y-1369199D01*
X729347Y-1369199D02*
X738871Y-1350151D01*
X738871Y-1350151D02*
X748395Y-1340628D01*
X748395Y-1340628D02*
X767442Y-1331104D01*
X957919Y-1331104D02*
X976966Y-1331104D01*
X976966Y-1331104D02*
X996014Y-1340628D01*
X996014Y-1340628D02*
X1005538Y-1350151D01*
X1005538Y-1350151D02*
X1015062Y-1369199D01*
X1015062Y-1369199D02*
X1024585Y-1407294D01*
X1024585Y-1407294D02*
X1024585Y-1454913D01*
X1024585Y-1454913D02*
X1015062Y-1493008D01*
X1015062Y-1493008D02*
X1005538Y-1512056D01*
X1005538Y-1512056D02*
X996014Y-1521580D01*
X996014Y-1521580D02*
X976966Y-1531104D01*
X976966Y-1531104D02*
X957919Y-1531104D01*
X957919Y-1531104D02*
X938871Y-1521580D01*
X938871Y-1521580D02*
X929347Y-1512056D01*
X929347Y-1512056D02*
X919823Y-1493008D01*
X919823Y-1493008D02*
X910300Y-1454913D01*
X910300Y-1454913D02*
X910300Y-1407294D01*
X910300Y-1407294D02*
X919823Y-1369199D01*
X919823Y-1369199D02*
X929347Y-1350151D01*
X929347Y-1350151D02*
X938871Y-1340628D01*
X938871Y-1340628D02*
X957919Y-1331104D01*
X1110300Y-1531104D02*
X1110300Y-1397770D01*
X1110300Y-1416818D02*
X1119824Y-1407294D01*
X1119824Y-1407294D02*
X1138871Y-1397770D01*
X1138871Y-1397770D02*
X1167443Y-1397770D01*
X1167443Y-1397770D02*
X1186490Y-1407294D01*
X1186490Y-1407294D02*
X1196014Y-1426342D01*
X1196014Y-1426342D02*
X1196014Y-1531104D01*
X1196014Y-1426342D02*
X1205538Y-1407294D01*
X1205538Y-1407294D02*
X1224585Y-1397770D01*
X1224585Y-1397770D02*
X1253157Y-1397770D01*
X1253157Y-1397770D02*
X1272205Y-1407294D01*
X1272205Y-1407294D02*
X1281728Y-1426342D01*
X1281728Y-1426342D02*
X1281728Y-1531104D01*
X1376966Y-1531104D02*
X1376966Y-1397770D01*
X1376966Y-1416818D02*
X1386490Y-1407294D01*
X1386490Y-1407294D02*
X1405538Y-1397770D01*
X1405538Y-1397770D02*
X1434109Y-1397770D01*
X1434109Y-1397770D02*
X1453157Y-1407294D01*
X1453157Y-1407294D02*
X1462681Y-1426342D01*
X1462681Y-1426342D02*
X1462681Y-1531104D01*
X1462681Y-1426342D02*
X1472204Y-1407294D01*
X1472204Y-1407294D02*
X1491252Y-1397770D01*
X1491252Y-1397770D02*
X1519823Y-1397770D01*
X1519823Y-1397770D02*
X1538871Y-1407294D01*
X1538871Y-1407294D02*
X1548395Y-1426342D01*
X1548395Y-1426342D02*
X1548395Y-1531104D01*
X1938871Y-1321580D02*
X1767443Y-1578723D01*
X2196014Y-1331104D02*
X2215062Y-1331104D01*
X2215062Y-1331104D02*
X2234109Y-1340628D01*
X2234109Y-1340628D02*
X2243633Y-1350151D01*
X2243633Y-1350151D02*
X2253157Y-1369199D01*
X2253157Y-1369199D02*
X2262681Y-1407294D01*
X2262681Y-1407294D02*
X2262681Y-1454913D01*
X2262681Y-1454913D02*
X2253157Y-1493008D01*
X2253157Y-1493008D02*
X2243633Y-1512056D01*
X2243633Y-1512056D02*
X2234109Y-1521580D01*
X2234109Y-1521580D02*
X2215062Y-1531104D01*
X2215062Y-1531104D02*
X2196014Y-1531104D01*
X2196014Y-1531104D02*
X2176967Y-1521580D01*
X2176967Y-1521580D02*
X2167443Y-1512056D01*
X2167443Y-1512056D02*
X2157919Y-1493008D01*
X2157919Y-1493008D02*
X2148395Y-1454913D01*
X2148395Y-1454913D02*
X2148395Y-1407294D01*
X2148395Y-1407294D02*
X2157919Y-1369199D01*
X2157919Y-1369199D02*
X2167443Y-1350151D01*
X2167443Y-1350151D02*
X2176967Y-1340628D01*
X2176967Y-1340628D02*
X2196014Y-1331104D01*
X2348395Y-1512056D02*
X2357919Y-1521580D01*
X2357919Y-1521580D02*
X2348395Y-1531104D01*
X2348395Y-1531104D02*
X2338871Y-1521580D01*
X2338871Y-1521580D02*
X2348395Y-1512056D01*
X2348395Y-1512056D02*
X2348395Y-1531104D01*
X2481728Y-1331104D02*
X2500776Y-1331104D01*
X2500776Y-1331104D02*
X2519824Y-1340628D01*
X2519824Y-1340628D02*
X2529348Y-1350151D01*
X2529348Y-1350151D02*
X2538871Y-1369199D01*
X2538871Y-1369199D02*
X2548395Y-1407294D01*
X2548395Y-1407294D02*
X2548395Y-1454913D01*
X2548395Y-1454913D02*
X2538871Y-1493008D01*
X2538871Y-1493008D02*
X2529348Y-1512056D01*
X2529348Y-1512056D02*
X2519824Y-1521580D01*
X2519824Y-1521580D02*
X2500776Y-1531104D01*
X2500776Y-1531104D02*
X2481728Y-1531104D01*
X2481728Y-1531104D02*
X2462681Y-1521580D01*
X2462681Y-1521580D02*
X2453157Y-1512056D01*
X2453157Y-1512056D02*
X2443633Y-1493008D01*
X2443633Y-1493008D02*
X2434109Y-1454913D01*
X2434109Y-1454913D02*
X2434109Y-1407294D01*
X2434109Y-1407294D02*
X2443633Y-1369199D01*
X2443633Y-1369199D02*
X2453157Y-1350151D01*
X2453157Y-1350151D02*
X2462681Y-1340628D01*
X2462681Y-1340628D02*
X2481728Y-1331104D01*
X2615062Y-1331104D02*
X2738871Y-1331104D01*
X2738871Y-1331104D02*
X2672205Y-1407294D01*
X2672205Y-1407294D02*
X2700776Y-1407294D01*
X2700776Y-1407294D02*
X2719824Y-1416818D01*
X2719824Y-1416818D02*
X2729348Y-1426342D01*
X2729348Y-1426342D02*
X2738871Y-1445389D01*
X2738871Y-1445389D02*
X2738871Y-1493008D01*
X2738871Y-1493008D02*
X2729348Y-1512056D01*
X2729348Y-1512056D02*
X2719824Y-1521580D01*
X2719824Y-1521580D02*
X2700776Y-1531104D01*
X2700776Y-1531104D02*
X2643633Y-1531104D01*
X2643633Y-1531104D02*
X2624586Y-1521580D01*
X2624586Y-1521580D02*
X2615062Y-1512056D01*
X2834109Y-1531104D02*
X2872205Y-1531104D01*
X2872205Y-1531104D02*
X2891252Y-1521580D01*
X2891252Y-1521580D02*
X2900776Y-1512056D01*
X2900776Y-1512056D02*
X2919824Y-1483485D01*
X2919824Y-1483485D02*
X2929347Y-1445389D01*
X2929347Y-1445389D02*
X2929347Y-1369199D01*
X2929347Y-1369199D02*
X2919824Y-1350151D01*
X2919824Y-1350151D02*
X2910300Y-1340628D01*
X2910300Y-1340628D02*
X2891252Y-1331104D01*
X2891252Y-1331104D02*
X2853157Y-1331104D01*
X2853157Y-1331104D02*
X2834109Y-1340628D01*
X2834109Y-1340628D02*
X2824586Y-1350151D01*
X2824586Y-1350151D02*
X2815062Y-1369199D01*
X2815062Y-1369199D02*
X2815062Y-1416818D01*
X2815062Y-1416818D02*
X2824586Y-1435866D01*
X2824586Y-1435866D02*
X2834109Y-1445389D01*
X2834109Y-1445389D02*
X2853157Y-1454913D01*
X2853157Y-1454913D02*
X2891252Y-1454913D01*
X2891252Y-1454913D02*
X2910300Y-1445389D01*
X2910300Y-1445389D02*
X2919824Y-1435866D01*
X2919824Y-1435866D02*
X2929347Y-1416818D01*
X3100776Y-1397770D02*
X3100776Y-1531104D01*
X3053157Y-1321580D02*
X3005538Y-1464437D01*
X3005538Y-1464437D02*
X3129347Y-1464437D01*
X3196014Y-1331104D02*
X3196014Y-1369199D01*
X3272205Y-1331104D02*
X3272205Y-1369199D01*
X3567443Y-1607294D02*
X3557919Y-1597770D01*
X3557919Y-1597770D02*
X3538871Y-1569199D01*
X3538871Y-1569199D02*
X3529348Y-1550151D01*
X3529348Y-1550151D02*
X3519824Y-1521580D01*
X3519824Y-1521580D02*
X3510300Y-1473961D01*
X3510300Y-1473961D02*
X3510300Y-1435866D01*
X3510300Y-1435866D02*
X3519824Y-1388247D01*
X3519824Y-1388247D02*
X3529348Y-1359675D01*
X3529348Y-1359675D02*
X3538871Y-1340628D01*
X3538871Y-1340628D02*
X3557919Y-1312056D01*
X3557919Y-1312056D02*
X3567443Y-1302532D01*
X3624586Y-1331104D02*
X3748395Y-1331104D01*
X3748395Y-1331104D02*
X3681728Y-1407294D01*
X3681728Y-1407294D02*
X3710300Y-1407294D01*
X3710300Y-1407294D02*
X3729348Y-1416818D01*
X3729348Y-1416818D02*
X3738871Y-1426342D01*
X3738871Y-1426342D02*
X3748395Y-1445389D01*
X3748395Y-1445389D02*
X3748395Y-1493008D01*
X3748395Y-1493008D02*
X3738871Y-1512056D01*
X3738871Y-1512056D02*
X3729348Y-1521580D01*
X3729348Y-1521580D02*
X3710300Y-1531104D01*
X3710300Y-1531104D02*
X3653157Y-1531104D01*
X3653157Y-1531104D02*
X3634109Y-1521580D01*
X3634109Y-1521580D02*
X3624586Y-1512056D01*
X3824586Y-1350151D02*
X3834109Y-1340628D01*
X3834109Y-1340628D02*
X3853157Y-1331104D01*
X3853157Y-1331104D02*
X3900776Y-1331104D01*
X3900776Y-1331104D02*
X3919824Y-1340628D01*
X3919824Y-1340628D02*
X3929348Y-1350151D01*
X3929348Y-1350151D02*
X3938871Y-1369199D01*
X3938871Y-1369199D02*
X3938871Y-1388247D01*
X3938871Y-1388247D02*
X3929348Y-1416818D01*
X3929348Y-1416818D02*
X3815062Y-1531104D01*
X3815062Y-1531104D02*
X3938871Y-1531104D01*
X4176967Y-1531104D02*
X4176967Y-1331104D01*
X4262681Y-1531104D02*
X4262681Y-1426342D01*
X4262681Y-1426342D02*
X4253157Y-1407294D01*
X4253157Y-1407294D02*
X4234110Y-1397770D01*
X4234110Y-1397770D02*
X4205538Y-1397770D01*
X4205538Y-1397770D02*
X4186490Y-1407294D01*
X4186490Y-1407294D02*
X4176967Y-1416818D01*
X4386491Y-1531104D02*
X4367443Y-1521580D01*
X4367443Y-1521580D02*
X4357919Y-1512056D01*
X4357919Y-1512056D02*
X4348395Y-1493008D01*
X4348395Y-1493008D02*
X4348395Y-1435866D01*
X4348395Y-1435866D02*
X4357919Y-1416818D01*
X4357919Y-1416818D02*
X4367443Y-1407294D01*
X4367443Y-1407294D02*
X4386491Y-1397770D01*
X4386491Y-1397770D02*
X4415062Y-1397770D01*
X4415062Y-1397770D02*
X4434110Y-1407294D01*
X4434110Y-1407294D02*
X4443633Y-1416818D01*
X4443633Y-1416818D02*
X4453157Y-1435866D01*
X4453157Y-1435866D02*
X4453157Y-1493008D01*
X4453157Y-1493008D02*
X4443633Y-1512056D01*
X4443633Y-1512056D02*
X4434110Y-1521580D01*
X4434110Y-1521580D02*
X4415062Y-1531104D01*
X4415062Y-1531104D02*
X4386491Y-1531104D01*
X4567443Y-1531104D02*
X4548395Y-1521580D01*
X4548395Y-1521580D02*
X4538872Y-1502532D01*
X4538872Y-1502532D02*
X4538872Y-1331104D01*
X4719824Y-1521580D02*
X4700776Y-1531104D01*
X4700776Y-1531104D02*
X4662681Y-1531104D01*
X4662681Y-1531104D02*
X4643633Y-1521580D01*
X4643633Y-1521580D02*
X4634110Y-1502532D01*
X4634110Y-1502532D02*
X4634110Y-1426342D01*
X4634110Y-1426342D02*
X4643633Y-1407294D01*
X4643633Y-1407294D02*
X4662681Y-1397770D01*
X4662681Y-1397770D02*
X4700776Y-1397770D01*
X4700776Y-1397770D02*
X4719824Y-1407294D01*
X4719824Y-1407294D02*
X4729348Y-1426342D01*
X4729348Y-1426342D02*
X4729348Y-1445389D01*
X4729348Y-1445389D02*
X4634110Y-1464437D01*
X4805538Y-1521580D02*
X4824586Y-1531104D01*
X4824586Y-1531104D02*
X4862681Y-1531104D01*
X4862681Y-1531104D02*
X4881729Y-1521580D01*
X4881729Y-1521580D02*
X4891253Y-1502532D01*
X4891253Y-1502532D02*
X4891253Y-1493008D01*
X4891253Y-1493008D02*
X4881729Y-1473961D01*
X4881729Y-1473961D02*
X4862681Y-1464437D01*
X4862681Y-1464437D02*
X4834110Y-1464437D01*
X4834110Y-1464437D02*
X4815062Y-1454913D01*
X4815062Y-1454913D02*
X4805538Y-1435866D01*
X4805538Y-1435866D02*
X4805538Y-1426342D01*
X4805538Y-1426342D02*
X4815062Y-1407294D01*
X4815062Y-1407294D02*
X4834110Y-1397770D01*
X4834110Y-1397770D02*
X4862681Y-1397770D01*
X4862681Y-1397770D02*
X4881729Y-1407294D01*
X4957919Y-1607294D02*
X4967443Y-1597770D01*
X4967443Y-1597770D02*
X4986491Y-1569199D01*
X4986491Y-1569199D02*
X4996014Y-1550151D01*
X4996014Y-1550151D02*
X5005538Y-1521580D01*
X5005538Y-1521580D02*
X5015062Y-1473961D01*
X5015062Y-1473961D02*
X5015062Y-1435866D01*
X5015062Y-1435866D02*
X5005538Y-1388247D01*
X5005538Y-1388247D02*
X4996014Y-1359675D01*
X4996014Y-1359675D02*
X4986491Y-1340628D01*
X4986491Y-1340628D02*
X4967443Y-1312056D01*
X4967443Y-1312056D02*
X4957919Y-1302532D01*
D14*
X-78740Y-1774740D02*
X-7620Y-1703620D01*
X-78740Y-1632500D01*
X-149860Y-1703620D01*
X-78740Y-1774740D01*
D12*
X357919Y-1795104D02*
X243633Y-1795104D01*
X300776Y-1795104D02*
X300776Y-1595104D01*
X300776Y-1595104D02*
X281728Y-1623675D01*
X281728Y-1623675D02*
X262681Y-1642723D01*
X262681Y-1642723D02*
X243633Y-1652247D01*
X443633Y-1776056D02*
X453157Y-1785580D01*
X453157Y-1785580D02*
X443633Y-1795104D01*
X443633Y-1795104D02*
X434109Y-1785580D01*
X434109Y-1785580D02*
X443633Y-1776056D01*
X443633Y-1776056D02*
X443633Y-1795104D01*
X624585Y-1661770D02*
X624585Y-1795104D01*
X576966Y-1585580D02*
X529347Y-1728437D01*
X529347Y-1728437D02*
X653157Y-1728437D01*
X719823Y-1614151D02*
X729347Y-1604628D01*
X729347Y-1604628D02*
X748395Y-1595104D01*
X748395Y-1595104D02*
X796014Y-1595104D01*
X796014Y-1595104D02*
X815062Y-1604628D01*
X815062Y-1604628D02*
X824585Y-1614151D01*
X824585Y-1614151D02*
X834109Y-1633199D01*
X834109Y-1633199D02*
X834109Y-1652247D01*
X834109Y-1652247D02*
X824585Y-1680818D01*
X824585Y-1680818D02*
X710300Y-1795104D01*
X710300Y-1795104D02*
X834109Y-1795104D01*
X910300Y-1614151D02*
X919823Y-1604628D01*
X919823Y-1604628D02*
X938871Y-1595104D01*
X938871Y-1595104D02*
X986490Y-1595104D01*
X986490Y-1595104D02*
X1005538Y-1604628D01*
X1005538Y-1604628D02*
X1015062Y-1614151D01*
X1015062Y-1614151D02*
X1024585Y-1633199D01*
X1024585Y-1633199D02*
X1024585Y-1652247D01*
X1024585Y-1652247D02*
X1015062Y-1680818D01*
X1015062Y-1680818D02*
X900776Y-1795104D01*
X900776Y-1795104D02*
X1024585Y-1795104D01*
X1110300Y-1795104D02*
X1110300Y-1661770D01*
X1110300Y-1680818D02*
X1119824Y-1671294D01*
X1119824Y-1671294D02*
X1138871Y-1661770D01*
X1138871Y-1661770D02*
X1167443Y-1661770D01*
X1167443Y-1661770D02*
X1186490Y-1671294D01*
X1186490Y-1671294D02*
X1196014Y-1690342D01*
X1196014Y-1690342D02*
X1196014Y-1795104D01*
X1196014Y-1690342D02*
X1205538Y-1671294D01*
X1205538Y-1671294D02*
X1224585Y-1661770D01*
X1224585Y-1661770D02*
X1253157Y-1661770D01*
X1253157Y-1661770D02*
X1272205Y-1671294D01*
X1272205Y-1671294D02*
X1281728Y-1690342D01*
X1281728Y-1690342D02*
X1281728Y-1795104D01*
X1376966Y-1795104D02*
X1376966Y-1661770D01*
X1376966Y-1680818D02*
X1386490Y-1671294D01*
X1386490Y-1671294D02*
X1405538Y-1661770D01*
X1405538Y-1661770D02*
X1434109Y-1661770D01*
X1434109Y-1661770D02*
X1453157Y-1671294D01*
X1453157Y-1671294D02*
X1462681Y-1690342D01*
X1462681Y-1690342D02*
X1462681Y-1795104D01*
X1462681Y-1690342D02*
X1472204Y-1671294D01*
X1472204Y-1671294D02*
X1491252Y-1661770D01*
X1491252Y-1661770D02*
X1519823Y-1661770D01*
X1519823Y-1661770D02*
X1538871Y-1671294D01*
X1538871Y-1671294D02*
X1548395Y-1690342D01*
X1548395Y-1690342D02*
X1548395Y-1795104D01*
X1938871Y-1585580D02*
X1767443Y-1842723D01*
X2196014Y-1595104D02*
X2215062Y-1595104D01*
X2215062Y-1595104D02*
X2234109Y-1604628D01*
X2234109Y-1604628D02*
X2243633Y-1614151D01*
X2243633Y-1614151D02*
X2253157Y-1633199D01*
X2253157Y-1633199D02*
X2262681Y-1671294D01*
X2262681Y-1671294D02*
X2262681Y-1718913D01*
X2262681Y-1718913D02*
X2253157Y-1757008D01*
X2253157Y-1757008D02*
X2243633Y-1776056D01*
X2243633Y-1776056D02*
X2234109Y-1785580D01*
X2234109Y-1785580D02*
X2215062Y-1795104D01*
X2215062Y-1795104D02*
X2196014Y-1795104D01*
X2196014Y-1795104D02*
X2176967Y-1785580D01*
X2176967Y-1785580D02*
X2167443Y-1776056D01*
X2167443Y-1776056D02*
X2157919Y-1757008D01*
X2157919Y-1757008D02*
X2148395Y-1718913D01*
X2148395Y-1718913D02*
X2148395Y-1671294D01*
X2148395Y-1671294D02*
X2157919Y-1633199D01*
X2157919Y-1633199D02*
X2167443Y-1614151D01*
X2167443Y-1614151D02*
X2176967Y-1604628D01*
X2176967Y-1604628D02*
X2196014Y-1595104D01*
X2348395Y-1776056D02*
X2357919Y-1785580D01*
X2357919Y-1785580D02*
X2348395Y-1795104D01*
X2348395Y-1795104D02*
X2338871Y-1785580D01*
X2338871Y-1785580D02*
X2348395Y-1776056D01*
X2348395Y-1776056D02*
X2348395Y-1795104D01*
X2481728Y-1595104D02*
X2500776Y-1595104D01*
X2500776Y-1595104D02*
X2519824Y-1604628D01*
X2519824Y-1604628D02*
X2529348Y-1614151D01*
X2529348Y-1614151D02*
X2538871Y-1633199D01*
X2538871Y-1633199D02*
X2548395Y-1671294D01*
X2548395Y-1671294D02*
X2548395Y-1718913D01*
X2548395Y-1718913D02*
X2538871Y-1757008D01*
X2538871Y-1757008D02*
X2529348Y-1776056D01*
X2529348Y-1776056D02*
X2519824Y-1785580D01*
X2519824Y-1785580D02*
X2500776Y-1795104D01*
X2500776Y-1795104D02*
X2481728Y-1795104D01*
X2481728Y-1795104D02*
X2462681Y-1785580D01*
X2462681Y-1785580D02*
X2453157Y-1776056D01*
X2453157Y-1776056D02*
X2443633Y-1757008D01*
X2443633Y-1757008D02*
X2434109Y-1718913D01*
X2434109Y-1718913D02*
X2434109Y-1671294D01*
X2434109Y-1671294D02*
X2443633Y-1633199D01*
X2443633Y-1633199D02*
X2453157Y-1614151D01*
X2453157Y-1614151D02*
X2462681Y-1604628D01*
X2462681Y-1604628D02*
X2481728Y-1595104D01*
X2729348Y-1595104D02*
X2634109Y-1595104D01*
X2634109Y-1595104D02*
X2624586Y-1690342D01*
X2624586Y-1690342D02*
X2634109Y-1680818D01*
X2634109Y-1680818D02*
X2653157Y-1671294D01*
X2653157Y-1671294D02*
X2700776Y-1671294D01*
X2700776Y-1671294D02*
X2719824Y-1680818D01*
X2719824Y-1680818D02*
X2729348Y-1690342D01*
X2729348Y-1690342D02*
X2738871Y-1709389D01*
X2738871Y-1709389D02*
X2738871Y-1757008D01*
X2738871Y-1757008D02*
X2729348Y-1776056D01*
X2729348Y-1776056D02*
X2719824Y-1785580D01*
X2719824Y-1785580D02*
X2700776Y-1795104D01*
X2700776Y-1795104D02*
X2653157Y-1795104D01*
X2653157Y-1795104D02*
X2634109Y-1785580D01*
X2634109Y-1785580D02*
X2624586Y-1776056D01*
X2910300Y-1595104D02*
X2872205Y-1595104D01*
X2872205Y-1595104D02*
X2853157Y-1604628D01*
X2853157Y-1604628D02*
X2843633Y-1614151D01*
X2843633Y-1614151D02*
X2824586Y-1642723D01*
X2824586Y-1642723D02*
X2815062Y-1680818D01*
X2815062Y-1680818D02*
X2815062Y-1757008D01*
X2815062Y-1757008D02*
X2824586Y-1776056D01*
X2824586Y-1776056D02*
X2834109Y-1785580D01*
X2834109Y-1785580D02*
X2853157Y-1795104D01*
X2853157Y-1795104D02*
X2891252Y-1795104D01*
X2891252Y-1795104D02*
X2910300Y-1785580D01*
X2910300Y-1785580D02*
X2919824Y-1776056D01*
X2919824Y-1776056D02*
X2929347Y-1757008D01*
X2929347Y-1757008D02*
X2929347Y-1709389D01*
X2929347Y-1709389D02*
X2919824Y-1690342D01*
X2919824Y-1690342D02*
X2910300Y-1680818D01*
X2910300Y-1680818D02*
X2891252Y-1671294D01*
X2891252Y-1671294D02*
X2853157Y-1671294D01*
X2853157Y-1671294D02*
X2834109Y-1680818D01*
X2834109Y-1680818D02*
X2824586Y-1690342D01*
X2824586Y-1690342D02*
X2815062Y-1709389D01*
X3053157Y-1595104D02*
X3072205Y-1595104D01*
X3072205Y-1595104D02*
X3091252Y-1604628D01*
X3091252Y-1604628D02*
X3100776Y-1614151D01*
X3100776Y-1614151D02*
X3110300Y-1633199D01*
X3110300Y-1633199D02*
X3119824Y-1671294D01*
X3119824Y-1671294D02*
X3119824Y-1718913D01*
X3119824Y-1718913D02*
X3110300Y-1757008D01*
X3110300Y-1757008D02*
X3100776Y-1776056D01*
X3100776Y-1776056D02*
X3091252Y-1785580D01*
X3091252Y-1785580D02*
X3072205Y-1795104D01*
X3072205Y-1795104D02*
X3053157Y-1795104D01*
X3053157Y-1795104D02*
X3034109Y-1785580D01*
X3034109Y-1785580D02*
X3024586Y-1776056D01*
X3024586Y-1776056D02*
X3015062Y-1757008D01*
X3015062Y-1757008D02*
X3005538Y-1718913D01*
X3005538Y-1718913D02*
X3005538Y-1671294D01*
X3005538Y-1671294D02*
X3015062Y-1633199D01*
X3015062Y-1633199D02*
X3024586Y-1614151D01*
X3024586Y-1614151D02*
X3034109Y-1604628D01*
X3034109Y-1604628D02*
X3053157Y-1595104D01*
X3196014Y-1595104D02*
X3196014Y-1633199D01*
X3272205Y-1595104D02*
X3272205Y-1633199D01*
X3567443Y-1871294D02*
X3557919Y-1861770D01*
X3557919Y-1861770D02*
X3538871Y-1833199D01*
X3538871Y-1833199D02*
X3529348Y-1814151D01*
X3529348Y-1814151D02*
X3519824Y-1785580D01*
X3519824Y-1785580D02*
X3510300Y-1737961D01*
X3510300Y-1737961D02*
X3510300Y-1699866D01*
X3510300Y-1699866D02*
X3519824Y-1652247D01*
X3519824Y-1652247D02*
X3529348Y-1623675D01*
X3529348Y-1623675D02*
X3538871Y-1604628D01*
X3538871Y-1604628D02*
X3557919Y-1576056D01*
X3557919Y-1576056D02*
X3567443Y-1566532D01*
X3738871Y-1595104D02*
X3643633Y-1595104D01*
X3643633Y-1595104D02*
X3634109Y-1690342D01*
X3634109Y-1690342D02*
X3643633Y-1680818D01*
X3643633Y-1680818D02*
X3662681Y-1671294D01*
X3662681Y-1671294D02*
X3710300Y-1671294D01*
X3710300Y-1671294D02*
X3729348Y-1680818D01*
X3729348Y-1680818D02*
X3738871Y-1690342D01*
X3738871Y-1690342D02*
X3748395Y-1709389D01*
X3748395Y-1709389D02*
X3748395Y-1757008D01*
X3748395Y-1757008D02*
X3738871Y-1776056D01*
X3738871Y-1776056D02*
X3729348Y-1785580D01*
X3729348Y-1785580D02*
X3710300Y-1795104D01*
X3710300Y-1795104D02*
X3662681Y-1795104D01*
X3662681Y-1795104D02*
X3643633Y-1785580D01*
X3643633Y-1785580D02*
X3634109Y-1776056D01*
X3986490Y-1795104D02*
X3986490Y-1595104D01*
X4072205Y-1795104D02*
X4072205Y-1690342D01*
X4072205Y-1690342D02*
X4062681Y-1671294D01*
X4062681Y-1671294D02*
X4043633Y-1661770D01*
X4043633Y-1661770D02*
X4015062Y-1661770D01*
X4015062Y-1661770D02*
X3996014Y-1671294D01*
X3996014Y-1671294D02*
X3986490Y-1680818D01*
X4196014Y-1795104D02*
X4176967Y-1785580D01*
X4176967Y-1785580D02*
X4167443Y-1776056D01*
X4167443Y-1776056D02*
X4157919Y-1757008D01*
X4157919Y-1757008D02*
X4157919Y-1699866D01*
X4157919Y-1699866D02*
X4167443Y-1680818D01*
X4167443Y-1680818D02*
X4176967Y-1671294D01*
X4176967Y-1671294D02*
X4196014Y-1661770D01*
X4196014Y-1661770D02*
X4224586Y-1661770D01*
X4224586Y-1661770D02*
X4243633Y-1671294D01*
X4243633Y-1671294D02*
X4253157Y-1680818D01*
X4253157Y-1680818D02*
X4262681Y-1699866D01*
X4262681Y-1699866D02*
X4262681Y-1757008D01*
X4262681Y-1757008D02*
X4253157Y-1776056D01*
X4253157Y-1776056D02*
X4243633Y-1785580D01*
X4243633Y-1785580D02*
X4224586Y-1795104D01*
X4224586Y-1795104D02*
X4196014Y-1795104D01*
X4376967Y-1795104D02*
X4357919Y-1785580D01*
X4357919Y-1785580D02*
X4348395Y-1766532D01*
X4348395Y-1766532D02*
X4348395Y-1595104D01*
X4529348Y-1785580D02*
X4510300Y-1795104D01*
X4510300Y-1795104D02*
X4472205Y-1795104D01*
X4472205Y-1795104D02*
X4453157Y-1785580D01*
X4453157Y-1785580D02*
X4443633Y-1766532D01*
X4443633Y-1766532D02*
X4443633Y-1690342D01*
X4443633Y-1690342D02*
X4453157Y-1671294D01*
X4453157Y-1671294D02*
X4472205Y-1661770D01*
X4472205Y-1661770D02*
X4510300Y-1661770D01*
X4510300Y-1661770D02*
X4529348Y-1671294D01*
X4529348Y-1671294D02*
X4538872Y-1690342D01*
X4538872Y-1690342D02*
X4538872Y-1709389D01*
X4538872Y-1709389D02*
X4443633Y-1728437D01*
X4615062Y-1785580D02*
X4634110Y-1795104D01*
X4634110Y-1795104D02*
X4672205Y-1795104D01*
X4672205Y-1795104D02*
X4691253Y-1785580D01*
X4691253Y-1785580D02*
X4700776Y-1766532D01*
X4700776Y-1766532D02*
X4700776Y-1757008D01*
X4700776Y-1757008D02*
X4691253Y-1737961D01*
X4691253Y-1737961D02*
X4672205Y-1728437D01*
X4672205Y-1728437D02*
X4643633Y-1728437D01*
X4643633Y-1728437D02*
X4624586Y-1718913D01*
X4624586Y-1718913D02*
X4615062Y-1699866D01*
X4615062Y-1699866D02*
X4615062Y-1690342D01*
X4615062Y-1690342D02*
X4624586Y-1671294D01*
X4624586Y-1671294D02*
X4643633Y-1661770D01*
X4643633Y-1661770D02*
X4672205Y-1661770D01*
X4672205Y-1661770D02*
X4691253Y-1671294D01*
X4767443Y-1871294D02*
X4776967Y-1861770D01*
X4776967Y-1861770D02*
X4796014Y-1833199D01*
X4796014Y-1833199D02*
X4805538Y-1814151D01*
X4805538Y-1814151D02*
X4815062Y-1785580D01*
X4815062Y-1785580D02*
X4824586Y-1737961D01*
X4824586Y-1737961D02*
X4824586Y-1699866D01*
X4824586Y-1699866D02*
X4815062Y-1652247D01*
X4815062Y-1652247D02*
X4805538Y-1623675D01*
X4805538Y-1623675D02*
X4796014Y-1604628D01*
X4796014Y-1604628D02*
X4776967Y-1576056D01*
X4776967Y-1576056D02*
X4767443Y-1566532D01*
X-207620Y-1867620D02*
X-7620Y-2067620D01*
X-7620Y-1867620D02*
X-207620Y-2067620D01*
X-7620Y-1967620D02*
G75*
G02*
X-207620Y-1967620I-100000J0D01*
G01*
X-207620Y-1967620D02*
G75*
G02*
X-7620Y-1967620I100000J0D01*
G01*
X243633Y-1878151D02*
X253157Y-1868628D01*
X253157Y-1868628D02*
X272204Y-1859104D01*
X272204Y-1859104D02*
X319824Y-1859104D01*
X319824Y-1859104D02*
X338871Y-1868628D01*
X338871Y-1868628D02*
X348395Y-1878151D01*
X348395Y-1878151D02*
X357919Y-1897199D01*
X357919Y-1897199D02*
X357919Y-1916247D01*
X357919Y-1916247D02*
X348395Y-1944818D01*
X348395Y-1944818D02*
X234109Y-2059104D01*
X234109Y-2059104D02*
X357919Y-2059104D01*
X443633Y-2040056D02*
X453157Y-2049580D01*
X453157Y-2049580D02*
X443633Y-2059104D01*
X443633Y-2059104D02*
X434109Y-2049580D01*
X434109Y-2049580D02*
X443633Y-2040056D01*
X443633Y-2040056D02*
X443633Y-2059104D01*
X576966Y-1859104D02*
X596014Y-1859104D01*
X596014Y-1859104D02*
X615062Y-1868628D01*
X615062Y-1868628D02*
X624585Y-1878151D01*
X624585Y-1878151D02*
X634109Y-1897199D01*
X634109Y-1897199D02*
X643633Y-1935294D01*
X643633Y-1935294D02*
X643633Y-1982913D01*
X643633Y-1982913D02*
X634109Y-2021008D01*
X634109Y-2021008D02*
X624585Y-2040056D01*
X624585Y-2040056D02*
X615062Y-2049580D01*
X615062Y-2049580D02*
X596014Y-2059104D01*
X596014Y-2059104D02*
X576966Y-2059104D01*
X576966Y-2059104D02*
X557919Y-2049580D01*
X557919Y-2049580D02*
X548395Y-2040056D01*
X548395Y-2040056D02*
X538871Y-2021008D01*
X538871Y-2021008D02*
X529347Y-1982913D01*
X529347Y-1982913D02*
X529347Y-1935294D01*
X529347Y-1935294D02*
X538871Y-1897199D01*
X538871Y-1897199D02*
X548395Y-1878151D01*
X548395Y-1878151D02*
X557919Y-1868628D01*
X557919Y-1868628D02*
X576966Y-1859104D01*
X738871Y-2059104D02*
X776966Y-2059104D01*
X776966Y-2059104D02*
X796014Y-2049580D01*
X796014Y-2049580D02*
X805538Y-2040056D01*
X805538Y-2040056D02*
X824585Y-2011485D01*
X824585Y-2011485D02*
X834109Y-1973389D01*
X834109Y-1973389D02*
X834109Y-1897199D01*
X834109Y-1897199D02*
X824585Y-1878151D01*
X824585Y-1878151D02*
X815062Y-1868628D01*
X815062Y-1868628D02*
X796014Y-1859104D01*
X796014Y-1859104D02*
X757919Y-1859104D01*
X757919Y-1859104D02*
X738871Y-1868628D01*
X738871Y-1868628D02*
X729347Y-1878151D01*
X729347Y-1878151D02*
X719823Y-1897199D01*
X719823Y-1897199D02*
X719823Y-1944818D01*
X719823Y-1944818D02*
X729347Y-1963866D01*
X729347Y-1963866D02*
X738871Y-1973389D01*
X738871Y-1973389D02*
X757919Y-1982913D01*
X757919Y-1982913D02*
X796014Y-1982913D01*
X796014Y-1982913D02*
X815062Y-1973389D01*
X815062Y-1973389D02*
X824585Y-1963866D01*
X824585Y-1963866D02*
X834109Y-1944818D01*
X948395Y-1944818D02*
X929347Y-1935294D01*
X929347Y-1935294D02*
X919823Y-1925770D01*
X919823Y-1925770D02*
X910300Y-1906723D01*
X910300Y-1906723D02*
X910300Y-1897199D01*
X910300Y-1897199D02*
X919823Y-1878151D01*
X919823Y-1878151D02*
X929347Y-1868628D01*
X929347Y-1868628D02*
X948395Y-1859104D01*
X948395Y-1859104D02*
X986490Y-1859104D01*
X986490Y-1859104D02*
X1005538Y-1868628D01*
X1005538Y-1868628D02*
X1015062Y-1878151D01*
X1015062Y-1878151D02*
X1024585Y-1897199D01*
X1024585Y-1897199D02*
X1024585Y-1906723D01*
X1024585Y-1906723D02*
X1015062Y-1925770D01*
X1015062Y-1925770D02*
X1005538Y-1935294D01*
X1005538Y-1935294D02*
X986490Y-1944818D01*
X986490Y-1944818D02*
X948395Y-1944818D01*
X948395Y-1944818D02*
X929347Y-1954342D01*
X929347Y-1954342D02*
X919823Y-1963866D01*
X919823Y-1963866D02*
X910300Y-1982913D01*
X910300Y-1982913D02*
X910300Y-2021008D01*
X910300Y-2021008D02*
X919823Y-2040056D01*
X919823Y-2040056D02*
X929347Y-2049580D01*
X929347Y-2049580D02*
X948395Y-2059104D01*
X948395Y-2059104D02*
X986490Y-2059104D01*
X986490Y-2059104D02*
X1005538Y-2049580D01*
X1005538Y-2049580D02*
X1015062Y-2040056D01*
X1015062Y-2040056D02*
X1024585Y-2021008D01*
X1024585Y-2021008D02*
X1024585Y-1982913D01*
X1024585Y-1982913D02*
X1015062Y-1963866D01*
X1015062Y-1963866D02*
X1005538Y-1954342D01*
X1005538Y-1954342D02*
X986490Y-1944818D01*
X1110300Y-2059104D02*
X1110300Y-1925770D01*
X1110300Y-1944818D02*
X1119824Y-1935294D01*
X1119824Y-1935294D02*
X1138871Y-1925770D01*
X1138871Y-1925770D02*
X1167443Y-1925770D01*
X1167443Y-1925770D02*
X1186490Y-1935294D01*
X1186490Y-1935294D02*
X1196014Y-1954342D01*
X1196014Y-1954342D02*
X1196014Y-2059104D01*
X1196014Y-1954342D02*
X1205538Y-1935294D01*
X1205538Y-1935294D02*
X1224585Y-1925770D01*
X1224585Y-1925770D02*
X1253157Y-1925770D01*
X1253157Y-1925770D02*
X1272205Y-1935294D01*
X1272205Y-1935294D02*
X1281728Y-1954342D01*
X1281728Y-1954342D02*
X1281728Y-2059104D01*
X1376966Y-2059104D02*
X1376966Y-1925770D01*
X1376966Y-1944818D02*
X1386490Y-1935294D01*
X1386490Y-1935294D02*
X1405538Y-1925770D01*
X1405538Y-1925770D02*
X1434109Y-1925770D01*
X1434109Y-1925770D02*
X1453157Y-1935294D01*
X1453157Y-1935294D02*
X1462681Y-1954342D01*
X1462681Y-1954342D02*
X1462681Y-2059104D01*
X1462681Y-1954342D02*
X1472204Y-1935294D01*
X1472204Y-1935294D02*
X1491252Y-1925770D01*
X1491252Y-1925770D02*
X1519823Y-1925770D01*
X1519823Y-1925770D02*
X1538871Y-1935294D01*
X1538871Y-1935294D02*
X1548395Y-1954342D01*
X1548395Y-1954342D02*
X1548395Y-2059104D01*
X1938871Y-1849580D02*
X1767443Y-2106723D01*
X2196014Y-1859104D02*
X2215062Y-1859104D01*
X2215062Y-1859104D02*
X2234109Y-1868628D01*
X2234109Y-1868628D02*
X2243633Y-1878151D01*
X2243633Y-1878151D02*
X2253157Y-1897199D01*
X2253157Y-1897199D02*
X2262681Y-1935294D01*
X2262681Y-1935294D02*
X2262681Y-1982913D01*
X2262681Y-1982913D02*
X2253157Y-2021008D01*
X2253157Y-2021008D02*
X2243633Y-2040056D01*
X2243633Y-2040056D02*
X2234109Y-2049580D01*
X2234109Y-2049580D02*
X2215062Y-2059104D01*
X2215062Y-2059104D02*
X2196014Y-2059104D01*
X2196014Y-2059104D02*
X2176967Y-2049580D01*
X2176967Y-2049580D02*
X2167443Y-2040056D01*
X2167443Y-2040056D02*
X2157919Y-2021008D01*
X2157919Y-2021008D02*
X2148395Y-1982913D01*
X2148395Y-1982913D02*
X2148395Y-1935294D01*
X2148395Y-1935294D02*
X2157919Y-1897199D01*
X2157919Y-1897199D02*
X2167443Y-1878151D01*
X2167443Y-1878151D02*
X2176967Y-1868628D01*
X2176967Y-1868628D02*
X2196014Y-1859104D01*
X2348395Y-2040056D02*
X2357919Y-2049580D01*
X2357919Y-2049580D02*
X2348395Y-2059104D01*
X2348395Y-2059104D02*
X2338871Y-2049580D01*
X2338871Y-2049580D02*
X2348395Y-2040056D01*
X2348395Y-2040056D02*
X2348395Y-2059104D01*
X2481728Y-1859104D02*
X2500776Y-1859104D01*
X2500776Y-1859104D02*
X2519824Y-1868628D01*
X2519824Y-1868628D02*
X2529348Y-1878151D01*
X2529348Y-1878151D02*
X2538871Y-1897199D01*
X2538871Y-1897199D02*
X2548395Y-1935294D01*
X2548395Y-1935294D02*
X2548395Y-1982913D01*
X2548395Y-1982913D02*
X2538871Y-2021008D01*
X2538871Y-2021008D02*
X2529348Y-2040056D01*
X2529348Y-2040056D02*
X2519824Y-2049580D01*
X2519824Y-2049580D02*
X2500776Y-2059104D01*
X2500776Y-2059104D02*
X2481728Y-2059104D01*
X2481728Y-2059104D02*
X2462681Y-2049580D01*
X2462681Y-2049580D02*
X2453157Y-2040056D01*
X2453157Y-2040056D02*
X2443633Y-2021008D01*
X2443633Y-2021008D02*
X2434109Y-1982913D01*
X2434109Y-1982913D02*
X2434109Y-1935294D01*
X2434109Y-1935294D02*
X2443633Y-1897199D01*
X2443633Y-1897199D02*
X2453157Y-1878151D01*
X2453157Y-1878151D02*
X2462681Y-1868628D01*
X2462681Y-1868628D02*
X2481728Y-1859104D01*
X2662681Y-1944818D02*
X2643633Y-1935294D01*
X2643633Y-1935294D02*
X2634109Y-1925770D01*
X2634109Y-1925770D02*
X2624586Y-1906723D01*
X2624586Y-1906723D02*
X2624586Y-1897199D01*
X2624586Y-1897199D02*
X2634109Y-1878151D01*
X2634109Y-1878151D02*
X2643633Y-1868628D01*
X2643633Y-1868628D02*
X2662681Y-1859104D01*
X2662681Y-1859104D02*
X2700776Y-1859104D01*
X2700776Y-1859104D02*
X2719824Y-1868628D01*
X2719824Y-1868628D02*
X2729348Y-1878151D01*
X2729348Y-1878151D02*
X2738871Y-1897199D01*
X2738871Y-1897199D02*
X2738871Y-1906723D01*
X2738871Y-1906723D02*
X2729348Y-1925770D01*
X2729348Y-1925770D02*
X2719824Y-1935294D01*
X2719824Y-1935294D02*
X2700776Y-1944818D01*
X2700776Y-1944818D02*
X2662681Y-1944818D01*
X2662681Y-1944818D02*
X2643633Y-1954342D01*
X2643633Y-1954342D02*
X2634109Y-1963866D01*
X2634109Y-1963866D02*
X2624586Y-1982913D01*
X2624586Y-1982913D02*
X2624586Y-2021008D01*
X2624586Y-2021008D02*
X2634109Y-2040056D01*
X2634109Y-2040056D02*
X2643633Y-2049580D01*
X2643633Y-2049580D02*
X2662681Y-2059104D01*
X2662681Y-2059104D02*
X2700776Y-2059104D01*
X2700776Y-2059104D02*
X2719824Y-2049580D01*
X2719824Y-2049580D02*
X2729348Y-2040056D01*
X2729348Y-2040056D02*
X2738871Y-2021008D01*
X2738871Y-2021008D02*
X2738871Y-1982913D01*
X2738871Y-1982913D02*
X2729348Y-1963866D01*
X2729348Y-1963866D02*
X2719824Y-1954342D01*
X2719824Y-1954342D02*
X2700776Y-1944818D01*
X2815062Y-1878151D02*
X2824586Y-1868628D01*
X2824586Y-1868628D02*
X2843633Y-1859104D01*
X2843633Y-1859104D02*
X2891252Y-1859104D01*
X2891252Y-1859104D02*
X2910300Y-1868628D01*
X2910300Y-1868628D02*
X2919824Y-1878151D01*
X2919824Y-1878151D02*
X2929347Y-1897199D01*
X2929347Y-1897199D02*
X2929347Y-1916247D01*
X2929347Y-1916247D02*
X2919824Y-1944818D01*
X2919824Y-1944818D02*
X2805538Y-2059104D01*
X2805538Y-2059104D02*
X2929347Y-2059104D01*
X3100776Y-1859104D02*
X3062681Y-1859104D01*
X3062681Y-1859104D02*
X3043633Y-1868628D01*
X3043633Y-1868628D02*
X3034109Y-1878151D01*
X3034109Y-1878151D02*
X3015062Y-1906723D01*
X3015062Y-1906723D02*
X3005538Y-1944818D01*
X3005538Y-1944818D02*
X3005538Y-2021008D01*
X3005538Y-2021008D02*
X3015062Y-2040056D01*
X3015062Y-2040056D02*
X3024586Y-2049580D01*
X3024586Y-2049580D02*
X3043633Y-2059104D01*
X3043633Y-2059104D02*
X3081728Y-2059104D01*
X3081728Y-2059104D02*
X3100776Y-2049580D01*
X3100776Y-2049580D02*
X3110300Y-2040056D01*
X3110300Y-2040056D02*
X3119824Y-2021008D01*
X3119824Y-2021008D02*
X3119824Y-1973389D01*
X3119824Y-1973389D02*
X3110300Y-1954342D01*
X3110300Y-1954342D02*
X3100776Y-1944818D01*
X3100776Y-1944818D02*
X3081728Y-1935294D01*
X3081728Y-1935294D02*
X3043633Y-1935294D01*
X3043633Y-1935294D02*
X3024586Y-1944818D01*
X3024586Y-1944818D02*
X3015062Y-1954342D01*
X3015062Y-1954342D02*
X3005538Y-1973389D01*
X3196014Y-1859104D02*
X3196014Y-1897199D01*
X3272205Y-1859104D02*
X3272205Y-1897199D01*
X3567443Y-2135294D02*
X3557919Y-2125770D01*
X3557919Y-2125770D02*
X3538871Y-2097199D01*
X3538871Y-2097199D02*
X3529348Y-2078151D01*
X3529348Y-2078151D02*
X3519824Y-2049580D01*
X3519824Y-2049580D02*
X3510300Y-2001961D01*
X3510300Y-2001961D02*
X3510300Y-1963866D01*
X3510300Y-1963866D02*
X3519824Y-1916247D01*
X3519824Y-1916247D02*
X3529348Y-1887675D01*
X3529348Y-1887675D02*
X3538871Y-1868628D01*
X3538871Y-1868628D02*
X3557919Y-1840056D01*
X3557919Y-1840056D02*
X3567443Y-1830532D01*
X3729348Y-1859104D02*
X3691252Y-1859104D01*
X3691252Y-1859104D02*
X3672205Y-1868628D01*
X3672205Y-1868628D02*
X3662681Y-1878151D01*
X3662681Y-1878151D02*
X3643633Y-1906723D01*
X3643633Y-1906723D02*
X3634109Y-1944818D01*
X3634109Y-1944818D02*
X3634109Y-2021008D01*
X3634109Y-2021008D02*
X3643633Y-2040056D01*
X3643633Y-2040056D02*
X3653157Y-2049580D01*
X3653157Y-2049580D02*
X3672205Y-2059104D01*
X3672205Y-2059104D02*
X3710300Y-2059104D01*
X3710300Y-2059104D02*
X3729348Y-2049580D01*
X3729348Y-2049580D02*
X3738871Y-2040056D01*
X3738871Y-2040056D02*
X3748395Y-2021008D01*
X3748395Y-2021008D02*
X3748395Y-1973389D01*
X3748395Y-1973389D02*
X3738871Y-1954342D01*
X3738871Y-1954342D02*
X3729348Y-1944818D01*
X3729348Y-1944818D02*
X3710300Y-1935294D01*
X3710300Y-1935294D02*
X3672205Y-1935294D01*
X3672205Y-1935294D02*
X3653157Y-1944818D01*
X3653157Y-1944818D02*
X3643633Y-1954342D01*
X3643633Y-1954342D02*
X3634109Y-1973389D01*
X3986490Y-2059104D02*
X3986490Y-1859104D01*
X4072205Y-2059104D02*
X4072205Y-1954342D01*
X4072205Y-1954342D02*
X4062681Y-1935294D01*
X4062681Y-1935294D02*
X4043633Y-1925770D01*
X4043633Y-1925770D02*
X4015062Y-1925770D01*
X4015062Y-1925770D02*
X3996014Y-1935294D01*
X3996014Y-1935294D02*
X3986490Y-1944818D01*
X4196014Y-2059104D02*
X4176967Y-2049580D01*
X4176967Y-2049580D02*
X4167443Y-2040056D01*
X4167443Y-2040056D02*
X4157919Y-2021008D01*
X4157919Y-2021008D02*
X4157919Y-1963866D01*
X4157919Y-1963866D02*
X4167443Y-1944818D01*
X4167443Y-1944818D02*
X4176967Y-1935294D01*
X4176967Y-1935294D02*
X4196014Y-1925770D01*
X4196014Y-1925770D02*
X4224586Y-1925770D01*
X4224586Y-1925770D02*
X4243633Y-1935294D01*
X4243633Y-1935294D02*
X4253157Y-1944818D01*
X4253157Y-1944818D02*
X4262681Y-1963866D01*
X4262681Y-1963866D02*
X4262681Y-2021008D01*
X4262681Y-2021008D02*
X4253157Y-2040056D01*
X4253157Y-2040056D02*
X4243633Y-2049580D01*
X4243633Y-2049580D02*
X4224586Y-2059104D01*
X4224586Y-2059104D02*
X4196014Y-2059104D01*
X4376967Y-2059104D02*
X4357919Y-2049580D01*
X4357919Y-2049580D02*
X4348395Y-2030532D01*
X4348395Y-2030532D02*
X4348395Y-1859104D01*
X4529348Y-2049580D02*
X4510300Y-2059104D01*
X4510300Y-2059104D02*
X4472205Y-2059104D01*
X4472205Y-2059104D02*
X4453157Y-2049580D01*
X4453157Y-2049580D02*
X4443633Y-2030532D01*
X4443633Y-2030532D02*
X4443633Y-1954342D01*
X4443633Y-1954342D02*
X4453157Y-1935294D01*
X4453157Y-1935294D02*
X4472205Y-1925770D01*
X4472205Y-1925770D02*
X4510300Y-1925770D01*
X4510300Y-1925770D02*
X4529348Y-1935294D01*
X4529348Y-1935294D02*
X4538872Y-1954342D01*
X4538872Y-1954342D02*
X4538872Y-1973389D01*
X4538872Y-1973389D02*
X4443633Y-1992437D01*
X4615062Y-2049580D02*
X4634110Y-2059104D01*
X4634110Y-2059104D02*
X4672205Y-2059104D01*
X4672205Y-2059104D02*
X4691253Y-2049580D01*
X4691253Y-2049580D02*
X4700776Y-2030532D01*
X4700776Y-2030532D02*
X4700776Y-2021008D01*
X4700776Y-2021008D02*
X4691253Y-2001961D01*
X4691253Y-2001961D02*
X4672205Y-1992437D01*
X4672205Y-1992437D02*
X4643633Y-1992437D01*
X4643633Y-1992437D02*
X4624586Y-1982913D01*
X4624586Y-1982913D02*
X4615062Y-1963866D01*
X4615062Y-1963866D02*
X4615062Y-1954342D01*
X4615062Y-1954342D02*
X4624586Y-1935294D01*
X4624586Y-1935294D02*
X4643633Y-1925770D01*
X4643633Y-1925770D02*
X4672205Y-1925770D01*
X4672205Y-1925770D02*
X4691253Y-1935294D01*
X4767443Y-2135294D02*
X4776967Y-2125770D01*
X4776967Y-2125770D02*
X4796014Y-2097199D01*
X4796014Y-2097199D02*
X4805538Y-2078151D01*
X4805538Y-2078151D02*
X4815062Y-2049580D01*
X4815062Y-2049580D02*
X4824586Y-2001961D01*
X4824586Y-2001961D02*
X4824586Y-1963866D01*
X4824586Y-1963866D02*
X4815062Y-1916247D01*
X4815062Y-1916247D02*
X4805538Y-1887675D01*
X4805538Y-1887675D02*
X4796014Y-1868628D01*
X4796014Y-1868628D02*
X4776967Y-1840056D01*
X4776967Y-1840056D02*
X4767443Y-1830532D01*
M02*
