%TF.GenerationSoftware,KiCad,Pcbnew,9.0.0*%
%TF.CreationDate,2025-08-15T00:34:50+01:00*%
%TF.ProjectId,FastStepper,46617374-5374-4657-9070-65722e6b6963,rev?*%
%TF.SameCoordinates,PX71f712cPY8e18f40*%
%TF.FileFunction,Soldermask,Top*%
%TF.FilePolarity,Negative*%
%FSLAX46Y46*%
G04 Gerber Fmt 4.6, Leading zero omitted, Abs format (unit mm)*
G04 Created by KiCad (PCBNEW 9.0.0) date 2025-08-15 00:34:50*
%MOMM*%
%LPD*%
G01*
G04 APERTURE LIST*
G04 Aperture macros list*
%AMRoundRect*
0 Rectangle with rounded corners*
0 $1 Rounding radius*
0 $2 $3 $4 $5 $6 $7 $8 $9 X,Y pos of 4 corners*
0 Add a 4 corners polygon primitive as box body*
4,1,4,$2,$3,$4,$5,$6,$7,$8,$9,$2,$3,0*
0 Add four circle primitives for the rounded corners*
1,1,$1+$1,$2,$3*
1,1,$1+$1,$4,$5*
1,1,$1+$1,$6,$7*
1,1,$1+$1,$8,$9*
0 Add four rect primitives between the rounded corners*
20,1,$1+$1,$2,$3,$4,$5,0*
20,1,$1+$1,$4,$5,$6,$7,0*
20,1,$1+$1,$6,$7,$8,$9,0*
20,1,$1+$1,$8,$9,$2,$3,0*%
%AMFreePoly0*
4,1,23,0.500000,-0.750000,0.000000,-0.750000,0.000000,-0.745722,-0.065263,-0.745722,-0.191342,-0.711940,-0.304381,-0.646677,-0.396677,-0.554381,-0.461940,-0.441342,-0.495722,-0.315263,-0.495722,-0.250000,-0.500000,-0.250000,-0.500000,0.250000,-0.495722,0.250000,-0.495722,0.315263,-0.461940,0.441342,-0.396677,0.554381,-0.304381,0.646677,-0.191342,0.711940,-0.065263,0.745722,0.000000,0.745722,
0.000000,0.750000,0.500000,0.750000,0.500000,-0.750000,0.500000,-0.750000,$1*%
%AMFreePoly1*
4,1,23,0.000000,0.745722,0.065263,0.745722,0.191342,0.711940,0.304381,0.646677,0.396677,0.554381,0.461940,0.441342,0.495722,0.315263,0.495722,0.250000,0.500000,0.250000,0.500000,-0.250000,0.495722,-0.250000,0.495722,-0.315263,0.461940,-0.441342,0.396677,-0.554381,0.304381,-0.646677,0.191342,-0.711940,0.065263,-0.745722,0.000000,-0.745722,0.000000,-0.750000,-0.500000,-0.750000,
-0.500000,0.750000,0.000000,0.750000,0.000000,0.745722,0.000000,0.745722,$1*%
G04 Aperture macros list end*
%ADD10RoundRect,0.140000X0.170000X-0.140000X0.170000X0.140000X-0.170000X0.140000X-0.170000X-0.140000X0*%
%ADD11RoundRect,0.135000X0.185000X-0.135000X0.185000X0.135000X-0.185000X0.135000X-0.185000X-0.135000X0*%
%ADD12RoundRect,0.140000X-0.170000X0.140000X-0.170000X-0.140000X0.170000X-0.140000X0.170000X0.140000X0*%
%ADD13RoundRect,0.135000X-0.135000X-0.185000X0.135000X-0.185000X0.135000X0.185000X-0.135000X0.185000X0*%
%ADD14O,3.000000X1.500000*%
%ADD15RoundRect,0.225000X-0.225000X-0.250000X0.225000X-0.250000X0.225000X0.250000X-0.225000X0.250000X0*%
%ADD16RoundRect,0.140000X0.140000X0.170000X-0.140000X0.170000X-0.140000X-0.170000X0.140000X-0.170000X0*%
%ADD17RoundRect,0.250000X0.400000X0.300000X-0.400000X0.300000X-0.400000X-0.300000X0.400000X-0.300000X0*%
%ADD18C,2.500000*%
%ADD19R,0.700000X0.510000*%
%ADD20RoundRect,0.102000X0.450000X0.200000X-0.450000X0.200000X-0.450000X-0.200000X0.450000X-0.200000X0*%
%ADD21RoundRect,0.062500X0.117500X0.062500X-0.117500X0.062500X-0.117500X-0.062500X0.117500X-0.062500X0*%
%ADD22RoundRect,0.062500X-0.117500X-0.062500X0.117500X-0.062500X0.117500X0.062500X-0.117500X0.062500X0*%
%ADD23RoundRect,0.150000X-0.825000X-0.150000X0.825000X-0.150000X0.825000X0.150000X-0.825000X0.150000X0*%
%ADD24R,1.700000X1.700000*%
%ADD25C,1.700000*%
%ADD26FreePoly0,90.000000*%
%ADD27FreePoly1,90.000000*%
%ADD28C,1.000000*%
%ADD29R,0.510000X0.700000*%
%ADD30RoundRect,0.137500X-0.600000X-0.137500X0.600000X-0.137500X0.600000X0.137500X-0.600000X0.137500X0*%
%ADD31RoundRect,0.137500X-0.137500X-0.600000X0.137500X-0.600000X0.137500X0.600000X-0.137500X0.600000X0*%
%ADD32C,1.450000*%
%ADD33R,1.600000X2.500000*%
%ADD34R,0.450000X1.750000*%
%ADD35RoundRect,0.250000X-0.262500X-0.450000X0.262500X-0.450000X0.262500X0.450000X-0.262500X0.450000X0*%
%ADD36C,3.500000*%
%ADD37RoundRect,0.135000X0.135000X0.185000X-0.135000X0.185000X-0.135000X-0.185000X0.135000X-0.185000X0*%
%ADD38RoundRect,0.140000X-0.140000X-0.170000X0.140000X-0.170000X0.140000X0.170000X-0.140000X0.170000X0*%
%ADD39C,0.650000*%
%ADD40O,0.650000X0.950000*%
%ADD41R,0.700000X0.300000*%
%ADD42O,1.600000X1.000000*%
%ADD43O,1.350000X0.900000*%
%ADD44RoundRect,0.225000X0.225000X0.250000X-0.225000X0.250000X-0.225000X-0.250000X0.225000X-0.250000X0*%
%ADD45RoundRect,0.218750X-0.256250X0.218750X-0.256250X-0.218750X0.256250X-0.218750X0.256250X0.218750X0*%
%ADD46RoundRect,0.150000X-0.150000X0.512500X-0.150000X-0.512500X0.150000X-0.512500X0.150000X0.512500X0*%
%ADD47RoundRect,0.135000X-0.185000X0.135000X-0.185000X-0.135000X0.185000X-0.135000X0.185000X0.135000X0*%
%ADD48O,4.267200X2.133600*%
%ADD49RoundRect,0.250000X0.262500X0.450000X-0.262500X0.450000X-0.262500X-0.450000X0.262500X-0.450000X0*%
%ADD50RoundRect,0.225000X-0.250000X0.225000X-0.250000X-0.225000X0.250000X-0.225000X0.250000X0.225000X0*%
%ADD51RoundRect,0.162500X-0.162500X0.447500X-0.162500X-0.447500X0.162500X-0.447500X0.162500X0.447500X0*%
%TA.AperFunction,Profile*%
%ADD52C,0.152400*%
%TD*%
%TA.AperFunction,Profile*%
%ADD53C,0.150000*%
%TD*%
G04 APERTURE END LIST*
%TO.C,JP3*%
G36*
X10748900Y26600000D02*
G01*
X12248900Y26600000D01*
X12248900Y26900000D01*
X10748900Y26900000D01*
X10748900Y26600000D01*
G37*
%TO.C,JP2*%
G36*
X11398900Y11850000D02*
G01*
X12898900Y11850000D01*
X12898900Y12150000D01*
X11398900Y12150000D01*
X11398900Y11850000D01*
G37*
%TO.C,JP1*%
G36*
X11398900Y16950000D02*
G01*
X12898900Y16950000D01*
X12898900Y17250000D01*
X11398900Y17250000D01*
X11398900Y16950000D01*
G37*
%TD*%
D10*
%TO.C,C17*%
X16486000Y51126600D03*
X16486000Y52086600D03*
%TD*%
D11*
%TO.C,R2*%
X53248900Y62640000D03*
X53248900Y63660000D03*
%TD*%
D10*
%TO.C,C14*%
X16613000Y56270000D03*
X16613000Y57230000D03*
%TD*%
D12*
%TO.C,C30*%
X25019000Y28005400D03*
X25019000Y27045400D03*
%TD*%
D13*
%TO.C,R14*%
X21461000Y29938400D03*
X22481000Y29938400D03*
%TD*%
D14*
%TO.C,X3*%
X3200000Y77933400D03*
X3200000Y75393400D03*
X3200000Y72853400D03*
%TD*%
D15*
%TO.C,C24*%
X55973900Y61000000D03*
X57523900Y61000000D03*
%TD*%
D16*
%TO.C,C32*%
X44978900Y8500000D03*
X44018900Y8500000D03*
%TD*%
D10*
%TO.C,C29*%
X19488200Y40959000D03*
X19488200Y41919000D03*
%TD*%
D13*
%TO.C,R22*%
X12438900Y14500000D03*
X13458900Y14500000D03*
%TD*%
D17*
%TO.C,X6*%
X32098900Y57000000D03*
X29998900Y57000000D03*
X29998900Y55350000D03*
X32098900Y55350000D03*
%TD*%
D18*
%TO.C,J6*%
X31198900Y17400000D03*
%TD*%
D19*
%TO.C,IC6*%
X13987000Y43974400D03*
X13987000Y44924400D03*
X13987000Y45874400D03*
X11667000Y45874400D03*
X11667000Y43974400D03*
%TD*%
%TO.C,IC22*%
X42678900Y21650000D03*
X42678900Y20700000D03*
X42678900Y19750000D03*
X44998900Y19750000D03*
X44998900Y21650000D03*
%TD*%
D12*
%TO.C,C31*%
X31103971Y27733623D03*
X31103971Y26773623D03*
%TD*%
D16*
%TO.C,C18*%
X56728900Y63000000D03*
X55768900Y63000000D03*
%TD*%
D19*
%TO.C,U1*%
X48998900Y62500000D03*
X48998900Y61550000D03*
X48998900Y60600000D03*
X51318900Y60600000D03*
X51318900Y61550000D03*
X51318900Y62500000D03*
%TD*%
D20*
%TO.C,FL1*%
X48011400Y71900000D03*
X46311400Y71900000D03*
X46311400Y71100000D03*
X48011400Y71100000D03*
%TD*%
D10*
%TO.C,C36*%
X53248900Y60020000D03*
X53248900Y60980000D03*
%TD*%
D11*
%TO.C,R27*%
X34998900Y75790000D03*
X34998900Y76810000D03*
%TD*%
D14*
%TO.C,X4*%
X3356000Y69131400D03*
X3356000Y66591400D03*
X3356000Y64051400D03*
%TD*%
D21*
%TO.C,D1*%
X57978900Y46400000D03*
X58818900Y46400000D03*
%TD*%
D22*
%TO.C,D2*%
X57118900Y58750000D03*
X56278900Y58750000D03*
%TD*%
D19*
%TO.C,IC13*%
X16088900Y18950000D03*
X16088900Y18000000D03*
X16088900Y17050000D03*
X18408900Y17050000D03*
X18408900Y18950000D03*
%TD*%
D23*
%TO.C,U2*%
X37523900Y76955000D03*
X37523900Y75685000D03*
X37523900Y74415000D03*
X37523900Y73145000D03*
X42473900Y73145000D03*
X42473900Y74415000D03*
X42473900Y75685000D03*
X42473900Y76955000D03*
%TD*%
D24*
%TO.C,SV2*%
X37748900Y52750000D03*
D25*
X35208900Y52750000D03*
X37748900Y55290000D03*
X35208900Y55290000D03*
X37748900Y57830000D03*
X35208900Y57830000D03*
%TD*%
D26*
%TO.C,JP3*%
X11498900Y26100000D03*
D27*
X11498900Y27400000D03*
%TD*%
D28*
%TO.C,TP4*%
X20098900Y50300000D03*
%TD*%
D23*
%TO.C,U3*%
X41298900Y33610000D03*
X41298900Y32340000D03*
X41298900Y31070000D03*
X41298900Y29800000D03*
X46248900Y29800000D03*
X46248900Y31070000D03*
X46248900Y32340000D03*
X46248900Y33610000D03*
%TD*%
D19*
%TO.C,IC2*%
X11667000Y56161400D03*
X11667000Y55211400D03*
X11667000Y54261400D03*
X13987000Y54261400D03*
X13987000Y56161400D03*
%TD*%
D13*
%TO.C,R25*%
X50488900Y58550000D03*
X51508900Y58550000D03*
%TD*%
D26*
%TO.C,JP2*%
X12148900Y11350000D03*
D27*
X12148900Y12650000D03*
%TD*%
D19*
%TO.C,IC5*%
X13987000Y39656400D03*
X13987000Y40606400D03*
X13987000Y41556400D03*
X11667000Y41556400D03*
X11667000Y39656400D03*
%TD*%
D18*
%TO.C,J4*%
X20998900Y77600000D03*
%TD*%
D29*
%TO.C,IC15*%
X36129000Y27796400D03*
X35179000Y27796400D03*
X34229000Y27796400D03*
X34229000Y25476400D03*
X36129000Y25476400D03*
%TD*%
D30*
%TO.C,IC8*%
X23310500Y47243400D03*
X23310500Y46443400D03*
X23310500Y45643400D03*
X23310500Y44843400D03*
X23310500Y44043400D03*
X23310500Y43243400D03*
X23310500Y42443400D03*
X23310500Y41643400D03*
X23310500Y40843400D03*
X23310500Y40043400D03*
X23310500Y39243400D03*
D31*
X24973000Y37580900D03*
X25773000Y37580900D03*
X26573000Y37580900D03*
X27373000Y37580900D03*
X28173000Y37580900D03*
X28973000Y37580900D03*
X29773000Y37580900D03*
X30573000Y37580900D03*
X31373000Y37580900D03*
X32173000Y37580900D03*
X32973000Y37580900D03*
D30*
X34635500Y39243400D03*
X34635500Y40043400D03*
X34635500Y40843400D03*
X34635500Y41643400D03*
X34635500Y42443400D03*
X34635500Y43243400D03*
X34635500Y44043400D03*
X34635500Y44843400D03*
X34635500Y45643400D03*
X34635500Y46443400D03*
X34635500Y47243400D03*
D31*
X32973000Y48905900D03*
X32173000Y48905900D03*
X31373000Y48905900D03*
X30573000Y48905900D03*
X29773000Y48905900D03*
X28973000Y48905900D03*
X28173000Y48905900D03*
X27373000Y48905900D03*
X26573000Y48905900D03*
X25773000Y48905900D03*
X24973000Y48905900D03*
%TD*%
D32*
%TO.C,J2*%
X51733666Y32700000D03*
D33*
X59433666Y36450000D03*
X52833666Y28950000D03*
X56833666Y36450000D03*
X59433666Y28950000D03*
X50833666Y28950000D03*
X51833666Y36450000D03*
%TD*%
D16*
%TO.C,C33*%
X44978900Y23250000D03*
X44018900Y23250000D03*
%TD*%
D22*
%TO.C,D7*%
X59518900Y39100000D03*
X58678900Y39100000D03*
%TD*%
D28*
%TO.C,TP10*%
X15798900Y68700000D03*
%TD*%
D29*
%TO.C,IC16*%
X29652000Y27796400D03*
X28702000Y27796400D03*
X27752000Y27796400D03*
X27752000Y25476400D03*
X29652000Y25476400D03*
%TD*%
D34*
%TO.C,IC1*%
X21198900Y64597207D03*
X21848900Y64597207D03*
X22498900Y64597207D03*
X23148900Y64597207D03*
X23798900Y64597207D03*
X24448900Y64597207D03*
X25098900Y64597207D03*
X25748900Y64597207D03*
X26398900Y64597207D03*
X27048900Y64597207D03*
X27698900Y64597207D03*
X28348900Y64597207D03*
X28998900Y64597207D03*
X29648900Y64597207D03*
X29648900Y71797207D03*
X28998900Y71797207D03*
X28348900Y71797207D03*
X27698900Y71797207D03*
X27048900Y71797207D03*
X26398900Y71797207D03*
X25748900Y71797207D03*
X25098900Y71797207D03*
X24448900Y71797207D03*
X23798900Y71797207D03*
X23148900Y71797207D03*
X22498900Y71797207D03*
X21848900Y71797207D03*
X21198900Y71797207D03*
%TD*%
D28*
%TO.C,TP11*%
X36998900Y32250000D03*
%TD*%
%TO.C,TP13*%
X39198900Y65200000D03*
%TD*%
D35*
%TO.C,L1*%
X46086400Y67400000D03*
X47911400Y67400000D03*
%TD*%
D36*
%TO.C,SC1*%
X11898900Y81500000D03*
%TD*%
D16*
%TO.C,C20*%
X18286900Y14607000D03*
X17326900Y14607000D03*
%TD*%
D19*
%TO.C,IC18*%
X16088900Y27332400D03*
X16088900Y26382400D03*
X16088900Y25432400D03*
X18408900Y25432400D03*
X18408900Y27332400D03*
%TD*%
D20*
%TO.C,FL2*%
X47966400Y75500000D03*
X46266400Y75500000D03*
X46266400Y74700000D03*
X47966400Y74700000D03*
%TD*%
D37*
%TO.C,R24*%
X39308900Y78800000D03*
X38288900Y78800000D03*
%TD*%
D16*
%TO.C,C9*%
X23010000Y62000000D03*
X22050000Y62000000D03*
%TD*%
D22*
%TO.C,D3*%
X53418900Y46000000D03*
X52578900Y46000000D03*
%TD*%
D10*
%TO.C,C27*%
X28892400Y52604200D03*
X28892400Y53564200D03*
%TD*%
D13*
%TO.C,R15*%
X47238900Y19000000D03*
X48258900Y19000000D03*
%TD*%
D38*
%TO.C,C21*%
X16018900Y29000000D03*
X16978900Y29000000D03*
%TD*%
D26*
%TO.C,JP1*%
X12148900Y16450000D03*
D27*
X12148900Y17750000D03*
%TD*%
D39*
%TO.C,J1*%
X52833900Y69187500D03*
D40*
X52833900Y76387500D03*
D41*
X52173900Y70037500D03*
X52173900Y70537500D03*
X52173900Y71037500D03*
X52173900Y71537500D03*
X52173900Y72037500D03*
X52173900Y72537500D03*
X52173900Y73037500D03*
X52173900Y73537500D03*
X52173900Y74037500D03*
X52173900Y74537500D03*
X52173900Y75037500D03*
X52173900Y75537500D03*
X53873900Y75287500D03*
X53873900Y74787500D03*
X53873900Y74287500D03*
X53873900Y73787500D03*
X53873900Y73287500D03*
X53873900Y72787500D03*
X53873900Y72287500D03*
X53873900Y71787500D03*
X53873900Y71287500D03*
X53873900Y70787500D03*
X53873900Y70287500D03*
X53873900Y69787500D03*
D42*
X60033900Y68297500D03*
X54083900Y68657500D03*
D43*
X54083900Y76917500D03*
D42*
X60033900Y77277500D03*
%TD*%
D15*
%TO.C,C8*%
X40853400Y66493600D03*
X42403400Y66493600D03*
%TD*%
D12*
%TO.C,C22*%
X37719000Y27751400D03*
X37719000Y26791400D03*
%TD*%
D44*
%TO.C,C11*%
X42510800Y54165400D03*
X40960800Y54165400D03*
%TD*%
D19*
%TO.C,IC11*%
X11667000Y50827400D03*
X11667000Y49877400D03*
X11667000Y48927400D03*
X13987000Y48927400D03*
X13987000Y50827400D03*
%TD*%
D36*
%TO.C,SC1*%
X55981414Y3000000D03*
%TD*%
D16*
%TO.C,C25*%
X32677400Y52304400D03*
X31717400Y52304400D03*
%TD*%
D19*
%TO.C,IC4*%
X14558900Y35592400D03*
X14558900Y36542400D03*
X14558900Y37492400D03*
X12238900Y37492400D03*
X12238900Y35592400D03*
%TD*%
D12*
%TO.C,C26*%
X38040600Y45529200D03*
X38040600Y44569200D03*
%TD*%
D15*
%TO.C,C10*%
X40833800Y63284000D03*
X42383800Y63284000D03*
%TD*%
D45*
%TO.C,STATE0*%
X22208000Y57758900D03*
X22208000Y56183900D03*
%TD*%
D28*
%TO.C,TP6*%
X18525000Y43243400D03*
%TD*%
D29*
%TO.C,IC17*%
X23556000Y28050400D03*
X22606000Y28050400D03*
X21656000Y28050400D03*
X21656000Y25730400D03*
X23556000Y25730400D03*
%TD*%
D36*
%TO.C,SC1*%
X56248900Y41400000D03*
%TD*%
D16*
%TO.C,C34*%
X12978900Y75265946D03*
X12018900Y75265946D03*
%TD*%
D11*
%TO.C,R12*%
X16994800Y35521400D03*
X16994800Y36541400D03*
%TD*%
D16*
%TO.C,C3*%
X42778900Y35805000D03*
X41818900Y35805000D03*
%TD*%
D46*
%TO.C,IC3*%
X42635000Y59747900D03*
X41685000Y59747900D03*
X40735000Y59747900D03*
X40735000Y57472900D03*
X42635000Y57472900D03*
%TD*%
D14*
%TO.C,X10*%
X3400000Y28922400D03*
X3400000Y26382400D03*
X3400000Y23842400D03*
%TD*%
D12*
%TO.C,C38*%
X10870800Y36680000D03*
X10870800Y35720000D03*
%TD*%
D36*
%TO.C,SC1*%
X11898900Y32400000D03*
%TD*%
D13*
%TO.C,R34*%
X34395150Y60122200D03*
X35415150Y60122200D03*
%TD*%
D10*
%TO.C,C4*%
X33298900Y70420000D03*
X33298900Y71380000D03*
%TD*%
D11*
%TO.C,R18*%
X27896300Y74668207D03*
X27896300Y75688207D03*
%TD*%
D10*
%TO.C,C7*%
X29772900Y74718207D03*
X29772900Y75678207D03*
%TD*%
D11*
%TO.C,R6*%
X16613800Y43903400D03*
X16613800Y44923400D03*
%TD*%
D12*
%TO.C,C6*%
X33298900Y69080000D03*
X33298900Y68120000D03*
%TD*%
D13*
%TO.C,R23*%
X12038900Y19700000D03*
X13058900Y19700000D03*
%TD*%
D16*
%TO.C,C35*%
X44978900Y18000000D03*
X44018900Y18000000D03*
%TD*%
D19*
%TO.C,IC19*%
X44998900Y10300000D03*
X44998900Y11250000D03*
X44998900Y12200000D03*
X42678900Y12200000D03*
X42678900Y10300000D03*
%TD*%
D37*
%TO.C,R5*%
X50508900Y64750000D03*
X49488900Y64750000D03*
%TD*%
D11*
%TO.C,R1*%
X20210000Y56740000D03*
X20210000Y57760000D03*
%TD*%
D32*
%TO.C,J3*%
X51713900Y52500000D03*
D33*
X59413900Y56250000D03*
X52813900Y48750000D03*
X56813900Y56250000D03*
X59413900Y48750000D03*
X50813900Y48750000D03*
X51813900Y56250000D03*
%TD*%
D14*
%TO.C,X5*%
X3400000Y44165400D03*
X3400000Y41625400D03*
X3400000Y39085400D03*
X3400000Y36545400D03*
X3400000Y34005400D03*
%TD*%
D10*
%TO.C,C5*%
X25998900Y74718207D03*
X25998900Y75678207D03*
%TD*%
D19*
%TO.C,IC20*%
X42678900Y16200000D03*
X42678900Y15250000D03*
X42678900Y14300000D03*
X44998900Y14300000D03*
X44998900Y16200000D03*
%TD*%
D16*
%TO.C,C12*%
X42207200Y51561200D03*
X41247200Y51561200D03*
%TD*%
%TO.C,C19*%
X18363900Y20794000D03*
X17403900Y20794000D03*
%TD*%
D38*
%TO.C,C40*%
X44938900Y77000000D03*
X45898900Y77000000D03*
%TD*%
D19*
%TO.C,IC14*%
X16138900Y12890000D03*
X16138900Y11940000D03*
X16138900Y10990000D03*
X18458900Y10990000D03*
X18458900Y12890000D03*
%TD*%
D38*
%TO.C,C37*%
X46123900Y35655000D03*
X47083900Y35655000D03*
%TD*%
D13*
%TO.C,R16*%
X11075856Y29500000D03*
X12095856Y29500000D03*
%TD*%
D19*
%TO.C,IC21*%
X10588900Y73615946D03*
X10588900Y72665946D03*
X10588900Y71715946D03*
X12908900Y71715946D03*
X12908900Y73615946D03*
%TD*%
D14*
%TO.C,X9*%
X3400000Y18762400D03*
X3400000Y16222400D03*
X3400000Y13682400D03*
X3400000Y11142400D03*
X3400000Y8602400D03*
%TD*%
D22*
%TO.C,D8*%
X53818900Y26200000D03*
X52978900Y26200000D03*
%TD*%
D12*
%TO.C,C28*%
X30488800Y34094000D03*
X30488800Y33134000D03*
%TD*%
D47*
%TO.C,R26*%
X34998900Y73110000D03*
X34998900Y72090000D03*
%TD*%
D36*
%TO.C,SC1*%
X56248900Y81500000D03*
%TD*%
D28*
%TO.C,TP5*%
X19248900Y48250000D03*
%TD*%
D36*
%TO.C,SC1*%
X11898900Y3000000D03*
%TD*%
D11*
%TO.C,R13*%
X16994800Y39394900D03*
X16994800Y40414900D03*
%TD*%
D48*
%TO.C,X1*%
X55348900Y8225000D03*
X55348900Y11725000D03*
X55348900Y15225000D03*
X55348900Y18725000D03*
X55348900Y22225000D03*
%TD*%
D49*
%TO.C,L2*%
X42323700Y48298000D03*
X40498700Y48298000D03*
%TD*%
D28*
%TO.C,TP1*%
X44998900Y48900000D03*
%TD*%
D14*
%TO.C,X2*%
X3400000Y59273400D03*
X3400000Y56733400D03*
X3400000Y54193400D03*
X3400000Y51653400D03*
X3400000Y49113400D03*
%TD*%
D50*
%TO.C,C39*%
X8698900Y33875000D03*
X8698900Y32325000D03*
%TD*%
D51*
%TO.C,Q1*%
X49948900Y44210000D03*
X48048900Y44210000D03*
X48998900Y41590000D03*
%TD*%
D13*
%TO.C,R11*%
X34034000Y29811400D03*
X35054000Y29811400D03*
%TD*%
D28*
%TO.C,TP8*%
X20794200Y36563200D03*
%TD*%
D10*
%TO.C,C13*%
X38144800Y60188250D03*
X38144800Y61148250D03*
%TD*%
D13*
%TO.C,R10*%
X27430000Y29684400D03*
X28450000Y29684400D03*
%TD*%
D28*
%TO.C,TP9*%
X32164000Y35273400D03*
%TD*%
D52*
X60423900Y0D02*
G75*
G02*
X61923900Y1500000I1500000J0D01*
G01*
X1500000Y0D02*
X60423900Y0D01*
X0Y1500000D02*
G75*
G02*
X1500000Y0I0J-1500000D01*
G01*
X1500000Y84400000D02*
G75*
G02*
X0Y82900000I-1500000J0D01*
G01*
D53*
X61923900Y1500000D02*
X61923900Y82900000D01*
D52*
X60423900Y84400000D02*
X1500000Y84400000D01*
X0Y82900000D02*
X0Y1500000D01*
X61923900Y82900000D02*
G75*
G02*
X60423900Y84400000I0J1500000D01*
G01*
M02*
