%TF.GenerationSoftware,KiCad,Pcbnew,9.0.0*%
%TF.CreationDate,2025-08-15T00:34:50+01:00*%
%TF.ProjectId,FastStepper,46617374-5374-4657-9070-65722e6b6963,rev?*%
%TF.SameCoordinates,PX71f712cPY8e18f40*%
%TF.FileFunction,Legend,Bot*%
%TF.FilePolarity,Positive*%
%FSLAX46Y46*%
G04 Gerber Fmt 4.6, Leading zero omitted, Abs format (unit mm)*
G04 Created by KiCad (PCBNEW 9.0.0) date 2025-08-15 00:34:50*
%MOMM*%
%LPD*%
G01*
G04 APERTURE LIST*
%ADD10C,0.200000*%
%ADD11C,0.152400*%
%ADD12C,0.120000*%
%TA.AperFunction,Profile*%
%ADD13C,0.152400*%
%TD*%
%TA.AperFunction,Profile*%
%ADD14C,0.150000*%
%TD*%
G04 APERTURE END LIST*
D10*
X58987014Y70559430D02*
X58987014Y74380746D01*
X58248900Y69000000D02*
X58987014Y70559430D01*
D11*
X9927588Y63843943D02*
X9613112Y64064076D01*
X9927588Y64221314D02*
X9267188Y64221314D01*
X9267188Y64221314D02*
X9267188Y63969733D01*
X9267188Y63969733D02*
X9298636Y63906838D01*
X9298636Y63906838D02*
X9330083Y63875391D01*
X9330083Y63875391D02*
X9392979Y63843943D01*
X9392979Y63843943D02*
X9487321Y63843943D01*
X9487321Y63843943D02*
X9550217Y63875391D01*
X9550217Y63875391D02*
X9581664Y63906838D01*
X9581664Y63906838D02*
X9613112Y63969733D01*
X9613112Y63969733D02*
X9613112Y64221314D01*
X9330083Y63592362D02*
X9298636Y63560914D01*
X9298636Y63560914D02*
X9267188Y63498019D01*
X9267188Y63498019D02*
X9267188Y63340781D01*
X9267188Y63340781D02*
X9298636Y63277886D01*
X9298636Y63277886D02*
X9330083Y63246438D01*
X9330083Y63246438D02*
X9392979Y63214991D01*
X9392979Y63214991D02*
X9455874Y63214991D01*
X9455874Y63214991D02*
X9550217Y63246438D01*
X9550217Y63246438D02*
X9927588Y63623810D01*
X9927588Y63623810D02*
X9927588Y63214991D01*
X9267188Y62806172D02*
X9267188Y62743277D01*
X9267188Y62743277D02*
X9298636Y62680381D01*
X9298636Y62680381D02*
X9330083Y62648934D01*
X9330083Y62648934D02*
X9392979Y62617486D01*
X9392979Y62617486D02*
X9518769Y62586039D01*
X9518769Y62586039D02*
X9676007Y62586039D01*
X9676007Y62586039D02*
X9801798Y62617486D01*
X9801798Y62617486D02*
X9864693Y62648934D01*
X9864693Y62648934D02*
X9896141Y62680381D01*
X9896141Y62680381D02*
X9927588Y62743277D01*
X9927588Y62743277D02*
X9927588Y62806172D01*
X9927588Y62806172D02*
X9896141Y62869067D01*
X9896141Y62869067D02*
X9864693Y62900515D01*
X9864693Y62900515D02*
X9801798Y62931962D01*
X9801798Y62931962D02*
X9676007Y62963410D01*
X9676007Y62963410D02*
X9518769Y62963410D01*
X9518769Y62963410D02*
X9392979Y62931962D01*
X9392979Y62931962D02*
X9330083Y62900515D01*
X9330083Y62900515D02*
X9298636Y62869067D01*
X9298636Y62869067D02*
X9267188Y62806172D01*
X57657196Y68209446D02*
X57688644Y68177998D01*
X57688644Y68177998D02*
X57782986Y68146551D01*
X57782986Y68146551D02*
X57845882Y68146551D01*
X57845882Y68146551D02*
X57940225Y68177998D01*
X57940225Y68177998D02*
X58003120Y68240894D01*
X58003120Y68240894D02*
X58034567Y68303789D01*
X58034567Y68303789D02*
X58066015Y68429579D01*
X58066015Y68429579D02*
X58066015Y68523922D01*
X58066015Y68523922D02*
X58034567Y68649713D01*
X58034567Y68649713D02*
X58003120Y68712608D01*
X58003120Y68712608D02*
X57940225Y68775503D01*
X57940225Y68775503D02*
X57845882Y68806951D01*
X57845882Y68806951D02*
X57782986Y68806951D01*
X57782986Y68806951D02*
X57688644Y68775503D01*
X57688644Y68775503D02*
X57657196Y68744056D01*
X57405615Y68744056D02*
X57374167Y68775503D01*
X57374167Y68775503D02*
X57311272Y68806951D01*
X57311272Y68806951D02*
X57154034Y68806951D01*
X57154034Y68806951D02*
X57091139Y68775503D01*
X57091139Y68775503D02*
X57059691Y68744056D01*
X57059691Y68744056D02*
X57028244Y68681160D01*
X57028244Y68681160D02*
X57028244Y68618265D01*
X57028244Y68618265D02*
X57059691Y68523922D01*
X57059691Y68523922D02*
X57437063Y68146551D01*
X57437063Y68146551D02*
X57028244Y68146551D01*
X56808111Y68806951D02*
X56399292Y68806951D01*
X56399292Y68806951D02*
X56619425Y68555370D01*
X56619425Y68555370D02*
X56525082Y68555370D01*
X56525082Y68555370D02*
X56462187Y68523922D01*
X56462187Y68523922D02*
X56430739Y68492475D01*
X56430739Y68492475D02*
X56399292Y68429579D01*
X56399292Y68429579D02*
X56399292Y68272341D01*
X56399292Y68272341D02*
X56430739Y68209446D01*
X56430739Y68209446D02*
X56462187Y68177998D01*
X56462187Y68177998D02*
X56525082Y68146551D01*
X56525082Y68146551D02*
X56713768Y68146551D01*
X56713768Y68146551D02*
X56776663Y68177998D01*
X56776663Y68177998D02*
X56808111Y68209446D01*
X47677124Y78649659D02*
X47677124Y79310059D01*
X47677124Y79310059D02*
X47519886Y79310059D01*
X47519886Y79310059D02*
X47425543Y79278611D01*
X47425543Y79278611D02*
X47362648Y79215716D01*
X47362648Y79215716D02*
X47331201Y79152821D01*
X47331201Y79152821D02*
X47299753Y79027030D01*
X47299753Y79027030D02*
X47299753Y78932687D01*
X47299753Y78932687D02*
X47331201Y78806897D01*
X47331201Y78806897D02*
X47362648Y78744002D01*
X47362648Y78744002D02*
X47425543Y78681106D01*
X47425543Y78681106D02*
X47519886Y78649659D01*
X47519886Y78649659D02*
X47677124Y78649659D01*
X46702248Y79310059D02*
X47016724Y79310059D01*
X47016724Y79310059D02*
X47048172Y78995583D01*
X47048172Y78995583D02*
X47016724Y79027030D01*
X47016724Y79027030D02*
X46953829Y79058478D01*
X46953829Y79058478D02*
X46796591Y79058478D01*
X46796591Y79058478D02*
X46733696Y79027030D01*
X46733696Y79027030D02*
X46702248Y78995583D01*
X46702248Y78995583D02*
X46670801Y78932687D01*
X46670801Y78932687D02*
X46670801Y78775449D01*
X46670801Y78775449D02*
X46702248Y78712554D01*
X46702248Y78712554D02*
X46733696Y78681106D01*
X46733696Y78681106D02*
X46796591Y78649659D01*
X46796591Y78649659D02*
X46953829Y78649659D01*
X46953829Y78649659D02*
X47016724Y78681106D01*
X47016724Y78681106D02*
X47048172Y78712554D01*
X57342720Y65953602D02*
X57562853Y66268078D01*
X57720091Y65953602D02*
X57720091Y66614002D01*
X57720091Y66614002D02*
X57468510Y66614002D01*
X57468510Y66614002D02*
X57405615Y66582554D01*
X57405615Y66582554D02*
X57374168Y66551107D01*
X57374168Y66551107D02*
X57342720Y66488211D01*
X57342720Y66488211D02*
X57342720Y66393869D01*
X57342720Y66393869D02*
X57374168Y66330973D01*
X57374168Y66330973D02*
X57405615Y66299526D01*
X57405615Y66299526D02*
X57468510Y66268078D01*
X57468510Y66268078D02*
X57720091Y66268078D01*
X57122587Y66614002D02*
X56713768Y66614002D01*
X56713768Y66614002D02*
X56933901Y66362421D01*
X56933901Y66362421D02*
X56839558Y66362421D01*
X56839558Y66362421D02*
X56776663Y66330973D01*
X56776663Y66330973D02*
X56745215Y66299526D01*
X56745215Y66299526D02*
X56713768Y66236630D01*
X56713768Y66236630D02*
X56713768Y66079392D01*
X56713768Y66079392D02*
X56745215Y66016497D01*
X56745215Y66016497D02*
X56776663Y65985049D01*
X56776663Y65985049D02*
X56839558Y65953602D01*
X56839558Y65953602D02*
X57028244Y65953602D01*
X57028244Y65953602D02*
X57091139Y65985049D01*
X57091139Y65985049D02*
X57122587Y66016497D01*
X23173442Y67202412D02*
X23393575Y67516888D01*
X23550813Y67202412D02*
X23550813Y67862812D01*
X23550813Y67862812D02*
X23299232Y67862812D01*
X23299232Y67862812D02*
X23236337Y67831364D01*
X23236337Y67831364D02*
X23204890Y67799917D01*
X23204890Y67799917D02*
X23173442Y67737021D01*
X23173442Y67737021D02*
X23173442Y67642679D01*
X23173442Y67642679D02*
X23204890Y67579783D01*
X23204890Y67579783D02*
X23236337Y67548336D01*
X23236337Y67548336D02*
X23299232Y67516888D01*
X23299232Y67516888D02*
X23550813Y67516888D01*
X22544490Y67202412D02*
X22921861Y67202412D01*
X22733175Y67202412D02*
X22733175Y67862812D01*
X22733175Y67862812D02*
X22796071Y67768469D01*
X22796071Y67768469D02*
X22858966Y67705574D01*
X22858966Y67705574D02*
X22921861Y67674126D01*
X22230014Y67202412D02*
X22104223Y67202412D01*
X22104223Y67202412D02*
X22041328Y67233859D01*
X22041328Y67233859D02*
X22009880Y67265307D01*
X22009880Y67265307D02*
X21946985Y67359650D01*
X21946985Y67359650D02*
X21915538Y67485440D01*
X21915538Y67485440D02*
X21915538Y67737021D01*
X21915538Y67737021D02*
X21946985Y67799917D01*
X21946985Y67799917D02*
X21978433Y67831364D01*
X21978433Y67831364D02*
X22041328Y67862812D01*
X22041328Y67862812D02*
X22167119Y67862812D01*
X22167119Y67862812D02*
X22230014Y67831364D01*
X22230014Y67831364D02*
X22261461Y67799917D01*
X22261461Y67799917D02*
X22292909Y67737021D01*
X22292909Y67737021D02*
X22292909Y67579783D01*
X22292909Y67579783D02*
X22261461Y67516888D01*
X22261461Y67516888D02*
X22230014Y67485440D01*
X22230014Y67485440D02*
X22167119Y67453993D01*
X22167119Y67453993D02*
X22041328Y67453993D01*
X22041328Y67453993D02*
X21978433Y67485440D01*
X21978433Y67485440D02*
X21946985Y67516888D01*
X21946985Y67516888D02*
X21915538Y67579783D01*
X57046488Y71274543D02*
X56732012Y71494676D01*
X57046488Y71651914D02*
X56386088Y71651914D01*
X56386088Y71651914D02*
X56386088Y71400333D01*
X56386088Y71400333D02*
X56417536Y71337438D01*
X56417536Y71337438D02*
X56448983Y71305991D01*
X56448983Y71305991D02*
X56511879Y71274543D01*
X56511879Y71274543D02*
X56606221Y71274543D01*
X56606221Y71274543D02*
X56669117Y71305991D01*
X56669117Y71305991D02*
X56700564Y71337438D01*
X56700564Y71337438D02*
X56732012Y71400333D01*
X56732012Y71400333D02*
X56732012Y71651914D01*
X56448983Y71022962D02*
X56417536Y70991514D01*
X56417536Y70991514D02*
X56386088Y70928619D01*
X56386088Y70928619D02*
X56386088Y70771381D01*
X56386088Y70771381D02*
X56417536Y70708486D01*
X56417536Y70708486D02*
X56448983Y70677038D01*
X56448983Y70677038D02*
X56511879Y70645591D01*
X56511879Y70645591D02*
X56574774Y70645591D01*
X56574774Y70645591D02*
X56669117Y70677038D01*
X56669117Y70677038D02*
X57046488Y71054410D01*
X57046488Y71054410D02*
X57046488Y70645591D01*
X56669117Y70268220D02*
X56637669Y70331115D01*
X56637669Y70331115D02*
X56606221Y70362562D01*
X56606221Y70362562D02*
X56543326Y70394010D01*
X56543326Y70394010D02*
X56511879Y70394010D01*
X56511879Y70394010D02*
X56448983Y70362562D01*
X56448983Y70362562D02*
X56417536Y70331115D01*
X56417536Y70331115D02*
X56386088Y70268220D01*
X56386088Y70268220D02*
X56386088Y70142429D01*
X56386088Y70142429D02*
X56417536Y70079534D01*
X56417536Y70079534D02*
X56448983Y70048086D01*
X56448983Y70048086D02*
X56511879Y70016639D01*
X56511879Y70016639D02*
X56543326Y70016639D01*
X56543326Y70016639D02*
X56606221Y70048086D01*
X56606221Y70048086D02*
X56637669Y70079534D01*
X56637669Y70079534D02*
X56669117Y70142429D01*
X56669117Y70142429D02*
X56669117Y70268220D01*
X56669117Y70268220D02*
X56700564Y70331115D01*
X56700564Y70331115D02*
X56732012Y70362562D01*
X56732012Y70362562D02*
X56794907Y70394010D01*
X56794907Y70394010D02*
X56920698Y70394010D01*
X56920698Y70394010D02*
X56983593Y70362562D01*
X56983593Y70362562D02*
X57015041Y70331115D01*
X57015041Y70331115D02*
X57046488Y70268220D01*
X57046488Y70268220D02*
X57046488Y70142429D01*
X57046488Y70142429D02*
X57015041Y70079534D01*
X57015041Y70079534D02*
X56983593Y70048086D01*
X56983593Y70048086D02*
X56920698Y70016639D01*
X56920698Y70016639D02*
X56794907Y70016639D01*
X56794907Y70016639D02*
X56732012Y70048086D01*
X56732012Y70048086D02*
X56700564Y70079534D01*
X56700564Y70079534D02*
X56669117Y70142429D01*
X24197213Y58266099D02*
X24228661Y58234651D01*
X24228661Y58234651D02*
X24323003Y58203204D01*
X24323003Y58203204D02*
X24385899Y58203204D01*
X24385899Y58203204D02*
X24480242Y58234651D01*
X24480242Y58234651D02*
X24543137Y58297547D01*
X24543137Y58297547D02*
X24574584Y58360442D01*
X24574584Y58360442D02*
X24606032Y58486232D01*
X24606032Y58486232D02*
X24606032Y58580575D01*
X24606032Y58580575D02*
X24574584Y58706366D01*
X24574584Y58706366D02*
X24543137Y58769261D01*
X24543137Y58769261D02*
X24480242Y58832156D01*
X24480242Y58832156D02*
X24385899Y58863604D01*
X24385899Y58863604D02*
X24323003Y58863604D01*
X24323003Y58863604D02*
X24228661Y58832156D01*
X24228661Y58832156D02*
X24197213Y58800709D01*
X23568261Y58203204D02*
X23945632Y58203204D01*
X23756946Y58203204D02*
X23756946Y58863604D01*
X23756946Y58863604D02*
X23819842Y58769261D01*
X23819842Y58769261D02*
X23882737Y58706366D01*
X23882737Y58706366D02*
X23945632Y58674918D01*
X22970756Y58863604D02*
X23285232Y58863604D01*
X23285232Y58863604D02*
X23316680Y58549128D01*
X23316680Y58549128D02*
X23285232Y58580575D01*
X23285232Y58580575D02*
X23222337Y58612023D01*
X23222337Y58612023D02*
X23065099Y58612023D01*
X23065099Y58612023D02*
X23002204Y58580575D01*
X23002204Y58580575D02*
X22970756Y58549128D01*
X22970756Y58549128D02*
X22939309Y58486232D01*
X22939309Y58486232D02*
X22939309Y58328994D01*
X22939309Y58328994D02*
X22970756Y58266099D01*
X22970756Y58266099D02*
X23002204Y58234651D01*
X23002204Y58234651D02*
X23065099Y58203204D01*
X23065099Y58203204D02*
X23222337Y58203204D01*
X23222337Y58203204D02*
X23285232Y58234651D01*
X23285232Y58234651D02*
X23316680Y58266099D01*
X17608966Y61015307D02*
X17640414Y60983859D01*
X17640414Y60983859D02*
X17734756Y60952412D01*
X17734756Y60952412D02*
X17797652Y60952412D01*
X17797652Y60952412D02*
X17891995Y60983859D01*
X17891995Y60983859D02*
X17954890Y61046755D01*
X17954890Y61046755D02*
X17986337Y61109650D01*
X17986337Y61109650D02*
X18017785Y61235440D01*
X18017785Y61235440D02*
X18017785Y61329783D01*
X18017785Y61329783D02*
X17986337Y61455574D01*
X17986337Y61455574D02*
X17954890Y61518469D01*
X17954890Y61518469D02*
X17891995Y61581364D01*
X17891995Y61581364D02*
X17797652Y61612812D01*
X17797652Y61612812D02*
X17734756Y61612812D01*
X17734756Y61612812D02*
X17640414Y61581364D01*
X17640414Y61581364D02*
X17608966Y61549917D01*
X16980014Y60952412D02*
X17357385Y60952412D01*
X17168699Y60952412D02*
X17168699Y61612812D01*
X17168699Y61612812D02*
X17231595Y61518469D01*
X17231595Y61518469D02*
X17294490Y61455574D01*
X17294490Y61455574D02*
X17357385Y61424126D01*
X25923442Y67265307D02*
X25954890Y67233859D01*
X25954890Y67233859D02*
X26049232Y67202412D01*
X26049232Y67202412D02*
X26112128Y67202412D01*
X26112128Y67202412D02*
X26206471Y67233859D01*
X26206471Y67233859D02*
X26269366Y67296755D01*
X26269366Y67296755D02*
X26300813Y67359650D01*
X26300813Y67359650D02*
X26332261Y67485440D01*
X26332261Y67485440D02*
X26332261Y67579783D01*
X26332261Y67579783D02*
X26300813Y67705574D01*
X26300813Y67705574D02*
X26269366Y67768469D01*
X26269366Y67768469D02*
X26206471Y67831364D01*
X26206471Y67831364D02*
X26112128Y67862812D01*
X26112128Y67862812D02*
X26049232Y67862812D01*
X26049232Y67862812D02*
X25954890Y67831364D01*
X25954890Y67831364D02*
X25923442Y67799917D01*
X25357385Y67642679D02*
X25357385Y67202412D01*
X25514623Y67894259D02*
X25671861Y67422545D01*
X25671861Y67422545D02*
X25263042Y67422545D01*
X25042909Y67799917D02*
X25011461Y67831364D01*
X25011461Y67831364D02*
X24948566Y67862812D01*
X24948566Y67862812D02*
X24791328Y67862812D01*
X24791328Y67862812D02*
X24728433Y67831364D01*
X24728433Y67831364D02*
X24696985Y67799917D01*
X24696985Y67799917D02*
X24665538Y67737021D01*
X24665538Y67737021D02*
X24665538Y67674126D01*
X24665538Y67674126D02*
X24696985Y67579783D01*
X24696985Y67579783D02*
X25074357Y67202412D01*
X25074357Y67202412D02*
X24665538Y67202412D01*
X18423442Y67202412D02*
X18643575Y67516888D01*
X18800813Y67202412D02*
X18800813Y67862812D01*
X18800813Y67862812D02*
X18549232Y67862812D01*
X18549232Y67862812D02*
X18486337Y67831364D01*
X18486337Y67831364D02*
X18454890Y67799917D01*
X18454890Y67799917D02*
X18423442Y67737021D01*
X18423442Y67737021D02*
X18423442Y67642679D01*
X18423442Y67642679D02*
X18454890Y67579783D01*
X18454890Y67579783D02*
X18486337Y67548336D01*
X18486337Y67548336D02*
X18549232Y67516888D01*
X18549232Y67516888D02*
X18800813Y67516888D01*
X17794490Y67202412D02*
X18171861Y67202412D01*
X17983175Y67202412D02*
X17983175Y67862812D01*
X17983175Y67862812D02*
X18046071Y67768469D01*
X18046071Y67768469D02*
X18108966Y67705574D01*
X18108966Y67705574D02*
X18171861Y67674126D01*
X17574357Y67862812D02*
X17134090Y67862812D01*
X17134090Y67862812D02*
X17417119Y67202412D01*
X58753309Y76450198D02*
X58092909Y76450198D01*
X58092909Y76450198D02*
X58092909Y76292960D01*
X58092909Y76292960D02*
X58124357Y76198617D01*
X58124357Y76198617D02*
X58187252Y76135722D01*
X58187252Y76135722D02*
X58250147Y76104275D01*
X58250147Y76104275D02*
X58375938Y76072827D01*
X58375938Y76072827D02*
X58470281Y76072827D01*
X58470281Y76072827D02*
X58596071Y76104275D01*
X58596071Y76104275D02*
X58658966Y76135722D01*
X58658966Y76135722D02*
X58721862Y76198617D01*
X58721862Y76198617D02*
X58753309Y76292960D01*
X58753309Y76292960D02*
X58753309Y76450198D01*
X58313042Y75506770D02*
X58753309Y75506770D01*
X58061462Y75664008D02*
X58533176Y75821246D01*
X58533176Y75821246D02*
X58533176Y75412427D01*
X15059151Y61621812D02*
X15059151Y62282212D01*
X14367304Y61684707D02*
X14398752Y61653259D01*
X14398752Y61653259D02*
X14493094Y61621812D01*
X14493094Y61621812D02*
X14555990Y61621812D01*
X14555990Y61621812D02*
X14650333Y61653259D01*
X14650333Y61653259D02*
X14713228Y61716155D01*
X14713228Y61716155D02*
X14744675Y61779050D01*
X14744675Y61779050D02*
X14776123Y61904840D01*
X14776123Y61904840D02*
X14776123Y61999183D01*
X14776123Y61999183D02*
X14744675Y62124974D01*
X14744675Y62124974D02*
X14713228Y62187869D01*
X14713228Y62187869D02*
X14650333Y62250764D01*
X14650333Y62250764D02*
X14555990Y62282212D01*
X14555990Y62282212D02*
X14493094Y62282212D01*
X14493094Y62282212D02*
X14398752Y62250764D01*
X14398752Y62250764D02*
X14367304Y62219317D01*
X13738352Y61621812D02*
X14115723Y61621812D01*
X13927037Y61621812D02*
X13927037Y62282212D01*
X13927037Y62282212D02*
X13989933Y62187869D01*
X13989933Y62187869D02*
X14052828Y62124974D01*
X14052828Y62124974D02*
X14115723Y62093526D01*
X13329533Y62282212D02*
X13266638Y62282212D01*
X13266638Y62282212D02*
X13203742Y62250764D01*
X13203742Y62250764D02*
X13172295Y62219317D01*
X13172295Y62219317D02*
X13140847Y62156421D01*
X13140847Y62156421D02*
X13109400Y62030631D01*
X13109400Y62030631D02*
X13109400Y61873393D01*
X13109400Y61873393D02*
X13140847Y61747602D01*
X13140847Y61747602D02*
X13172295Y61684707D01*
X13172295Y61684707D02*
X13203742Y61653259D01*
X13203742Y61653259D02*
X13266638Y61621812D01*
X13266638Y61621812D02*
X13329533Y61621812D01*
X13329533Y61621812D02*
X13392428Y61653259D01*
X13392428Y61653259D02*
X13423876Y61684707D01*
X13423876Y61684707D02*
X13455323Y61747602D01*
X13455323Y61747602D02*
X13486771Y61873393D01*
X13486771Y61873393D02*
X13486771Y62030631D01*
X13486771Y62030631D02*
X13455323Y62156421D01*
X13455323Y62156421D02*
X13423876Y62219317D01*
X13423876Y62219317D02*
X13392428Y62250764D01*
X13392428Y62250764D02*
X13329533Y62282212D01*
X26707223Y56353759D02*
X26927356Y56668235D01*
X27084594Y56353759D02*
X27084594Y57014159D01*
X27084594Y57014159D02*
X26833013Y57014159D01*
X26833013Y57014159D02*
X26770118Y56982711D01*
X26770118Y56982711D02*
X26738671Y56951264D01*
X26738671Y56951264D02*
X26707223Y56888368D01*
X26707223Y56888368D02*
X26707223Y56794026D01*
X26707223Y56794026D02*
X26738671Y56731130D01*
X26738671Y56731130D02*
X26770118Y56699683D01*
X26770118Y56699683D02*
X26833013Y56668235D01*
X26833013Y56668235D02*
X27084594Y56668235D01*
X26392747Y56353759D02*
X26266956Y56353759D01*
X26266956Y56353759D02*
X26204061Y56385206D01*
X26204061Y56385206D02*
X26172613Y56416654D01*
X26172613Y56416654D02*
X26109718Y56510997D01*
X26109718Y56510997D02*
X26078271Y56636787D01*
X26078271Y56636787D02*
X26078271Y56888368D01*
X26078271Y56888368D02*
X26109718Y56951264D01*
X26109718Y56951264D02*
X26141166Y56982711D01*
X26141166Y56982711D02*
X26204061Y57014159D01*
X26204061Y57014159D02*
X26329852Y57014159D01*
X26329852Y57014159D02*
X26392747Y56982711D01*
X26392747Y56982711D02*
X26424194Y56951264D01*
X26424194Y56951264D02*
X26455642Y56888368D01*
X26455642Y56888368D02*
X26455642Y56731130D01*
X26455642Y56731130D02*
X26424194Y56668235D01*
X26424194Y56668235D02*
X26392747Y56636787D01*
X26392747Y56636787D02*
X26329852Y56605340D01*
X26329852Y56605340D02*
X26204061Y56605340D01*
X26204061Y56605340D02*
X26141166Y56636787D01*
X26141166Y56636787D02*
X26109718Y56668235D01*
X26109718Y56668235D02*
X26078271Y56731130D01*
X12673442Y67452412D02*
X12893575Y67766888D01*
X13050813Y67452412D02*
X13050813Y68112812D01*
X13050813Y68112812D02*
X12799232Y68112812D01*
X12799232Y68112812D02*
X12736337Y68081364D01*
X12736337Y68081364D02*
X12704890Y68049917D01*
X12704890Y68049917D02*
X12673442Y67987021D01*
X12673442Y67987021D02*
X12673442Y67892679D01*
X12673442Y67892679D02*
X12704890Y67829783D01*
X12704890Y67829783D02*
X12736337Y67798336D01*
X12736337Y67798336D02*
X12799232Y67766888D01*
X12799232Y67766888D02*
X13050813Y67766888D01*
X12421861Y68049917D02*
X12390413Y68081364D01*
X12390413Y68081364D02*
X12327518Y68112812D01*
X12327518Y68112812D02*
X12170280Y68112812D01*
X12170280Y68112812D02*
X12107385Y68081364D01*
X12107385Y68081364D02*
X12075937Y68049917D01*
X12075937Y68049917D02*
X12044490Y67987021D01*
X12044490Y67987021D02*
X12044490Y67924126D01*
X12044490Y67924126D02*
X12075937Y67829783D01*
X12075937Y67829783D02*
X12453309Y67452412D01*
X12453309Y67452412D02*
X12044490Y67452412D01*
X11415538Y67452412D02*
X11792909Y67452412D01*
X11604223Y67452412D02*
X11604223Y68112812D01*
X11604223Y68112812D02*
X11667119Y68018469D01*
X11667119Y68018469D02*
X11730014Y67955574D01*
X11730014Y67955574D02*
X11792909Y67924126D01*
X20923442Y67265307D02*
X20954890Y67233859D01*
X20954890Y67233859D02*
X21049232Y67202412D01*
X21049232Y67202412D02*
X21112128Y67202412D01*
X21112128Y67202412D02*
X21206471Y67233859D01*
X21206471Y67233859D02*
X21269366Y67296755D01*
X21269366Y67296755D02*
X21300813Y67359650D01*
X21300813Y67359650D02*
X21332261Y67485440D01*
X21332261Y67485440D02*
X21332261Y67579783D01*
X21332261Y67579783D02*
X21300813Y67705574D01*
X21300813Y67705574D02*
X21269366Y67768469D01*
X21269366Y67768469D02*
X21206471Y67831364D01*
X21206471Y67831364D02*
X21112128Y67862812D01*
X21112128Y67862812D02*
X21049232Y67862812D01*
X21049232Y67862812D02*
X20954890Y67831364D01*
X20954890Y67831364D02*
X20923442Y67799917D01*
X20357385Y67642679D02*
X20357385Y67202412D01*
X20514623Y67894259D02*
X20671861Y67422545D01*
X20671861Y67422545D02*
X20263042Y67422545D01*
X19665538Y67202412D02*
X20042909Y67202412D01*
X19854223Y67202412D02*
X19854223Y67862812D01*
X19854223Y67862812D02*
X19917119Y67768469D01*
X19917119Y67768469D02*
X19980014Y67705574D01*
X19980014Y67705574D02*
X20042909Y67674126D01*
X49451337Y70114912D02*
X49451337Y70775312D01*
X49451337Y70775312D02*
X49294099Y70775312D01*
X49294099Y70775312D02*
X49199756Y70743864D01*
X49199756Y70743864D02*
X49136861Y70680969D01*
X49136861Y70680969D02*
X49105414Y70618074D01*
X49105414Y70618074D02*
X49073966Y70492283D01*
X49073966Y70492283D02*
X49073966Y70397940D01*
X49073966Y70397940D02*
X49105414Y70272150D01*
X49105414Y70272150D02*
X49136861Y70209255D01*
X49136861Y70209255D02*
X49199756Y70146359D01*
X49199756Y70146359D02*
X49294099Y70114912D01*
X49294099Y70114912D02*
X49451337Y70114912D01*
X48507909Y70775312D02*
X48633699Y70775312D01*
X48633699Y70775312D02*
X48696595Y70743864D01*
X48696595Y70743864D02*
X48728042Y70712417D01*
X48728042Y70712417D02*
X48790937Y70618074D01*
X48790937Y70618074D02*
X48822385Y70492283D01*
X48822385Y70492283D02*
X48822385Y70240702D01*
X48822385Y70240702D02*
X48790937Y70177807D01*
X48790937Y70177807D02*
X48759490Y70146359D01*
X48759490Y70146359D02*
X48696595Y70114912D01*
X48696595Y70114912D02*
X48570804Y70114912D01*
X48570804Y70114912D02*
X48507909Y70146359D01*
X48507909Y70146359D02*
X48476461Y70177807D01*
X48476461Y70177807D02*
X48445014Y70240702D01*
X48445014Y70240702D02*
X48445014Y70397940D01*
X48445014Y70397940D02*
X48476461Y70460836D01*
X48476461Y70460836D02*
X48507909Y70492283D01*
X48507909Y70492283D02*
X48570804Y70523731D01*
X48570804Y70523731D02*
X48696595Y70523731D01*
X48696595Y70523731D02*
X48759490Y70492283D01*
X48759490Y70492283D02*
X48790937Y70460836D01*
X48790937Y70460836D02*
X48822385Y70397940D01*
X29397542Y43008707D02*
X29428990Y42977259D01*
X29428990Y42977259D02*
X29523332Y42945812D01*
X29523332Y42945812D02*
X29586228Y42945812D01*
X29586228Y42945812D02*
X29680571Y42977259D01*
X29680571Y42977259D02*
X29743466Y43040155D01*
X29743466Y43040155D02*
X29774913Y43103050D01*
X29774913Y43103050D02*
X29806361Y43228840D01*
X29806361Y43228840D02*
X29806361Y43323183D01*
X29806361Y43323183D02*
X29774913Y43448974D01*
X29774913Y43448974D02*
X29743466Y43511869D01*
X29743466Y43511869D02*
X29680571Y43574764D01*
X29680571Y43574764D02*
X29586228Y43606212D01*
X29586228Y43606212D02*
X29523332Y43606212D01*
X29523332Y43606212D02*
X29428990Y43574764D01*
X29428990Y43574764D02*
X29397542Y43543317D01*
X28768590Y42945812D02*
X29145961Y42945812D01*
X28957275Y42945812D02*
X28957275Y43606212D01*
X28957275Y43606212D02*
X29020171Y43511869D01*
X29020171Y43511869D02*
X29083066Y43448974D01*
X29083066Y43448974D02*
X29145961Y43417526D01*
X28202533Y43606212D02*
X28328323Y43606212D01*
X28328323Y43606212D02*
X28391219Y43574764D01*
X28391219Y43574764D02*
X28422666Y43543317D01*
X28422666Y43543317D02*
X28485561Y43448974D01*
X28485561Y43448974D02*
X28517009Y43323183D01*
X28517009Y43323183D02*
X28517009Y43071602D01*
X28517009Y43071602D02*
X28485561Y43008707D01*
X28485561Y43008707D02*
X28454114Y42977259D01*
X28454114Y42977259D02*
X28391219Y42945812D01*
X28391219Y42945812D02*
X28265428Y42945812D01*
X28265428Y42945812D02*
X28202533Y42977259D01*
X28202533Y42977259D02*
X28171085Y43008707D01*
X28171085Y43008707D02*
X28139638Y43071602D01*
X28139638Y43071602D02*
X28139638Y43228840D01*
X28139638Y43228840D02*
X28171085Y43291736D01*
X28171085Y43291736D02*
X28202533Y43323183D01*
X28202533Y43323183D02*
X28265428Y43354631D01*
X28265428Y43354631D02*
X28391219Y43354631D01*
X28391219Y43354631D02*
X28454114Y43323183D01*
X28454114Y43323183D02*
X28485561Y43291736D01*
X28485561Y43291736D02*
X28517009Y43228840D01*
X9323425Y73518358D02*
X9543558Y73832834D01*
X9700796Y73518358D02*
X9700796Y74178758D01*
X9700796Y74178758D02*
X9449215Y74178758D01*
X9449215Y74178758D02*
X9386320Y74147310D01*
X9386320Y74147310D02*
X9354873Y74115863D01*
X9354873Y74115863D02*
X9323425Y74052967D01*
X9323425Y74052967D02*
X9323425Y73958625D01*
X9323425Y73958625D02*
X9354873Y73895729D01*
X9354873Y73895729D02*
X9386320Y73864282D01*
X9386320Y73864282D02*
X9449215Y73832834D01*
X9449215Y73832834D02*
X9700796Y73832834D01*
X8946054Y73895729D02*
X9008949Y73927177D01*
X9008949Y73927177D02*
X9040396Y73958625D01*
X9040396Y73958625D02*
X9071844Y74021520D01*
X9071844Y74021520D02*
X9071844Y74052967D01*
X9071844Y74052967D02*
X9040396Y74115863D01*
X9040396Y74115863D02*
X9008949Y74147310D01*
X9008949Y74147310D02*
X8946054Y74178758D01*
X8946054Y74178758D02*
X8820263Y74178758D01*
X8820263Y74178758D02*
X8757368Y74147310D01*
X8757368Y74147310D02*
X8725920Y74115863D01*
X8725920Y74115863D02*
X8694473Y74052967D01*
X8694473Y74052967D02*
X8694473Y74021520D01*
X8694473Y74021520D02*
X8725920Y73958625D01*
X8725920Y73958625D02*
X8757368Y73927177D01*
X8757368Y73927177D02*
X8820263Y73895729D01*
X8820263Y73895729D02*
X8946054Y73895729D01*
X8946054Y73895729D02*
X9008949Y73864282D01*
X9008949Y73864282D02*
X9040396Y73832834D01*
X9040396Y73832834D02*
X9071844Y73769939D01*
X9071844Y73769939D02*
X9071844Y73644148D01*
X9071844Y73644148D02*
X9040396Y73581253D01*
X9040396Y73581253D02*
X9008949Y73549805D01*
X9008949Y73549805D02*
X8946054Y73518358D01*
X8946054Y73518358D02*
X8820263Y73518358D01*
X8820263Y73518358D02*
X8757368Y73549805D01*
X8757368Y73549805D02*
X8725920Y73581253D01*
X8725920Y73581253D02*
X8694473Y73644148D01*
X8694473Y73644148D02*
X8694473Y73769939D01*
X8694473Y73769939D02*
X8725920Y73832834D01*
X8725920Y73832834D02*
X8757368Y73864282D01*
X8757368Y73864282D02*
X8820263Y73895729D01*
X23076212Y50705845D02*
X23296345Y51020321D01*
X23453583Y50705845D02*
X23453583Y51366245D01*
X23453583Y51366245D02*
X23202002Y51366245D01*
X23202002Y51366245D02*
X23139107Y51334797D01*
X23139107Y51334797D02*
X23107660Y51303350D01*
X23107660Y51303350D02*
X23076212Y51240454D01*
X23076212Y51240454D02*
X23076212Y51146112D01*
X23076212Y51146112D02*
X23107660Y51083216D01*
X23107660Y51083216D02*
X23139107Y51051769D01*
X23139107Y51051769D02*
X23202002Y51020321D01*
X23202002Y51020321D02*
X23453583Y51020321D01*
X22856079Y51366245D02*
X22415812Y51366245D01*
X22415812Y51366245D02*
X22698841Y50705845D01*
X57342720Y67106039D02*
X57374168Y67074591D01*
X57374168Y67074591D02*
X57468510Y67043144D01*
X57468510Y67043144D02*
X57531406Y67043144D01*
X57531406Y67043144D02*
X57625749Y67074591D01*
X57625749Y67074591D02*
X57688644Y67137487D01*
X57688644Y67137487D02*
X57720091Y67200382D01*
X57720091Y67200382D02*
X57751539Y67326172D01*
X57751539Y67326172D02*
X57751539Y67420515D01*
X57751539Y67420515D02*
X57720091Y67546306D01*
X57720091Y67546306D02*
X57688644Y67609201D01*
X57688644Y67609201D02*
X57625749Y67672096D01*
X57625749Y67672096D02*
X57531406Y67703544D01*
X57531406Y67703544D02*
X57468510Y67703544D01*
X57468510Y67703544D02*
X57374168Y67672096D01*
X57374168Y67672096D02*
X57342720Y67640649D01*
X57091139Y67640649D02*
X57059691Y67672096D01*
X57059691Y67672096D02*
X56996796Y67703544D01*
X56996796Y67703544D02*
X56839558Y67703544D01*
X56839558Y67703544D02*
X56776663Y67672096D01*
X56776663Y67672096D02*
X56745215Y67640649D01*
X56745215Y67640649D02*
X56713768Y67577753D01*
X56713768Y67577753D02*
X56713768Y67514858D01*
X56713768Y67514858D02*
X56745215Y67420515D01*
X56745215Y67420515D02*
X57122587Y67043144D01*
X57122587Y67043144D02*
X56713768Y67043144D01*
X53645338Y75397800D02*
X53330862Y75617933D01*
X53645338Y75775171D02*
X52984938Y75775171D01*
X52984938Y75775171D02*
X52984938Y75523590D01*
X52984938Y75523590D02*
X53016386Y75460695D01*
X53016386Y75460695D02*
X53047833Y75429248D01*
X53047833Y75429248D02*
X53110729Y75397800D01*
X53110729Y75397800D02*
X53205071Y75397800D01*
X53205071Y75397800D02*
X53267967Y75429248D01*
X53267967Y75429248D02*
X53299414Y75460695D01*
X53299414Y75460695D02*
X53330862Y75523590D01*
X53330862Y75523590D02*
X53330862Y75775171D01*
X53047833Y75146219D02*
X53016386Y75114771D01*
X53016386Y75114771D02*
X52984938Y75051876D01*
X52984938Y75051876D02*
X52984938Y74894638D01*
X52984938Y74894638D02*
X53016386Y74831743D01*
X53016386Y74831743D02*
X53047833Y74800295D01*
X53047833Y74800295D02*
X53110729Y74768848D01*
X53110729Y74768848D02*
X53173624Y74768848D01*
X53173624Y74768848D02*
X53267967Y74800295D01*
X53267967Y74800295D02*
X53645338Y75177667D01*
X53645338Y75177667D02*
X53645338Y74768848D01*
X53645338Y74454372D02*
X53645338Y74328581D01*
X53645338Y74328581D02*
X53613891Y74265686D01*
X53613891Y74265686D02*
X53582443Y74234238D01*
X53582443Y74234238D02*
X53488100Y74171343D01*
X53488100Y74171343D02*
X53362310Y74139896D01*
X53362310Y74139896D02*
X53110729Y74139896D01*
X53110729Y74139896D02*
X53047833Y74171343D01*
X53047833Y74171343D02*
X53016386Y74202791D01*
X53016386Y74202791D02*
X52984938Y74265686D01*
X52984938Y74265686D02*
X52984938Y74391477D01*
X52984938Y74391477D02*
X53016386Y74454372D01*
X53016386Y74454372D02*
X53047833Y74485819D01*
X53047833Y74485819D02*
X53110729Y74517267D01*
X53110729Y74517267D02*
X53267967Y74517267D01*
X53267967Y74517267D02*
X53330862Y74485819D01*
X53330862Y74485819D02*
X53362310Y74454372D01*
X53362310Y74454372D02*
X53393757Y74391477D01*
X53393757Y74391477D02*
X53393757Y74265686D01*
X53393757Y74265686D02*
X53362310Y74202791D01*
X53362310Y74202791D02*
X53330862Y74171343D01*
X53330862Y74171343D02*
X53267967Y74139896D01*
X24991164Y50734900D02*
X25211297Y51049376D01*
X25368535Y50734900D02*
X25368535Y51395300D01*
X25368535Y51395300D02*
X25116954Y51395300D01*
X25116954Y51395300D02*
X25054059Y51363852D01*
X25054059Y51363852D02*
X25022612Y51332405D01*
X25022612Y51332405D02*
X24991164Y51269509D01*
X24991164Y51269509D02*
X24991164Y51175167D01*
X24991164Y51175167D02*
X25022612Y51112271D01*
X25022612Y51112271D02*
X25054059Y51080824D01*
X25054059Y51080824D02*
X25116954Y51049376D01*
X25116954Y51049376D02*
X25368535Y51049376D01*
X24425107Y51175167D02*
X24425107Y50734900D01*
X24582345Y51426747D02*
X24739583Y50955033D01*
X24739583Y50955033D02*
X24330764Y50955033D01*
X33107382Y46743617D02*
X33421858Y46743617D01*
X33421858Y46743617D02*
X33421858Y47404017D01*
X32950144Y47404017D02*
X32541325Y47404017D01*
X32541325Y47404017D02*
X32761458Y47152436D01*
X32761458Y47152436D02*
X32667115Y47152436D01*
X32667115Y47152436D02*
X32604220Y47120988D01*
X32604220Y47120988D02*
X32572772Y47089541D01*
X32572772Y47089541D02*
X32541325Y47026645D01*
X32541325Y47026645D02*
X32541325Y46869407D01*
X32541325Y46869407D02*
X32572772Y46806512D01*
X32572772Y46806512D02*
X32604220Y46775064D01*
X32604220Y46775064D02*
X32667115Y46743617D01*
X32667115Y46743617D02*
X32855801Y46743617D01*
X32855801Y46743617D02*
X32918696Y46775064D01*
X32918696Y46775064D02*
X32950144Y46806512D01*
D12*
%TO.C,R20*%
X10420000Y63573041D02*
X10420000Y63265759D01*
X11180000Y63573041D02*
X11180000Y63265759D01*
%TO.C,C23*%
X59871064Y74285000D02*
X60086736Y74285000D01*
X59871064Y73565000D02*
X60086736Y73565000D01*
%TO.C,D5*%
X48238900Y78600000D02*
X48238900Y79250000D01*
X48238900Y78600000D02*
X48238900Y77950000D01*
X51358900Y78600000D02*
X51358900Y79250000D01*
X51358900Y78600000D02*
X51358900Y77950000D01*
X51638900Y77197500D02*
X51308900Y77437500D01*
X51638900Y77677500D01*
X51638900Y77197500D01*
G36*
X51638900Y77197500D02*
G01*
X51308900Y77437500D01*
X51638900Y77677500D01*
X51638900Y77197500D01*
G37*
%TO.C,R3*%
X59845259Y71567500D02*
X60152541Y71567500D01*
X59845259Y70807500D02*
X60152541Y70807500D01*
%TO.C,R19*%
X22620000Y66173041D02*
X22620000Y65865759D01*
X23380000Y66173041D02*
X23380000Y65865759D01*
%TO.C,R28*%
X57268900Y71003641D02*
X57268900Y70696359D01*
X58028900Y71003641D02*
X58028900Y70696359D01*
%TO.C,C15*%
X23190000Y56378820D02*
X23190000Y56659980D01*
X24210000Y56378820D02*
X24210000Y56659980D01*
%TO.C,C1*%
X17438000Y62875236D02*
X17438000Y62659564D01*
X18158000Y62875236D02*
X18158000Y62659564D01*
%TO.C,C42*%
X24540000Y66127236D02*
X24540000Y65911564D01*
X25260000Y66127236D02*
X25260000Y65911564D01*
%TO.C,R17*%
X18020000Y65865759D02*
X18020000Y66173041D01*
X18780000Y65865759D02*
X18780000Y66173041D01*
%TO.C,D4*%
X55138900Y74400000D02*
X55138900Y75050000D01*
X55138900Y74400000D02*
X55138900Y73750000D01*
X58258900Y74400000D02*
X58258900Y75050000D01*
X58258900Y74400000D02*
X58258900Y73750000D01*
X58538900Y72997500D02*
X58208900Y73237500D01*
X58538900Y73477500D01*
X58538900Y72997500D01*
G36*
X58538900Y72997500D02*
G01*
X58208900Y73237500D01*
X58538900Y73477500D01*
X58538900Y72997500D01*
G37*
%TO.C,IC10*%
X14100000Y65879400D02*
X13300000Y65879400D01*
X14100000Y65879400D02*
X14900000Y65879400D01*
X14100000Y62759400D02*
X13300000Y62759400D01*
X14100000Y62759400D02*
X14900000Y62759400D01*
X13040000Y62479400D02*
X12560000Y62479400D01*
X12800000Y62809400D01*
X13040000Y62479400D01*
G36*
X13040000Y62479400D02*
G01*
X12560000Y62479400D01*
X12800000Y62809400D01*
X13040000Y62479400D01*
G37*
%TO.C,R9*%
X26446359Y55999400D02*
X26753641Y55999400D01*
X26446359Y55239400D02*
X26753641Y55239400D01*
%TO.C,R21*%
X10420000Y67473041D02*
X10420000Y67165759D01*
X11180000Y67473041D02*
X11180000Y67165759D01*
%TO.C,C41*%
X20440000Y65911564D02*
X20440000Y66127236D01*
X21160000Y65911564D02*
X21160000Y66127236D01*
%TO.C,D6*%
X48798900Y74360000D02*
X48148900Y74360000D01*
X48798900Y74360000D02*
X49448900Y74360000D01*
X48798900Y71240000D02*
X48148900Y71240000D01*
X48798900Y71240000D02*
X49448900Y71240000D01*
X49961400Y74310000D02*
X49721400Y74640000D01*
X50201400Y74640000D01*
X49961400Y74310000D01*
G36*
X49961400Y74310000D02*
G01*
X49721400Y74640000D01*
X50201400Y74640000D01*
X49961400Y74310000D01*
G37*
%TO.C,C16*%
X28640000Y44727236D02*
X28640000Y44511564D01*
X29360000Y44727236D02*
X29360000Y44511564D01*
%TO.C,R8*%
X9213359Y73195346D02*
X9520641Y73195346D01*
X9213359Y72435346D02*
X9520641Y72435346D01*
%TO.C,R7*%
X22644000Y52745041D02*
X22644000Y52437759D01*
X23404000Y52745041D02*
X23404000Y52437759D01*
%TO.C,C2*%
X60086736Y72916250D02*
X59871064Y72916250D01*
X60086736Y72196250D02*
X59871064Y72196250D01*
%TO.C,R29*%
X54018900Y75246359D02*
X54018900Y75553641D01*
X54778900Y75246359D02*
X54778900Y75553641D01*
%TO.C,R4*%
X24497200Y52442959D02*
X24497200Y52750241D01*
X25257200Y52442959D02*
X25257200Y52750241D01*
%TO.C,L3*%
X32127064Y46254400D02*
X31672936Y46254400D01*
X32127064Y44784400D02*
X31672936Y44784400D01*
%TD*%
D13*
X60423900Y0D02*
G75*
G02*
X61923900Y1500000I1500000J0D01*
G01*
X1500000Y0D02*
X60423900Y0D01*
X0Y1500000D02*
G75*
G02*
X1500000Y0I0J-1500000D01*
G01*
X1500000Y84400000D02*
G75*
G02*
X0Y82900000I-1500000J0D01*
G01*
D14*
X61923900Y1500000D02*
X61923900Y82900000D01*
D13*
X60423900Y84400000D02*
X1500000Y84400000D01*
X0Y82900000D02*
X0Y1500000D01*
X61923900Y82900000D02*
G75*
G02*
X60423900Y84400000I0J1500000D01*
G01*
M02*
